<svg width="1825" height="720" viewBox="0 0 1825 720" fill="none" xmlns="http://www.w3.org/2000/svg">
<path d="M50.7788 266.999V306.811H0.158947V156.621C1.5378e-05 141.204 2.94026 130.715 8.82075 125.072C12.8735 121.735 19.946 119.669 29.8793 118.795C35.6008 118.238 42.6733 118 51.1762 118H71.7579C84.393 118 93.8494 118.556 100.127 119.589C106.405 120.622 111.014 122.45 113.954 125.072C120.073 130.715 123.013 141.204 122.775 156.621V306.891H72.1552V267.078H50.6994L50.7788 266.999ZM50.7788 224.961H72.2347V174.977C72.2347 163.455 68.6587 157.654 61.4273 157.654C54.1959 157.654 50.7788 163.455 50.7788 174.977V224.961Z" fill="white"/>
<path d="M267.88 198.976V265.092C267.88 276.137 267.244 284.322 266.052 289.567C263.986 297.991 258.344 303.156 248.888 305.222C243.643 306.335 233.233 306.891 217.737 306.891H196.44C184.441 306.891 175.541 306.652 169.581 306.096C157.979 304.745 150.827 299.977 148.125 291.872C146.615 287.183 145.82 281.462 145.661 274.866L145.344 256.033L145.185 241.252V184.513C145.185 167.507 145.82 154.872 147.171 146.369C148.522 137.946 150.906 131.748 154.323 127.774C159.25 122.053 167.832 118.954 180.229 118.397C184.361 118.238 189.765 118.159 196.44 118.159H267.801V164.647C261.284 161.627 248.967 159.799 231.008 159.243H213.128C205.023 159.322 200.096 160.276 198.427 162.183C196.599 164.249 195.725 169.017 195.804 176.566V243.636C195.725 252.218 196.202 258.099 197.314 261.198C198.427 264.218 202.321 265.807 208.916 265.886H217.101V220.352C217.022 212.882 215.671 205.81 213.128 199.055H267.801L267.88 198.976Z" fill="white"/>
<path d="M362.206 118H412.826V268.27C412.985 283.687 410.124 294.176 404.085 299.818C400.032 303.156 393.039 305.222 383.026 306.017C376.908 306.573 369.915 306.811 361.888 306.811H341.148C328.513 306.811 319.056 306.255 312.778 305.222C306.501 304.189 301.812 302.361 298.792 299.739C292.912 294.097 289.972 283.607 290.051 268.191V118H340.671V249.755C340.671 261.357 344.247 267.158 351.319 267.158C358.392 267.158 362.127 261.357 362.127 249.755V118H362.206Z" fill="white"/>
<path d="M436.666 118H487.286V306.891H436.666V118Z" fill="white"/>
<path d="M505.563 118H583.042C594.486 118 602.432 118.238 606.962 118.795C616.1 119.907 622.06 124.596 624.842 132.781C626.987 138.661 628.1 145.893 628.179 154.395V166.554C628.179 174.977 627.941 180.937 627.464 184.434C626.113 193.97 622.458 200.883 616.498 205.174C613.081 207.558 607.756 209.148 600.445 210.022C607.915 212.247 613.319 214.472 616.736 216.697C624.762 222.339 628.576 232.113 628.1 246.02V275.184C628.179 288.137 629.53 298.626 632.152 306.891H581.374C578.672 298.865 577.4 288.296 577.48 275.104V249.914C577.4 243.159 575.97 238.629 573.189 236.245C570.566 234.1 567.07 233.067 562.54 233.067H556.183V306.97H505.563V118ZM556.183 191.903H563.414C569.136 191.903 572.791 191.029 574.46 189.281C576.685 186.977 577.798 182.368 577.798 175.454C577.798 168.54 576.288 164.011 573.189 161.309C571.361 159.72 568.103 158.925 563.335 158.925H556.103V191.824L556.183 191.903Z" fill="white"/>
<path d="M646.297 118H723.777C735.22 118 743.166 118.238 747.696 118.795C756.835 119.907 762.795 124.596 765.576 132.781C767.721 138.661 768.834 145.893 768.913 154.395V166.554C768.913 174.977 768.675 180.937 768.198 184.434C766.847 193.97 763.192 200.883 757.232 205.174C753.815 207.558 748.491 209.148 741.18 210.022C748.65 212.247 754.053 214.472 757.47 216.697C765.496 222.339 769.311 232.113 768.834 246.02V275.184C768.913 288.137 770.264 298.626 772.887 306.891H722.108C719.406 298.865 718.135 288.296 718.214 275.104V249.914C718.135 243.159 716.704 238.629 713.923 236.245C711.301 234.1 707.804 233.067 703.275 233.067H696.917V306.97H646.297V118ZM696.917 191.903H704.149C709.87 191.903 713.526 191.029 715.194 189.281C717.419 186.977 718.532 182.368 718.532 175.454C718.532 168.54 717.022 164.011 713.923 161.309C712.095 159.72 708.837 158.925 704.069 158.925H696.838V191.824L696.917 191.903Z" fill="white"/>
<path d="M883.027 118V159.084H836.142V191.903H883.027V232.987H836.142V265.807H883.027V306.891H835.586C818.421 306.732 808.011 306.017 804.276 304.825C796.409 302.361 791.402 296.64 789.177 287.819C786.476 277.965 785.284 261.595 785.442 238.868V178.712C785.442 172.832 785.76 165.918 786.396 158.13C787.032 150.263 787.747 144.78 788.462 141.522C790.449 132.781 794.104 126.662 799.429 123.245C803.084 120.94 807.057 119.589 811.19 119.113C815.719 118.636 823.825 118.318 835.506 118.159H882.947L883.027 118Z" fill="white"/>
<path d="M911.237 292.666H954.308L919.025 357.59H884.298L911.237 292.666Z" fill="white"/>
<path d="M0 412.66H71.6784C81.4527 412.74 87.6511 412.819 90.194 412.899C106.246 413.534 116.1 419.733 119.676 431.414C121.663 437.215 122.855 452.155 123.172 476.074V527.012C123.172 548.15 122.378 563.566 120.709 573.341C119.04 583.115 116.1 590.108 111.888 594.24C107.915 598.213 102.352 600.438 95.2798 600.915C94.0083 600.995 86.1412 601.233 71.7578 601.471H0V412.581V412.66ZM50.6199 559.911H59.7585C64.8443 559.911 68.1819 558.957 69.6917 557.129C71.44 554.984 72.3936 550.375 72.473 543.302V470.353C72.3936 463.121 71.44 458.512 69.6917 456.525C68.1024 454.698 64.7648 453.744 59.7585 453.744H50.6199V559.831V559.911Z" fill="white"/>
<path d="M235.458 412.66V453.744H188.573V486.564H235.458V527.648H188.573V560.467H235.458V601.551H188.017C170.852 601.392 160.442 600.677 156.707 599.485C148.84 597.021 143.834 591.3 141.609 582.479C138.907 572.625 137.715 556.255 137.874 533.528V473.372C137.874 467.492 138.191 460.578 138.827 452.791C139.463 444.923 140.178 439.44 140.893 436.182C142.88 427.441 146.535 421.322 151.86 417.905C155.515 415.6 159.488 414.249 163.621 413.773C168.15 413.296 176.256 412.978 187.937 412.819H235.378L235.458 412.66Z" fill="white"/>
<path d="M262.874 412.66H340.353C351.796 412.66 359.743 412.899 364.272 413.455C373.411 414.567 379.371 419.256 382.152 427.441C384.298 433.321 385.41 440.553 385.49 449.056V461.214C385.49 469.637 385.251 475.597 384.775 479.094C383.424 488.63 379.768 495.543 373.808 499.834C370.391 502.218 365.067 503.808 357.756 504.682C365.226 506.907 370.63 509.132 374.047 511.357C382.073 516.999 385.887 526.773 385.41 540.68V569.844C385.49 582.797 386.841 593.286 389.463 601.551H338.684C335.983 593.525 334.711 582.956 334.791 569.765V544.574C334.711 537.819 333.281 533.29 330.499 530.906C327.877 528.76 324.38 527.727 319.851 527.727H313.494V601.63H262.874V412.74V412.66ZM313.494 486.564H320.725C326.447 486.564 330.102 485.689 331.771 483.941C333.996 481.637 335.108 477.028 335.108 470.114C335.108 463.201 333.599 458.671 330.499 455.969C328.672 454.38 325.414 453.585 320.646 453.585H313.414V486.484L313.494 486.564Z" fill="white"/>
<path d="M468.929 412.66H566.593L524.396 560.467H569.613L563.812 601.551H462.492L505.404 453.744H463.208L468.85 412.66H468.929Z" fill="white"/>
<path d="M714.241 489.345V524.787C714.241 539.17 713.685 550.772 712.572 559.672C710.109 577.473 703.91 589.313 694.056 595.273C687.222 599.405 677.289 601.551 664.177 601.63H641.37C628.259 601.551 618.325 599.405 611.491 595.273C601.637 589.393 595.36 577.552 592.817 559.672C591.784 550.852 591.307 539.17 591.307 524.787V489.345C591.307 474.962 591.784 463.359 592.817 454.459C595.439 436.738 601.637 424.977 611.491 419.017C618.325 414.885 628.259 412.74 641.37 412.66H664.177C677.289 412.74 687.222 414.885 694.056 419.017C703.91 424.898 710.109 436.738 712.572 454.459C713.685 463.28 714.241 474.962 714.241 489.345ZM663.621 548.15V466.618C663.621 461.532 662.588 457.876 660.442 455.572C658.217 453.108 655.674 451.837 652.814 451.837C649.317 451.837 646.456 453.426 644.231 456.525C642.642 458.75 641.847 462.088 641.847 466.618V548.15C641.847 553.236 642.88 556.971 645.026 559.354C647.251 561.818 649.794 563.089 652.734 563.089C656.151 563.089 658.932 561.5 661.157 558.401C662.747 556.096 663.541 552.679 663.541 548.15H663.621Z" fill="white"/>
<path d="M736.253 412.66H813.732C825.175 412.66 833.122 412.899 837.652 413.455C846.79 414.567 852.75 419.256 855.531 427.441C857.677 433.321 858.79 440.553 858.869 449.056V461.214C858.869 469.637 858.631 475.597 858.154 479.094C856.803 488.63 853.147 495.543 847.188 499.834C843.77 502.218 838.446 503.808 831.135 504.682C838.605 506.907 844.009 509.132 847.426 511.357C855.452 516.999 859.266 526.773 858.79 540.68V569.844C858.869 582.797 860.22 593.286 862.842 601.551H812.064C809.362 593.525 808.09 582.956 808.17 569.765V544.574C808.09 537.819 806.66 533.29 803.879 530.906C801.256 528.76 797.76 527.727 793.23 527.727H786.873V601.63H736.253V412.74V412.66ZM786.873 486.564H794.104C799.826 486.564 803.481 485.689 805.15 483.941C807.375 481.637 808.488 477.028 808.488 470.114C808.488 463.201 806.978 458.671 803.879 455.969C802.051 454.38 798.793 453.585 794.025 453.585H786.793V486.484L786.873 486.564Z" fill="white"/>
<path d="M872.219 412.66H923.237C925.621 421.401 927.289 429.666 928.243 437.454C930.865 427.123 935.156 420.13 941.275 416.554C945.725 413.932 952.957 412.66 962.97 412.66C974.413 412.66 982.041 413.852 985.935 416.157C992.372 420.209 996.425 426.805 998.094 435.944C998.57 438.328 998.809 451.042 998.888 474.008V601.551H948.268V470.829C948.268 460.737 944.772 455.731 937.858 455.731C930.945 455.731 927.448 460.975 927.448 471.465V601.551H876.828V455.731C876.828 439.996 875.239 425.613 872.14 412.66H872.219Z" fill="white"/>
<path d="M1210.82 493.636V559.752C1210.82 570.798 1210.19 578.983 1209 584.227C1206.93 592.651 1201.29 597.816 1191.83 599.882C1186.59 600.995 1176.18 601.551 1160.68 601.551H1139.38C1127.38 601.551 1118.48 601.313 1112.52 600.756C1100.92 599.405 1093.77 594.637 1091.07 586.532C1089.56 581.843 1088.76 576.122 1088.61 569.526L1088.29 550.693L1088.13 535.912V479.173C1088.13 462.168 1088.76 449.532 1090.12 441.03C1091.47 432.606 1093.85 426.408 1097.27 422.435C1102.19 416.713 1110.78 413.614 1123.17 413.058C1127.31 412.899 1132.71 412.819 1139.38 412.819H1210.74V459.307C1204.23 456.287 1191.91 454.459 1173.95 453.903H1156.07C1147.97 453.983 1143.04 454.936 1141.37 456.843C1139.54 458.909 1138.67 463.677 1138.75 471.227V538.296C1138.67 546.878 1139.15 552.759 1140.26 555.858C1141.37 558.878 1145.26 560.467 1151.86 560.546H1160.05V515.012C1159.97 507.543 1158.61 500.47 1156.07 493.716H1210.74L1210.82 493.636Z" fill="white"/>
<path d="M1354.18 489.345V524.787C1354.18 539.17 1353.62 550.772 1352.51 559.672C1350.05 577.473 1343.85 589.313 1334 595.273C1327.16 599.405 1317.23 601.551 1304.12 601.63H1281.31C1268.2 601.551 1258.27 599.405 1251.43 595.273C1241.58 589.393 1235.3 577.552 1232.76 559.672C1231.72 550.852 1231.25 539.17 1231.25 524.787V489.345C1231.25 474.962 1231.72 463.359 1232.76 454.459C1235.38 436.738 1241.58 424.977 1251.43 419.017C1258.27 414.885 1268.2 412.74 1281.31 412.66H1304.12C1317.23 412.74 1327.16 414.885 1334 419.017C1343.85 424.898 1350.05 436.738 1352.51 454.459C1353.62 463.28 1354.18 474.962 1354.18 489.345ZM1303.48 548.15V466.618C1303.48 461.532 1302.45 457.876 1300.3 455.572C1298.08 453.108 1295.54 451.837 1292.67 451.837C1289.18 451.837 1286.32 453.426 1284.09 456.525C1282.5 458.75 1281.71 462.088 1281.71 466.618V548.15C1281.71 553.236 1282.74 556.971 1284.89 559.354C1287.11 561.818 1289.65 563.089 1292.59 563.089C1296.01 563.089 1298.79 561.5 1301.02 558.401C1302.61 556.096 1303.4 552.679 1303.4 548.15H1303.48Z" fill="white"/>
<path d="M1477.59 412.66V453.744H1454.63V601.551H1404.01V453.744H1381.04V412.66H1477.59Z" fill="white"/>
<path d="M1591.31 412.66V453.744H1568.34V601.551H1517.72V453.744H1494.76V412.66H1591.31Z" fill="white"/>
<path d="M1702.16 412.66V453.744H1655.28V486.564H1702.16V527.648H1655.28V560.467H1702.16V601.551H1654.72C1637.56 601.392 1627.15 600.677 1623.41 599.485C1615.54 597.021 1610.54 591.3 1608.31 582.479C1605.61 572.625 1604.42 556.255 1604.58 533.528V473.372C1604.58 467.492 1604.9 460.578 1605.53 452.791C1606.17 444.923 1606.88 439.44 1607.6 436.182C1609.58 427.441 1613.24 421.322 1618.56 417.905C1622.22 415.6 1626.19 414.249 1630.33 413.773C1634.86 413.296 1642.96 412.978 1654.64 412.819H1702.08L1702.16 412.66Z" fill="white"/>
<path d="M1819.45 412.66V453.744H1774.87V486.564H1784.01C1795.3 486.643 1803.24 487.835 1807.85 490.06C1815.16 493.398 1820.01 500.232 1822.55 510.562C1823.83 515.807 1824.54 524.548 1824.62 536.707V548.309C1824.22 564.281 1823.59 573.738 1822.71 576.678C1820.01 590.028 1813.26 597.975 1802.37 600.359C1798.79 600.995 1788.78 601.392 1772.33 601.63H1724.97V560.546H1772.57V527.727H1764.7C1755.33 527.727 1748.57 527.012 1744.52 525.661C1738.24 523.515 1733.71 520.337 1730.85 515.966C1727.43 510.403 1725.37 502.695 1724.65 492.762C1724.49 489.742 1724.33 484.1 1724.33 475.995V464.393C1724.49 448.34 1725.84 437.374 1728.23 431.573C1730.85 424.501 1734.51 419.653 1739.27 417.031C1743.49 414.567 1750.08 413.137 1759.06 412.899C1762.32 412.819 1767.88 412.74 1775.83 412.74H1819.53L1819.45 412.66Z" fill="white"/>
</svg>
