<svg width="1825" height="720" viewBox="0 0 1825 720" fill="none" xmlns="http://www.w3.org/2000/svg">
<g clip-path="url(#clip0_847_4435)">
<path d="M157.394 157.198H213.192L282.605 324.74H224.463L215.302 300.129H151.912L142.75 324.74H88.2693L157.394 157.198ZM170.793 263.878H196.384L188.611 242.222C186.717 236.816 183.94 227.988 183.94 227.988H183.598C183.598 227.988 181.001 236.798 178.927 242.222L170.793 263.878Z" fill="#ECECEC"/>
<path d="M698.832 157.198H754.63L824.043 324.74H765.901L756.74 300.129H693.35L684.188 324.74H629.707L698.832 157.198ZM712.231 263.878H737.822L730.049 242.222C728.155 236.816 725.378 227.988 725.378 227.988H725.036C725.036 227.988 722.439 236.798 720.365 242.222L712.231 263.878Z" fill="#ECECEC"/>
<path d="M289.151 272.274H345.201C347.041 285.391 358.564 291.607 376.635 291.607C387.365 291.607 400.476 287.931 400.476 278.022C400.476 268.112 387.906 265.59 364.858 260.527C333.425 253.626 295.445 244.185 295.445 209.214C295.445 171.468 330.539 157.198 372.721 157.198C411.494 157.198 447.112 171.468 447.887 207.376H393.677C392.108 198.404 384.768 192.638 369.836 192.638C357.789 192.638 349.403 197.467 349.403 204.151C349.403 213.808 365.381 215.196 393.406 221.177C424.84 227.844 456.273 238.672 456.273 273.644C456.273 308.615 419.862 328.65 375.607 328.65C326.896 328.65 289.963 310.237 289.169 272.274H289.151Z" fill="#ECECEC"/>
<path d="M464.1 272.274H520.15C521.99 285.391 533.513 291.607 551.584 291.607C562.314 291.607 575.425 287.931 575.425 278.022C575.425 268.112 562.855 265.59 539.807 260.527C508.374 253.626 470.394 244.185 470.394 209.214C470.394 171.468 505.488 157.198 547.67 157.198C586.443 157.198 622.061 171.468 622.836 207.376H568.626C567.057 198.404 559.717 192.638 544.785 192.638C532.738 192.638 524.352 197.467 524.352 204.151C524.352 213.808 540.33 215.196 568.355 221.177C599.789 227.844 631.222 238.672 631.222 273.644C631.222 308.615 594.811 328.65 550.556 328.65C501.845 328.65 464.912 310.237 464.118 272.274H464.1Z" fill="#ECECEC"/>
<path d="M822.672 261.914V160.188H877.424V264.67C877.424 279.859 886.856 289.3 907.018 289.3C925.611 289.3 935.043 278.706 935.043 263.751V160.188H989.794V261.914C989.794 302.416 962.292 327.731 906.242 327.731C850.192 327.731 822.69 303.101 822.69 261.914H822.672Z" fill="#ECECEC"/>
<path d="M1019.42 160.188H1074.18V283.552H1154.32V324.758H1019.42V160.188Z" fill="#ECECEC"/>
<path d="M1134.43 160.188H1295.78V201.16H1242.09V324.74H1187.34V201.16H1134.43V160.188Z" fill="#ECECEC"/>
<path d="M1368.73 240.834C1368.73 191.593 1405.39 155 1463.55 155C1521.71 155 1558.9 191.593 1558.9 240.834C1558.9 290.075 1521.71 326.452 1463.55 326.452C1405.39 326.452 1368.73 290.093 1368.73 240.834ZM1500.9 240.077C1500.9 214.835 1488.38 195.629 1463.82 195.629C1439.26 195.629 1426.74 214.835 1426.74 240.077C1426.74 265.319 1439.26 284.31 1463.82 284.31C1488.38 284.31 1500.9 265.319 1500.9 240.077Z" fill="#ECECEC"/>
<path d="M1569.48 160.188H1624.23L1683.22 248.401H1683.75V160.188H1738.95V322.542H1678.53L1622.92 230.582H1622.39V322.542H1569.48V160.188Z" fill="#ECECEC"/>
<path d="M882.762 398.972H937.513L996.503 485.689H997.026V398.972H1052.23V558.568H991.814L936.197 468.176H935.674V558.568H882.762V398.972Z" fill="#ECECEC"/>
<path d="M59 397.403H145.167C169.008 397.403 186.285 402.863 198.602 412.412C211.965 422.645 219.558 437.438 219.558 455.419C219.558 486.823 192.849 510.479 155.122 510.479H113.734V560.081H59V397.403ZM113.752 473.634H143.346C156.709 473.634 165.095 465.905 165.095 454.752C165.095 443.599 156.979 436.771 142.823 436.771H113.752V473.634Z" fill="#ECECEC"/>
<path d="M239.575 397.403H332.559C370.81 397.403 403.289 412.646 403.289 445.87C403.289 464.518 392.288 477.724 372.649 485.454V486.138C387.834 491.147 395.697 500.246 398.835 512.984C403.812 532.551 399.628 555.991 406.427 557.576V560.081H352.469C347.239 556.892 349.331 536.875 345.4 522.317C341.991 509.795 335.715 503.435 319.737 503.435H294.327V560.081H239.575V397.403ZM294.309 469.526H323.65C339.358 469.526 348.014 463.617 348.014 452.23C348.014 441.528 340.152 434.717 324.444 434.717H294.327V469.526H294.309Z" fill="#ECECEC"/>
<path d="M422.099 397.403H576.759V436.086H476.832V458.157H561.827V493.886H476.832V519.362H579.374V560.081H422.081V397.403H422.099Z" fill="#ECECEC"/>
<path d="M587.417 477.13C587.417 428.447 625.92 392.269 682.241 392.269C702.673 392.269 721.014 396.827 734.63 405.007C754.016 416.61 765.27 434.807 767.632 455.509H712.88C711.564 442.771 699.265 431.384 681.447 431.384C655.514 431.384 642.944 450.5 642.944 477.112C642.944 503.723 657.606 522.839 681.97 522.839C701.086 522.839 712.61 511.921 714.449 497.363H769.724C768.155 515.344 758.723 531.253 745.36 542.406C729.382 555.829 709.472 561.739 682.241 561.739C625.145 561.739 587.417 525.794 587.417 477.112V477.13Z" fill="#ECECEC"/>
<path d="M793.8 396.683H848.551V559.36H793.8V396.683Z" fill="#ECECEC"/>
<path d="M1071.83 475.688C1071.83 427.006 1110.33 390.827 1166.65 390.827C1187.09 390.827 1205.43 395.386 1219.04 403.565C1238.43 415.168 1249.68 433.366 1252.05 454.068H1197.29C1195.98 441.329 1183.68 429.943 1165.86 429.943C1139.93 429.943 1127.36 449.059 1127.36 475.67C1127.36 502.282 1142.02 521.398 1166.38 521.398C1185.5 521.398 1197.02 510.48 1198.86 495.922H1254.14C1252.57 513.903 1243.14 529.812 1229.77 540.965C1213.8 554.388 1193.89 560.297 1166.65 560.297C1109.56 560.297 1071.83 524.353 1071.83 475.67V475.688Z" fill="#ECECEC"/>
<path d="M1264.44 396.683H1425.79V437.185H1372.1V559.36H1317.35V437.185H1264.44V396.683Z" fill="#ECECEC"/>
<path d="M1546.18 467.346H1509.52V436.177C1535.45 435.258 1554.32 422.754 1559.55 400.683H1598.57V557.901H1546.18V467.346Z" fill="#ECECEC"/>
<path d="M1641.19 550.532C1627.59 540.028 1620.54 524.407 1620.54 505.038H1666.43C1666.92 519.74 1675.67 530.226 1694.6 530.226C1709.9 530.226 1717.43 522.065 1717.43 512.029C1717.43 499.435 1706.99 494.534 1691.21 494.534H1681.49V464.211H1689.75C1705.04 464.211 1714.53 458.842 1714.53 447.888C1714.53 438.555 1707.25 432.501 1694.37 432.501C1677.62 432.501 1671.54 442.302 1670.33 453.023H1625.64C1625.64 421.294 1651.14 397.962 1695.09 397.962C1733.95 397.962 1761.64 414.988 1761.64 444.843C1761.64 459.779 1752.65 469.112 1739.29 475.166V475.634C1754.58 481.706 1766 493.363 1766 514.119C1766 549.577 1732.49 564.982 1696.79 564.982C1671.54 564.982 1653.81 560.315 1641.17 550.514L1641.19 550.532Z" fill="#ECECEC"/>
</g>
<defs>
<clipPath id="clip0_847_4435">
<rect width="1707" height="410" fill="white" transform="translate(59 155)"/>
</clipPath>
</defs>
</svg>
