<svg width="1825" height="720" viewBox="0 0 1825 720" fill="none" xmlns="http://www.w3.org/2000/svg">
<g clip-path="url(#clip0_847_4435)">
<path d="M105.174 143.352H164.816L239.012 322.606H176.864L167.071 296.274H99.3137L89.5211 322.606H31.2861L105.174 143.352ZM119.496 257.489H146.85L138.542 234.319C136.518 228.536 133.549 219.09 133.549 219.09H133.183C133.183 219.09 130.407 228.516 128.19 234.319L119.496 257.489Z" fill="#ECECEC"/>
<path d="M683.919 143.352H743.562L817.758 322.606H755.609L745.817 296.274H678.059L668.267 322.606H610.032L683.919 143.352ZM698.242 257.489H725.596L717.287 234.319C715.263 228.536 712.295 219.09 712.295 219.09H711.928C711.928 219.09 709.153 228.516 706.936 234.319L698.242 257.489Z" fill="#ECECEC"/>
<path d="M246.01 266.472H305.922C307.888 280.506 320.206 287.156 339.521 287.156C350.991 287.156 365.005 283.224 365.005 272.622C365.005 262.019 351.569 259.321 326.933 253.904C293.334 246.521 252.737 236.42 252.737 199.004C252.737 158.619 290.25 143.352 335.338 143.352C376.783 143.352 414.855 158.619 415.684 197.038H357.738C356.061 187.438 348.215 181.269 332.254 181.269C319.377 181.269 310.413 186.435 310.413 193.587C310.413 203.919 327.492 205.404 357.448 211.803C391.048 218.936 424.647 230.521 424.647 267.937C424.647 305.353 385.727 326.789 338.422 326.789C286.356 326.789 246.877 307.088 246.029 266.472H246.01Z" fill="#ECECEC"/>
<path d="M433.013 266.472H492.925C494.892 280.506 507.209 287.156 526.525 287.156C537.994 287.156 552.009 283.224 552.009 272.622C552.009 262.019 538.573 259.321 513.937 253.904C480.338 246.521 439.741 236.42 439.741 199.004C439.741 158.619 477.253 143.352 522.342 143.352C563.787 143.352 601.858 158.619 602.687 197.038H544.741C543.064 187.438 535.219 181.269 519.257 181.269C506.381 181.269 497.417 186.435 497.417 193.587C497.417 203.919 514.496 205.404 544.452 211.803C578.051 218.936 611.651 230.521 611.651 267.937C611.651 305.353 572.731 326.789 525.426 326.789C473.36 326.789 433.881 307.088 433.033 266.472H433.013Z" fill="#ECECEC"/>
<path d="M816.293 255.388V146.552H874.817V258.338C874.817 274.588 884.899 284.689 906.45 284.689C926.324 284.689 936.406 273.354 936.406 257.354V146.552H994.93V255.388C994.93 298.722 965.533 325.806 905.621 325.806C845.709 325.806 816.312 299.455 816.312 255.388H816.293Z" fill="#ECECEC"/>
<path d="M1026.6 146.552H1085.13V278.54H1170.79V322.625H1026.6V146.552Z" fill="#ECECEC"/>
<path d="M1149.53 146.552H1322V190.387H1264.61V322.606H1206.09V190.387H1149.53V146.552Z" fill="#ECECEC"/>
<path d="M1399.97 232.834C1399.97 180.151 1439.16 141 1501.33 141C1563.5 141 1603.25 180.151 1603.25 232.834C1603.25 285.518 1563.5 324.437 1501.33 324.437C1439.16 324.437 1399.97 285.537 1399.97 232.834ZM1541.25 232.025C1541.25 205.018 1527.87 184.469 1501.62 184.469C1475.36 184.469 1461.99 205.018 1461.99 232.025C1461.99 259.031 1475.36 279.349 1501.62 279.349C1527.87 279.349 1541.25 259.031 1541.25 232.025Z" fill="#ECECEC"/>
<path d="M1614.56 146.552H1673.09L1736.14 240.931H1736.7V146.552H1795.7V320.254H1731.13L1671.68 221.866H1671.12V320.254H1614.56V146.552Z" fill="#ECECEC"/>
<path d="M880.523 402.026H939.047L1002.1 494.805H1002.66V402.026H1061.67V572.78H997.089L937.64 476.068H937.081V572.78H880.523V402.026Z" fill="#ECECEC"/>
<path d="M0 400.349H92.1042C117.588 400.349 136.055 406.19 149.221 416.407C163.505 427.356 171.621 443.182 171.621 462.42C171.621 496.02 143.072 521.33 102.745 521.33H58.5049V574.399H0V400.349ZM58.5242 481.909H90.1573C104.441 481.909 113.405 473.639 113.405 461.707C113.405 449.775 104.731 442.469 89.5983 442.469H58.5242V481.909Z" fill="#ECECEC"/>
<path d="M193.018 400.349H292.409C333.295 400.349 368.012 416.657 368.012 452.204C368.012 472.155 356.253 486.285 335.261 494.555V495.287C351.492 500.646 359.897 510.381 363.251 524.009C368.571 544.944 364.099 570.023 371.366 571.719V574.399H313.69C308.1 570.987 310.336 549.57 306.134 533.995C302.491 520.597 295.782 513.793 278.703 513.793H251.542V574.399H193.018V400.349ZM251.523 477.514H282.886C299.676 477.514 308.929 471.191 308.929 459.008C308.929 447.558 300.524 440.271 283.734 440.271H251.542V477.514H251.523Z" fill="#ECECEC"/>
<path d="M388.118 400.349H553.435V441.736H446.623V465.35H537.474V503.576H446.623V530.833H556.23V574.399H388.099V400.349H388.118Z" fill="#ECECEC"/>
<path d="M564.828 485.649C564.828 433.563 605.983 394.855 666.185 394.855C688.025 394.855 707.63 399.732 722.184 408.484C742.906 420.898 754.935 440.368 757.46 462.517H698.936C697.529 448.888 684.382 436.705 665.337 436.705C637.617 436.705 624.181 457.158 624.181 485.629C624.181 514.101 639.853 534.554 665.896 534.554C686.329 534.554 698.647 522.872 700.613 507.296H759.696C758.019 526.535 747.937 543.556 733.653 555.488C716.574 569.849 695.293 576.172 666.185 576.172C605.155 576.172 564.828 537.715 564.828 485.629V485.649Z" fill="#ECECEC"/>
<path d="M785.431 399.578H843.955V573.628H785.431V399.578Z" fill="#ECECEC"/>
<path d="M1082.62 484.107C1082.62 432.021 1123.78 393.313 1183.98 393.313C1205.82 393.313 1225.42 398.19 1239.98 406.942C1260.7 419.356 1272.73 438.826 1275.25 460.975H1216.73C1215.32 447.346 1202.17 435.163 1183.13 435.163C1155.41 435.163 1141.97 455.616 1141.97 484.087C1141.97 512.559 1157.65 533.012 1183.69 533.012C1204.12 533.012 1216.44 521.33 1218.41 505.754H1277.49C1275.81 524.993 1265.73 542.014 1251.45 553.946C1234.37 568.307 1213.08 574.63 1183.98 574.63C1122.95 574.63 1082.62 536.173 1082.62 484.087V484.107Z" fill="#ECECEC"/>
<path d="M1288.5 399.578H1460.96V442.912H1403.58V573.628H1345.05V442.912H1288.5V399.578Z" fill="#ECECEC"/>
<path d="M1589.66 475.182H1550.47V441.833C1578.19 440.85 1598.35 427.472 1603.94 403.858H1645.65V572.066H1589.66V475.182Z" fill="#ECECEC"/>
<path d="M1691.21 564.182C1676.67 552.944 1669.13 536.231 1669.13 515.508H1718.19C1718.71 531.238 1728.06 542.457 1748.3 542.457C1764.65 542.457 1772.71 533.725 1772.71 522.988C1772.71 509.513 1761.55 504.27 1744.68 504.27H1734.29V471.827H1743.12C1759.46 471.827 1769.6 466.083 1769.6 454.363C1769.6 444.377 1761.82 437.9 1748.05 437.9C1730.14 437.9 1723.65 448.387 1722.36 459.856H1674.59C1674.59 425.91 1701.85 400.947 1748.82 400.947C1790.37 400.947 1819.96 419.163 1819.96 451.105C1819.96 467.085 1810.36 477.071 1796.07 483.548V484.049C1812.42 490.545 1824.62 503.017 1824.62 525.224C1824.62 563.161 1788.8 579.642 1750.64 579.642C1723.65 579.642 1704.7 574.649 1691.19 564.163L1691.21 564.182Z" fill="#ECECEC"/>
</g>
<defs>
<clipPath id="clip0_847_4435">
<rect width="1824.62" height="438.661" fill="white" transform="translate(0 141)"/>
</clipPath>
</defs>
</svg>
