<svg width="1825" height="720" viewBox="0 0 1825 720" fill="none" xmlns="http://www.w3.org/2000/svg">
<g clip-path="url(#clip0_1241_2510)">
<path d="M98.0095 278V298.014H86.5087C71.3244 298.246 69.4826 303.666 69.7145 315.399V415.482H69.5388C109.574 416.171 117.398 409.731 121.306 372.916H143.394V435.496H0V415.482H10.1229C25.0753 415.25 27.1491 413.872 26.9171 402.364V315.406C27.1491 303.673 25.0753 298.246 10.1229 298.021H0V278H98.0095Z" fill="#ECECEC"/>
<path d="M150.649 335.651C162.023 333.549 167.14 331.321 170.866 325.409C172.617 322.639 170.557 319.075 167.281 319.082C167.26 319.082 167.239 319.082 167.218 319.082C157.327 319.082 149.503 311.49 149.503 301.599C149.503 290.632 158.803 282.162 171.33 282.042C185.98 281.908 197.277 294.696 196.096 309.304C195.239 319.926 189.608 329.641 180.103 337.029C171.822 343.468 164.919 345.999 150.656 348.762V335.644L150.649 335.651Z" fill="#ECECEC"/>
<path d="M218.296 413.992H224.279C237.164 413.303 239.231 411.693 243.836 399.039L290.078 280.545H337.248L378.66 399.953C383.033 411.454 389.015 413.76 399.138 413.985H407.651V433.998H311.708V413.985H318.844C330.119 413.985 334.028 412.607 334.028 408.691C334.028 407.538 333.571 405.472 332.875 403.63L326.436 386.857H277.888L271.674 402.252C270.521 405.015 270.064 407.313 270.064 408.923C270.064 412.832 273.052 413.985 283.638 413.985H292.151V433.998H218.296V413.985V413.992ZM302.506 316.207L285.248 364.755H319.533L302.506 316.207Z" fill="#ECECEC"/>
<path d="M444.101 434.863L401.535 319.138C396.017 304.186 393.254 302.344 375.764 300.959V281.402H470.097V300.657C466.645 300.425 467.102 300.495 465.26 300.495C453.985 300.495 449.387 302.569 449.387 307.167C449.387 310.386 450.076 312.685 453.071 321.198L479.004 395.742L507.994 317.289C510.293 311.075 510.757 309.008 510.757 307.167C510.757 303.026 510.842 300.727 503.249 300.727C500.262 300.727 494.118 300.727 490.434 300.959V281.402H556.451V300.959C538.047 302.801 539.354 303.722 531.762 323.504L491.039 434.863H444.101Z" fill="#ECECEC"/>
<path d="M628.394 434.863L586.651 319.138C581.238 304.186 582.946 302.344 565.801 300.959V281.402H650.938V300.959C647.557 300.727 648.021 300.502 646.214 300.502C635.157 300.502 630.643 302.576 630.643 307.174C630.643 310.393 631.318 312.692 634.25 321.205L661.167 395.749L689.595 317.297C691.852 311.082 692.302 309.015 692.302 307.174C692.302 303.033 691.184 300.734 683.74 300.734C680.808 300.734 677.42 300.734 673.813 300.966V281.402H738.558V300.959C720.505 302.801 721.792 303.722 714.347 323.504L674.411 434.863H628.387H628.394Z" fill="#ECECEC"/>
<path d="M739.092 415.49H745.201C758.642 415.258 760.203 413.88 759.999 402.147V315.406C760.203 303.674 761.335 302.289 747.894 302.064H744.175V282.043H891.695V339.287H871.843C866.465 305.466 860.265 301.6 825.109 302.057H807.422V351.153H808.568C826.557 350.921 832.167 347.244 832.582 326.999H852.434V396.938H832.582C831.344 374.161 826.768 371.167 808.568 371.631H807.422V415.49H825.728C857.516 415.49 867.288 414.337 871.836 378.211H891.688V435.504H739.085V415.49H739.092Z" fill="#ECECEC"/>
<path d="M901.958 282.043H961.775L1032.21 389.261V315.406C1032.42 303.674 1030.78 302.289 1017.7 302.064H1008.7V282.043H1077V302.057H1073.53C1060.44 302.289 1058.81 303.667 1059.01 315.399V435.496H1010.55L946.274 346.049V402.133C946.07 413.866 949.199 415.251 962.288 415.476H971.286V435.489H901.966V415.476H904.672C917.761 415.244 919.392 413.866 919.189 402.133V315.406C919.392 303.674 917.754 302.289 904.672 302.064H901.966V282.043H901.958Z" fill="#ECECEC"/>
<path d="M1235.71 339.083H1212.11C1212.11 304.313 1204.89 302.289 1180.75 302.521V397.079C1180.75 408.579 1180.96 410.196 1182.62 412.495C1184.5 414.569 1193.96 415.715 1209.16 415.715V435.504H1116.23V415.715C1131 415.715 1139.12 414.562 1140.58 412.495C1142.24 410.421 1142.46 408.811 1142.46 397.311V302.521C1110.31 302.521 1111.52 311.013 1110.89 339.083H1087.29V282.043H1235.71V339.083Z" fill="#ECECEC"/>
<path d="M1242.76 282.043H1334.24V301.6C1330.23 301.368 1327.33 301.368 1324.88 301.368C1316.64 301.368 1311.73 302.746 1309.73 306.197C1307.95 308.96 1307.5 311.716 1307.5 323.912V385.346C1307.5 400.298 1309.5 406.513 1315.96 411.574C1321.09 415.483 1327.99 417.324 1337.35 417.324C1349.6 417.324 1359.63 414.562 1364.75 409.732C1370.54 404.214 1372.1 399.609 1372.1 387.188V325.297C1372.1 304.131 1367.49 301.6 1349.22 301.6H1344.76V282.043H1419.02V301.6C1403.87 302.057 1403.89 302.521 1400.77 304.363C1398.1 306.661 1397.65 309.192 1397.65 325.297V390.175C1397.69 410.681 1391.48 415.947 1383.68 423.764C1373.22 434.119 1353.61 440.101 1329.55 440.101C1307.73 440.101 1291.46 435.04 1279.87 424.917C1270.52 416.404 1266.51 406.513 1266.51 392.017V324.601C1266.51 305.733 1264.37 301.361 1249.88 301.361L1242.76 301.593V282.043H1242.76Z" fill="#ECECEC"/>
<path d="M1599.47 416.523C1602.04 411.314 1602.72 402.963 1602.72 402.963H1623.88C1622.46 419.834 1615.02 443.749 1582.7 442.604C1550.39 441.458 1540.48 431.623 1535.49 402.098C1533.15 388.256 1527.4 380.762 1522.23 376.734C1518.33 373.69 1513.47 372.13 1508.52 372.13H1491.41V404.825C1491.19 416.558 1492.91 417.943 1507.33 418.168H1516.58V435.496H1422.64V418.168H1430.61C1444.6 417.936 1443.33 408.305 1443.33 404.825V315.406C1443.55 303.906 1441.61 302.289 1427.63 302.289H1426.23V282.043H1542.39C1542.39 282.043 1599.01 278.858 1598.44 330.042C1599.14 361.072 1557.7 369.437 1557.7 369.437C1557.7 369.437 1585.23 374.569 1587.27 400.917C1588.08 411.321 1588.19 415.546 1590.74 418.091C1593.29 420.635 1597.82 419.827 1599.46 416.516L1599.47 416.523ZM1509.56 349.845C1536.45 349.845 1544.78 344.545 1544.78 327.448C1544.78 319.498 1542 313.241 1537.09 309.628C1531.54 305.776 1525.78 304.573 1511.48 304.573H1491.41V349.852H1509.56V349.845Z" fill="#ECECEC"/>
<path d="M1626.23 418.084H1632.45C1645.83 417.381 1647.98 415.736 1652.76 402.836L1698.6 282.008H1752.2L1795.22 403.771C1799.76 415.504 1802.87 417.845 1813.39 418.084H1824.62V438.498H1723.27V418.084H1730.68C1742.39 418.084 1746.46 416.678 1746.46 412.685C1746.46 411.511 1745.98 409.402 1745.26 407.525L1738.57 390.674H1688.14L1681.68 406.112C1680.49 408.931 1680.01 411.272 1680.01 412.917C1680.01 416.903 1683.12 418.077 1694.11 418.077H1702.96V438.491H1626.23V418.077V418.084ZM1713.71 318.373L1695.78 367.877H1731.4L1713.71 318.373Z" fill="#ECECEC"/>
</g>
<defs>
<clipPath id="clip0_1241_2510">
<rect width="1824.62" height="164.645" fill="white" transform="translate(0 278)"/>
</clipPath>
</defs>
</svg>
