<svg width="1825" height="720" viewBox="0 0 1825 720" fill="none" xmlns="http://www.w3.org/2000/svg">
<g clip-path="url(#clip0_1163_2893)">
<path d="M403.233 97.4521V103.882H378.907V201.187H414.183C425.996 201.187 430.515 196.149 430.515 183.117V158.618H437.29V207.616H347.979V201.187H372.305V103.882H347.979V97.4521H403.233Z" fill="#ECECEC"/>
<path d="M526.559 97.6946C531.77 106.379 535.244 123.239 535.244 140.264C535.244 151.904 533.334 162.853 529.333 173.102C527.596 177.967 524.468 182.66 520.475 186.825C514.565 193.082 505.88 196.556 496.322 196.556C483.29 196.556 472.168 189.953 465.048 178.14C459.664 169.101 456.19 152.422 456.19 136.09C456.19 113.155 463.484 94.212 475.478 85.3542C481.035 81.3618 487.991 79.0977 494.594 79.0977C508.144 79.0977 519.438 85.6999 526.568 97.6859L526.559 97.6946ZM470.786 100.823C466.093 108.471 462.965 124.104 462.965 139.572C462.965 170.328 476.17 190.135 496.676 190.135C517.183 190.135 528.469 171.719 528.469 138.527C528.469 125.495 526.041 111.945 522.04 103.605C519.611 98.5674 515.61 93.5293 511.618 90.5738C507.098 87.2727 501.196 85.3629 496.331 85.3629C485.727 85.3629 476.697 90.7467 470.786 100.832V100.823Z" fill="#ECECEC"/>
<path d="M639.212 165.886C638.339 179.091 636.257 186.739 631.564 194.559C624.962 205.336 614.359 210.892 600.981 210.892C574.918 210.892 559.977 189.176 559.977 150.945C559.977 126.618 566.752 107.857 578.919 99.1638C584.476 94.9899 591.078 92.9072 597.862 92.9072C609.502 92.9072 618.887 98.291 626.881 109.413C628.617 105.239 629.309 100.201 629.49 93.0801H634.701L637.13 138.259H631.046C629.136 126.446 627.053 120.535 622.188 113.587C615.586 104.375 607.247 99.3366 598.207 99.3366C588.65 99.3366 579.965 104.548 574.754 113.414C570.407 120.889 567.279 137.222 567.279 153.027C567.279 163.976 569.016 174.226 572.49 183.783C574.227 187.957 576.836 192.122 580.483 195.942C585.694 201.326 593.342 204.454 601.681 204.454C611.066 204.454 618.705 200.635 624.271 192.987C629.654 185.866 631.746 178.737 632.61 165.878H639.212V165.886Z" fill="#ECECEC"/>
<path d="M743.552 97.0811V103.51H727.91L703.93 139.996L732.249 200.807H748.063V207.237H710.186V200.807H724.955L699.764 146.598L680.649 175.444V200.816H698.546V207.245H655.804V200.989H673.874V103.51H656.15V97.0811H695.763V103.51H680.649V163.976H680.995L719.917 103.51H703.93V97.0811H743.543H743.552Z" fill="#ECECEC"/>
<path d="M787.711 231.442C797.441 223.794 801.961 217.892 801.961 212.854C801.961 211.29 800.915 209.898 798.141 208.162C793.103 204.688 791.021 201.386 791.021 196.348C791.021 189.573 796.577 184.189 803.361 184.189C811.182 184.189 816.911 190.446 816.911 199.131C816.911 206.779 813.092 215.637 806.662 223.284C802.315 228.495 798.669 231.278 790.848 236.143L787.72 231.451L787.711 231.442Z" fill="#ECECEC"/>
<path d="M988.362 168.452C989.054 177.837 990.099 182.175 993.573 187.741C999.484 197.298 1011.12 203.382 1023.98 203.382C1039.8 203.382 1051.27 193.133 1051.27 178.883C1051.27 171.762 1048.48 166.197 1042.93 161.504C1038.75 158.203 1029.89 154.556 1018.25 151.601C1007.31 148.646 997.756 144.999 993.582 141.87C991.672 140.479 989.762 138.742 988.371 137.005C984.724 132.486 982.814 126.929 982.814 120.327C982.814 103.648 995.5 92.5264 1014.79 92.5264C1027.13 92.5264 1036.33 96.1732 1043.81 104.34C1045.2 101.384 1046.24 97.046 1046.24 92.6992H1052.5L1053.89 132.14H1047.12C1046.77 122.928 1045.73 118.59 1042.77 113.37C1037.39 104.512 1027.13 99.2928 1014.8 99.2928C999.683 99.2928 989.607 107.632 989.607 120.491C989.607 126.747 992.044 131.958 996.728 135.778C1000.37 138.733 1009.24 142.207 1020.35 145.163C1030.26 147.773 1040.33 151.592 1044.33 154.375C1046.07 155.421 1047.29 156.458 1049.72 158.549C1055.63 164.805 1058.06 170.535 1058.06 178.701C1058.06 197.29 1043.81 210.148 1023.48 210.148C1011.67 210.148 1002.8 206.502 992.554 197.462C991.335 200.936 990.298 205.629 989.598 210.148H984.214L982.823 168.444H988.38L988.362 168.452Z" fill="#ECECEC"/>
<path d="M1161.7 95.6113V137.662H1155.27V127.413C1155.27 106.733 1152.66 102.041 1140.84 102.041H1124.86V199.346H1149.53V205.776H1093.06V199.346H1118.07V102.041H1102.79C1096.18 102.041 1093.93 102.559 1091.84 104.823C1089.06 107.606 1087.85 114.9 1087.85 127.931V137.662H1081.59V95.6113H1161.69H1161.7Z" fill="#ECECEC"/>
<path d="M1255.24 96.5881C1260.45 105.273 1263.93 122.133 1263.93 139.157C1263.93 150.797 1262.02 161.746 1258.02 171.996C1256.28 176.861 1253.15 181.553 1249.16 185.719C1243.25 191.975 1234.56 195.449 1225.01 195.449C1211.97 195.449 1200.85 188.847 1193.73 177.034C1188.35 167.994 1184.87 151.316 1184.87 134.983C1184.87 112.048 1192.17 93.1055 1204.16 84.2478C1209.72 80.2553 1216.68 77.9912 1223.28 77.9912C1236.83 77.9912 1248.12 84.5935 1255.25 96.5795L1255.24 96.5881ZM1199.47 99.7164C1194.78 107.364 1191.65 122.997 1191.65 138.466C1191.65 169.222 1204.85 189.028 1225.36 189.028C1245.87 189.028 1257.15 170.613 1257.15 137.42C1257.15 124.388 1254.73 110.838 1250.72 102.499C1248.3 97.4609 1244.29 92.4228 1240.3 89.4674C1235.78 86.1663 1229.88 84.2564 1225.02 84.2564C1214.42 84.2564 1205.38 89.6402 1199.47 99.7251V99.7164Z" fill="#ECECEC"/>
<path d="M1368.63 164.789C1367.77 177.993 1365.68 185.641 1360.98 193.462C1354.38 204.238 1343.78 209.795 1330.4 209.795C1304.34 209.795 1289.4 188.078 1289.4 149.847C1289.4 125.521 1296.17 106.76 1308.34 98.0662C1313.9 93.8922 1320.51 91.8096 1327.28 91.8096C1338.92 91.8096 1348.31 97.1933 1356.3 108.315C1358.04 104.141 1358.74 99.1032 1358.91 91.9824H1364.12L1366.55 137.161H1360.47C1358.56 125.348 1356.47 119.437 1351.61 112.489C1345.01 103.277 1336.67 98.239 1327.63 98.239C1318.07 98.239 1309.38 103.45 1304.17 112.316C1299.83 119.791 1296.7 136.124 1296.7 151.93C1296.7 162.879 1298.44 173.128 1301.91 182.686C1303.65 186.86 1306.26 191.025 1309.9 194.844C1315.11 200.228 1322.76 203.357 1331.1 203.357C1340.49 203.357 1348.12 199.537 1353.69 191.889C1359.07 184.768 1361.17 177.639 1362.03 164.78H1368.63V164.789Z" fill="#ECECEC"/>
<path d="M1473.34 95.2402V101.67H1457.7L1433.72 138.155L1462.04 198.966H1477.85V205.396H1439.98V198.966H1454.75L1429.56 144.757L1410.44 173.603V198.975H1428.34V205.405H1385.6V199.148H1403.67V101.67H1385.94V95.2402H1425.55V101.67H1410.44V162.136H1410.79L1449.71 101.67H1433.72V95.2402H1473.33H1473.34Z" fill="#ECECEC"/>
<path d="M602.01 308.232L631.374 415.787H645.097V422.216H607.566V415.787H624.945L617.124 387.814H576.983L569.69 415.787H586.023V422.216H548.837V415.787H563.088L591.761 308.232H602.01ZM578.72 381.384H615.378L597.136 313.97H596.79L578.72 381.384Z" fill="#ECECEC"/>
<path d="M653.921 318.481V312.052H682.594L724.99 415.605H725.681V318.472H710.04V312.043H745.488V318.472H732.284V422.207H720.816L678.074 318.472H676.856V415.778H691.97V422.207H656.349V415.778H669.899V318.472H653.912L653.921 318.481Z" fill="#ECECEC"/>
<path d="M800.492 312.052C819.608 312.052 831.248 317.263 838.196 328.903C842.543 336.378 845.49 352.011 845.49 367.652C845.49 378.074 843.926 387.805 840.452 396.844C838.715 401.364 835.932 405.883 831.94 409.876C824.292 418.042 811.433 422.216 794.409 422.216H756.359V415.787H774.083V318.481H756.187V312.052H800.492ZM780.859 415.787H796.319C812.997 415.787 824.992 410.049 831.767 398.935C835.759 391.987 838.542 377.737 838.542 363.141C838.542 353.584 837.151 344.726 834.022 336.387C832.804 333.086 830.548 329.612 827.593 326.483C822.728 321.272 814.561 318.49 804.312 318.49H780.859V415.795V415.787Z" fill="#ECECEC"/>
<path d="M1058.86 311.688V353.739H1052.43V343.49C1052.43 322.81 1049.82 318.118 1038.01 318.118H1022.02V415.423H1046.69V421.853H990.22V415.423H1015.24V318.118H999.951C993.349 318.118 991.093 318.636 989.002 320.9C986.219 323.683 985.01 330.977 985.01 344.008V353.739H978.753V311.688H1058.85H1058.86Z" fill="#ECECEC"/>
<path d="M1170.31 311.688V318.118H1164.06L1144.6 424.454H1138.17L1121.32 337.752H1120.97L1104.64 424.454H1097.86L1078.57 318.118H1071.8V311.688H1094.21V318.118H1084.83L1101.16 408.994H1101.51L1118.36 318.118H1105.33V311.688H1136.78V318.118H1123.74L1141.29 408.821H1141.64L1157.8 318.118H1148.07V311.688H1170.31Z" fill="#ECECEC"/>
<path d="M1254.83 312.449C1260.04 321.134 1263.51 337.994 1263.51 355.018C1263.51 366.659 1261.6 377.608 1257.6 387.857C1255.87 392.722 1252.74 397.415 1248.75 401.58C1242.83 407.836 1234.15 411.31 1224.59 411.31C1211.56 411.31 1200.44 404.708 1193.32 392.895C1187.93 383.856 1184.46 367.177 1184.46 350.845C1184.46 327.909 1191.75 308.967 1203.75 300.109C1209.3 296.117 1216.26 293.853 1222.86 293.853C1236.41 293.853 1247.71 300.455 1254.84 312.441L1254.83 312.449ZM1199.06 315.578C1194.36 323.226 1191.24 338.858 1191.24 354.327C1191.24 385.083 1204.44 404.89 1224.95 404.89C1245.45 404.89 1256.74 386.474 1256.74 353.281C1256.74 340.25 1254.31 326.7 1250.31 318.36C1247.88 313.322 1243.88 308.284 1239.89 305.329C1235.37 302.028 1229.47 300.118 1224.6 300.118C1214 300.118 1204.97 305.502 1199.06 315.586V315.578Z" fill="#ECECEC"/>
<path d="M156.557 600.295C157.248 609.68 158.294 614.018 161.768 619.583C167.678 629.141 179.319 635.225 192.178 635.225C207.992 635.225 219.459 624.976 219.459 610.726C219.459 603.605 216.677 598.04 211.12 593.347C206.946 590.046 198.089 586.399 186.448 583.444C175.499 580.488 165.941 576.841 161.776 573.713C159.866 572.322 157.957 570.585 156.565 568.848C152.918 564.328 151.009 558.772 151.009 552.169C151.009 535.491 163.695 524.369 182.983 524.369C195.323 524.369 204.527 528.016 212.002 536.182C213.393 533.227 214.43 528.889 214.43 524.542H220.687L222.078 563.983H215.303C214.957 554.771 213.912 550.432 210.956 545.213C205.572 536.355 195.315 531.136 182.983 531.136C167.869 531.136 157.792 539.475 157.792 552.334C157.792 558.59 160.221 563.801 164.913 567.621C168.56 570.576 177.426 574.05 188.54 577.006C198.443 579.615 208.519 583.435 212.52 586.218C214.257 587.263 215.476 588.3 217.904 590.392C223.815 596.648 226.243 602.378 226.243 610.544C226.243 629.132 211.993 641.991 191.668 641.991C179.855 641.991 170.988 638.344 160.739 629.305C159.521 632.779 158.484 637.472 157.784 641.991H152.391L151 600.286H156.557V600.295Z" fill="#ECECEC"/>
<path d="M266.488 528.188L289.941 622.02H290.287L313.913 528.188H339.285V534.618H327.126V631.923H339.285V638.353H307.838V631.923H320.87V534.618H318.614L292.551 638.353H287.859L261.795 534.618H259.367V631.923H272.571V638.353H240.597V631.923H253.11V534.618H240.597V528.188H266.488Z" fill="#ECECEC"/>
<path d="M423.438 528.431C428.649 537.116 432.123 553.976 432.123 571C432.123 582.64 430.213 593.589 426.212 603.838C424.475 608.704 421.347 613.396 417.354 617.561C411.443 623.818 402.759 627.292 393.201 627.292C380.169 627.292 369.047 620.69 361.927 608.876C356.543 599.837 353.069 583.159 353.069 566.826C353.069 543.891 360.362 524.948 372.357 516.091C377.914 512.098 384.87 509.834 391.473 509.834C405.023 509.834 416.317 516.436 423.447 528.422L423.438 528.431ZM367.665 531.559C362.972 539.207 359.844 554.84 359.844 570.309C359.844 601.064 373.048 620.871 393.555 620.871C414.062 620.871 425.348 602.456 425.348 569.263C425.348 556.231 422.92 542.681 418.919 534.342C416.49 529.304 412.489 524.266 408.497 521.31C403.977 518.009 398.075 516.099 393.209 516.099C382.606 516.099 373.576 521.483 367.665 531.568V531.559Z" fill="#ECECEC"/>
<path d="M538.39 527.817V534.247H522.748L498.768 570.732L527.087 631.544H542.901V637.973H505.024V631.544H519.793L494.602 577.334L475.487 606.18V631.552H493.384V637.982H450.642V631.725H468.712V534.247H450.988V527.817H490.601V534.247H475.487V594.713H475.833L514.755 534.247H498.768V527.817H538.381H538.39Z" fill="#ECECEC"/>
<path d="M634.2 527.083V533.512H603.617V630.991H634.373V637.42H566.432V630.991H597.015V533.685H566.259V527.083H634.2Z" fill="#ECECEC"/>
<path d="M653.929 533.883V527.454H682.602L724.998 631.007H725.69V533.875H710.048V527.445H745.496V533.875H732.292V637.61H720.824L678.083 533.875H676.864V631.18H691.978V637.61H656.357V631.18H669.908V533.875H653.92L653.929 533.883Z" fill="#ECECEC"/>
<path d="M826.192 625.779H825.847C819.936 636.201 810.56 641.248 798.046 641.248C785.533 641.248 774.938 634.991 768.163 623.524C762.952 614.485 759.306 597.288 759.306 580.264C759.306 546.725 774.947 523.617 797.528 523.617C806.213 523.617 812.297 526.4 820.29 534.039C822.727 530.047 823.937 527.264 824.81 523.617H830.193L832.63 568.269H827.419C825.51 555.583 823.427 549.326 818.735 542.724C813.005 534.558 805.53 530.211 797.191 530.211C778.075 530.211 766.089 550.718 766.089 583.556C766.089 594.505 767.826 604.754 771.3 613.612C773.037 618.477 775.993 622.997 779.812 626.989C784.678 632.027 791.626 635.156 798.228 635.156C812.997 635.156 826.201 621.433 826.201 606.482V594.324H807.786V587.721H851.055V594.324H832.812V641.239H826.21V625.771L826.192 625.779Z" fill="#ECECEC"/>
<path d="M1026.31 527.092C1045.07 527.092 1056.89 536.649 1056.89 551.764C1056.89 563.75 1050.63 571.398 1036.38 576.609V576.954C1043.51 579.037 1046.63 580.601 1050.46 583.902C1056.89 589.459 1060.37 597.279 1060.37 606.664C1060.37 625.78 1046.82 637.247 1024.4 637.247H977.137V630.818H993.643V533.512H977.137V527.083H1026.31V527.092ZM1000.42 574.526H1016.41C1036.74 574.526 1049.94 565.487 1049.94 551.764C1049.94 540.469 1041.43 533.521 1027.35 533.521H1000.42V574.526ZM1000.42 630.826H1025.79C1043 630.826 1053.59 621.787 1053.59 607.2C1053.59 591.559 1041.6 580.964 1023.88 580.964H1000.43V630.835L1000.42 630.826Z" fill="#ECECEC"/>
<path d="M1126.27 523.271L1155.63 630.826H1169.35V637.255H1131.82V630.826H1149.2L1141.38 602.853H1101.24L1093.94 630.826H1110.27V637.255H1073.09V630.826H1087.34L1116.01 523.271H1126.26H1126.27ZM1102.99 596.423H1139.64L1121.4 529.01H1121.06L1102.99 596.423Z" fill="#ECECEC"/>
<path d="M1231.33 526.729C1249.23 526.729 1260.52 537.505 1260.52 554.529C1260.52 563.568 1257.22 571.034 1250.97 576.073C1246.1 580.065 1241.41 581.802 1232.02 583.021V583.366C1235.32 584.412 1238.28 585.976 1240.71 588.231C1245.92 592.578 1250.09 602.827 1252.18 616.032C1253.22 622.98 1254.43 626.281 1256.35 629.063C1257.91 630.455 1260 631.146 1262.78 631.146C1264.86 631.146 1269.55 630.273 1271.82 629.582V635.839C1268 636.711 1265.39 637.057 1262.43 637.057C1251.31 637.057 1248.36 633.756 1245.58 617.423C1243.5 604.391 1241.06 598.135 1236.02 592.578C1230.99 587.886 1225.43 585.63 1218.47 585.63H1201.79V630.636H1219.52V636.893H1178.69V630.636H1195.19V533.158H1178.69V526.729H1231.33ZM1201.79 579.201H1218.3C1241.41 579.201 1253.58 570.862 1253.58 554.875C1253.58 540.979 1244.89 533.158 1229.25 533.158H1201.79V579.201Z" fill="#ECECEC"/>
<path d="M1334.48 526.729C1352.38 526.729 1363.67 537.505 1363.67 554.529C1363.67 563.568 1360.37 571.034 1354.11 576.073C1349.25 580.065 1344.56 581.802 1335.17 583.021V583.366C1338.47 584.412 1341.43 585.976 1343.86 588.231C1349.07 592.578 1353.24 602.827 1355.32 616.032C1356.37 622.98 1357.58 626.281 1359.5 629.063C1361.06 630.455 1363.14 631.146 1365.93 631.146C1368.01 631.146 1372.7 630.273 1374.97 629.582V635.839C1371.15 636.711 1368.54 637.057 1365.58 637.057C1354.46 637.057 1351.5 633.756 1348.73 617.423C1346.65 604.391 1344.21 598.135 1339.17 592.578C1334.13 587.886 1328.57 585.63 1321.62 585.63H1304.94V630.636H1322.67V636.893H1281.83V630.636H1298.34V533.158H1281.83V526.729H1334.48ZM1304.94 579.201H1321.45C1344.56 579.201 1356.72 570.862 1356.72 554.875C1356.72 540.979 1348.04 533.158 1332.4 533.158H1304.94V579.201Z" fill="#ECECEC"/>
<path d="M1467.46 526.555L1469.02 562.522H1462.42V558.175C1462.42 540.106 1457.9 533.158 1446.26 533.158H1408.04V575.727H1418.63C1430.45 575.727 1434.97 571.38 1434.97 560.258V552.264H1441.57V606.474H1434.97V598.999C1434.97 586.14 1431.15 582.32 1418.46 582.32H1408.04V630.446H1448.18C1460.16 630.446 1464.34 623.498 1464.34 603.691V599.172H1470.94V636.875H1382.33V630.446H1401.27V533.14H1382.16V526.538H1467.47L1467.46 526.555Z" fill="#ECECEC"/>
<path d="M1543.85 526.356V532.786H1519.52V630.091H1554.8C1566.61 630.091 1571.13 625.053 1571.13 612.022V587.522H1577.91V636.521H1488.6V630.091H1512.92V532.786H1488.6V526.356H1543.85Z" fill="#ECECEC"/>
<path d="M1604.02 598.463C1604.71 607.848 1605.76 612.186 1609.23 617.751C1615.14 627.309 1626.78 633.393 1639.64 633.393C1655.46 633.393 1666.93 623.144 1666.93 608.894C1666.93 601.773 1664.14 596.208 1658.59 591.515C1654.41 588.214 1645.55 584.567 1633.91 581.612C1622.97 578.656 1613.41 575.009 1609.24 571.881C1607.33 570.49 1605.42 568.753 1604.03 567.016C1600.38 562.496 1598.47 556.94 1598.47 550.337C1598.47 533.659 1611.16 522.537 1630.45 522.537C1642.79 522.537 1651.99 526.184 1659.47 534.35C1660.86 531.395 1661.9 527.057 1661.9 522.71H1668.15L1669.54 562.151H1662.77C1662.42 552.939 1661.38 548.6 1658.42 543.381C1653.04 534.523 1642.78 529.304 1630.45 529.304C1615.33 529.304 1605.26 537.643 1605.26 550.502C1605.26 556.758 1607.69 561.969 1612.38 565.789C1616.03 568.744 1624.89 572.218 1636.01 575.174C1645.92 577.783 1655.99 581.603 1659.99 584.386C1661.73 585.431 1662.95 586.468 1665.38 588.56C1671.29 594.816 1673.72 600.546 1673.72 608.712C1673.72 627.3 1659.47 640.159 1639.14 640.159C1627.33 640.159 1618.46 636.512 1608.21 627.473C1607 630.947 1605.96 635.64 1605.26 640.159H1599.87L1598.48 598.454H1604.04L1604.02 598.463Z" fill="#ECECEC"/>
</g>
<defs>
<clipPath id="clip0_1163_2893">
<rect width="1522.7" height="564" fill="white" transform="translate(151 78)"/>
</clipPath>
</defs>
</svg>
