<svg width="1826" height="720" viewBox="0 0 1826 720" fill="none" xmlns="http://www.w3.org/2000/svg">
<g clip-path="url(#clip0_1161_2545)">
<path d="M0.619385 344.894H5.12837C5.67619 330.313 8.83668 326.563 20.5937 326.394H23.3328V369.588C23.4171 375.15 22.785 375.867 17.1383 376.035H11.6601V380.713H43.6865V376.035H38.124C32.4772 375.867 31.8451 375.15 31.9294 369.588V326.394H34.6685C46.5098 326.563 49.6282 330.271 50.1339 344.894H54.6429V321.717H0.619385V344.894Z" fill="#ECECEC"/>
<path d="M106.264 371.442V357.03C106.264 349.15 105.717 346.327 103.694 343.335C101.418 339.963 97.2464 338.109 92.1054 338.109C88.9027 338.109 85.6579 338.91 83.0031 340.216C80.6011 341.438 79.1262 342.955 76.64 346.411V321.717H61.5117V325.973H63.4502C68.2963 326.141 69.0969 326.942 69.0969 331.03V371.484C69.0969 375.656 68.2963 376.33 63.4502 376.541H61.5117V380.797H85.2365V376.541H82.4132C77.4406 376.372 76.6821 375.656 76.6821 371.484V357.072C76.6821 352.563 77.7356 349.656 80.3062 346.79C82.7924 344.22 86.0372 342.829 89.7877 342.829C96.4036 342.829 98.8056 346.284 98.8056 355.934V371.526C98.8056 375.698 98.005 376.372 93.0746 376.583H90.2512V380.839H113.976V376.583H112.038C107.191 376.415 106.391 375.698 106.391 371.526L106.264 371.442Z" fill="#ECECEC"/>
<path d="M150.722 337.982C145.16 337.982 141.24 340.974 137.911 347.801V339.204H122.235V343.461H124.722C129.61 343.629 130.368 344.43 130.368 348.517V371.442C130.368 375.613 129.568 376.414 124.722 376.498H122.235V380.755H147.899V376.498H143.558C138.712 376.414 137.911 375.613 137.911 371.442V361.539C137.911 356.566 138.712 352.858 140.398 349.613C142.968 344.725 146.339 342.196 150.216 342.196C152.408 342.196 153.419 342.618 155.273 344.683C152.197 344.683 150.427 346.2 150.427 349.023C150.427 351.594 152.534 353.532 155.273 353.532C158.391 353.532 160.751 350.877 160.751 347.59C160.751 342.028 156.579 338.025 150.764 338.025L150.722 337.982Z" fill="#ECECEC"/>
<path d="M199.099 344.345C195.643 339.836 190.587 337.729 183.886 337.729C170.949 337.729 162.648 346.495 162.648 360.106C162.648 373.717 171.034 382.229 184.055 382.229C189.702 382.229 194.042 380.628 197.413 377.383C199.984 374.897 201.122 372.537 202.554 367.101H197.329C196.023 370.978 195.011 372.664 193.157 374.181C190.839 376.119 187.595 377.257 184.055 377.257C179.63 377.257 176.006 375.487 173.857 372.284C172.003 369.545 171.286 366.806 171.118 360.696H203.776C203.439 352.184 202.259 348.307 199.099 344.345ZM171.497 356.018C172.045 350.877 172.635 348.686 174.489 346.2C176.512 343.461 179.63 342.028 183.676 342.028C187.468 342.028 190.587 343.334 192.441 345.82C194.211 348.222 194.843 350.582 195.096 355.976H171.455L171.497 356.018Z" fill="#ECECEC"/>
<path d="M243.894 344.345C240.438 339.836 235.381 337.729 228.681 337.729C215.744 337.729 207.443 346.495 207.443 360.106C207.443 373.717 215.871 382.229 228.85 382.229C234.497 382.229 238.837 380.628 242.208 377.383C244.779 374.897 245.916 372.537 247.349 367.101H242.124C240.775 370.978 239.806 372.664 237.952 374.181C235.676 376.119 232.389 377.257 228.85 377.257C224.425 377.257 220.801 375.487 218.694 372.284C216.84 369.545 216.123 366.806 215.955 360.696H248.613C248.276 352.184 247.096 348.307 243.936 344.345H243.894ZM216.292 356.018C216.84 350.877 217.43 348.686 219.284 346.2C221.307 343.461 224.425 342.028 228.47 342.028C232.263 342.028 235.381 343.334 237.236 345.82C239.005 348.222 239.638 350.582 239.89 355.976H216.25L216.292 356.018Z" fill="#ECECEC"/>
<path d="M331.503 352.774C328.932 351.173 326.825 350.456 321.6 349.571C326.362 348.434 328.258 347.717 330.449 346.2C333.905 343.967 335.759 340.343 335.759 336.044C335.759 326.731 327.963 321.717 313.551 321.717H281.44V326.394H285.064C290.711 326.563 291.343 327.279 291.259 332.842V369.546C291.343 375.108 290.753 375.825 285.064 375.993H281.44V380.671H312.034C321.136 380.671 326.615 379.533 331.166 376.583C335.422 373.76 337.613 369.588 337.613 364.447C337.613 359.306 335.422 355.176 331.503 352.69V352.774ZM299.813 326.394H312.75C317.007 326.394 320.083 326.942 322.148 328.164C325.224 329.934 326.994 333.137 326.994 337.014C326.994 343.63 321.431 347.549 312.034 347.549H299.813V326.394ZM312.034 376.035H299.813V352.226H312.034C318.566 352.226 321.305 352.858 324.255 354.881C327.204 356.904 328.764 360.191 328.764 363.983C328.764 371.863 323.033 376.035 312.034 376.035Z" fill="#ECECEC"/>
<path d="M355.902 330.987C358.641 330.987 360.874 328.67 360.874 325.931C360.874 323.191 358.641 320.958 355.902 320.958C353.163 320.958 350.845 323.191 350.845 325.846C350.845 328.754 353.078 330.987 355.902 330.987Z" fill="#ECECEC"/>
<path d="M360.79 371.442V339.247H344.693V343.503H347.516C352.404 343.672 353.163 344.388 353.163 348.56V371.484C353.163 375.656 352.362 376.33 347.516 376.541H344.693V380.797H368.755V376.541H366.437C361.591 376.372 360.79 375.656 360.79 371.484V371.442Z" fill="#ECECEC"/>
<path d="M390.794 371.442V321.717H375.033V325.973H377.519C382.408 326.141 383.166 326.858 383.166 331.03V371.484C383.166 375.656 382.366 376.33 377.519 376.541H375.033V380.797H399.011V376.541H396.44C391.552 376.372 390.794 375.656 390.794 371.484V371.442Z" fill="#ECECEC"/>
<path d="M420.713 371.442V321.717H404.953V325.973H407.439C412.327 326.141 413.086 326.858 413.086 331.03V371.484C413.086 375.656 412.285 376.33 407.439 376.541H404.953V380.797H428.93V376.541H426.36C421.472 376.372 420.713 375.656 420.713 371.484V371.442Z" fill="#ECECEC"/>
<path d="M458.85 337.814C452.192 337.814 448.483 339.921 444.059 346.116V321.717H429.099V325.973H430.869C435.631 326.141 436.6 326.942 436.516 331.03V381.303H440.392L444.016 373.591C446.039 376.415 447.472 378.016 448.989 379.069C451.728 381.008 455.268 382.061 458.892 382.061C470.143 382.061 477.813 373.128 477.813 360.022C477.813 346.917 470.101 337.814 458.808 337.814H458.85ZM457.333 376.92C449.2 376.92 444.059 370.304 444.059 359.685C444.059 349.066 449.368 342.955 457.417 342.955C465.044 342.955 469.343 349.15 469.343 360.106C469.343 371.063 464.918 376.92 457.291 376.92H457.333Z" fill="#ECECEC"/>
<path d="M504.656 337.729C498.63 337.729 493.068 339.752 488.727 343.671C484.302 347.548 481.9 353.153 481.9 359.684C481.9 366.933 483.923 372.074 488.727 376.33C492.899 380.122 498.546 382.271 504.74 382.271C510.935 382.271 516.413 380.164 520.585 376.33C525.178 372.158 527.412 366.933 527.412 360.064C527.412 353.195 525.22 347.843 520.585 343.713C516.329 339.836 510.766 337.772 504.656 337.772V337.729ZM504.656 377.72C495.469 377.72 490.497 371.357 490.497 359.769C490.497 348.18 495.638 342.238 504.656 342.238C513.674 342.238 518.815 348.602 518.815 360.022C518.815 371.441 513.758 377.72 504.656 377.72Z" fill="#ECECEC"/>
<path d="M569.088 377.467C567.15 377.467 566.433 376.035 566.433 372.326V351.804C566.433 345.61 565.464 343.039 562.177 340.848C559.059 338.825 554.845 337.771 550.125 337.771C540.643 337.771 533.311 342.618 533.311 348.812C533.311 351.888 535.629 354.206 538.621 354.206C541.444 354.206 543.467 352.352 543.467 349.866C543.467 347.379 542.245 346.157 539.295 345.441C542.75 342.618 545.237 341.733 548.945 341.733C555.224 341.733 559.311 344.725 559.311 349.444C559.311 353.448 557.626 355.091 552.232 356.608L545.321 358.547C540.011 360.064 537.694 360.948 535.334 362.634C532.51 364.657 530.993 367.607 530.993 371.02C530.993 377.847 536.219 382.356 544.015 382.356C549.746 382.356 553.833 380.501 559.396 375.36C560.913 380.333 563.273 382.356 567.697 382.356C574.693 382.356 576.968 378.479 577.052 366.68H573.007C572.754 375.445 571.954 377.467 569.004 377.467H569.088ZM559.016 363.098C559.016 368.576 557.879 371.61 554.845 374.138C552.738 375.908 549.366 377.046 546.248 377.046C541.992 377.046 539.337 374.56 539.337 370.767C539.337 366.975 541.655 364.657 547.554 362.718L551.01 361.581C553.58 360.78 554.55 360.359 558.974 358.294V363.055L559.016 363.098Z" fill="#ECECEC"/>
<path d="M610.048 337.982C604.486 337.982 600.567 340.974 597.238 347.801V339.204H581.562V343.461H584.048C588.894 343.629 589.695 344.43 589.695 348.517V371.442C589.695 375.613 588.894 376.414 584.048 376.498H581.562V380.755H607.225V376.498H602.884C597.996 376.414 597.238 375.613 597.238 371.442V361.539C597.238 356.566 598.038 352.858 599.724 349.613C602.294 344.725 605.666 342.196 609.542 342.196C611.776 342.196 612.745 342.618 614.599 344.683C611.481 344.683 609.711 346.2 609.711 349.023C609.711 351.594 611.818 353.532 614.599 353.532C617.675 353.532 620.077 350.877 620.077 347.59C620.077 342.028 615.906 338.025 610.09 338.025L610.048 337.982Z" fill="#ECECEC"/>
<path d="M665.546 371.442V321.717H649.449V325.973H652.272C657.118 326.141 658.13 326.942 658.046 331.03V346.158C653.621 339.963 649.913 337.856 643.254 337.856C631.834 337.856 624.249 346.79 624.249 360.064C624.249 373.338 631.877 382.103 643.086 382.103C649.618 382.103 653.621 379.786 658.046 373.591V380.755H673.427V376.499H671.235C666.347 376.33 665.589 375.614 665.589 371.442H665.546ZM644.771 376.92C637.186 376.92 632.719 370.726 632.719 360.022C632.719 349.318 637.06 342.955 644.645 342.955C652.778 342.955 658.003 349.613 658.003 360.022C658.003 370.431 652.694 376.92 644.729 376.92H644.771Z" fill="#ECECEC"/>
<path d="M702.293 356.397L693.991 354.88C689.229 353.995 686.659 351.762 686.659 348.517C686.659 344.809 689.946 342.407 695.171 342.407C699.259 342.407 702.798 343.713 705.369 346.199C707.476 348.222 708.487 350.287 709.541 354.796H713.965V338.698H710.004L708.319 342.407C703.262 339.036 699.638 337.813 694.412 337.813C685.563 337.813 679.369 342.87 679.369 350.118C679.369 356.397 684.51 361.159 693.19 362.845L701.155 364.362C706.38 365.415 708.867 367.354 708.867 370.641C708.867 374.728 705.074 377.383 699.216 377.383C695.213 377.383 691.336 375.866 688.429 373.211C685.774 370.809 684.636 368.702 683.456 363.73H678.863V381.091H683.372L685.142 376.667C690.283 380.838 693.738 382.145 699.554 382.145C709.625 382.145 716.115 377.004 716.115 368.871C716.115 362.508 711.268 358.083 702.419 356.397H702.293Z" fill="#ECECEC"/>
<path d="M772.119 337.729C766.093 337.729 760.53 339.752 756.19 343.671C751.765 347.548 749.363 353.153 749.363 359.684C749.363 366.933 751.386 372.074 756.19 376.33C760.362 380.122 766.008 382.271 772.203 382.271C778.398 382.271 783.876 380.164 788.048 376.33C792.641 372.158 794.874 366.933 794.874 360.064C794.874 353.195 792.683 347.843 788.048 343.713C783.791 339.836 778.229 337.772 772.119 337.772V337.729ZM772.119 377.72C762.932 377.72 757.96 371.357 757.96 359.769C757.96 348.18 763.101 342.238 772.119 342.238C781.137 342.238 786.278 348.602 786.278 360.022C786.278 371.441 781.221 377.72 772.119 377.72Z" fill="#ECECEC"/>
<path d="M840.933 371.442V339.247H824.372V343.503H827.743C832.632 343.672 833.39 344.388 833.39 348.56V362.972C833.39 367.481 832.421 370.304 829.766 373.254C827.364 375.909 824.119 377.215 820.285 377.215C813.753 377.215 811.351 373.76 811.351 364.11V339.247H796.223V343.503H798.161C803.007 343.672 803.808 344.388 803.808 348.56V362.972C803.808 370.852 804.314 373.675 806.378 376.667C808.57 380.039 812.742 381.893 817.967 381.893C821.254 381.893 824.414 381.092 827.069 379.786C829.387 378.564 830.862 377.047 833.348 373.591V380.755H849.108V376.499H846.622C841.734 376.33 840.765 375.53 840.849 371.442H840.933Z" fill="#ECECEC"/>
<path d="M873.423 373.633C872.707 375.74 870.684 377.088 868.198 377.088C865.206 377.088 863.857 375.571 863.857 372.326V343.587H876.499V339.246H863.857V322.77H859.686C858.716 334.105 855.809 338.614 848.898 339.246V343.587H856.314V372.326C856.314 378.436 860.318 382.229 866.765 382.229C871.527 382.229 875.362 380.038 876.836 376.287C877.89 373.633 878.269 371.315 878.522 363.73H874.561C874.477 368.786 874.097 371.61 873.423 373.633Z" fill="#ECECEC"/>
<path d="M908.484 356.397L900.182 354.88C895.42 353.995 892.85 351.762 892.85 348.517C892.85 344.809 896.137 342.407 901.362 342.407C905.449 342.407 908.989 343.713 911.56 346.199C913.667 348.222 914.678 350.287 915.732 354.796H920.156V338.698H916.195L914.51 342.407C909.453 339.036 905.829 337.813 900.603 337.813C891.754 337.813 885.559 342.87 885.559 350.118C885.559 356.397 890.7 361.159 899.381 362.845L907.346 364.362C912.571 365.415 915.057 367.354 915.057 370.641C915.057 374.728 911.265 377.383 905.407 377.383C901.404 377.383 897.527 375.866 894.619 373.211C891.965 370.809 890.827 368.702 889.647 363.73H885.054V381.091H889.563L891.333 376.667C896.474 380.838 899.929 382.145 905.744 382.145C915.816 382.145 922.305 377.004 922.305 368.871C922.305 362.508 917.459 358.083 908.61 356.397H908.484Z" fill="#ECECEC"/>
<path d="M944.134 371.442V339.247H928.037V343.503H930.86C935.748 343.672 936.507 344.388 936.507 348.56V371.484C936.507 375.656 935.706 376.33 930.86 376.541H928.037V380.797H952.099V376.541H949.781C944.935 376.372 944.134 375.656 944.134 371.484V371.442Z" fill="#ECECEC"/>
<path d="M939.246 330.987C941.985 330.987 944.218 328.67 944.218 325.931C944.218 323.191 941.985 320.958 939.246 320.958C936.507 320.958 934.189 323.191 934.189 325.846C934.189 328.754 936.422 330.987 939.246 330.987Z" fill="#ECECEC"/>
<path d="M998.832 371.442V321.717H982.734V325.973H985.558C990.446 326.141 991.415 326.942 991.289 331.03V346.158C986.864 339.963 983.156 337.856 976.498 337.856C965.078 337.856 957.492 346.79 957.492 360.064C957.492 373.338 965.078 382.103 976.329 382.103C982.861 382.103 986.864 379.786 991.289 373.591V380.755H1006.67V376.499H1004.44C999.59 376.33 998.79 375.614 998.79 371.442H998.832ZM978.015 376.92C970.387 376.92 965.963 370.726 965.963 360.022C965.963 349.318 970.303 342.955 977.888 342.955C986.021 342.955 991.247 349.613 991.247 360.022C991.247 370.431 985.937 376.92 977.972 376.92H978.015Z" fill="#ECECEC"/>
<path d="M1045.82 344.345C1042.36 339.836 1037.31 337.729 1030.61 337.729C1017.67 337.729 1009.37 346.495 1009.37 360.106C1009.37 373.717 1017.79 382.229 1030.77 382.229C1036.42 382.229 1040.76 380.628 1044.13 377.383C1046.7 374.897 1047.84 372.537 1049.27 367.101H1044.05C1042.7 370.978 1041.73 372.664 1039.88 374.181C1037.6 376.119 1034.31 377.257 1030.77 377.257C1026.35 377.257 1022.73 375.487 1020.62 372.284C1018.76 369.545 1018.05 366.806 1017.88 360.696H1050.54C1050.2 352.184 1049.02 348.307 1045.86 344.345H1045.82ZM1018.22 356.018C1018.76 350.877 1019.35 348.686 1021.21 346.2C1023.23 343.461 1026.35 342.028 1030.39 342.028C1034.19 342.028 1037.31 343.334 1039.16 345.82C1040.93 348.222 1041.56 350.582 1041.81 355.976H1018.17L1018.22 356.018Z" fill="#ECECEC"/>
<path d="M1085.09 326.394H1088.72C1094.36 326.563 1095 327.279 1094.91 332.842V369.546C1095 375.108 1094.41 375.825 1088.72 375.993H1085.09V380.671H1140.93V356.693H1136.42C1135.79 372.875 1133.51 375.698 1120.57 375.993H1103.51V352.1H1109.53C1117.67 352.353 1118.55 353.617 1119.01 364.91H1123.52V336.044H1119.01C1118.93 346.032 1117.58 347.633 1109.66 347.464H1103.55V326.394H1119.48C1133.09 326.479 1136.12 329.597 1136.46 343.925H1140.97V321.717H1085.13V326.394H1085.09Z" fill="#ECECEC"/>
<path d="M1175.9 337.814C1169.29 337.814 1165.54 339.921 1161.11 346.116V321.717H1146.15V325.973H1147.92C1152.69 326.141 1153.7 326.942 1153.57 331.03V381.303H1157.45L1161.07 373.591C1163.09 376.415 1164.53 378.016 1166.04 379.069C1168.78 381.008 1172.32 382.061 1175.95 382.061C1187.2 382.061 1194.87 373.128 1194.87 360.022C1194.87 346.917 1187.16 337.814 1175.86 337.814H1175.9ZM1174.39 376.92C1166.25 376.92 1161.11 370.304 1161.11 359.685C1161.11 349.066 1166.42 342.955 1174.47 342.955C1182.1 342.955 1186.4 349.15 1186.4 360.106C1186.4 371.063 1181.97 376.92 1174.34 376.92H1174.39Z" fill="#ECECEC"/>
<path d="M1222.43 337.814C1215.77 337.814 1212.06 339.921 1207.64 346.116V321.717H1192.68V325.973H1194.45C1199.21 326.141 1200.18 326.942 1200.09 331.03V381.303H1203.97L1207.59 373.591C1209.62 376.415 1211.05 378.016 1212.57 379.069C1215.3 381.008 1218.84 382.061 1222.47 382.061C1233.72 382.061 1241.39 373.128 1241.39 360.022C1241.39 346.917 1233.68 337.814 1222.38 337.814H1222.43ZM1220.95 376.92C1212.82 376.92 1207.68 370.304 1207.68 359.685C1207.68 349.066 1212.99 342.955 1221.04 342.955C1228.66 342.955 1232.96 349.15 1232.96 360.106C1232.96 371.063 1228.54 376.92 1220.91 376.92H1220.95Z" fill="#ECECEC"/>
<path d="M1254.92 330.987C1257.66 330.987 1259.89 328.67 1259.89 325.931C1259.89 323.191 1257.66 320.958 1254.92 320.958C1252.18 320.958 1249.86 323.191 1249.86 325.846C1249.86 328.754 1252.09 330.987 1254.92 330.987Z" fill="#ECECEC"/>
<path d="M1259.76 371.442V339.247H1243.67V343.503H1246.49C1251.38 343.672 1252.14 344.388 1252.14 348.56V371.484C1252.14 375.656 1251.33 376.33 1246.49 376.541H1243.67V380.797H1267.73V376.541H1265.41C1260.56 376.372 1259.76 375.656 1259.76 371.484V371.442Z" fill="#ECECEC"/>
<path d="M1321.46 371.441V357.029C1321.46 349.149 1320.95 346.326 1318.88 343.334C1316.57 339.963 1312.44 338.108 1307.3 338.108C1304.22 338.108 1300.93 338.909 1298.28 340.215C1295.88 341.437 1294.4 342.954 1291.92 346.41V339.246H1276.24V343.502H1278.73C1283.57 343.671 1284.37 344.472 1284.37 348.559V371.483C1284.37 375.655 1283.57 376.329 1278.73 376.54H1276.24V380.796H1300.47V376.54H1297.65C1292.67 376.372 1291.92 375.655 1291.92 371.483V357.071C1291.92 352.562 1292.97 349.655 1295.54 346.789C1298.03 344.219 1301.27 342.828 1305.02 342.828C1311.55 342.828 1313.95 346.284 1313.95 355.934V371.525C1313.95 375.697 1313.15 376.372 1308.31 376.582H1305.48V380.838H1329.21V376.582H1327.27C1322.3 376.414 1321.5 375.697 1321.5 371.525L1321.46 371.441Z" fill="#ECECEC"/>
<path d="M1378.89 337.729C1375.18 337.729 1373.03 338.783 1369.33 342.491C1364.19 338.952 1360.39 337.729 1354.54 337.729C1343.66 337.729 1336.29 344.008 1336.29 353.406C1336.29 358.252 1337.81 361.37 1341.94 365.163C1336.2 368.365 1334.6 370.219 1334.6 373.759C1334.6 377.299 1336.54 379.532 1341.35 381.092C1338.69 381.808 1336.92 382.524 1335.87 383.409C1334.01 384.926 1332.88 387.118 1332.88 389.351C1332.88 392.343 1334.98 395.293 1338.52 396.978C1342.53 398.917 1347.37 399.717 1354.45 399.717C1370.93 399.717 1378.77 395.461 1378.77 386.78C1378.77 379.448 1373.03 375.445 1362.33 375.445H1348.8C1343.41 375.445 1341.18 374.476 1341.18 372.074C1341.18 369.84 1343.37 367.733 1345.6 367.733C1345.85 367.733 1346.23 367.817 1346.74 367.902C1351.33 369.208 1352.22 369.419 1355.13 369.419C1366.71 369.419 1373.88 363.308 1373.88 353.574C1373.88 350.498 1373.41 348.897 1371.56 345.61C1374.13 342.491 1375.82 341.438 1378.56 341.438C1380.16 341.438 1380.58 341.691 1381.63 342.955C1378.72 343.503 1377.38 344.809 1377.38 347.211C1377.38 349.613 1379.31 351.467 1381.88 351.467C1384.88 351.467 1386.94 348.981 1386.94 345.273C1386.94 340.848 1383.57 337.729 1378.81 337.729H1378.89ZM1353.14 382.482H1358.29C1368.48 382.566 1372.11 384.083 1372.11 388.213C1372.11 390.699 1370.68 392.301 1367.51 393.439C1364.61 394.492 1358.75 395.208 1353.1 395.208C1344.34 395.208 1339.66 392.891 1339.66 388.55C1339.66 384.505 1344.17 382.44 1353.19 382.44L1353.14 382.482ZM1355 364.783C1348 364.783 1344.46 360.991 1344.46 353.448C1344.46 345.905 1348.34 341.859 1354.91 341.859C1361.91 341.859 1365.7 345.947 1365.7 353.363C1365.7 360.78 1361.99 364.783 1355 364.783Z" fill="#ECECEC"/>
<path d="M1399.96 372.326C1396.89 372.326 1394.82 374.265 1394.82 377.299C1394.82 379.954 1396.59 381.723 1399.25 381.723C1400.38 381.723 1401.18 381.471 1402.62 380.501V381.934C1402.62 383.873 1402.07 385.474 1400.85 387.159C1399.33 389.182 1397.86 389.983 1394.4 390.615V393.691C1399.08 392.806 1401.23 391.837 1403.33 389.435C1405.52 387.033 1406.79 383.662 1406.79 380.248C1406.79 375.571 1404.05 372.368 1399.96 372.368V372.326Z" fill="#ECECEC"/>
<path d="M1487.28 367.902L1469.32 321.717H1447.83V326.394H1451.29C1456.94 326.563 1457.57 327.279 1457.48 332.842V369.546C1457.57 375.108 1456.94 375.825 1451.29 375.993H1447.83V380.671H1473.58V375.993H1469.62C1463.97 375.825 1463.34 375.108 1463.43 369.546V327.659L1484.12 380.755H1487.49L1508.26 328.923V369.63C1508.35 375.192 1507.76 375.909 1501.98 376.077H1497.81V380.755H1526.38V376.077H1522.76C1517.11 375.909 1516.48 375.192 1516.56 369.63V332.842C1516.48 327.279 1517.07 326.563 1522.76 326.394H1526.38V321.717H1505.86L1487.28 367.902Z" fill="#ECECEC"/>
<path d="M1544.29 330.987C1547.03 330.987 1549.26 328.67 1549.26 325.931C1549.26 323.191 1547.07 320.958 1544.29 320.958C1541.51 320.958 1539.24 323.191 1539.24 325.846C1539.24 328.754 1541.43 330.987 1544.29 330.987Z" fill="#ECECEC"/>
<path d="M1549.14 371.442V339.247H1533.04V343.503H1535.86C1540.71 343.672 1541.51 344.388 1541.51 348.56V371.484C1541.51 375.656 1540.71 376.33 1535.86 376.541H1533.04V380.797H1557.1V376.541H1554.78C1549.9 376.372 1549.14 375.656 1549.14 371.484V371.442Z" fill="#ECECEC"/>
<path d="M1587.36 356.397L1579.06 354.88C1574.3 353.995 1571.72 351.762 1571.72 348.517C1571.72 344.809 1575.01 342.407 1580.24 342.407C1584.32 342.407 1587.86 343.713 1590.44 346.199C1592.54 348.222 1593.55 350.287 1594.61 354.796H1599.03V338.698H1595.07L1593.39 342.407C1588.33 339.036 1584.7 337.813 1579.48 337.813C1570.63 337.813 1564.43 342.87 1564.43 350.118C1564.43 356.397 1569.58 361.159 1578.26 362.845L1586.22 364.362C1591.45 365.415 1593.93 367.354 1593.93 370.641C1593.93 374.728 1590.14 377.383 1584.28 377.383C1580.28 377.383 1576.4 375.866 1573.49 373.211C1570.84 370.809 1569.7 368.702 1568.52 363.73H1563.93V381.091H1568.44L1570.21 376.667C1575.35 380.838 1578.8 382.145 1584.62 382.145C1594.69 382.145 1601.18 377.004 1601.18 368.871C1601.18 362.508 1596.33 358.083 1587.49 356.397H1587.36Z" fill="#ECECEC"/>
<path d="M1631.35 356.397L1623.05 354.88C1618.29 353.995 1615.72 351.762 1615.72 348.517C1615.72 344.809 1619.01 342.407 1624.23 342.407C1628.32 342.407 1631.86 343.713 1634.43 346.199C1636.54 348.222 1637.55 350.287 1638.6 354.796H1643.03V338.698H1639.06L1637.38 342.407C1632.32 339.036 1628.7 337.813 1623.47 337.813C1614.62 337.813 1608.43 342.87 1608.43 350.118C1608.43 356.397 1613.57 361.159 1622.25 362.845L1630.22 364.362C1635.44 365.415 1637.93 367.354 1637.93 370.641C1637.93 374.728 1634.13 377.383 1628.28 377.383C1624.27 377.383 1620.4 375.866 1617.49 373.211C1614.83 370.809 1613.7 368.702 1612.52 363.73H1607.92V381.091H1612.43L1614.2 376.667C1619.34 380.838 1622.8 382.145 1628.61 382.145C1638.69 382.145 1645.18 377.004 1645.18 368.871C1645.18 362.508 1640.33 358.083 1631.48 356.397H1631.35Z" fill="#ECECEC"/>
<path d="M1673.75 337.729C1667.72 337.729 1662.16 339.752 1657.82 343.671C1653.39 347.548 1650.99 353.153 1650.99 359.684C1650.99 366.933 1653.01 372.074 1657.82 376.33C1661.99 380.122 1667.64 382.271 1673.83 382.271C1680.03 382.271 1685.5 380.164 1689.68 376.33C1694.27 372.158 1696.5 366.933 1696.5 360.064C1696.5 353.195 1694.27 347.843 1689.68 343.713C1685.42 339.836 1679.86 337.772 1673.75 337.772V337.729ZM1673.75 377.72C1664.56 377.72 1659.59 371.357 1659.59 359.769C1659.59 348.18 1664.73 342.238 1673.75 342.238C1682.76 342.238 1687.91 348.602 1687.91 360.022C1687.91 371.441 1682.85 377.72 1673.75 377.72Z" fill="#ECECEC"/>
<path d="M1742.6 371.442V339.247H1726.04V343.503H1729.41C1734.26 343.672 1735.06 344.388 1735.06 348.56V362.972C1735.06 367.481 1734.09 370.304 1731.44 373.254C1729.03 375.909 1725.79 377.215 1721.95 377.215C1715.42 377.215 1713.02 373.76 1713.02 364.11V339.247H1697.89V343.503H1699.83C1704.72 343.672 1705.48 344.388 1705.48 348.56V362.972C1705.48 370.852 1706.03 373.675 1708.05 376.667C1710.28 380.039 1714.41 381.893 1719.64 381.893C1722.92 381.893 1726.08 381.092 1728.74 379.786C1731.06 378.564 1732.53 377.047 1735.02 373.591V380.755H1750.78V376.499H1748.29C1743.45 376.33 1742.48 375.53 1742.56 371.442H1742.6Z" fill="#ECECEC"/>
<path d="M1787.48 337.982C1781.92 337.982 1778 340.974 1774.67 347.801V339.204H1759V343.461H1761.48C1766.37 343.629 1767.13 344.43 1767.13 348.517V371.442C1767.13 375.613 1766.33 376.414 1761.48 376.498H1759V380.755H1784.66V376.498H1780.32C1775.47 376.414 1774.67 375.613 1774.67 371.442V361.539C1774.67 356.566 1775.47 352.858 1777.16 349.613C1779.73 344.725 1783.1 342.196 1786.98 342.196C1789.17 342.196 1790.18 342.618 1792.03 344.683C1788.96 344.683 1787.19 346.2 1787.19 349.023C1787.19 351.594 1789.29 353.532 1792.03 353.532C1795.15 353.532 1797.51 350.877 1797.51 347.59C1797.51 342.028 1793.34 338.025 1787.52 338.025L1787.48 337.982Z" fill="#ECECEC"/>
<path d="M1822.96 376.499C1818.08 376.33 1817.32 375.614 1817.32 371.442V339.247H1801.22V343.503H1804.04C1808.89 343.672 1809.69 344.388 1809.69 348.56V371.484C1809.69 375.656 1808.89 376.33 1804.04 376.541H1801.22V380.797H1825.28V376.541H1822.96V376.499Z" fill="#ECECEC"/>
<path d="M1812.43 330.987C1815.17 330.987 1817.4 328.67 1817.4 325.931C1817.4 323.191 1815.21 320.958 1812.43 320.958C1809.65 320.958 1807.37 323.191 1807.37 325.846C1807.37 328.754 1809.56 330.987 1812.43 330.987Z" fill="#ECECEC"/>
</g>
<defs>
<clipPath id="clip0_1161_2545">
<rect width="1824.62" height="78.6754" fill="white" transform="translate(0.619385 321)"/>
</clipPath>
</defs>
</svg>
