<svg width="1825" height="720" viewBox="0 0 1825 720" fill="none" xmlns="http://www.w3.org/2000/svg">
<g clip-path="url(#clip0_1228_2464)">
<path d="M258.761 245.635L258.829 254.148C258.879 260.284 253.899 265.342 247.758 265.387L211.94 265.645L212.125 285.856L199.159 285.929L198.935 258.635H232.774C232.774 258.635 244.623 258.478 244.623 245.394V234.711C244.623 233.78 245.47 233.101 246.379 233.292C249.867 234.032 258.756 236.657 258.756 245.635H258.761Z" fill="#ECECEC"/>
<path d="M250.159 504.57L198.755 504.946H198.682C193.534 504.946 189.249 502.826 188.386 497.902L237.159 497.527C237.159 497.527 246.396 498.609 246.396 488.531V478.998C246.396 477.427 247.669 476.154 249.239 476.154C255.615 476.154 260.786 481.325 260.786 487.701V497.543C260.786 501.592 257.477 504.8 253.434 504.677L250.159 504.576V504.57Z" fill="#ECECEC"/>
<path d="M248.28 306.224L246.21 301.508H248.577C252.71 301.508 256.428 303.953 258.122 307.71L261.285 314.844C262.435 317.435 262.788 320.413 261.818 323.076C260.275 327.299 256.35 329.991 252.037 329.991L212.394 330.294L213.336 462.84L200.409 462.913L199.394 321.686L239.038 321.383C239.038 321.383 255.026 322.359 248.285 306.219L248.28 306.224Z" fill="#ECECEC"/>
<path d="M745.984 237.772L746.051 246.285C746.101 252.42 741.234 257.479 735.239 257.524L700.244 257.782L700.429 277.993L687.766 278.066L687.548 250.772H720.607C720.607 250.772 732.182 250.614 732.182 237.531V226.848C732.182 225.917 733.012 225.238 733.898 225.429C737.308 226.169 745.989 228.794 745.989 237.772H745.984Z" fill="#ECECEC"/>
<path d="M736.231 496.707L684.828 497.083H684.755C679.607 497.083 675.322 494.963 674.458 490.039L723.232 489.663C723.232 489.663 732.468 490.746 732.468 480.668V471.134C732.468 469.564 733.741 468.291 735.311 468.291C741.688 468.291 746.858 473.462 746.858 479.838V489.68C746.858 493.729 743.55 496.937 739.506 496.814L736.231 496.713V496.707Z" fill="#ECECEC"/>
<path d="M736.635 298.363L734.532 293.646H736.938C741.144 293.646 744.929 296.092 746.645 299.849L749.864 306.982C751.036 309.573 751.395 312.551 750.403 315.215C748.832 319.438 744.839 322.13 740.448 322.13L700.115 322.433L701.069 454.979L687.918 455.052L686.886 313.824L727.219 313.521C727.219 313.521 743.488 314.497 736.624 298.357L736.635 298.363Z" fill="#ECECEC"/>
<path d="M1819.62 223.378L1819.68 231.891C1819.74 238.026 1814.87 243.084 1808.87 243.129L1773.88 243.387L1774.06 263.598L1761.4 263.671L1761.18 236.377H1794.24C1794.24 236.377 1805.82 236.22 1805.82 223.136V212.453C1805.82 211.522 1806.65 210.844 1807.53 211.034C1810.94 211.774 1819.62 214.399 1819.62 223.378H1819.62Z" fill="#ECECEC"/>
<path d="M1809.87 482.313L1758.46 482.688H1758.39C1753.24 482.688 1748.96 480.568 1748.09 475.645L1796.87 475.269C1796.87 475.269 1806.1 476.351 1806.1 466.273V456.74C1806.1 455.17 1807.38 453.896 1808.95 453.896C1815.32 453.896 1820.49 459.067 1820.49 465.443V475.286C1820.49 479.335 1817.18 482.542 1813.14 482.419L1809.87 482.318V482.313Z" fill="#ECECEC"/>
<path d="M1810.27 283.966L1808.17 279.25H1810.57C1814.78 279.25 1818.56 281.695 1820.28 285.453L1823.5 292.586C1824.67 295.177 1825.03 298.155 1824.04 300.819C1822.47 305.041 1818.47 307.733 1814.08 307.733L1773.75 308.036L1774.7 440.583L1761.55 440.655L1760.52 299.428L1800.85 299.125C1800.85 299.125 1817.12 300.101 1810.26 283.961L1810.27 283.966Z" fill="#ECECEC"/>
<path d="M48.3526 275.022C33.2333 262.522 12.5845 262.522 12.5845 262.522L13.7117 415.431C18.5963 414.87 23.3295 413.855 27.9169 412.464L26.9411 271.349C35.7626 269.139 48.3526 275.017 48.3526 275.017V275.022ZM71.8728 251.766C111.656 278.819 111.656 341.949 111.656 341.949C108.471 440.09 13.9024 451.272 13.9024 451.272L14.2389 492.705C14.2389 496.501 11.1937 499.619 7.40263 499.658L0 499.698L0.0392564 501.762C0.0785128 505.558 3.15734 508.598 6.99324 508.598L21.7256 508.486C25.5223 508.446 28.6011 505.368 28.5618 501.532L28.259 457.682C84.1713 452.837 125.716 406.312 126.518 349.503C127.583 274.304 71.8728 251.766 71.8728 251.766Z" fill="#ECECEC"/>
<path d="M545.277 283.243L545.013 250.599L583.793 250.335C588.341 250.296 590.388 246.578 590.349 242.069L590.276 230.864L595.289 230.825C599.838 230.785 603.516 234.431 603.556 238.939L603.668 251.036C603.668 255.584 600.023 259.263 595.514 259.302L559.931 259.605L560.116 283.125L545.271 283.237L545.277 283.243Z" fill="#ECECEC"/>
<path d="M584.881 316.954L545.013 317.256L546.668 484.831C546.707 489.379 543.062 493.058 538.513 493.097L532.99 493.136L533.029 495.918C533.068 500.466 536.786 502.513 541.295 502.474L553.431 502.401C557.94 502.361 561.585 498.683 561.546 494.134L559.931 326.56L599.798 326.224C605.698 326.184 609.64 320.1 607.24 314.688L601.868 302.625C600.544 299.653 597.589 297.752 594.336 297.78L592.121 297.796C591.078 297.808 590.416 298.918 590.938 299.827C593.439 304.178 597.667 314.312 584.886 316.965L584.881 316.954Z" fill="#ECECEC"/>
<path d="M985.425 245.394L985.464 252.455L979.587 252.488C977.26 252.505 975.359 250.772 975.342 248.613L975.314 245.45L985.419 245.389L985.425 245.394Z" fill="#ECECEC"/>
<path d="M1031.13 253.342L1032.77 487.551C1032.8 491.185 1029.87 494.152 1026.25 494.18L1012.97 494.286C1011.15 494.303 1009.66 492.839 1009.65 491.017L1009.6 485.268L1013.58 485.212C1017.05 485.167 1019.83 482.33 1019.8 478.864L1018.15 245.389L1038.71 245.249C1042.2 245.227 1045.01 242.384 1044.99 238.895L1044.93 225.251C1044.93 223.484 1046.73 222.29 1048.35 222.991L1054 225.425C1056.58 226.535 1058.26 229.07 1058.28 231.874L1058.38 246.034C1058.41 249.949 1055.26 253.14 1051.35 253.173L1031.12 253.342H1031.13Z" fill="#ECECEC"/>
<path d="M1278.46 247.79C1277.05 246.449 1275.33 245.513 1273.5 245.064L1273.64 267.008C1278.41 265.763 1282.03 261.255 1282 255.966C1281.98 252.842 1280.71 249.926 1278.45 247.79H1278.46ZM1304.5 318.928C1295.66 312.753 1285.31 309.147 1274.5 308.43L1275.34 446.517C1281.33 446.046 1287.13 444.7 1292.58 442.507L1291.83 316.707C1296.16 316.987 1300.39 317.739 1304.5 318.933V318.928ZM1300.58 221.819C1306.15 228.818 1322.72 253.252 1306.67 279.593C1306.67 279.593 1377.75 308.239 1364.31 394.53C1350.87 480.821 1262.81 482.588 1262.81 482.588L1266.7 491.073C1266.7 491.073 1371.38 496.911 1380.93 397.71C1380.93 397.71 1392.96 330.497 1322.23 288.51C1342.74 251.233 1310.26 227.029 1301.15 221.196C1300.74 220.933 1300.27 221.437 1300.58 221.819Z" fill="#ECECEC"/>
<path d="M1463.89 446.723L1462.3 220.522C1462.29 218.559 1464.24 217.191 1466.08 217.869L1472.08 220.085C1475.09 221.195 1477.09 224.055 1477.12 227.263L1478.69 446.611L1463.89 446.723Z" fill="#ECECEC"/>
<path d="M1515.89 487.998L1461.39 488.391C1456.61 488.424 1452.48 485.088 1451.5 480.411L1499.94 480.046C1506.36 479.996 1509.94 474.752 1509.89 468.331L1509.85 462.818C1509.84 460.995 1511.3 459.509 1513.13 459.493H1513.25C1518.63 459.448 1524.63 463.783 1524.67 469.166L1524.75 479.003C1524.79 483.932 1520.83 487.959 1515.89 487.998H1515.89Z" fill="#ECECEC"/>
<path d="M1590.89 424.459L1589.44 218.173C1589.43 217.258 1590.17 216.513 1591.08 216.507L1594.67 216.485C1599.19 216.456 1602.87 220.096 1602.9 224.611L1604.38 434.526C1604.4 437.01 1604.84 439.405 1605.63 441.631C1606.15 443.128 1604.68 444.458 1603.24 443.813C1596.07 440.61 1590.95 433.118 1590.89 424.459H1590.89Z" fill="#ECECEC"/>
<path d="M1672.3 436.074C1672.45 453.156 1663.96 468.825 1648.9 478.414C1641.24 483.288 1632.22 485.598 1623.15 485.598H1622.55C1612.73 485.486 1603.55 482.334 1595.88 477.024C1594.29 475.919 1595.39 473.395 1597.27 473.9C1601.05 474.921 1605 475.487 1609.06 475.526H1609.62C1618.57 475.526 1627.47 473.272 1635.06 468.527C1650.32 458.994 1658.91 443.157 1658.81 426.002L1657.33 219.479C1657.32 217.573 1658.85 216.019 1660.76 216.008C1666.28 215.98 1670.79 220.427 1670.83 225.951L1672.3 436.068V436.074Z" fill="#ECECEC"/>
<path d="M916.547 225.816V234.761C916.547 238.406 913.956 241.541 910.367 242.18C888.602 246.044 816.819 265.818 816.819 358.536C816.819 358.536 819.174 416.002 870.92 445.27C872.182 445.982 873.432 444.3 872.35 443.336C857.326 429.932 828.327 397.742 831.686 351.262C833.234 329.795 841.892 309.32 855.84 292.927C869.047 277.404 890.772 259.167 922.654 253.609C927.387 252.785 930.881 248.719 930.881 243.907V237.262C930.881 231.592 927.298 226.545 921.953 224.672L919.413 223.78C918.016 223.292 916.552 224.33 916.552 225.805L916.547 225.816Z" fill="#ECECEC"/>
<path d="M926.703 470.013C923.394 469.11 920.136 471.712 920.136 475.144V476.552C921.942 495.939 881.654 483.663 868.912 477.415C868.452 477.191 868.06 477.836 868.469 478.139C888.338 493.034 902.37 498.44 918.633 498.333C927.959 498.272 936.282 492.322 936.439 482.995C936.439 482.995 936.635 472.716 926.703 470.007V470.013Z" fill="#ECECEC"/>
<path d="M345.753 258.629L347.284 407.59C347.312 410.439 350.374 412.222 352.864 410.842L359.83 406.995C361.607 406.014 362.707 404.13 362.679 402.1L361.131 268.005C361.131 268.005 372.801 268.538 379.166 272.778C379.166 272.778 367.496 261.438 345.748 258.623L345.753 258.629Z" fill="#ECECEC"/>
<path d="M351.373 456.526C350.576 455.881 349.387 456.447 349.387 457.468V485.48C349.387 489.501 347.481 493.287 344.245 495.676L338.727 498.715C337.095 499.613 336.96 501.861 338.424 503.005C341.564 505.451 347.458 508.193 355.988 504.57C360.312 502.731 363.161 498.525 363.161 493.819V469.391C363.161 466.671 362.701 465.734 361.916 465.095L351.361 456.52L351.373 456.526Z" fill="#ECECEC"/>
<path d="M397.123 243.779C397.123 243.779 444.865 279.228 441.152 334.972C441.152 334.972 443.446 406.104 379.172 434.75L434.669 485.184C436.346 486.709 437.097 489.16 436.161 491.218C434.557 494.757 428.635 498.834 409.063 497.078L410.992 499.181C415.563 504.161 422.051 506.898 428.809 506.747C435.18 506.606 442.935 505.754 448.37 502.888C451.342 501.318 451.723 497.179 449.233 494.919L395.273 445.888C395.273 445.888 463.175 420.293 454.954 329.184C454.954 329.184 449.648 274.943 397.129 243.779H397.123Z" fill="#ECECEC"/>
</g>
<defs>
<clipPath id="clip0_1228_2464">
<rect width="1824.62" height="297.603" fill="white" transform="translate(0 211)"/>
</clipPath>
</defs>
</svg>
