<svg width="1825" height="720" viewBox="0 0 1825 720" fill="none" xmlns="http://www.w3.org/2000/svg">
<path d="M657.171 278.359C657.074 278.359 656.976 278.359 656.885 278.347C654.37 278.188 652.451 276.02 652.61 273.504C652.945 268.107 654.711 263.764 657.841 260.603C687.787 230.421 705.796 204.313 711.368 183.006C715.114 168.685 713.104 157.142 705.4 148.7L705.144 148.401C704.681 147.853 699.742 142.353 687.166 141.445C673.737 140.483 657.001 145.014 637.409 154.931C610.746 168.423 579.509 191.649 544.563 223.958C543.181 225.371 521.975 247.086 516.518 258.989C515.465 261.285 512.754 262.29 510.464 261.236C508.168 260.183 507.164 257.472 508.217 255.182C514.502 241.476 537.176 218.439 538.138 217.464L538.284 217.318C582.505 176.421 644.498 128.483 688.712 132.406C704.291 133.782 711.003 141.122 712.251 142.663C719.042 150.168 725.869 163.629 720.199 185.321C714.212 208.206 695.412 235.696 664.315 267.041C663.743 267.614 662.007 269.368 661.715 274.077C661.562 276.495 659.553 278.359 657.159 278.359H657.171Z" fill="#ECECEC"/>
<path d="M520.806 551.34C518.284 551.34 516.238 549.294 516.238 546.772C516.238 437.579 561.738 279.193 570.861 248.554C572.481 243.121 577.56 239.332 583.23 239.332C585.752 239.332 587.798 241.379 587.798 243.901C587.798 246.422 585.752 248.469 583.23 248.469C581.549 248.469 580.1 249.553 579.619 251.161C570.563 281.587 525.379 438.852 525.379 546.772C525.379 549.294 523.333 551.34 520.812 551.34H520.806Z" fill="#ECECEC"/>
<path d="M480.574 580.231C478.881 580.231 477.261 579.287 476.469 577.667C475.36 575.401 476.298 572.666 478.564 571.557C547.207 537.994 587.469 514.098 587.871 513.86L587.968 513.806C628.815 490.835 669.449 457.851 696.666 425.573C719.894 398.028 745.205 357.174 733.908 318.933C730.857 308.608 723.883 299.538 714.261 293.392C701.368 285.157 686.38 282.178 669.699 284.535C656.038 286.466 641.203 291.936 625.612 300.793C598.754 316.046 578.949 336.153 578.754 336.354C576.988 338.157 574.095 338.188 572.292 336.427C570.489 334.661 570.459 331.767 572.219 329.964C573.059 329.105 593.133 308.73 621.099 292.844C637.701 283.415 653.621 277.573 668.42 275.484C687.318 272.816 704.395 276.245 719.176 285.693C730.65 293.021 738.987 303.906 742.665 316.344C752.519 349.7 739.024 389.507 703.646 431.47C675.771 464.521 634.217 498.267 592.487 521.749C590.782 522.76 550.44 546.589 482.571 579.774C481.926 580.091 481.244 580.237 480.568 580.237L480.574 580.231Z" fill="#ECECEC"/>
<path d="M714.608 458.136C713.073 458.136 711.569 457.363 710.71 455.956C709.395 453.805 710.065 450.991 712.214 449.676C746.435 428.691 774.109 369.654 791.034 328.903C790.279 328.026 789.566 327.088 788.89 326.095C780.12 313.164 778.324 294.5 784.523 280.703C788.062 272.821 793.781 267.984 800.62 267.065C803.488 266.626 809.225 267.126 812.898 271.731C817.849 277.938 817.173 288.579 810.839 304.27C809.95 306.469 808.982 308.894 807.934 311.519C806.15 315.984 804.146 321.003 801.929 326.43C804.457 328.063 807.356 328.977 810.608 329.165C821.272 329.793 832.344 322.861 838.129 316.161C839.987 314.01 842.094 312.384 844.396 311.318C850.633 308.437 853.757 311.367 854.811 312.755C860.018 319.645 850.998 335.616 844.877 342.859L844.689 343.139C827.155 369.307 819.128 392.265 822.672 406.129C824.159 411.946 827.63 416.21 833.288 419.152C840.73 423.026 849.987 422.673 857.46 418.226C864.415 414.09 873.501 405.757 877.302 389.548C877.88 387.094 880.341 385.571 882.789 386.143C885.243 386.722 886.772 389.177 886.193 391.632C881.662 410.965 870.608 421.034 862.131 426.078C851.966 432.127 839.299 432.577 829.073 427.254C821.089 423.099 815.961 416.752 813.823 408.383C808.093 385.955 825.949 354.688 837.1 338.04L837.581 337.322L837.764 337.115C842.606 331.468 845.888 324.39 846.924 320.376C846.278 320.845 845.651 321.429 845.048 322.124C837.6 330.743 823.903 339.082 810.084 338.278C805.815 338.028 801.893 336.907 798.403 334.964C780.961 376.623 752.757 435.519 716.995 457.448C716.252 457.905 715.424 458.124 714.614 458.124L714.608 458.136ZM801.862 276.116C797.002 276.75 794.134 281.611 792.855 284.449C788.908 293.233 788.58 307.511 795.139 318.871C796.692 315.028 798.129 311.421 799.444 308.138C800.498 305.501 801.473 303.058 802.362 300.853C809.201 283.913 806.716 278.681 805.784 277.481C804.56 275.897 802.295 276.074 801.96 276.11L801.85 276.129L801.862 276.116Z" fill="#ECECEC"/>
<path d="M901.961 411.392C892.503 411.392 880.225 406.379 874.744 382.83C871.528 369.015 872.046 354.164 876.236 339.874C886.419 305.123 905.652 288.768 919.988 281.166C935.701 272.84 949.002 272.907 949.556 272.913C952.077 272.943 954.099 275.014 954.063 277.542C954.032 280.058 951.943 282.08 949.452 282.05C949.331 282.037 937.552 282.068 923.843 289.463C905.469 299.373 892.399 317.196 885 342.439C881.254 355.218 880.785 368.467 883.642 380.753C889.324 405.179 901.821 402.663 905.926 401.835C911.151 400.781 916.127 397.894 919.921 393.703C926.096 386.893 934.568 373.705 939.872 349.541C940.414 347.08 942.851 345.515 945.311 346.057C947.771 346.599 949.337 349.035 948.795 351.496C943.058 377.628 933.606 392.211 926.687 399.837C921.59 405.459 914.854 409.351 907.728 410.789C906.011 411.136 904.056 411.38 901.955 411.38L901.961 411.392Z" fill="#ECECEC"/>
<path d="M1006.4 679.999C996.121 679.999 986.261 679.055 976.919 677.173C957.016 673.159 939.44 664.844 924.671 652.473C898.928 630.897 884.281 598.754 884.5 564.283C884.665 537.737 891.522 513.067 904.878 490.95C922.899 461.115 952.43 436.829 992.656 418.768C1010.28 410.862 1029.47 406.774 1048.22 406.969C1051.76 407.006 1055.13 407.182 1058.24 407.499C1081.38 409.838 1099.79 425.298 1106.29 447.842C1112.74 470.246 1105.43 492.984 1087.21 507.183C1069.39 521.065 1046.44 521.869 1018.99 509.583C1016.69 508.554 1015.66 505.849 1016.69 503.547C1017.72 501.244 1020.42 500.215 1022.72 501.244C1046.85 512.044 1066.66 511.618 1081.6 499.977C1096.81 488.123 1102.91 469.113 1097.51 450.376C1092.07 431.493 1076.67 418.549 1057.32 416.593C1054.49 416.307 1051.4 416.143 1048.13 416.112C1030.69 415.942 1012.81 419.737 996.396 427.113C957.893 444.4 929.732 467.468 912.692 495.683C900.201 516.369 893.782 539.473 893.629 564.35C893.428 596.086 906.882 625.659 930.53 645.48C944.081 656.834 960.244 664.479 978.576 668.2C993.381 671.203 1009.64 671.685 1026.9 669.62C1056.55 666.074 1079.12 656.14 1079.34 656.036C1184.59 609.645 1213.68 539.296 1219.55 488.446C1223.8 451.679 1215.28 414.2 1195.57 382.915C1178.38 355.62 1156.15 339.033 1129.5 333.606C1079.12 323.354 1028.19 356.156 1023.13 359.518C1022.96 359.634 1022.8 359.749 1022.63 359.859L1017.5 352.294C1017.57 352.251 1017.77 352.105 1018.12 351.873C1039.84 336.572 1081.34 245.952 1086.66 229.755C1087.75 226.423 1087.26 223.737 1085.34 222.574C1083.24 221.294 1079.19 221.751 1075.25 225.772C1069.78 231.363 1047.97 251.538 1038.86 259.95C1035.36 263.178 1031.32 265.505 1026.99 266.815C1013.19 330.456 996.438 369.867 978.515 380.807C972.528 384.462 964.745 383.932 959.148 379.497C927.278 354.261 953.904 288.134 955.055 285.332C956.011 282.999 958.679 281.878 961.018 282.841C963.35 283.797 964.465 286.465 963.508 288.798C963.253 289.419 938.319 351.35 964.818 372.334C967.473 374.436 970.981 374.704 973.758 373.01C982.638 367.589 999.989 346.714 1017.37 268.033C1010.62 267.759 1004.21 265.109 998.588 260.224C990.202 252.939 984.514 241.213 984.428 231.059C984.392 226.435 986.633 222.105 990.421 219.467C994.227 216.817 999.093 216.226 1003.44 217.877C1012.86 221.465 1019.75 230.59 1023.9 245.002C1025.2 249.521 1026.01 253.834 1026.51 257.263C1028.72 256.307 1030.79 254.949 1032.66 253.225C1039.73 246.695 1063.24 224.967 1068.72 219.37C1075.17 212.767 1083.76 210.915 1090.08 214.752C1095.71 218.17 1097.77 225.168 1095.33 232.588C1093.02 239.623 1081.48 266.571 1066.67 295.249C1057.21 313.565 1048.72 328.197 1041.23 339.07C1044.77 337.413 1048.63 335.732 1052.77 334.099C1072.17 326.448 1101.53 318.597 1131.25 324.627C1160.46 330.554 1184.7 348.523 1203.29 378.029C1224.1 411.069 1233.1 450.65 1228.61 489.482C1222.46 542.701 1192.22 616.248 1083.03 664.375C1082.09 664.795 1059.2 674.901 1028.23 678.647C1020.76 679.548 1013.46 679.999 1006.36 679.999H1006.4ZM998.442 226.082C997.467 226.082 996.505 226.381 995.665 226.965C994.331 227.891 993.576 229.353 993.588 230.98C993.637 237.174 997.102 246.811 1004.6 253.322C1007.47 255.82 1011.89 258.573 1017.57 258.884C1015.99 247.84 1011.27 230.62 1000.21 226.417C999.623 226.198 999.026 226.088 998.436 226.088L998.442 226.082Z" fill="#ECECEC"/>
<path d="M1161.94 206.005C1156.29 206.005 1147.68 203.873 1141.88 198.336C1136.92 193.591 1134.67 187.11 1135.36 179.581C1136.18 170.724 1140.86 162.647 1148.88 156.227C1154.73 151.537 1160.39 149.344 1160.62 149.253C1162.98 148.351 1165.62 149.527 1166.53 151.884C1167.43 154.241 1166.25 156.885 1163.89 157.786C1163.72 157.853 1145.89 164.968 1144.45 180.428C1144.01 185.209 1145.23 188.913 1148.19 191.733C1152.74 196.088 1160.27 197.197 1163.09 196.807C1167.53 196.192 1174.06 190.954 1175.06 185.953C1175.39 184.326 1175.34 181.908 1171.41 179.411C1170.82 179.252 1170.37 179.167 1170.03 179.13C1170.15 180.611 1170.96 183.278 1171.97 185.313C1173.1 187.573 1172.18 190.314 1169.92 191.441C1167.66 192.568 1164.92 191.642 1163.79 189.388C1163.66 189.132 1162.53 186.818 1161.72 183.979C1160.33 179.094 1160.72 175.317 1162.88 172.765C1164.58 170.767 1167.99 168.806 1174.61 170.828L1175.12 170.986L1175.59 171.26C1182.26 175.201 1185.33 181.207 1184.02 187.75C1182.15 197.069 1172.16 204.775 1164.35 205.859C1163.63 205.956 1162.82 206.011 1161.93 206.011L1161.94 206.005Z" fill="#ECECEC"/>
<path d="M1290.52 377.598C1284.62 377.598 1280.71 376.684 1280.42 376.611C1254.97 370.465 1236.11 355.237 1224.35 331.353C1219.41 321.32 1215.76 309.838 1213.44 297.022C1207.87 301.7 1204.14 304.204 1203.2 304.813C1196.25 310.216 1184.38 317.507 1171.05 317.507C1166.25 317.507 1161.27 316.563 1156.25 314.248C1144.09 308.638 1135.84 296.054 1135.24 282.19C1134.19 257.941 1148.14 212.883 1148.73 210.977C1149.48 208.571 1152.04 207.224 1154.45 207.974C1156.85 208.723 1158.2 211.287 1157.45 213.693C1157.31 214.144 1143.38 259.128 1144.36 281.788C1144.82 292.271 1150.98 301.755 1160.07 305.946C1170.95 310.965 1184.33 307.956 1197.74 297.473L1198.1 297.217C1201.15 295.268 1205.97 291.613 1211.83 286.295C1211.03 279.546 1210.55 272.468 1210.41 265.079C1209.92 240.452 1213.35 215.527 1220.6 190.997C1235.8 139.544 1251.73 99.9202 1267.95 73.2281C1283.34 47.8762 1294.37 41.7788 1299.57 40.4022C1304.01 39.2265 1306.5 40.8103 1307.58 41.858C1312.97 47.0417 1312.76 63.7257 1312.42 70.6576V70.7368C1309.8 109.879 1302.46 146.512 1290.6 179.625C1281.09 206.177 1268.68 230.536 1253.69 252.02C1241.94 268.874 1230.53 281.258 1221.51 289.792C1223.59 304.052 1227.28 316.606 1232.55 327.302C1243.05 348.64 1259.88 362.236 1282.56 367.718C1284.29 368.126 1325.42 377.104 1340.01 322.478C1340.66 320.041 1343.17 318.591 1345.6 319.243C1348.04 319.895 1349.49 322.399 1348.84 324.835C1343.99 342.981 1333.04 366.353 1308.42 374.68C1301.7 376.952 1295.42 377.586 1290.52 377.586L1290.52 377.598ZM1301.71 49.3381C1299.18 50.1421 1291.06 54.1502 1278.43 73.7033C1257.65 105.884 1240.28 156.667 1229.36 193.604C1222.38 217.238 1219.08 241.226 1219.54 264.915C1219.63 269.496 1219.85 273.942 1220.2 278.255C1228.3 270.007 1237.5 259.348 1246.51 246.373C1260.96 225.559 1272.95 201.949 1282.13 176.201C1293.62 143.991 1300.74 108.326 1303.29 70.1825C1303.7 61.7034 1302.96 52.5665 1301.7 49.3381H1301.71Z" fill="#ECECEC"/>
</svg>
