<svg width="1825" height="720" viewBox="0 0 1825 720" fill="none" xmlns="http://www.w3.org/2000/svg">
<path d="M11.0938 418.13C7.29024 418.288 6.65631 418.13 0.950901 414.009C0.633934 413.851 0.316967 412.741 0.316967 412.424C0.316967 411.791 0 410.047 0 409.572C0 406.085 0.316967 405.927 4.27905 402.282C5.22995 401.489 14.5805 397.844 15.6899 397.844H21.5538C21.5538 397.844 23.4556 397.369 24.248 397.052C24.8819 396.576 25.3574 395.467 25.5158 394.674C26.1498 391.188 26.3083 383.264 26.3083 380.252V365.83C26.3083 365.83 26.7837 364.879 26.7837 364.246C26.7837 362.819 27.1007 360.759 27.1007 359.333C27.1007 358.699 27.7346 356.797 27.8931 355.846C27.8931 354.578 27.4176 352.835 27.5761 351.567C27.8931 349.665 29.0025 346.812 29.0025 346.337C29.0025 341.899 27.1007 340.315 27.1007 337.937C27.1007 337.462 28.527 332.232 28.527 331.915C28.527 331.439 27.2592 328.587 27.2592 327.794C27.2592 327.319 28.2101 321.93 28.2101 321.138C28.2101 320.663 28.2101 317.176 27.4176 315.75C26.9422 314.165 24.248 314.006 22.9801 313.689C21.0783 313.372 17.9086 312.897 17.4332 312.897C16.3238 312.897 11.2523 314.006 11.2523 314.006C9.66749 314.006 5.38844 311.471 4.43754 310.678C3.96209 310.203 3.8036 308.618 3.8036 308.142C3.8036 307.825 3.8036 304.339 4.59602 303.388C4.59602 303.071 5.7054 302.595 6.18085 301.962C9.82597 299.426 13.7881 298.316 17.4332 298.316C17.9086 298.316 19.8104 299.743 20.7613 300.06C21.7122 300.377 23.4556 300.535 24.0895 300.535C24.4065 300.535 26.6252 300.06 27.1007 300.06C27.7346 300.06 30.1119 301.486 30.7458 301.486C31.2212 301.486 32.8061 301.328 33.2815 301.328C33.757 301.328 40.5718 301.962 44.0584 302.278C44.8508 302.278 46.5941 303.071 47.2281 303.071C47.7035 303.071 53.092 302.12 53.5674 302.12C54.0429 302.12 56.5786 303.071 56.8956 303.071C57.2125 303.071 59.1143 302.754 59.5898 302.754C63.8688 302.754 68.6233 304.18 72.4269 305.131C74.1703 305.607 77.1814 306.241 80.1926 308.459C80.985 309.093 83.0453 311.629 84.6302 313.689C85.1056 314.482 86.3735 316.225 87.0074 317.651C87.4829 319.078 88.1168 320.98 88.4338 322.564C88.7507 324.625 88.4338 326.685 88.7507 328.587C88.7507 329.062 89.2262 329.379 89.3847 330.013C89.8601 330.964 90.0186 333.183 90.0186 333.975C90.0186 334.451 89.7016 336.194 89.2262 337.145C87.0074 341.265 88.5923 344.277 86.532 346.971C86.0565 347.446 84.9471 347.446 84.1547 348.08C83.6793 348.556 83.0453 349.824 83.0453 350.299C83.0453 351.725 86.0565 354.737 86.532 355.687C87.0074 356.321 87.4829 358.223 88.1168 358.54C92.3959 362.185 92.8713 364.404 95.407 367.574C95.724 367.891 96.3579 368.683 96.3579 369.475C96.6749 371.219 96.3579 373.438 96.3579 375.339C96.3579 375.973 96.8334 377.241 96.9919 378.351C97.4673 381.52 97.6258 387.701 97.6258 388.177C97.6258 392.614 97.6258 392.456 96.3579 398.002C96.3579 398.319 95.5655 398.953 95.0901 399.587C94.1392 400.855 92.8713 401.806 92.0789 402.599C91.2865 403.232 90.6525 404.659 89.8601 405.61C88.7507 406.719 87.6413 408.462 86.215 409.255C80.985 411.949 75.4381 414.485 70.3667 416.07C69.5742 416.228 67.8309 416.387 66.7215 416.387C65.6122 416.545 64.1858 417.179 63.7104 417.179C63.2349 417.179 62.9179 416.862 62.4425 416.862C61.1746 416.545 59.1143 416.387 58.6389 416.387C58.3219 416.387 55.9447 416.704 54.8353 416.704H32.6476L11.5693 418.13H11.0938ZM81.1435 330.647C81.1435 326.209 81.1435 327.794 78.1323 320.98C77.8154 320.504 77.3399 319.87 77.023 319.395C75.1212 316.7 72.2685 315.433 69.8912 314.323C68.6233 313.689 66.88 312.104 66.4046 312.104C65.9291 312.104 62.1255 312.738 61.6501 312.738C61.1746 312.738 58.7974 312.421 57.8465 312.104C57.371 311.946 57.2125 311.629 56.7371 311.629C56.2616 311.629 53.8844 312.263 53.4089 312.263C52.9335 312.263 49.1299 311.629 48.4959 311.629C44.6923 311.629 46.9111 311.629 43.266 313.055C41.9981 313.531 39.6209 313.848 38.67 315.908C37.5606 318.127 37.8775 321.93 37.8775 324.942C37.8775 327.319 37.4021 331.598 37.4021 332.073C37.4021 332.549 38.036 336.035 38.353 337.462C38.67 339.839 38.353 342.692 38.67 345.069C38.67 345.703 39.3039 346.812 39.9378 347.129C41.0472 347.763 42.4736 347.605 43.4245 347.763C44.5339 347.922 46.7526 349.19 47.0696 349.19C47.3866 349.19 51.0317 348.556 51.5071 348.556C52.1411 348.556 53.4089 348.873 53.8844 348.873C54.3598 348.873 55.9447 348.714 56.8956 348.556C57.8465 348.397 58.9558 347.763 59.5898 347.605C62.7594 347.288 65.6122 347.922 69.2573 345.544C71.476 344.118 75.1212 343.167 77.1814 339.205C80.5096 332.707 81.1435 335.243 81.1435 330.806V330.647ZM41.9981 384.69C41.9981 385.641 42.4736 386.592 42.4736 387.543C42.4736 389.127 42.4736 390.712 42.4736 392.139C43.1075 394.199 44.2169 396.735 44.8508 398.161C45.1678 399.112 46.7526 400.697 47.2281 400.697C47.7035 400.697 53.092 399.904 53.5674 399.904C54.0429 399.904 56.4201 400.538 56.8956 400.538C57.371 400.538 59.4313 399.904 59.9067 399.904C62.601 399.746 64.1858 400.063 68.1479 398.161C69.7327 397.369 72.5854 397.052 73.3778 396.576C74.3287 396.101 75.1212 394.833 75.4381 394.357C75.9136 393.723 76.0721 392.456 76.389 391.98C76.706 391.663 77.3399 391.505 77.6569 391.346C78.6078 390.871 79.8757 390.712 80.6681 389.444C81.619 387.701 82.5699 385.958 83.0453 384.373C83.5208 383.105 83.8377 381.045 83.8377 380.411C83.8377 379.46 81.936 371.853 81.302 370.902C78.9248 368.366 75.7551 365.355 73.5363 364.087C72.4269 363.453 70.6836 363.929 70.2082 363.77C68.9403 363.136 67.9894 361.71 67.197 361.393C66.2461 361.076 64.6613 361.076 64.1858 361.076C63.7104 361.076 61.1746 361.71 60.5407 361.71C60.0652 361.71 58.6389 360.759 57.688 360.125C56.8956 359.966 55.3107 360.125 54.8353 360.125C54.3598 360.125 49.7638 360.125 47.2281 360.442C45.8017 360.6 44.0584 361.076 43.266 362.185C42.632 362.819 41.6812 365.513 41.6812 368.525C41.6812 369.317 41.6812 371.06 41.9981 372.17L42.3151 384.373L41.9981 384.69Z" fill="#ECECEC"/>
<path d="M170.211 394.042C170.211 396.419 170.845 398.479 171.479 399.589C174.49 399.747 177.977 400.381 180.83 402.758C181.78 403.234 183.365 403.551 184.158 404.185C184.792 404.66 187.01 408.939 187.01 409.732C187.01 411.633 184.158 413.218 183.682 413.852C182.097 414.962 180.513 416.071 178.769 416.388C177.818 416.546 176.075 416.546 174.807 416.546C173.856 416.705 172.113 417.18 171.637 417.18C171.162 417.18 168.943 416.546 168.468 416.546C167.834 416.546 162.445 417.497 161.812 417.497C161.495 417.497 159.276 417.18 158.8 417.18C158.325 417.18 155.631 417.973 155.155 417.973C154.68 417.973 149.133 417.18 148.657 417.18C148.182 417.18 145.805 417.814 145.488 417.814C145.012 417.814 143.11 417.814 142.16 417.497C141.209 417.18 139.941 416.071 138.831 414.803C136.93 412.426 136.137 411.158 136.137 409.098C136.137 406.245 139.465 403.392 142.16 401.807C144.854 400.381 149.767 401.649 152.619 396.578C153.412 395.151 154.204 393.408 154.363 391.665C154.363 389.604 153.887 387.069 154.046 384.533C154.046 381.046 154.997 377.401 155.155 373.756C155.155 373.122 154.68 371.854 154.68 370.903C154.363 369.16 154.68 366.307 154.68 364.405C154.68 363.296 155.314 361.077 155.314 359.175C155.314 354.262 155.631 344.595 155.631 343.961C155.631 343.486 155.314 340.791 155.155 339.365C155.155 335.403 155.155 330.49 155.155 326.369C155.155 325.577 155.155 324.468 154.68 323.675C152.144 319.713 148.023 318.921 143.744 316.702C143.427 316.543 142.635 315.751 142.318 315.276C142.318 314.959 141.684 314.325 141.05 313.532C140.575 313.215 139.465 312.74 138.99 311.947C138.197 310.521 137.722 307.668 137.722 307.193C137.722 306.717 137.722 304.657 138.356 303.865C138.673 303.389 140.416 302.438 141.05 301.963C141.526 301.646 141.843 301.012 142.318 300.854C143.586 300.22 145.329 299.744 145.963 299.744C146.439 299.744 146.597 299.744 152.778 299.903C153.412 299.903 154.68 300.061 155.472 300.22C156.423 300.378 158.325 301.17 158.642 301.17C159.276 301.17 161.653 300.537 161.97 300.537C162.604 300.537 167.041 301.012 167.517 301.012C167.992 301.012 171.162 300.537 171.637 300.537C172.113 300.537 174.015 301.646 175.441 301.646H182.414C182.414 301.646 184.158 301.646 184.95 301.487C186.059 301.487 187.644 300.695 187.961 300.695C188.278 300.695 189.863 301.487 190.972 301.487C193.033 301.804 195.885 301.646 198.104 301.963C199.689 302.121 201.432 302.438 204.285 303.231C206.662 303.865 209.04 305.133 211.417 306.242C212.685 306.717 214.587 309.095 215.696 310.204C218.073 312.264 220.292 314.008 222.194 316.543C223.462 318.445 224.571 320.822 225.522 322.566C226.314 324.151 228.216 325.735 228.375 327.32C228.85 328.905 228.692 331.282 228.692 333.184C228.692 335.403 229.801 339.207 229.801 339.84C229.801 340.474 229.325 341.584 229.008 342.218C226.79 346.18 224.729 350.459 222.352 353.945C220.292 356.957 219.658 356.957 218.866 358.225C217.915 359.175 213.16 362.187 213.16 364.881C213.16 365.356 215.854 369.635 216.488 372.171C217.439 375.182 218.866 379.778 219.5 383.582C219.816 385.008 219.499 387.069 219.816 388.495C219.816 389.604 220.926 391.031 221.401 391.982C222.035 393.566 222.352 396.894 224.096 398.321C224.571 398.796 225.997 398.638 226.79 399.113C228.058 399.589 229.325 401.174 230.435 401.807C231.227 402.283 232.654 402.441 233.446 403.234C234.397 403.709 236.14 404.819 236.774 406.245C237.725 408.305 238.518 412.901 238.518 413.377C238.518 414.011 237.567 416.705 236.616 417.339C235.665 417.814 229.009 420.826 227.107 420.826C226.631 420.826 225.205 420.192 224.254 420.033C221.877 419.716 219.499 419.716 217.281 419.241C216.33 419.082 212.843 417.022 210.624 416.071C209.674 415.754 208.089 414.486 207.296 413.694C206.821 413.218 206.345 411.475 206.028 410.841C205.394 408.464 204.602 406.245 204.285 404.026C204.285 402.124 204.285 400.064 204.285 398.162C204.285 395.627 204.285 392.932 203.651 390.555C203.334 388.812 203.651 386.118 203.651 383.74C203.651 382.948 203.017 381.046 202.859 379.461C202.542 376.45 201.908 372.647 197.629 369.952C196.836 369.477 195.727 367.734 194.776 366.941C193.667 366.149 191.448 365.356 190.497 365.356C190.022 365.356 185.584 365.832 185.109 365.832C184.633 365.832 181.939 365.356 181.463 365.356C178.611 365.356 175.441 366.466 174.173 367.892C172.271 369.952 170.211 374.865 170.211 375.341V394.359V394.042ZM212.843 336.037C212.843 336.037 212.368 333.343 212.526 332.392C212.526 331.282 212.843 329.698 212.526 328.747C211.892 326.369 209.99 321.932 207.93 320.347C206.821 319.555 205.236 319.555 204.127 318.921C202.859 318.445 201.432 317.336 200.64 317.019C199.055 316.385 196.519 316.068 196.044 316.068C195.41 316.068 194.618 316.068 194.301 316.226C192.399 316.86 188.437 318.445 187.961 318.445C187.486 318.445 181.78 317.494 181.147 317.494C178.769 317.494 174.332 319.079 172.588 321.932C170.845 324.468 172.271 327.637 172.113 329.856C172.113 332.392 170.37 338.256 170.37 338.731C170.37 341.425 171.004 346.972 171.637 349.191C171.637 349.666 172.747 350.617 173.064 350.776C174.649 351.41 178.135 352.678 178.611 352.678C179.086 352.678 183.682 352.202 184.158 352.202C184.792 352.202 187.486 352.836 187.961 352.836C188.437 352.836 192.24 352.519 194.459 352.202C195.727 352.044 197.153 350.934 197.787 350.934C200.006 350.617 201.908 349.191 204.444 347.606C205.394 346.972 206.979 346.021 207.613 345.387C208.723 344.436 209.198 342.852 209.832 342.376C211.575 340.157 212.685 338.097 212.685 336.512L212.843 336.037Z" fill="#ECECEC"/>
<path d="M345.652 345.546C345.652 345.546 345.019 340.791 345.019 340.316C345.019 339.682 345.019 335.244 346.603 335.244C346.92 335.244 348.505 335.403 349.298 335.72C351.199 336.354 351.199 339.365 351.516 340.474C351.833 341.108 352.784 342.376 353.26 343.486C353.735 345.07 353.26 347.448 353.894 349.032C354.211 351.093 354.211 353.945 354.211 356.323C354.211 357.274 354.528 359.651 354.528 360.285C354.528 360.919 354.211 365.198 353.894 367.417C353.894 367.733 353.101 368.367 353.101 369.16C353.101 369.635 353.577 374.39 353.894 376.609C353.894 377.242 354.528 379.778 354.528 380.571C354.528 381.839 354.052 384.057 352.943 385.008C352.467 385.325 351.358 385.642 351.041 386.435C350.407 387.861 350.565 389.446 349.931 391.031C349.931 391.348 348.822 391.981 348.505 392.615C348.03 394.042 347.713 395.468 347.554 396.894C347.554 397.845 347.554 399.747 347.237 400.857C347.237 401.173 346.128 401.332 345.494 401.807C344.068 402.917 342.166 404.343 340.739 405.928C340.264 406.403 340.423 407.83 339.947 408.622C339.313 410.366 338.045 412.267 336.619 413.694C335.985 414.169 334.242 414.011 333.291 414.486C332.34 415.12 331.389 417.18 330.438 417.656C329.329 418.29 327.268 417.973 326 418.29C324.099 418.765 320.929 421.301 320.295 421.301C319.82 421.301 317.601 419.241 317.125 419.241C316.65 419.241 311.42 420.667 310.945 420.667C310.469 420.667 308.726 420.191 308.092 420.033C307.458 420.033 305.398 420.35 304.13 420.033C303.654 419.875 303.179 419.082 302.703 418.607C301.753 417.814 300.485 416.863 299.375 416.388C297.79 415.754 295.889 415.754 294.145 414.645C294.145 414.486 293.511 413.535 293.036 412.901C291.927 411.316 290.342 409.89 289.549 408.305C289.232 407.83 287.964 407.354 287.331 406.562C286.538 405.453 286.538 402.917 285.429 401.49C284.002 399.906 282.418 398.321 280.991 396.26C280.516 395.627 280.199 393.566 279.882 392.14C279.406 390.555 278.455 389.763 277.663 388.178C277.188 387.385 277.663 385.959 277.663 384.85C277.346 380.729 277.029 376.609 276.237 372.329C275.92 370.745 274.652 367.575 274.652 366.941C274.652 366.466 275.92 363.613 276.237 362.028C276.237 360.443 276.554 358.541 276.871 356.64C276.871 355.689 276.554 354.104 276.871 352.995C277.188 351.093 277.822 349.349 278.455 347.606C278.772 346.655 279.565 345.546 279.723 344.753C279.723 343.327 279.723 341.901 279.723 340.316C279.723 339.365 280.357 337.622 281.15 336.671C281.625 336.037 283.368 335.244 283.844 334.61C284.319 333.66 285.429 332.075 286.063 330.648C286.855 329.064 287.014 327.162 287.964 325.577C288.44 324.626 290.659 323.517 291.451 322.566C292.719 321.456 293.194 319.396 294.304 317.97C295.255 317.019 295.73 315.751 296.047 315.117C296.523 314.166 296.523 312.74 297.79 311.63C298.424 311.155 300.168 311.155 301.119 310.838C301.753 310.521 302.703 309.887 303.813 309.729C307.141 308.936 313.163 307.51 313.639 307.51C314.114 307.51 316.016 308.936 316.967 309.253C317.918 309.729 319.344 309.57 319.978 310.046C322.831 312.106 323.465 311.789 325.525 311.789C326.001 311.789 326.951 311.947 327.585 311.789C328.378 311.63 329.646 310.996 330.121 310.996C330.597 310.996 333.132 312.581 334.242 313.532C335.193 314.483 336.936 316.86 338.045 317.97C338.521 318.287 339.63 318.287 340.106 318.762C340.581 319.079 341.215 320.188 341.373 320.981C341.849 322.566 340.898 324.467 341.69 326.052C342.007 326.686 344.068 328.588 345.177 330.014C345.177 330.331 345.494 331.124 345.969 331.916C345.494 332.392 343.751 333.501 343.434 333.501C342.641 333.501 341.849 331.916 339.947 331.916C339.947 331.282 339.313 330.173 339.155 329.38C339.155 328.588 339.155 327.32 339.155 326.528C339.155 324.943 337.253 324.784 336.46 324.309C334.717 323.2 331.864 321.456 330.121 320.03C329.804 319.713 329.329 318.128 328.695 317.811C322.989 314.483 323.623 313.215 318.869 313.215C316.333 313.215 317.125 313.374 313.956 315.592C313.163 316.068 311.579 316.226 310.469 316.702C308.409 317.494 306.19 318.445 303.971 319.713C303.337 320.03 301.753 321.932 300.643 323.041C299.217 324.467 297.315 325.101 296.206 326.528C295.73 326.845 295.255 329.222 294.621 330.014C293.194 332.075 292.085 334.135 290.976 335.878C290.976 336.195 290.025 336.671 289.708 337.146C289.232 337.939 289.074 339.365 289.232 340.157C289.232 341.742 287.489 344.119 287.172 346.021C287.172 346.814 287.172 348.398 286.855 349.191C286.38 350.776 285.746 352.519 285.429 354.262C285.429 355.689 284.795 357.749 284.636 359.175C284.636 360.126 284.636 361.711 284.636 363.137C284.636 364.088 284.161 366.149 284.161 366.624C284.161 367.1 285.746 373.439 286.697 376.133C287.014 376.609 287.648 377.242 287.964 378.035C288.757 380.888 289.074 384.374 290.183 387.068C290.183 387.702 292.085 389.287 292.244 390.238C292.56 391.348 292.877 393.725 293.353 395.785C293.67 398.321 296.206 398.162 297.157 399.113C298.107 399.906 298.583 401.173 299.851 402.283C300.96 403.075 302.703 403.234 303.813 404.502C305.239 405.611 305.556 407.988 307.141 408.781C310.152 410.366 316.491 411.475 316.967 411.475C317.442 411.475 317.759 411.316 323.306 411.316C324.416 411.158 325.525 408.781 326.793 408.147C327.744 407.671 329.487 407.671 330.755 406.562C332.34 405.453 332.498 404.185 333.132 402.917C333.925 401.49 333.925 400.064 336.46 397.37C336.936 396.894 337.887 396.894 338.362 396.26C339.789 394.359 342.8 388.812 343.117 385.008C345.177 384.374 345.969 381.363 345.652 379.461C345.019 376.292 345.652 374.707 346.445 372.329C346.445 372.013 346.92 371.696 347.079 371.22C347.713 370.269 348.188 368.05 348.188 367.575C348.188 367.1 347.237 364.405 347.237 363.613C347.237 363.137 348.822 358.858 348.822 358.224C348.822 357.907 348.822 357.274 348.347 356.481C347.554 355.372 345.811 354.262 345.811 352.519V345.546H345.652Z" fill="#ECECEC"/>
<path d="M476.084 418.13C476.084 418.13 467.368 417.021 466.892 417.021C466.417 417.021 463.723 417.338 463.247 417.338C461.028 417.338 456.274 416.862 453.104 414.96C452.47 414.644 450.569 410.364 450.569 409.731C450.569 409.414 450.886 408.304 451.202 407.987C451.836 407.353 452.946 407.036 453.738 406.402C454.689 405.61 455.798 403.708 456.432 402.916C457.383 402.123 458.968 401.489 459.761 400.38C459.761 400.222 459.761 399.746 459.761 399.271C459.761 397.369 458.81 395.942 457.7 393.724C457.7 393.565 456.591 392.931 456.115 392.139C455.323 390.713 455.165 388.811 454.531 387.384C454.055 386.433 452.787 384.532 452.153 382.947C451.836 381.996 451.836 380.253 451.361 379.143C450.569 377.717 448.35 375.657 446.765 373.279C445.814 371.695 445.18 369.317 444.071 367.732C442.961 365.672 441.693 364.563 440.109 362.502C439.316 363.295 437.414 364.087 436.78 365.038C435.988 365.989 435.196 369.476 433.928 372.011C433.611 372.328 432.343 372.962 431.868 373.596C430.917 374.706 429.966 376.132 429.332 377.717C429.332 378.192 429.332 379.143 429.332 379.619C429.332 380.094 429.807 385.641 430.441 388.969C430.441 389.603 430.917 390.713 431.075 391.505C431.551 394.199 432.026 398.161 432.66 401.172C432.66 401.648 433.135 402.599 433.928 402.916C435.196 403.55 437.89 403.867 439.95 404.501C441.852 404.976 444.071 405.451 445.656 406.561C447.082 407.353 448.35 409.731 448.35 410.206C448.35 411.949 447.874 412.266 446.131 413.693C445.497 414.168 444.229 414.327 443.278 414.802C440.743 416.387 440.109 416.545 438.207 416.545C437.731 416.545 435.354 416.387 435.037 416.387C434.72 416.387 424.894 418.447 424.26 418.447C423.785 418.447 421.091 417.813 420.774 417.813C416.97 417.813 413.483 419.557 406.669 419.557C403.182 419.557 398.903 418.13 394.782 414.01C394.782 413.376 394.465 412.583 394.465 411.949C394.465 408.621 397.16 405.927 401.28 402.916C402.707 401.965 405.718 401.172 408.095 400.538C409.046 400.222 410.789 398.954 411.265 397.527C412.057 395.784 412.533 392.773 412.533 392.139C412.533 391.663 411.423 387.384 411.423 386.75C411.423 386.275 412.374 382.788 412.533 381.204C413.166 376.766 413.325 368.366 413.325 367.732C413.325 363.612 413.325 365.038 412.533 360.759C412.533 359.333 412.533 357.273 413.008 355.371C413.008 354.737 413.008 353.627 413.008 352.835C412.691 351.25 412.216 348.556 412.216 348.08C412.216 347.447 413.166 335.877 413.166 335.402V328.429C413.166 328.429 413.166 328.587 413.166 328.112C413.166 326.368 411.265 323.991 410.948 322.882C410.631 322.248 410.631 320.821 410.155 320.029C408.57 317.493 405.718 316.225 403.182 316.225C402.707 316.225 401.756 316.384 401.28 316.384C399.378 316.384 395.099 313.848 394.465 313.214C393.514 312.263 393.673 310.361 393.673 309.727C393.673 308.777 393.673 306.875 394.465 305.765C396.367 303.705 398.269 302.437 400.805 301.486C403.182 300.694 407.62 300.377 408.095 300.377C411.74 300.377 413.959 302.12 417.762 302.12C418.238 302.12 422.834 301.962 423.309 301.962C423.785 301.962 426.321 301.645 427.588 301.962C431.075 303.071 428.698 303.388 432.66 303.388C433.135 303.388 435.671 303.23 436.147 303.23C436.464 303.23 441.693 304.022 444.229 304.814C446.29 305.448 449.459 306.875 449.935 306.875C450.41 306.875 454.372 304.973 456.432 304.498C459.761 303.705 463.247 303.705 466.734 302.913H475.292C475.292 302.913 480.205 303.547 480.839 303.547C481.314 303.547 483.375 303.23 484.484 303.071C487.812 302.596 494.151 302.754 494.785 302.754C495.736 302.754 496.212 303.705 498.748 305.607C499.698 306.082 500.966 306.399 501.759 307.192C503.185 307.984 503.502 309.886 503.502 310.361C503.502 311.788 503.027 313.373 501.917 313.848C498.748 315.274 493.042 316.701 488.922 317.335C487.971 317.493 484.484 316.859 482.265 317.652C481.631 317.969 479.096 320.504 477.669 322.089C477.194 322.565 476.401 323.833 475.926 324.308C474.817 325.734 472.915 326.685 471.488 327.795C470.537 328.429 469.904 330.172 468.953 331.281C468.16 332.232 466.892 333.817 465.624 334.609C465.149 334.926 462.138 335.56 461.504 336.828C461.504 337.304 461.187 338.413 460.87 338.73C460.395 339.681 459.919 340.949 459.285 341.583C458.651 342.217 457.542 342.851 456.908 343.96C456.432 344.435 456.274 345.545 455.799 345.862C453.263 348.239 453.421 348.397 453.421 350.141C453.421 351.726 454.214 351.884 455.957 352.993C456.749 353.469 456.908 355.371 457.542 356.322C457.859 356.956 458.81 357.273 459.285 357.906C460.236 359.174 459.919 362.185 460.236 363.612C460.712 365.831 461.345 368.366 462.138 370.744C462.138 371.378 463.723 372.645 464.515 373.755C465.466 375.34 466.734 379.777 469.27 381.996C470.062 382.471 471.33 382.788 472.439 383.105C472.439 383.581 472.439 384.532 472.915 385.166C473.549 386.275 475.133 387.86 475.926 389.445C477.828 392.773 481.631 400.855 486.544 401.965C487.178 402.123 488.129 402.599 488.922 402.916C489.872 403.391 491.14 404.659 492.091 404.501C495.895 404.501 498.906 404.976 501.759 408.146C502.234 408.621 502.234 409.731 502.234 410.206C502.234 412.266 500.649 415.594 498.431 416.704C497.48 417.021 496.212 417.021 494.944 417.496C493.359 417.972 490.665 418.447 490.031 418.447C489.555 418.447 484.009 417.655 483.533 417.655L475.926 418.447L476.084 418.13ZM450.093 312.739C450.093 312.739 448.508 312.58 448.191 312.58C447.557 312.58 440.267 313.69 436.622 314.799C435.988 314.957 435.196 315.433 434.562 316.225C434.086 316.542 433.769 317.335 433.452 317.652C433.135 318.127 432.501 318.444 432.501 318.603C431.234 321.931 430.758 325.417 429.807 328.745C429.332 329.538 427.905 330.964 427.905 331.44C427.905 332.866 428.539 335.085 430.283 336.511C428.856 338.096 427.747 341.583 427.747 343.167C427.747 344.277 427.747 346.496 430.283 346.496C430.917 346.496 433.135 346.337 433.769 345.545C435.513 343.801 435.037 342.692 437.414 340.156C438.207 339.364 439.95 339.047 440.426 338.096C443.12 334.451 448.667 329.855 450.569 327.161C451.678 325.576 454.214 321.614 454.214 319.712V318.761C452.153 316.384 451.361 314.323 449.776 313.056L450.093 312.739Z" fill="#ECECEC"/>
<path d="M618.719 371.537C618.719 371.537 619.353 373.756 619.512 374.707C619.987 377.084 620.146 381.68 620.146 382.156C620.146 382.631 619.195 384.85 619.036 386.118C619.036 387.544 619.036 388.812 618.719 390.238C617.769 390.714 616.184 391.348 615.867 391.348C615.55 391.348 614.599 390.555 613.965 390.397C606.992 388.336 607.784 381.205 605.09 375.658C604.773 375.182 605.09 372.33 604.614 370.745C604.614 369.794 603.822 368.367 603.03 367.417C602.554 366.624 599.701 364.088 598.751 364.088C598.434 364.088 591.777 365.832 589.083 366.941C588.449 367.258 587.657 369.318 587.181 370.269C586.864 370.745 586.864 371.379 586.706 372.171V385.642C586.706 385.642 587.657 391.348 587.657 393.883C587.657 397.053 587.974 398.321 589.717 400.381C590.826 400.381 592.253 400.223 593.204 400.857C596.215 402.6 597.007 401.966 598.751 401.966C599.226 401.966 600.811 401.808 601.762 401.808C603.664 401.649 606.675 401.966 607.309 401.966C611.112 401.966 610.637 400.54 612.539 400.54C613.014 400.54 615.391 400.857 615.867 400.857C616.342 400.857 619.036 400.857 622.048 400.223C623.157 400.064 623.474 397.37 624.108 396.895C624.108 396.578 625.217 396.419 625.376 396.102C626.168 395.468 627.436 392.615 627.753 391.031C627.753 390.238 629.021 388.495 629.179 387.544C629.496 384.533 630.447 380.254 629.972 375.182C629.972 374.707 630.289 373.914 630.606 373.439C631.874 372.33 633.458 371.22 635.043 370.586C635.519 370.269 636.311 370.428 636.787 370.428C637.262 370.428 640.115 370.586 641.541 371.062C644.235 371.854 643.601 375.182 644.394 376.292C644.711 376.926 645.186 377.718 645.345 378.352C645.662 381.522 645.345 385.484 645.345 389.287C645.345 390.08 646.454 396.102 646.454 396.578C646.454 397.053 646.137 398.004 646.454 402.917C646.454 405.294 646.454 408.147 645.979 411C645.503 412.901 642.334 415.12 641.224 415.913C638.054 418.131 637.579 418.29 634.568 418.448C634.092 418.448 628.228 418.29 626.01 418.131C624.425 417.814 620.938 417.339 620.463 417.339C619.987 417.339 617.293 418.448 616.818 418.448C616.342 418.448 614.599 417.339 613.49 417.18C612.539 416.863 611.429 417.339 610.478 417.339C606.358 417.497 597.958 416.546 597.483 416.546C597.007 416.546 594.155 417.022 593.679 417.022C593.204 417.022 591.777 416.863 591.302 416.863C590.826 416.863 587.974 417.497 587.498 417.497C586.389 417.656 581 416.705 580.842 416.705C580.367 416.705 578.148 417.339 577.831 417.339C577.514 417.339 574.978 416.388 574.503 416.388C573.869 416.388 568.163 418.131 567.688 418.131C567.212 418.131 565.628 417.656 564.835 417.656C563.567 417.497 561.982 417.656 560.556 417.497C559.13 417.339 557.069 416.863 555.326 416.546C554.058 416.229 552.632 416.705 551.364 416.388C550.889 416.388 550.413 415.437 549.621 414.803C549.145 414.328 548.036 414.011 547.402 413.06C546.293 411.633 544.866 408.622 544.866 407.513C544.866 406.562 545.976 400.381 548.194 400.381C548.67 400.381 550.73 400.698 551.206 400.698C551.681 400.698 557.862 399.906 560.873 399.272L567.371 400.223C567.371 400.223 569.907 399.272 570.382 398.162C572.442 394.834 571.65 393.725 572.442 392.14C573.71 389.763 574.82 389.604 574.82 386.118C574.82 382.156 573.869 382.789 573.869 381.68C573.869 380.095 574.978 377.876 574.82 375.182C574.82 373.597 575.137 373.597 574.027 370.903C574.027 370.269 572.918 369.477 572.918 369.001C572.918 368.526 575.137 363.454 575.137 362.979L574.82 345.546C574.82 345.546 573.869 342.693 573.71 341.267C573.71 339.523 573.71 337.305 573.71 335.403C573.71 334.769 573.076 334.294 572.918 333.501C572.601 330.49 572.442 326.528 571.808 322.724C571.808 322.09 570.382 320.189 569.431 319.238C569.114 318.921 568.639 318.445 568.322 318.128C567.688 317.811 566.578 317.336 565.944 317.336L557.228 318.762C555.485 318.762 555.643 318.604 553.266 317.336C552.315 317.019 550.73 317.019 549.779 316.226C549.462 316.068 548.67 314.642 548.353 313.849C548.036 312.74 547.56 311.313 547.085 310.204C545.976 307.827 545.183 305.45 545.025 303.865C545.025 301.487 546.768 301.012 548.67 300.22C551.206 299.11 554.058 299.427 556.752 299.11C557.545 298.952 558.813 298.635 559.288 298.635C559.764 298.635 561.348 299.744 562.458 299.744C563.409 299.903 565.469 299.744 567.212 299.903C569.114 300.061 572.125 301.329 572.601 301.329C573.076 301.329 574.978 300.854 575.929 300.537L581.951 301.329H586.706C586.706 301.329 592.253 301.487 595.581 301.963C596.373 302.121 598.117 302.755 598.434 302.755C599.068 302.755 601.286 301.804 601.762 301.804H608.735C608.735 301.804 611.112 301.171 611.588 301.171C612.063 301.171 614.282 301.646 614.916 301.646C615.391 301.646 617.61 300.854 618.086 300.854C618.561 300.854 620.146 301.487 621.255 301.646C622.206 301.804 623.949 301.804 624.425 301.804C624.9 301.804 627.753 301.012 628.228 300.854C631.715 300.854 643.918 304.023 644.552 309.253C644.552 309.887 645.82 311.789 645.82 312.264L646.296 334.294C646.296 334.294 643.918 339.207 644.077 339.682C644.077 340.157 644.869 341.108 644.869 342.693C644.869 344.595 643.918 344.278 642.333 346.655C641.858 347.131 641.858 348.399 641.541 349.033C640.59 348.874 639.005 349.191 638.213 348.874C636.945 348.24 635.677 346.814 635.043 345.704C634.409 344.912 634.251 343.01 633.775 341.742C633.142 339.999 631.874 338.414 631.557 336.512C631.557 336.037 631.874 335.086 631.557 334.611C631.557 333.66 631.24 332.233 631.081 331.282C630.447 328.588 631.398 323.358 627.753 320.347C626.327 319.238 621.097 317.336 618.244 317.336C617.769 317.336 613.014 317.811 612.539 317.811C612.063 317.811 607.626 317.811 604.931 317.653C604.456 317.653 603.981 317.336 603.505 317.177C601.92 316.702 599.384 316.543 598.751 316.543C595.739 316.702 588.449 319.555 588.132 321.298C588.132 322.724 588.925 326.211 588.608 328.588C588.608 329.539 587.498 331.441 587.498 333.184C587.181 340.316 587.498 344.436 587.498 345.07C587.498 345.546 587.498 346.814 587.498 347.289C587.815 348.716 588.766 350.142 588.925 351.727C590.192 351.727 592.094 352.044 592.411 352.044C592.728 352.044 594.789 351.41 595.264 351.41C595.898 351.41 598.434 353.153 599.068 353.153C599.384 353.153 601.445 352.202 602.396 351.251C603.822 350.142 606.199 346.655 606.675 344.753C607.15 341.901 606.675 342.376 606.675 340.791C606.675 337.939 606.199 334.927 606.358 331.599C606.358 330.648 607.467 329.381 608.418 328.747C609.21 328.113 611.429 327.162 611.746 327.162C612.063 327.162 614.282 327.32 615.074 327.796C616.659 328.588 619.195 328.588 619.987 331.124C620.78 333.343 620.938 337.622 620.938 338.097C620.938 338.573 619.987 342.059 619.67 343.803C619.195 346.814 619.67 347.289 619.987 349.349L619.036 372.013L618.719 371.537Z" fill="#ECECEC"/>
<path d="M776.727 355.847C777.044 358.541 776.727 362.186 776.727 365.039C776.727 365.356 777.203 365.831 777.203 366.465C777.203 367.416 777.678 368.842 777.678 369.952C777.678 371.378 777.044 373.28 777.203 375.023C777.837 382.947 776.41 384.849 777.678 388.177C777.995 389.128 778.629 390.396 778.788 391.506C778.788 393.883 778.471 396.577 778.471 398.954C778.471 400.698 778.946 406.561 778.946 407.037C778.946 410.207 776.727 415.12 774.984 416.863C773.241 418.448 769.12 419.24 768.645 419.24C768.169 419.24 765.951 418.923 765.317 418.606C764.207 417.972 762.622 416.387 761.671 415.278C760.245 413.535 758.66 411.633 757.392 409.414C757.075 408.939 756.917 407.671 756.917 407.037C756.917 406.561 756.917 406.244 756.441 405.611C755.966 404.818 755.015 404.026 754.223 403.55C753.113 402.599 753.589 400.539 752.955 398.796C752.638 398.32 751.687 397.845 751.528 396.894C751.053 394.517 750.895 391.981 750.102 389.604C749.785 388.653 748.993 387.068 748.676 385.642C747.725 383.264 747.091 381.363 745.189 378.351C744.872 377.717 744.555 375.182 744.08 373.597C743.446 371.695 742.495 369.318 741.861 367.258C741.069 364.563 740.435 362.028 738.85 359.175C738.533 358.541 738.533 356.481 737.74 354.896C736.473 352.519 734.412 348.398 732.669 345.387C732.035 344.594 729.975 342.851 729.182 341.425C727.597 342.059 726.488 343.01 725.854 344.436C725.379 345.862 724.903 353.469 724.903 356.481C724.903 358.224 724.903 359.967 725.379 361.869C726.488 368.684 726.805 375.816 727.756 382.63C727.756 383.264 728.231 384.057 728.39 384.691C728.39 386.276 728.39 388.019 728.39 389.604C728.39 391.347 728.39 393.407 729.499 394.992C729.816 395.785 731.56 397.369 732.827 398.003C735.046 398.796 740.118 400.856 742.812 400.856C743.287 400.856 745.506 400.222 745.982 400.222C746.299 400.222 749.31 401.331 750.736 402.441C751.528 402.916 751.37 405.135 751.37 405.769C751.37 413.852 744.555 415.753 738.216 415.595C737.423 415.595 735.522 416.07 734.254 416.229C732.986 416.387 730.609 416.229 730.133 416.229C729.658 416.229 721.892 415.595 721.575 415.595C718.881 415.595 717.613 416.704 716.187 416.704C715.553 416.704 708.579 416.07 708.104 416.07C707.629 416.07 701.923 416.546 701.448 416.546C698.912 416.546 695.267 415.12 693.207 412.901C692.573 412.108 692.097 408.939 692.097 408.463C692.097 407.354 692.573 405.611 693.524 404.026C693.524 403.55 694.633 403.392 694.95 403.075C696.059 402.282 697.486 401.331 698.278 401.015C701.131 399.588 704.142 399.43 706.836 398.954C708.104 398.796 709.847 397.369 711.115 396.735C711.432 396.577 711.908 396.102 712.225 395.151C712.7 393.407 712.542 390.713 712.7 388.653C712.7 388.177 713.334 387.068 713.492 386.434C713.492 384.374 714.126 382.313 714.126 380.412C714.126 379.461 713.651 377.559 713.492 376.133C713.492 375.023 713.968 373.28 714.126 371.854C714.126 369.793 714.126 367.733 714.126 365.831C714.126 365.514 714.602 364.722 714.602 364.246C714.919 362.503 714.919 359.967 714.919 359.492C714.919 359.016 714.602 349.824 714.602 344.277C714.602 342.534 714.126 340.791 713.968 338.572C713.968 336.512 714.285 334.135 714.285 331.916C714.285 331.44 713.651 329.222 713.334 326.844C713.334 325.418 713.334 321.456 713.017 319.396C712.225 316.543 709.055 314.641 707.153 314.166C703.983 313.532 700.338 312.105 697.01 311.154C696.376 310.996 695.108 307.668 695.108 306.875C695.108 304.657 695.584 302.755 696.852 300.853C697.169 300.219 703.191 297.842 703.667 297.842C704.142 297.842 710.323 299.585 710.798 299.585C711.274 299.585 713.968 299.268 714.443 299.268C714.919 299.268 716.345 299.268 717.138 299.427C718.247 299.585 719.673 300.378 719.99 300.378C720.307 300.378 722.684 299.585 723.318 299.585C724.586 299.585 728.231 302.596 728.548 303.23C729.024 304.023 729.816 305.291 730.292 306.4C730.609 307.351 730.767 308.936 731.401 310.045C732.827 313.056 734.571 316.067 735.997 319.396C736.631 320.98 738.057 323.516 738.691 325.101C739.008 325.735 739.167 327.003 739.484 327.795C740.752 330.648 742.812 333.501 744.397 337.621C744.714 338.414 744.714 339.681 745.189 340.791C745.665 341.9 746.932 343.168 747.408 344.436C747.408 345.228 747.408 346.813 748.042 347.764C748.359 348.398 748.993 349.19 749.468 349.666C750.578 351.409 750.895 355.53 752.955 357.432C753.43 357.749 755.174 358.066 755.966 359.333C757.392 361.394 758.185 363.771 759.294 365.99C759.928 365.673 762.622 366.465 762.622 368.05C762.939 366.941 763.098 365.197 763.573 363.771C764.049 363.137 764.524 361.869 764.683 360.76C765 359.65 764.683 358.066 764.683 356.639C764.049 353.786 765 355.054 765 354.262C765 353.786 764.366 355.213 764.683 352.202C765 349.349 764.683 345.704 764.366 342.851C764.366 341.266 763.89 338.414 764.366 336.512C764.366 335.719 764.841 333.976 764.841 333.025C764.841 330.965 764.207 325.101 764.841 321.614C766.109 312.105 754.223 313.373 749.944 311.471C748.517 310.837 747.566 307.668 747.566 306.717C747.566 304.974 747.883 302.596 750.102 301.804C753.113 300.694 759.136 300.219 759.611 300.219C760.087 300.219 762.305 300.694 762.781 300.694C763.415 300.694 766.109 299.11 766.584 299.11C767.218 299.11 771.973 299.902 772.448 299.902C772.924 299.902 775.143 299.268 776.252 299.11C778.312 298.951 782.274 298.634 782.75 298.634C783.225 298.634 789.723 299.744 792.576 300.853C793.21 301.011 795.111 301.645 795.745 302.596C796.379 303.547 796.696 305.924 796.696 306.558C796.696 309.253 794.636 312.105 792.576 312.898C790.357 313.532 787.821 312.898 785.602 313.532C784.652 313.69 783.542 314.641 782.591 315.116C781.64 315.592 780.372 315.433 779.422 315.909C778.154 316.543 777.678 318.762 777.361 320.346L777.678 354.896L776.727 355.847Z" fill="#ECECEC"/>
<path d="M955.18 416.387C953.753 415.912 951.852 414.961 951.535 414.961C951.218 414.961 947.573 415.595 945.195 416.387C944.244 416.704 942.977 417.814 941.867 417.972C940.599 418.131 936.954 417.972 935.211 418.606C932.834 419.557 932.675 420.191 931.407 420.191H925.86C925.86 420.191 923.483 420.032 922.374 419.716C921.898 419.716 920.472 418.289 919.521 417.814C918.57 417.338 916.827 416.387 916.034 415.278C915.242 414.169 915.242 412.742 915.242 411.95C915.242 406.561 916.034 407.037 922.532 402.599L929.347 404.818C929.347 404.818 932.041 404.026 932.358 404.026C932.992 404.026 934.894 404.343 935.528 404.343C936.003 404.343 936.479 404.026 937.113 403.867C941.55 402.758 941.709 396.894 942.184 393.566C942.184 393.09 943.611 391.189 943.927 389.604C943.927 389.287 943.927 388.97 943.927 388.494C943.927 388.019 943.452 385.8 943.294 384.374C943.294 383.423 943.294 381.679 943.769 380.57C944.561 377.242 941.55 373.121 941.55 369.476C941.55 369.001 941.867 366.941 942.184 365.831C942.184 365.673 942.977 365.356 942.977 365.039C942.977 364.563 942.184 360.284 941.867 358.065C941.867 357.748 941.55 357.432 941.55 356.956C941.55 352.994 941.55 345.545 941.55 344.911V337.78C941.55 337.78 940.916 335.402 940.916 334.768C940.916 334.293 941.55 331.282 942.026 329.697C942.977 330.014 943.769 328.588 943.769 327.795C943.769 327.32 942.501 326.369 942.026 326.21C941.233 323.199 941.392 318.445 937.43 316.86C935.686 316.226 931.883 316.384 931.407 316.384H928.555C928.555 316.384 926.494 317.018 925.86 317.018C925.543 317.018 922.057 314.324 920.313 313.056C919.838 311.63 919.521 309.411 919.521 308.619C919.521 305.766 920.947 303.389 923.959 303.389C926.811 303.389 927.921 305.766 928.872 305.766C929.347 305.766 930.773 304.815 931.883 304.34C932.358 304.181 933.468 304.34 934.101 304.34C934.418 304.34 939.331 304.498 942.026 304.974C943.293 305.132 944.72 307.351 945.512 307.351C945.988 307.351 948.206 306.4 948.523 306.4C949.157 306.4 952.644 307.034 954.546 307.509C954.07 308.46 953.595 310.203 952.327 310.996C950.742 311.947 947.573 313.215 945.512 314.483C945.195 314.641 944.561 316.067 944.561 316.543C944.561 317.018 945.195 319.079 945.512 320.188C946.146 322.248 945.512 323.833 945.512 325.259C945.512 326.21 945.512 327.637 945.512 328.905C945.512 330.648 946.463 333.184 946.622 335.244C946.622 337.463 945.988 340.949 946.305 343.485C946.939 348.556 947.573 349.349 948.048 352.36C948.048 352.994 948.682 354.262 949.474 354.896C949.95 355.371 954.229 359.016 955.338 359.016C955.814 359.016 957.557 358.541 958.032 358.541C959.142 358.541 960.568 359.333 961.519 359.967C962.47 359.175 963.262 357.907 964.213 357.273C965.481 356.322 967.858 355.53 969.285 354.579C970.711 353.786 972.454 352.677 973.247 350.775C974.673 347.923 972.296 344.436 974.673 341.108C974.99 341.266 978.16 346.496 978.16 347.606V353.311C978.16 353.311 978.952 357.432 978.952 359.175C978.952 359.492 978.635 360.126 978.635 360.918C978.635 365.673 978.635 365.99 978.635 366.465C978.635 366.941 978.635 367.574 978.635 368.367C979.111 369.476 979.428 370.586 979.586 372.646C979.586 374.231 979.269 375.816 979.269 377.4C979.269 378.827 980.696 382.155 980.696 382.789C980.696 383.264 979.903 384.849 979.745 385.8C979.745 387.068 979.745 388.494 979.111 389.604C979.111 389.921 978.318 390.713 977.843 390.713C977.209 390.713 975.466 390.238 974.673 390.079C973.722 389.128 974.673 386.909 974.356 385.642C974.039 384.849 973.088 383.581 973.247 382.789C973.247 378.351 971.821 375.657 970.87 371.854C970.87 371.537 970.87 370.427 970.077 370.11C967.7 368.367 963.738 364.88 961.519 364.88C961.044 364.88 958.349 366.624 958.032 366.624C957.716 366.624 955.655 366.148 955.338 366.148C953.436 366.148 951.535 368.525 950.742 370.269C949.95 371.378 948.999 376.133 948.84 378.668C948.84 379.144 948.523 380.253 947.89 380.887C948.682 382.472 950.742 389.921 950.742 390.713V398.003C950.742 403.233 950.267 406.878 956.923 406.878C960.727 406.878 958.666 406.086 964.055 405.452C964.372 405.294 964.53 404.977 965.006 404.977C965.64 404.977 967.7 405.61 968.175 405.61C968.651 405.61 970.87 405.294 971.345 405.294C971.662 405.294 973.881 405.611 974.673 406.72C975.307 407.195 975.624 410.84 975.624 411.316C975.624 411.791 975.149 412.742 974.673 413.376C973.564 413.535 971.979 413.693 971.028 414.169C966.591 415.912 968.175 415.278 965.323 415.278C964.847 415.278 962.787 415.278 961.995 415.12L955.497 416.546L955.18 416.387ZM969.443 309.411C969.443 309.411 968.492 310.045 968.017 310.203C967.542 310.362 966.749 310.203 966.274 310.203C965.64 310.203 964.53 310.362 963.421 309.411C963.738 308.936 964.213 307.985 964.372 307.351C965.957 307.351 967.541 307.192 969.443 307.351V309.411ZM1000.51 348.556C999.555 347.606 997.97 346.813 997.178 345.387C996.702 344.436 996.861 342.376 996.861 341.9C996.861 341.425 997.178 340.474 997.178 339.364C997.178 339.047 997.812 338.73 997.97 338.414C997.97 336.987 997.97 335.719 997.97 334.451C999.555 332.233 999.238 332.708 999.238 331.916C999.238 331.44 998.921 329.855 998.446 329.063C998.446 328.746 997.653 328.112 997.336 327.795C997.019 327.32 997.019 326.21 997.019 325.576C997.019 323.992 997.336 322.248 997.019 320.188C996.544 317.811 994.008 316.226 991.631 314.799C990.997 314.483 990.046 312.898 988.937 312.105C986.718 310.52 983.707 309.886 980.854 307.668C981.646 307.351 983.707 306.717 984.182 306.717C984.816 306.717 992.106 307.509 992.74 307.509C994.484 307.509 992.74 307.668 996.861 306.558C997.97 306.241 999.555 306.241 1000.51 306.083C1001.14 307.192 1002.09 308.302 1002.57 309.411C1003.36 311.788 1003.83 316.543 1003.83 317.018C1003.83 317.494 1002.88 320.346 1002.88 320.663C1002.88 321.297 1004.79 328.112 1004.79 328.588V342.376C1004.79 342.376 1004.15 347.764 1003.83 348.873H1000.51V348.556Z" fill="#ECECEC"/>
<path d="M1109.23 416.229C1106.53 416.546 1101.78 417.813 1101.3 417.813C1099.56 417.813 1099.24 417.497 1096.55 416.387C1095.91 416.229 1093.85 416.387 1093.22 416.387C1092.74 416.387 1090.84 416.387 1090.05 416.546C1088.78 416.546 1086.72 417.497 1086.25 417.497C1085.77 417.497 1083.39 417.021 1082.28 416.704C1080.86 416.387 1078.32 416.229 1077.85 416.229C1077.37 416.229 1074.52 416.229 1072.77 416.546C1071.51 416.704 1070.08 417.021 1068.81 417.338C1068.34 417.338 1067.54 417.655 1067.07 417.655C1066.44 417.655 1065.48 417.497 1064.85 417.497C1064.38 417.497 1059.15 417.813 1056.93 418.13C1056.29 418.289 1055.18 418.923 1054.23 419.081C1053.6 419.24 1051.7 419.081 1051.54 419.081C1049.95 419.081 1044.09 415.753 1043.77 415.595C1042.35 413.851 1040.92 410.84 1040.92 408.938C1040.92 406.878 1041.71 404.501 1044.09 402.599C1045.36 401.648 1052.01 398.954 1054.39 398.954C1055.02 398.954 1062.95 400.063 1063.42 400.063C1063.9 400.063 1065.96 399.905 1066.75 399.746C1068.34 399.429 1069.13 396.735 1069.29 395.626C1069.29 395.15 1069.29 394.675 1069.6 394.199C1069.6 393.249 1068.81 389.92 1069.92 388.177C1071.03 386.275 1070.87 385.958 1070.87 384.373C1070.87 383.74 1069.76 375.974 1069.76 375.34C1069.76 374.706 1070.08 369.318 1070.08 366.306C1070.08 365.831 1070.56 365.355 1070.56 364.88C1070.87 363.137 1071.03 360.601 1071.03 359.967C1071.03 355.846 1070.24 355.688 1070.24 354.103C1070.24 353.628 1070.87 350.933 1070.87 350.3V344.436C1070.87 344.436 1071.51 336.511 1071.51 336.036C1071.51 335.561 1071.51 328.112 1071.19 323.516C1071.19 321.931 1070.4 319.237 1069.6 317.81C1068.34 315.592 1065.48 314.324 1064.06 314.165C1061.05 313.848 1055.18 314.165 1054.71 314.165C1054.23 314.165 1051.38 314.641 1050.9 314.641C1049.79 314.641 1044.88 308.301 1044.25 307.667C1043.93 307.351 1043.77 306.717 1043.77 306.083C1043.77 304.656 1046.47 301.011 1047.1 300.536C1048.05 300.06 1049.16 299.426 1050.11 298.634C1050.43 298.317 1051.38 298.475 1051.85 298.475C1052.49 298.475 1053.28 298.634 1053.92 298.634C1054.39 298.634 1056.93 298 1057.24 298C1057.88 298 1065.48 299.426 1065.96 299.426H1071.03C1071.03 299.426 1076.1 300.377 1076.74 300.377C1077.05 300.377 1079.75 299.743 1080.38 299.743C1080.86 299.743 1089.42 300.536 1090.05 300.536C1090.52 300.536 1098.61 299.902 1099.24 299.902C1100.35 299.902 1105.9 302.121 1106.06 302.279C1108.75 305.29 1112.71 302.596 1114.77 305.766C1113.98 307.192 1113.19 308.935 1112.08 309.886C1110.97 310.52 1109.07 310.837 1107.8 311.63C1105.26 313.056 1101.62 313.69 1099.56 313.69C1099.08 313.69 1096.55 313.056 1096.07 313.056C1095.6 313.056 1092.74 314.165 1091.16 314.958C1090.21 315.433 1089.73 316.86 1089.26 317.335C1088.15 318.286 1086.88 319.237 1085.93 320.346C1087.67 321.297 1088.78 323.199 1088.78 324.942C1088.78 326.844 1087.67 327.161 1087.67 327.795C1087.67 328.112 1088.31 329.697 1088.46 330.806C1088.46 330.965 1088.94 330.965 1089.1 330.965C1088.78 331.44 1087.99 332.391 1087.36 332.866C1087.67 333.183 1088.15 334.134 1088.15 334.768C1088.15 335.402 1086.25 338.413 1085.93 339.84C1085.29 341.9 1084.5 345.228 1084.5 345.704C1084.5 347.922 1085.45 348.081 1086.72 350.775C1086.72 351.25 1086.72 352.201 1086.72 352.835C1086.72 353.311 1087.2 353.945 1087.2 354.42C1087.2 355.371 1086.72 356.48 1087.2 357.273C1087.51 358.065 1088.94 359.175 1088.94 359.65C1088.94 360.126 1087.83 362.027 1087.2 363.137C1088.31 366.465 1087.2 368.208 1087.2 370.268C1087.2 370.744 1087.99 373.597 1087.99 374.231C1087.99 374.864 1086.09 380.887 1086.09 381.521C1086.09 384.532 1088.62 383.74 1088.46 388.653C1088.46 390.396 1087.51 392.773 1089.57 395.467C1090.05 396.101 1090.21 398.003 1090.52 399.271C1090.52 399.588 1092.43 402.441 1093.06 402.441C1093.54 402.441 1094.8 401.648 1096.07 401.49C1097.02 401.331 1098.77 401.173 1099.08 401.173C1099.4 401.173 1108.59 403.075 1109.07 403.075C1109.54 403.075 1112.4 401.965 1113.82 401.331C1116.36 400.539 1120.8 399.429 1121.9 397.052C1122.86 395.309 1124.12 390.554 1123.33 387.543C1123.01 385.958 1123.65 384.057 1123.81 381.521C1123.81 380.094 1123.49 377.717 1123.49 375.815C1123.49 375.023 1123.96 373.914 1124.28 373.121C1124.6 371.695 1124.76 369.793 1125.71 368.684C1126.66 367.574 1128.88 366.782 1129.35 366.782C1131.41 366.782 1133.63 368.842 1135.85 370.11C1137.75 371.219 1140.13 371.061 1142.19 371.219C1143.46 373.121 1143.14 375.815 1143.62 378.034L1143.3 404.818C1142.98 406.561 1144.09 407.988 1142.51 410.048C1141.71 410.682 1138.39 413.534 1135.85 415.119C1133.63 416.546 1130.94 416.863 1127.77 416.863C1127.29 416.863 1123.65 416.546 1123.01 416.546C1122.54 416.546 1118.26 417.18 1116.04 417.497L1109.38 416.07L1109.23 416.229Z" fill="#ECECEC"/>
<path d="M1254.71 345.546C1254.71 345.546 1254.08 340.791 1254.08 340.316C1254.08 339.682 1254.08 335.244 1255.66 335.244C1255.98 335.244 1257.57 335.403 1258.36 335.72C1260.26 336.354 1260.26 339.365 1260.58 340.474C1260.89 341.108 1261.85 342.376 1262.32 343.486C1262.8 345.07 1262.32 347.448 1262.95 349.032C1263.27 351.093 1263.27 353.945 1263.27 356.323C1263.27 357.274 1263.59 359.651 1263.59 360.285C1263.59 360.919 1263.27 365.198 1262.95 367.417C1262.95 367.733 1262.16 368.367 1262.16 369.16C1262.16 369.635 1262.64 374.39 1262.95 376.609C1262.95 377.242 1263.59 379.778 1263.59 380.571C1263.59 381.839 1263.11 384.057 1262 385.008C1261.53 385.325 1260.42 385.642 1260.1 386.435C1259.47 387.861 1259.63 389.446 1258.99 391.031C1258.99 391.348 1257.88 391.981 1257.57 392.615C1257.09 394.042 1256.77 395.468 1256.62 396.894C1256.62 397.845 1256.62 399.747 1256.3 400.857C1256.3 401.173 1255.19 401.332 1254.56 401.807C1253.13 402.917 1251.23 404.343 1249.8 405.928C1249.33 406.403 1249.48 407.83 1249.01 408.622C1248.37 410.366 1247.11 412.267 1245.68 413.694C1245.05 414.169 1243.3 414.011 1242.35 414.486C1241.4 415.12 1240.45 417.18 1239.5 417.656C1238.39 418.29 1236.33 417.973 1235.06 418.29C1233.16 418.765 1229.99 421.301 1229.36 421.301C1228.88 421.301 1226.66 419.241 1226.19 419.241C1225.71 419.241 1220.48 420.667 1220.01 420.667C1219.53 420.667 1217.79 420.191 1217.15 420.033C1216.52 420.033 1214.46 420.35 1213.19 420.033C1212.72 419.875 1212.24 419.082 1211.76 418.607C1210.81 417.814 1209.55 416.863 1208.44 416.388C1206.85 415.754 1204.95 415.754 1203.21 414.645C1203.21 414.486 1202.57 413.535 1202.1 412.901C1200.99 411.316 1199.4 409.89 1198.61 408.305C1198.29 407.83 1197.03 407.354 1196.39 406.562C1195.6 405.453 1195.6 402.917 1194.49 401.49C1193.06 399.906 1191.48 398.321 1190.05 396.26C1189.58 395.627 1189.26 393.566 1188.94 392.14C1188.47 390.555 1187.52 389.763 1186.72 388.178C1186.25 387.385 1186.72 385.959 1186.72 384.85C1186.41 380.729 1186.09 376.609 1185.3 372.329C1184.98 370.745 1183.71 367.575 1183.71 366.941C1183.71 366.466 1184.98 363.613 1185.3 362.028C1185.3 360.443 1185.61 358.541 1185.93 356.64C1185.93 355.689 1185.61 354.104 1185.93 352.995C1186.25 351.093 1186.88 349.349 1187.52 347.606C1187.83 346.655 1188.63 345.546 1188.78 344.753C1188.78 343.327 1188.78 341.901 1188.78 340.316C1188.78 339.365 1189.42 337.622 1190.21 336.671C1190.69 336.037 1192.43 335.244 1192.9 334.61C1193.38 333.66 1194.49 332.075 1195.12 330.648C1195.92 329.064 1196.07 327.162 1197.03 325.577C1197.5 324.626 1199.72 323.517 1200.51 322.566C1201.78 321.456 1202.26 319.396 1203.36 317.97C1204.32 317.019 1204.79 315.751 1205.11 315.117C1205.58 314.166 1205.58 312.74 1206.85 311.63C1207.49 311.155 1209.23 311.155 1210.18 310.838C1210.81 310.521 1211.76 309.887 1212.87 309.729C1216.2 308.936 1222.22 307.51 1222.7 307.51C1223.18 307.51 1225.08 308.936 1226.03 309.253C1226.98 309.729 1228.41 309.57 1229.04 310.046C1231.89 312.106 1232.53 311.789 1234.59 311.789C1235.06 311.789 1236.01 311.947 1236.65 311.789C1237.44 311.63 1238.71 310.996 1239.18 310.996C1239.66 310.996 1242.19 312.581 1243.3 313.532C1244.25 314.483 1246 316.86 1247.11 317.97C1247.58 318.287 1248.69 318.287 1249.17 318.762C1249.64 319.079 1250.28 320.188 1250.43 320.981C1250.91 322.566 1249.96 324.467 1250.75 326.052C1251.07 326.686 1253.13 328.588 1254.24 330.014C1254.24 330.331 1254.55 331.124 1255.03 331.916C1254.55 332.392 1252.81 333.501 1252.49 333.501C1251.7 333.501 1250.91 331.916 1249.01 331.916C1249.01 331.282 1248.37 330.173 1248.22 329.38C1248.22 328.588 1248.22 327.32 1248.22 326.528C1248.22 324.943 1246.31 324.784 1245.52 324.309C1243.78 323.2 1240.93 321.456 1239.18 320.03C1238.87 319.713 1238.39 318.128 1237.76 317.811C1232.05 314.483 1232.68 313.215 1227.93 313.215C1225.39 313.215 1226.19 313.374 1223.02 315.592C1222.22 316.068 1220.64 316.226 1219.53 316.702C1217.47 317.494 1215.25 318.445 1213.03 319.713C1212.4 320.03 1210.81 321.932 1209.7 323.041C1208.28 324.467 1206.38 325.101 1205.27 326.528C1204.79 326.845 1204.32 329.222 1203.68 330.014C1202.26 332.075 1201.15 334.135 1200.04 335.878C1200.04 336.195 1199.09 336.671 1198.77 337.146C1198.29 337.939 1198.13 339.365 1198.29 340.157C1198.29 341.742 1196.55 344.119 1196.23 346.021C1196.23 346.814 1196.23 348.398 1195.92 349.191C1195.44 350.776 1194.81 352.519 1194.49 354.262C1194.49 355.689 1193.86 357.749 1193.7 359.175C1193.7 360.126 1193.7 361.711 1193.7 363.137C1193.7 364.088 1193.22 366.149 1193.22 366.624C1193.22 367.1 1194.81 373.439 1195.76 376.133C1196.07 376.609 1196.71 377.242 1197.03 378.035C1197.82 380.888 1198.13 384.374 1199.24 387.068C1199.24 387.702 1201.15 389.287 1201.3 390.238C1201.62 391.348 1201.94 393.725 1202.41 395.785C1202.73 398.321 1205.27 398.162 1206.22 399.113C1207.17 399.906 1207.64 401.173 1208.91 402.283C1210.02 403.075 1211.76 403.234 1212.87 404.502C1214.3 405.611 1214.62 407.988 1216.2 408.781C1219.21 410.366 1225.55 411.475 1226.03 411.475C1226.5 411.475 1226.82 411.316 1232.37 411.316C1233.48 411.158 1234.59 408.781 1235.85 408.147C1236.8 407.671 1238.55 407.671 1239.82 406.562C1241.4 405.453 1241.56 404.185 1242.19 402.917C1242.99 401.49 1242.99 400.064 1245.52 397.37C1246 396.894 1246.95 396.894 1247.42 396.26C1248.85 394.359 1251.86 388.812 1252.18 385.008C1254.24 384.374 1255.03 381.363 1254.71 379.461C1254.08 376.292 1254.71 374.707 1255.51 372.329C1255.51 372.013 1255.98 371.696 1256.14 371.22C1256.77 370.269 1257.25 368.05 1257.25 367.575C1257.25 367.1 1256.3 364.405 1256.3 363.613C1256.3 363.137 1257.88 358.858 1257.88 358.224C1257.88 357.907 1257.88 357.274 1257.41 356.481C1256.62 355.372 1254.87 354.262 1254.87 352.519V345.546H1254.71Z" fill="#ECECEC"/>
<path d="M1357.89 399.272C1357.41 400.857 1356.3 403.392 1355.83 405.136C1355.19 407.196 1355.03 410.207 1354.4 412.109C1354.4 412.901 1352.97 414.486 1351.71 416.071C1350.6 417.497 1348.69 420.033 1347.11 420.35C1345.05 420.984 1341.09 422.252 1340.45 422.252C1336.33 422.093 1337.76 421.301 1334.43 415.913C1333.96 414.962 1333.16 413.06 1332.69 411.792C1332.37 411 1331.42 409.573 1331.26 408.622C1330.63 406.245 1330.63 403.392 1330.15 400.698C1329.83 398.796 1328.57 396.102 1328.25 393.725C1327.93 390.872 1327.14 388.336 1325.24 384.691C1324.6 383.265 1324.92 379.937 1324.6 377.084C1324.6 376.292 1324.13 375.182 1323.81 374.073C1323.5 373.122 1323.81 371.696 1323.5 370.586C1323.5 370.269 1322.86 369.477 1322.86 368.684C1322.39 365.99 1322.86 362.662 1322.23 359.651C1322.23 359.334 1320.64 357.274 1320.17 356.006C1319.22 353.629 1318.9 350.617 1318.58 347.923C1318.27 346.18 1317.16 344.12 1316.68 342.535C1316.21 340.474 1316.68 338.573 1316.05 336.988C1315.57 335.403 1314.62 333.66 1314.46 331.916C1314.46 330.331 1314.46 328.271 1313.99 326.211C1313.67 323.992 1310.5 322.883 1308.91 321.615C1307.81 320.981 1306.85 319.872 1305.75 319.396C1304.79 319.079 1303.68 318.921 1302.73 318.604C1302.1 318.287 1301.47 315.751 1301.47 315.276C1301.47 314.959 1301.94 313.374 1302.73 312.74C1305.43 309.887 1305.43 309.095 1306.7 306.242C1307.01 305.45 1307.49 303.706 1307.96 302.755C1307.96 302.121 1312.88 299.744 1313.67 299.744C1314.14 299.744 1320.01 301.012 1320.48 301.012C1320.96 301.012 1323.18 300.854 1323.65 300.854C1327.93 301.012 1329.68 303.072 1335.86 304.499C1337.28 304.816 1342.67 308.778 1342.67 310.521C1342.67 310.996 1340.29 314.642 1339.34 315.909C1338.55 317.177 1335.38 318.604 1335.38 320.822C1335.38 321.298 1335.7 322.249 1335.86 322.883C1335.86 323.517 1335.86 324.943 1335.86 325.735C1335.54 327.32 1334.59 330.173 1334.59 330.807C1334.59 331.282 1336.33 335.878 1336.65 338.414C1337.44 341.267 1337.13 344.753 1337.76 347.923C1338.23 349.508 1337.76 351.885 1338.23 353.47C1338.55 354.579 1339.34 355.847 1339.5 356.798C1340.14 359.017 1340.77 361.553 1341.4 363.771C1341.4 364.405 1341.4 365.198 1341.4 365.832C1341.72 366.149 1341.4 365.99 1341.88 365.99C1342.35 365.99 1344.26 365.832 1344.57 365.515C1345.52 364.405 1346.16 362.187 1347.11 360.443C1347.11 359.968 1348.22 359.651 1348.38 359.175C1349.01 358.383 1349.17 356.798 1349.33 355.53C1349.33 355.055 1349.33 354.104 1349.33 353.47C1349.65 352.044 1350.44 349.666 1350.75 347.923C1351.07 345.704 1350.44 343.327 1352.02 341.108C1352.34 340.791 1353.29 340.157 1353.77 339.365C1354.24 338.573 1354.72 337.622 1355.19 337.146C1356.14 336.354 1360.11 334.452 1362.01 334.452C1363.59 334.611 1367.24 338.89 1367.24 339.365C1367.24 339.999 1367.55 341.108 1367.87 341.742C1368.5 343.327 1369.46 345.07 1369.93 346.655C1370.25 348.082 1370.72 349.983 1370.72 351.568C1370.72 352.995 1370.41 354.421 1370.72 355.689C1370.72 356.164 1371.67 356.64 1371.99 357.591C1372.47 358.542 1372.94 359.809 1373.1 360.919C1373.1 363.138 1372.63 366.149 1374.84 368.526C1375.64 368.367 1376.75 368.367 1377.7 367.892C1378.01 367.734 1378.17 366.783 1378.33 366.307C1380.07 362.979 1379.28 361.711 1379.92 359.175C1380.55 356.957 1382.13 353.47 1382.93 350.617C1383.24 348.716 1383.88 345.704 1384.19 343.644C1384.67 340.95 1384.83 336.195 1386.25 332.867C1386.57 332.392 1386.25 331.441 1386.25 330.965C1386.73 328.588 1387.84 324.626 1387.84 323.992C1387.84 322.566 1385.78 321.139 1385.62 320.822C1384.99 319.713 1384.83 317.653 1384.35 316.543C1383.4 315.117 1381.66 314.166 1380.71 312.898C1382.29 310.679 1384.04 309.095 1385.94 306.559C1391.96 306.876 1396.87 304.182 1401.79 304.182H1411.3C1411.3 304.182 1414.15 304.499 1415.1 304.974C1416.53 306.559 1416.84 309.095 1416.84 310.838C1416.84 312.423 1416.21 316.385 1415.42 317.336C1414.46 318.128 1411.93 319.713 1411.61 319.713C1411.14 319.713 1409.08 319.079 1408.76 319.079C1407.81 319.079 1405.43 321.773 1405.43 322.407C1405.11 323.992 1404.48 325.894 1403.69 327.637C1403.05 329.222 1401.94 330.807 1401.47 332.709C1400.99 334.452 1401.94 336.671 1401.47 338.414C1401.47 339.048 1400.68 340.316 1400.36 341.584C1399.88 343.327 1399.41 345.229 1398.93 347.289C1398.46 350.142 1398.46 353.312 1397.82 356.323C1397.82 357.591 1396.4 359.334 1396.08 360.919C1395.45 363.771 1395.76 366.941 1395.29 369.952C1395.29 370.745 1394.18 372.33 1393.7 373.914C1393.39 375.499 1392.12 383.74 1391.33 388.653C1391.33 388.97 1390.85 389.446 1390.69 390.08C1390.22 392.615 1389.74 395.944 1389.27 399.272C1388.95 400.381 1388.16 401.807 1387.52 403.392C1386.25 406.245 1387.21 408.939 1386.73 411.316C1386.73 411.95 1384.67 416.705 1383.56 418.607C1383.09 419.241 1381.34 420.509 1380.23 420.826C1379.12 421.301 1377.54 421.459 1376.9 421.459C1376.59 421.459 1375 420.825 1374.21 420.667C1373.42 420.667 1371.52 420.984 1370.41 420.509C1369.46 420.192 1368.66 418.448 1368.19 417.656C1367.55 416.546 1367.55 415.596 1366.6 414.962C1362.01 410.841 1362.17 406.562 1361.85 402.441C1361.85 400.064 1359.15 400.381 1358.2 399.747H1357.73L1357.89 399.272Z" fill="#ECECEC"/>
<path d="M1530.32 371.537C1530.32 371.537 1530.95 373.756 1531.11 374.707C1531.58 377.084 1531.74 381.68 1531.74 382.156C1531.74 382.631 1530.79 384.85 1530.63 386.118C1530.63 387.544 1530.63 388.812 1530.32 390.238C1529.37 390.714 1527.78 391.348 1527.46 391.348C1527.15 391.348 1526.2 390.555 1525.56 390.397C1518.59 388.336 1519.38 381.205 1516.69 375.658C1516.37 375.182 1516.69 372.33 1516.21 370.745C1516.21 369.794 1515.42 368.367 1514.63 367.417C1514.15 366.624 1511.3 364.088 1510.35 364.088C1510.03 364.088 1503.37 365.832 1500.68 366.941C1500.05 367.258 1499.25 369.318 1498.78 370.269C1498.46 370.745 1498.46 371.379 1498.3 372.171V385.642C1498.3 385.642 1499.25 391.348 1499.25 393.883C1499.25 397.053 1499.57 398.321 1501.31 400.381C1502.42 400.381 1503.85 400.223 1504.8 400.857C1507.81 402.6 1508.6 401.966 1510.35 401.966C1510.82 401.966 1512.41 401.808 1513.36 401.808C1515.26 401.649 1518.27 401.966 1518.91 401.966C1522.71 401.966 1522.23 400.54 1524.14 400.54C1524.61 400.54 1526.99 400.857 1527.46 400.857C1527.94 400.857 1530.63 400.857 1533.64 400.223C1534.75 400.064 1535.07 397.37 1535.7 396.895C1535.7 396.578 1536.81 396.419 1536.97 396.102C1537.76 395.468 1539.03 392.615 1539.35 391.031C1539.35 390.238 1540.62 388.495 1540.78 387.544C1541.09 384.533 1542.04 380.254 1541.57 375.182C1541.57 374.707 1541.89 373.914 1542.2 373.439C1543.47 372.33 1545.06 371.22 1546.64 370.586C1547.12 370.269 1547.91 370.428 1548.38 370.428C1548.86 370.428 1551.71 370.586 1553.14 371.062C1555.83 371.854 1555.2 375.182 1555.99 376.292C1556.31 376.926 1556.78 377.718 1556.94 378.352C1557.26 381.522 1556.94 385.484 1556.94 389.287C1556.94 390.08 1558.05 396.102 1558.05 396.578C1558.05 397.053 1557.73 398.004 1558.05 402.917C1558.05 405.294 1558.05 408.147 1557.58 411C1557.1 412.901 1553.93 415.12 1552.82 415.913C1549.65 418.131 1549.18 418.29 1546.16 418.448C1545.69 418.448 1539.83 418.29 1537.61 418.131C1536.02 417.814 1532.53 417.339 1532.06 417.339C1531.58 417.339 1528.73 418.448 1528.41 418.448C1528.1 418.448 1526.2 417.339 1525.09 417.18C1524.14 416.863 1523.03 417.339 1522.08 417.339C1517.95 417.497 1509.55 416.546 1509.08 416.546C1508.6 416.546 1505.75 417.022 1505.28 417.022C1504.8 417.022 1503.37 416.863 1502.9 416.863C1502.42 416.863 1499.57 417.497 1499.09 417.497C1497.99 417.656 1492.6 416.705 1492.44 416.705C1491.96 416.705 1489.74 417.339 1489.43 417.339C1489.11 417.339 1486.57 416.388 1486.1 416.388C1485.47 416.388 1479.76 418.131 1479.28 418.131C1478.81 418.131 1477.22 417.656 1476.43 417.656C1475.16 417.497 1473.58 417.656 1472.15 417.497C1470.73 417.339 1468.67 416.863 1466.92 416.546C1465.65 416.229 1464.23 416.705 1462.96 416.388C1462.49 416.388 1462.01 415.437 1461.22 414.803C1460.74 414.328 1459.63 414.011 1459 413.06C1457.89 411.633 1456.46 408.622 1456.46 407.513C1456.46 406.562 1457.57 400.381 1459.63 400.381C1460.11 400.381 1462.17 400.698 1462.8 400.698C1463.28 400.698 1469.46 399.906 1472.47 399.272L1478.97 400.223C1478.97 400.223 1481.5 399.272 1481.98 398.162C1484.04 394.834 1483.25 393.725 1484.04 392.14C1485.31 389.763 1486.42 389.604 1486.42 386.118C1486.42 382.156 1485.47 382.789 1485.47 381.68C1485.47 380.095 1486.57 377.876 1486.42 375.182C1486.42 373.597 1486.73 373.597 1485.62 370.903C1485.62 370.269 1484.51 369.477 1484.51 369.001C1484.51 368.526 1486.73 363.454 1486.73 362.979L1486.42 345.546C1486.42 345.546 1485.47 342.693 1485.31 341.267C1485.31 339.523 1485.31 337.305 1485.31 335.403C1485.31 334.769 1484.67 334.294 1484.51 333.501C1484.2 330.49 1484.04 326.528 1483.41 322.724C1483.41 322.09 1481.98 320.189 1481.03 319.238C1480.71 318.921 1480.24 318.445 1479.92 318.128C1479.28 317.811 1478.18 317.336 1477.54 317.336L1468.82 318.762C1467.08 318.762 1467.24 318.604 1464.86 317.336C1463.91 317.019 1462.33 317.019 1461.38 316.226C1461.06 316.068 1460.27 314.642 1459.95 313.849C1459.63 312.74 1459.16 311.313 1458.68 310.204C1457.57 307.827 1456.78 305.45 1456.62 303.865C1456.62 301.487 1458.36 301.012 1460.27 300.22C1462.8 299.11 1465.65 299.427 1468.35 299.11C1469.14 298.952 1470.41 298.635 1470.88 298.635C1471.36 298.635 1472.95 299.744 1474.05 299.744C1475.01 299.903 1477.07 299.744 1478.81 299.903C1480.71 300.061 1483.72 301.329 1484.2 301.329C1484.67 301.329 1486.57 300.854 1487.53 300.537L1493.55 301.329H1498.3C1498.3 301.329 1503.85 301.487 1507.18 301.963C1507.97 302.121 1509.71 302.755 1510.03 302.755C1510.66 302.755 1512.88 301.804 1513.36 301.804H1520.33C1520.33 301.804 1522.71 301.171 1523.18 301.171C1523.66 301.171 1525.88 301.646 1526.51 301.646C1526.99 301.646 1529.21 300.854 1529.68 300.854C1530.16 300.854 1531.74 301.487 1532.85 301.646C1533.8 301.804 1535.55 301.804 1536.02 301.804C1536.5 301.804 1539.35 301.012 1539.83 300.854C1543.31 300.854 1555.52 304.023 1556.15 309.253C1556.15 309.887 1557.42 311.789 1557.42 312.264L1557.89 334.294C1557.89 334.294 1555.52 339.207 1555.67 339.682C1555.67 340.157 1556.47 341.108 1556.47 342.693C1556.47 344.595 1555.52 344.278 1553.93 346.655C1553.45 347.131 1553.45 348.399 1553.14 349.033C1552.19 348.874 1550.6 349.191 1549.81 348.874C1548.54 348.24 1547.27 346.814 1546.64 345.704C1546.01 344.912 1545.85 343.01 1545.37 341.742C1544.74 339.999 1543.47 338.414 1543.15 336.512C1543.15 336.037 1543.47 335.086 1543.15 334.611C1543.15 333.66 1542.84 332.233 1542.68 331.282C1542.04 328.588 1542.99 323.358 1539.35 320.347C1537.92 319.238 1532.69 317.336 1529.84 317.336C1529.37 317.336 1524.61 317.811 1524.14 317.811C1523.66 317.811 1519.22 317.811 1516.53 317.653C1516.05 317.653 1515.58 317.336 1515.1 317.177C1513.52 316.702 1510.98 316.543 1510.35 316.543C1507.34 316.702 1500.05 319.555 1499.73 321.298C1499.73 322.724 1500.52 326.211 1500.2 328.588C1500.2 329.539 1499.09 331.441 1499.09 333.184C1498.78 340.316 1499.09 344.436 1499.09 345.07C1499.09 345.546 1499.09 346.814 1499.09 347.289C1499.41 348.716 1500.36 350.142 1500.52 351.727C1501.79 351.727 1503.69 352.044 1504.01 352.044C1504.32 352.044 1506.39 351.41 1506.86 351.41C1507.49 351.41 1510.03 353.153 1510.66 353.153C1510.98 353.153 1513.04 352.202 1513.99 351.251C1515.42 350.142 1517.8 346.655 1518.27 344.753C1518.75 341.901 1518.27 342.376 1518.27 340.791C1518.27 337.939 1517.8 334.927 1517.95 331.599C1517.95 330.648 1519.06 329.381 1520.01 328.747C1520.81 328.113 1523.03 327.162 1523.34 327.162C1523.66 327.162 1525.88 327.32 1526.67 327.796C1528.26 328.588 1530.79 328.588 1531.58 331.124C1532.38 333.343 1532.53 337.622 1532.53 338.097C1532.53 338.573 1531.58 342.059 1531.27 343.803C1530.79 346.814 1531.27 347.289 1531.58 349.349L1530.63 372.013L1530.32 371.537Z" fill="#ECECEC"/>
<path d="M1639.19 394.042C1639.19 396.419 1639.83 398.479 1640.46 399.589C1643.47 399.747 1646.96 400.381 1649.81 402.758C1650.76 403.234 1652.35 403.551 1653.14 404.185C1653.78 404.66 1655.99 408.939 1655.99 409.732C1655.99 411.633 1653.14 413.218 1652.67 413.852C1651.08 414.962 1649.5 416.071 1647.75 416.388C1646.8 416.546 1645.06 416.546 1643.79 416.546C1642.84 416.705 1641.1 417.18 1640.62 417.18C1640.15 417.18 1637.93 416.546 1637.45 416.546C1636.82 416.546 1631.43 417.497 1630.79 417.497C1630.48 417.497 1628.26 417.18 1627.78 417.18C1627.31 417.18 1624.61 417.973 1624.14 417.973C1623.66 417.973 1618.12 417.18 1617.64 417.18C1617.17 417.18 1614.79 417.814 1614.47 417.814C1614 417.814 1612.09 417.814 1611.14 417.497C1610.19 417.18 1608.92 416.071 1607.81 414.803C1605.91 412.426 1605.12 411.158 1605.12 409.098C1605.12 406.245 1608.45 403.392 1611.14 401.807C1613.84 400.381 1618.75 401.649 1621.6 396.578C1622.4 395.151 1623.19 393.408 1623.35 391.665C1623.35 389.604 1622.87 387.069 1623.03 384.533C1623.03 381.046 1623.98 377.401 1624.14 373.756C1624.14 373.122 1623.66 371.854 1623.66 370.903C1623.35 369.16 1623.66 366.307 1623.66 364.405C1623.66 363.296 1624.3 361.077 1624.3 359.175C1624.3 354.262 1624.61 344.595 1624.61 343.961C1624.61 343.486 1624.3 340.791 1624.14 339.365C1624.14 335.403 1624.14 330.49 1624.14 326.369C1624.14 325.577 1624.14 324.468 1623.66 323.675C1621.13 319.713 1617.01 318.921 1612.73 316.702C1612.41 316.543 1611.62 315.751 1611.3 315.276C1611.3 314.959 1610.67 314.325 1610.03 313.532C1609.56 313.215 1608.45 312.74 1607.97 311.947C1607.18 310.521 1606.71 307.668 1606.71 307.193C1606.71 306.717 1606.71 304.657 1607.34 303.865C1607.66 303.389 1609.4 302.438 1610.03 301.963C1610.51 301.646 1610.83 301.012 1611.3 300.854C1612.57 300.22 1614.31 299.744 1614.95 299.744C1615.42 299.744 1615.58 299.744 1621.76 299.903C1622.4 299.903 1623.66 300.061 1624.46 300.22C1625.41 300.378 1627.31 301.17 1627.63 301.17C1628.26 301.17 1630.64 300.537 1630.95 300.537C1631.59 300.537 1636.02 301.012 1636.5 301.012C1636.98 301.012 1640.15 300.537 1640.62 300.537C1641.1 300.537 1643 301.646 1644.42 301.646H1651.4C1651.4 301.646 1653.14 301.646 1653.93 301.487C1655.04 301.487 1656.63 300.695 1656.94 300.695C1657.26 300.695 1658.85 301.487 1659.96 301.487C1662.02 301.804 1664.87 301.646 1667.09 301.963C1668.67 302.121 1670.42 302.438 1673.27 303.231C1675.65 303.865 1678.02 305.133 1680.4 306.242C1681.67 306.717 1683.57 309.095 1684.68 310.204C1687.06 312.264 1689.28 314.008 1691.18 316.543C1692.44 318.445 1693.55 320.822 1694.51 322.566C1695.3 324.151 1697.2 325.735 1697.36 327.32C1697.83 328.905 1697.68 331.282 1697.68 333.184C1697.68 335.403 1698.78 339.207 1698.78 339.84C1698.78 340.474 1698.31 341.584 1697.99 342.218C1695.77 346.18 1693.71 350.459 1691.34 353.945C1689.28 356.957 1688.64 356.957 1687.85 358.225C1686.9 359.175 1682.14 362.187 1682.14 364.881C1682.14 365.356 1684.84 369.635 1685.47 372.171C1686.42 375.182 1687.85 379.778 1688.48 383.582C1688.8 385.008 1688.48 387.069 1688.8 388.495C1688.8 389.604 1689.91 391.031 1690.38 391.982C1691.02 393.566 1691.34 396.894 1693.08 398.321C1693.55 398.796 1694.98 398.638 1695.77 399.113C1697.04 399.589 1698.31 401.174 1699.42 401.807C1700.21 402.283 1701.64 402.441 1702.43 403.234C1703.38 403.709 1705.12 404.819 1705.76 406.245C1706.71 408.305 1707.5 412.901 1707.5 413.377C1707.5 414.011 1706.55 416.705 1705.6 417.339C1704.65 417.814 1697.99 420.826 1696.09 420.826C1695.61 420.826 1694.19 420.192 1693.24 420.033C1690.86 419.716 1688.48 419.716 1686.26 419.241C1685.31 419.082 1681.83 417.022 1679.61 416.071C1678.66 415.754 1677.07 414.486 1676.28 413.694C1675.8 413.218 1675.33 411.475 1675.01 410.841C1674.38 408.464 1673.59 406.245 1673.27 404.026C1673.27 402.124 1673.27 400.064 1673.27 398.162C1673.27 395.627 1673.27 392.932 1672.63 390.555C1672.32 388.812 1672.63 386.118 1672.63 383.74C1672.63 382.948 1672 381.046 1671.84 379.461C1671.53 376.45 1670.89 372.647 1666.61 369.952C1665.82 369.477 1664.71 367.734 1663.76 366.941C1662.65 366.149 1660.43 365.356 1659.48 365.356C1659 365.356 1654.57 365.832 1654.09 365.832C1653.62 365.832 1650.92 365.356 1650.45 365.356C1647.59 365.356 1644.42 366.466 1643.16 367.892C1641.25 369.952 1639.19 374.865 1639.19 375.341V394.359V394.042ZM1681.83 336.037C1681.83 336.037 1681.35 333.343 1681.51 332.392C1681.51 331.282 1681.83 329.698 1681.51 328.747C1680.88 326.369 1678.97 321.932 1676.91 320.347C1675.8 319.555 1674.22 319.555 1673.11 318.921C1671.84 318.445 1670.42 317.336 1669.62 317.019C1668.04 316.385 1665.5 316.068 1665.03 316.068C1664.39 316.068 1663.6 316.068 1663.28 316.226C1661.38 316.86 1657.42 318.445 1656.94 318.445C1656.47 318.445 1650.76 317.494 1650.13 317.494C1647.75 317.494 1643.32 319.079 1641.57 321.932C1639.83 324.468 1641.25 327.637 1641.1 329.856C1641.1 332.392 1639.35 338.256 1639.35 338.731C1639.35 341.425 1639.99 346.972 1640.62 349.191C1640.62 349.666 1641.73 350.617 1642.05 350.776C1643.63 351.41 1647.12 352.678 1647.59 352.678C1648.07 352.678 1652.67 352.202 1653.14 352.202C1653.78 352.202 1656.47 352.836 1656.94 352.836C1657.42 352.836 1661.22 352.519 1663.44 352.202C1664.71 352.044 1666.14 350.934 1666.77 350.934C1668.99 350.617 1670.89 349.191 1673.43 347.606C1674.38 346.972 1675.96 346.021 1676.6 345.387C1677.71 344.436 1678.18 342.852 1678.82 342.376C1680.56 340.157 1681.67 338.097 1681.67 336.512L1681.83 336.037Z" fill="#ECECEC"/>
<path d="M1768.52 352.836C1768.52 352.836 1768.99 353.153 1769.31 352.994C1770.1 352.994 1770.89 352.836 1771.85 352.836C1772.48 352.836 1772.95 352.677 1773.43 352.677C1776.76 352.677 1778.34 353.153 1779.77 355.847C1780.88 355.213 1782.15 354.421 1783.1 353.311C1783.41 354.262 1785.32 355.213 1786.11 355.213C1786.11 355.213 1790.7 353.628 1792.77 353.628C1793.24 353.628 1796.41 354.421 1798.47 355.055C1799.58 355.372 1802.12 357.115 1802.91 357.115C1803.38 357.115 1805.29 356.481 1805.6 356.481C1805.92 356.481 1807.98 357.115 1808.77 357.907C1809.72 358.541 1810.04 360.126 1811.15 360.76C1812.42 361.394 1814 361.552 1815.27 362.503C1816.06 362.979 1817.01 364.881 1817.96 366.148C1819.39 368.367 1821.13 370.586 1822.24 373.914C1823.51 377.401 1824.62 384.215 1824.62 384.691C1824.62 385.166 1823.83 387.861 1823.67 388.97C1823.67 390.872 1823.67 394.041 1823.67 396.419C1823.67 397.053 1822.56 399.747 1822.08 401.649C1822.08 402.283 1820.82 403.392 1820.34 404.026C1819.55 405.135 1818.44 406.403 1817.49 407.671C1813.53 412.426 1811.94 413.693 1808.93 414.961C1803.38 417.339 1792.45 420.667 1791.81 420.667C1788.49 420.667 1787.85 418.923 1785.63 418.448C1781.67 417.497 1777.08 417.339 1772.95 416.388C1772.32 414.01 1765.51 409.731 1763.13 409.731C1761.54 409.731 1758.85 412.109 1756.63 414.01C1755.84 414.644 1754.25 414.486 1753.46 415.12C1752.67 414.327 1751.08 413.693 1750.13 412.901C1749.5 410.365 1748.71 404.977 1746.96 403.234C1746.49 402.758 1746.49 400.698 1746.49 400.222C1746.49 399.747 1746.49 392.14 1746.96 389.287C1746.96 388.653 1748.23 387.544 1748.39 386.751C1748.87 383.423 1746.65 379.619 1749.97 376.45C1750.61 375.974 1750.45 374.39 1750.93 373.597C1750.93 373.597 1751.4 373.28 1751.56 373.122C1752.03 373.28 1752.99 373.122 1753.46 373.122C1753.94 373.122 1756.31 374.865 1757.11 375.816C1757.9 376.767 1758.22 378.827 1759.01 380.412C1759.01 380.887 1760.12 381.997 1760.28 382.631C1761.7 386.117 1762.81 390.238 1764.24 393.883C1764.87 395.309 1766.93 396.736 1768.04 397.845C1769.78 399.271 1771.37 401.015 1773.27 402.283C1774.06 402.6 1775.65 402.758 1776.76 403.709C1777.71 404.501 1778.98 405.928 1779.61 407.196C1780.88 406.086 1782.15 404.501 1782.94 403.075C1783.89 403.709 1785.63 405.294 1786.27 405.294C1786.58 405.294 1787.53 404.501 1788.33 404.343C1790.7 404.026 1793.4 403.55 1796.09 403.709C1796.09 402.441 1796.09 401.332 1796.09 399.905C1799.42 397.053 1798.79 397.528 1800.53 397.528C1801.01 397.528 1802.59 397.687 1803.22 397.845C1804.18 398.004 1805.13 398.796 1805.6 398.796C1806.08 398.796 1806.24 398.162 1806.39 398.004C1806.87 396.736 1807.19 395.468 1807.35 394.517C1809.25 393.091 1810.2 392.615 1810.99 390.396C1811.94 387.861 1813.68 382.472 1813.68 381.997C1813.68 381.521 1811.94 378.827 1810.99 376.925C1810.67 376.45 1810.52 375.182 1810.2 374.706C1807.82 371.537 1806.08 367.416 1802.43 365.514C1801.96 365.197 1798.95 365.356 1795.93 364.722C1794.83 364.564 1793.72 362.979 1792.77 362.82C1788.96 362.186 1788.01 361.077 1785.16 361.077C1784.68 361.077 1783.41 361.394 1782.78 361.394C1782.31 361.394 1780.72 359.334 1779.45 358.066C1777.87 359.968 1775.01 359.492 1772.95 359.809C1771.37 358.066 1770.42 356.639 1768.36 355.372V352.994L1768.52 352.836ZM1767.88 352.36C1767.88 352.36 1767.41 352.519 1767.41 352.677C1767.41 352.519 1767.09 352.677 1766.62 352.677C1766.14 352.677 1765.66 351.885 1765.03 351.726C1762.97 351.251 1759.32 352.519 1756.63 349.191C1756 348.398 1756.31 346.021 1755.36 344.436C1755.05 343.961 1753.78 343.485 1753.3 342.693C1752.83 342.059 1752.83 340.474 1752.67 339.682C1752.67 337.463 1752.67 334.927 1752.67 332.708C1752.67 330.648 1750.61 327.32 1750.61 326.686C1750.61 326.211 1751.08 324.309 1751.4 323.041C1751.4 321.139 1754.1 317.019 1756 315.434C1758.69 313.056 1761.7 312.106 1764.08 310.362C1764.71 309.728 1765.66 308.302 1766.3 307.351C1768.99 307.034 1773.91 306.4 1774.38 306.4C1776.28 306.4 1776.44 306.083 1778.18 308.777C1778.18 309.253 1777.55 310.204 1777.08 310.362C1775.65 311.155 1773.75 310.996 1772.16 311.789C1770.58 312.422 1768.83 314.007 1766.3 316.226C1765.35 316.86 1763.13 317.811 1761.39 319.554C1759.64 321.615 1760.91 324.626 1759.8 327.954C1759.8 328.746 1757.74 330.648 1756.95 332.233C1756.63 332.867 1756.47 334.293 1756.47 334.927C1756.47 336.512 1758.22 338.414 1759.8 339.523C1760.12 339.84 1760.75 340.474 1760.91 341.108C1761.23 341.9 1761.54 343.644 1762.34 345.07C1762.34 345.387 1763.6 345.862 1763.76 346.655C1764.55 349.191 1765.82 351.409 1767.72 352.043V352.836L1767.88 352.36ZM1811.31 333.659C1811.31 333.659 1809.41 332.233 1808.61 331.599C1808.61 330.331 1808.61 328.429 1808.61 327.161C1808.3 325.26 1805.92 324.15 1805.6 323.199C1804.81 321.456 1805.6 319.079 1803.54 317.969C1802.12 317.019 1800.37 316.86 1799.1 315.909C1798.31 315.592 1796.41 313.69 1794.98 312.739C1794.51 312.422 1788.01 310.362 1788.01 308.46C1788.01 307.985 1788.49 307.034 1788.64 306.4C1789.91 306.083 1792.29 305.449 1792.77 305.449C1793.24 305.449 1793.24 305.766 1793.4 305.925C1794.98 306.242 1796.73 307.351 1797.99 308.302C1799.58 309.411 1801.48 310.679 1803.07 311.789C1803.38 311.947 1803.86 312.898 1804.33 313.215C1806.39 314.641 1807.5 316.068 1809.25 316.068C1809.72 316.068 1811.78 315.434 1812.73 314.958C1813.05 314.641 1813.53 314.007 1813.84 313.215C1814.32 311.789 1813.84 308.777 1815.43 307.826C1815.43 307.668 1816.06 307.985 1816.22 308.46C1817.81 311.313 1816.85 315.275 1817.33 317.494C1817.33 317.494 1819.07 320.981 1819.07 322.882C1819.07 323.358 1818.44 326.528 1818.28 328.112C1818.28 329.856 1818.91 331.757 1818.6 333.818C1818.28 336.037 1816.7 338.255 1815.9 340.474C1814.79 340.157 1813.37 339.523 1812.58 338.731C1812.58 336.67 1812.89 335.561 1811.62 333.501L1811.31 333.659Z" fill="#ECECEC"/>
</svg>
