<svg width="1825" height="720" viewBox="0 0 1825 720" fill="none" xmlns="http://www.w3.org/2000/svg">
<g clip-path="url(#clip0_846_4352)">
<path d="M287.577 238.931V378.159C287.577 383.546 291.469 388.151 296.777 389.052L312.433 391.706V402.233H236.942V391.706L251.212 389.131C256.471 388.181 260.303 383.605 260.303 378.258V264.659H234.456V259.628L287.577 238.931ZM282.902 226.938L229.782 247.635L221.582 250.834V277.543H247.429V372.821C247.429 375.099 245.805 377.04 243.567 377.446L234.664 379.05L224.078 380.961V415.127H325.317V380.852L314.592 379.04L304.372 377.307C302.114 376.921 300.461 374.97 300.461 372.672V226.255C300.461 223.294 297.48 221.254 294.717 222.333L282.912 226.938H282.902Z" fill="#ECECEC"/>
<path d="M782.624 194.921V239.832H814.413V256.994H782.624V357.322C782.624 369.077 791.715 379.109 803.46 379.644C803.846 379.664 804.242 379.674 804.638 379.674C811.135 379.674 815.72 375.376 820.196 371.117C820.969 370.385 821.86 370.078 822.721 370.078C825.098 370.078 827.287 372.435 826.247 375.138C820.671 389.597 808.491 400.203 792.804 400.203C784.773 400.203 777.335 397.539 771.245 393.003C761.629 385.843 755.35 374.039 755.35 360.68V255.429H733.158V250.398L780.653 194.921H782.624ZM795.498 182.047H774.731L770.879 186.553L723.383 242.03L720.293 245.645V268.303H742.486V360.68C742.486 377.555 750.369 393.499 763.57 403.332C772.136 409.71 782.247 413.077 792.814 413.077C812.927 413.077 830.347 400.312 838.269 379.773C840.24 374.673 839.586 368.949 836.516 364.482C833.387 359.927 828.237 357.204 822.741 357.204C818.513 357.204 814.462 358.828 811.353 361.779C809.114 363.908 806.074 366.8 804.658 366.8C804.48 366.8 804.312 366.8 804.143 366.79H804.104H804.064C799.35 366.572 795.518 362.333 795.518 357.332V269.878H827.307V226.968H795.518V182.057L795.498 182.047Z" fill="#ECECEC"/>
<path d="M65.9944 244.15V271.165C65.9944 271.165 90.6135 245.298 119.986 245.289C127.602 245.289 135.524 247.022 143.427 251.399C143.427 251.399 164.303 261.658 164.303 287.654V383.289C164.303 388.715 168.244 393.34 173.602 394.192L190.645 396.915V407.442H115.153V396.915L128.057 394.43C133.256 393.429 137.02 388.874 137.02 383.586V305.103C137.02 293.051 131.593 281.494 121.937 274.275C116.817 270.452 110.281 267.6 102.19 267.6C92.4654 267.6 80.4926 271.71 65.9944 283.178V383.368C65.9944 388.755 69.8863 393.36 75.1944 394.261L90.8512 396.915V407.442H15.3597V396.915L29.6301 394.34C34.8887 393.39 38.7212 388.814 38.7212 383.467V269.868H12.8741V264.837L65.9944 244.14M61.3201 232.157L8.19978 252.855L0 256.053V282.762H25.8471V378.04C25.8471 380.318 24.223 382.259 21.9849 382.665L13.082 384.269L2.49559 386.18V420.346H203.529V385.962L192.685 384.229L181.138 382.387C178.86 382.021 177.177 380.06 177.177 377.743V287.674C177.177 255.964 153.231 242.04 149.547 240.089C140.327 235.009 130.384 232.434 119.996 232.434C104.24 232.434 89.9005 238.416 78.8684 245.031V231.503C78.8684 228.542 75.8876 226.502 73.1246 227.582L61.3201 232.187V232.157ZM78.8684 289.664C87.5634 283.643 95.5552 280.494 102.19 280.494C106.587 280.494 110.529 281.841 114.232 284.604C120.432 289.239 124.146 296.914 124.146 305.113V378.198C124.146 380.446 122.551 382.387 120.333 382.813L112.717 384.279L103.636 386.032L93.0002 384.229L82.7802 382.496C80.5223 382.11 78.8684 380.159 78.8684 377.862V289.655V289.664Z" fill="#ECECEC"/>
<path d="M599.763 163.885V271.027C599.763 271.027 610.092 258.826 625.362 249.864C633.255 245.229 641.722 243.11 649.981 243.11C674.452 243.11 697.14 261.718 698.031 288.832C698.051 289.367 698.061 289.902 698.061 290.447V378.069C698.061 383.496 702.002 388.121 707.36 388.973L724.403 391.696V402.223H648.912V391.696L661.825 389.21C667.025 388.21 670.788 383.655 670.788 378.367V299.884C670.788 287.832 665.351 276.265 655.695 269.056C651.605 265.996 646.614 264.233 640.643 264.233C630.165 264.233 616.687 269.66 599.763 283.049V378.149C599.763 383.536 603.655 388.141 608.963 389.042L624.619 391.696V402.223H549.118V391.696L563.388 389.121C568.647 388.171 572.48 383.595 572.48 378.248V189.603H546.632V184.572L599.763 163.885ZM595.088 151.892L541.958 172.58L533.758 175.778V202.487H559.605V372.821C559.605 375.099 557.981 377.04 555.743 377.446L546.84 379.05L536.254 380.961V415.127H737.287V380.743L726.443 379.01L714.896 377.168C712.619 376.802 710.935 374.841 710.935 372.524V290.466C710.935 289.763 710.925 289.09 710.895 288.397C710.351 272.126 703.468 257.172 691.505 246.299C680.126 235.95 665.381 230.256 649.981 230.256C639.118 230.256 628.353 233.207 618.846 238.772C616.687 240.04 614.607 241.367 612.637 242.714V151.219C612.637 148.258 609.656 146.218 606.903 147.297L595.098 151.892H595.088ZM612.637 289.456C621.302 283.198 631.938 277.117 640.643 277.117C643.594 277.117 645.921 277.84 647.991 279.375C654.21 284.02 657.914 291.685 657.914 299.894V372.979C657.914 375.227 656.319 377.168 654.101 377.594L646.476 379.06L637.394 380.813L626.768 379.01L616.548 377.277C614.291 376.891 612.637 374.94 612.637 372.643V289.446V289.456Z" fill="#ECECEC"/>
<path d="M268.276 162.528C272.663 162.528 277.406 164.033 282.001 167.539C293.766 182.998 283.011 200.002 268.276 200.002C263.888 200.002 259.155 198.496 254.55 194.991C242.785 179.532 253.54 162.528 268.276 162.528ZM268.276 149.654C256.174 149.654 245.32 156.388 239.943 167.232C234.338 178.541 235.972 191.831 244.31 202.784L245.37 204.171L246.756 205.23C253.322 210.231 260.759 212.876 268.276 212.876C280.377 212.876 291.241 206.132 296.608 195.288C302.214 183.978 300.58 170.688 292.241 159.745L291.181 158.359L289.795 157.299C283.229 152.298 275.782 149.664 268.266 149.664L268.276 149.654Z" fill="#ECECEC"/>
<path d="M427.122 237.712C439.976 237.712 451.869 241.436 461.525 247.764H505.525V264.827H478.34C483.044 272.413 485.718 281.148 485.718 290.447C485.718 319.572 459.485 343.181 427.122 343.181C418.496 343.181 410.306 341.507 402.938 338.496C401.918 339.784 401.096 341.012 400.462 342.18C398.531 345.726 397.571 348.746 397.571 351.232C397.571 353.351 398.601 355.411 400.651 357.402C402.71 359.392 406.721 360.828 412.703 361.69C416.179 362.195 424.903 362.63 438.847 362.997C444.105 363.126 448.928 363.155 453.355 363.155C457.504 363.155 461.297 363.126 464.773 363.126C475.677 363.126 483.391 363.393 488.709 365.611C512.189 375.435 511.328 394.736 506.97 408.482C503.158 420.475 495.661 431.041 485.55 438.518C468.22 451.343 446.136 454.739 427.577 454.739C415.159 454.739 404.315 453.214 397.541 451.976C391.351 450.837 385.33 448.857 379.765 445.916C349.026 429.675 371.238 407.264 371.238 407.264C371.902 406.412 375.724 402.332 382.706 395.014C386.479 391.062 386.004 384.675 381.666 381.347C379.537 379.723 377.834 378.178 376.566 376.723C373.882 373.682 372.545 370.226 372.545 366.364C372.545 362.007 374.318 356.906 377.873 351.054C380.537 346.657 385.816 340.893 393.708 333.763C378.487 324.256 368.515 308.401 368.515 290.447C368.515 261.322 394.758 237.712 427.122 237.712ZM427.122 224.838C387.707 224.838 355.641 254.27 355.641 290.447C355.641 307.034 362.444 322.77 374.358 334.723C371.11 338.279 368.624 341.477 366.861 344.379C362.028 352.341 359.671 359.531 359.671 366.364C359.671 373.197 362.167 379.842 366.881 385.21C367.98 386.477 369.238 387.725 370.674 388.983C364.197 395.796 362.335 397.846 361.563 398.757C358.81 401.718 348.58 413.958 350.957 429.496C353.125 443.658 364.554 452.432 373.754 457.294C380.28 460.75 387.509 463.216 395.214 464.633C402.641 465.989 414.267 467.603 427.577 467.603C454.316 467.603 476.4 461.295 493.215 448.857C505.386 439.865 514.626 426.902 519.25 412.374C522.746 401.352 523.231 391.171 520.686 382.1C518.22 373.276 511.526 361.194 493.69 353.727C485.956 350.499 476.429 350.252 464.783 350.252C463.109 350.252 461.357 350.252 459.534 350.261C458.534 350.261 457.504 350.261 456.455 350.261C481.282 339.962 498.602 317.017 498.602 290.427C498.602 286.129 498.147 281.861 497.246 277.681H518.409V234.87H465.179C453.81 228.285 440.738 224.819 427.131 224.819L427.122 224.838Z" fill="#ECECEC"/>
<path d="M401.968 402.223C402.027 402.223 402.086 402.223 402.146 402.223C414.445 402.728 464.872 404.857 470.111 405.838C476.073 406.957 475.884 408.829 475.884 408.829C474.765 412.176 462.278 418.89 454.454 419.266C453.989 419.286 453.424 419.296 452.771 419.296C443.66 419.296 417.08 417.306 410.227 416.781C409.009 416.692 407.801 416.513 406.622 416.196C397.353 413.711 397.145 408.462 398.105 405.115C398.601 403.392 400.195 402.223 401.968 402.223ZM401.968 389.349C394.481 389.349 387.806 394.36 385.736 401.55C384.142 407.105 384.736 412.75 387.4 417.464C390.46 422.871 395.798 426.624 403.285 428.635C405.176 429.14 407.147 429.467 409.286 429.625C417.04 430.219 443.254 432.18 452.771 432.18C453.652 432.18 454.405 432.16 455.068 432.131C462.377 431.784 469.745 428.546 473.498 426.654C484.292 421.198 487.006 416.196 488.095 412.919L488.551 411.552L488.699 410.126C488.927 407.848 489.224 396.341 472.488 393.192C467.071 392.181 431.538 390.557 402.671 389.369C402.453 389.369 402.205 389.359 401.968 389.359V389.349Z" fill="#ECECEC"/>
<path d="M424.368 262.678C432.826 262.678 440.808 273.928 442.511 288.595C444.274 303.895 438.54 317.136 429.696 318.156C429.33 318.195 428.973 318.215 428.607 318.215C420.16 318.215 412.178 306.975 410.474 292.298C408.702 276.998 414.436 263.768 423.279 262.738C423.646 262.698 424.002 262.678 424.368 262.678ZM424.368 249.804C423.517 249.804 422.655 249.854 421.813 249.953C405.384 251.864 395.016 270.71 397.689 293.784C400.195 315.402 413.198 331.099 428.607 331.099C429.459 331.099 430.32 331.049 431.172 330.95C447.591 329.059 457.96 310.213 455.306 287.129C452.8 265.501 439.788 249.814 424.378 249.804H424.368Z" fill="#ECECEC"/>
<path d="M953.225 303.647C997.789 303.647 1016.53 327.554 1016.53 359.719C1016.53 391.884 997.789 415.79 953.225 415.79C908.661 415.79 889.924 391.884 889.924 359.719C889.924 327.554 908.661 303.647 953.225 303.647ZM953.225 393.954C976.834 393.954 984.657 378.466 984.657 359.719C984.657 340.972 976.834 325.484 953.225 325.484C929.616 325.484 921.792 340.982 921.792 359.719C921.792 378.456 929.616 393.954 953.225 393.954Z" fill="#ECECEC"/>
<path d="M1038.21 306.45H1124.54V329.178H1069.2V351.311H1121.44V373.148H1069.2V412.988H1038.21V306.45Z" fill="#ECECEC"/>
<path d="M1232.99 328.287H1191.97V306.45H1305V328.287H1263.98V412.988H1233V328.287H1232.99Z" fill="#ECECEC"/>
<path d="M1319.6 303.925H1350.59V346.271H1402.97V303.925H1433.96V410.463H1402.97V368.117H1350.59V410.463H1319.6V303.925Z" fill="#ECECEC"/>
<path d="M1457.12 303.925H1548.6V325.761H1488.1V345.538H1545.35V367.374H1488.1V388.626H1549.93V410.463H1457.12V303.925Z" fill="#ECECEC"/>
<path d="M618.638 466.207H649.625V550.909H705.617V572.745H618.638V466.207Z" fill="#ECECEC"/>
<path d="M720.818 466.207H751.805V572.745H720.818V466.207Z" fill="#ECECEC"/>
<path d="M847.865 571.903H810.679L765.669 465.365H799.31L830.297 546.66L862.611 465.365H892.717L847.855 571.903H847.865Z" fill="#ECECEC"/>
<path d="M909.116 464.94H940.103V571.477H909.116V464.94Z" fill="#ECECEC"/>
<path d="M965.713 461.573H1008.97L1053.72 538.302H1054.02V461.573H1082.73V568.11H1041.71L993.461 491.381H993.164V568.11H965.723V461.573H965.713Z" fill="#ECECEC"/>
<path d="M1162.75 509.108H1219.26V565.476C1202 568.13 1184.58 570.497 1167.02 570.497C1128.66 570.497 1099.3 556.038 1099.3 516.485C1099.3 476.932 1125.56 458.344 1164.81 458.344C1191.52 458.344 1219.71 466.603 1220.74 494.936H1188.87C1188.42 483.28 1178.09 479.002 1164.96 479.002C1140.18 479.002 1131.17 494.491 1131.17 513.673C1131.17 537.133 1144.16 549.829 1168.94 549.829C1176.32 549.829 1184.73 548.502 1190.93 547.175V528.874H1162.75V509.098V509.108Z" fill="#ECECEC"/>
<path d="M1321.45 460.305H1380.62C1394.65 460.305 1408.21 462.078 1418.99 469.158C1432.27 477.863 1440.97 493.213 1440.97 512.544C1440.97 531.875 1434.04 545.452 1424.01 554.008C1414.86 561.832 1400.1 566.843 1378.42 566.843H1321.46V460.305H1321.45ZM1352.44 542.719H1366.46C1391.55 542.719 1409.1 539.292 1409.1 513.188C1409.1 490.767 1394.5 484.439 1371.62 484.439H1352.44V542.719Z" fill="#ECECEC"/>
<path d="M1705.1 460.305H1764.27C1778.29 460.305 1791.86 462.078 1802.64 469.158C1815.92 477.863 1824.62 493.213 1824.62 512.544C1824.62 531.875 1817.69 545.452 1807.66 554.008C1798.51 561.832 1783.75 566.843 1762.06 566.843H1705.11V460.305H1705.1ZM1736.09 542.719H1750.11C1775.19 542.719 1792.75 539.292 1792.75 513.188C1792.75 490.767 1778.14 484.439 1755.27 484.439H1736.09V542.719Z" fill="#ECECEC"/>
<path d="M1459.33 459.463H1547.47V481.3H1489.18V501.076H1544.34V522.912H1489.18V544.165H1548.75V566.001H1459.32V459.463H1459.33Z" fill="#ECECEC"/>
<path d="M1606.85 459.889H1641.58L1693.46 566.427H1660.95L1651.54 545.323H1593.43L1583.75 566.427H1553.86L1606.85 459.889ZM1622.84 484.013L1605.52 522.081H1639.57L1622.83 484.013H1622.84Z" fill="#ECECEC"/>
</g>
<defs>
<clipPath id="clip0_846_4352">
<rect width="1824.62" height="425.745" fill="white" transform="translate(0 147)"/>
</clipPath>
</defs>
</svg>
