<svg width="1825" height="720" viewBox="0 0 1825 720" fill="none" xmlns="http://www.w3.org/2000/svg">
<path d="M91.162 370.736C110.475 370.736 130.248 369.472 151.4 365.563C137.605 388.785 110.59 390.509 63.687 390.509H47.8227V411.546C47.8227 471.785 47.8227 506.157 58.6288 518.228H0C10.3463 507.422 10.8061 466.611 10.8061 392.233V374.645C10.8061 296.818 10.8061 254.168 0 242.558H29.6593C50.3518 242.558 76.5623 241.293 109.21 241.293C128.179 241.293 143.583 242.213 155.654 243.822L157.378 279.574C147.492 261.985 124.73 258.077 83.3449 258.077C72.5388 258.077 62.3075 258.537 51.5014 259.341C48.5125 273.481 47.5928 302.336 47.5928 348.779V369.472C64.8365 370.276 79.4363 370.736 91.0471 370.736H91.162Z" fill="#ECECEC"/>
<path d="M161.976 459.945V401.546C161.976 350.505 161.516 324.294 152.32 317.397C172.553 314.178 183.589 311.879 186.807 311.879C195.544 311.879 193.245 319.696 194.625 339.929C208.879 317.857 223.594 307.74 243.367 307.74C259.461 307.74 268.198 314.638 268.198 325.214C268.198 334.411 262.22 339.009 250.264 339.009C242.447 339.009 234.17 337.629 225.433 337.629C197.843 337.629 194.625 352.804 194.625 409.363C194.625 425.458 195.084 443.851 195.084 467.303C195.084 495.352 196.924 511.447 204.741 518.344H152.32C161.057 511.447 161.976 493.053 161.976 459.945Z" fill="#ECECEC"/>
<path d="M263.6 250.261L298.087 228.648L317.4 260.377L283.372 281.529L263.6 250.261ZM276.935 459.945V390.05C276.935 344.067 276.475 318.776 267.278 312.798C283.372 312.338 298.087 310.959 312.342 307.74C310.503 323.834 310.043 366.139 310.043 434.654V460.864C310.043 492.133 310.962 511.446 319.699 518.344H267.278C276.015 511.446 276.935 493.053 276.935 459.945Z" fill="#ECECEC"/>
<path d="M324.757 329.352V314.637L347.289 312.798L348.209 255.778L381.777 245.662L380.397 312.798H417.644C420.863 312.798 421.322 312.338 421.322 315.557C421.322 324.753 408.907 329.352 384.076 329.352H380.397L378.098 450.288V453.507C378.098 482.936 383.616 496.731 401.55 496.731C412.126 496.731 419.943 492.133 428.68 482.936L427.3 503.629C416.264 516.504 400.63 523.861 383.616 523.861C357.406 523.861 344.53 504.548 344.53 465.922V462.244L346.829 330.271L324.757 329.352Z" fill="#ECECEC"/>
<path d="M467.766 503.628H524.325C568.469 503.628 596.519 501.789 616.292 475.118L610.314 518.343H419.023L562.492 327.971H518.807C476.503 327.971 452.131 332.11 437.877 355.561L446.613 312.797H611.234L467.766 503.628Z" fill="#ECECEC"/>
<path d="M763.324 396.948V380.164C763.324 344.067 762.864 307.05 760.795 265.78H715.156C700.097 265.78 686.761 266.585 672.622 276.586L682.968 242.559H901.504C890.698 259.343 877.018 264.516 855.061 264.516L802.64 264.975C800.915 310.154 800.455 350.16 800.455 386.257C800.455 465.003 800.455 506.733 811.261 518.344H752.748C763.094 507.538 763.554 468.912 763.554 397.063L763.324 396.948Z" fill="#ECECEC"/>
<path d="M905.067 436.953C905.067 402.465 904.148 358.321 904.148 302.681V265.435C904.148 230.488 903.228 210.715 894.491 203.817L940.015 196L936.336 344.526C956.569 318.316 974.502 307.74 1003.47 307.74C1027.84 307.74 1043.94 318.776 1050.83 341.307C1054.97 354.183 1055.43 379.933 1055.43 419.019V470.061C1055.43 493.972 1055.89 509.607 1065.09 518.343H1020.03C1021.87 486.615 1022.32 441.091 1022.32 381.773C1022.32 348.665 1014.05 333.49 983.239 333.49C937.256 333.49 937.256 365.679 937.256 415.801V459.945C937.256 493.053 938.175 511.446 946.912 518.343H894.491C903.228 513.285 905.067 486.615 905.067 436.953Z" fill="#ECECEC"/>
<path d="M1234.31 473.74C1234.31 495.812 1202.12 523.862 1160.74 523.862C1106.47 523.862 1070.15 482.937 1070.15 416.721C1070.15 350.505 1108.77 307.74 1165.79 307.74C1209.48 307.74 1237.53 333.951 1237.53 368.438C1237.53 386.372 1215.92 386.372 1155.68 386.372C1142.34 386.372 1127.17 386.832 1111.07 385.452C1108.77 393.269 1107.85 402.006 1107.85 411.663C1107.85 465.463 1134.98 494.893 1175.45 494.893C1197.06 494.893 1216.83 486.156 1234.31 468.222V473.74ZM1117.97 372.117C1123.03 372.117 1132.69 373.037 1148.78 373.037H1154.76C1187.41 373.037 1199.36 372.577 1199.36 357.402C1199.36 339.469 1183.73 323.375 1161.65 323.375C1136.36 323.375 1117.05 343.147 1113.83 372.117H1117.97Z" fill="#ECECEC"/>
<path d="M1545.62 301.531C1533.2 271.412 1511.24 256.353 1479.4 256.353C1417.44 256.353 1380.42 298.887 1380.42 370.736C1380.42 446.379 1423.42 491.558 1486.64 491.558C1517.57 491.558 1544.7 479.487 1563.66 457.53C1553.32 496.616 1516.76 523.286 1466.41 523.286C1392.38 523.286 1337.77 466.956 1337.77 383.037C1337.77 293.139 1391.57 237.27 1484 237.27C1505.96 237.27 1526.19 242.443 1548.03 242.443L1545.5 301.416L1545.62 301.531Z" fill="#ECECEC"/>
<path d="M1685.29 485.236C1672.87 510.527 1652.64 523.862 1626.89 523.862C1593.78 523.862 1568.95 501.33 1568.95 475.58C1568.95 445.23 1597.46 430.976 1644.82 410.283C1678.39 395.568 1685.75 390.97 1685.75 364.3C1685.75 334.87 1674.25 322.455 1647.12 322.455C1634.25 322.455 1625.05 326.593 1619.07 334.87C1612.18 344.067 1610.34 365.219 1591.94 365.219C1581.37 365.219 1574.93 358.782 1574.93 348.206C1574.93 326.593 1604.82 307.74 1662.3 307.74C1703.22 307.74 1719.32 320.616 1719.32 351.884C1719.32 367.059 1717.02 396.028 1717.02 441.552C1717.02 487.075 1722.08 511.906 1732.65 518.344L1691.27 521.103C1687.59 510.527 1685.75 498.571 1685.29 485.236ZM1606.66 466.843C1606.66 484.776 1620.91 496.732 1642.53 496.732C1671.95 496.732 1684.37 478.798 1684.37 440.172V407.984C1634.71 427.297 1606.66 439.712 1606.66 466.843Z" fill="#ECECEC"/>
<path d="M1720.7 329.352V314.637L1743.23 312.798L1744.15 255.778L1777.72 245.662L1776.34 312.798H1813.58C1816.8 312.798 1817.26 312.338 1817.26 315.557C1817.26 324.753 1804.85 329.352 1780.02 329.352H1776.34L1774.04 450.288V453.507C1774.04 482.936 1779.56 496.731 1797.49 496.731C1808.07 496.731 1815.88 492.133 1824.62 482.936L1823.24 503.629C1812.2 516.504 1796.57 523.861 1779.56 523.861C1753.35 523.861 1740.47 504.548 1740.47 465.922V462.244L1742.77 330.271L1720.7 329.352Z" fill="#ECECEC"/>
</svg>
