<svg width="1825" height="720" viewBox="0 0 1825 720" fill="none" xmlns="http://www.w3.org/2000/svg">
<g clip-path="url(#clip0_647_2404)">
<path d="M1670.33 530.437V499.161H1813.88V464.172H1670.33V433.69H1822.65V393.657H1613.81V426.145C1611.27 416.533 1606.96 409.524 1600.71 404.798C1590.1 396.318 1575.61 393.657 1542.68 393.657H1328.14V474.776C1328.14 487.855 1328.05 495.719 1327.86 498.367C1327.58 511.89 1324.8 519.575 1319.26 523.546C1312.33 528.59 1300.68 529.643 1258.52 529.643C1216.36 529.643 1207.21 525.671 1204.45 505.794C1203.61 501.028 1203.61 500.492 1203.61 481.15V393.677H873.558V474.796C873.558 487.875 873.465 495.739 873.28 498.387C873.002 511.91 870.242 519.595 864.702 523.566C857.791 528.61 846.174 529.662 804.116 529.662C762.057 529.662 752.923 525.691 750.163 505.813C749.329 501.048 749.329 500.511 749.329 481.17V393.697H500.294V480.415C499.877 478.152 499.38 475.987 498.765 473.743C494.893 459.307 480.933 448.405 466.02 445.406C455.515 443.222 437.286 442.13 414.906 442.13C380.354 442.13 365.997 443.758 353.824 448.663C337.779 455.256 329.637 467.726 327.095 491.039C325.825 476.484 321.992 466.813 314.585 459.029C302.432 446.221 285.732 441.316 252.927 441.316C217.581 441.316 205.408 447.035 196.929 467.746V389.785H148.277V444.294H71.9644V414.309H23.9883V444.294H0.000244141V476.186H24.2663V527.975C24.2663 547.316 27.2648 555.775 36.7965 563.679C47.1622 572.138 58.8782 574.58 91.8617 574.58C116.664 574.58 130.028 571.304 139.024 562.864C146.113 556.053 148.297 547.872 148.297 527.16V571.582H196.948V511.354C196.948 484.367 206.003 477.556 242.482 477.556C258.328 477.556 267.364 479.462 272.745 484.367C278.404 488.994 278.96 491.992 278.96 510.262V571.582H327.612V531.211C328.585 536.97 330.094 541.776 332.278 546.502C338.077 558.496 350.508 567.769 365.441 570.49C377.057 572.396 396.955 573.766 418.222 573.766C453.033 573.766 468.522 571.86 480.674 566.141C489.412 562.169 496.322 556.669 500.294 548.428V570.51H553.83V509.01H693.449C695.336 545.906 705.92 559.429 734.674 567.849C748.236 571.304 758.463 571.82 810.49 572.098L831.519 571.84C842.58 571.84 847.564 571.84 856.143 571.582C880.21 571.324 896.811 567.074 910.096 557.265C926.419 543.225 930.291 530.218 929.735 486.492V437.463H1007V570.529H1062.48V437.463H1147.32V488.895C1146.48 541.378 1155.36 558.079 1188.92 567.888C1202.5 571.344 1212.77 571.86 1264.91 572.138L1285.98 571.88C1297.08 571.88 1302.07 571.88 1310.66 571.622C1334.79 571.363 1351.43 567.114 1364.74 557.304C1374.29 549.103 1379.59 541.239 1382.23 527.419V570.569H1438.59V526.048H1525.37C1550.76 525.512 1556.34 529.484 1556.62 548.587V570.589H1824.62V530.556H1670.33V530.437ZM148.277 517.033H112.573V522.216C112.573 537.208 108.483 541.021 92.3979 541.021C76.3132 541.021 71.9644 536.394 71.9644 518.125V476.146H148.277V517.033ZM374.555 489.768C374.555 484.308 376.481 479.681 380.354 476.404C385.318 471.777 393.619 470.407 414.072 470.407C447.234 470.407 453.867 473.942 454.145 491.933H374.555V489.749V489.768ZM453.589 530.933C452.477 542.649 446.122 545.37 418.222 545.37C399.993 545.37 388.098 544 383.69 541.835C377.891 538.559 374.575 532.303 374.575 523.03V517.033H500.314V530.933H453.608H453.589ZM693.171 468.938H553.83V433.69H693.171V468.938ZM1527.05 482.719H1438.61V437.126H1529C1546.02 437.126 1550.76 437.92 1554.95 442.17C1558.59 445.883 1559.7 450.649 1559.7 462.047C1559.7 479.542 1554.4 482.719 1527.05 482.719ZM1613.81 531.986C1612.24 513.3 1604.3 506.032 1584.52 502.874C1600.65 499.459 1609.68 492.33 1613.81 477.794V531.986Z" fill="#ECECEC"/>
<path d="M550.752 184.12C546.205 173.178 539.413 165.295 532.225 159.774C519.873 149.726 502.975 146.569 464.61 146.569H277.69V192.936C274.572 174.012 266.53 161.8 252.927 155.366C233.983 146.569 216.051 145 133.285 145C71.1303 145 49.8628 147.82 29.9059 158.821C6.65256 171.391 0.000244141 191.189 0.000244141 246.512C0.000244141 308.746 6.31498 330.748 28.2577 343.934C46.209 354.935 66.8212 357.755 130.624 357.755C174.827 357.755 201.416 357.437 215.039 356.186C249.611 353.982 267.562 343.596 276.2 325.665C276.756 324.553 277.253 323.421 277.69 322.249V356.166H343.359V303.365H444.454C474.042 302.729 480.535 307.455 480.853 330.073V356.166H610.742V168.273H550.752V184.12ZM277.69 277.312H216.707C216.707 292.403 213.053 298.996 203.402 302.769C194.089 306.542 186.781 306.86 136.601 306.86C71.7856 306.86 66.8014 303.087 66.8014 252.807C66.8014 218.87 68.4694 210.371 76.4323 203.461C84.7328 196.55 94.7212 195.28 149.886 195.28C208.386 195.28 213.371 197.166 214.701 220.102H277.69V277.292V277.312ZM446.4 252.172H343.359V198.119H448.684C468.522 198.119 474.042 199.053 478.907 204.096C483.137 208.505 484.428 214.144 484.428 227.667C484.428 248.419 478.252 252.172 446.4 252.172ZM550.752 302.709C544.477 285.989 529.028 278.642 508.892 275.365C527.757 271.295 542.988 262.716 550.752 245.261V302.709Z" fill="#ECECEC"/>
<path d="M1762.66 214.164V209.855C1762.66 190.454 1769.61 184.616 1792.71 184.616C1798.41 184.616 1804.09 184.934 1813.9 185.232V150.441C1800.29 149.528 1793.03 149.21 1784.17 149.21C1753.81 149.21 1739.89 151.354 1729.12 158.146C1713.62 167.38 1708.25 180.922 1708.25 209.557V214.184H1675.69V234.26C1669.25 223.696 1656.23 215.932 1640.24 213.092C1625.05 210.63 1601.02 209.081 1576.66 209.081C1536.8 209.081 1512.44 211.861 1497.58 218.314C1480.33 226.039 1473.76 237.934 1472.29 268.157C1467 241.766 1450.42 230.09 1418.02 228.581C1407.23 227.945 1378.66 227.012 1372.96 227.012H1312.97C1292.02 226.694 1290.75 226.377 1286.93 225.443C1277.72 223.239 1273.29 217.58 1273.29 208.783C1273.29 196.848 1279.01 192.44 1296.15 191.189C1306.3 190.553 1333.92 189.938 1354.55 189.938C1396.13 189.938 1402.47 192.46 1402.47 210.689H1465.3C1465.3 179.254 1460.53 166.367 1445.94 156.637C1430.7 146.886 1413.57 145 1339.3 145C1292.97 145 1268.21 146.569 1251.07 150.977C1229.65 156.061 1217.95 165.513 1212.91 183.782V146.569H872.923L796.014 285.791L718.827 146.569H550.752V163.587H616.521V356.186H678.794L676.888 194.326L769.365 356.186H820.836L914.902 194.326L911.725 356.186H1211.26V320.959C1213.34 338.135 1230.16 346.754 1230.16 346.754C1248.89 356.186 1265.07 357.755 1338.39 357.755C1384.4 357.755 1415.83 355.868 1431.7 352.413C1456.74 347.091 1469.01 335.058 1472.86 310.394C1474.55 329.597 1479.04 337.857 1489.38 345.483C1503.3 355.948 1525.13 359.641 1574.16 359.641C1589.35 359.641 1610.53 358.708 1623.18 357.795C1642.8 355.948 1651.34 353.803 1661.47 347.627C1678.87 337.46 1682.66 325.149 1682.66 280.509C1682.66 266.767 1682.22 257.394 1681.07 250.186H1708.27V357.953H1762.68V250.186H1817.09V214.164H1762.68H1762.66ZM1326.95 313.135C1306.63 313.135 1288.54 311.884 1283.78 309.997C1276.15 307.177 1274.56 303.702 1273.95 289.246H1210.8C1210.48 293.654 1210.48 297.725 1210.48 299.612C1210.48 302.789 1210.6 305.827 1210.82 308.726H1038.08V271.632H1199.2V230.15H1038.08V194.009H1210.9C1210.18 199.37 1209.85 205.308 1209.85 211.92C1209.85 240.515 1216.84 257.176 1232.07 265.039C1245.71 271.95 1261.89 274.154 1300.93 274.154H1359.34C1381.55 274.366 1394.99 275.207 1399.65 276.676C1406.32 278.88 1410.43 285.155 1410.43 293.654C1410.43 310.931 1401.53 313.135 1326.97 313.135H1326.95ZM1578.25 320.542C1532.38 320.542 1526.68 316.53 1526.68 283.904C1526.68 253.125 1533.33 248.18 1576.34 248.18C1622.85 248.18 1627.91 251.874 1627.91 285.135C1627.91 316.53 1622.21 320.542 1578.25 320.542Z" fill="#ECECEC"/>
</g>
<defs>
<clipPath id="clip0_647_2404">
<rect width="1824.62" height="429.541" fill="white" transform="translate(0.000244141 145)"/>
</clipPath>
</defs>
</svg>
