<svg width="1826" height="720" viewBox="0 0 1826 720" fill="none" xmlns="http://www.w3.org/2000/svg">
<g clip-path="url(#clip0_261_622)">
<path d="M1265.09 253.901C1261.85 257.743 1256.02 263.506 1250.37 275.139L1153.26 477.28L1104.99 387.95L1056.72 477.28L959.593 275.139C953.981 263.506 948.136 257.743 944.908 253.901H1021.61C1018.48 256.792 1015.66 259.664 1015.66 264.116C1015.66 267.958 1016.92 271.459 1018.48 276.252L1059.77 365.187L1105.01 276.108L1150.25 365.187L1191.54 276.252C1193.1 271.459 1194.36 267.958 1194.36 264.116C1194.36 259.664 1191.54 256.792 1188.4 253.901H1265.11H1265.09Z" fill="#ECECEC"/>
<path d="M546.296 430.999H510.74V266.378C510.74 260.759 514.918 256.72 520.243 253.901H449.149C454.475 256.72 458.67 260.759 458.67 266.378V463.295C458.67 468.914 454.475 472.954 449.149 475.772H569.821V421.036C564.119 427.265 559.995 430.999 546.296 430.999Z" fill="#ECECEC"/>
<path d="M690.708 430.999H655.152V266.378C655.152 260.759 659.33 256.72 664.655 253.901H593.561C598.886 256.72 603.082 260.759 603.082 266.378V463.295C603.082 468.914 598.886 472.954 593.561 475.772H714.233V421.036C708.531 427.265 704.407 430.999 690.708 430.999Z" fill="#ECECEC"/>
<path d="M170.098 463.314V266.379C170.098 260.76 174.15 256.72 179.314 253.92H112.2C117.364 256.72 121.434 260.76 121.434 266.379V345.53H58.5166V266.379C58.5166 260.76 62.5688 256.72 67.7328 253.92H0.619141C5.78311 256.72 9.83539 260.76 9.83539 266.379V463.314C9.83539 468.915 5.78311 472.972 0.619141 475.773H67.7328C62.5688 472.972 58.5166 468.915 58.5166 463.314V392.277H121.434V463.314C121.434 468.915 117.364 472.972 112.2 475.773H179.314C174.15 472.972 170.098 468.915 170.098 463.314Z" fill="#ECECEC"/>
<path d="M1763 253.902C1767.79 256.72 1771.56 260.759 1771.56 266.378V362.764L1668.03 239.217V463.296C1668.03 468.915 1664.26 472.954 1659.47 475.772H1721.73C1716.94 472.954 1713.17 468.915 1713.17 463.296V364.828L1816.7 485.143V266.378C1816.7 260.759 1820.45 256.72 1825.24 253.902H1763Z" fill="#ECECEC"/>
<path d="M421.465 475.772C418.183 472.254 414.275 466.958 411.872 460.8L314.85 232L217.829 460.8C215.426 466.958 211.517 472.254 208.236 475.772H276.228C273.216 472.523 271.423 469.884 271.423 465.199C271.423 461.68 272.032 459.328 273.521 455.504L278.631 442.597H351.07L356.18 455.504C357.668 459.328 358.278 461.68 358.278 465.199C358.278 469.884 356.485 472.523 353.472 475.772H421.465ZM292.688 400.337L314.563 331.078H315.137L337.012 400.337H292.688Z" fill="#ECECEC"/>
<path d="M844.444 244.656C782.494 244.656 727.824 296.341 727.824 366.336C727.824 436.331 782.476 487.998 844.444 487.998C906.411 487.998 961.081 436.331 961.081 366.336C961.081 296.341 906.393 244.656 844.444 244.656ZM844.444 434.052C804.047 434.052 780.074 400.678 780.074 366.336C780.074 331.993 804.047 298.638 844.444 298.638C884.841 298.638 908.832 332.011 908.832 366.336C908.832 400.66 884.841 434.052 844.444 434.052Z" fill="#ECECEC"/>
<path d="M1305.36 339.677H1370.59C1379.17 339.677 1383.16 334.291 1387.75 328.565V399.601C1383.16 393.893 1379.17 388.507 1370.59 388.507H1305.97C1315.12 413.119 1337.94 429.725 1365.45 429.725C1386.61 429.725 1401.02 422.76 1415.73 410.714V482.056C1415.12 481.427 1413.59 480.476 1411.75 479.524C1410.22 478.591 1408.37 477.945 1406.53 477.945C1403.78 477.945 1397.65 478.896 1390.28 479.865C1382.63 481.14 1374.04 482.074 1365.45 482.074C1297.1 482.074 1248.95 431.664 1248.95 364.092C1248.95 296.52 1297.1 246.11 1365.45 246.11C1381.39 246.11 1395.8 252.447 1402.55 252.447C1408.37 252.447 1412.35 249.593 1415.73 246.11V319.696C1401.94 307.004 1387.52 298.441 1365.45 298.441C1337.1 298.441 1314.01 313.269 1305.36 339.677Z" fill="#ECECEC"/>
<path d="M1505.22 339.677H1570.45C1579.02 339.677 1583.02 334.291 1587.61 328.565V399.601C1583.02 393.893 1579.02 388.507 1570.45 388.507H1505.83C1514.97 413.119 1537.8 429.725 1565.3 429.725C1586.46 429.725 1600.88 422.76 1615.58 410.714V482.056C1614.97 481.427 1613.44 480.476 1611.6 479.524C1610.07 478.591 1608.23 477.945 1606.38 477.945C1603.64 477.945 1597.5 478.896 1590.14 479.865C1582.48 481.14 1573.89 482.074 1565.3 482.074C1496.95 482.074 1448.81 431.664 1448.81 364.092C1448.81 296.52 1496.95 246.11 1565.3 246.11C1581.24 246.11 1595.66 252.447 1602.4 252.447C1608.23 252.447 1612.21 249.593 1615.58 246.11V319.696C1601.79 307.004 1587.37 298.441 1565.3 298.441C1536.95 298.441 1513.86 313.269 1505.22 339.677Z" fill="#ECECEC"/>
</g>
<defs>
<clipPath id="clip0_261_622">
<rect width="1824.62" height="256.016" fill="white" transform="translate(0.619141 232)"/>
</clipPath>
</defs>
</svg>
