<svg width="1826" height="720" viewBox="0 0 1826 720" fill="none" xmlns="http://www.w3.org/2000/svg">
<g clip-path="url(#clip0_1162_2738)">
<path d="M21.1539 259.878C22.0915 259.55 23.1698 259.362 24.2012 259.409C24.8107 259.409 25.3733 259.362 25.9828 259.456C26.5922 259.503 27.1548 259.456 27.7174 259.503C28.1863 259.596 28.5144 259.925 28.9364 260.112C29.4052 260.347 29.6396 260.487 29.9209 260.956C30.3897 261.706 30.9992 262.456 31.4211 263.253C31.4211 263.253 30.7648 271.364 30.8586 272.817C30.8586 275.302 31.7493 279.428 31.2336 285.054C30.7179 290.68 30.4835 294.899 30.4835 297.759C30.4835 302.259 30.9523 306.151 31.89 309.386C32.265 312.058 31.4211 314.402 29.3114 316.512C28.702 317.215 26.686 318.668 23.2636 320.919C23.1229 321.481 22.4197 322.794 21.1539 324.997C20.2631 326.685 19.7943 328.092 19.7943 329.17C19.7943 330.436 20.2631 331.514 21.2945 332.452C23.8262 332.358 43.7044 332.452 72.2089 332.686C72.3027 332.592 73.0059 332.452 74.3186 332.217C75.1625 332.03 75.6313 331.561 75.7251 330.764C75.772 329.92 75.8189 329.123 75.8189 328.373C75.8189 325.794 70.2399 322.982 67.7082 319.887C64.8484 316.324 63.1606 313.418 62.6918 311.261C63.0668 309.948 63.2544 308.448 63.2544 306.713C63.2544 304.979 62.9731 302.353 62.4105 298.743C61.801 295.133 61.5197 292.508 61.5197 290.773C61.5197 289.882 61.6135 288.992 61.7541 288.101C62.598 285.851 63.0668 282.709 63.0668 278.678C63.0668 277.599 63.0199 275.958 62.9262 273.708C62.8324 271.458 62.8324 269.77 62.8324 268.692C62.8324 265.457 63.0668 262.831 63.6294 260.909C64.2389 258.518 65.786 257.299 68.2708 257.299C71.0837 257.299 73.6623 258.753 76.0533 261.706C78.0692 264.425 80.0852 267.144 82.1011 269.864C84.6797 272.63 87.5864 273.896 90.8213 273.567C95.2751 273.099 97.4786 271.505 97.4786 268.692C96.4472 261.472 93.2123 253.22 87.6801 243.938C87.0238 243.281 84.1171 243 79.1006 243C76.2408 243 71.5526 243.094 65.0359 243.328C58.191 243.656 53.5966 243.797 51.1587 243.797C48.3926 243.797 44.0794 243.75 38.266 243.563C31.9837 243.422 27.3424 243.328 24.295 243.328C23.7793 243.328 23.498 243.234 22.9823 243.234C22.4197 243.281 21.8571 243.469 21.2945 243.469C20.4038 243.563 19.513 243.75 18.6691 244.031C16.7 244.594 14.6841 244.922 12.7619 245.672C11.5899 246.141 10.4647 246.657 9.33949 247.219C8.07366 247.782 6.80784 248.345 5.63577 249.048C4.13554 249.939 2.96347 251.345 2.0727 252.798C1.65076 253.502 1.2757 254.205 0.947525 254.908C0.66623 255.658 0.4787 256.221 0.713112 257.018C0.994407 258.002 0.85376 258.893 0.806877 259.878C0.759995 260.487 0.713112 261.097 0.759995 261.659C0.806877 262.409 1.04129 263.113 1.2757 263.769C1.60388 264.707 1.83829 265.644 2.21335 266.535C2.49465 267.191 2.72906 267.895 3.19788 268.41C3.80736 269.114 4.46371 269.817 5.16695 270.473C6.01083 271.27 6.94848 272.161 8.07366 272.536C8.58937 272.677 9.0582 272.63 9.5739 272.395C10.2771 272.114 11.0273 271.973 11.7305 271.645C12.1993 271.364 12.6681 270.895 13.0432 270.473C13.512 270.004 13.9809 269.582 14.3559 268.973C14.8247 268.176 15.5749 267.426 15.9499 266.535C16.5594 265.129 17.1689 263.581 18.294 262.55C19.1379 261.706 19.9349 260.253 21.1539 259.878Z" fill="#ECECEC"/>
<path d="M214.919 331.045C215.247 330.108 215.388 329.123 215.388 328.138C215.388 325.654 214.31 322.888 212.153 319.887C210.278 317.449 208.403 315.011 206.574 312.527C205.871 306.948 205.496 302.728 205.402 299.868C203.996 296.118 203.808 290.539 204.746 283.038C205.73 275.583 205.496 270.004 204.136 266.347C204.793 264.566 205.543 262.831 206.34 261.143C207.184 258.987 208.262 257.393 209.575 256.361C209.809 255.752 210.84 254.252 212.622 251.814C213.982 249.798 214.685 248.157 214.685 246.844C214.685 245.813 214.263 244.828 213.419 243.938C210.465 243.984 193.353 244.031 162.13 244.031C161.801 245.063 161.801 246.282 161.989 247.735L162.458 251.579C164.474 255.564 167.146 258.284 170.381 259.831C172.069 260.956 172.959 262.737 172.959 265.316C172.959 265.879 172.819 267.238 172.584 269.395C170.803 272.723 168.646 274.646 166.068 275.208C164.943 275.208 162.973 275.443 160.254 275.864C157.535 276.286 155.519 276.474 154.113 276.474C150.081 276.474 146.987 275.067 144.783 272.161C144.08 268.223 144.314 265.035 145.486 262.55C148.909 261.19 151.347 258.705 152.847 254.955C153.691 252.892 154.347 249.47 154.816 244.735H102.589C101.932 245.438 101.37 245.953 100.854 246.235C101.229 252.751 103.526 257.299 107.793 259.831C110.84 262.784 112.34 267.004 112.34 272.395C112.34 273.989 112.2 276.333 111.872 279.521C111.59 282.709 111.403 285.053 111.403 286.601C111.403 287.866 111.496 288.992 111.637 290.07C111.59 291.898 111.684 294.383 112.012 297.665C112.387 301.134 112.575 303.666 112.575 305.213C112.575 309.339 111.731 312.808 110.043 315.668C103.104 319.887 99.9633 324.2 100.479 328.701C100.62 329.404 100.807 330.061 100.948 330.623C101.089 331.233 101.604 331.655 102.448 331.983C106.199 331.748 112.528 331.748 121.529 331.983C130.531 332.217 136.907 332.217 140.61 331.983H142.814C143.611 331.983 144.83 332.03 146.471 332.123C148.159 332.264 149.378 332.311 150.128 332.311C153.175 332.311 154.863 330.998 155.285 328.373C155.425 325.419 154.3 322.466 151.909 319.512C149.706 317.121 147.596 314.683 145.486 312.198C145.861 310.417 146.096 308.401 146.096 306.151C146.096 304.275 145.861 301.697 145.486 298.368C145.111 294.711 144.877 292.133 144.783 290.679C145.111 290.539 146.096 289.882 147.69 288.71C148.956 287.773 150.034 287.21 150.972 287.069C152.19 287.21 154.066 287.163 156.551 286.835C159.504 286.601 161.52 286.507 162.598 286.507C167.615 286.507 170.756 288.382 171.881 292.226C172.209 293.211 172.35 294.289 172.35 295.368C172.35 297.618 171.694 300.196 170.381 303.103C170.287 303.572 170.287 304.041 170.287 304.603C170.287 305.307 170.428 306.432 170.662 307.979C170.943 309.573 171.084 310.745 171.084 311.495C171.084 312.667 170.85 313.746 170.381 314.683C166.255 318.387 164.052 320.45 163.77 320.731C161.567 323.169 160.489 325.607 160.489 328.092C160.489 329.217 160.676 330.389 161.098 331.608C165.13 331.748 170.006 331.889 175.725 331.983H212.013C213.325 331.561 214.31 331.28 214.919 331.045Z" fill="#ECECEC"/>
<path d="M309.341 329.686C309.341 329.686 316.561 314.918 316.748 312.386C316.748 312.386 311.497 303.338 308.684 305.541C304.043 310.886 299.683 313.84 299.683 313.84C289.838 317.637 282.899 319.512 278.867 319.512C274.835 319.512 271.131 318.34 268.178 316.043C266.631 314.543 265.834 312.246 265.74 309.058C265.646 304.885 265.459 302.353 265.13 301.509C265.318 298.415 265.459 295.274 265.599 292.18C265.834 288.757 267.053 286.226 269.209 284.491C269.678 284.444 270.147 284.397 270.616 284.397C272.866 284.397 274.648 285.71 275.96 288.335C276.992 290.68 277.976 293.024 279.008 295.321C279.758 297.806 281.727 299.681 284.821 300.9C285.993 301.369 287.071 301.603 288.056 301.603C289.462 301.603 290.447 301.134 290.963 300.197C290.822 297.102 291.338 290.961 292.463 281.725C291.713 279.85 291.338 277.459 291.338 274.505V272.302C291.338 271.27 291.432 270.567 291.432 270.098C291.432 266.77 290.916 264.097 289.791 262.081C289.134 261.425 288.244 261.144 287.259 261.144C285.618 261.144 284.024 261.847 282.477 263.206C281.492 264.144 280.508 265.785 279.617 268.129C278.726 270.426 277.695 272.114 276.57 273.099C272.679 274.13 270.522 274.646 270.053 274.74C268.037 273.427 267.006 271.176 267.006 267.988C267.006 267.004 267.146 265.457 267.428 263.441C267.709 261.425 267.85 260.065 267.85 259.268C270.288 255.846 273.1 254.205 276.195 254.252C278.445 254.017 280.695 253.924 282.946 253.924C297.057 253.924 308.309 258.799 316.701 268.598C318.061 268.973 319.561 269.161 321.108 269.161C324.577 269.161 325.234 267.567 326.781 265.738C326.922 265.035 327.015 264.332 327.015 263.628C326.828 263.675 326.922 263.394 326.922 263.3C326.875 263.066 326.781 262.784 326.734 262.55C326.593 262.081 326.5 261.566 326.406 261.05C326.406 260.909 326.406 260.769 326.359 260.628C326.265 260.44 326.171 260.253 326.125 260.018C325.984 259.69 325.937 259.268 325.796 258.94C325.75 258.706 325.703 258.518 325.656 258.331C325.656 258.096 325.515 257.909 325.421 257.674C325.281 257.252 325.234 256.83 325.14 256.362C324.765 254.955 324.577 253.502 324.296 252.048C324.202 251.58 324.062 251.158 324.015 250.642C324.015 250.173 323.968 249.704 323.921 249.189C323.921 248.72 323.734 248.251 323.687 247.782C323.593 247.36 323.359 246.985 323.265 246.563C323.171 246.282 323.03 246.047 322.89 245.766C322.796 245.485 322.702 245.157 322.515 244.922C322.468 244.782 322.327 244.594 322.186 244.5C320.967 243.61 319.655 243.328 318.342 243.469C314.638 243.469 297.011 244.36 271.882 244.36C254.066 244.453 239.579 244.313 228.421 243.938C227.718 244.078 227.062 244.453 226.546 245.063C225.89 246.282 225.843 248.251 226.499 250.97C226.499 250.97 226.546 251.064 226.546 251.111V251.251C226.546 251.251 226.593 251.251 226.593 251.205C226.827 251.533 227.015 251.814 227.249 252.142C227.859 252.892 228.515 253.596 229.265 254.205C229.828 254.627 230.437 255.002 230.953 255.471C231.891 256.362 232.969 257.065 234 257.815C234.985 258.518 235.97 259.175 236.907 259.972C237.329 260.3 237.798 260.581 238.173 260.909C238.314 261.097 238.501 261.237 238.642 261.425C238.876 261.566 239.064 261.706 239.251 261.894C239.673 262.409 239.955 263.113 240.189 263.722C240.611 264.754 241.08 266.113 240.33 267.145C239.72 267.988 238.642 268.176 237.798 268.692C237.376 268.926 237.282 269.207 237.188 269.723C237.095 270.239 237.048 270.755 237.095 271.27C237.188 272.489 237.095 273.614 237.048 274.786C237.001 276.193 237.142 277.506 237.235 278.912C237.329 280.178 237.235 281.444 237.188 282.756C237.188 283.272 237.188 283.132 236.813 283.413C236.391 283.788 236.157 284.491 235.829 284.96C235.266 285.663 234.844 286.46 234.422 287.21C234.329 287.351 234.235 287.492 234.188 287.632C234 287.96 234 288.382 233.954 288.711C233.813 289.273 233.766 289.976 234 290.492C234.188 290.914 234.329 291.43 234.563 291.805C234.844 292.274 234.844 292.883 234.797 293.446C234.891 300.103 234.891 306.667 234.891 313.23C234.141 314.074 232.547 315.387 230.156 317.074C228.046 318.622 226.593 319.981 225.702 321.153C225.187 324.013 224.905 325.935 224.905 326.826C224.905 329.029 225.562 330.436 226.874 331.045C237.751 330.342 253.691 330.202 274.788 330.67L309.341 329.686Z" fill="#ECECEC"/>
<path d="M1234.24 378.865C1234.19 378.537 1234.1 378.209 1234 377.881C1233.86 377.225 1233.68 376.521 1233.58 375.865C1233.58 375.677 1233.54 375.49 1233.49 375.302C1233.39 375.021 1233.25 374.74 1233.16 374.458C1233.02 373.99 1232.93 373.474 1232.74 373.005C1232.64 372.724 1232.64 372.489 1232.6 372.208C1232.5 371.88 1232.36 371.599 1232.27 371.317C1232.04 370.755 1231.99 370.145 1231.85 369.583C1231.38 367.66 1231.1 365.691 1230.72 363.769C1230.58 363.16 1230.44 362.55 1230.39 361.894C1230.35 361.238 1230.3 360.581 1230.25 359.972C1230.21 359.315 1230.02 358.706 1229.88 358.05C1229.78 357.487 1229.5 356.971 1229.32 356.409C1229.22 356.034 1229.03 355.659 1228.85 355.33C1228.71 354.955 1228.57 354.533 1228.38 354.205C1228.24 354.018 1228.1 353.736 1227.91 353.643C1226.27 352.471 1224.53 352.049 1222.75 352.236C1217.78 352.236 1194.11 353.455 1160.4 353.455C1136.49 353.596 1117.03 353.361 1102.03 352.846C1101.09 353.08 1100.25 353.596 1099.55 354.44C1098.61 356.034 1098.61 358.706 1099.55 362.41C1099.55 362.503 1099.55 362.597 1099.55 362.691C1099.59 362.691 1099.64 362.644 1099.64 362.597C1099.87 363.066 1100.15 363.441 1100.48 363.863C1101.28 364.894 1102.17 365.832 1103.2 366.676C1103.95 367.239 1104.75 367.707 1105.45 368.364C1106.67 369.583 1108.12 370.473 1109.53 371.505C1110.84 372.442 1112.2 373.333 1113.47 374.412C1113.99 374.88 1114.64 375.209 1115.16 375.677L1115.81 376.334C1116.09 376.521 1116.33 376.756 1116.56 376.99C1117.13 377.646 1117.55 378.584 1117.88 379.428C1118.44 380.834 1119.05 382.616 1118.02 384.022C1117.22 385.148 1115.77 385.429 1114.64 386.085C1114.08 386.413 1113.94 386.835 1113.84 387.445C1113.7 388.195 1113.61 388.851 1113.7 389.601C1113.84 391.195 1113.7 392.696 1113.66 394.29C1113.61 396.165 1113.75 397.947 1113.89 399.775C1113.99 401.557 1113.89 403.197 1113.8 404.932C1113.75 405.682 1113.75 405.495 1113.33 405.823C1112.77 406.339 1112.44 407.276 1111.97 407.933C1111.27 408.87 1110.66 409.902 1110.09 410.98C1110 411.167 1109.86 411.355 1109.77 411.543C1109.58 411.964 1109.58 412.527 1109.44 412.996C1109.3 413.699 1109.2 414.684 1109.53 415.387C1109.77 415.949 1110 416.606 1110.33 417.122C1110.7 417.731 1110.7 418.669 1110.66 419.372C1110.75 428.186 1110.8 437.047 1110.8 445.907C1109.77 447.033 1107.66 448.767 1104.42 451.064C1101.61 453.127 1099.64 454.956 1098.47 456.503C1097.76 460.347 1097.39 462.926 1097.39 464.145C1097.39 467.051 1098.28 468.927 1100.06 469.771C1114.59 468.833 1136.07 468.692 1164.38 469.302L1210.75 467.942C1210.75 467.942 1220.41 448.111 1220.64 444.782C1220.64 444.782 1213.66 432.593 1209.86 435.546C1203.62 442.766 1197.76 446.657 1197.76 446.657C1184.54 451.768 1175.21 454.299 1169.82 454.299C1164.43 454.299 1159.41 452.752 1155.48 449.658C1153.37 447.689 1152.29 444.548 1152.19 440.281C1152.1 434.656 1151.82 431.28 1151.4 430.108C1151.63 425.982 1151.82 421.81 1152.01 417.637C1152.33 413.043 1153.93 409.62 1156.88 407.323C1157.49 407.229 1158.1 407.182 1158.76 407.182C1161.76 407.182 1164.15 408.964 1165.93 412.48C1167.29 415.621 1168.6 418.716 1169.96 421.857C1171.04 425.185 1173.62 427.67 1177.79 429.358C1179.34 429.967 1180.79 430.296 1182.15 430.296C1184.03 430.296 1185.34 429.639 1186.04 428.42C1185.86 424.248 1186.51 415.996 1188.11 403.572C1187.03 401.088 1186.51 397.853 1186.51 393.915V390.961C1186.65 389.601 1186.7 388.617 1186.7 387.961C1186.7 383.507 1185.95 379.897 1184.5 377.225C1183.56 376.381 1182.43 375.959 1181.07 375.959C1178.87 375.959 1176.76 376.896 1174.65 378.772C1173.29 380.037 1172.03 382.194 1170.85 385.335C1169.63 388.429 1168.28 390.68 1166.68 392.039C1161.48 393.399 1158.57 394.102 1157.96 394.243C1155.24 392.461 1153.88 389.414 1153.88 385.148C1153.88 383.835 1154.07 381.772 1154.44 379.1C1154.82 376.381 1155.01 374.505 1155.01 373.474C1158.34 368.879 1162.09 366.629 1166.21 366.77C1169.26 366.442 1172.26 366.254 1175.31 366.254C1194.25 366.254 1209.3 372.818 1220.55 385.945C1222.42 386.46 1224.39 386.742 1226.5 386.742C1231.19 386.742 1232.04 384.585 1234.1 382.1C1234.33 381.163 1234.43 380.225 1234.43 379.287C1234.14 379.381 1234.29 379.006 1234.29 378.865H1234.24Z" fill="#ECECEC"/>
<path d="M1427.3 376.944C1427.3 376.616 1427.16 376.24 1427.11 375.912C1426.93 375.256 1426.78 374.6 1426.69 373.896C1426.64 373.709 1426.64 373.521 1426.55 373.334C1426.55 373.052 1426.36 372.771 1426.27 372.49C1426.08 372.021 1426.03 371.505 1425.85 370.99C1425.75 370.755 1425.71 370.474 1425.66 370.193C1425.66 369.864 1425.47 369.583 1425.38 369.302C1425.14 368.739 1425.1 368.13 1424.96 367.567C1424.49 365.645 1424.21 363.676 1423.83 361.707C1423.69 361.097 1423.55 360.441 1423.5 359.832C1423.46 359.175 1423.41 358.519 1423.36 357.863C1423.32 357.206 1423.13 356.55 1422.99 355.94C1422.89 355.378 1422.61 354.815 1422.42 354.253C1422.33 353.878 1422.14 353.549 1422 353.174C1421.82 352.799 1421.67 352.377 1421.49 352.049C1421.39 351.862 1421.21 351.58 1421.07 351.44C1419.42 350.268 1417.69 349.893 1415.91 350.08C1410.99 350.08 1387.5 351.299 1354.02 351.299C1330.25 351.393 1310.94 351.205 1296.03 350.689C1295.09 350.877 1294.29 351.393 1293.54 352.237C1292.61 353.924 1292.61 356.737 1293.54 360.629C1293.59 360.629 1293.64 360.629 1293.64 360.535C1293.87 361.004 1294.15 361.379 1294.48 361.801C1295.33 362.832 1296.17 363.77 1297.2 364.614C1297.95 365.223 1298.75 365.692 1299.41 366.348C1300.67 367.567 1302.08 368.505 1303.48 369.489C1304.8 370.474 1306.16 371.365 1307.38 372.443C1307.89 372.912 1308.55 373.24 1309.06 373.709C1309.3 373.943 1309.48 374.131 1309.72 374.365C1310 374.6 1310.24 374.787 1310.47 375.022C1311.03 375.725 1311.41 376.662 1311.74 377.459C1312.3 378.913 1312.91 380.741 1311.92 382.148C1311.13 383.273 1309.72 383.554 1308.55 384.21C1307.98 384.539 1307.84 384.961 1307.75 385.617C1307.66 386.32 1307.52 387.023 1307.61 387.774C1307.75 389.368 1307.66 390.915 1307.61 392.509C1307.52 394.384 1307.7 396.212 1307.8 398.041C1307.94 399.822 1307.8 401.51 1307.7 403.245C1307.7 403.995 1307.7 403.807 1307.28 404.182C1306.67 404.698 1306.39 405.636 1305.92 406.245C1305.22 407.23 1304.61 408.261 1304.05 409.34C1303.95 409.527 1303.81 409.715 1303.72 409.949C1303.53 410.371 1303.53 410.887 1303.44 411.355C1303.25 412.106 1303.16 413.09 1303.44 413.793C1303.67 414.356 1303.91 415.059 1304.23 415.575C1304.61 416.184 1304.61 417.075 1304.52 417.825C1304.61 426.733 1304.66 435.641 1304.66 444.595C1303.62 445.767 1301.51 447.502 1298.33 449.799C1295.51 451.909 1293.54 453.737 1292.42 455.284C1291.72 459.176 1291.34 461.754 1291.34 463.02C1291.34 465.974 1292.23 467.849 1293.97 468.693C1308.45 467.755 1329.74 467.614 1357.82 468.224L1403.91 466.864C1403.91 466.864 1413.47 446.845 1413.7 443.47C1413.7 443.47 1406.77 431.187 1403.02 434.187C1396.83 441.407 1391.01 445.392 1391.01 445.392C1377.89 450.549 1368.65 453.081 1363.26 453.081C1357.87 453.081 1354.59 450.737 1350.65 447.549C1348.58 445.58 1347.51 442.439 1347.37 438.125C1347.27 432.453 1348.44 429.358 1348.02 428.186C1348.21 423.967 1346.99 420.263 1347.23 416.091C1347.51 411.449 1347.51 407.98 1350.41 405.683C1351.02 405.589 1351.63 405.495 1352.24 405.495C1355.24 405.495 1357.63 407.324 1359.37 410.887C1360.73 414.028 1362.09 417.169 1363.4 420.31C1364.43 423.686 1367.06 426.217 1371.18 427.905C1372.73 428.514 1374.18 428.843 1375.5 428.843C1377.37 428.843 1378.68 428.186 1379.39 426.92C1379.2 422.748 1379.86 414.403 1381.4 401.885C1380.37 399.354 1379.86 396.119 1379.86 392.134V389.133C1379.95 387.774 1380 386.742 1380 386.133C1380 381.632 1379.29 377.975 1377.84 375.256C1376.9 374.412 1375.78 373.99 1374.42 373.99C1372.26 373.99 1370.15 374.928 1368.09 376.85C1366.73 378.116 1365.46 380.319 1364.29 383.46C1363.07 386.601 1361.71 388.852 1360.16 390.211C1355.01 391.571 1352.1 392.321 1351.49 392.415C1348.77 390.633 1347.46 387.586 1347.46 383.273C1347.46 381.913 1347.65 379.897 1347.98 377.131C1348.35 374.412 1348.54 372.537 1348.54 371.458C1351.87 366.864 1355.57 364.614 1359.7 364.707C1362.7 364.379 1365.7 364.239 1368.7 364.239C1386.09 364.239 1397.01 368.927 1407.38 380.132C1409.11 382.007 1411.27 383.367 1413.7 383.929C1415.91 384.398 1418.35 384.867 1419.52 384.867C1424.21 384.867 1425.05 382.71 1427.11 380.225C1427.3 379.241 1427.39 378.303 1427.39 377.366C1427.16 377.459 1427.3 377.084 1427.25 376.944H1427.3Z" fill="#ECECEC"/>
<path d="M1708.92 376.1C1708.88 375.725 1708.74 375.397 1708.69 375.068C1708.5 374.412 1708.36 373.709 1708.27 373.052C1708.22 372.818 1708.22 372.631 1708.17 372.443C1708.08 372.162 1707.94 371.88 1707.85 371.599C1707.66 371.13 1707.61 370.615 1707.42 370.099C1707.33 369.818 1707.33 369.583 1707.24 369.255C1707.24 368.974 1707.05 368.692 1706.96 368.411C1706.72 367.802 1706.67 367.239 1706.53 366.63C1706.06 364.661 1705.78 362.691 1705.41 360.722C1705.27 360.066 1705.13 359.457 1705.08 358.8L1704.94 356.831C1704.89 356.175 1704.7 355.518 1704.61 354.909C1704.47 354.299 1704.19 353.784 1704.05 353.221C1703.91 352.846 1703.72 352.471 1703.58 352.096C1703.44 351.721 1703.3 351.299 1703.06 350.971C1702.97 350.783 1702.78 350.502 1702.64 350.361C1701 349.189 1699.27 348.767 1697.53 348.955C1692.56 348.955 1669.07 350.221 1635.6 350.221C1611.83 350.314 1592.51 350.127 1577.61 349.564C1576.67 349.799 1575.87 350.314 1575.12 351.158C1574.18 352.893 1574.18 355.706 1575.12 359.597C1575.17 359.597 1575.22 359.55 1575.22 359.503C1575.5 359.972 1575.73 360.394 1576.11 360.816C1576.9 361.848 1577.75 362.832 1578.78 363.629C1579.53 364.239 1580.33 364.707 1581.03 365.411C1582.25 366.63 1583.7 367.567 1585.06 368.552C1586.37 369.536 1587.73 370.474 1588.95 371.552C1589.47 372.021 1590.12 372.349 1590.64 372.818C1590.87 373.052 1591.06 373.287 1591.3 373.521C1591.58 373.709 1591.81 373.943 1592.05 374.178C1592.61 374.834 1593.03 375.819 1593.31 376.616C1593.92 378.069 1594.48 379.897 1593.5 381.351C1592.7 382.476 1591.3 382.757 1590.12 383.414C1589.56 383.742 1589.42 384.211 1589.33 384.82C1589.23 385.57 1589.14 386.273 1589.19 387.023C1589.37 388.617 1589.23 390.165 1589.19 391.805C1589.09 393.681 1589.28 395.509 1589.37 397.385C1589.51 399.166 1589.37 400.901 1589.33 402.635C1589.28 403.385 1589.28 403.198 1588.86 403.573C1588.25 404.089 1587.97 405.026 1587.5 405.683C1586.8 406.667 1586.19 407.699 1585.62 408.777C1585.53 408.964 1585.44 409.199 1585.34 409.386C1585.11 409.808 1585.11 410.371 1585.01 410.84C1584.83 411.59 1584.73 412.574 1585.01 413.278C1585.3 413.887 1585.48 414.544 1585.81 415.059C1586.19 415.669 1586.19 416.606 1586.14 417.356H1586.09C1586.19 426.358 1586.23 435.359 1586.23 444.361C1585.2 445.533 1583.09 447.267 1579.9 449.612C1577.09 451.721 1575.12 453.597 1574 455.191C1573.29 459.129 1572.92 461.707 1572.92 462.973C1572.92 465.927 1573.81 467.849 1575.54 468.693C1590.03 467.755 1611.31 467.568 1639.44 468.224L1685.48 466.818C1685.48 466.818 1695.05 446.658 1695.28 443.236C1695.28 443.236 1688.34 430.812 1684.59 433.859C1678.4 441.173 1672.59 445.158 1672.59 445.158C1659.46 450.362 1650.23 452.94 1644.84 452.94C1639.44 452.94 1636.16 450.549 1632.22 447.361C1630.16 445.345 1629.08 442.157 1628.99 437.844C1628.85 432.124 1630.02 428.983 1629.6 427.811C1629.83 423.592 1628.57 419.841 1628.8 415.575C1629.08 410.934 1629.08 407.417 1631.99 405.073C1632.6 404.979 1633.21 404.933 1633.82 404.933C1636.82 404.933 1639.21 406.714 1640.99 410.324C1642.3 413.512 1643.66 416.7 1645.02 419.888C1646.05 423.264 1648.63 425.795 1652.76 427.53C1654.31 428.139 1655.76 428.468 1657.07 428.468C1658.95 428.468 1660.26 427.811 1660.96 426.545C1660.78 422.326 1661.43 413.887 1662.98 401.276C1661.95 398.744 1661.43 395.462 1661.43 391.43V388.383C1661.53 387.023 1661.57 385.992 1661.57 385.383C1661.57 380.835 1660.87 377.131 1659.42 374.412C1658.48 373.521 1657.35 373.146 1655.99 373.146C1653.84 373.146 1651.73 374.084 1649.66 376.006C1648.31 377.272 1647.04 379.475 1645.87 382.663C1644.65 385.851 1643.29 388.102 1641.74 389.508C1636.58 390.868 1633.68 391.618 1633.07 391.712C1630.4 389.93 1629.04 386.836 1629.04 382.523C1629.04 381.116 1629.22 379.053 1629.6 376.287C1629.93 373.521 1630.11 371.646 1630.11 370.568C1633.44 365.926 1637.15 363.629 1641.27 363.723C1644.27 363.442 1647.27 363.254 1650.27 363.254C1667.67 363.254 1678.59 368.036 1688.95 379.335C1690.69 381.21 1692.84 382.57 1695.33 383.132C1697.48 383.648 1699.92 384.07 1701.09 384.07C1705.78 384.07 1706.63 381.913 1708.69 379.382C1708.88 378.444 1709.02 377.459 1709.02 376.522C1708.74 376.616 1708.88 376.194 1708.88 376.1H1708.92Z" fill="#ECECEC"/>
<path d="M158.145 445.533C157.207 437.891 156.691 432.077 156.551 428.186C154.722 423.076 154.441 415.387 155.707 405.12C157.019 394.9 156.738 387.258 154.863 382.241C155.8 379.803 156.785 377.412 157.816 375.068C158.942 372.115 160.395 369.911 162.176 368.552C162.458 367.708 163.817 365.645 166.208 362.316C168.084 359.55 168.974 357.3 168.974 355.471C168.974 354.112 168.412 352.752 167.287 351.486C163.349 351.58 140.517 351.627 98.7914 351.627C98.3694 353.033 98.3225 354.721 98.6507 356.737L99.2602 361.988C101.932 367.426 105.449 371.224 109.809 373.334C112.106 374.834 113.231 377.319 113.231 380.835C113.231 381.585 113.091 383.413 112.762 386.414C110.371 390.961 107.465 393.634 104.089 394.384C102.495 394.384 99.9165 394.665 96.3066 395.228C92.6966 395.837 89.9306 396.118 88.0553 396.118C82.6638 396.118 78.5381 394.149 75.6314 390.211C74.6938 384.82 75.0219 380.413 76.5691 376.99C81.1167 375.209 84.3984 371.74 86.3675 366.629C87.4927 363.77 88.3834 359.081 88.9929 352.612H19.2786C18.4348 353.549 17.6378 354.252 16.9345 354.674C17.4502 363.629 20.5445 369.817 26.2641 373.334C30.296 377.365 32.312 383.085 32.312 390.539C32.312 392.649 32.0776 395.931 31.7025 400.244C31.2806 404.604 31.0462 407.886 31.0462 409.996C31.0462 411.683 31.1868 413.277 31.3743 414.778C31.2806 417.216 31.4212 420.685 31.8432 425.139C32.3589 429.921 32.6402 433.39 32.6402 435.5C32.6402 441.126 31.4681 445.908 29.2177 449.846C19.9819 455.565 15.7625 461.52 16.4657 467.708C16.6532 468.646 16.8876 469.536 17.0752 470.333C17.3096 471.13 17.9659 471.74 19.0911 472.162C24.0607 471.834 32.5464 471.834 44.5952 472.162C56.5971 472.49 65.0828 472.49 70.0524 472.162H73.006C74.0374 472.162 75.6783 472.256 77.8818 472.396C80.1321 472.537 81.773 472.631 82.8044 472.631C86.8363 472.631 89.0867 470.849 89.6024 467.239C89.8368 463.16 88.3366 459.129 85.1017 455.097C82.2418 451.815 79.382 448.486 76.5691 445.064C77.0848 442.626 77.3661 439.86 77.3661 436.766C77.3661 434.234 77.0848 430.671 76.5691 426.076C76.0534 421.107 75.7252 417.591 75.6314 415.575C76.0533 415.34 77.3661 414.45 79.5227 412.856C81.1635 411.59 82.6169 410.84 83.8827 410.605C85.5236 410.84 88.0084 410.746 91.337 410.324C95.2752 409.996 97.9475 409.808 99.4008 409.808C106.152 409.808 110.278 412.434 111.825 417.684C112.247 419.091 112.434 420.497 112.434 421.998C112.434 425.092 111.59 428.655 109.809 432.593C109.715 433.249 109.668 433.906 109.668 434.656C109.668 435.64 109.856 437.188 110.184 439.297C110.559 441.454 110.746 443.048 110.746 444.126C110.746 445.72 110.418 447.174 109.809 448.439C104.324 453.596 101.37 456.362 100.948 456.784C98.0412 460.066 96.6348 463.442 96.6348 466.864C96.6348 468.364 96.8692 469.958 97.3849 471.693C102.776 471.881 109.293 472.068 116.982 472.162H165.411C167.193 471.646 168.459 471.177 169.303 470.896C169.725 469.583 169.912 468.271 169.912 466.911C169.912 463.489 168.459 459.738 165.599 455.565C163.114 452.284 160.629 448.955 158.145 445.533Z" fill="#ECECEC"/>
<path d="M807.186 445.533C806.295 437.891 805.733 432.077 805.639 428.186C803.81 423.076 803.482 415.387 804.795 405.12C806.108 394.9 805.826 387.258 803.951 382.241C804.889 379.803 805.873 377.412 806.905 375.068C808.03 372.115 809.483 369.911 811.265 368.552C811.546 367.708 812.906 365.645 815.297 362.316C817.125 359.55 818.063 357.3 818.063 355.471C818.063 354.112 817.5 352.752 816.375 351.486C812.437 351.58 789.605 351.627 747.88 351.627C747.458 353.033 747.411 354.721 747.739 356.737L748.348 361.988C751.021 367.426 754.537 371.224 758.897 373.334C761.194 374.834 762.319 377.319 762.319 380.835C762.319 381.585 762.179 383.413 761.85 386.414C759.459 390.961 756.553 393.634 753.177 394.384C751.583 394.384 749.005 394.665 745.395 395.228C741.785 395.837 739.019 396.118 737.143 396.118C731.752 396.118 727.626 394.149 724.72 390.211C723.782 384.82 724.11 380.413 725.657 376.99C730.205 375.209 733.487 371.74 735.456 366.629C736.581 363.77 737.472 359.081 738.081 352.612H668.367C667.523 353.549 666.726 354.252 666.023 354.674C666.538 363.629 669.633 369.817 675.352 373.334C679.384 377.365 681.4 383.085 681.4 390.539C681.4 392.649 681.166 395.931 680.791 400.244C680.369 404.604 680.134 407.886 680.134 409.996C680.134 411.683 680.275 413.277 680.462 414.778C680.369 417.216 680.463 420.685 680.931 425.139C681.447 429.921 681.728 433.39 681.728 435.5C681.728 441.126 680.556 445.908 678.306 449.846C669.07 455.565 664.804 461.52 665.554 467.708C665.741 468.646 665.976 469.536 666.163 470.333C666.398 471.13 667.054 471.74 668.179 472.162C673.149 471.834 681.635 471.834 693.683 472.162C705.685 472.49 714.171 472.49 719.141 472.162H722.094C723.126 472.162 724.766 472.256 726.97 472.396C729.22 472.537 730.861 472.631 731.893 472.631C735.924 472.631 738.175 470.849 738.691 467.239C738.925 463.16 737.425 459.129 734.19 455.097C731.283 451.815 728.47 448.486 725.657 445.064C726.173 442.626 726.454 439.86 726.454 436.766C726.454 434.234 726.173 430.671 725.657 426.076C725.141 421.107 724.813 417.591 724.72 415.575C725.142 415.34 726.454 414.45 728.611 412.856C730.252 411.59 731.705 410.84 732.971 410.605C734.612 410.84 737.097 410.746 740.425 410.324C744.363 409.996 747.036 409.808 748.489 409.808C755.24 409.808 759.366 412.434 760.913 417.684C761.335 419.091 761.522 420.497 761.522 421.998C761.522 425.092 760.678 428.655 758.897 432.593C758.803 433.249 758.756 433.906 758.756 434.656C758.756 435.64 758.944 437.188 759.272 439.297C759.647 441.454 759.835 443.048 759.835 444.126C759.835 445.72 759.506 447.174 758.897 448.439C753.412 453.596 750.458 456.362 750.036 456.784C747.129 460.066 745.723 463.442 745.723 466.864C745.723 468.364 745.957 469.958 746.473 471.693C751.865 471.881 758.381 472.068 766.07 472.162H814.5C816.281 471.646 817.547 471.177 818.391 470.896C818.813 469.583 819 468.271 819 466.911C819 463.489 817.547 459.738 814.64 455.565C812.155 452.284 809.671 448.955 807.186 445.533Z" fill="#ECECEC"/>
<path d="M234.751 376.756C234.751 376.287 234.704 375.772 234.751 375.303C234.797 374.693 235.173 374.271 235.454 373.756C235.735 373.287 235.923 372.771 236.204 372.349C236.954 371.13 238.22 370.099 239.439 369.349C239.955 369.021 240.517 368.739 241.127 368.599C241.361 368.505 241.267 368.833 241.502 368.552C246.096 362.926 248.534 358.144 248.722 354.206C248.815 352.846 248.206 351.908 246.799 351.486C244.69 350.971 243.564 350.643 243.471 350.549C215.529 351.299 195.276 351.627 182.758 351.627C181.023 352.518 179.804 353.174 179.054 353.737C178.96 358.097 180.461 362.879 183.555 368.083C186.087 372.349 188.665 376.662 191.337 381.022C191.759 388.571 191.666 409.949 191.009 445.205C191.009 447.642 189.743 449.658 187.212 451.252C184.352 453.034 182.617 454.769 182.102 456.363C180.273 459.035 179.382 461.942 179.382 465.13C179.382 467.239 179.804 469.396 180.648 471.506C223.827 470.99 245.815 470.662 246.659 470.568C246.659 470.24 246.893 470.005 247.362 469.865C247.831 469.677 248.112 469.396 248.112 468.974C248.3 468.13 248.393 467.239 248.393 466.395C248.393 466.255 248.675 466.442 248.675 466.255V465.786C248.675 465.27 248.675 464.801 248.534 464.286C248.347 463.536 247.971 463.02 247.409 462.504C247.128 462.223 246.987 461.848 246.706 461.567C245.862 460.441 244.08 460.441 242.955 459.691C242.111 459.129 241.595 458.425 240.939 457.769C240.47 457.3 239.814 457.3 239.345 456.925C238.736 456.41 238.876 455.519 238.501 454.815C238.314 454.534 238.22 454.253 238.079 453.972C237.798 453.409 237.095 453.315 236.673 452.893C236.157 452.378 235.829 451.627 235.36 451.065C234.985 450.596 234.751 450.502 234.141 450.362C233.344 450.174 232.547 450.033 231.75 450.033C230.953 450.033 230.062 450.174 229.265 449.893C228.75 449.705 228.421 449.377 227.953 449.049C228.14 448.674 228.468 448.393 228.75 448.111C229.781 447.08 230.953 446.283 232.031 445.298C232.922 444.501 233.813 443.751 234.751 443.048C235.032 442.814 235.407 442.626 235.548 442.298C235.782 441.829 235.688 441.032 235.641 440.516C235.548 439.438 235.594 438.313 235.594 437.235V419.419C235.594 418.763 235.454 418.106 235.454 417.45C235.454 416.841 235.594 416.231 235.594 415.622C235.548 413.465 235.97 411.402 235.594 409.293C235.266 407.699 235.36 406.058 235.36 404.417C235.36 402.448 235.313 400.572 235.173 398.603C235.079 397.431 234.141 396.212 233.438 395.322C232.641 394.29 231.703 393.306 231 392.227C230.625 391.665 230.015 391.149 230.203 390.446C230.344 389.93 230.859 389.414 231.141 388.946C231.516 388.43 231.891 387.961 232.36 387.445C233.016 386.742 233.719 385.992 234.141 385.054C234.329 384.632 234.516 384.164 234.563 383.648C234.563 383.179 234.422 382.757 234.329 382.288C234.235 381.398 234.282 380.366 234.329 379.428C234.376 378.538 234.657 377.647 234.751 376.756Z" fill="#ECECEC"/>
<path d="M367.1 439.11C366.912 438.219 366.631 437.703 365.928 437.094C365.412 436.672 364.85 436.297 364.334 435.922C363.865 435.64 363.396 435.547 362.881 435.406C362.177 435.218 361.521 434.89 360.818 434.703C360.349 434.609 359.927 434.656 359.458 434.515C348.863 430.671 349.003 434.703 349.003 434.703C348.581 435.64 347.316 438.5 346.987 439.438C346.659 440.422 346.19 441.266 345.956 442.251C345.768 443.095 345.675 443.939 345.44 444.736C344.878 446.517 343.565 448.158 341.877 449.002C340.94 449.471 340.143 449.986 339.205 450.361C338.595 450.549 338.08 450.924 337.517 451.112C336.955 451.346 336.439 451.44 335.876 451.58C334.845 451.815 333.907 452.237 332.876 452.424C331.797 452.659 330.719 452.752 329.688 452.752H324.484L323.546 452.612C323.171 452.612 322.796 452.424 322.468 452.377C321.999 452.284 321.624 452.237 321.155 452.237H320.499C320.499 452.237 320.171 452.143 319.936 452.096C319.608 452.049 319.374 452.049 319.045 451.909C318.905 451.862 318.764 451.768 318.623 451.721C318.248 451.534 317.826 451.346 317.498 451.112C317.029 450.736 316.654 450.174 316.232 449.752C315.764 449.33 315.342 448.814 314.967 448.345C314.498 447.783 313.935 447.314 313.56 446.705C313.232 446.189 312.904 445.579 312.716 444.97C312.341 443.704 312.294 442.438 312.576 441.126C312.857 439.672 313.56 438.313 313.841 436.859C313.982 436.015 314.17 435.172 314.31 434.281C314.451 433.484 314.545 432.593 314.592 431.796C314.638 430.577 314.685 429.264 314.498 428.045C314.404 427.389 314.404 426.733 314.31 426.076C314.263 425.373 314.31 424.717 314.217 424.06C314.076 423.216 313.795 422.419 313.701 421.576C313.701 421.107 313.748 420.638 313.701 420.169C313.607 419.607 313.42 419.372 313.42 418.81C313.42 418.294 313.466 417.778 313.42 417.309C313.42 416.981 313.373 416.653 313.373 416.325C313.373 415.762 313.42 415.246 313.42 414.684C313.373 414.121 313.279 413.512 313.279 412.949V411.074C313.279 409.949 313.373 408.87 313.138 407.745C312.951 406.526 312.482 405.495 311.779 404.51C311.497 404.042 311.216 403.573 310.935 403.104C310.56 402.494 309.95 402.026 309.481 401.557C308.356 400.385 307.184 399.072 306.2 397.759C305.778 397.197 305.403 396.634 304.981 396.072C304.652 395.556 304.184 395.087 303.949 394.524C303.715 393.915 303.48 392.743 304.324 392.368C304.465 392.368 304.746 392.368 304.887 392.368H306.247C307.137 392.368 307.981 392.462 308.872 392.462C309.575 392.508 310.278 392.462 310.982 392.508C312.013 392.602 313.232 393.024 314.263 392.79C314.404 392.274 314.31 391.524 314.31 391.055V390.164C314.31 389.649 314.17 389.18 314.123 388.664C314.076 387.398 314.17 386.179 314.029 384.913C313.982 384.21 314.029 383.554 314.123 382.851C314.17 382.569 313.701 382.101 313.982 381.913C314.31 378.631 316.983 374.787 321.952 370.286C326.734 366.16 329.031 362.129 328.844 358.19C328.938 357.769 328.985 357.3 328.985 356.737C328.985 354.112 327.766 352.518 325.328 351.955C314.263 353.033 293.823 353.268 263.958 352.611C261.286 353.455 259.927 354.487 259.786 355.659C259.692 356.643 259.692 357.159 259.645 358.19C259.552 359.503 259.598 361.191 260.349 362.316C260.958 363.16 261.755 363.863 262.552 364.52C263.443 365.223 264.099 366.067 264.99 366.723C265.599 367.145 266.209 367.52 266.818 367.895C267.522 368.27 268.412 368.458 269.162 368.786C270.991 369.677 272.819 370.427 274.601 371.458C275.773 372.161 276.711 373.005 277.508 374.13C277.789 374.552 278.351 375.256 278.398 375.818C278.445 376.381 277.883 376.709 277.461 376.943C276.054 377.647 274.648 378.209 273.335 379.1C272.21 379.897 271.085 380.835 270.194 381.96C268.787 383.695 269.631 386.414 270.288 388.289C270.71 389.461 270.71 390.727 270.991 391.899C271.366 393.165 272.022 394.337 272.444 395.556C272.632 396.259 272.679 396.869 272.772 397.572C272.96 398.884 273.241 400.197 273.569 401.463C273.757 402.072 273.991 402.729 274.085 403.385C274.132 403.713 274.085 403.995 274.085 404.323C274.179 404.745 274.32 405.167 274.32 405.636C274.32 407.276 274.32 408.917 274.132 410.511C273.991 411.543 273.288 412.809 272.819 413.699C272.163 415.059 271.507 416.559 271.038 418.013C270.944 418.341 270.991 418.388 270.991 418.669C270.944 418.95 270.897 418.997 270.85 419.278C270.616 420.263 270.381 421.294 270.1 422.279C270.053 422.654 269.913 422.795 269.913 423.17C269.866 424.06 270.006 424.998 269.866 425.936C269.772 426.451 269.631 427.014 269.538 427.53C269.444 428.186 269.444 428.795 269.444 429.405V430.811C269.444 431.655 269.584 432.452 269.631 433.249V441.641C269.631 443.704 269.772 445.954 268.694 447.783C268.365 448.392 267.85 448.861 267.522 449.471C267.193 449.986 266.865 450.408 266.443 450.83C265.693 451.721 264.99 452.612 264.287 453.549C263.818 454.159 263.49 454.815 262.974 455.378C262.599 455.753 262.271 456.081 261.989 456.55C261.708 456.972 261.474 457.3 261.146 457.675C260.442 458.472 259.88 459.41 259.27 460.301C258.895 460.91 258.52 461.473 258.379 462.176C258.098 463.254 258.52 464.239 258.895 465.223C259.036 465.598 259.176 466.02 259.317 466.442C259.458 466.911 259.786 467.052 260.067 467.427C260.395 467.942 260.442 468.599 260.77 469.114C260.864 469.349 261.005 469.443 261.146 469.63C261.38 469.911 261.521 470.24 261.802 470.474C262.13 470.708 262.693 470.943 263.115 470.896C263.115 470.896 362.037 470.427 365.365 469.443C365.74 469.302 366.022 468.927 366.256 468.552C366.491 468.224 366.537 467.895 366.678 467.52C366.866 466.958 367.1 466.442 367.1 465.833C367.147 464.895 367.288 464.004 367.288 463.067C367.288 460.488 367.288 457.91 367.288 455.331C367.288 454.346 367.428 453.362 367.428 452.331V448.486C367.428 446.939 367.475 445.392 367.334 443.845C367.147 442.251 367.475 440.657 367.1 439.11Z" fill="#ECECEC"/>
<path d="M482.806 439.11C482.571 438.219 482.29 437.703 481.587 437.094C481.071 436.672 480.509 436.297 479.993 435.922C479.571 435.64 479.055 435.547 478.54 435.406C477.836 435.218 477.18 434.89 476.477 434.703C476.008 434.609 475.586 434.656 475.164 434.515C464.569 430.671 464.662 434.703 464.662 434.703C464.24 435.64 462.975 438.5 462.646 439.438C462.318 440.422 461.896 441.266 461.662 442.251C461.474 443.095 461.334 443.939 461.099 444.736C460.537 446.517 459.224 448.158 457.536 449.002C456.599 449.471 455.848 449.986 454.864 450.361C454.301 450.549 453.786 450.924 453.176 451.112C452.66 451.346 452.098 451.44 451.535 451.58C450.551 451.815 449.566 452.237 448.535 452.424C447.503 452.659 446.425 452.752 445.347 452.752H440.143L439.205 452.612C438.83 452.612 438.502 452.424 438.127 452.377C437.658 452.284 437.283 452.237 436.814 452.237H436.158C436.158 452.237 435.83 452.143 435.595 452.096C435.314 452.049 435.033 452.049 434.704 451.909C434.564 451.862 434.423 451.768 434.282 451.721C433.907 451.534 433.532 451.346 433.157 451.112C432.688 450.736 432.313 450.174 431.891 449.752C431.47 449.33 431.001 448.814 430.626 448.345C430.157 447.783 429.594 447.314 429.219 446.705C428.891 446.189 428.61 445.579 428.422 444.97C428.047 443.704 428 442.438 428.235 441.126C428.516 439.672 429.266 438.313 429.5 436.859C429.641 436.015 429.875 435.172 430.016 434.281C430.11 433.484 430.204 432.593 430.251 431.796C430.251 430.577 430.344 429.264 430.204 428.045C430.11 427.389 430.063 426.733 430.016 426.076C429.922 425.373 430.016 424.717 429.875 424.06C429.735 423.216 429.454 422.419 429.407 421.576C429.407 421.107 429.407 420.638 429.407 420.169C429.313 419.607 429.172 419.372 429.172 418.81V417.309C429.172 416.981 429.172 416.653 429.078 416.325C429.078 415.762 429.125 415.246 429.125 414.684C429.125 414.121 428.985 413.512 428.985 412.949C429.032 412.34 429.032 411.683 429.032 411.074C429.032 409.949 429.078 408.87 428.891 407.745C428.657 406.526 428.188 405.495 427.531 404.51C427.203 404.042 426.969 403.573 426.687 403.104C426.312 402.494 425.703 402.026 425.187 401.557C424.062 400.385 422.937 399.072 421.952 397.759C421.53 397.197 421.108 396.634 420.733 396.072C420.358 395.556 419.89 395.087 419.702 394.524C419.468 393.915 419.186 392.743 420.03 392.368C420.218 392.368 420.452 392.368 420.64 392.368H421.952C422.843 392.368 423.687 392.462 424.578 392.462C425.281 392.508 425.984 392.462 426.687 392.508C427.719 392.602 428.938 393.024 429.969 392.79C430.157 392.274 429.969 391.524 429.969 391.055V390.164C429.969 389.649 429.829 389.18 429.829 388.664C429.782 387.398 429.829 386.179 429.735 384.913C429.641 384.21 429.735 383.554 429.782 382.851C429.829 382.569 429.36 382.101 429.688 381.913C429.969 378.631 432.642 374.787 437.658 370.286C442.44 366.16 444.69 362.129 444.503 358.19C444.597 357.769 444.643 357.3 444.643 356.737C444.643 354.112 443.425 352.518 440.987 351.955C429.922 353.033 409.482 353.268 379.617 352.611C376.945 353.455 375.586 354.487 375.492 355.659C375.398 356.643 375.398 357.159 375.304 358.19C375.211 359.503 375.257 361.191 376.054 362.316C376.664 363.16 377.461 363.863 378.258 364.52C379.102 365.223 379.758 366.067 380.696 366.723C381.258 367.145 381.868 367.52 382.477 367.895C383.227 368.27 384.071 368.458 384.821 368.786C386.65 369.677 388.478 370.427 390.26 371.458C391.432 372.161 392.37 373.005 393.167 374.13C393.495 374.552 394.01 375.256 394.057 375.818C394.151 376.381 393.588 376.709 393.12 376.943C391.76 377.647 390.307 378.209 389.041 379.1C387.869 379.897 386.744 380.835 385.853 381.96C384.493 383.695 385.29 386.414 385.993 388.289C386.369 389.461 386.369 390.727 386.697 391.899C387.025 393.165 387.681 394.337 388.103 395.556C388.338 396.259 388.385 396.869 388.478 397.572C388.619 398.884 388.9 400.197 389.228 401.463C389.416 402.072 389.697 402.729 389.791 403.385C389.791 403.713 389.744 403.995 389.791 404.323C389.791 404.745 389.979 405.167 389.979 405.636C390.025 407.276 389.979 408.917 389.791 410.511C389.697 411.543 388.947 412.809 388.525 413.699C387.869 415.059 387.166 416.559 386.744 418.013C386.603 418.341 386.697 418.388 386.65 418.669C386.65 418.95 386.556 418.997 386.509 419.278C386.275 420.263 386.04 421.294 385.806 422.279C385.712 422.654 385.572 422.795 385.572 423.17C385.525 424.06 385.665 424.998 385.572 425.936C385.431 426.451 385.337 427.014 385.196 427.53C385.103 428.186 385.103 428.795 385.15 429.405V430.811C385.15 431.655 385.29 432.452 385.29 433.249C385.337 434.328 385.29 435.359 385.29 436.437V441.641C385.29 443.704 385.431 445.954 384.399 447.783C384.024 448.392 383.556 448.861 383.181 449.471C382.852 449.986 382.524 450.408 382.149 450.83C381.399 451.721 380.649 452.612 379.946 453.549C379.524 454.159 379.149 454.815 378.633 455.378C378.258 455.753 377.93 456.081 377.648 456.55C377.414 456.972 377.133 457.3 376.805 457.675C376.101 458.472 375.539 459.41 374.976 460.301C374.554 460.91 374.179 461.473 374.038 462.176C373.804 463.254 374.226 464.239 374.601 465.223C374.742 465.598 374.835 466.02 374.976 466.442C375.117 466.911 375.445 467.052 375.726 467.427C376.054 467.942 376.148 468.599 376.429 469.114C376.523 469.349 376.664 469.443 376.805 469.63C377.039 469.911 377.18 470.24 377.461 470.474C377.789 470.708 378.352 470.943 378.774 470.896C378.774 470.896 477.696 470.427 481.024 469.443C481.446 469.302 481.681 468.927 481.962 468.552C482.149 468.224 482.243 467.895 482.337 467.52C482.525 466.958 482.806 466.442 482.806 465.833C482.806 464.895 482.946 464.004 482.946 463.067V455.331C482.946 454.346 483.134 453.362 483.134 452.331V448.486C483.134 446.939 483.134 445.392 482.993 443.845C482.806 442.251 483.134 440.657 482.806 439.11Z" fill="#ECECEC"/>
<path d="M944.739 389.273C944.833 389.508 944.974 389.789 945.067 390.024L944.692 389.273H944.739Z" fill="#ECECEC"/>
<path d="M990.637 460.394C990.45 460.066 990.168 459.832 989.981 459.503C989.84 459.175 989.7 458.894 989.559 458.66C989.325 458.238 989.043 457.863 988.809 457.487C988.34 456.644 987.918 455.8 987.355 455.003C986.887 454.393 986.371 453.784 985.996 453.127C985.808 452.846 985.762 452.705 985.48 452.518C984.543 451.862 983.558 451.533 982.527 451.111C981.495 450.736 980.464 450.314 979.479 449.846C978.542 449.471 977.932 448.955 977.182 448.345C976.76 448.064 976.01 447.126 975.494 447.173C971.134 443.516 966.633 434.093 962.602 424.763C958.241 414.731 954.491 407.98 951.303 404.557C949.24 399.681 947.224 394.899 945.067 390.024H944.974C944.974 389.695 944.411 389.461 944.224 389.227C943.849 388.758 943.52 388.289 943.192 387.773C942.395 386.648 941.411 385.617 940.66 384.445C940.332 383.929 940.192 383.554 940.098 382.991C939.957 382.522 939.629 382.147 939.442 381.725C939.16 380.975 938.785 380.506 938.316 379.85C937.848 379.241 937.754 378.444 937.191 377.928C936.769 377.506 936.113 377.271 935.644 376.896C935.316 376.615 935.035 376.24 934.706 376.006C934.003 375.443 933.159 375.302 932.409 374.88C931.425 374.412 930.393 373.943 929.409 373.427C928.471 373.005 927.44 372.536 926.596 371.927C925.002 370.849 923.267 370.005 921.673 368.88C919.798 367.614 917.829 366.535 915.953 365.223C914.594 364.285 913.234 363.254 911.546 362.925C909.484 362.55 907.468 362.457 905.733 361.097C904.655 360.206 903.483 359.55 902.17 358.987C901.561 358.706 900.951 358.518 900.342 358.331C899.685 358.143 899.076 357.815 898.466 357.675C897.529 357.487 896.497 357.862 895.653 358.284C895.185 358.518 894.716 358.706 894.294 358.987C893.919 359.222 893.731 359.55 893.45 359.925C892.7 360.816 892.09 361.706 891.434 362.691C890.824 363.629 890.074 364.473 889.371 365.41C888.621 366.395 888.152 367.52 887.543 368.598C886.98 369.489 886.371 370.333 885.714 371.177C884.964 372.208 884.167 373.24 883.558 374.365C883.229 374.974 882.808 375.537 882.526 376.193C882.245 376.756 882.386 377.365 882.292 377.975C882.104 379.381 882.151 380.788 882.151 382.194C882.151 382.616 882.151 383.085 882.198 383.507C882.245 383.976 882.245 384.538 882.245 385.101C882.245 386.414 882.011 387.726 881.448 388.992C872.54 402.588 865.742 414.637 861.054 425.232C858.194 428.045 855.147 431.89 851.959 436.765C847.739 443.095 844.973 447.08 843.708 448.767C836.675 451.018 834.331 454.159 827.674 456.128C826.314 459.222 825.658 466.723 825.658 467.427C825.658 468.786 826.361 469.818 827.767 470.521C833.581 469.818 841.879 469.442 852.615 469.442H878.916C879.854 469.021 880.557 468.692 880.979 468.364C881.307 467.52 881.448 466.723 881.448 465.879C881.448 463.395 879.854 460.347 876.666 456.831C873.478 453.315 871.884 450.596 871.884 448.767C871.884 447.314 872.54 445.767 873.806 444.22C878.682 441.735 884.542 440.516 891.34 440.516C895.185 440.516 900.342 440.985 906.811 441.876C914.266 443.048 919.188 443.657 921.626 443.751C924.299 445.626 928.33 450.221 928.33 451.955C928.33 453.69 925.517 455.284 919.704 456.315C914.828 457.159 914.969 461.894 914.547 463.77C913.562 466.676 913.844 468.27 915.344 468.599C916.657 468.599 921.954 468.599 932.456 468.692C940.145 468.692 946.474 468.458 951.443 468.036L976.197 467.661C976.666 467.614 977.182 467.661 977.698 467.661C979.198 467.614 980.651 467.333 982.105 467.52C983.652 467.708 985.152 467.661 986.699 467.661C987.684 467.661 988.715 467.708 989.606 467.286C990.45 466.911 991.34 466.254 991.716 465.364C991.997 464.707 991.997 463.629 991.856 462.879C991.716 461.894 991.2 461.191 990.637 460.394ZM911.64 422.326C911.031 423.31 909.39 423.732 908.405 423.966C907.749 424.154 906.999 424.201 906.296 424.201L901.795 424.342C899.873 424.435 897.904 424.154 895.981 423.966C893.45 423.732 890.918 423.498 888.34 423.404C887.074 423.404 885.855 423.357 884.636 423.216C884.401 423.169 883.886 423.169 883.745 422.982C883.651 422.794 883.792 422.466 883.839 422.326C883.839 422.044 883.839 421.716 883.839 421.435C883.933 421.2 884.026 421.153 884.026 420.872C884.026 420.356 884.073 419.935 884.167 419.419C884.355 418.669 884.589 417.965 884.777 417.262C884.917 416.793 885.245 416.465 885.48 416.043C885.714 415.668 885.855 415.246 886.042 414.871C886.277 414.449 886.464 414.074 886.699 413.652C887.355 412.433 887.777 411.121 888.433 409.902C889.137 408.542 889.84 407.183 890.449 405.776C890.918 404.651 891.575 403.385 892.325 402.401C893.215 401.135 894.434 400.197 895.606 399.212C896.357 398.65 897.107 397.994 897.857 397.431C898.138 397.197 898.466 396.915 898.794 396.775C899.451 397.665 899.779 398.228 899.967 398.556C900.107 398.931 900.295 399.119 900.388 399.541C900.388 399.681 900.388 399.869 900.435 400.01C900.623 400.807 901.045 401.51 901.045 402.354C901.045 403.104 901.185 403.619 901.467 404.323C901.748 405.026 901.842 405.776 902.123 406.479C902.545 407.464 902.967 408.448 903.342 409.48C903.67 410.464 904.514 410.933 905.264 411.683C905.827 412.293 906.155 412.902 906.624 413.559C907.046 414.121 907.608 414.543 908.03 415.106C908.405 415.668 908.921 416.184 909.202 416.747C909.437 417.168 909.531 417.637 909.718 418.059C910.046 418.622 910.421 419.138 910.796 419.653C911.265 420.357 911.5 421.06 911.687 421.857C911.734 422.138 911.781 422.091 911.593 422.326H911.64Z" fill="#ECECEC"/>
<path d="M1090.87 353.831C1084.45 353.831 1076.24 353.784 1066.26 353.596C1051.91 353.409 1043.15 356.128 1041.08 356.456C1037.14 357.065 1036.96 358.003 1036.91 362.973C1041.08 367.52 1039.63 370.427 1039.58 377.272C1039.49 382.804 1038.04 389.274 1035.08 396.681C1033.82 399.447 1032.5 402.166 1031.24 404.933C1029.41 407.98 1029.13 411.309 1026.03 411.309C1024.25 411.074 1022.66 410.043 1021.2 408.167C1019.94 406.714 1018.77 405.261 1017.59 403.854C1013.94 393.681 1010.98 386.367 1008.83 381.913C1008.22 380.507 1007.94 379.006 1007.94 377.459C1007.94 375.537 1008.59 373.193 1009.91 370.427C1011.73 366.348 1016.14 365.082 1016.33 364.567C1017.08 362.926 1017.45 361.285 1017.5 359.644C1017.5 357.722 1016.8 356.55 1015.3 356.268C1014.36 356.222 1007.84 355.331 1002.5 355.612C998.56 355.753 995.466 355.565 993.169 355.05C987.496 355.987 980.604 356.456 972.634 356.362C970.29 356.315 965.649 356.222 958.569 356.034C952.569 355.8 947.74 355.659 944.036 355.753C940.379 355.8 938.504 357.159 938.504 359.832C938.457 360.535 938.644 361.285 938.926 361.988C939.535 366.723 941.926 370.615 946.239 373.756C950.318 376.147 954.35 378.538 958.335 380.929C962.93 384.07 965.696 387.867 966.727 392.368C970.056 396.212 973.244 402.541 976.291 411.402C979.385 420.216 982.526 426.498 985.761 430.202C989.278 442.439 998.513 457.394 1013.38 475.069C1014.41 476.006 1015.44 476.475 1016.52 476.475C1017.97 476.475 1019.75 475.584 1021.77 473.756C1026.97 466.864 1032.5 457.066 1038.32 444.454C1045.26 429.265 1050.18 419.232 1053.18 414.356C1054.91 411.496 1056.98 406.105 1059.37 398.135C1061.52 390.774 1063.82 385.523 1066.16 382.382C1069.68 377.506 1077.7 370.099 1084.36 369.536C1087.4 368.458 1089.79 366.301 1091.53 363.02C1092.18 361.894 1092.28 361.379 1094.01 356.503C1093.83 355.378 1092.75 354.487 1090.87 353.831Z" fill="#ECECEC"/>
<path d="M597.246 432.171C597.246 432.171 597.527 432.546 597.48 432.546C597.387 432.358 597.48 432.171 597.48 431.983C597.434 431.561 597.246 431.139 597.105 430.717C596.918 430.201 596.871 429.686 596.637 429.217C595.371 427.013 593.824 425.044 592.511 422.888C591.573 421.434 590.261 420.169 589.323 418.715C588.667 417.684 588.245 416.512 587.682 415.387C587.495 415.012 587.354 414.636 587.213 414.261C587.026 413.839 586.697 413.511 586.463 413.089C586.229 412.667 586.088 412.245 585.807 411.87C585.619 411.589 585.291 411.214 585.103 410.886C584.728 410.276 584.353 409.667 583.885 409.151C583.275 408.401 582.572 407.839 581.962 407.042C581.494 406.385 581.118 405.823 580.556 405.26C580.228 404.932 579.806 404.791 579.524 404.51C579.384 404.369 579.337 404.182 579.196 403.994C578.774 403.432 577.649 402.775 577.04 402.447C576.758 402.306 576.477 402.26 576.243 402.072C576.055 401.931 576.055 401.697 575.868 401.556C575.68 401.369 575.493 401.322 575.305 401.228C574.742 400.994 574.227 400.666 573.711 400.384C572.961 400.009 572.164 399.728 571.414 399.353C569.679 398.415 567.991 397.431 566.257 396.54C565.366 396.071 564.335 395.977 563.491 395.462C562.6 394.946 561.803 394.477 560.865 394.008C560.209 393.68 559.646 393.258 558.943 392.977C558.568 392.836 558.24 392.695 557.912 392.508C557.255 392.133 556.599 391.852 555.943 391.523C554.817 390.961 553.598 390.492 552.473 389.883C551.161 389.179 549.66 388.851 548.207 388.429C546.894 388.054 545.628 387.679 544.269 387.398C542.909 387.116 541.456 386.976 540.143 386.601C538.83 386.226 537.424 385.616 536.205 385.054C534.658 384.304 533.111 383.694 531.657 382.71C530.485 381.866 529.36 381.116 528.844 379.709C528.61 379.053 528.423 378.209 528.376 377.552C528.376 376.755 528.282 375.958 528.282 375.161C528.329 373.896 528.235 372.442 528.376 371.176C528.61 369.207 530.345 367.707 531.517 366.207C532.454 365.035 533.111 363.675 534.377 362.878C535.267 362.316 536.158 361.753 537.236 361.706C538.174 361.706 539.112 361.566 540.049 361.519C540.565 361.519 541.175 361.612 541.597 361.941C542.253 362.456 542.909 363.16 543.425 363.816C544.081 364.707 544.41 365.597 545.207 366.394C545.441 366.629 545.582 366.863 545.816 367.098C546.379 367.707 547.551 368.035 548.301 368.317C549.473 368.785 550.645 369.348 551.817 369.723C552.848 370.051 553.786 370.145 554.864 370.286C555.802 370.426 556.786 370.661 557.724 370.708C558.38 370.708 558.943 370.848 559.599 370.895C561.147 370.942 562.647 371.317 563.819 372.348C564.85 373.239 564.991 374.974 564.991 376.287C564.991 378.021 564.897 379.756 564.991 381.444C565.178 384.913 567.194 388.007 569.304 390.68C570.242 391.852 571.039 392.977 572.351 393.727C573.43 394.336 574.461 394.946 575.727 395.133C577.087 395.321 578.54 395.368 579.9 395.368C580.837 395.368 582.15 395.368 583.041 394.993C583.931 394.571 584.541 393.492 584.963 392.649C585.619 391.242 585.947 389.789 586.463 388.335C586.791 387.492 586.651 386.554 586.651 385.616C586.651 384.632 586.744 383.6 586.651 382.569C586.463 381.069 586.604 379.568 586.182 378.115C585.901 377.084 585.479 375.958 585.057 375.021C584.635 374.083 583.978 373.427 583.369 372.63C582.994 372.114 582.853 371.88 582.291 371.505C581.54 370.989 580.743 370.614 579.993 370.098C578.774 369.254 577.415 368.739 576.196 367.942C575.024 367.145 573.945 366.16 573.148 364.988C572.539 364.191 571.976 363.441 571.789 362.456C571.601 361.659 571.461 360.862 571.461 360.018C571.461 359.128 571.554 358.19 571.367 357.346C571.132 356.221 570.851 355.096 570.57 354.017C570.382 353.314 569.914 352.892 569.445 352.33C569.21 352.095 569.304 352.001 568.976 351.767C568.601 351.533 568.179 351.673 567.851 351.392C566.397 350.032 563.444 350.595 561.662 350.548C560.959 350.548 560.303 350.548 559.646 350.689C559.084 350.783 558.943 350.97 558.427 351.204C557.865 351.486 557.208 351.533 556.646 351.767C556.13 351.955 555.568 352.142 555.005 352.189C553.786 352.236 552.567 352.377 551.348 352.377C549.989 352.377 548.723 352.142 547.363 352.189C546.238 352.189 545.16 351.955 544.034 352.001C542.722 352.001 541.456 351.767 540.143 351.814C539.534 351.814 538.971 351.72 538.362 351.673C537.236 351.533 536.158 351.58 535.033 351.439C533.345 351.204 531.657 351.204 529.97 350.97C529.36 350.876 528.751 350.736 528.094 350.642C527.344 350.548 526.594 350.642 525.844 350.642C523.875 350.642 521.906 350.783 519.937 350.829C518.249 350.829 516.233 351.017 514.686 351.72C513.233 352.423 511.779 353.267 510.42 354.111C509.06 354.908 507.935 355.799 506.763 356.924C505.356 358.284 503.715 359.315 502.262 360.628C501.512 361.331 500.668 361.987 499.777 362.503C499.215 362.831 498.933 363.206 498.512 363.722C497.949 364.378 497.293 364.941 496.683 365.551C494.151 368.176 491.714 370.942 490.213 374.318C489.088 376.755 488.338 379.381 488.104 382.006C487.916 383.835 487.541 385.569 487.541 387.445C487.541 388.804 487.541 390.07 487.775 391.43C488.057 392.883 488.244 394.383 488.807 395.743C489.088 396.399 489.088 397.29 489.604 397.806C489.932 398.181 490.541 398.274 491.057 398.368C491.854 398.509 492.698 398.462 493.542 398.556C494.198 398.65 494.855 398.556 495.464 398.65C496.824 398.884 498.23 398.978 499.59 399.165C501.043 399.353 502.497 399.634 503.903 400.056C504.325 400.197 504.7 400.29 505.122 400.431C506.106 400.9 507.232 401.041 508.216 401.463C509.67 402.072 511.029 402.775 512.061 403.947C512.482 404.416 512.811 404.885 513.233 405.307C513.936 405.963 514.733 406.573 515.483 407.182C515.999 407.651 516.046 408.542 515.858 409.198C515.577 410.276 513.795 410.792 512.951 411.167C510.232 412.48 506.622 412.902 503.715 412.058C502.918 411.824 502.262 411.355 501.465 411.261C500.809 411.167 500.059 411.261 499.402 411.261C498.793 411.261 497.715 411.261 497.293 411.87C497.246 411.824 497.058 411.777 496.964 411.73C496.73 412.199 496.871 413.418 496.964 413.886C497.293 415.246 498.324 416.559 499.262 417.543C500.996 419.419 503.059 421.013 505.028 422.653C506.763 424.154 508.638 425.091 510.795 425.935C513.045 426.826 515.202 427.857 517.499 428.654C519.515 429.358 521.484 429.967 523.453 430.811C525 431.514 526.5 432.311 528.141 432.733C529.313 433.014 530.485 433.155 531.657 433.53C532.408 433.765 533.017 434.046 533.767 434.186C536.018 434.655 538.08 435.359 540.096 436.437C541.268 436.999 542.487 437.421 543.612 438.078C544.081 438.359 544.785 438.64 545.207 438.968C546.519 440 547.457 441.875 548.207 443.329C548.441 443.797 548.676 444.313 548.863 444.782C549.004 445.251 549.285 445.72 549.426 446.142C549.707 446.985 549.473 448.157 549.426 449.001C549.426 449.845 549.098 450.548 548.676 451.299C547.973 452.471 546.8 453.268 545.769 454.158C544.831 454.955 543.753 454.909 542.581 455.049C542.065 455.096 541.55 455.19 541.034 455.284C540.003 455.424 539.018 455.237 537.987 455.049C536.721 454.815 535.689 454.674 534.564 454.112C533.064 453.361 531.47 453.408 529.923 452.893C528.938 452.564 528.141 451.955 527.157 451.627C526.735 451.486 526.313 451.439 525.891 451.252C525.047 450.783 524.344 450.22 523.406 449.845C521.25 448.954 519.468 447.923 517.733 446.376C516.702 445.438 515.483 444.876 514.452 443.938C513.795 443.329 513.186 442.532 512.858 441.688C512.483 440.844 512.154 440.047 511.732 439.25C511.31 438.453 510.795 437.75 510.373 436.999C509.998 436.296 509.435 435.687 509.107 434.983C508.732 434.28 508.357 433.999 507.701 433.483C506.904 432.827 506.247 432.124 505.263 431.702C504.653 431.42 503.669 431.327 502.965 431.233C502.356 431.186 501.793 431.28 501.184 431.28C500.856 431.28 499.918 431.327 499.965 431.889C499.215 432.639 498.136 433.061 497.433 433.858C496.964 434.374 496.542 434.796 496.027 435.218C495.464 435.687 495.042 436.343 494.573 436.906C492.886 438.828 491.432 441.36 490.917 443.891C490.776 444.594 490.823 445.251 490.776 446.001C490.729 446.798 490.588 447.548 490.588 448.345C490.588 449.283 490.682 450.267 490.588 451.205C490.495 452.236 490.401 453.08 490.588 454.158C490.776 455.237 490.963 456.409 491.198 457.44C491.62 459.081 492.323 460.628 492.933 462.128C493.73 464.004 494.386 465.973 495.23 467.848C495.464 468.364 495.886 468.833 496.167 469.348C496.496 469.958 496.824 470.474 497.293 470.989C498.183 472.068 499.074 473.099 500.34 473.755C501.137 474.177 501.981 474.224 502.825 474.365C503.809 474.505 504.7 474.552 505.685 474.552C506.763 474.552 507.794 474.459 508.826 474.365C509.763 474.271 510.654 474.365 511.592 474.318C512.342 474.271 513.045 474.037 513.795 473.943C514.498 473.849 515.155 473.708 515.858 473.521C516.186 473.427 516.561 473.286 516.889 473.193C517.452 473.052 518.062 473.099 518.624 473.099C519.468 473.099 520.312 472.911 521.156 472.865C522.047 472.865 522.937 472.865 523.828 472.865C525.328 472.865 526.641 473.052 528.094 473.333C528.704 473.427 529.313 473.427 529.876 473.615C530.485 473.802 531.048 474.13 531.704 474.271C532.97 474.552 534.189 475.021 535.502 475.209C536.439 475.396 537.377 475.724 538.315 475.865C538.924 475.959 539.534 475.865 540.143 475.959C541.081 476.099 542.018 476.099 542.956 476.099C544.738 476.099 546.519 476.193 548.254 476.099C549.707 476.006 551.067 475.912 552.52 475.912C555.38 475.912 558.146 475.396 560.959 475.068C562.272 474.927 563.35 474.552 564.569 473.943C565.835 473.333 567.101 472.911 568.46 472.443C571.133 471.458 573.524 469.864 576.008 468.458C576.712 468.083 577.415 467.661 578.071 467.145C579.009 466.395 580.134 465.973 581.072 465.316C581.634 464.895 582.197 464.473 582.759 464.004C582.994 463.816 583.134 463.629 583.369 463.441C583.65 463.207 584.025 463.066 584.353 462.832C585.385 462.082 586.182 461.097 587.26 460.394C587.87 459.972 588.338 459.409 588.901 458.894C589.417 458.425 589.932 457.862 590.401 457.346C590.87 456.831 591.151 456.174 591.62 455.659C592.042 455.19 592.323 454.909 592.558 454.346C593.027 453.221 593.917 452.33 594.386 451.158C594.761 450.267 595.23 449.423 595.652 448.579C595.933 448.017 596.355 447.548 596.543 446.985C596.777 446.376 596.777 445.673 597.012 445.016C597.293 444.079 597.293 443.235 597.293 442.25C596.73 441.5 597.621 439.578 597.715 438.734C597.715 438.5 597.715 438.218 597.715 438.031C597.715 437.187 597.48 436.39 597.527 435.593C597.527 434.468 597.434 433.389 597.34 432.264L597.246 432.171Z" fill="#ECECEC"/>
<path d="M1825.24 433.812C1825.24 432.968 1825.01 432.171 1825.01 431.327C1825.01 430.202 1824.91 429.077 1824.82 427.952C1824.77 427.952 1825.1 428.327 1825.05 428.327C1824.96 428.139 1825.05 427.952 1825.05 427.764C1825.01 427.342 1824.82 426.92 1824.68 426.498C1824.49 425.983 1824.44 425.467 1824.21 424.998C1822.94 422.795 1821.35 420.732 1819.99 418.575C1819.05 417.075 1817.69 415.856 1816.75 414.356C1816.05 413.278 1815.63 412.106 1815.07 410.98C1814.88 410.605 1814.74 410.23 1814.6 409.808C1814.41 409.386 1814.08 409.058 1813.85 408.636C1813.61 408.214 1813.47 407.792 1813.19 407.417C1813 407.136 1812.68 406.714 1812.49 406.433C1812.11 405.823 1811.69 405.214 1811.27 404.651C1810.66 403.901 1809.91 403.339 1809.35 402.542C1808.88 401.885 1808.46 401.276 1807.89 400.713C1807.56 400.385 1807.14 400.244 1806.81 399.916C1806.67 399.775 1806.63 399.588 1806.49 399.4C1806.06 398.838 1804.89 398.181 1804.28 397.853C1804 397.713 1803.72 397.666 1803.49 397.478C1803.3 397.338 1803.25 397.103 1803.11 396.963C1802.92 396.775 1802.74 396.728 1802.55 396.634C1801.99 396.4 1801.47 396.025 1800.95 395.79C1800.2 395.415 1799.36 395.134 1798.66 394.712C1796.92 393.775 1795.19 392.743 1793.41 391.852C1792.52 391.384 1791.48 391.29 1790.59 390.774C1789.7 390.258 1788.86 389.743 1787.97 389.321C1787.31 388.992 1786.7 388.571 1786 388.289C1785.62 388.149 1785.3 388.008 1784.97 387.82C1784.31 387.445 1783.65 387.164 1782.95 386.836C1781.78 386.273 1780.61 385.758 1779.44 385.195C1778.08 384.492 1776.58 384.164 1775.12 383.742C1773.81 383.367 1772.5 382.992 1771.14 382.71C1769.73 382.429 1768.28 382.288 1766.92 381.913C1765.61 381.538 1764.15 380.929 1762.93 380.319C1761.39 379.569 1759.79 378.96 1758.34 377.928C1757.17 377.084 1755.99 376.334 1755.48 374.881C1755.24 374.225 1755.06 373.381 1755.01 372.677C1755.01 371.88 1754.92 371.036 1754.92 370.239C1754.96 368.927 1754.87 367.52 1755.01 366.208C1755.24 364.192 1756.98 362.691 1758.2 361.144C1759.14 359.925 1759.79 358.613 1761.1 357.769C1762.04 357.206 1762.89 356.644 1764.01 356.597C1764.95 356.597 1765.93 356.409 1766.87 356.409C1767.43 356.409 1768 356.503 1768.46 356.831C1769.17 357.347 1769.82 358.05 1770.34 358.753C1771 359.644 1771.32 360.582 1772.17 361.379C1772.4 361.613 1772.59 361.848 1772.78 362.082C1773.39 362.738 1774.56 363.02 1775.31 363.348C1776.48 363.817 1777.65 364.379 1778.87 364.801C1779.9 365.176 1780.84 365.223 1781.97 365.364C1782.9 365.504 1783.89 365.739 1784.87 365.786C1785.53 365.786 1786.14 365.926 1786.8 365.973C1788.39 366.02 1789.89 366.395 1791.11 367.427C1792.19 368.364 1792.28 370.099 1792.28 371.412C1792.28 373.146 1792.19 374.928 1792.28 376.662C1792.47 380.179 1794.53 383.273 1796.69 385.992C1797.63 387.211 1798.42 388.336 1799.78 389.086C1800.91 389.696 1801.89 390.305 1803.2 390.493C1804.56 390.68 1806.02 390.774 1807.42 390.774C1808.36 390.774 1809.67 390.774 1810.61 390.352C1811.5 389.93 1812.11 388.852 1812.53 388.008C1813.24 386.601 1813.52 385.101 1814.03 383.648C1814.36 382.757 1814.22 381.819 1814.22 380.929C1814.22 379.897 1814.32 378.866 1814.22 377.834C1814.03 376.334 1814.18 374.787 1813.75 373.287C1813.47 372.255 1813.05 371.13 1812.63 370.146C1812.21 369.161 1811.5 368.552 1810.89 367.708C1810.52 367.192 1810.38 366.958 1809.77 366.536C1809.02 366.02 1808.17 365.645 1807.42 365.129C1806.21 364.285 1804.8 363.77 1803.58 362.926C1802.36 362.129 1801.33 361.097 1800.49 359.925C1799.88 359.081 1799.31 358.331 1799.08 357.347C1798.89 356.503 1798.75 355.706 1798.75 354.862C1798.75 353.971 1798.84 353.034 1798.66 352.143C1798.38 351.018 1798.14 349.846 1797.86 348.767C1797.67 348.017 1797.2 347.642 1796.73 347.08C1796.5 346.845 1796.59 346.704 1796.27 346.517C1795.89 346.283 1795.47 346.423 1795.09 346.095C1793.64 344.689 1790.59 345.298 1788.81 345.251C1788.11 345.251 1787.45 345.251 1786.75 345.392C1786.19 345.486 1786.05 345.673 1785.53 345.907C1784.97 346.189 1784.31 346.283 1783.7 346.47C1783.14 346.658 1782.62 346.845 1782.06 346.892C1780.79 346.939 1779.58 347.08 1778.36 347.08C1777 347.08 1775.68 346.845 1774.33 346.892C1773.2 346.892 1772.07 346.658 1770.95 346.658C1769.64 346.658 1768.32 346.423 1766.96 346.47C1766.36 346.47 1765.75 346.376 1765.14 346.329C1764.01 346.189 1762.89 346.236 1761.76 346.095C1760.07 345.861 1758.34 345.861 1756.65 345.626C1755.99 345.532 1755.38 345.392 1754.78 345.298C1754.03 345.204 1753.27 345.298 1752.52 345.298C1750.51 345.298 1748.54 345.439 1746.52 345.486C1744.79 345.486 1742.77 345.673 1741.18 346.423C1739.73 347.126 1738.27 348.017 1736.87 348.861C1735.51 349.658 1734.33 350.596 1733.16 351.674C1731.71 353.034 1730.07 354.065 1728.61 355.425C1727.86 356.128 1726.97 356.784 1726.08 357.3C1725.52 357.628 1725.24 358.003 1724.82 358.519C1724.25 359.175 1723.6 359.738 1722.99 360.394C1720.41 363.066 1717.97 365.833 1716.43 369.255C1715.3 371.74 1714.5 374.365 1714.27 377.084C1714.08 378.96 1713.71 380.694 1713.71 382.57C1713.71 383.929 1713.71 385.242 1713.94 386.601C1714.22 388.055 1714.41 389.602 1714.97 390.962C1715.25 391.618 1715.25 392.509 1715.77 393.071C1716.14 393.446 1716.75 393.54 1717.22 393.634C1718.02 393.775 1718.91 393.728 1719.71 393.821C1720.36 393.915 1721.02 393.821 1721.68 393.915C1723.04 394.15 1724.44 394.243 1725.85 394.431C1727.3 394.618 1728.8 394.9 1730.21 395.322C1730.63 395.462 1731.01 395.556 1731.43 395.697C1732.46 396.166 1733.54 396.306 1734.57 396.728C1736.02 397.338 1737.38 398.088 1738.46 399.26C1738.88 399.729 1739.21 400.197 1739.68 400.666C1740.38 401.369 1741.23 401.932 1741.98 402.588C1742.49 403.057 1742.54 403.948 1742.35 404.604C1742.02 405.683 1740.24 406.198 1739.4 406.62C1736.68 407.933 1732.97 408.355 1730.02 407.511C1729.22 407.277 1728.52 406.808 1727.72 406.667C1727.07 406.573 1726.32 406.667 1725.61 406.667C1725 406.667 1723.88 406.667 1723.5 407.277C1723.46 407.23 1723.27 407.183 1723.18 407.089C1722.94 407.558 1723.08 408.824 1723.18 409.293C1723.5 410.699 1724.54 411.965 1725.47 412.996C1727.26 414.872 1729.32 416.513 1731.29 418.2C1733.07 419.747 1734.94 420.685 1737.15 421.529C1739.44 422.42 1741.65 423.498 1743.95 424.248C1746.01 424.951 1747.98 425.561 1749.99 426.452C1751.59 427.155 1753.04 427.999 1754.78 428.421C1755.95 428.702 1757.17 428.89 1758.34 429.218C1759.09 429.452 1759.74 429.733 1760.49 429.874C1762.79 430.343 1764.85 431.093 1766.92 432.124C1768.09 432.734 1769.36 433.156 1770.48 433.812C1770.95 434.093 1771.7 434.375 1772.12 434.75C1773.43 435.781 1774.42 437.703 1775.17 439.157C1775.4 439.626 1775.68 440.141 1775.83 440.61C1775.97 441.079 1776.25 441.548 1776.39 442.017C1776.67 442.86 1776.43 444.033 1776.39 444.923C1776.39 445.814 1776.06 446.517 1775.64 447.221C1775.64 447.221 1775.78 447.127 1775.83 447.127C1775.97 447.596 1773.72 448.018 1773.43 448.018C1772.68 448.018 1771.93 448.018 1771.14 448.018C1770.76 448.018 1770.48 448.018 1770.11 447.924C1769.78 447.877 1769.45 447.924 1769.12 447.924C1768.89 447.924 1768.65 447.736 1768.37 447.689C1768.14 447.689 1767.9 447.689 1767.67 447.643C1767.06 447.549 1766.5 447.408 1765.89 447.361C1765.37 447.314 1764.85 447.361 1764.39 447.221C1764.1 447.174 1763.78 447.08 1763.5 446.986C1763.03 446.892 1762.56 446.892 1762.09 446.752C1761.76 446.658 1761.48 446.564 1761.2 446.47C1760.87 446.377 1760.54 446.33 1760.21 446.236C1759.65 446.142 1759.14 445.908 1758.57 445.767C1757.54 445.533 1756.65 445.205 1755.71 444.736C1755.15 444.454 1754.54 444.173 1753.98 443.845C1753.42 443.564 1752.9 443.189 1752.34 442.907C1751.54 442.532 1750.93 442.017 1750.23 441.548C1749.81 441.266 1749.38 441.126 1749.01 440.798C1748.49 440.329 1747.88 439.954 1747.46 439.438C1746.81 438.594 1746.15 437.657 1745.45 436.86C1745.07 436.438 1744.7 435.922 1744.27 435.547C1744.04 435.312 1743.85 434.984 1743.62 434.75C1743.15 434.187 1742.63 433.578 1742.12 433.109C1741.65 432.734 1741.41 432.218 1741.09 431.749C1740.8 431.327 1740.62 430.905 1740.19 430.53C1739.77 430.155 1739.26 429.827 1738.79 429.499C1737.66 428.702 1736.26 428.046 1734.94 427.577C1732.97 426.874 1731.43 427.155 1729.36 426.967C1728.76 426.92 1728.15 427.014 1727.54 427.014C1727.21 427.014 1726.27 427.061 1726.32 427.624C1725.57 428.421 1724.44 428.796 1723.74 429.64C1723.27 430.155 1722.85 430.577 1722.33 430.999C1721.77 431.468 1721.35 432.124 1720.88 432.687C1719.14 434.656 1717.69 437.188 1717.18 439.766C1717.03 440.469 1717.08 441.173 1716.99 441.876C1716.94 442.673 1716.8 443.423 1716.8 444.22C1716.8 445.205 1716.89 446.189 1716.8 447.127C1716.71 448.205 1716.61 449.049 1716.8 450.127C1716.99 451.206 1717.18 452.425 1717.46 453.456C1717.88 455.097 1718.58 456.691 1719.24 458.238C1720.04 460.16 1720.74 462.129 1721.58 464.004C1721.82 464.567 1722.24 464.989 1722.52 465.505C1722.85 466.114 1723.22 466.63 1723.65 467.146C1724.54 468.224 1725.47 469.302 1726.74 469.959C1727.54 470.381 1728.38 470.427 1729.27 470.568C1730.26 470.709 1731.15 470.756 1732.18 470.756C1733.26 470.756 1734.29 470.662 1735.37 470.568C1736.3 470.474 1737.24 470.568 1738.18 470.521C1738.93 470.427 1739.63 470.24 1740.38 470.146C1741.09 470.052 1741.79 469.912 1742.49 469.724C1742.87 469.63 1743.2 469.49 1743.52 469.396C1744.09 469.255 1744.7 469.302 1745.3 469.302C1746.15 469.302 1746.99 469.115 1747.84 469.068C1748.73 469.068 1749.67 469.068 1750.56 469.068C1752.06 469.068 1753.37 469.255 1754.87 469.537C1755.48 469.63 1756.13 469.63 1756.7 469.818C1757.35 470.005 1757.87 470.334 1758.53 470.474C1759.84 470.756 1761.06 471.224 1762.37 471.459C1763.35 471.646 1764.25 471.975 1765.23 472.162C1765.84 472.256 1766.45 472.162 1767.06 472.256C1768.04 472.396 1768.93 472.396 1769.92 472.396C1771.7 472.396 1773.53 472.49 1775.31 472.396C1776.76 472.303 1778.17 472.209 1779.62 472.209C1782.48 472.209 1785.34 471.693 1788.2 471.365C1789.56 471.224 1790.64 470.849 1791.86 470.24C1793.17 469.584 1794.44 469.208 1795.8 468.693C1798.47 467.708 1800.95 466.067 1803.44 464.661C1804.14 464.239 1804.89 463.817 1805.5 463.301C1806.44 462.551 1807.56 462.129 1808.55 461.426C1809.11 461.004 1809.72 460.535 1810.28 460.113C1810.52 459.926 1810.71 459.738 1810.89 459.551C1811.22 459.316 1811.55 459.176 1811.88 458.941C1812.91 458.144 1813.71 457.16 1814.83 456.456C1815.49 456.034 1815.91 455.472 1816.47 454.956C1816.99 454.487 1817.5 453.925 1817.97 453.362C1818.44 452.846 1818.72 452.143 1819.19 451.628C1819.61 451.159 1819.89 450.877 1820.13 450.268C1820.6 449.143 1821.49 448.205 1822 447.033C1822.38 446.142 1822.85 445.251 1823.32 444.408C1823.6 443.845 1824.02 443.376 1824.21 442.767C1824.44 442.11 1824.44 441.454 1824.68 440.798C1824.96 439.86 1824.96 439.016 1824.96 438.032C1824.4 437.281 1825.29 435.312 1825.38 434.469C1825.38 434.234 1825.38 433.953 1825.38 433.718L1825.24 433.812Z" fill="#ECECEC"/>
<path d="M1567.95 352.564C1567.76 352.189 1567.34 352.002 1567.1 351.674C1566.87 351.392 1566.68 351.111 1566.45 350.877C1565.89 350.267 1564.99 349.611 1564.24 349.376C1563.78 349.236 1562.98 349.376 1562.46 349.376C1561.57 349.376 1560.63 349.376 1559.74 349.376C1557.82 349.376 1555.81 349.611 1553.88 349.892C1553.04 350.033 1552.15 349.845 1551.31 350.033C1550.93 350.127 1550.6 350.408 1550.27 350.502C1549.52 350.689 1548.82 350.549 1548.02 350.83C1546.8 351.252 1545.73 351.439 1544.41 351.58C1543.29 351.721 1542.26 351.721 1541.13 351.955C1540.1 352.143 1539.02 351.955 1537.99 352.096C1536.44 352.33 1534.94 352.189 1533.4 352.377C1532.18 352.518 1530.82 352.424 1529.69 352.893C1529.08 353.127 1528.52 353.174 1527.96 353.455C1527.39 353.783 1526.74 354.018 1526.18 354.346C1525.57 354.674 1524.72 355.002 1524.21 355.424C1523.27 356.174 1522.38 357.44 1521.72 358.519C1521.07 359.644 1521.3 360.394 1521.21 361.566C1521.21 361.988 1521.02 362.363 1520.93 362.785C1520.78 363.629 1520.93 364.754 1520.93 365.598C1520.93 367.754 1520.93 369.911 1520.93 372.068C1520.93 373.568 1520.46 374.693 1519.47 375.865C1518.91 376.568 1518.21 377.037 1517.69 377.74C1517.32 378.256 1517.03 378.678 1516.52 379.1C1515.53 379.944 1514.55 380.694 1513.56 381.538C1512.44 382.475 1511.5 384.632 1510 384.96C1509.3 385.101 1509.02 384.679 1508.55 384.351C1508.27 384.163 1508.03 384.21 1507.8 384.069C1507.47 383.882 1507.33 383.648 1507.05 383.366C1506.25 382.569 1505.69 381.585 1504.94 380.694C1504.42 380.084 1504.09 379.475 1503.72 378.772C1503.11 377.693 1502.31 376.896 1501.61 375.912C1500.95 375.068 1500.48 374.037 1499.92 373.099C1498.89 371.411 1498.66 369.536 1498.56 367.567C1498.56 366.817 1498.75 366.254 1498.89 365.551C1499.03 364.801 1498.8 364.285 1499.12 363.488C1499.97 361.519 1502.03 360.066 1503.67 358.753C1505.13 357.628 1505.88 355.143 1505.92 353.361C1505.92 351.814 1505.27 351.205 1504 350.408C1502.31 349.33 1500.25 349.705 1498.23 349.705C1496.97 349.705 1495.75 349.705 1494.53 349.564C1492.89 349.376 1491.25 349.564 1489.61 349.33C1484.17 348.767 1478.64 349.095 1473.2 349.095H1458.95C1457.63 349.095 1456.23 348.955 1454.96 349.095C1453.09 349.376 1451.21 350.08 1449.34 350.455C1448.54 350.642 1447.65 350.736 1446.85 350.97C1446.1 351.205 1445.35 351.721 1444.55 351.627C1443.99 351.58 1443.48 351.392 1442.91 351.392C1442.02 351.392 1441.13 351.439 1440.24 351.346C1438.55 351.158 1436.91 350.83 1435.22 350.783C1433.72 350.783 1432.27 350.783 1430.77 350.783C1430.02 350.783 1429.18 350.642 1428.47 351.111C1428.52 351.111 1428 351.111 1428.1 351.111C1428.24 352.049 1427.58 352.893 1427.54 353.83C1427.54 354.674 1427.91 355.143 1428.14 355.846C1428.38 356.69 1427.96 357.675 1428.14 358.565C1428.33 359.362 1429.04 360.113 1429.64 360.581C1430.58 361.331 1431.8 361.753 1432.93 362.128C1434.05 362.504 1435.04 362.925 1436.07 363.535C1437.15 364.144 1438.22 364.707 1439.3 365.27C1441.6 366.489 1444.37 367.286 1446.43 368.926C1448.07 370.239 1448.77 372.068 1449.8 373.802C1451.35 376.428 1453.13 378.959 1454.35 381.725C1455.43 384.116 1456.27 386.461 1457.59 388.758C1458.34 390.07 1458.99 391.336 1460.07 392.415C1461.43 393.821 1462.23 395.603 1463.59 396.962C1464.9 398.275 1466.12 399.588 1467.29 401.041C1468.32 402.307 1469.4 403.526 1470.48 404.745C1470.9 405.214 1471.28 405.682 1471.56 406.198C1472.17 407.229 1472.78 408.308 1473.34 409.339C1474.09 410.605 1474.56 411.965 1475.31 413.23C1475.82 414.074 1475.87 414.871 1476.15 415.762C1476.43 416.559 1476.71 417.028 1476.76 417.872C1476.81 419.653 1476.95 421.576 1476.76 423.357C1476.62 424.998 1476.43 426.545 1476.43 428.233C1476.43 430.296 1476.43 432.312 1476.2 434.328C1476.06 435.312 1475.92 436.25 1475.87 437.234C1475.87 438.031 1475.96 438.875 1475.78 439.625C1475.59 440.657 1475.68 441.594 1475.54 442.579C1475.45 443.47 1474.98 444.267 1474.93 445.157C1474.89 446.048 1474.93 446.986 1474.93 447.877C1474.93 449.752 1474.79 451.674 1474.93 453.549C1475.07 454.815 1475.59 455.706 1476.11 456.831C1476.62 457.956 1477.61 458.472 1478.54 459.269C1479.2 459.785 1479.43 460.113 1479.86 460.769C1480.18 461.191 1480.56 461.238 1480.89 461.613C1481.07 461.848 1481.12 462.176 1481.36 462.457C1481.78 463.16 1482.34 463.488 1482.62 464.285C1482.9 465.082 1483.18 465.833 1483.47 466.63C1483.65 467.192 1483.61 467.38 1484.26 467.708C1484.87 468.036 1485.48 468.317 1486.19 468.364C1487.59 468.458 1488.86 468.692 1490.26 468.646C1491.9 468.646 1493.64 467.849 1495.23 467.473C1500.06 466.255 1505.22 467.192 1510.19 467.192C1511.92 467.192 1513.52 467.473 1515.3 467.473C1517.64 467.473 1519.94 468.083 1522.28 468.083C1523.18 468.083 1524.11 468.177 1525 468.083C1525.94 467.989 1526.93 467.614 1527.86 467.38C1528.9 467.098 1530.49 466.301 1531.33 465.411C1533.86 462.785 1529.27 460.769 1527.96 459.128C1527.63 458.753 1527.39 458.472 1527.21 457.956C1527.02 457.394 1527.02 456.925 1526.93 456.362C1526.79 455.612 1526.5 454.956 1526.41 454.206C1526.04 450.314 1526.08 446.376 1526.08 442.485V432.218C1526.08 430.108 1526.55 427.436 1525.75 425.42C1525.66 425.185 1525.05 424.576 1525 424.435C1524.44 423.591 1523.93 422.748 1523.36 421.904C1522.75 420.966 1521.96 419.981 1521.72 418.856C1521.58 418.106 1521.58 417.262 1521.58 416.559C1521.58 415.481 1521.58 414.824 1522.57 414.262C1522.89 414.074 1523.46 414.074 1523.69 413.793C1523.83 413.652 1523.97 412.152 1523.93 412.34C1524.11 410.699 1524.16 408.964 1524.25 407.276C1524.25 406.808 1524.25 406.292 1524.25 405.776C1524.3 405.214 1524.58 404.604 1524.72 404.041C1524.91 403.244 1524.91 402.307 1525.61 401.838C1526.18 401.463 1526.93 401.463 1527.54 401.088C1528.61 400.431 1529.65 399.775 1530.3 398.744C1530.91 397.759 1531.29 396.681 1531.8 395.649C1532.08 394.993 1532.83 394.102 1532.74 393.352C1532.65 393.352 1532.55 393.352 1532.46 393.352C1532.65 393.54 1533.86 392.79 1533.72 392.977C1533.72 392.415 1534.8 391.524 1535.13 390.961C1535.79 389.883 1536.21 388.664 1536.72 387.539C1537.24 386.414 1537.57 385.288 1538.04 384.163C1538.37 383.366 1538.83 382.663 1539.21 381.866C1540.19 379.616 1541.37 377.506 1543.05 375.724C1543.76 374.974 1544.55 373.99 1545.44 373.427C1546.1 372.958 1546.85 372.771 1547.51 372.208C1548.96 370.989 1550.37 369.63 1551.96 368.598C1552.66 368.129 1553.46 367.895 1554.12 367.426C1554.73 367.004 1555.29 366.582 1555.9 366.16C1556.27 365.926 1556.7 365.832 1557.12 365.692C1558.15 365.27 1558.9 364.519 1559.65 363.769C1560.31 363.16 1560.92 362.55 1561.67 362.035C1561.99 361.8 1562.28 361.66 1562.56 361.425C1563.12 360.91 1563.73 360.347 1564.34 359.878C1564.85 359.55 1565.32 359.175 1565.74 358.753C1566.35 358.143 1566.92 357.534 1567.39 356.831C1567.53 356.643 1567.62 356.456 1567.67 356.268C1567.76 355.846 1567.67 355.237 1568.04 354.909C1568.18 354.252 1567.95 353.737 1567.81 353.127C1567.81 352.94 1567.85 352.752 1567.81 352.564H1567.95Z" fill="#ECECEC"/>
</g>
<defs>
<clipPath id="clip0_1162_2738">
<rect width="1824.62" height="233.475" fill="white" transform="translate(0.619385 243)"/>
</clipPath>
</defs>
</svg>
