<svg width="1825" height="720" viewBox="0 0 1825 720" fill="none" xmlns="http://www.w3.org/2000/svg">
<g clip-path="url(#clip0_1153_2563)">
<path d="M130.799 322.359L108.245 344.912C107.2 345.957 107.2 347.657 108.245 348.702L130.786 371.243C131.29 371.747 131.567 372.427 131.567 373.132V503.112C131.567 504.585 130.37 505.794 128.885 505.794H78.4893C77.0159 505.794 75.807 504.598 75.807 503.112V398.745C75.807 397.259 74.6107 396.063 73.1248 396.063L58.3916 396.101C56.9182 396.101 55.722 397.297 55.722 398.783V503.112C55.722 504.585 54.5257 505.794 53.0397 505.794H2.68221C1.20888 505.794 0 504.598 0 503.112V218.823C0 217.337 1.19629 216.141 2.68221 216.141H53.0775C54.5508 216.141 55.7597 217.337 55.7597 218.823V333.062C55.7597 335.442 58.6434 336.639 60.3308 334.951L75.0641 320.218C75.5678 319.714 75.8448 319.034 75.8448 318.329V218.823C75.8448 217.35 77.0411 216.141 78.527 216.141H128.922C130.396 216.141 131.605 217.337 131.605 218.823V320.47C131.605 321.175 131.328 321.855 130.824 322.359H130.799Z" fill="#ECECEC"/>
<path d="M246.977 216.141H191.961C191.255 216.141 190.563 216.418 190.059 216.921L150.128 256.966C149.624 257.469 149.347 258.149 149.347 258.854V462.199C149.347 462.891 149.612 463.559 150.103 464.062L189.669 504.976C190.172 505.492 190.865 505.794 191.595 505.794H246.6C247.305 505.794 247.985 505.517 248.488 505.013L285.699 467.903C286.203 467.399 286.48 466.719 286.48 466.002V255.795C286.48 255.089 286.203 254.409 285.699 253.906L248.866 216.934C248.362 216.43 247.682 216.141 246.965 216.141H246.977ZM223.958 446.773H211.882C209.905 446.773 208.318 445.174 208.318 443.209V275.149C208.318 273.172 209.917 271.586 211.882 271.586H223.958C225.935 271.586 227.522 273.185 227.522 275.149V443.197C227.522 445.174 225.923 446.76 223.958 446.76V446.773Z" fill="#ECECEC"/>
<path d="M1307.9 442.025V255.795C1307.9 255.089 1307.62 254.409 1307.12 253.906L1270.27 216.934C1269.77 216.43 1269.09 216.141 1268.37 216.141H1213.35C1212.65 216.141 1211.96 216.418 1211.45 216.921L1171.52 256.966C1171.02 257.469 1170.74 258.149 1170.74 258.854V462.199C1170.74 462.891 1171 463.559 1171.5 464.062L1211.07 504.976C1211.58 505.492 1212.27 505.794 1213 505.794H1260.12C1260.94 505.794 1261.72 506.172 1262.22 506.827L1312.03 570.444C1313.6 572.446 1316.81 571.338 1316.81 568.794V453.661C1316.81 452.981 1316.55 452.326 1316.08 451.835L1308.6 443.864C1308.14 443.373 1307.87 442.718 1307.87 442.038L1307.9 442.025ZM1246.25 446.773H1232.39C1230.92 446.773 1229.71 445.577 1229.71 444.091V274.268C1229.71 272.794 1230.91 271.586 1232.39 271.586H1246.25C1247.72 271.586 1248.93 272.782 1248.93 274.268V444.103C1248.93 445.577 1247.73 446.785 1246.25 446.785V446.773Z" fill="#ECECEC"/>
<path d="M551.704 214H496.687C495.969 214 495.289 214.277 494.786 214.781L454.855 254.825C454.351 255.329 454.074 256.009 454.074 256.714V503.112C454.074 504.585 455.27 505.794 456.756 505.794H510.363C511.836 505.794 513.045 504.598 513.045 503.112V433.425C513.045 431.952 514.241 430.743 515.727 430.743H529.592C531.065 430.743 532.274 431.939 532.274 433.425V503.112C532.274 504.585 533.47 505.794 534.956 505.794H588.562C590.036 505.794 591.245 504.598 591.245 503.112V253.654C591.245 252.949 590.967 252.269 590.464 251.765L553.593 214.793C553.089 214.29 552.409 214 551.704 214ZM529.566 371.898H515.702C514.229 371.898 513.02 370.701 513.02 369.216V274.268C513.02 272.795 514.216 271.586 515.702 271.586H529.566C531.04 271.586 532.249 272.782 532.249 274.268V369.228C532.249 370.701 531.052 371.91 529.566 371.91V371.898Z" fill="#ECECEC"/>
<path d="M707.914 214H652.898C652.18 214 651.5 214.277 650.996 214.781L611.065 254.825C610.561 255.329 610.284 256.009 610.284 256.714V503.112C610.284 504.585 611.481 505.794 612.967 505.794H666.573C668.046 505.794 669.255 504.598 669.255 503.112V433.425C669.255 431.952 670.451 430.743 671.937 430.743H685.802C687.275 430.743 688.484 431.939 688.484 433.425V503.112C688.484 504.585 689.68 505.794 691.166 505.794H744.773C746.246 505.794 747.455 504.598 747.455 503.112V253.654C747.455 252.949 747.178 252.269 746.674 251.765L709.841 214.793C709.299 214.29 708.619 214 707.914 214ZM685.777 371.898H671.912C670.439 371.898 669.23 370.701 669.23 369.216V274.268C669.23 272.795 670.426 271.586 671.912 271.586H685.777C687.25 271.586 688.459 272.782 688.459 274.268V369.228C688.459 370.701 687.263 371.91 685.777 371.91V371.898Z" fill="#ECECEC"/>
<path d="M1424.93 214H1369.92C1369.2 214 1368.52 214.277 1368.01 214.781L1328.08 254.825C1327.58 255.329 1327.3 256.009 1327.3 256.714V503.112C1327.3 504.585 1328.5 505.794 1329.99 505.794H1383.59C1385.07 505.794 1386.27 504.598 1386.27 503.112V433.425C1386.27 431.952 1387.47 430.743 1388.96 430.743H1402.82C1404.29 430.743 1405.5 431.939 1405.5 433.425V503.112C1405.5 504.585 1406.7 505.794 1408.19 505.794H1461.79C1463.26 505.794 1464.47 504.598 1464.47 503.112V253.654C1464.47 252.949 1464.2 252.269 1463.69 251.765L1426.86 214.793C1426.32 214.29 1425.64 214 1424.93 214ZM1402.8 371.898H1388.93C1387.46 371.898 1386.25 370.701 1386.25 369.216V274.268C1386.25 272.795 1387.45 271.586 1388.93 271.586H1402.8C1404.27 271.586 1405.48 272.782 1405.48 274.268V369.228C1405.48 370.701 1404.28 371.91 1402.8 371.91V371.898Z" fill="#ECECEC"/>
<path d="M439.782 217.035V371.91C439.782 372.615 439.505 373.295 439.001 373.799L400.241 412.572C399.737 413.075 399.46 413.755 399.46 414.46V503.125C399.46 504.598 398.264 505.807 396.778 505.807H342.58C341.106 505.807 339.898 504.61 339.898 503.125V414.561C339.898 413.881 339.633 413.226 339.167 412.723L302.586 373.787C302.12 373.295 301.856 372.641 301.856 371.948V217.035C301.856 215.561 303.052 214.353 304.538 214.353H358.736C360.209 214.353 361.418 215.549 361.418 217.035V370.349C361.418 371.822 362.615 373.031 364.1 373.031H377.574C379.048 373.031 380.257 371.835 380.257 370.349V217.035C380.257 215.561 381.453 214.353 382.939 214.353H437.125C438.598 214.353 439.807 215.549 439.807 217.035H439.782Z" fill="#ECECEC"/>
<path d="M907.72 253.868V503.137C907.72 504.61 906.524 505.819 905.038 505.819H851.482C850.009 505.819 848.8 504.623 848.8 503.137V271.195C848.8 269.722 847.603 268.513 846.117 268.513H834.557C833.084 268.513 831.875 269.709 831.875 271.195V503.137C831.875 504.61 830.679 505.819 829.193 505.819H775.637C774.164 505.819 772.955 504.623 772.955 503.137V218.823C772.955 217.35 774.151 216.141 775.637 216.141H870.698C871.416 216.141 872.108 216.43 872.612 216.947L906.927 251.992C907.418 252.495 907.695 253.163 907.695 253.868H907.72Z" fill="#ECECEC"/>
<path d="M987.116 214.353H935.109C933.628 214.353 932.427 215.553 932.427 217.035V503.125C932.427 504.606 933.628 505.807 935.109 505.807H987.116C988.597 505.807 989.798 504.606 989.798 503.125V217.035C989.798 215.553 988.597 214.353 987.116 214.353Z" fill="#ECECEC"/>
<path d="M1821.94 214.353H1769.93C1768.45 214.353 1767.25 215.553 1767.25 217.035V503.125C1767.25 504.606 1768.45 505.807 1769.93 505.807H1821.94C1823.42 505.807 1824.62 504.606 1824.62 503.125V217.035C1824.62 215.553 1823.42 214.353 1821.94 214.353Z" fill="#ECECEC"/>
<path d="M1087.38 312.197V271.699C1087.38 270.226 1086.18 269.017 1084.7 269.017H1073.92C1072.44 269.017 1071.23 270.213 1071.23 271.699V332.874C1071.23 334.347 1072.43 335.556 1073.92 335.556H1107.94C1108.67 335.556 1109.36 335.845 1109.87 336.374L1145.78 373.573C1146.26 374.076 1146.54 374.744 1146.54 375.436V463.408C1146.54 464.088 1146.29 464.73 1145.82 465.221L1109.04 504.951C1108.53 505.492 1107.82 505.807 1107.07 505.807H1050.05C1049.35 505.807 1048.67 505.53 1048.16 505.026L1012.86 469.981C1012.35 469.477 1012.06 468.797 1012.06 468.08V404.311C1012.06 402.838 1013.26 401.629 1014.74 401.629H1068.56C1070.04 401.629 1071.25 402.825 1071.25 404.311V446.975C1071.25 448.448 1072.44 449.657 1073.93 449.657H1084.71C1086.18 449.657 1087.39 448.46 1087.39 446.975V390.371C1087.39 388.898 1086.19 387.689 1084.71 387.689H1051.61C1050.9 387.689 1050.22 387.399 1049.71 386.896L1012.86 349.71C1012.36 349.206 1012.07 348.526 1012.07 347.821V250.115C1012.07 249.435 1012.33 248.781 1012.79 248.29L1044.06 214.856C1044.56 214.315 1045.27 214.013 1046.01 214.013H1108.55C1109.25 214.013 1109.94 214.29 1110.45 214.793L1145.77 250.191C1146.27 250.695 1146.55 251.375 1146.55 252.08V312.197C1146.55 313.67 1145.35 314.879 1143.87 314.879H1090.05C1088.57 314.879 1087.37 313.683 1087.37 312.197H1087.38Z" fill="#ECECEC"/>
<path d="M1683.62 312.197V271.699C1683.62 270.226 1682.43 269.017 1680.94 269.017H1670.16C1668.69 269.017 1667.48 270.213 1667.48 271.699V332.873C1667.48 334.347 1668.67 335.556 1670.16 335.556H1704.18C1704.92 335.556 1705.61 335.845 1706.11 336.374L1742.03 373.573C1742.5 374.076 1742.78 374.744 1742.78 375.436V463.408C1742.78 464.088 1742.53 464.73 1742.06 465.221L1705.28 504.95C1704.78 505.492 1704.06 505.807 1703.32 505.807H1646.3C1645.59 505.807 1644.91 505.53 1644.41 505.026L1609.1 469.981C1608.6 469.477 1608.31 468.797 1608.31 468.08V404.311C1608.31 402.838 1609.5 401.629 1610.99 401.629H1664.81C1666.28 401.629 1667.49 402.825 1667.49 404.311V446.974C1667.49 448.448 1668.69 449.657 1670.17 449.657H1680.95C1682.43 449.657 1683.63 448.46 1683.63 446.974V390.371C1683.63 388.898 1682.44 387.689 1680.95 387.689H1647.86C1647.14 387.689 1646.46 387.399 1645.96 386.895L1609.1 349.71C1608.61 349.206 1608.32 348.526 1608.32 347.821V250.115C1608.32 249.435 1608.57 248.781 1609.04 248.289L1640.3 214.856C1640.82 214.302 1641.52 214 1642.27 214H1704.8C1705.51 214 1706.19 214.277 1706.69 214.781L1742.01 250.178C1742.52 250.682 1742.79 251.362 1742.79 252.067V312.184C1742.79 313.657 1741.6 314.866 1740.11 314.866H1686.29C1684.82 314.866 1683.61 313.67 1683.61 312.184L1683.62 312.197Z" fill="#ECECEC"/>
<path d="M1598.79 218.823V263.35C1598.79 264.823 1597.59 266.032 1596.1 266.032H1568.31C1566.84 266.032 1565.63 267.229 1565.63 268.714V503.15C1565.63 504.623 1564.43 505.832 1562.95 505.832H1508.93C1507.45 505.832 1506.24 504.636 1506.24 503.15V268.702C1506.24 267.229 1505.05 266.02 1503.56 266.02H1474.27C1472.8 266.02 1471.59 264.823 1471.59 263.337V218.823C1471.59 217.35 1472.78 216.141 1474.27 216.141H1596.08C1597.55 216.141 1598.76 217.337 1598.76 218.823H1598.79Z" fill="#ECECEC"/>
</g>
<defs>
<clipPath id="clip0_1153_2563">
<rect width="1824.62" height="357.489" fill="white" transform="translate(0 214)"/>
</clipPath>
</defs>
</svg>
