<svg width="1825" height="720" viewBox="0 0 1825 720" fill="none" xmlns="http://www.w3.org/2000/svg">
<path d="M575.988 329.635C563.108 317.336 496.97 365.026 488.035 371.639C487.687 371.872 487.223 371.523 487.223 371.059L491.864 331.492L483.162 329.171C490.588 281.946 451.717 292.737 451.717 292.737C415.282 299.467 397.065 365.954 397.065 365.954C392.656 377.325 379.196 378.021 379.196 378.021C368.753 377.441 380.936 337.642 380.936 337.642C390.567 300.859 370.842 301.904 370.842 301.904C356.686 301.207 336.728 325.69 336.728 325.69C326.981 332.42 328.49 311.766 328.49 311.766C329.534 306.081 319.671 307.821 319.671 307.821C305.051 310.722 285.441 346.344 285.441 346.344C273.142 371.523 265.367 376.513 261.887 377.325C260.726 377.557 259.682 377.325 258.754 376.745C249.239 369.087 268.965 319.773 273.954 307.705C274.65 306.081 273.722 304.108 271.981 303.876C266.992 303.18 259.218 305.385 254.576 306.893C252.14 307.705 250.167 309.562 249.123 311.882L235.779 341.587C219.302 383.359 207.931 386.376 207.583 383.359C206.307 370.827 223.48 319.541 229.861 304.688C230.906 302.252 229.165 299.583 226.496 299.467C218.026 299.119 204.102 304.688 196.56 308.169C193.195 309.678 190.874 312.579 190.062 316.176C182.404 349.593 157.921 382.895 157.921 382.895C147.246 399.952 134.018 382.895 134.018 382.895L96.4234 331.26C94.9149 329.171 95.3791 326.387 97.4677 324.878L179.039 267.21C181.592 265.353 183.564 262.568 184.26 259.319C187.741 244.235 186.697 237.157 185.305 233.792C184.492 232.052 182.404 231.588 180.779 232.632L87.4888 297.494C87.4888 297.494 86.3285 297.262 86.5606 296.682L127.288 184.826C127.868 183.202 126.36 181.693 124.735 182.157L101.297 188.887C99.3242 189.468 97.8158 190.744 97.0035 192.716C86.4445 218.94 9.63064 410.278 2.66865 425.247C-4.75746 441.375 5.80155 439.519 5.80155 439.519L33.8815 428.612C37.3625 427.219 40.0313 424.435 41.1916 420.954L62.6577 358.528C69.2716 343.443 71.1282 339.266 74.029 342.979C88.069 360.964 123.111 403.2 123.111 403.2C135.643 419.561 148.29 418.749 148.29 418.749C161.286 419.097 177.182 396.122 180.547 390.669C180.663 390.321 181.128 390.669 181.128 390.901C181.128 416.428 199.461 412.831 199.461 412.831C214.429 411.207 228.817 388.116 232.646 381.618C232.878 381.154 233.574 381.502 233.574 382.082C234.387 403.2 250.979 402.272 250.979 402.272C267.108 404.941 280.104 383.359 280.104 383.359C304.355 341.123 308.996 342.979 308.996 342.979C311.201 349.825 299.365 388.348 299.365 388.348C297.625 393.338 295.768 402.852 295.42 408.306C295.188 410.975 296.928 413.643 299.597 414.224C304.239 415.152 310.156 414.108 313.985 413.295C316.074 412.715 317.698 411.091 318.163 409.002C320.715 397.515 331.39 368.971 331.39 368.971C342.413 329.868 356.337 332.42 356.337 332.42C362.023 334.393 355.061 347.737 355.061 347.737C352.276 352.842 348.795 369.899 348.795 369.899C345.546 403.433 365.04 405.405 365.04 405.405C377.92 408.538 391.147 398.791 395.789 393.918C396.601 393.222 397.877 393.57 398.225 394.614C406.348 417.008 436.748 409.698 446.959 406.565C421.548 419.097 389.871 493.59 389.871 493.59C369.565 547.314 392.888 561.47 392.888 561.47C411.685 578.758 443.014 528.516 443.014 528.516C461.231 503.337 473.183 443.116 475.039 426.755C475.271 424.318 476.664 422.23 478.636 420.721L581.442 349.477C591.653 341.123 575.988 329.635 575.988 329.635ZM448.352 453.443C437.445 504.149 431.411 507.63 413.774 525.615C404.723 534.782 417.951 496.375 417.951 496.375C422.708 485.7 451.368 439.519 448.352 453.443ZM423.056 379.762C415.514 349.593 459.955 320.353 459.955 320.353L467.497 331.376C435.356 388.58 423.056 379.762 423.056 379.762Z" fill="#ECECEC"/>
<path d="M551.157 399.604C550.925 396.123 552.666 392.874 555.799 391.25C570.651 383.476 615.44 360.733 633.309 366.187C633.309 366.187 635.165 371.524 631.8 372.917C628.435 374.309 582.718 394.267 561.136 424.203C558.699 427.568 553.71 426.524 553.014 424.203C551.273 418.286 551.157 399.604 551.157 399.604Z" fill="#ECECEC"/>
<path d="M978.159 326.503C976.07 327.664 974.446 329.52 973.633 331.725C952.979 383.476 928.729 370.712 928.729 370.712C911.208 365.026 930.005 316.989 930.005 316.989C936.735 297.727 921.767 299.816 921.767 299.816C912.252 298.423 908.423 312.579 908.423 312.579C875.585 389.045 862.822 376.398 862.822 376.398C848.782 371.06 874.309 319.541 874.309 319.541C886.26 292.274 864.098 292.274 864.098 292.274C851.102 294.71 831.841 349.246 831.841 349.246C824.879 367.115 788.096 381.735 777.653 385.564C776.957 385.912 776.261 384.984 776.725 384.288C787.748 369.552 826.852 304.341 826.852 304.341C871.756 229.616 866.071 187.264 866.071 187.264C867.695 119.849 831.841 135.397 831.841 135.397C792.854 147.58 759.668 355.048 754.679 387.885C754.331 390.438 752.01 392.178 749.457 392.294C692.485 392.642 675.428 409.003 675.428 409.003C661.852 418.286 670.903 422.579 670.903 422.579C683.783 430.121 732.749 418.75 745.512 415.617C746.905 415.269 748.065 416.429 747.717 417.705C743.192 437.547 740.871 524.34 740.871 524.34C738.898 601.502 753.983 615.658 753.983 615.658C753.983 615.658 772.432 643.97 785.544 613.801C785.544 613.801 795.871 582.356 797.611 561.122C797.611 561.122 804.341 483.612 798.655 459.129C798.655 459.129 793.666 426.408 781.134 413.412C779.974 412.252 780.67 410.163 782.295 409.931C798.771 407.378 823.487 394.383 831.725 389.974C833.001 389.277 834.51 390.206 834.742 391.598C837.991 411.092 859.689 409.931 859.689 409.931C878.718 411.324 891.83 397.748 896.703 391.482C897.864 389.974 900.068 390.206 901.229 391.714C915.153 409.119 934.994 401.693 934.994 401.693C988.718 386.957 995.796 321.978 995.796 321.978C993.011 318.845 983.264 323.603 978.159 326.503ZM812.115 221.145C812.115 221.145 831.841 162.317 845.417 173.92C846.693 174.964 846.925 175.428 847.737 177.633C851.683 187.844 846.809 233.213 827.664 266.398C827.664 266.398 797.959 328.592 784.848 345.765C783.339 347.621 780.438 346.345 780.786 344.024C784.964 321.978 799.932 245.976 812.115 221.145ZM710.47 409.583C715.228 402.157 731.936 401.113 737.042 402.157C740.987 402.969 705.713 416.893 710.47 409.583ZM770.691 582.937C757 582.24 759.436 517.146 759.436 517.146C758.276 497.768 760.016 439.636 766.398 424.667C773.824 407.03 779.626 506.703 779.626 506.703C783.455 589.899 770.691 582.937 770.691 582.937Z" fill="#ECECEC"/>
<path d="M1709.05 308.518C1665.65 384.752 1639.43 386.028 1631.66 384.172C1630.15 383.824 1628.99 382.663 1628.52 381.271C1624.35 366.651 1632.35 352.263 1640.01 342.4C1644.54 336.714 1649.76 331.493 1656.02 327.548C1668.67 319.773 1665.07 312.695 1665.07 312.695C1662.29 308.17 1654.86 308.054 1654.86 308.054C1659.5 303.761 1657.42 296.683 1654.86 296.683C1643.38 296.799 1608.91 299.7 1608.91 299.7C1606.13 299.816 1603.69 301.556 1602.42 303.993C1566.56 375.817 1536.51 383.243 1536.51 383.243C1584.78 338.339 1581.3 298.655 1581.3 298.655C1580.95 280.09 1552.41 286.936 1539.29 292.506C1532.91 295.174 1527.34 299.351 1523.28 304.805C1502.4 332.537 1498.91 381.967 1498.91 381.967C1494.39 390.437 1489.52 386.26 1489.52 386.26C1474.66 374.077 1506.11 286.704 1512.84 270.343C1513.88 268.139 1515.62 266.398 1517.94 265.702C1538.48 258.972 1602.3 249.689 1620.17 247.253C1624.11 246.672 1626.44 243.307 1626.78 239.478C1627.36 234.141 1627.71 228.687 1624.93 228.571C1609.49 227.991 1543.24 240.987 1528.5 244.932C1527.23 245.164 1526.3 243.888 1526.76 242.843L1543.36 209.078C1544.86 205.829 1543.36 201.884 1539.87 200.723L1532.45 198.171C1529.08 197.01 1525.37 198.287 1523.63 201.42L1492.77 253.402C1491.49 255.607 1489.52 257.115 1486.96 257.696C1478.49 259.668 1458.42 264.658 1452.39 266.63C1444.61 269.183 1439.85 289.141 1445.54 288.444C1454.01 287.4 1476.64 280.206 1476.64 280.206C1477.68 279.974 1478.49 281.134 1477.8 281.947L1451.23 318.381C1448.56 322.21 1446 326.039 1443.8 330.1C1434.52 347.041 1429.06 350.87 1428.48 344.836C1427.21 332.537 1422.91 293.898 1422.91 293.898C1419.66 283.339 1409.69 292.622 1409.69 292.622C1404.35 292.273 1400.52 297.843 1399.36 300.628C1399.01 301.324 1398.66 302.02 1398.2 302.6L1350.28 366.187C1339.14 381.967 1334.84 380.227 1334.84 380.227C1322.66 380.343 1342.97 318.729 1342.97 318.729C1350.39 301.324 1348.54 293.434 1347.26 290.533C1346.91 289.837 1346.33 289.141 1345.75 288.676C1338.56 283.223 1324.17 293.55 1324.17 293.55C1281.7 276.725 1253.62 345.533 1245.5 368.623C1243.29 374.657 1240.28 380.459 1236.56 385.564C1227.75 397.631 1225.08 396.471 1225.08 396.471C1212.78 397.747 1225.08 345.649 1225.08 345.649C1226.82 339.267 1232.39 310.607 1232.39 310.607C1238.77 283.919 1231.23 279.51 1228.56 278.698C1228.09 278.582 1227.63 278.466 1227.05 278.466C1217.88 278.582 1187.48 314.204 1187.48 314.204C1185.39 314.9 1190.5 292.622 1190.5 292.622C1199.09 263.149 1190.5 261.525 1190.5 261.525C1180.4 255.375 1166.02 274.985 1161.49 280.554C1161.26 280.902 1160.79 280.554 1160.79 280.206C1165.67 243.424 1151.4 247.833 1151.4 247.833C1133.06 249.573 1038.5 380.807 1038.5 380.807C1027.94 411.207 1061.93 407.61 1067.5 397.748C1070.64 392.178 1132.37 299.932 1132.37 299.932L1134.46 306.778C1108.81 343.792 1101.5 387.305 1100.23 396.703C1099.99 397.98 1100.23 399.256 1101.04 400.184C1108.12 408.423 1121.58 406.914 1122.97 401.577C1130.39 374.657 1160.45 326.851 1164.16 321.05C1159.29 331.725 1146.06 384.984 1146.06 384.984C1145.48 400.996 1160.56 400.764 1160.56 400.764C1170.19 398.56 1196.76 358.18 1204.07 346.809C1204.31 346.461 1204.89 346.809 1204.66 347.273C1181.33 414.108 1214.05 417.357 1214.05 417.357C1225.66 420.838 1238.42 407.726 1242.95 402.389C1243.87 401.461 1245.27 401.925 1245.73 403.085C1251.88 418.285 1264.41 415.269 1264.41 415.269C1280.31 413.876 1298.41 397.98 1304.44 391.83C1305.49 390.786 1307.11 391.25 1307.69 392.526C1315 409.583 1327.65 408.423 1327.65 408.423C1351.44 410.975 1398.08 336.25 1398.08 336.25C1399.47 349.014 1385.67 383.708 1385.67 383.708C1380.56 396.239 1370.35 391.366 1370.35 391.366C1359.1 386.144 1354.92 400.3 1354.92 400.3C1351.79 420.026 1380.91 423.507 1380.91 423.507C1399.82 428.264 1409.57 409.119 1412.93 400.532C1413.98 397.864 1415.6 395.659 1417.58 393.686C1428.02 383.359 1452.15 351.218 1457.96 343.444C1458.3 343.096 1458.88 343.444 1458.77 343.908C1444.26 422.927 1473.74 422.579 1473.74 422.579C1487.66 424.319 1502.16 413.18 1508.43 405.986C1510.17 404.013 1513.65 403.317 1515.16 405.406C1521.19 413.528 1535.23 411.788 1535.23 411.788C1567.84 405.522 1609.49 329.868 1609.49 329.868L1614.25 331.145C1600.56 348.666 1601.84 381.967 1601.84 381.967C1604.85 414.804 1644.54 409.235 1644.54 409.235C1687.7 404.593 1722.28 321.746 1722.28 321.746C1724.37 306.313 1709.05 308.518 1709.05 308.518ZM1297.13 355.395C1284.6 392.526 1273 391.25 1272.19 388.465C1264.64 363.054 1307.69 304.225 1307.58 312.695C1307.46 319.077 1297.13 355.395 1297.13 355.395ZM1528.62 361.777C1516.78 365.606 1549.85 312.115 1551.94 316.524C1554.96 323.254 1539.29 358.296 1528.62 361.777Z" fill="#ECECEC"/>
<path d="M1782.62 107.549C1783.78 104.184 1785.75 101.167 1788.53 98.8465C1794.1 94.2052 1806.87 86.3149 1818.93 98.4984V105.925C1818.93 105.925 1824.74 104.532 1824.5 105.925C1816.38 150.481 1765.44 286.472 1765.91 316.408C1765.91 319.425 1756.04 323.022 1756.04 323.022C1756.04 323.022 1755.7 330.565 1754.07 332.305C1750.71 335.902 1738.18 336.598 1734.46 332.305C1734.46 332.305 1728.31 329.868 1740.61 281.134C1740.61 281.134 1771.71 138.878 1782.62 107.665V107.549Z" fill="#ECECEC"/>
<path d="M1734.58 361.314C1727.85 365.027 1719.15 373.381 1717.99 391.482C1717.64 396.704 1719.84 401.809 1723.9 405.058C1731.1 410.744 1747.92 415.037 1754.88 402.621C1754.88 402.621 1770.32 372.569 1750.13 361.314C1745.37 358.645 1739.34 358.761 1734.58 361.43V361.314Z" fill="#ECECEC"/>
</svg>
