<svg width="1825" height="720" viewBox="0 0 1825 720" fill="none" xmlns="http://www.w3.org/2000/svg">
<path d="M0 263.204L29.5384 261V428.09H116.831L105.515 455.424H0V263.204Z" fill="white"/>
<path d="M130.645 383.709C133.437 377.096 137.258 371.218 142.255 366.074C147.251 360.931 153.13 356.963 159.89 354.024C166.65 351.085 173.85 349.615 181.492 349.615C189.134 349.615 196.335 351.085 203.095 354.024C209.855 356.963 215.733 361.078 220.73 366.074C225.726 371.218 229.694 377.096 232.339 383.709C235.132 390.322 236.454 397.082 236.454 404.136C236.454 411.19 235.132 417.95 232.339 424.563C229.547 431.176 225.726 437.055 220.73 442.198C215.733 447.342 209.855 451.309 203.095 454.249C196.335 457.188 189.134 458.657 181.492 458.657C173.85 458.657 166.65 457.188 160.037 454.249C153.423 451.309 147.545 447.195 142.402 442.051C137.258 436.908 133.29 431.029 130.645 424.416C127.853 417.95 126.53 411.19 126.53 404.136C126.53 397.082 127.853 390.322 130.645 383.709ZM202.066 425.886C207.504 420.155 210.296 412.954 210.296 404.136C210.296 395.319 207.504 388.118 202.066 382.387C196.629 376.655 189.722 373.863 181.492 373.863C173.263 373.863 166.65 376.802 161.065 382.387C155.481 388.118 152.689 395.319 152.689 404.136C152.689 412.954 155.481 420.155 161.065 425.886C166.65 431.617 173.41 434.409 181.492 434.409C189.575 434.409 196.629 431.617 202.066 425.886Z" fill="white"/>
<path d="M309.345 384.738C307.141 379.741 304.789 376.068 301.997 373.863C299.205 371.659 296.266 370.483 293.327 370.483C290.387 370.483 287.742 371.218 285.832 372.834C283.921 374.304 282.893 376.508 282.893 379.448C282.893 382.974 284.215 385.62 286.714 387.236C289.359 388.853 293.474 390.469 299.205 392.086C303.614 393.555 307.288 394.731 309.933 395.907C312.578 396.935 315.223 398.552 317.868 400.609C320.514 402.667 322.571 405.606 324.188 409.133C325.804 412.807 326.539 417.362 326.539 422.653C326.539 432.793 322.718 441.463 315.223 448.37C307.728 455.277 298.47 458.657 287.595 458.657C275.251 458.657 264.67 453.955 255.853 444.697L271.136 426.915C273.487 430.001 276.133 432.499 279.366 434.556C282.452 436.614 285.832 437.643 289.506 437.643C293.18 437.643 295.678 436.614 298.029 434.703C300.234 432.793 301.409 430.001 301.409 426.327C301.409 422.506 300.087 419.861 297.294 417.95C294.502 416.04 290.241 414.129 284.215 412.072C279.954 410.602 276.427 409.28 273.781 408.251C271.136 407.075 268.491 405.459 265.993 403.402C263.494 401.344 261.437 398.699 259.967 395.466C258.498 392.233 257.616 388.412 257.616 383.856C257.616 374.304 260.996 366.221 267.609 359.608C274.222 352.848 282.599 349.468 292.592 349.468C299.058 349.468 305.23 351.379 311.108 355.347C316.987 359.314 321.689 364.164 325.363 370.189L309.492 384.738H309.345Z" fill="white"/>
<path d="M350.199 352.848H360.192V320.371L386.497 307.438V352.848H407.953V376.949H386.497V413.248C386.497 419.861 387.967 424.71 391.053 427.796C394.139 430.882 398.548 432.352 404.279 432.352H408.1V456.6H402.515C389.289 456.6 378.855 453.808 371.508 448.223C364.013 442.639 360.339 434.116 360.339 422.506V377.096H350.346V352.995L350.199 352.848Z" fill="white"/>
<path d="M530.956 263.204L560.494 261V454.396L530.956 456.6V263.204Z" fill="white"/>
<path d="M597.822 353.877L624.127 351.673V364.899H624.715C627.801 359.314 631.475 355.346 635.884 353.142C640.292 350.791 645.289 349.615 650.726 349.615C660.279 349.615 668.214 352.407 674.533 358.139C680.853 363.87 684.086 371.512 684.086 380.917V454.249L657.78 456.453V397.082C657.78 382.974 652.196 375.92 641.174 375.92C636.178 375.92 632.063 378.125 628.977 382.387C625.891 386.648 624.274 392.38 624.274 399.287V454.396L597.969 456.6V354.024L597.822 353.877Z" fill="white"/>
<path d="M815.024 288.334H759.916L768.439 262.029H893.794V288.334H844.416V454.249L814.878 456.453V288.334H815.024Z" fill="white"/>
<path d="M918.776 351.819V362.253H919.364C922.45 358.286 926.418 355.199 931.414 352.995C936.411 350.791 941.995 349.615 948.314 349.615V375.92H942.436C933.913 375.92 927.74 377.978 924.213 381.946C920.686 385.914 918.776 392.38 918.776 401.197V454.396L892.471 456.6V354.024L918.776 351.819Z" fill="white"/>
<path d="M1022.38 386.208C1022.38 382.093 1020.91 379.154 1017.97 377.243C1015.03 375.333 1009.74 374.451 1001.95 374.451C997.839 374.451 991.079 375.186 981.821 376.802C979.616 377.39 978 377.684 976.677 377.831L983.878 353.583C993.43 352.407 1001.22 351.673 1007.24 351.673C1021.5 351.673 1031.79 353.583 1038.11 357.551C1044.42 361.519 1047.51 368.132 1047.51 377.684V454.249L1023.41 456.453V445.431H1022.82C1021.21 449.84 1018.12 453.22 1013.71 455.424C1009.3 457.629 1003.72 458.657 997.398 458.657C986.817 458.657 978.441 455.277 972.415 448.517C966.39 441.757 963.304 432.646 963.304 421.33C963.304 410.015 966.684 401.344 973.591 394.584C980.498 387.824 988.728 384.444 998.133 384.444C1008.13 384.444 1016.21 387.53 1022.23 393.849V386.061L1022.38 386.208ZM1006.07 436.173C1016.94 436.173 1022.38 431.323 1022.38 421.624C1022.38 417.656 1020.91 414.57 1017.97 412.219C1015.03 409.868 1011.07 408.692 1006.07 408.692C1001.07 408.692 997.104 409.868 994.165 412.219C991.226 414.57 989.756 417.656 989.756 421.624C989.756 431.323 995.194 436.173 1006.07 436.173Z" fill="white"/>
<path d="M1083.07 353.877L1109.38 351.673V364.899H1109.97C1113.05 359.314 1116.73 355.346 1121.14 353.142C1125.54 350.791 1130.54 349.615 1135.98 349.615C1145.53 349.615 1153.47 352.407 1159.79 358.139C1166.11 363.87 1169.34 371.512 1169.34 380.917V454.249L1143.03 456.453V397.082C1143.03 382.974 1137.45 375.92 1126.43 375.92C1121.43 375.92 1117.32 378.125 1114.23 382.387C1111.14 386.648 1109.53 392.38 1109.53 399.287V454.396L1083.22 456.6V354.024L1083.07 353.877Z" fill="white"/>
<path d="M1246.64 384.738C1244.43 379.741 1242.08 376.068 1239.29 373.863C1236.5 371.659 1233.56 370.483 1230.62 370.483C1227.68 370.483 1225.03 371.218 1223.12 372.834C1221.21 374.304 1220.19 376.508 1220.19 379.448C1220.19 382.974 1221.51 385.62 1224.01 387.236C1226.65 388.853 1230.77 390.469 1236.5 392.086C1240.91 393.555 1244.58 394.731 1247.23 395.907C1249.87 396.935 1252.52 398.552 1255.16 400.609C1257.81 402.667 1259.86 405.606 1261.48 409.133C1263.1 412.807 1263.83 417.362 1263.83 422.653C1263.83 432.793 1260.01 441.463 1252.52 448.37C1245.02 455.277 1235.76 458.657 1224.89 458.657C1212.54 458.657 1201.96 453.955 1193.15 444.697L1208.43 426.915C1210.78 430.001 1213.43 432.499 1216.66 434.556C1219.74 436.614 1223.12 437.643 1226.8 437.643C1230.47 437.643 1232.97 436.614 1235.32 434.703C1237.53 432.793 1238.7 430.001 1238.7 426.327C1238.7 422.506 1237.38 419.861 1234.59 417.95C1231.79 416.04 1227.53 414.129 1221.51 412.072C1217.25 410.602 1213.72 409.28 1211.07 408.251C1208.43 407.075 1205.78 405.459 1203.28 403.402C1200.79 401.344 1198.73 398.699 1197.26 395.466C1195.79 392.233 1194.91 388.412 1194.91 383.856C1194.91 374.304 1198.29 366.221 1204.9 359.608C1211.51 352.848 1219.89 349.468 1229.88 349.468C1236.35 349.468 1242.52 351.379 1248.4 355.347C1254.28 359.314 1258.98 364.164 1262.66 370.189L1246.78 384.738H1246.64Z" fill="white"/>
<path d="M1293.08 263.204L1319.38 261V454.396L1293.08 456.6V263.204Z" fill="white"/>
<path d="M1407.7 386.208C1407.7 382.093 1406.23 379.154 1403.29 377.243C1400.35 375.333 1395.06 374.451 1387.28 374.451C1383.16 374.451 1376.4 375.186 1367.14 376.802C1364.94 377.39 1363.32 377.684 1362 377.831L1369.2 353.583C1378.75 352.407 1386.54 351.673 1392.57 351.673C1406.82 351.673 1417.11 353.583 1423.43 357.551C1429.75 361.519 1432.83 368.132 1432.83 377.684V454.249L1408.73 456.453V445.431H1408.14C1406.53 449.84 1403.44 453.22 1399.03 455.424C1394.62 457.629 1389.04 458.657 1382.72 458.657C1372.14 458.657 1363.76 455.277 1357.74 448.517C1351.71 441.757 1348.63 432.646 1348.63 421.33C1348.63 410.015 1352.01 401.344 1358.91 394.584C1365.82 387.824 1374.05 384.444 1383.45 384.444C1393.45 384.444 1401.53 387.53 1407.56 393.849V386.061L1407.7 386.208ZM1391.39 436.173C1402.27 436.173 1407.7 431.323 1407.7 421.624C1407.7 417.656 1406.23 414.57 1403.29 412.219C1400.35 409.868 1396.39 408.692 1391.39 408.692C1386.39 408.692 1382.43 409.868 1379.49 412.219C1376.55 414.57 1375.08 417.656 1375.08 421.624C1375.08 431.323 1380.52 436.173 1391.39 436.173Z" fill="white"/>
<path d="M1462.81 352.848H1472.8V320.371L1499.11 307.438V352.848H1520.57V376.949H1499.11V413.248C1499.11 419.861 1500.58 424.71 1503.67 427.796C1506.75 430.882 1511.16 432.352 1516.89 432.352H1520.71V456.6H1515.13C1501.9 456.6 1491.47 453.808 1484.12 448.223C1476.63 442.639 1472.95 434.116 1472.95 422.506V377.096H1462.96V352.995L1462.81 352.848Z" fill="white"/>
<path d="M1548.78 302.295H1575.09V329.629H1548.78V302.295ZM1548.78 353.877L1575.09 351.673V454.249L1548.78 456.453V353.877Z" fill="white"/>
<path d="M1608.45 383.709C1611.24 377.096 1615.06 371.218 1620.06 366.074C1625.05 360.931 1630.93 356.963 1637.69 354.024C1644.45 351.085 1651.65 349.615 1659.29 349.615C1666.93 349.615 1674.14 351.085 1680.9 354.024C1687.66 356.963 1693.53 361.078 1698.53 366.074C1703.53 371.218 1707.5 377.096 1710.14 383.709C1712.93 390.322 1714.26 397.082 1714.26 404.136C1714.26 411.19 1712.93 417.95 1710.14 424.563C1707.35 431.176 1703.53 437.055 1698.53 442.198C1693.53 447.342 1687.66 451.309 1680.9 454.249C1674.14 457.188 1666.93 458.657 1659.29 458.657C1651.65 458.657 1644.45 457.188 1637.84 454.249C1631.22 451.309 1625.35 447.195 1620.2 442.051C1615.06 436.908 1611.09 431.029 1608.45 424.416C1605.65 417.95 1604.33 411.19 1604.33 404.136C1604.33 397.082 1605.65 390.322 1608.45 383.709ZM1680.01 425.886C1685.45 420.155 1688.24 412.954 1688.24 404.136C1688.24 395.319 1685.45 388.118 1680.01 382.387C1674.58 376.655 1667.67 373.863 1659.44 373.863C1651.21 373.863 1644.6 376.802 1639.01 382.387C1633.43 388.118 1630.64 395.319 1630.64 404.136C1630.64 412.954 1633.43 420.155 1639.01 425.886C1644.6 431.617 1651.36 434.409 1659.44 434.409C1667.52 434.409 1674.58 431.617 1680.01 425.886Z" fill="white"/>
<path d="M1738.36 353.877L1764.66 351.673V364.899H1765.25C1768.34 359.314 1772.01 355.346 1776.42 353.142C1780.83 350.791 1785.82 349.615 1791.26 349.615C1800.81 349.615 1808.75 352.407 1815.07 358.139C1821.39 363.87 1824.62 371.512 1824.62 380.917V454.249L1798.31 456.453V397.082C1798.31 382.974 1792.73 375.92 1781.71 375.92C1776.71 375.92 1772.6 378.125 1769.51 382.387C1766.42 386.648 1764.81 392.38 1764.81 399.287V454.396L1738.5 456.6V354.024L1738.36 353.877Z" fill="white"/>
</svg>
