<svg width="1825" height="720" viewBox="0 0 1825 720" fill="none" xmlns="http://www.w3.org/2000/svg">
<g clip-path="url(#clip0_716_2588)">
<path d="M41.8559 236.201C41.6643 256.634 45.6748 262.935 59.6224 263.892C63.058 263.892 64.0161 264.467 64.0161 266.567C64.0161 268.859 62.6814 269.433 58.0961 269.433C56.1867 269.433 53.7024 269.242 50.4517 268.859C40.3231 267.901 37.4622 267.716 30.3926 267.716C24.4727 267.716 19.8873 268.099 16.2534 268.674C13.386 269.248 10.7101 269.631 9.56706 269.631C7.65761 269.631 6.69959 268.489 6.69959 266.765C6.69959 265.623 7.2744 265.239 9.37546 264.856C13.1944 264.282 17.7797 260.465 19.1209 256.647C20.2639 252.639 20.2639 252.064 20.4555 238.889V168.6C20.8388 153.708 18.1629 149.692 6.50798 147.592C0.211427 146.641 0 146.066 0 143.775C0 142.249 0.766422 141.292 2.10105 141.292C3.05908 141.292 3.83872 141.675 6.32298 142.058C8.61564 142.632 12.6261 142.824 17.7863 142.824C22.18 142.824 26.3821 142.632 37.4622 141.49C43.7654 140.915 47.9675 140.724 52.3612 140.724C54.6538 140.724 55.2286 141.298 55.2286 143.015C55.2286 145.307 54.8454 145.69 52.5528 146.073C42.6157 147.982 41.6643 149.514 41.8559 163.832V236.207V236.201Z" fill="#ECECEC"/>
<path d="M196.356 218.059C204 226.651 206.293 228.56 207.819 228.56C208.969 228.56 209.537 227.602 209.92 226.076C210.112 224.359 210.878 193.042 210.878 182.535C210.878 154.275 210.231 149.164 192.848 147.638C190.555 147.447 189.789 146.872 189.789 145.538C189.789 143.821 190.555 143.055 192.464 143.055C195.332 143.055 196.667 143.246 203.353 144.013C206.22 144.396 205.527 144.118 207.443 144.118C211.645 144.118 219.289 143.544 228.077 142.401C229.22 142.21 230.369 142.21 231.136 142.21C232.854 142.21 233.812 142.976 233.812 144.693C233.812 146.601 233.045 147.176 230.753 147.751C221.965 149.659 218.146 155.808 218.714 171.658L217.38 229.9C216.997 240.976 216.997 241.167 216.997 244.416C216.997 252.817 217.188 262.175 217.38 265.616V266.95C217.38 268.667 216.805 269.433 215.47 269.433C214.512 269.433 212.986 268.476 212.035 267.333L127.001 173.183C124.9 170.892 124.709 170.7 123.942 170.7C122.225 170.7 121.65 172.417 121.65 177.767V213.859C122.033 257.592 123.751 261.792 142.667 264.467C144.768 264.658 145.534 265.424 145.534 266.95C145.534 268.667 144.576 269.625 142.858 269.625C142.284 269.625 140.566 269.433 139.04 269.242C134.263 268.476 126.433 267.908 121.848 267.908C117.263 267.908 106.982 268.013 102.971 268.779C101.062 269.162 98.961 269.354 98.1945 269.354C96.4767 269.354 95.7103 268.588 95.7103 267.062C95.7103 265.728 96.2851 265.154 98.3861 264.579C110.616 259.421 113.06 257.981 114.012 217.306V176.822C114.395 158.68 108.713 147.222 95.1487 146.648C93.0476 146.456 92.2812 145.882 92.2812 144.356C92.2812 142.639 93.2392 141.681 95.1487 141.681L101.452 141.873C109.096 141.873 112.869 141.681 118.98 141.107C120.89 140.915 122.799 140.724 124.332 140.724C127.768 140.724 128.534 141.298 133.886 147.407C134.525 148.169 136.881 150.969 140.956 155.808C144.966 160.391 146.307 162.108 146.876 162.683L196.356 218.059Z" fill="#ECECEC"/>
<path d="M449.824 234.292C450.207 248.425 450.782 251.285 454.217 256.059C457.653 261.026 463.005 263.509 470.458 263.892C473.134 263.892 473.893 264.658 473.893 266.758C473.893 268.667 473.319 269.242 471.026 269.242C470.643 269.242 467.522 269.114 461.664 268.858C453.259 268.22 448.101 267.901 446.19 267.901C441.413 267.901 440.27 267.901 428.807 268.667L416.009 269.433C413.908 269.625 412.19 269.816 411.04 269.816C409.514 269.816 408.747 269.05 408.747 267.524C408.747 264.85 409.705 264.084 413.333 263.899C424.988 262.182 429.19 255.881 428.423 241.365V160.391C428.423 152.373 427.089 151.033 419.061 151.033C406.072 151.033 397.476 152.367 392.89 154.85C388.114 157.525 386.97 159.433 384.103 171.083C382.768 176.432 382.002 177.575 380.093 177.575C378.375 177.575 377.225 176.432 377.225 174.709C377.225 174.326 377.417 172.734 377.8 169.934C378.055 168.278 378.5 164.714 379.134 159.242C379.518 156.567 379.901 153.701 380.093 151.033C380.476 148.933 380.667 147.024 380.859 145.307C381.051 142.441 381.817 141.681 384.486 141.681C384.869 141.681 386.587 141.681 387.922 141.873C389.64 142.064 393.65 142.064 398.236 142.256L417.343 142.447C429.571 142.575 437.213 142.639 440.27 142.639C450.967 142.639 476.186 142.064 486.315 141.496L493.001 141.305C496.186 141.305 498.033 144.933 498.544 152.188C498.928 156.58 499.311 159.063 499.311 159.83C499.694 162.313 501.009 171.387 501.009 172.529C501.009 174.438 500.242 175.396 498.525 175.396C496.807 175.396 496.232 174.63 495.465 171.955C494.507 166.988 489.942 156.963 486.506 154.289C483.071 151.997 479.053 151.039 470.649 151.039C452.308 151.039 449.824 152.565 449.824 164.023V234.299V234.292Z" fill="#ECECEC"/>
<path d="M587.165 205.458C578.761 205.267 577.228 206.984 577.42 216.151V239.45C577.037 256.258 582.58 263.892 595.569 264.276C598.054 264.276 599.005 264.85 599.005 266.759C599.005 268.859 597.862 269.625 594.228 269.625C593.27 269.625 591.169 269.433 587.542 269.05C581.239 268.284 571.876 267.716 567.866 267.716C564.239 267.716 559.653 268.099 545.706 269.433H544.556C542.838 269.433 541.689 268.284 541.689 266.184C541.689 264.85 542.263 264.276 543.981 264.084C549.333 263.318 553.918 258.926 555.253 253.392C555.828 251.292 555.828 250.526 556.019 238.876V164.783C556.403 152.75 552.201 147.975 538.636 145.875C536.535 145.492 535.96 145.109 535.96 143.584C535.96 141.483 536.918 140.526 539.019 140.526C539.977 140.526 542.647 140.717 545.131 141.1C549.333 141.866 557.361 142.243 563.855 142.243C565.001 142.243 569.586 141.862 577.611 141.1C580.862 140.717 586.782 140.334 588.117 140.334C590.026 140.334 591.176 141.292 591.176 142.817C591.176 144.343 590.409 145.109 588.5 145.492C580.664 146.45 577.228 150.842 577.42 159.434V183.301C577.037 195.334 577.803 196.094 587.733 196.094H634.102C641.555 196.094 642.506 193.993 642.315 181.201V164.776C642.889 152.744 638.304 147.784 624.931 146.06C622.83 145.677 622.255 145.102 622.255 143.577C622.255 141.477 623.214 140.519 625.315 140.519C626.273 140.519 628.942 140.711 631.426 141.094C636.203 141.86 643.464 142.236 651.102 142.236C652.06 142.236 657.022 141.853 663.9 141.094C667.527 140.711 672.496 140.328 674.214 140.328C676.506 140.328 677.464 141.094 677.464 143.002C677.464 144.336 676.698 145.102 674.788 145.486C666.952 146.443 663.517 150.835 663.708 159.427V239.444C663.134 256.06 668.868 264.077 681.666 264.269C684.342 264.269 685.294 264.843 685.294 266.752C685.294 268.852 684.151 269.618 680.517 269.618C679.559 269.618 677.458 269.427 673.83 269.044C667.719 268.278 658.165 267.71 654.155 267.71C650.527 267.71 645.942 268.093 631.994 269.427H630.845C629.127 269.427 627.977 268.278 627.977 266.178C627.977 264.843 628.552 264.269 630.27 264.077C635.622 263.311 640.207 258.919 641.542 253.385C642.116 251.285 642.116 250.519 642.308 238.869V218.436C642.308 206.594 641.542 205.26 634.095 205.452H587.152L587.165 205.458Z" fill="#ECECEC"/>
<path d="M757.397 183.11C757.397 194.951 758.355 196.477 764.658 196.477L771.728 196.285H779.564C787.016 196.094 794.496 192.468 799.464 181.577C800.039 180.052 800.799 179.669 802.14 179.669C803.481 179.669 804.241 180.435 804.241 181.96C804.241 182.727 804.05 184.444 803.858 186.352C803.666 187.878 803.666 189.219 803.666 190.744C803.666 192.016 803.986 196.6 804.624 204.494C805.008 209.46 805.199 216.527 805.199 221.87C805.199 223.587 804.624 224.161 803.29 224.161C801.572 224.161 800.805 223.204 800.422 220.727C796.987 206.211 790.842 204.686 768.107 205.069C761.804 205.069 759.703 205.643 758.745 208.318C757.978 210.993 757.787 212.71 757.41 226.651V235.052C757.41 242.31 758.368 250.902 759.511 253.96C761.612 259.685 763.905 261.218 769.825 261.218C787.4 261.218 802.351 257.783 811.905 250.142C816.107 246.893 820.118 242.125 821.651 238.11C822.034 237.343 822.417 236.967 822.8 236.967C824.327 236.967 825.285 238.11 825.285 239.45C825.285 245.751 822.226 255.3 818.598 260.075C812.87 267.908 803.646 270.767 791.423 270.767C785.88 270.767 784.737 270.767 767.354 269.05C763.343 268.667 758.375 268.476 752.072 268.476C745.385 268.476 744.81 268.476 730.671 269.242L725.128 269.433C723.41 269.433 722.644 268.859 722.644 267.333C722.644 266.191 723.218 265.425 724.745 264.85C733.149 262.558 736.016 256.258 736.016 239.067V165.159C736.016 151.026 732.766 147.592 718.441 145.684C716.532 145.492 715.957 144.917 715.957 143.009C715.957 141.675 716.915 140.909 718.825 140.909L721.884 141.1L726.469 141.292C742.326 141.675 751.497 141.866 774.232 141.866C783.019 141.866 804.228 141.483 808.813 141.1H810.339C812.249 141.1 812.824 141.866 812.824 144.158C813.015 146.067 813.207 148.741 813.399 151.799C814.165 160.2 814.165 161.157 814.165 163.449C814.165 167.841 812.639 170.707 810.538 170.707C809.203 170.707 808.82 169.941 808.628 166.507C808.628 154.282 799.458 148.748 779.398 149.131H770.611C758.573 149.131 757.43 150.465 757.43 163.072V183.123L757.397 183.11Z" fill="#ECECEC"/>
<path d="M1292.32 200.301C1292.32 221.5 1283.72 242.501 1269.58 255.492C1258.5 265.616 1242.26 271.342 1224.31 271.342C1183.81 271.342 1157.82 245.942 1157.82 206.416C1157.82 187.508 1166.03 167.841 1178.45 156.574C1190.87 145.307 1208.64 139.007 1227.36 139.007C1266.14 139.007 1292.31 163.641 1292.31 200.307L1292.32 200.301ZM1180.75 197.817C1180.75 237.535 1200.04 264.467 1228.51 264.467C1240.55 264.467 1252.39 258.741 1258.89 249.951C1265.96 240.401 1270.54 224.551 1270.54 209.084C1270.54 190.942 1264.24 172.992 1253.92 160.959C1245.9 151.793 1233.09 146.067 1220.68 146.067C1195.84 146.067 1180.75 165.543 1180.75 197.817H1180.75Z" fill="#ECECEC"/>
<path d="M1345.96 161.666C1346.16 150.716 1343.31 148.266 1328.42 145.433C1325.57 145.056 1324.55 144.488 1324.55 142.791C1324.55 141.094 1325.36 140.341 1327.61 140.341C1328.42 140.341 1330.46 140.532 1332.09 140.717C1342.29 141.662 1345.35 141.847 1351.67 141.847C1357.99 141.847 1365.13 141.47 1373.08 140.902C1376.55 140.711 1378.79 140.526 1380.02 140.526C1384.09 140.526 1385.12 141.094 1385.12 143.359C1385.12 145.248 1384.5 145.433 1380.63 146.377C1375.53 147.13 1374.51 147.698 1372.47 150.34C1371.45 151.852 1370.43 155.438 1370.03 160.345C1369.41 168.838 1368.8 176.387 1368.19 183.935C1368.39 229.042 1368.6 229.986 1372.88 238.856C1379.41 252.064 1393.56 259.996 1412.11 259.996C1421.29 259.996 1431.69 256.978 1439.24 251.879C1450.25 244.707 1454.93 233.005 1456.57 209.223C1456.98 201.298 1457.18 194.126 1457.18 182.608C1457.18 168.263 1456.77 161.659 1455.55 157.32C1453.71 150.34 1442.89 145.618 1433.51 145.433C1430.66 145.433 1429.64 144.68 1429.64 142.791C1429.64 141.279 1430.26 140.717 1431.27 140.526C1431.89 140.526 1432.7 140.526 1433.72 140.717C1435.35 140.909 1453.1 141.662 1456.98 141.662C1460.04 141.662 1467.79 141.094 1474.11 140.532C1475.12 140.341 1476.35 140.341 1477.17 140.341C1479 140.341 1480.02 141.094 1480.02 142.791C1480.02 144.488 1479.82 144.68 1473.7 145.624C1468.19 146.377 1465.95 150.908 1465.95 160.345L1466.15 169.406C1466.15 177.146 1465.54 197.903 1464.93 209.606C1463.71 231.307 1457.79 246.596 1447.19 255.849C1436.79 265.094 1422.43 269.816 1403.47 269.816C1384.51 269.816 1369.01 265.286 1360.24 257.929C1350.25 249.436 1345.35 234.339 1345.35 212.822L1346.37 178.474L1345.96 161.679L1345.96 161.666Z" fill="#ECECEC"/>
<path d="M1591.2 234.292C1591.59 248.425 1592.16 251.285 1595.6 256.059C1599.03 261.026 1604.39 263.509 1611.84 263.892C1614.51 263.892 1615.27 264.658 1615.27 266.758C1615.27 268.667 1614.7 269.242 1612.41 269.242C1612.02 269.242 1608.9 269.114 1603.04 268.858C1594.64 268.22 1589.48 267.901 1587.57 267.901C1582.79 267.901 1581.65 267.901 1570.19 268.667L1557.39 269.433C1555.29 269.625 1553.57 269.816 1552.42 269.816C1550.89 269.816 1550.13 269.05 1550.13 267.524C1550.13 264.85 1551.09 264.084 1554.71 263.899C1566.37 262.182 1570.57 255.881 1569.8 241.365V160.391C1569.8 152.373 1568.47 151.033 1560.44 151.033C1547.45 151.033 1538.86 152.367 1534.27 154.85C1529.49 157.525 1528.35 159.433 1525.48 171.083C1524.15 176.432 1523.38 177.575 1521.47 177.575C1519.76 177.575 1518.61 176.432 1518.61 174.709C1518.61 174.326 1518.8 172.734 1519.18 169.934C1519.44 168.278 1519.88 164.714 1520.52 159.242C1520.9 156.567 1521.28 153.701 1521.47 151.033C1521.86 148.933 1522.05 147.024 1522.24 145.307C1522.43 142.441 1523.2 141.681 1525.87 141.681C1526.25 141.681 1527.97 141.681 1529.3 141.873C1531.02 142.064 1535.03 142.064 1539.62 142.256L1558.72 142.447C1570.95 142.575 1578.59 142.639 1581.65 142.639C1592.35 142.639 1617.57 142.064 1627.7 141.496L1634.38 141.305C1637.57 141.305 1639.41 144.933 1639.93 152.188C1640.31 156.58 1640.69 159.063 1640.69 159.83C1641.08 162.313 1641.46 166.704 1641.46 167.847C1641.46 169.756 1640.69 170.713 1638.97 170.713C1637.26 170.713 1636.68 169.947 1635.91 167.272C1634.96 162.306 1631.33 156.963 1627.89 154.289C1624.46 151.997 1620.44 151.039 1612.04 151.039C1593.7 151.039 1591.21 152.565 1591.21 164.023V234.299L1591.2 234.292Z" fill="#ECECEC"/>
<path d="M1729.29 205.458C1720.89 205.267 1719.36 206.984 1719.55 216.151V239.45C1719.16 256.258 1724.71 263.892 1737.7 264.276C1740.18 264.276 1741.13 264.85 1741.13 266.759C1741.13 268.859 1739.99 269.625 1736.36 269.625C1735.4 269.625 1733.3 269.433 1729.67 269.05C1723.37 268.284 1714 267.716 1709.99 267.716C1706.37 267.716 1701.78 268.099 1687.83 269.433H1686.69C1684.97 269.433 1683.82 268.284 1683.82 266.184C1683.82 264.85 1684.4 264.276 1686.12 264.084C1691.47 263.318 1696.05 258.926 1697.39 253.392C1697.96 251.292 1697.96 250.526 1698.15 238.876V164.783C1698.54 152.75 1694.33 147.975 1680.77 145.875C1678.67 145.492 1678.09 145.109 1678.09 143.584C1678.09 141.483 1679.05 140.526 1681.15 140.526C1682.11 140.526 1684.78 140.717 1687.27 141.1C1691.47 141.866 1699.49 142.243 1705.99 142.243C1707.13 142.243 1711.72 141.862 1719.75 141.1C1723 140.717 1728.92 140.334 1730.25 140.334C1732.16 140.334 1733.31 141.292 1733.31 142.817C1733.31 144.343 1732.54 145.109 1730.63 145.492C1722.8 146.45 1719.36 150.842 1719.55 159.434V183.301C1719.17 195.334 1719.94 196.094 1729.87 196.094H1773.43C1780.88 196.094 1781.83 193.993 1781.64 181.201V164.776C1782.22 152.744 1777.63 147.784 1764.26 146.06C1762.16 145.677 1761.58 145.102 1761.58 143.577C1761.58 141.477 1762.54 140.519 1764.64 140.519C1765.6 140.519 1768.27 140.711 1770.75 141.094C1775.53 141.86 1782.79 142.236 1790.43 142.236C1791.39 142.236 1796.35 141.853 1803.23 141.094C1806.85 140.711 1811.82 140.328 1813.54 140.328C1815.83 140.328 1816.79 141.094 1816.79 143.002C1816.79 144.336 1816.02 145.102 1814.11 145.486C1806.28 146.443 1802.84 150.835 1803.03 159.427V239.444C1802.46 256.06 1808.19 264.077 1820.99 264.269C1823.67 264.269 1824.62 264.843 1824.62 266.752C1824.62 268.852 1823.48 269.618 1819.84 269.618C1818.88 269.618 1816.78 269.427 1813.16 269.044C1807.05 268.278 1797.49 267.71 1793.48 267.71C1789.85 267.71 1785.27 268.093 1771.32 269.427H1770.17C1768.45 269.427 1767.3 268.278 1767.3 266.178C1767.3 264.843 1767.88 264.269 1769.6 264.077C1774.95 263.311 1779.53 258.919 1780.87 253.385C1781.44 251.285 1781.44 250.519 1781.63 238.869V218.436C1781.63 206.594 1780.87 205.26 1773.42 205.452H1729.29V205.458Z" fill="#ECECEC"/>
<path d="M417.918 539.044C419.867 543.435 420.653 544.585 422.014 544.585C422.992 544.585 424.552 543.059 425.529 540.576L461.637 465.909C468.271 451.776 470.028 449.867 474.713 449.867L478.809 450.058C480.758 450.25 482.714 450.441 484.471 450.441C487.207 450.441 490.523 450.25 494.23 449.867C495.789 449.675 497.745 449.484 498.716 449.484C500.863 449.484 501.841 450.25 501.841 452.159C501.841 453.684 501.062 454.259 499.304 454.45C487.59 455.216 483.302 461.517 483.302 477.941V484.242L485.641 542.101C486.031 564.06 490.715 570.935 505.356 572.468C507.305 572.659 508.092 573.425 508.092 575.142C508.092 577.051 506.334 577.625 501.65 577.625C500.48 577.625 498.333 577.434 495.598 577.242C488.376 576.285 481.743 575.908 478.228 575.908C472.175 575.908 468.469 576.291 454.607 577.817H454.019C452.262 577.817 451.482 577.051 451.482 575.525C451.482 574.191 452.07 573.617 454.217 573.042C461.637 571.133 464.174 567.125 464.174 557.575V554.141L461.049 492.266C461.049 490.549 460.659 489.783 459.88 489.783C458.902 489.783 457.732 491.117 455.975 494.941L420.059 569.225C416.934 576.1 415.764 577.817 414.397 577.817C412.249 577.817 411.859 577.242 402.292 557.958L371.649 491.308C371.061 489.783 370.671 489.591 369.891 489.591C368.524 489.591 368.523 489.783 368.332 496.083L366.964 543.25V546.691C366.964 561.016 372.428 569.608 382.775 572.474C386.092 573.24 387.07 574 387.07 575.532C387.07 577.249 386.092 578.015 383.753 578.015C381.216 578.015 380.826 578.015 370.869 576.681C369.112 576.489 366.574 576.298 362.67 576.298C357.787 576.298 353.301 576.681 349.786 577.256C348.028 577.639 346.079 577.83 345.3 577.83C343.35 577.83 342.174 576.873 342.174 575.347C342.174 574.204 342.762 573.63 344.513 573.055C355.052 569.047 357.397 564.846 358.567 547.272L361.104 485.972L361.494 479.672C361.494 472.988 359.544 467.262 356.029 462.296C352.125 457.33 347.639 455.421 340.609 455.804C337.873 455.804 336.902 455.23 336.902 453.129C336.902 451.221 337.88 450.455 340.998 450.455C341.65 450.455 344.253 450.582 348.808 450.838C349.786 451.029 351.147 451.029 352.713 451.029C355.64 451.029 358.567 450.838 361.494 450.646C365.2 450.263 368.715 449.88 369.885 449.88C374.179 449.88 376.908 451.597 378.864 455.606L417.898 539.057L417.918 539.044Z" fill="#ECECEC"/>
<path d="M1042.34 229.346C1044.31 233.738 1045.1 234.887 1046.48 234.887C1047.47 234.887 1049.05 233.361 1050.03 230.878L1086.51 156.211C1093.22 142.078 1094.99 140.169 1099.72 140.169L1103.86 140.361C1105.83 140.552 1107.8 140.744 1109.57 140.744C1112.34 140.744 1115.69 140.552 1119.43 140.169C1121.01 139.978 1122.98 139.786 1123.96 139.786C1126.13 139.786 1127.12 140.552 1127.12 142.461C1127.12 143.986 1126.33 144.561 1124.55 144.753C1112.72 145.519 1108.39 151.819 1108.39 168.244V174.544L1110.75 232.404C1111.15 254.363 1115.88 261.238 1130.66 262.77C1132.63 262.961 1133.43 263.727 1133.43 265.444C1133.43 267.353 1131.65 267.928 1126.92 267.928C1125.74 267.928 1123.57 267.736 1120.81 267.545C1113.51 266.587 1106.81 266.211 1103.26 266.211C1097.15 266.211 1093.4 266.594 1079.4 268.119H1078.81C1077.03 268.119 1076.24 267.353 1076.24 265.828C1076.24 264.493 1076.84 263.919 1079 263.344C1086.5 261.436 1089.06 257.427 1089.06 247.877V244.443L1085.91 182.568C1085.91 180.851 1085.51 180.085 1084.73 180.085C1083.74 180.085 1082.56 181.419 1080.78 185.243L1044.5 259.527C1041.35 266.402 1040.16 268.119 1038.79 268.119C1036.62 268.119 1036.22 267.545 1026.56 248.26L995.609 181.611C995.014 180.085 994.624 179.894 993.831 179.894C992.451 179.894 992.451 180.085 992.252 186.385L990.871 233.553V236.994C990.871 251.318 996.395 259.91 1006.84 262.776C1010.19 263.542 1011.18 264.302 1011.18 265.834C1011.18 267.551 1010.2 268.317 1007.83 268.317C1005.27 268.317 1004.87 268.317 994.816 266.983C993.039 266.792 990.475 266.6 986.537 266.6C981.608 266.6 977.076 266.983 973.521 267.558C971.744 267.941 969.775 268.132 968.989 268.132C967.02 268.132 965.837 267.175 965.837 265.649C965.837 264.507 966.432 263.932 968.203 263.358C978.853 259.349 981.219 255.149 982.401 237.575L984.965 176.274L985.361 169.974C985.361 163.291 983.392 157.565 979.838 152.598C975.893 147.632 971.361 145.723 964.258 146.106C961.496 146.106 960.512 145.532 960.512 143.432C960.512 141.523 961.496 140.757 964.655 140.757C965.311 140.757 967.941 140.885 972.543 141.14C973.528 141.332 974.909 141.332 976.488 141.332C979.448 141.332 982.401 141.14 985.361 140.948C989.107 140.565 992.655 140.182 993.838 140.182C998.179 140.182 1000.93 141.899 1002.91 145.908L1042.35 229.359L1042.34 229.346Z" fill="#ECECEC"/>
<path d="M672.661 558.52C678.819 570.169 680.801 571.695 691.921 574.37C693.308 574.561 693.705 575.136 693.705 577.044C693.705 578.57 692.912 579.336 691.518 579.336C691.121 579.336 690.13 579.145 687.745 578.761C683.774 577.995 670.87 577.236 663.722 577.236C654.987 577.236 644.462 577.81 641.086 578.57C640.095 578.761 639.302 578.953 638.701 578.953C637.313 578.953 635.919 577.619 635.919 576.278C635.919 575.321 636.514 574.944 638.106 574.37C644.264 572.653 648.829 567.686 648.829 562.72C648.829 559.094 645.057 548.97 639.5 538.086C637.313 533.503 635.133 532.737 623.418 532.737H598.999C589.868 532.737 587.482 534.262 583.512 543.429C578.748 554.121 577.757 556.987 577.757 560.045C577.757 567.686 583.512 572.27 594.83 573.604C597.413 573.987 598.404 574.746 598.404 576.087C598.404 577.612 597.016 578.761 595.226 578.761C593.838 578.761 592.048 578.57 590.066 578.187C585.699 577.229 582.124 576.853 578.748 576.853C575.372 576.853 571.797 577.044 558.695 578.378L551.322 578.57C549.736 578.57 548.937 577.804 548.937 576.278C548.937 574.944 549.531 574.178 551.718 573.604C558.867 571.12 563.664 568.637 572.2 549.921L601.291 491.104C603.478 486.52 605.064 483.086 605.857 481.554L614.79 463.604C620.084 453.292 622.996 448.137 623.524 448.137C624.912 448.137 627.495 452.72 631.268 460.929L672.661 558.513V558.52ZM620.987 492.55C618.483 486.56 616.157 482.749 615.08 482.749C614.486 482.749 612.638 486.078 609.537 492.735L599.336 516.332C598.261 518.753 597.723 520.327 597.723 521.054C597.723 523.233 599.336 523.96 604.165 523.96H627.957C632.43 523.96 633.144 523.596 633.144 522.144C633.144 521.78 633.144 521.417 632.43 519.601L620.98 492.55H620.987Z" fill="#ECECEC"/>
<path d="M754.173 476.303C753.783 463.511 749.092 459.119 734.814 457.779C732.66 457.779 731.88 457.013 731.88 455.295C731.88 453.195 733.056 452.621 738.137 452.621H740.093C746.152 452.812 750.453 452.812 752.217 452.812C760.819 452.812 765.319 452.621 778.414 451.287C787.406 450.521 795.817 449.953 801.678 449.953C818.294 449.953 835.308 454.536 847.623 462.177C863.46 472.11 872.261 489.102 872.261 509.919C872.261 530.735 864.438 547.92 849.777 561.095C837.072 572.553 819.669 579.237 803.045 579.237C800.31 579.237 794.245 579.045 786.428 578.471C781.737 578.279 777.238 578.088 772.745 578.088C764.922 578.088 752.607 578.662 749.673 579.045C746.938 579.62 744.592 579.811 743.806 579.811C742.24 579.811 741.652 578.854 741.652 576.945C741.652 575.611 742.042 575.228 743.998 574.845C752.6 572.745 754.556 568.736 754.166 553.645V476.303H754.173ZM776.075 549.445C776.075 558.995 776.663 562.237 779.398 565.87C782.524 570.07 790.346 572.362 801.294 572.362C812.242 572.362 822.411 568.928 830.425 562.621C842.939 552.688 848.997 537.604 848.997 516.979C848.997 500.554 844.894 487.57 836.094 476.878C825.536 463.894 810.287 456.828 792.884 456.828C785.259 456.828 780.172 457.97 778.024 460.453C776.458 462.17 776.068 464.271 776.068 471.337V549.438L776.075 549.445Z" fill="#ECECEC"/>
<path d="M1016 527.777C1023.64 536.369 1025.94 538.278 1027.46 538.278C1028.6 538.278 1029.18 537.32 1029.56 535.794C1029.75 534.077 1030.52 502.76 1030.52 492.253C1030.52 463.993 1026.13 456.544 1008.74 455.018C1006.45 454.827 1005.68 454.252 1005.68 452.918C1005.68 451.201 1006.45 450.435 1008.36 450.435C1011.23 450.435 1012.56 450.627 1019.25 451.393C1022.12 451.776 1025.17 451.967 1027.08 451.967C1031.29 451.967 1038.93 451.393 1047.72 450.25C1048.86 450.059 1050.01 450.059 1050.78 450.059C1052.5 450.059 1053.45 450.825 1053.45 452.542C1053.45 454.45 1052.69 455.025 1050.39 455.6C1041.61 457.508 1037.79 465.532 1038.36 481.382L1037.02 539.625C1036.64 550.7 1036.64 550.892 1036.64 554.141C1036.64 562.542 1036.83 571.9 1037.02 575.341V576.675C1037.02 578.392 1036.45 579.158 1035.11 579.158C1034.15 579.158 1032.63 578.2 1031.67 577.058L946.657 482.915C944.556 480.623 944.364 480.431 943.598 480.431C941.88 480.431 941.305 482.148 941.305 487.498V523.59C941.688 567.323 943.406 571.523 962.322 574.198C964.423 574.389 965.19 575.156 965.19 576.681C965.19 578.398 964.232 579.356 962.514 579.356C961.939 579.356 960.221 579.164 958.695 578.973C953.918 578.207 946.089 577.639 941.503 577.639C936.918 577.639 928.514 578.213 924.503 578.973C922.594 579.356 920.493 579.547 919.726 579.547C918.009 579.547 917.242 578.781 917.242 577.256C917.242 575.922 917.817 575.347 919.918 574.773C932.148 569.615 932.716 567.706 933.674 527.031V486.547C934.057 468.405 926.03 456.947 912.465 456.372C910.364 456.181 909.598 455.606 909.598 454.081C909.598 452.363 910.556 451.406 912.465 451.406L918.768 451.597C926.413 451.597 932.524 451.406 938.636 450.831C940.545 450.64 942.455 450.448 943.988 450.448C947.43 450.448 948.19 451.023 953.541 457.132C954.18 457.893 956.537 460.694 960.611 465.532C964.622 470.116 965.963 471.833 966.531 472.407L1016.01 527.784L1016 527.777Z" fill="#ECECEC"/>
<path d="M1139.98 494.036C1139.98 505.877 1140.94 507.403 1147.24 507.403L1154.31 507.211H1162.14C1169.59 507.02 1176.6 503.394 1181.57 492.504C1182.15 490.978 1182.91 490.595 1184.25 490.595C1185.59 490.595 1186.35 491.361 1186.35 492.887C1186.35 493.653 1186.16 495.37 1185.97 497.279C1185.77 498.804 1185.77 500.145 1185.77 501.671C1185.77 502.943 1186.09 507.526 1186.73 515.421C1187.12 520.387 1187.31 527.453 1187.31 532.796C1187.31 534.513 1186.73 535.088 1185.4 535.088C1183.68 535.088 1182.91 534.13 1182.53 531.654C1179.09 517.138 1173.42 515.612 1150.68 515.995C1144.38 515.995 1142.28 516.57 1141.32 519.244C1140.56 521.919 1140.36 523.636 1139.99 537.578V545.978C1139.99 553.236 1140.94 561.828 1142.09 564.886C1144.19 570.612 1146.48 572.144 1152.4 572.144C1169.98 572.144 1183.52 568.71 1193.07 561.069C1197.28 557.82 1201.29 553.051 1202.82 549.036C1203.2 548.27 1203.59 547.893 1203.96 547.893C1205.49 547.893 1206.45 549.036 1206.45 550.377C1206.45 556.677 1203.39 566.227 1199.76 571.002C1194.03 578.834 1186.22 581.694 1173.99 581.694C1168.44 581.694 1167.3 581.694 1149.92 579.977C1145.91 579.594 1140.94 579.402 1134.64 579.402C1127.95 579.402 1127.37 579.402 1113.23 580.168L1107.69 580.36C1105.97 580.36 1105.21 579.785 1105.21 578.26C1105.21 577.117 1105.78 576.351 1107.31 575.776C1115.71 573.485 1118.58 567.184 1118.58 549.994V476.092C1118.58 461.959 1115.33 458.525 1101.01 456.617C1099.1 456.425 1098.52 455.851 1098.52 453.942C1098.52 452.608 1099.48 451.842 1101.39 451.842L1104.45 452.033L1109.03 452.225C1124.89 452.608 1134.06 452.799 1156.8 452.799C1165.58 452.799 1186.79 452.416 1191.38 452.033H1192.9C1194.81 452.033 1195.39 452.799 1195.39 455.091C1195.58 457 1195.77 459.674 1195.96 462.732C1196.73 471.133 1196.73 472.09 1196.73 474.382C1196.73 478.774 1195.2 481.64 1193.1 481.64C1191.77 481.64 1191.38 480.874 1191.19 477.44C1191.19 465.215 1182.02 459.681 1161.96 460.064H1153.17C1141.14 460.064 1139.99 461.398 1139.99 474.006V494.056L1139.98 494.036Z" fill="#ECECEC"/>
<path d="M1251.58 535.293C1251.58 532.235 1252.57 530.709 1254.54 530.709C1255.53 530.709 1256.12 531.284 1256.52 533.001C1267.25 563.01 1281.35 574.086 1297.75 574.086C1311.18 574.086 1323.23 562.819 1323.23 550.218C1323.23 544.109 1320.27 537.994 1315.73 534.56C1313.36 532.904 1305 529.021 1290.64 522.91C1274.44 515.843 1268.91 512.409 1263.18 506.485C1257.65 500.759 1255.08 493.501 1255.08 484.143C1255.08 464.093 1270.89 448.625 1291.63 448.625C1299.13 448.625 1302.49 449.392 1315.53 454.543C1318.69 455.685 1320.47 456.26 1321.66 456.26C1322.58 456.26 1324.75 455.496 1328.18 453.968C1328.57 453.777 1329.16 453.585 1329.76 453.585C1331.33 453.585 1331.73 454.351 1331.73 457.026L1331.53 463.518C1331.53 466.576 1331.53 466.952 1332.91 476.693C1333.51 480.511 1334.1 485.86 1334.1 487.577C1334.1 489.677 1333.3 491.011 1331.92 491.011C1330.54 491.011 1329.75 489.869 1329.15 487.577C1325.01 469.627 1308.02 455.302 1291.03 455.302C1279.57 455.302 1269.5 464.277 1269.5 474.402C1269.5 479.368 1272.27 484.902 1276.61 487.96C1279.96 490.443 1282.93 491.777 1298.14 497.701C1313.55 503.81 1320.86 507.826 1326.39 513.36C1333.1 520.043 1337.25 530.168 1337.25 540.668C1337.25 551.169 1333.1 561.102 1325.2 568.743C1317.69 576.192 1306.63 580.967 1297.15 580.967C1292.41 580.967 1284.7 579.442 1275.42 576.576C1268.7 574.475 1268.51 574.475 1265.54 573.901C1261.59 572.943 1256.52 569.199 1255.72 568.631C1254.93 567.865 1254.04 567.303 1254.34 563.664C1255.16 553.837 1251.57 535.299 1251.57 535.299L1251.58 535.293Z" fill="#ECECEC"/>
<path d="M1390.14 535.293C1390.14 532.235 1391.12 530.709 1393.1 530.709C1394.08 530.709 1394.68 531.284 1395.07 533.001C1405.8 563.01 1419.91 574.086 1436.31 574.086C1449.74 574.086 1461.79 562.819 1461.79 550.218C1461.79 544.109 1458.83 537.994 1454.29 534.56C1451.92 532.904 1443.55 529.021 1429.2 522.91C1413 515.843 1407.47 512.409 1401.74 506.485C1396.21 500.759 1393.64 493.501 1393.64 484.143C1393.64 464.093 1409.44 448.625 1430.18 448.625C1437.69 448.625 1441.05 449.392 1454.09 454.543C1457.25 455.685 1459.02 456.26 1460.21 456.26C1461.13 456.26 1463.31 455.496 1466.73 453.968C1467.13 453.777 1467.72 453.585 1468.31 453.585C1469.89 453.585 1470.29 454.351 1470.29 457.026L1470.09 463.518C1470.09 466.576 1470.09 466.952 1471.47 476.693C1472.07 480.511 1472.65 485.86 1472.65 487.577C1472.65 489.677 1471.86 491.011 1470.48 491.011C1469.1 491.011 1468.31 489.869 1467.71 487.577C1463.56 469.627 1446.58 455.302 1429.59 455.302C1418.13 455.302 1408.06 464.277 1408.06 474.402C1408.06 479.368 1410.82 484.902 1415.17 487.96C1418.52 490.443 1421.49 491.777 1436.7 497.701C1452.11 503.81 1459.41 507.826 1464.94 513.36C1471.66 520.043 1475.81 530.168 1475.81 540.668C1475.81 551.169 1471.66 561.102 1463.75 568.743C1456.25 576.192 1445.19 580.967 1435.71 580.967C1430.96 580.967 1423.26 579.442 1413.98 576.576C1407.26 574.475 1407.07 574.475 1404.1 573.901C1400.15 572.943 1395.07 569.199 1394.28 568.631C1393.49 567.865 1392.6 567.303 1392.9 563.664C1393.71 553.837 1390.12 535.299 1390.12 535.299L1390.14 535.293Z" fill="#ECECEC"/>
<path d="M915.861 353.419C915.861 368.602 909.703 383.653 899.575 392.952C891.64 400.203 880.005 404.304 867.141 404.304C838.129 404.304 819.517 386.11 819.517 357.791C819.517 344.246 825.404 330.159 834.297 322.089C843.19 314.018 855.922 309.501 869.334 309.501C897.117 309.501 915.868 327.147 915.868 353.412L915.861 353.419ZM837.217 351.854C837.217 379.175 850.491 397.694 870.068 397.694C878.346 397.694 886.493 393.751 890.959 387.708C895.822 381.143 898.974 370.24 898.974 359.601C898.974 347.125 894.639 334.775 887.543 326.5C882.026 320.193 873.219 316.257 864.676 316.257C847.59 316.257 837.211 329.657 837.211 351.854H837.217Z" fill="#ECECEC"/>
<path d="M972.55 344.794C972.55 349.668 973.508 351.022 977.34 351.022H979.805C993.765 351.16 996.091 349.939 999.646 340.455C1000.06 339.233 1000.47 338.962 1001.29 338.962C1002.8 338.962 1003.07 339.233 1003.07 340.726C1003.07 340.726 1003.07 341.538 1002.93 342.35V344.926C1002.93 348.175 1003.07 350.751 1004.03 361.721C1004.17 364.296 1004.44 368.496 1004.44 368.899C1004.44 369.85 1003.89 370.253 1002.79 370.253C1001.69 370.253 1001.28 369.844 1001.01 368.49C999.368 359.416 995.952 356.84 985.685 356.84C978.569 356.84 975.556 357.111 974.189 357.923C973.184 358.557 972.636 362.484 972.543 369.705V380.675C972.953 394.22 976.567 398.42 986.557 398.962C988.202 399.1 988.744 399.642 988.744 400.725C988.744 401.947 988.334 402.488 987.376 402.488L973.693 401.947H965.837C962.415 401.947 955.325 402.085 953.138 402.356C950.264 402.766 947.529 403.036 946.571 403.036C945.065 403.036 944.384 402.495 944.384 401.273C944.384 400.19 944.523 400.051 946.3 399.51C951.5 397.746 957.493 393.553 957.222 383.798V329.347C957.36 319.321 955.167 316.752 944.629 315.26C943.261 315.121 942.851 314.718 942.851 313.497C942.851 312.143 943.4 311.733 945.177 311.733C945.587 311.733 947.232 311.872 948.599 312.004C951.612 312.275 953.119 312.275 956.264 312.275L968.447 312.136L985.963 311.997C989.795 311.997 1004.17 311.317 1009.23 311.046H1009.64C1010.64 311.046 1011.37 313.8 1011.82 319.308C1012.37 323.641 1012.64 326.17 1012.64 326.896C1012.64 330.555 1011.82 332.312 1010.18 332.312C1009.22 332.312 1008.95 331.77 1008.81 330.549C1008.54 325.807 1008.4 325.265 1007.16 323.37C1004.15 319.037 1000.19 317.545 992.114 317.274L981.714 317.135C977.063 317.135 975.008 317.545 973.779 318.899C972.682 319.982 972.55 320.523 972.55 325.807V344.767V344.794Z" fill="#ECECEC"/>
<path d="M788.886 355.684H335.482V365.353H788.886V355.684Z" fill="#ECECEC"/>
<path d="M1483.1 355.684H1029.69V365.353H1483.1V355.684Z" fill="#ECECEC"/>
</g>
<defs>
<clipPath id="clip0_716_2588">
<rect width="1824.62" height="442.687" fill="white" transform="translate(0 139)"/>
</clipPath>
</defs>
</svg>
