<svg width="1825" height="720" viewBox="0 0 1825 720" fill="none" xmlns="http://www.w3.org/2000/svg">
<g clip-path="url(#clip0_687_2536)">
<path d="M630.946 121.488C630.946 121.488 629.049 97.4537 597.561 91.8301C562.235 85.5147 542.887 118.252 543.044 117.984C538.29 126.487 531.752 145.835 531.417 155.52C530.904 169.824 537.308 183.749 549.069 191.895C551.256 193.412 553.443 194.684 555.608 195.755C575.245 205.485 598.097 198.522 612.669 182.165C635.766 156.189 630.946 121.488 630.946 121.488ZM597.383 149.182C591.96 173.506 581.36 189.886 571.541 189.663C555.184 189.284 559.937 166.365 565.36 142.041C570.782 117.717 582.208 100.578 591.201 101.582C604.993 103.1 602.806 124.88 597.383 149.182Z" fill="#ECECEC"/>
<path d="M745.85 93.1914C745.85 93.1914 752.813 89.6432 750.804 97.0743L740.896 111.937C740.896 111.937 737.169 119.413 731.256 114.146C730.095 113.119 729.336 111.758 728.823 110.308C727.618 106.826 722.865 99.1051 704.811 100.98C701.531 101.314 698.585 103.613 697.849 106.849C697.268 109.303 698.05 111.937 702.981 113.253C704.834 113.744 706.663 114.325 708.382 115.15C722.173 121.823 755.29 141.215 738.553 179.041C730.408 197.474 715.657 205.619 710.435 207.025C698.161 210.372 675.778 213.251 659.153 196.849C659.153 196.849 656.096 191.18 649.959 198.255C649.959 198.255 643.152 204.815 642.528 197.496C642.26 194.461 643.175 191.426 644.826 188.882L648.687 182.924C650.427 180.223 652.994 178.059 656.073 177.144C658.082 176.564 659.934 176.697 660.135 179.108C660.336 181.518 660.782 183.883 662.009 185.959C665.87 192.519 675.354 203.499 693.609 196.871C701.509 193.992 708.181 188.346 711.528 180.625C716.014 170.315 716.148 154.091 690.44 136.149C690.083 135.904 689.458 135.502 689.079 135.279C685.53 133.226 666.115 120.796 683.187 104.015C690.328 97.0074 700.17 93.3699 710.167 93.5038C716.639 93.5931 723.691 94.3964 726.837 97.2529C728.421 98.6811 730.14 99.9977 732.148 100.712C734.603 101.582 737.638 101.895 739.981 99.6853C740.941 98.7927 741.61 97.6546 742.503 96.695L745.873 93.1021L745.85 93.1914Z" fill="#ECECEC"/>
<path d="M878.809 26.3778C873.497 23.5883 867.539 22.2939 861.536 22.2939H848.124C821.925 22.2939 815.565 36.4645 815.565 36.4645C812.709 38.4507 803.381 62.8419 799.9 72.1477C799.096 74.3123 797.177 75.8744 794.901 76.2091C770.576 79.8243 763.19 92.3659 763.19 92.3659C757.879 101.895 765.667 99.1052 765.667 99.1052C793.629 71.5005 794.633 87.3001 794.633 87.3001L766.805 168.396C765.712 171.565 762.788 173.774 759.418 173.908C759.418 173.908 748.551 172.034 748.908 176.274C748.908 176.274 748.595 182.544 760.244 180.648C761.048 180.514 761.672 181.317 761.338 182.076L741.298 228.515C740.606 230.1 739.647 231.55 738.575 232.889C732.751 240.052 741.588 240.655 741.588 240.655C748.328 242.463 754.754 239.695 758.57 237.441C761.003 236.013 763.882 235.656 766.627 236.281C768.189 236.638 769.55 236.839 770.777 236.951C775.419 237.375 779.659 234.362 781.065 229.943L795.236 185.356C796.976 179.844 804.943 182.5 804.943 182.5C818.511 185.088 816.614 178.148 816.614 178.148C815.454 173.194 803.358 172.525 803.358 172.525C801.662 172.368 800.837 170.271 801.417 168.664L834.445 76.4769C835.203 74.3792 837.122 72.8841 839.332 72.6832C859.282 70.7864 872.538 59.1152 872.538 59.1152C895.992 41.1955 888.047 31.2873 878.809 26.3778ZM856.493 62.3287C854.864 63.2659 849.865 64.0916 848.013 64.4264L840.046 65.4975C839.109 65.676 839.131 63.7569 839.309 62.8196L840.604 56.6381C841.117 54.0718 842.166 51.617 843.639 49.4524L846.763 44.8107C847.678 43.494 848.392 42.0658 848.928 40.5707L849.976 37.6919C850.847 35.2372 852.253 33.0279 854.083 31.198L854.44 30.8409C856.091 29.1896 858.389 28.3416 860.71 28.587C871.489 29.6805 900.633 36.5092 856.493 62.3287Z" fill="#ECECEC"/>
<path d="M921.342 109.817C909.582 96.1816 887.935 101.872 887.935 101.872C851.404 109.147 836.81 128.718 830.985 143.023C827.147 152.418 827.259 163.018 831.253 172.368C849.976 216.174 900.455 199.995 910.832 196.134C912.416 195.532 913.911 194.684 915.072 193.457C916.835 191.649 916.812 190.154 916.21 189.06C915.339 187.454 913.331 186.94 911.635 187.565C884.521 197.317 877.804 167.771 876.688 161.299C876.577 160.675 877.09 160.117 877.715 160.161C913.666 162.594 923.574 143.447 926.252 131.151C927.903 123.652 926.363 115.641 921.342 109.817ZM878.451 152.038C876.8 151.86 876.019 150.365 875.885 148.713C875.082 138.069 884.097 103.903 905.699 109.37C910.876 110.665 914.357 112.383 916.299 117.359C921.142 129.655 921.499 156.613 878.451 152.038Z" fill="#ECECEC"/>
<path d="M1106.1 117.851C1106.1 117.851 1106.07 117.806 1106.07 117.784C1105.38 116.779 1104.07 116.467 1102.97 117.003C1088.09 124.456 1080.81 120.886 1077.35 116.646C1075.46 114.302 1074.47 111.357 1074.3 108.366C1074.21 106.737 1073.87 105.421 1073.45 104.394C1072.44 101.984 1069.81 100.667 1067.31 101.359C1041.85 108.322 1016.65 154.248 1010.63 165.919C1009.76 167.57 1008.06 168.619 1006.19 168.619H995.61C994.918 168.619 994.427 167.994 994.561 167.325L995.342 163.844C996.079 160.496 997.194 157.551 998.623 154.181L1016.16 116.779C1022.77 100.444 1013.19 98.7036 1013.19 98.7036C1001.72 95.3785 968.831 102.966 968.831 102.966C963.832 104.059 962.158 106.38 961.645 108.21C961.199 109.906 962.292 111.58 964.033 111.758C965.595 111.915 966.889 111.267 967.827 110.531C969.679 109.103 971.821 108.054 974.142 107.875C978.449 107.563 979.342 109.415 979.342 111.535C979.342 112.517 979.163 113.566 979.029 114.481C978.449 116.958 977.623 119.323 976.552 121.622C971.553 132.289 956.535 164.223 955.821 165.741C951.915 173.886 944.596 187.744 943.212 193.792C942.61 196.469 945.533 198.567 947.921 197.184C980.971 178.126 1000.03 175.827 1005.38 175.604C1006.19 175.56 1006.79 176.318 1006.63 177.122C1005 185.468 1005.61 191.381 1007.01 195.51C1008.73 200.643 1013.15 204.436 1018.46 205.44C1048.01 211.042 1049.28 191.024 1049.35 188.904C1049.35 188.771 1049.39 188.659 1049.39 188.525C1051 170.962 1027.41 167.303 1019.22 166.566C1017.84 166.432 1017.03 164.937 1017.7 163.71C1022.79 154.025 1039.15 129.098 1043.95 125.728C1044.57 125.282 1045.24 124.925 1045.91 125.304L1052.74 129.343C1073.16 141.081 1098.35 125.996 1105.47 121.198C1106.59 120.462 1106.85 118.944 1106.1 117.851ZM1025.87 175.537C1029.26 175.537 1032.63 176.117 1035.73 177.456C1039.22 178.952 1042.76 181.54 1043.03 185.914V189.842C1043.03 193.457 1041.07 196.894 1037.79 198.433C1036.58 198.991 1035.15 199.415 1033.48 199.549C1026.81 200.107 1022.17 199.549 1022.17 199.549C1022.17 199.549 1013.57 198.746 1013.15 190.422C1012.88 185.088 1012.53 181.607 1013.64 177.858C1014 176.564 1014.94 175.537 1016.27 175.537H1025.87Z" fill="#ECECEC"/>
<path d="M1210.24 194.952C1208.08 194.082 1206.32 195.465 1206.32 195.465C1202.61 198.054 1201.47 198.054 1200.54 197.675C1199.87 197.429 1199.44 196.76 1199.42 196.045C1199.26 188.815 1202.5 174.979 1206.36 165.517C1208.53 160.228 1210.38 154.806 1211.67 149.249C1213.57 140.992 1214.17 130.504 1213.57 124.099C1211.61 103.613 1188.49 97.3646 1173.74 96.6505C1165.63 96.2488 1157.56 97.7886 1150.13 101.024C1125.67 111.691 1124.77 127.089 1125.2 132.155C1125.31 133.249 1124.75 134.275 1123.84 134.9C1104.22 148.334 1098.91 164.446 1097.97 175.783C1097.13 185.802 1102.15 195.376 1111.09 199.951C1128.64 208.855 1151.84 203.298 1158.61 200.263C1159.9 199.683 1161.42 199.906 1162.44 200.888C1176.03 213.943 1199.71 207.248 1199.71 207.248C1209.26 205.641 1211.96 202.16 1212.61 199.638C1213.08 197.741 1212.07 195.666 1210.24 194.952ZM1187.46 119.39C1187.15 124.992 1169.79 161.01 1169.79 161.01C1161.98 176.965 1159.92 183.95 1159.68 187.008C1159.54 188.86 1158.29 190.444 1156.6 191.158C1115.65 208.408 1109.8 179.286 1109.8 179.286C1105.96 160.228 1125 147.665 1130.11 144.407C1131.42 143.558 1134.21 142.733 1136.62 142.108C1138.97 141.483 1140.57 139.385 1140.57 136.998V136.663C1140.48 135.302 1139.9 133.963 1138.83 133.092C1135.4 130.347 1137.07 126.063 1137.07 126.063C1145.91 107.965 1163.31 105.064 1166.08 104.707C1166.3 104.684 1166.51 104.662 1166.73 104.662C1190.94 104.193 1187.46 119.39 1187.46 119.39Z" fill="#ECECEC"/>
<path d="M1270.36 189.975C1269.2 191.225 1267.73 192.185 1266.08 192.653C1265.48 192.81 1264.85 192.921 1264.36 192.854C1261.95 192.52 1259.09 191.047 1259.99 185.735C1261.46 176.898 1285.29 117.159 1285.29 117.159C1285.29 117.159 1288.53 104.506 1294.71 106.269C1298.53 107.362 1302.34 107.094 1304.71 106.737C1306.09 106.536 1307.21 105.465 1307.43 104.059C1307.72 102.229 1306.38 100.533 1304.53 100.377L1296.27 99.6854C1294.93 99.5738 1294.04 98.2795 1294.42 97.0075C1297.03 88.2597 1306.8 68.4431 1310.73 60.6549C1311.69 58.758 1312.87 57.0174 1314.17 55.3214C1315.04 54.1833 1315.6 53.1344 1315.98 52.1972C1317.16 49.2068 1315.26 45.8818 1312.09 45.3462C1309.68 44.9222 1307.36 44.9891 1305.49 45.2346C1303.17 45.5247 1300.96 46.2835 1298.84 47.2207C1288.06 51.8847 1273.55 52.4203 1273.55 52.4203C1269.83 52.7104 1267.53 54.0048 1266.19 55.1875C1265.01 56.2363 1264.54 57.8877 1264.87 59.4275C1265.19 60.878 1266.57 61.8153 1268.04 61.5475L1272.26 60.7665C1276.7 60.2309 1263.94 88.5944 1260.37 96.3826C1259.81 97.5877 1258.62 98.3464 1257.31 98.3911L1250.3 98.5473C1248.16 98.5919 1246.4 100.266 1246.24 102.408C1246.06 104.818 1247.98 106.871 1250.39 106.871H1254.7C1255.66 106.871 1256.37 107.786 1256.13 108.723C1252.55 121.243 1226.49 175.448 1226.49 175.448C1217.07 194.282 1233.5 199.281 1233.5 199.281C1246.19 204.659 1257.84 203.276 1265.72 200.977C1268.62 200.129 1271.28 198.634 1273.51 196.581L1275.61 194.64C1276.99 193.368 1277.1 191.203 1275.85 189.797C1274.49 188.257 1272.13 188.235 1270.72 189.73L1270.43 190.042L1270.36 189.975Z" fill="#ECECEC"/>
<path d="M1479.33 190.824C1482.86 186.539 1493.32 175.917 1502.45 187.432C1503.65 188.949 1505.13 190.266 1506.84 191.181C1510.66 193.189 1516.84 197.496 1512.71 202.807C1510.79 205.262 1507.74 206.534 1504.61 206.534H1481.81C1481.81 206.534 1455.34 207.315 1476.23 193.613C1477.39 192.854 1478.44 191.917 1479.31 190.846L1479.33 190.824Z" fill="#ECECEC"/>
<path d="M1321.35 206.534C1321.35 206.534 1298.15 203.32 1306 178.683C1306 178.683 1318.72 139.764 1328.27 126.152C1330.08 123.563 1331.17 120.528 1331.35 117.382C1331.53 114.235 1330.64 111.022 1326.35 111.557L1324.46 111.758C1322.63 111.959 1320.98 110.62 1320.82 108.79L1320.75 107.964C1320.6 106.246 1321.8 104.684 1323.5 104.416L1365.99 99.0603C1365.99 99.0603 1381.7 96.2039 1374.56 111.2C1374.56 111.2 1360.27 148.423 1353.13 164.602C1351.82 167.57 1350.3 170.404 1348.65 173.194C1346.62 176.63 1343.11 183.995 1345.05 191.627C1345.48 193.278 1347.11 194.305 1348.78 194.126C1355.01 193.434 1367.39 191.091 1370.99 184.396C1370.99 184.396 1395.24 124.835 1399.91 109.616C1400.42 107.964 1400.17 106.179 1399.26 104.729L1398.12 102.921C1397.45 101.85 1397.34 100.511 1397.83 99.3281C1398.43 97.8552 1399.86 96.918 1401.45 96.918H1407.72C1410.95 96.918 1414.06 98.2123 1416.33 100.489L1438 100.801C1439.65 100.823 1441.17 101.649 1442.11 102.988C1443.18 104.528 1443.29 106.514 1442.46 108.187C1435.88 121.265 1410.37 180 1408.48 185.445C1408.48 185.445 1402.41 199.013 1420.62 191.872C1420.62 191.872 1435.05 184.82 1452.88 195.153C1453.93 195.755 1454.54 196.893 1454.54 198.098C1454.54 199.995 1453 201.513 1451.12 201.513C1447.82 201.513 1444.58 200.843 1441.55 199.593C1436.48 197.496 1425.32 195.376 1405.29 202.941C1405.29 202.941 1385.91 209.278 1376.72 202.941C1376.72 202.941 1369.27 198.121 1363.58 200.352C1363.58 200.352 1344.97 211.733 1321.38 206.489L1321.35 206.534Z" fill="#ECECEC"/>
<path d="M414.08 39.5884C416.222 38.5173 417.74 36.5758 417.985 34.2103C418.164 32.4027 418.543 30.2827 419.28 29.1669C420.753 26.9799 422.449 23.5433 418.543 22.8069C418.543 22.8069 415.955 22.1597 414.348 25.1947C413.054 27.6271 411.134 29.6578 408.546 30.6174C406.381 31.4208 403.48 32.1349 399.731 32.3358C395.446 32.5589 393.349 32.5366 391.028 32.4696C372.818 32.068 355.479 41.039 345.95 56.5485C345.236 57.7089 344.521 58.9363 343.83 60.2306C340.215 66.9923 339.411 75.0707 342.379 82.1225C344.633 87.5006 348.94 92.3209 357.152 91.763C359.362 91.6068 361.459 90.7141 363.155 89.2859C364.316 88.2817 366.436 87.3667 370.029 88.1478C371.234 88.4156 372.483 87.7684 372.863 86.5857C373.309 85.2691 372.528 83.8631 371.189 83.5061C369.114 82.9482 363.758 82.5019 360.433 83.5061C358.023 84.2425 355.456 83.7962 353.738 81.8324C347.646 74.8922 350.971 53.6028 371.122 44.5649C375.34 42.668 386.832 42.8689 390.403 42.6234C409.371 41.3291 411.157 41.0166 414.058 39.5884H414.08Z" fill="#ECECEC"/>
<path d="M462.773 187.074C459.694 186.829 457.351 184.307 457.15 181.228C456.77 175.448 456.86 171.431 456.212 169.936C452.352 160.942 437.422 123.229 425.238 91.8078C425.238 91.8078 421.801 83.1492 415.486 79.6456C414.794 79.2662 413.924 79.534 413.634 80.2705C401.672 110.999 385.159 155.006 385.159 155.006C363.624 211.466 345.793 221.909 339.723 225.659C338.451 226.44 338.853 226.127 335.729 227.712C321.491 234.875 305.469 220.08 315.466 206.221C316.805 204.369 330.373 194.416 332.27 193.122C344.745 184.553 371.68 161.344 415.62 55.8346C418.275 49.4745 420.328 42.8913 422.114 36.2412C423.051 32.7599 424.702 28.5422 427.603 25.351C429.768 22.9632 433.361 22.9409 435.481 25.3734C437.779 28.0066 439.699 33.1616 443.693 43.2484C443.693 43.2484 466.277 103.68 474.824 117.047C475.56 118.185 477.279 118.207 477.97 117.047C479.533 114.458 482.545 106.202 486.986 91.8078C486.986 91.8078 525.392 -8.30132 567.256 0.558086C571.385 1.42841 574.554 4.64189 575.178 8.79265C575.937 13.7468 574.531 20.5531 563.954 25.3734C563.954 25.3734 497.051 56.4148 471.61 165.227C471.61 165.272 470.205 175.269 469.29 181.875C468.843 185.066 466.009 187.342 462.796 187.074H462.751H462.773Z" fill="#ECECEC"/>
<path d="M402.654 302.827C392.344 298.074 369.604 294.57 357.42 315.234C353.916 321.17 353.425 328.222 356.126 334.114C357.487 337.104 359.875 340.362 364.048 342.683C347.779 349.913 322.429 364.218 313.212 385.998C307.834 398.718 308.548 412.197 315.354 426.1C319.505 434.558 326.49 441.141 335.015 444.622C340.549 446.876 348.404 449.241 357.152 449.241C367.261 449.241 378.531 446.073 388.662 435.919C397.298 427.238 402.052 415.745 401.672 404.386C401.159 389.368 391.831 380.598 376.076 380.308C365.699 379.348 345.57 382.963 342.491 403.516C341.866 407.756 342.424 411.818 344.097 415.254C347.913 422.976 355.322 425.252 363.959 421.391C366.212 420.387 367.217 417.731 366.212 415.5C365.208 413.246 362.553 412.242 360.321 413.246C354.854 415.701 353.225 413.536 352.109 411.304C350.993 409.05 351.06 406.551 351.328 404.833C352.421 397.558 356.46 392.894 363.691 390.573C369.582 388.698 375.34 389.189 375.384 389.189C375.518 389.189 375.63 389.189 375.764 389.189C387.011 389.368 392.411 394.277 392.768 404.654C393.081 413.558 389.287 422.663 382.369 429.603C367.908 444.109 350.502 441.275 338.429 436.343C331.913 433.687 326.579 428.644 323.411 422.15C317.787 410.68 317.14 399.678 321.469 389.457C333.363 361.361 378.932 346.298 380.829 345.696C382.949 345.026 384.288 342.839 383.909 340.63C383.53 338.443 381.566 336.747 379.312 336.859C371.434 337.059 366.369 334.917 364.293 330.365C362.82 327.129 363.133 323.157 365.164 319.742C376.277 300.885 398.079 310.504 398.994 310.905C401.226 311.932 403.882 310.95 404.908 308.718C405.935 306.487 404.953 303.831 402.721 302.805L402.654 302.827Z" fill="#ECECEC"/>
<path d="M466.835 391.421C468.531 391.086 470.472 390.863 472.057 390.819C469.267 399.232 459.069 420.967 449.25 440.226C448.201 442.301 448.915 444.845 450.901 446.05C452.887 447.278 455.476 446.765 456.837 444.868C467.192 430.63 498.323 393.497 517.648 392.492C521.375 392.291 524.231 393.474 526.708 396.219C527.846 397.469 528.494 399.142 528.561 400.928C528.694 405.123 527.69 413.425 519.835 421.726C518.898 422.641 510.686 430.943 511.333 439.78C511.623 443.73 513.631 447.166 517.157 449.733C518.764 450.893 521.419 452.053 524.477 452.053C527.355 452.053 530.614 451.027 533.738 448.014C535.523 446.296 535.568 443.484 533.849 441.699C532.131 439.936 529.319 439.869 527.534 441.587C525.057 443.975 523.115 443.015 522.401 442.502C520.616 441.208 520.304 440.025 520.237 439.133C519.947 435.138 524.477 429.693 526.195 427.997C536.416 417.241 537.643 406.261 537.487 400.682C537.375 396.799 535.902 393.095 533.336 390.261C529.096 385.574 523.517 383.298 517.179 383.611C505.441 384.235 490.534 393.831 472.86 412.175C482.813 390.238 481.853 387.315 481.429 385.998C481.005 384.704 480.113 383.678 478.93 383.075C474.757 380.977 467.281 382.249 465.094 382.696C462.684 383.187 461.122 385.53 461.591 387.94C462.059 390.35 464.425 391.912 466.835 391.443V391.421Z" fill="#ECECEC"/>
<path d="M1295.62 397.781C1296.43 398.674 1296.92 400.102 1296.96 401.731C1297.05 404.788 1292.41 414.83 1285.36 422.909C1284.56 423.757 1277.59 431.411 1278.2 439.49C1278.46 443.105 1280.18 446.251 1283.19 448.639C1284.96 450.023 1287.28 450.915 1289.78 450.915C1292.57 450.915 1295.56 449.799 1298.21 447.032C1299.91 445.247 1299.86 442.435 1298.08 440.717C1296.29 439.021 1293.48 439.066 1291.76 440.851C1291.34 441.297 1290.05 442.636 1288.71 441.61C1287.37 440.561 1287.14 439.579 1287.08 438.842C1286.81 435.294 1290.51 430.452 1291.97 428.912C1298.95 420.923 1306.07 408.47 1305.89 401.486C1305.78 397.714 1304.48 394.255 1302.25 391.778C1299.26 388.475 1295.27 386.869 1290.67 387.136C1278.82 387.806 1263.27 401.686 1250.59 415.522C1259.99 394.077 1260.66 389.881 1256.3 387.516C1252.64 385.53 1246.55 386.534 1244.1 387.069C1241.69 387.583 1240.17 389.971 1240.68 392.381C1241.2 394.791 1243.58 396.308 1245.99 395.795C1246.98 395.572 1248.09 395.416 1249.1 395.326C1246.26 403.806 1236.87 424.873 1227.85 443.618C1226.85 445.693 1227.61 448.215 1229.59 449.398C1231.58 450.581 1234.14 450.045 1235.48 448.17C1249.7 428.421 1277.39 396.799 1291.16 396.04C1293.06 395.907 1294.44 396.464 1295.62 397.781Z" fill="#ECECEC"/>
<path d="M854.239 446.988C856.18 448.215 858.769 447.769 860.153 445.939C874.256 427.528 901.705 398.071 915.295 397.424C915.764 397.379 916.076 397.603 916.255 397.781C916.433 397.937 916.701 398.294 916.701 398.852C916.723 405.012 913.51 415.991 906.547 427.952C902.932 433.196 900.701 436.879 900.544 437.146C899.317 439.199 899.92 441.855 901.906 443.172C903.892 444.488 906.57 443.997 907.976 442.078C910.386 438.753 912.528 435.473 914.38 432.282C924.199 418.178 940.579 398.339 953.054 396.978C954.951 396.777 956.78 397.424 958.253 398.785C959.838 400.258 960.708 402.334 960.619 404.476C960.418 409.586 958.298 415.924 948.524 430.295C947.006 432.527 945.89 434.803 945.243 437.057C943.569 442.837 944.931 446.43 946.381 448.438C948.39 451.228 951.648 452.701 956.089 452.879C956.156 452.879 956.2 452.879 956.267 452.879C958.655 452.879 960.641 450.982 960.73 448.594C960.82 446.14 958.9 444.064 956.446 443.975C954.616 443.908 953.812 443.484 953.656 443.239C953.433 442.949 953.21 441.788 953.857 439.579C954.236 438.24 954.951 436.812 955.955 435.339C965.573 421.168 969.277 412.911 969.59 404.833C969.768 400.102 967.871 395.527 964.39 392.269C961.043 389.145 956.58 387.65 952.139 388.118C944.15 388.989 935.089 394.635 925.092 404.945C925.494 402.624 925.672 400.571 925.65 398.83C925.65 395.996 924.467 393.251 922.414 391.31C920.383 389.368 917.705 388.408 914.894 388.52C903.289 389.078 887.981 401.887 875.461 414.719C884.633 394.345 883.696 391.466 883.25 390.149C882.826 388.855 881.933 387.806 880.75 387.203C876.577 385.106 869.101 386.378 866.914 386.824C864.504 387.315 862.942 389.658 863.411 392.068C863.902 394.478 866.245 396.041 868.655 395.572C870.373 395.237 872.337 395.014 873.922 394.969C871.266 403.048 861.626 423.668 852.677 441.208C851.628 443.261 852.32 445.783 854.261 447.01L854.239 446.988Z" fill="#ECECEC"/>
<path d="M425.796 438.329C423.654 438.708 421.601 438.686 419.927 438.463C445.858 392.18 444.653 388.207 443.983 386.043C443.582 384.704 442.689 383.633 441.484 383.03C437.311 380.932 429.835 382.204 427.648 382.651C425.238 383.142 423.676 385.485 424.145 387.895C424.636 390.305 426.979 391.867 429.389 391.399C430.996 391.086 432.825 390.863 434.365 390.818C431.42 398.383 422.025 416.615 410.086 437.771C409.327 439.11 409.171 440.627 409.595 442.1C410.019 443.551 411.023 444.778 412.362 445.492C414.482 446.63 418.209 447.545 422.449 447.545C424.033 447.545 425.707 447.411 427.403 447.121C429.835 446.675 431.442 444.376 431.018 441.944C430.572 439.512 428.251 437.883 425.841 438.329H425.796Z" fill="#ECECEC"/>
<path d="M1329.39 433.174C1348.36 400.526 1350.95 393.675 1349.81 389.903C1349.41 388.542 1348.49 387.449 1347.24 386.824C1343.16 384.793 1335.26 387.181 1329.32 389.546C1327.02 390.461 1325.93 393.05 1326.82 395.349C1327.74 397.647 1330.35 398.741 1332.62 397.848C1334.97 396.911 1337.58 396.085 1339.7 395.549C1337.13 401.374 1331.08 412.465 1321.65 428.688L1320.46 430.719C1318.32 434.424 1317.45 438.619 1318.05 442.502C1318.65 446.497 1320.73 449.465 1323.85 450.87C1325.22 451.495 1326.73 451.808 1328.41 451.808C1332.94 451.808 1338.67 449.509 1345.97 444.778C1348.04 443.439 1348.63 440.672 1347.29 438.597C1345.95 436.521 1343.18 435.941 1341.1 437.28C1330.66 444.042 1327.63 442.792 1327.51 442.747C1327.2 442.614 1326.96 441.81 1326.87 441.163C1326.58 439.266 1327.05 437.146 1328.18 435.205L1329.37 433.174H1329.39Z" fill="#ECECEC"/>
<path d="M600.953 436.321C598.923 434.937 596.155 435.45 594.749 437.481C588.055 447.233 581.114 447.211 575.178 445.917C568.171 444.377 562.503 438.999 560.405 431.88C560.182 431.121 559.981 430.385 559.803 429.671C572.076 427.283 596.468 417.732 606.175 408.939C608.741 406.618 609.165 402.758 607.179 399.946C604.256 395.817 597.851 388.654 587.854 387.047C580.021 385.798 571.831 388.297 563.529 394.456C550.742 403.963 546.815 417.397 551.881 434.446C554.916 444.667 563.105 452.41 573.282 454.664C575.692 455.2 577.99 455.468 580.199 455.468C588.992 455.468 596.222 451.205 602.136 442.569C603.52 440.538 603.006 437.749 600.976 436.365L600.953 436.321ZM568.841 401.597C574.174 397.647 579.218 395.639 583.926 395.639C584.774 395.639 585.622 395.706 586.448 395.84C592.25 396.777 596.468 400.816 598.722 403.539C588.836 411.305 567.256 418.803 558.665 420.856C558.665 410.59 564.177 405.056 568.841 401.597Z" fill="#ECECEC"/>
<path d="M578.615 588.024C576.897 585.614 571.965 579.834 562.994 578.406C554.603 577.067 545.454 580.013 535.813 587.176C524.388 595.678 520.036 607.327 522.848 621.877C522.848 621.944 522.87 622.033 522.892 622.1C523.227 623.752 523.629 625.448 524.142 627.166C525.883 633.013 531.06 641.203 539.986 644.952C543.334 646.358 546.882 647.072 550.631 647.072C556.612 647.072 563.061 645.264 569.912 641.671C572.099 640.533 572.925 637.833 571.786 635.646C570.648 633.459 567.948 632.611 565.761 633.772C557.08 638.324 549.582 639.328 543.445 636.74C536.974 634.017 533.649 627.836 532.689 624.644C532.689 624.6 532.667 624.555 532.644 624.511C536.148 623.216 541.593 620.761 550.229 616.209C556.344 612.973 571.407 604.716 579.24 597.62C581.739 595.344 581.583 592.219 578.749 588.336L578.548 588.069L578.615 588.024ZM531.038 615.562C530.324 604.025 536.193 598.022 541.169 594.339C547.73 589.475 553.733 587.02 559.044 587.02C559.914 587.02 560.785 587.087 561.61 587.221C566.899 588.069 569.979 591.416 571.095 592.844C560.673 601.146 539.942 611.835 531.038 615.562Z" fill="#ECECEC"/>
<path d="M1428.81 401.597C1426.28 394.679 1418.72 388.698 1409.95 386.712C1403.32 385.217 1390.13 384.771 1376.23 398.518C1369.18 405.48 1358.51 416.035 1365.05 438.084C1365.09 438.195 1365.12 438.329 1365.16 438.441C1365.36 438.954 1370.27 451.228 1382.72 455.713C1385.71 456.784 1388.84 457.32 1392.1 457.32C1398.46 457.32 1405.33 455.289 1412.63 451.205C1414.77 450 1415.55 447.278 1414.35 445.135C1413.14 442.993 1410.44 442.212 1408.28 443.417C1399.62 448.237 1392.07 449.554 1385.83 447.345C1377.77 444.488 1374.02 436.432 1373.53 435.316C1373.51 435.227 1373.49 435.16 1373.46 435.071C1387.48 431.567 1416.8 418.022 1425.59 410.055C1428.61 407.332 1429.77 404.23 1428.81 401.575V401.597ZM1372.32 429.871C1372.44 430.184 1372.53 430.518 1372.57 430.876C1372.53 430.518 1372.46 430.184 1372.32 429.871ZM1419.61 403.472C1410.28 411.929 1382.37 423.244 1371.99 426.345C1371.59 415.678 1377.32 410.01 1382.52 404.878C1390.42 397.089 1397.65 394.902 1403.28 394.902C1405.02 394.902 1406.6 395.103 1408.01 395.438C1413.68 396.71 1417.96 400.147 1419.79 403.315C1419.72 403.382 1419.68 403.427 1419.61 403.472Z" fill="#ECECEC"/>
<path d="M751.519 418.758C759.151 408.693 760.936 397.87 761.672 388.609C762.677 376.001 754.42 364.329 742.012 360.848L741.722 360.759C737.839 359.665 734.469 358.728 730.564 357.166C730.028 356.943 729.471 356.742 728.935 356.541C726.793 355.738 724.918 355.024 724.07 353.796C722.977 352.212 722.441 346.588 723.177 344.401C723.936 342.17 725.565 339.96 728.02 337.84C732.55 333.913 738.151 331.793 743.418 331.994C748.908 332.217 754.04 335.14 756.495 339.447C757.12 340.541 757.053 341.991 756.897 342.995C756.517 345.294 757.99 347.503 760.244 348.061C762.52 348.597 764.819 347.325 765.533 345.115C766.671 341.656 767.832 338.086 769.661 335.163C771.447 332.328 773.723 330.409 776.111 329.74C778.476 329.07 779.86 326.616 779.19 324.228C778.521 321.862 776.066 320.479 773.678 321.148C769.171 322.42 765.042 325.701 762.096 330.409C761.918 330.699 761.717 331.012 761.561 331.302C757.232 326.415 750.738 323.357 743.775 323.067C736.255 322.755 728.399 325.678 722.173 331.079C718.491 334.27 715.992 337.774 714.72 341.523C713.225 345.941 713.782 354.667 716.728 358.884C719.161 362.388 722.82 363.749 725.766 364.865C726.257 365.044 726.748 365.244 727.217 365.423C731.568 367.164 735.317 368.212 739.29 369.328L739.58 369.417C747.881 371.738 753.416 379.504 752.746 387.873C751.831 399.187 749.332 406.797 744.378 413.335C736.076 424.27 721.414 432.326 706.061 434.357C693.542 436.03 684.861 434.067 680.264 428.532C675.131 422.373 672.811 413.491 674.462 406.417C675.087 403.739 678.724 397.469 680.643 395.75C692.538 385.083 702.825 383.967 711.238 392.425C713.961 395.17 714.14 398.808 713.403 401.285C712.979 402.668 711.551 406.016 707.445 406.864C707.11 406.93 706.798 406.975 706.441 407.02C703.986 407.288 702.223 409.497 702.491 411.952C702.758 414.406 704.968 416.147 707.422 415.901C708.047 415.835 708.65 415.745 709.252 415.611C715.367 414.339 720.12 409.943 721.95 403.851C723.847 397.535 722.173 390.751 717.576 386.11C711.975 380.464 696.577 369.44 674.685 389.078C671.405 392.023 666.83 399.879 665.759 404.364C663.46 414.161 666.45 425.877 673.391 434.223C678.702 440.605 686.981 443.819 698.072 443.819C700.929 443.819 703.986 443.595 707.222 443.171C724.829 440.828 741.789 431.456 751.474 418.691L751.519 418.758Z" fill="#ECECEC"/>
<path d="M853.859 390.863C853.279 388.475 850.847 387.002 848.459 387.605C847.633 387.806 828.107 392.916 813.155 423.913C811.95 426.434 810.589 429.001 809.161 431.589C806.46 414.004 795.905 392.47 795.771 392.202C794.566 389.926 792.647 388.408 790.214 387.783C785.059 386.467 779.48 389.859 778.409 390.573C776.356 391.912 775.776 394.657 777.115 396.732C778.454 398.785 781.221 399.388 783.274 398.071C784.881 397.044 787.269 396.219 787.894 396.419C791.754 403.65 802.89 431.277 800.547 442.613C799.476 447.88 797.445 451.741 794.187 454.731C790.103 458.502 784.435 460.555 778.208 460.444C745.359 459.975 741.945 463.122 740.294 464.639C735.072 469.459 735.05 475.529 735.853 478.341C736.411 480.305 738.196 481.577 740.138 481.577C740.539 481.577 740.963 481.51 741.365 481.398C743.73 480.729 745.114 478.252 744.422 475.886C744.422 475.864 743.887 473.566 746.207 471.312C747.993 470.419 756.54 469.013 778.075 469.348C786.577 469.459 794.454 466.603 800.234 461.269C802.778 458.926 804.787 456.204 806.349 453.057L807.465 451.384C813.066 443.037 817.551 435.316 821.167 427.773C834.043 401.039 850.244 396.33 850.579 396.241C852.944 395.638 854.395 393.228 853.815 390.841L853.859 390.863Z" fill="#ECECEC"/>
<path d="M1047.74 390.506C1044.59 387.292 1039.84 385.552 1034.6 385.708C1030.38 385.842 1026.49 387.091 1022.86 388.386L1021.43 388.877C1017.64 390.216 1013.31 391.756 1009.38 393.876C1009.83 392.581 1009.69 391.108 1008.87 389.881C1007.48 387.85 1004.71 387.315 1002.66 388.698C1000.54 390.149 995.766 388.832 993.914 388.006C991.682 387.002 989.027 388.006 988.022 390.238C986.996 392.492 988.022 395.125 990.254 396.152C990.879 396.442 994.405 397.937 998.578 398.227C998.89 399.031 999.136 401.262 997.618 405.279C995.543 408.582 993.445 412.621 991.214 417.597L980.591 441.208C980.078 442.368 979.386 444.019 978.65 445.827C977.266 449.197 975.57 453.37 974.454 455.267C973.606 456.695 972.892 457.967 972.223 459.172C970.371 462.497 969.032 464.907 966.264 468.031C962.939 471.825 958.476 476.534 953.5 479.212C951.335 480.394 950.532 483.094 951.714 485.259C952.518 486.754 954.058 487.602 955.642 487.602C956.356 487.602 957.093 487.424 957.762 487.067C963.966 483.697 969.143 478.274 972.959 473.923C976.329 470.084 978.025 467.049 979.989 463.523C980.636 462.385 981.305 461.158 982.109 459.797C983.559 457.342 985.345 453.013 986.907 449.174C987.598 447.478 988.223 445.916 988.714 444.845L999.337 421.235C1002.57 414.027 1005.5 408.939 1008.26 405.681C1011.61 401.753 1019 399.164 1024.38 397.268L1025.83 396.754C1028.91 395.661 1031.92 394.679 1034.86 394.59C1037.56 394.5 1039.95 395.304 1041.34 396.71C1042.74 398.16 1043.43 400.637 1043.1 403.181C1042.79 405.636 1041.65 408.269 1039.62 411.215C1038.63 412.643 1037.56 414.049 1036.51 415.433C1033.93 418.847 1031.23 422.373 1029.44 426.658C1027.01 432.437 1026.85 438.016 1028.97 442.323C1030.69 445.805 1033.75 448.192 1037.85 449.264C1040.24 449.911 1042.67 448.46 1043.3 446.072C1043.92 443.685 1042.5 441.252 1040.11 440.627C1038.03 440.092 1037.34 439.065 1036.98 438.373C1036.05 436.477 1036.29 433.375 1037.68 430.117C1039.04 426.881 1041.27 423.935 1043.63 420.833C1044.77 419.316 1045.93 417.82 1046.98 416.258C1049.82 412.108 1051.44 408.202 1051.94 404.319C1052.6 399.053 1051.02 393.876 1047.72 390.484L1047.74 390.506Z" fill="#ECECEC"/>
<path d="M1125.29 452.655C1127.74 452.343 1129.46 450.111 1129.17 447.679C1128.86 445.224 1126.6 443.484 1124.19 443.796C1121.85 444.086 1120.58 443.751 1120.22 443.372C1119.82 442.97 1119.51 441.609 1119.91 439.177C1119.91 439.087 1120.4 436.677 1126.07 426.412C1129.55 420.119 1131.98 414.205 1133.48 408.358C1135 402.422 1133.99 396.977 1130.6 393.05C1127.21 389.1 1121.94 387.248 1115.76 387.872C1103.42 389.1 1092.24 396.553 1082.98 405.614C1084.99 401.061 1086.82 396.263 1088.42 391.287C1092.01 380.24 1101.9 353.394 1116.38 342.638C1118.37 341.165 1118.77 338.376 1117.3 336.39C1115.83 334.404 1113.04 334.002 1111.05 335.475C1095.12 347.324 1084.72 373.791 1079.92 388.52C1078.22 393.742 1076.28 398.763 1074.12 403.471L1056.02 443.06C1055.01 445.269 1055.95 447.902 1058.16 448.951C1060.35 450 1063 449.085 1064.08 446.898C1064.32 446.429 1087.8 399.611 1116.61 396.732C1119.8 396.419 1122.34 397.156 1123.77 398.852C1125.2 400.503 1125.56 403.092 1124.77 406.127C1123.46 411.237 1121.32 416.459 1118.19 422.083C1111.67 433.888 1111.21 436.655 1111.03 437.704C1109.98 444.086 1111.92 447.657 1113.73 449.531C1115.83 451.718 1118.77 452.812 1122.5 452.812C1123.37 452.812 1124.28 452.745 1125.24 452.633L1125.29 452.655Z" fill="#ECECEC"/>
<path d="M1164.68 450.446C1167.84 452.209 1171.57 453.124 1175.54 453.124C1175.94 453.124 1176.35 453.124 1176.75 453.102C1184.76 452.745 1199.87 449.152 1211.07 429.269C1216.52 419.807 1222.38 399.12 1205.71 388.52C1202.26 386.333 1198.1 385.44 1194.02 386.043C1187.42 387.002 1174.61 390.595 1163.22 403.94C1156.64 411.639 1153.23 421.034 1153.61 430.362C1153.99 439.668 1157.8 446.63 1164.68 450.446ZM1170.01 409.742C1179.49 398.607 1189.94 395.661 1195.29 394.88C1197.28 394.59 1199.29 395.014 1200.92 396.062C1214.55 404.721 1203.77 424.024 1203.3 424.872C1194.18 441.051 1182.48 443.93 1176.32 444.22C1173.56 444.354 1171.04 443.818 1169 442.68C1164.88 440.382 1162.76 436.231 1162.51 430.027C1162.22 422.953 1164.88 415.745 1170.01 409.764V409.742Z" fill="#ECECEC"/>
<path d="M518.608 547.498C516.711 546.382 514.078 546.873 512.694 548.569C511.601 549.908 508.142 550.109 506.513 549.931C504.08 549.64 501.848 551.359 501.558 553.813C501.246 556.268 502.987 558.5 505.441 558.79C505.776 558.835 507.07 558.968 508.766 558.901C504.593 569.613 500.443 580.235 496.604 589.898C488.571 578.919 476.832 577.245 471.209 578.115C447.799 580.526 434.41 593.022 431.42 615.271C430.594 621.341 431.576 627.166 434.209 632.098C438.806 640.734 446.951 645.197 457.73 645.197C461.546 645.197 465.674 644.639 470.093 643.501C474.601 642.341 478.372 640.868 480.76 639.819C480.894 639.752 481.005 639.707 481.139 639.663C483.282 643.077 486.941 647.429 492.387 649.147C493.636 649.549 495.176 649.839 496.939 649.839C499.952 649.839 503.656 648.968 507.785 646.201C509.838 644.84 510.395 642.073 509.012 640.02C507.628 637.967 504.883 637.409 502.83 638.792C499.907 640.756 497.363 641.359 495.087 640.645C491.918 639.663 489.441 636.293 488.08 633.883C490.49 629.286 494.462 619.467 502.897 598.311C510.44 579.343 518.362 558.968 520.616 553.166C521.442 551.046 520.616 548.681 518.652 547.52L518.608 547.498ZM479.823 630.379C476.632 632.12 462.439 638.368 451.727 635.579C447.353 634.441 444.207 631.941 442.064 627.925C440.324 624.644 439.699 620.672 440.257 616.477C441.796 605.073 446.751 589.608 472.302 586.997C472.816 586.908 485.357 585.39 492.029 599.65C492.141 599.896 492.275 600.119 492.431 600.342C486.205 615.874 481.407 627.434 479.823 630.402V630.379Z" fill="#ECECEC"/>
<path d="M636.279 604.694C628.022 602.284 626.683 599.495 626.483 598.713C626.036 597.017 627.621 594.875 628.179 594.295C628.29 594.183 628.402 594.072 628.491 593.938C634.896 585.993 648.999 590.59 649.289 590.68C651.633 591.483 654.154 590.233 654.958 587.913C655.761 585.592 654.511 583.048 652.191 582.244C651.365 581.954 632.084 575.527 621.685 588.18C620.591 589.341 616.195 594.518 617.846 600.923C619.275 606.457 624.697 610.63 633.958 613.33C634.07 613.353 634.182 613.397 634.293 613.42C634.405 613.442 646.299 616.031 647.482 624.533C647.884 627.389 646.679 630.536 644.268 632.924C638.734 638.413 626.282 646.224 605.015 637.097C602.739 636.115 600.128 637.164 599.146 639.44C598.164 641.694 599.213 644.327 601.489 645.309C609.857 648.902 617.177 650.308 623.492 650.308C636.837 650.308 645.697 644.082 650.539 639.284C654.935 634.932 657.1 628.952 656.319 623.328C654.355 609.247 638.422 605.23 636.279 604.761V604.694Z" fill="#ECECEC"/>
<path d="M1331.6 595.12C1330.82 594.563 1312.12 581.843 1298.01 589.787C1297.9 589.854 1297.79 589.921 1297.68 589.988C1296.83 590.568 1289.53 595.812 1290.29 603.601C1290.85 609.358 1295.63 614.245 1304.69 618.195C1305.13 618.374 1315.53 622.569 1315.15 631.585C1314.64 633.147 1312.25 639.239 1305.73 641.828C1298.15 644.84 1287.12 642.185 1273.82 634.129C1271.7 632.857 1268.98 633.526 1267.69 635.624C1266.39 637.721 1267.08 640.466 1269.18 641.761C1280.43 648.567 1290.36 651.981 1298.91 651.981C1302.59 651.981 1306.02 651.334 1309.17 650.062C1320.66 645.398 1323.77 633.995 1323.88 633.504C1323.94 633.258 1323.99 632.991 1324.01 632.723C1325.28 616.722 1308.59 610.139 1308.08 609.938C1302.72 607.617 1299.4 604.939 1299.17 602.775C1298.97 600.811 1301.32 598.423 1302.59 597.464C1310.26 593.335 1322.45 599.651 1326.51 602.462C1328.54 603.868 1331.31 603.355 1332.71 601.347C1334.12 599.316 1333.61 596.549 1331.6 595.143V595.12Z" fill="#ECECEC"/>
<path d="M847.12 607.796C847.12 607.662 847.098 607.55 847.075 607.416C847.053 607.238 846.986 607.059 846.941 606.903C846.919 606.814 846.897 606.747 846.874 606.658C846.874 606.635 846.852 606.613 846.852 606.591C846.785 606.412 846.674 606.233 846.584 606.055C846.54 605.988 846.517 605.899 846.45 605.832C846.316 605.631 846.16 605.43 846.004 605.252C845.87 605.118 845.736 604.984 845.602 604.872C845.491 604.783 845.402 604.694 845.29 604.604C845.089 604.471 844.866 604.337 844.665 604.225C844.643 604.225 844.598 604.18 844.576 604.18C844.375 604.091 844.152 604.024 843.951 603.957C843.884 603.957 843.839 603.913 843.772 603.89C843.616 603.846 843.46 603.846 843.282 603.823C843.17 603.823 843.036 603.779 842.924 603.779C842.791 603.779 842.657 603.779 842.523 603.779C842.367 603.779 842.233 603.779 842.076 603.801C841.965 603.801 841.853 603.846 841.742 603.868C841.563 603.913 841.407 603.957 841.228 604.002C841.184 604.002 841.161 604.002 841.117 604.024C830.294 608.13 826.277 606.39 826.232 606.367C826.433 606.457 826.522 606.546 826.522 606.546L821.59 613.977C822.461 614.557 824.715 615.695 829.044 615.695C830.093 615.695 831.253 615.629 832.548 615.45C808.112 647.63 777.539 637.387 774.66 636.315C753.706 625.559 759.753 600.119 768.523 580.66C770.264 576.777 772.094 573.161 773.968 569.792C777.896 569.189 781.957 568.944 786.108 569.033C795.905 569.211 828.865 568.81 841.876 555.063C848.012 548.569 847.923 538.058 841.652 531.141C831.097 519.469 815.744 520.674 793.316 534.89C783.832 540.915 775.575 549.752 768.322 561.736C764.573 562.517 760.914 563.588 757.388 564.949C720.879 578.897 717.13 594.875 716.817 596.66C716.393 599.092 718 601.458 720.433 601.882C722.865 602.306 725.163 600.744 725.587 598.311C725.61 598.177 729.002 585.346 760.579 573.273C761.204 573.027 761.828 572.804 762.453 572.603C761.762 574.032 761.07 575.482 760.4 576.977C745.694 609.603 749.399 633.548 770.844 644.371C770.956 644.438 771.09 644.483 771.224 644.528C771.581 644.661 800.614 655.686 827.393 633.749C812.062 667.379 786.8 710.984 763.145 710.984C751.853 710.984 745.292 704.066 744.868 697.572C744.377 690.342 751.273 684.897 762.81 683.357C765.064 683.045 767.765 683.022 771.357 683.268C773.812 683.469 775.954 681.572 776.111 679.117C776.267 676.662 774.415 674.542 771.96 674.364C767.765 674.074 764.484 674.141 761.65 674.52C741.722 677.176 735.362 688.914 735.987 698.175C736.678 708.73 746.453 719.933 763.19 719.933C806.907 719.933 845.379 614.2 846.986 609.692C847.008 609.603 847.031 609.536 847.053 609.447C847.098 609.313 847.12 609.179 847.164 609.045C847.187 608.889 847.209 608.755 847.231 608.599C847.231 608.465 847.254 608.331 847.254 608.197C847.254 608.041 847.254 607.885 847.231 607.729L847.12 607.796ZM798.092 542.499C810.499 534.644 818.689 532.212 824.224 532.212C830.517 532.212 833.373 535.358 835.025 537.188C838.171 540.669 838.327 545.847 835.382 548.993C827.571 557.25 805.121 560.598 786.287 560.174C784.167 560.129 782.069 560.174 779.994 560.285C785.461 552.608 791.464 546.717 798.092 542.499Z" fill="#ECECEC"/>
<path d="M946.671 607.059C941.293 608.934 937.209 609.157 935.759 607.662C933.192 605.006 934.799 595.968 937.589 588.783C938.213 587.153 937.789 585.1 936.584 583.851C935.312 582.534 933.371 582.088 931.63 582.69C912.684 589.497 906.636 613.91 904.695 630.245C903.378 629.241 901.905 628.393 900.299 627.746C891.439 624.198 880.17 627.367 871.043 631.45C888.003 604.114 892.265 592.621 892.466 592.063C893.18 590.099 892.444 587.89 890.658 586.774C881.464 580.927 867.606 589.34 866.066 590.322C863.991 591.639 863.366 594.406 864.683 596.482C865.999 598.557 868.744 599.182 870.842 597.865C873.185 596.392 878.117 594.027 882.022 593.67C878.697 600.699 870.752 615.963 853.926 641.649C852.744 643.434 853.011 645.822 854.551 647.295C856.091 648.768 858.479 648.969 860.219 647.741C866.892 643.055 886.485 631.83 896.951 636.003C900.544 637.431 902.798 640.779 903.892 646.201C904.316 648.299 906.168 649.794 908.266 649.794C908.422 649.794 908.578 649.794 908.756 649.772C911.055 649.526 912.773 647.563 912.729 645.242C912.729 644.84 912.26 611.701 926.029 596.883C925.025 602.931 925.226 609.581 929.309 613.821C933.482 618.15 940.289 618.686 949.572 615.45C951.893 614.647 953.12 612.103 952.317 609.759C951.514 607.439 948.97 606.189 946.627 607.015L946.671 607.059Z" fill="#ECECEC"/>
<path d="M1033.97 585.569C1029.08 582.646 1021.85 581.262 1012.5 581.262C1010.12 581.084 993.178 580.102 984.05 589.899C979.967 594.273 978.07 599.941 978.404 606.814C972.826 608.354 963.676 612.46 960.797 622.993C959.57 627.501 960.195 632.41 962.56 637.253C966.019 644.238 973.584 650.62 985.01 650.62C989.429 650.62 994.427 649.683 999.984 647.451C1002.97 646.246 1005.81 644.617 1008.42 642.586C1009.74 644.461 1011.61 646.358 1014.18 647.541C1015.56 648.188 1017.39 648.723 1019.62 648.723C1021.85 648.723 1024.49 648.188 1027.52 646.715C1029.73 645.621 1030.65 642.944 1029.57 640.734C1028.48 638.525 1025.83 637.61 1023.59 638.681C1021.25 639.842 1019.35 640.087 1017.93 639.44C1016.61 638.837 1015.63 637.476 1014.98 636.249C1015.56 635.557 1016.12 634.843 1016.65 634.106C1018.33 631.83 1020.02 629.576 1021.74 627.322C1027.88 619.266 1034.19 610.943 1038.68 600.833C1041.18 595.232 1039.13 588.649 1033.93 585.569H1033.97ZM1030.58 597.218C1026.52 606.368 1020.78 613.933 1014.69 621.922C1012.93 624.22 1011.19 626.519 1009.49 628.862C1006.01 633.638 1001.57 637.208 996.681 639.172C978.695 646.38 972.156 636.517 970.594 633.325C969.612 631.339 968.63 628.349 969.434 625.381C971.933 616.187 983.247 614.892 983.738 614.848C984.965 614.714 986.081 614.111 986.84 613.129C987.599 612.148 987.911 610.898 987.71 609.671C986.706 603.668 987.643 599.204 990.589 596.036C996.079 590.122 1007.86 589.809 1011.95 590.189C1012.1 590.189 1012.26 590.189 1012.41 590.189C1022.14 590.099 1027.03 591.795 1029.44 593.246C1030.74 594.027 1031.25 595.768 1030.6 597.218H1030.58Z" fill="#ECECEC"/>
<path d="M1108.73 586.573C1106.39 585.837 1103.89 587.176 1103.15 589.541C1095.79 613.754 1085.27 628.795 1085.12 629.018C1076.3 641.961 1066.02 638.279 1064.05 637.409C1060.97 636.048 1058.9 633.147 1058.5 629.621C1056.64 613.129 1073.94 595.076 1074.12 594.875C1075.84 593.112 1075.79 590.278 1074.03 588.559C1072.26 586.841 1069.43 586.886 1067.71 588.649C1066.89 589.497 1047.32 609.916 1049.64 630.603C1050.37 637.23 1054.52 642.966 1060.46 645.577C1063.16 646.782 1066.37 647.518 1069.81 647.518C1074.61 647.518 1079.83 646.045 1084.74 642.363C1085.41 643.412 1086.26 644.438 1087.37 645.398C1090.41 648.009 1094.49 649.326 1099.53 649.326C1101.65 649.326 1103.95 649.102 1106.41 648.634C1108.82 648.165 1110.42 645.844 1109.96 643.412C1109.49 641.002 1107.17 639.395 1104.73 639.864C1099.38 640.89 1095.41 640.466 1093.26 638.681C1092.13 637.721 1091.63 636.472 1091.43 635.534C1091.79 635.066 1092.13 634.597 1092.48 634.084C1092.95 633.437 1103.89 617.816 1111.72 592.108C1112.43 589.742 1111.12 587.265 1108.75 586.529L1108.73 586.573Z" fill="#ECECEC"/>
<path d="M1165.79 587.02C1162.31 586.306 1158.61 586.35 1154.72 587.154C1146.18 588.917 1126.09 595.299 1121.63 616.343C1121.45 616.811 1121.34 617.302 1121.34 617.86C1121.34 618.061 1121.27 618.374 1121.2 618.753C1120.58 622.77 1118.88 633.459 1126.47 640.712C1130.87 644.907 1137.27 647.005 1145.86 647.005C1150.46 647.005 1155.68 646.402 1161.55 645.22C1163.96 644.729 1165.52 642.385 1165.03 639.953C1164.54 637.543 1162.2 635.958 1159.77 636.472C1146.35 639.172 1136.96 638.413 1132.63 634.262C1129.15 630.937 1129.33 625.537 1129.75 622.056L1177.73 615.986C1179.58 615.74 1181.1 614.379 1181.52 612.571C1181.61 612.192 1183.69 602.976 1178.87 595.455C1176.08 591.081 1171.68 588.247 1165.79 587.042V587.02ZM1132.09 612.75C1137.2 601.57 1149.17 597.419 1156.53 595.901C1157.98 595.611 1159.39 595.455 1160.73 595.455C1161.86 595.455 1162.96 595.567 1164.01 595.768C1167.46 596.482 1169.85 597.932 1171.35 600.208C1172.89 602.574 1173.18 605.43 1173.13 607.55L1132.12 612.75H1132.09Z" fill="#ECECEC"/>
<path d="M1244.66 589.675C1232.9 593.982 1216.11 608.666 1203.06 621.386L1216.94 592.934C1217.74 591.282 1217.45 589.318 1216.23 587.979C1215 586.618 1213.06 586.172 1211.36 586.819L1202.39 590.211C1200.09 591.081 1198.91 593.648 1199.78 595.968C1200.47 597.821 1202.34 598.914 1204.13 598.847L1182.62 642.943C1181.64 644.952 1182.28 647.362 1184.13 648.612C1185.99 649.861 1188.46 649.549 1189.96 647.875C1190.34 647.451 1228.3 605.185 1247.71 598.088C1250.1 597.218 1252.76 598.133 1253.78 600.186C1255.7 604.047 1253.47 610.228 1247.45 617.593C1244.1 621.699 1241.58 625.626 1239.72 629.621C1235.86 637.945 1235.46 643.479 1238.41 647.005C1239.99 648.902 1242.25 649.861 1245.12 649.861C1246.49 649.861 1248 649.638 1249.63 649.214C1252.02 648.589 1253.45 646.157 1252.82 643.769C1252.2 641.381 1249.79 639.953 1247.38 640.578C1246.46 640.823 1245.82 640.913 1245.39 640.935C1245.44 639.931 1245.82 637.677 1247.8 633.37C1249.34 630.067 1251.48 626.742 1254.34 623.238C1262.95 612.705 1265.43 603.601 1261.75 596.214C1258.67 590.077 1251.33 587.265 1244.63 589.72L1244.66 589.675Z" fill="#ECECEC"/>
<path d="M1356.21 636.963C1353.53 636.963 1351.35 639.663 1351.35 642.966C1351.35 646.269 1353.51 648.969 1356.21 648.969C1358.91 648.969 1361.08 646.269 1361.08 642.966C1361.08 639.663 1358.91 636.963 1356.21 636.963Z" fill="#ECECEC"/>
<path d="M1355.16 357.456C1355.12 355.023 1353.11 353.082 1350.7 353.082C1350.66 353.082 1350.63 353.082 1350.59 353.082C1348.13 353.127 1346.17 355.18 1346.24 357.634C1346.3 360.536 1346.17 363.771 1345.95 365.11C1345.17 366.226 1344.9 367.699 1345.37 369.083C1345.99 370.957 1347.73 372.14 1349.61 372.14C1350.08 372.14 1350.54 372.073 1351.04 371.917C1354.05 370.912 1355.43 368.48 1355.19 357.456H1355.16Z" fill="#ECECEC"/>
<path d="M445.635 365.043C446.059 365.155 446.46 365.222 446.884 365.222C448.826 365.222 450.611 363.95 451.169 361.986C452.285 358.126 451.303 354.912 451.102 354.31C450.321 352.011 447.844 350.828 445.545 351.565C443.247 352.301 441.952 354.8 442.644 357.121C442.644 357.121 442.957 358.237 442.6 359.487C441.908 361.852 443.269 364.329 445.635 365.021V365.043Z" fill="#ECECEC"/>
</g>
<defs>
<clipPath id="clip0_687_2536">
<rect width="1204.48" height="720" fill="white" transform="translate(309.619)"/>
</clipPath>
</defs>
</svg>
