<svg width="1825" height="720" viewBox="0 0 1825 720" fill="none" xmlns="http://www.w3.org/2000/svg">
<g clip-path="url(#clip0_855_4473)">
<path d="M71.1467 397.913L66.812 384.796H36.0306L31.6959 397.913H0L34.7778 317.42H67.6138L102.504 397.913H71.1467ZM51.3023 339.77L42.0691 367.019H60.7609L51.3023 339.77Z" fill="#ECECEC"/>
<path d="M242.718 387.54C232.345 398.026 215.582 400.644 201.563 400.644C186.405 400.644 177.735 397.8 171.697 394.944C163.716 391.185 148.319 381.263 148.319 357.66C148.319 353.438 148.896 343.065 155.611 333.381C162.676 323.233 175.681 314 202.465 314C217.061 314 227.446 316.531 234.738 320.414C240.037 323.233 244.409 327.58 247.441 332.767C248.381 334.371 248.932 335.648 249.283 336.763L223.675 344.105C222.874 342.514 222.423 341.599 221.283 340.108C216.948 334.521 209.769 332.241 203.042 332.354C200.311 332.354 191.19 332.93 184.801 339.645C180.354 344.431 178.524 351.158 178.524 357.547C178.524 366.104 181.606 371.228 183.774 373.959C190.05 382.165 198.594 382.391 202.24 382.391C212.951 382.391 219.341 377.029 221.846 373.721C222.761 372.468 223.325 371.554 224.352 368.935L250.761 375.513C249.847 378.482 248.744 381.363 242.706 387.514L242.718 387.54Z" fill="#ECECEC"/>
<path d="M550.519 388.066C540.146 398.552 523.383 401.17 509.365 401.17C494.206 401.17 485.536 398.326 479.498 395.47C471.517 391.711 456.12 381.789 456.12 358.186C456.12 353.964 456.697 343.591 463.412 333.907C470.478 323.759 483.482 314.526 510.267 314.526C524.862 314.526 535.248 317.057 542.539 320.94C547.838 323.759 552.211 328.107 555.242 333.293C556.182 334.897 556.733 336.175 557.084 337.29L531.477 344.631C530.675 343.04 530.224 342.125 529.084 340.635C524.749 335.047 517.57 332.767 510.843 332.88C508.112 332.88 498.991 333.456 492.602 340.171C488.155 344.957 486.326 351.684 486.326 358.074C486.326 366.63 489.407 371.754 491.575 374.485C497.851 382.691 506.395 382.917 510.041 382.917C520.753 382.917 527.142 377.555 529.647 374.247C530.562 372.994 531.126 372.08 532.153 369.462L558.562 376.039C557.648 379.008 556.545 381.889 550.507 388.041L550.519 388.066Z" fill="#ECECEC"/>
<path d="M263.59 397.913V317.42H292.542V378.306H333.697V397.913H263.577H263.59Z" fill="#ECECEC"/>
<path d="M427.87 391.749C423.648 394.605 419.551 396.535 414.753 397.9C410.08 399.266 403.014 400.631 391.614 400.631C374.513 400.631 364.14 396.873 357.638 392.989C355.47 391.737 351.486 389.118 347.49 384.32C338.933 373.947 338.595 363.461 338.595 358.324C338.595 338.029 349.432 327.881 356.034 323.434C362.874 318.761 372.684 314.652 390.699 314.426C394.345 314.426 397.878 314.426 401.536 314.764C422.859 316.481 432.781 324.912 438.356 332.892C440.974 336.764 445.647 345.095 445.647 357.284C445.647 364.463 444.169 380.662 427.857 391.711L427.87 391.749ZM408.714 338.167C407.574 337.027 404.843 334.972 400.96 333.606C398.905 332.917 396.738 332.354 392.403 332.354C388.645 332.354 385.563 332.692 382.03 334.183C372.571 338.179 368.236 347.863 368.236 357.673C368.236 359.151 368.349 363.26 369.827 367.482C374.613 381.852 387.617 382.879 392.516 382.879C393.881 382.879 399.018 382.879 403.352 380.937C412.36 376.953 416.006 366.68 416.006 357.56C416.006 347.3 411.671 340.798 408.714 338.179V338.167Z" fill="#ECECEC"/>
<path d="M628.757 397.913L607.66 367.47L597.625 377.041V397.9H570.952V317.42H597.75V347.512L624.773 317.42H659.776L628.193 347.863L663.422 397.913H628.757Z" fill="#ECECEC"/>
<path d="M783.403 397.913H753.035L736.235 356.27L721.865 397.913H690.746L665.439 317.42H695.143L708.297 362.396L720.274 317.42H752.346L763.295 362.17L774.734 317.42H808.584L783.39 397.913H783.403Z" fill="#ECECEC"/>
<path d="M902.206 392.288C897.984 395.144 893.887 397.073 889.089 398.439C884.416 399.804 877.351 401.17 865.95 401.17C848.849 401.17 838.476 397.412 831.974 393.528C829.807 392.275 825.823 389.657 821.826 384.858C813.27 374.485 812.931 363.999 812.931 358.863C812.931 338.567 823.768 328.42 830.37 323.972C837.211 319.299 847.02 315.19 865.035 314.965C868.681 314.965 872.214 314.965 875.872 315.303C897.195 317.019 907.117 325.451 912.692 333.431C915.31 337.302 919.983 345.633 919.983 357.823C919.983 365.002 918.505 381.2 902.194 392.25L902.206 392.288ZM883.051 338.705C881.911 337.565 879.18 335.511 875.296 334.145C873.241 333.456 871.074 332.892 866.739 332.892C862.981 332.892 859.899 333.23 856.366 334.721C846.907 338.718 842.573 348.402 842.573 358.211C842.573 359.69 842.685 363.799 844.164 368.021C848.949 382.39 861.954 383.418 866.852 383.418C868.218 383.418 873.354 383.418 877.689 381.476C886.696 377.492 890.342 367.219 890.342 358.099C890.342 347.838 886.007 341.336 883.051 338.718V338.705Z" fill="#ECECEC"/>
<path d="M995.39 398.978L978.74 369.675H963.468V398.978H934.516V318.485H993.799C1004.64 318.485 1015.01 319.287 1021.5 329.547C1022.98 331.94 1025.61 336.726 1025.61 344.03C1025.61 347.788 1024.81 358.512 1014.66 364.1C1012.72 365.24 1011.24 365.803 1007.13 366.831L1027.2 398.978H995.39ZM995.615 340.033C993.673 337.177 990.479 336.726 987.409 336.726H963.468V351.547H985.129C990.604 351.547 993.448 350.858 995.277 348.69C996.755 346.861 996.868 345.045 996.868 344.13C996.868 343.441 996.755 341.624 995.615 340.021V340.033Z" fill="#ECECEC"/>
<path d="M1100.7 398.439L1079.6 367.996L1069.57 377.567V398.426H1042.9V317.959H1069.69V348.051L1096.72 317.959H1131.72L1100.14 348.402L1135.37 398.451H1100.7V398.439Z" fill="#ECECEC"/>
<path d="M1282.59 396.547C1278.37 399.404 1274.28 401.333 1269.48 402.698C1264.8 404.064 1257.74 405.43 1246.34 405.43C1229.24 405.43 1218.86 401.671 1212.36 397.787C1210.2 396.535 1206.21 393.916 1202.21 389.118C1193.66 378.745 1193.32 368.259 1193.32 363.122C1193.32 342.827 1204.16 332.679 1210.76 328.232C1217.6 323.559 1227.41 319.45 1245.42 319.224C1249.07 319.224 1252.6 319.224 1256.26 319.562C1277.58 321.279 1287.51 329.71 1293.08 337.69C1295.7 341.562 1300.37 349.893 1300.37 362.083C1300.37 369.261 1298.89 385.46 1282.58 396.51L1282.59 396.547ZM1263.44 342.965C1262.3 341.825 1259.57 339.77 1255.68 338.405C1253.63 337.715 1251.46 337.152 1247.13 337.152C1243.37 337.152 1240.29 337.49 1236.75 338.981C1227.3 342.977 1222.96 352.661 1222.96 362.471C1222.96 363.949 1223.07 368.058 1224.55 372.28C1229.34 386.65 1242.34 387.677 1247.24 387.677C1248.61 387.677 1253.74 387.677 1258.08 385.735C1267.08 381.752 1270.73 371.479 1270.73 362.358C1270.73 352.098 1266.4 345.596 1263.44 342.977V342.965Z" fill="#ECECEC"/>
<path d="M1372.06 401.634L1355.41 372.331H1340.14V401.634H1311.18V321.154H1370.47C1381.3 321.154 1391.68 321.955 1398.17 332.216C1399.64 334.609 1402.28 339.394 1402.28 346.698C1402.28 350.457 1401.47 361.181 1391.33 366.768C1389.38 367.908 1387.91 368.472 1383.8 369.499L1403.87 401.646H1372.06V401.634ZM1372.28 342.702C1370.34 339.845 1367.15 339.394 1364.08 339.394H1340.14V354.215H1361.8C1367.27 354.215 1370.12 353.526 1371.94 351.359C1373.42 349.53 1373.54 347.713 1373.54 346.798C1373.54 346.109 1373.42 344.293 1372.28 342.689V342.702Z" fill="#ECECEC"/>
<path d="M1477.53 401.633L1473.2 388.517H1442.41L1438.08 401.633H1406.38L1441.16 321.141H1474L1508.89 401.633H1477.53ZM1457.69 343.491L1448.45 370.739H1467.15L1457.69 343.491Z" fill="#ECECEC"/>
<path d="M1581.18 402.172L1542.98 361.206V402.172H1514.48V321.68H1538.3L1576.73 363.561V321.68H1605.12V402.172H1581.18Z" fill="#ECECEC"/>
<path d="M1698.39 401.709L1698.41 392.814C1696.58 394.518 1695.33 395.77 1691.11 398.038C1685.86 400.882 1677.98 404.052 1664.3 404.014C1659.16 404.014 1645.14 403.626 1632.97 394.129C1628.53 390.697 1626.03 387.389 1624.9 385.56C1622.4 381.902 1618.43 373.796 1618.46 362.283C1618.47 356.921 1619.19 344.493 1629.25 333.581C1636.79 325.501 1649.92 317.445 1674.32 317.495C1677.29 317.495 1693.48 317.771 1705.2 323.496C1709.52 325.676 1712.14 327.956 1713.51 329.334C1715.55 331.163 1717.49 333.331 1718.86 335.623C1719.77 336.989 1720.9 339.733 1720.9 339.733L1694.52 345.408C1691.79 342.439 1684.64 335.661 1674.73 335.636C1672.23 335.636 1664.93 335.724 1658.54 340.271C1654.88 342.89 1648.14 349.479 1648.11 361.569C1648.11 364.075 1648.31 371.604 1653.44 377.542C1658.1 383.142 1665.84 385.673 1673.03 385.685C1686.02 385.71 1693.8 378.444 1695.86 373.884C1695.97 373.659 1696.21 372.631 1696.43 371.717L1675.46 371.667L1675.51 353.426L1723.51 353.538L1723.39 401.759L1698.42 401.696L1698.39 401.709Z" fill="#ECECEC"/>
<path d="M1738.67 401.634V321.154H1820.94V339.169H1767.5V352.398H1814.59V370.527H1767.5V383.405H1824.62V401.646H1738.65L1738.67 401.634Z" fill="#ECECEC"/>
</g>
<defs>
<clipPath id="clip0_855_4473">
<rect width="1824.62" height="91.4421" fill="white" transform="translate(0 314)"/>
</clipPath>
</defs>
</svg>
