<svg width="1825" height="720" viewBox="0 0 1825 720" fill="none" xmlns="http://www.w3.org/2000/svg">
<g clip-path="url(#clip0_1242_2456)">
<path d="M860.519 33.6225L881.18 31.4785L878.549 49.4103H891.803V59.4482H876.21C876.21 59.4482 866.757 97.066 885.273 99.0151C887.222 99.21 889.171 98.6252 890.633 97.2609C892.582 95.3118 894.824 91.7059 894.726 84.9815L907.98 84.2993C907.98 84.2993 903.984 113.049 883.324 112.951C883.324 112.951 863.638 115.29 859.058 89.5619C859.058 89.5619 857.303 78.5494 859.058 63.7362L836.545 66.3675V56.622L861.202 54.3805C861.202 54.3805 859.837 45.2197 860.617 33.3302L860.519 33.6225Z" fill="white"/>
<path d="M922.988 0.877098L942.382 0L938.191 51.1641C938.191 51.1641 977.661 26.9951 979.902 70.6551C979.902 70.6551 979.512 94.6291 969.669 106.616H950.081C950.081 106.616 967.72 73.5788 957.78 59.935C956.61 58.2783 954.564 57.4986 952.517 57.5961C947.06 57.5961 936.924 60.8121 936.729 82.7396L935.852 106.714H917.92C917.92 106.714 918.408 1.16946 922.793 0.974553L922.988 0.877098Z" fill="white"/>
<path d="M1040.32 85.5649C1040.32 85.5649 1032.92 99.9883 1022.98 100.281C1022.98 100.281 1008.65 101.45 1007.19 82.6413L1047.63 73.7728C1047.63 73.7728 1037.11 47.3624 1014.79 53.3072C1014.79 53.3072 986.529 59.0571 993.058 89.0733C994.033 93.7512 996.469 98.0392 1000.08 101.353C1009.72 110.124 1031.85 124.06 1051.92 91.1199L1040.32 85.5649ZM1022 62.1756C1030.48 61.4934 1031.85 69.4848 1031.85 69.4848C1031.85 69.4848 1010.11 72.6034 1010.21 72.2135C1013.13 61.8833 1022 62.1756 1022 62.1756Z" fill="white"/>
<path d="M357.747 206.411C354.239 154.76 312.918 158.561 312.918 158.561L237 161.679C245.381 165.577 251.911 169.768 256.978 173.861C268.381 183.022 274.618 197.153 274.52 211.869L274.228 661.82C273.058 679.849 247.72 695.637 247.72 695.637H318.278C292.16 683.845 294.011 657.337 294.011 657.337L296.155 448.49C353.362 436.211 357.747 387.581 357.747 387.581C366.421 338.463 357.747 206.411 357.747 206.411ZM340.4 359.026C341.57 439.329 295.766 433.092 295.766 433.092L299.371 171.425C334.748 167.624 337.574 206.314 337.574 206.314C341.57 215.377 340.4 359.026 340.4 359.026Z" fill="white"/>
<path d="M431.911 708.5C420.411 703.14 414.174 694.661 411.055 688.424C409.009 684.429 408.132 679.848 408.132 675.365L410.665 167.72C410.665 164.017 413.881 160.606 416.415 157.975L425.771 148.619H367.395L380.942 160.509C386.204 165.187 389.225 171.911 389.225 178.928L387.471 682.382C387.471 688.522 385.132 694.369 380.747 698.657C377.238 702.068 372.171 705.869 365.154 708.5H431.813H431.911Z" fill="white"/>
<path d="M442.338 166.161H490.189L488.24 167.721C483.562 171.424 481.126 177.271 481.71 183.216L513.578 497.022L517.866 185.652C517.964 176.102 514.748 169.085 506.756 164.017L485.706 150.666H553.34L540.086 165.674C534.434 172.106 532.874 180.292 532.777 188.868L528.489 704.115H509.583L465.24 232.236L455.3 671.76C455.008 682.772 459.783 688.23 468.067 695.344L480.346 704.115L431.911 701.289L436.296 692.323C438.343 688.035 439.512 683.357 439.61 678.582L451.012 188.674C451.109 183.801 449.842 178.928 447.406 174.64L442.338 166.064V166.161Z" fill="white"/>
<path d="M592.615 391.77L610.059 352.008L644.071 672.149C644.071 672.149 649.236 695.051 619.415 700.801H697.477C697.477 700.801 668.922 692.712 667.948 680.14C666.973 667.568 627.699 299.187 627.699 299.187L675.159 178.927C680.324 166.94 705.371 160.801 705.371 160.801C705.371 160.801 633.449 159.436 634.91 159.924C651.283 165.966 657.325 171.813 659.469 174.737C660.249 175.809 660.346 177.173 659.859 178.343L590.081 352.69L592.127 210.698C592.127 210.698 592.127 200.465 592.127 200.27C592.225 182.923 598.559 178.537 613.373 169.377L624.385 162.945L545.349 167.428L558.603 174.152C571.175 180.779 570.98 185.262 570.882 197.151L564.548 668.348C564.353 680.043 560.065 682.966 552.268 691.64L542.62 700.703H608.89C608.89 700.703 585.208 692.03 585.695 678.581C586.183 665.132 592.615 391.575 592.615 391.575V391.77Z" fill="white"/>
<path d="M902.913 214.986C898.235 193.839 890.243 181.169 882.252 173.47C873.968 165.577 862.371 161.971 850.871 162.361L768.619 165.771C788.305 166.551 800.292 170.547 807.601 174.932C814.813 179.123 819.004 187.017 818.809 195.3L807.504 676.048C805.165 692.42 780.899 698.56 780.899 698.56L859.448 702.75C849.215 700.314 842.393 695.928 837.812 691.543C831.868 685.696 829.041 677.412 829.236 669.031L835.376 441.18C885.566 435.82 902.913 380.271 902.913 380.271C929.713 317.704 902.913 214.986 902.913 214.986ZM882.739 374.131C875.528 428.901 835.181 425.295 835.181 425.295L839.372 171.424C875.528 168.11 882.739 215.864 882.739 215.864C896.481 267.028 882.739 374.131 882.739 374.131Z" fill="white"/>
<path d="M959.339 700.217H1018.59C1017.42 699.34 1016.35 698.268 1015.28 697.196C1006.7 688.23 1002.22 676.146 1001.44 663.769L969.572 173.666H950.665L895.895 673.904C894.141 686.671 872.116 702.751 872.116 702.751L928.64 701.971C928.64 701.971 914.899 688.23 911.001 682.578C907.882 678.192 907.59 673.709 908.175 669.032L937.509 432.507H966.356C966.356 432.507 981.169 663.964 981.364 677.413C981.559 690.862 959.339 700.217 959.339 700.217ZM937.314 422.177L954.174 264.299L962.945 422.177H937.314Z" fill="white"/>
<path d="M1067.32 718.831L999.686 720.001L1015.67 709.963C1018.88 707.916 1020.83 704.505 1020.83 700.705L1028.05 173.666H1055.82L1102.01 544.094L1103.77 543.899L1102.5 196.276C1102.5 182.925 1096.26 170.158 1085.25 162.654C1082.62 160.802 1079.5 159.145 1075.99 157.684H1138.75C1138.75 157.684 1117.9 165.87 1117.9 173.666L1113.03 702.751H1103.09L1045.88 272.876L1033.89 693.006C1033.79 698.756 1036.72 704.213 1041.59 707.234L1067.32 718.929V718.831Z" fill="white"/>
<path d="M1126.47 180.097L1215.35 176.783V220.638C1215.35 221.32 1214.38 221.418 1214.28 220.736C1211.85 207.384 1203.85 182.436 1179.78 191.986L1174.72 664.352C1174.72 664.352 1175.59 693.297 1201.52 699.339L1133.49 702.75C1133.49 702.75 1154.35 690.08 1154.15 669.615C1153.96 649.149 1156.88 187.893 1156.88 187.893C1156.88 187.893 1135.83 189.355 1124.92 216.837H1124.72L1126.47 180.097Z" fill="white"/>
<path d="M1209.31 151.056H1287.67C1287.67 151.056 1265.06 161.386 1264.18 176.687L1261.06 410.58H1307.64L1313.2 191.305C1313.39 182.632 1310.57 174.056 1304.33 168.013C1301.11 164.895 1296.92 162.264 1291.76 161.289H1353.84C1353.84 161.289 1336.98 169.28 1336.98 179.903L1321.48 669.616C1321.29 676.633 1323.33 683.552 1327.72 688.912C1330.55 692.323 1334.54 695.734 1340.29 698.365L1281.62 699.34C1281.62 699.34 1300.73 685.306 1301.7 664.159C1302.67 643.011 1308.42 421.592 1308.42 421.592L1260.57 422.957L1254.43 669.714C1254.43 669.714 1255.21 690.082 1276.17 699.242H1211.46C1211.46 699.242 1230.56 693.98 1230.56 671.955L1237.18 183.216C1237.18 176.687 1235.24 170.157 1230.95 165.285C1226.66 160.412 1220.13 155.149 1209.41 150.861L1209.31 151.056Z" fill="white"/>
<path d="M1346.53 176.686L1447.49 173.859V225.706C1447.49 225.706 1437.75 186.431 1420.89 187.698L1393.02 188.867L1389.9 405.413H1416.7C1418.65 405.413 1420.5 405.023 1422.15 404.049C1427.03 401.223 1436.48 393.329 1439.11 372.668L1437.07 454.336C1437.07 454.336 1431.41 416.718 1419.62 417.888L1389.31 417.4L1385.61 688.813H1429.56L1443.3 651.585L1447.49 702.847H1353.74C1353.74 702.847 1364.36 692.906 1365.05 669.517L1366.51 199.685C1366.51 196.469 1365.53 193.448 1363.68 190.914C1360.47 186.529 1354.62 179.999 1346.53 176.88V176.686Z" fill="white"/>
<path d="M1520.49 701.971L1586.66 702.751C1573.8 698.463 1565.9 690.667 1561.32 683.942C1557.33 678.095 1555.28 671.175 1554.89 664.159L1539.2 416.72C1565.02 399.275 1567.46 375.009 1567.46 375.009C1573.6 350.645 1571.07 259.232 1571.07 259.232C1573.5 174.056 1514.05 168.403 1514.05 168.403C1501.19 166.454 1433.85 168.403 1433.85 168.403C1486.77 173.081 1482.67 196.373 1482.67 196.373C1482.67 196.373 1469.03 646.714 1468.15 671.663C1467.18 696.514 1447.59 708.014 1447.59 708.014H1519.9C1502.36 701.192 1494.86 690.764 1491.74 684.429C1490.28 681.506 1489.69 678.192 1489.79 674.879L1497.2 429.486L1518.64 425.296C1518.64 425.296 1535.69 660.26 1536.66 677.023C1537.64 693.785 1520.49 701.971 1520.49 701.971ZM1497.29 412.724L1506.16 179.123C1506.16 179.123 1547.68 183.606 1550.11 230.288C1550.11 230.288 1551.48 312.345 1549.72 349.573C1549.14 361.852 1546.12 373.937 1539.88 384.559C1523.22 412.334 1497.29 412.724 1497.29 412.724Z" fill="white"/>
<path d="M398.581 77.4766C398.581 77.4766 399.068 100.476 403.454 106.811L413.979 97.8447L406.28 110.611C406.28 110.611 415.636 115.094 428.402 114.12C428.402 114.12 406.67 115.679 405.11 122.696L411.542 131.662L402.284 124.937C402.284 124.937 398.191 142.284 398.678 145.403C398.678 145.403 395.267 125.912 390.784 126.204L382.501 132.636L388.543 123.378C388.543 123.378 387.763 115.387 365.349 115.094C365.349 115.094 385.717 111.878 386.984 110.027L382.793 99.2091L391.759 107.2C391.759 107.2 399.166 102.717 398.678 77.4766H398.581Z" fill="white"/>
<path d="M354.141 117.727C355.702 117.727 356.967 116.461 356.967 114.9C356.967 113.34 355.702 112.074 354.141 112.074C352.58 112.074 351.315 113.34 351.315 114.9C351.315 116.461 352.58 117.727 354.141 117.727Z" fill="white"/>
<path d="M438.148 117.629C439.332 117.629 440.292 116.32 440.292 114.705C440.292 113.09 439.332 111.781 438.148 111.781C436.964 111.781 436.004 113.09 436.004 114.705C436.004 116.32 436.964 117.629 438.148 117.629Z" fill="white"/>
<path d="M399.361 73.8714C400.76 73.8714 401.894 72.2134 401.894 70.1681C401.894 68.1229 400.76 66.4648 399.361 66.4648C397.961 66.4648 396.827 68.1229 396.827 70.1681C396.827 72.2134 397.961 73.8714 399.361 73.8714Z" fill="white"/>
</g>
<defs>
<clipPath id="clip0_1242_2456">
<rect width="1349.66" height="720" fill="white" transform="translate(237)"/>
</clipPath>
</defs>
</svg>
