<svg width="1825" height="720" viewBox="0 0 1825 720" fill="none" xmlns="http://www.w3.org/2000/svg">
<g clip-path="url(#clip0_1222_2576)">
<path d="M372.849 119.372C364.029 119.372 355.49 121.892 347.231 127.002C338.972 132.112 331.412 138.063 324.553 144.853C317.694 151.643 311.744 158.434 306.775 165.224C301.735 172.015 297.955 177.055 295.436 180.415H290.956L325.743 114.611L519.975 114.961L485.188 180.765H480.709C482.599 176.285 484.279 171.385 485.678 166.064C487.078 160.744 488.338 155.354 489.318 150.033C490.928 141.563 490.018 134.352 486.728 128.472C483.439 122.592 476.299 119.582 465.38 119.582H433.533L311.954 348.005H348.631L346.461 352.765L246.93 352.555L249.1 347.865H282.907L404.416 119.442H372.849V119.372Z" fill="#ECECEC"/>
<path d="M552.312 103.69L554.482 99H605.368L523.405 250.419H524.035C528.095 245.938 532.714 241.248 537.964 236.208C543.213 231.168 548.743 226.617 554.692 222.347C560.642 218.147 566.731 214.647 572.891 211.846C579.12 209.046 585.14 207.716 590.879 207.716C599.908 207.716 606.558 210.236 610.897 215.277C615.237 220.317 616.707 226.477 615.307 233.828C614.607 237.608 613.277 241.318 611.457 245.028C609.567 248.669 607.328 253.079 604.668 258.189L572.261 320.003C570.231 323.783 568.411 327.493 566.661 331.203C564.911 334.844 563.721 338.484 563.022 342.054C562.532 344.714 562.602 347.164 563.232 349.404C563.861 351.645 565.961 352.765 569.391 352.765C573.241 352.765 577.02 351.645 580.66 349.404C584.3 347.164 587.729 344.504 591.019 341.424C594.309 338.344 597.178 335.054 599.768 331.553C602.358 328.123 604.388 325.183 605.928 322.733L609.147 324.413C607.678 326.653 605.578 329.593 602.988 333.233C600.328 336.874 597.178 340.514 593.399 344.084C589.619 347.654 585.21 350.734 580.24 353.255C575.27 355.775 569.671 357.105 563.441 357.035C556.582 357.035 551.053 355.425 546.923 352.345C542.793 349.194 541.393 344.084 542.723 336.944C543.283 334.074 544.193 331.063 545.523 327.913C546.853 324.763 548.393 321.473 550.143 317.903L592.069 238.098C594.799 232.778 596.479 228.297 597.108 224.727C597.668 221.857 597.248 219.057 595.919 216.397C594.589 213.737 591.579 212.407 586.819 212.337C582.06 212.337 576.25 214.157 569.391 217.797C562.462 221.437 555.322 226.477 547.903 232.778C540.484 239.148 533.274 246.568 526.205 255.109C519.135 263.649 512.976 272.96 507.657 282.971L470.49 352.765H448.302L581.64 103.76H552.312V103.69Z" fill="#ECECEC"/>
<path d="M722.047 329.173C718.687 333.303 714.418 337.433 709.098 341.493C703.849 345.624 697.619 349.264 690.48 352.484C683.341 355.704 675.151 357.314 665.912 357.314C656.673 357.314 649.184 355.704 643.444 352.624C637.705 349.474 633.295 345.484 630.215 340.583C627.136 335.683 625.246 330.293 624.546 324.342C623.846 318.462 623.986 312.722 625.036 307.121C627.136 295.991 631.895 284.44 639.385 272.539C646.874 260.639 655.763 249.718 666.122 239.848C676.481 229.977 687.61 221.786 699.509 215.346C711.478 208.906 723.027 205.686 734.156 205.686C738.426 205.686 742.625 206.176 746.755 207.226C750.885 208.276 754.454 209.746 757.534 211.776C760.614 213.806 762.923 216.326 764.463 219.476C766.003 222.627 766.423 226.407 765.583 230.817C764.463 236.837 761.944 242.158 757.954 246.708C753.964 251.258 749.205 255.178 743.675 258.399C738.146 261.619 732.196 264.349 725.897 266.589C719.597 268.829 713.508 270.509 707.698 271.769C701.889 272.959 696.639 273.869 691.88 274.429C687.19 274.99 683.691 275.27 681.591 275.27C677.951 275.27 674.381 275.13 671.022 274.92C667.592 274.71 664.652 274.359 662.203 273.869C658.493 281.01 655.203 288.08 652.263 295.081C649.324 302.081 647.154 309.502 645.684 317.272C643.444 329.313 644.774 338.273 649.674 344.223C654.573 350.174 661.643 353.114 670.882 353.114C677.741 353.114 684.041 351.714 689.85 348.984C695.66 346.184 700.839 342.963 705.529 339.183C710.218 335.403 714.278 331.553 717.638 327.703C721.067 323.782 723.797 320.772 725.967 318.532L729.396 320.842C727.787 322.382 725.337 325.252 722.047 329.383V329.173ZM744.585 215.066C742.555 211.916 738.566 210.376 732.546 210.376C725.897 210.376 719.107 212.336 712.248 216.326C705.389 220.316 698.949 225.287 692.93 231.167C686.91 237.047 681.451 243.418 676.481 250.208C671.582 256.998 667.592 263.299 664.582 269.109C669.342 270.019 674.731 270.439 680.751 270.509C688.45 270.509 696.009 269.319 703.359 266.869C710.708 264.419 717.358 261.199 723.377 257.209C729.396 253.218 734.436 248.528 738.566 243.208C742.695 237.887 745.285 232.287 746.335 226.477C747.175 221.996 746.615 218.216 744.585 215.136V215.066Z" fill="#ECECEC"/>
<path d="M974.864 416.259C967.515 415.489 960.376 414.089 953.446 412.059C946.517 410.029 940.148 407.159 934.408 403.518C928.669 399.808 924.049 395.118 920.619 389.307L910.4 373.207C907.46 368.306 904.731 364.736 902.211 362.496C899.761 360.256 896.541 358.016 892.692 355.776C887.792 353.325 882.823 350.035 877.783 345.905C872.744 341.775 868.404 336.104 864.834 328.964C861.195 321.824 858.815 312.863 857.625 302.012C856.435 291.162 857.275 278.001 860.145 262.39C862.525 249.719 866.794 237.119 872.954 224.658C879.113 212.197 886.532 200.297 895.212 189.096C903.821 177.895 913.55 167.535 924.329 158.084C935.108 148.634 946.237 140.443 957.716 133.583C969.195 126.722 980.744 121.332 992.433 117.412C1004.12 113.562 1015.32 111.602 1026.03 111.602C1039.96 111.602 1051.16 114.612 1059.63 120.492C1068.1 126.442 1074.4 134.073 1078.53 143.453C1082.65 152.834 1084.96 163.265 1085.45 174.745C1085.87 186.226 1085.1 197.566 1083 208.697C1080.76 220.738 1076.78 232.849 1070.97 244.959C1065.16 257.07 1058.09 268.691 1049.69 279.681C1041.29 290.672 1031.84 300.962 1021.2 310.553C1010.63 320.144 999.502 328.474 987.883 335.544C976.264 342.685 964.295 348.215 952.046 352.205C939.798 356.196 927.689 358.156 915.65 358.156C913.27 358.156 911.17 358.156 909.42 357.946C907.6 357.806 905.851 357.666 904.171 357.456L903.401 358.156C906.481 361.306 909.21 363.686 911.73 365.366C914.18 367.046 916.56 368.376 918.729 369.356C920.899 370.336 923.069 371.106 925.239 371.526C927.409 371.947 929.858 372.297 932.588 372.577C939.098 373.277 944.627 374.117 949.037 375.097C953.446 376.077 957.296 377.547 960.446 379.437C963.595 381.327 966.535 383.777 969.055 386.787C971.575 389.798 974.374 393.508 977.454 397.988C981.584 404.428 986.133 408.559 990.963 410.239C995.793 411.919 1000.69 412.759 1005.66 412.759H1009.51L1008.67 417.449H995.793C989.143 417.449 982.144 417.029 974.724 416.189L974.864 416.259ZM875.963 320.914C876.243 327.354 877.923 333.024 880.863 337.785C883.803 342.615 888.352 346.465 894.302 349.335C900.321 352.275 908.37 353.675 918.449 353.745C931.118 353.745 943.297 350.455 954.916 343.805C966.605 337.155 977.524 328.474 987.813 317.763C998.032 307.053 1007.55 295.082 1016.3 281.711C1025.05 268.341 1032.61 254.9 1039.12 241.319C1045.63 227.738 1051.02 214.787 1055.36 202.397C1059.7 190.006 1062.64 179.645 1064.25 171.175C1067.47 153.814 1066 140.303 1059.84 130.713C1053.68 121.122 1041.92 116.292 1024.49 116.292C1012.45 116.292 1000.76 119.512 989.353 125.952C977.944 132.393 967.095 140.863 956.806 151.294C946.517 161.724 936.858 173.625 927.969 186.856C919.079 200.087 911.17 213.597 904.311 227.248C897.451 240.969 891.712 254.27 887.022 267.15C882.333 280.101 879.113 291.302 877.363 300.892C876.103 307.823 875.613 314.473 875.893 320.984L875.963 320.914Z" fill="#ECECEC"/>
<path d="M1161.26 210.797L1103.72 321.053C1101.13 325.743 1099.03 329.874 1097.49 333.584C1095.95 337.224 1095.04 340.024 1094.69 341.774C1094.13 344.925 1094.41 347.655 1095.53 350.105C1096.72 352.555 1099.17 353.815 1103.09 353.815C1108.9 353.815 1115.62 351.575 1123.18 347.025C1130.81 342.474 1138.51 336.664 1146.28 329.524C1154.05 322.383 1161.47 314.473 1168.47 305.652C1175.47 296.832 1181.28 288.151 1185.9 279.471L1221.52 211.007H1244.06L1184.99 324.273C1183.31 327.634 1181.56 330.994 1179.88 334.494C1178.13 337.924 1177.01 341.214 1176.45 344.365C1175.96 347.025 1176.31 349.335 1177.43 351.225C1178.55 353.115 1180.65 354.095 1183.66 354.095C1187.3 354.095 1191 352.905 1194.78 350.455C1198.56 348.005 1202.13 345.205 1205.42 341.914C1208.71 338.694 1211.65 335.404 1214.17 332.044C1216.76 328.684 1218.58 326.023 1219.84 323.993L1223.41 325.673C1222.22 327.424 1220.33 330.154 1217.88 333.864C1215.36 337.504 1212.14 341.214 1208.29 344.855C1204.37 348.495 1199.82 351.715 1194.57 354.375C1189.33 357.035 1183.52 358.365 1177.08 358.365C1170.01 358.365 1164.62 356.825 1160.98 353.815C1157.34 350.805 1156.22 345.695 1157.55 338.624C1158.25 334.844 1159.37 331.204 1160.84 327.774C1162.31 324.343 1164.34 320.353 1166.93 315.943L1166.44 315.243C1162.66 319.233 1158.25 323.783 1153.14 328.754C1148.03 333.724 1142.64 338.414 1136.97 342.754C1131.3 347.095 1125.49 350.735 1119.47 353.745C1113.45 356.755 1107.5 358.225 1101.69 358.225C1092.45 358.225 1085.59 355.985 1081.04 351.505C1076.5 347.025 1075.03 340.584 1076.64 332.114C1077.27 328.754 1078.73 324.833 1081.11 320.283C1083.49 315.733 1085.52 311.673 1087.27 308.102L1136.06 215.557H1107.43L1109.6 210.797H1161.47H1161.26Z" fill="#ECECEC"/>
<path d="M1275.7 215.696L1277.87 211.006H1329.1L1270.03 324.342C1268.35 327.702 1266.6 331.063 1264.92 334.563C1263.17 337.993 1262.05 341.283 1261.49 344.433C1261 347.094 1261.35 349.404 1262.47 351.294C1263.59 353.184 1265.69 354.164 1268.7 354.164C1272.13 354.164 1275.77 352.974 1279.55 350.524C1283.33 348.074 1286.9 345.273 1290.33 342.053C1293.69 338.833 1296.7 335.543 1299.28 332.183C1301.87 328.823 1303.69 326.162 1304.95 324.132L1308.52 325.812C1307.33 327.562 1305.44 330.293 1302.99 334.003C1300.47 337.643 1297.26 341.353 1293.34 344.993C1289.42 348.634 1284.87 351.854 1279.62 354.514C1274.37 357.174 1268.56 358.504 1262.12 358.504C1255.05 358.504 1249.66 356.964 1246.02 353.954C1242.38 350.944 1241.26 345.833 1242.59 338.763C1243.29 334.983 1244.69 330.783 1246.86 326.232C1249.03 321.682 1251.06 317.482 1253.09 313.702L1304.46 215.836H1275.77L1275.7 215.696ZM1346.32 121.051C1349.75 118.04 1353.67 116.57 1357.94 116.57C1362.21 116.57 1365.57 118.11 1367.88 121.121C1370.19 124.131 1370.96 127.841 1370.12 132.321C1369.28 136.801 1367.18 140.512 1363.68 143.522C1360.25 146.532 1356.33 148.002 1352.06 148.002C1347.79 148.002 1344.43 146.462 1342.12 143.452C1339.81 140.442 1339.04 136.731 1339.88 132.251C1340.72 127.771 1342.82 124.061 1346.32 121.051Z" fill="#ECECEC"/>
<path d="M1424.43 330.503C1421.07 334.633 1416.8 338.763 1411.48 342.823C1406.24 346.954 1400.01 350.594 1392.87 353.814C1385.73 357.034 1377.54 358.644 1368.3 358.644C1359.06 358.644 1351.57 357.034 1345.83 353.954C1340.09 350.804 1335.68 346.814 1332.6 341.913C1329.52 337.013 1327.63 331.623 1326.93 325.672C1326.23 319.792 1326.37 314.052 1327.42 308.451C1329.52 297.321 1334.28 285.77 1341.77 273.869C1349.26 261.969 1358.15 251.048 1368.51 241.178C1378.87 231.307 1390 223.117 1401.9 216.676C1413.86 210.236 1425.41 207.016 1436.54 207.016C1440.81 207.016 1445.01 207.506 1449.14 208.556C1453.27 209.606 1456.84 211.076 1459.92 213.106C1463 215.136 1465.31 217.656 1466.85 220.806C1468.39 223.957 1468.81 227.737 1467.97 232.147C1466.85 238.167 1464.33 243.488 1460.34 248.038C1456.35 252.588 1451.59 256.508 1446.06 259.729C1440.53 262.949 1434.58 265.679 1428.28 267.919C1421.98 270.159 1415.89 271.839 1410.09 273.099C1404.28 274.289 1399.03 275.2 1394.27 275.76C1389.58 276.32 1386.08 276.6 1383.98 276.6C1380.34 276.6 1376.77 276.46 1373.41 276.25C1369.98 276.04 1367.04 275.69 1364.59 275.2C1360.88 282.34 1357.59 289.41 1354.65 296.411C1351.71 303.411 1349.54 310.832 1348.07 318.602C1345.83 330.643 1347.16 339.603 1352.06 345.554C1356.96 351.504 1364.03 354.444 1373.27 354.444C1380.13 354.444 1386.43 353.044 1392.24 350.314C1398.05 347.514 1403.23 344.294 1407.92 340.513C1412.6 336.733 1416.66 332.883 1420.02 329.033C1423.45 325.112 1426.18 322.102 1428.35 319.862L1431.78 322.172C1430.17 323.712 1427.72 326.582 1424.43 330.713V330.503ZM1446.97 216.326C1444.94 213.176 1440.95 211.636 1434.93 211.636C1428.28 211.636 1421.49 213.596 1414.63 217.586C1407.78 221.576 1401.34 226.547 1395.32 232.427C1389.3 238.307 1383.84 244.678 1378.87 251.468C1373.97 258.259 1369.98 264.559 1366.97 270.369C1371.73 271.279 1377.12 271.699 1383.14 271.769C1390.84 271.769 1398.4 270.579 1405.75 268.129C1413.09 265.679 1419.74 262.459 1425.76 258.469C1431.78 254.478 1436.82 249.788 1440.95 244.468C1445.08 239.147 1447.67 233.547 1448.72 227.737C1449.56 223.257 1449 219.476 1446.97 216.396V216.326Z" fill="#ECECEC"/>
<path d="M1560.64 178.734L1542.93 211.496H1578L1575.83 216.257H1540.69L1484.21 322.453C1482.53 325.813 1480.78 329.243 1479.03 332.813C1477.28 336.383 1476.09 339.954 1475.39 343.524C1474.76 346.884 1475.11 349.544 1476.3 351.574C1477.56 353.604 1480.01 354.584 1483.65 354.584C1487.5 354.584 1491.42 353.394 1495.27 350.944C1499.19 348.494 1502.83 345.694 1506.19 342.474C1509.55 339.254 1512.56 335.963 1515.15 332.603C1517.67 329.243 1519.56 326.583 1520.82 324.553L1524.38 326.233C1523.2 327.983 1521.31 330.713 1518.65 334.423C1516.06 338.064 1512.77 341.774 1508.85 345.414C1504.93 349.054 1500.31 352.274 1494.99 354.935C1489.67 357.595 1483.65 358.925 1477 358.925C1468.81 358.925 1463.07 356.825 1459.78 352.694C1456.49 348.564 1455.37 343.594 1456.42 337.784C1457.26 333.303 1459.01 328.263 1461.67 322.593C1464.33 316.922 1466.99 311.742 1469.58 307.052L1518.09 216.187H1489.11L1491.28 211.426H1520.26L1537.96 178.734H1560.5H1560.64Z" fill="#ECECEC"/>
<path d="M677.111 617.38C677.321 615.139 676.971 613.179 676.131 611.499C675.291 609.819 673.192 608.979 669.972 608.979C667.802 608.979 665.142 609.609 661.853 610.939C658.633 612.269 654.783 613.739 650.444 615.279C646.104 616.819 641.134 618.29 635.605 619.62C630.075 620.95 623.916 621.58 617.057 621.58C602.428 621.58 590.669 618.78 581.71 613.319C572.751 607.859 566.031 600.719 561.552 591.898C557.072 583.078 554.552 572.997 553.992 561.656C553.432 550.316 554.272 538.555 556.512 526.584C559.032 513.004 563.441 499.843 569.811 487.172C576.18 474.501 583.74 462.531 592.629 451.26C601.518 440.059 611.317 429.699 622.026 420.388C632.805 411.078 643.794 403.027 654.993 396.377C666.192 389.726 677.321 384.476 688.38 380.696C699.369 376.916 709.588 375.026 719.037 375.096C726.107 375.096 732.196 375.796 737.376 377.126C742.485 378.456 746.965 379.996 750.885 381.676C754.734 383.356 758.304 384.896 761.454 386.226C764.673 387.556 767.823 388.256 771.043 388.256C774.472 388.256 777.412 387.346 779.932 385.456C782.452 383.566 784.552 381.256 786.371 378.596L790.991 379.646L756.764 444.12H752.564C753.404 441.879 754.454 438.659 755.644 434.389C756.834 430.189 757.884 425.849 758.724 421.368C760.054 414.228 759.914 408.068 758.304 402.817C756.694 397.567 754.034 393.297 750.255 389.936C746.475 386.576 741.715 384.056 736.046 382.376C730.376 380.696 724.077 379.856 717.148 379.856C706.019 379.856 694.96 383.146 684.041 389.796C673.122 396.447 662.693 405.127 652.613 415.838C642.534 426.549 633.085 438.589 624.266 452.03C615.447 465.471 607.537 479.052 600.608 492.632C593.679 506.213 587.939 519.234 583.32 531.695C578.77 544.155 575.62 554.866 573.941 563.756C570.581 581.817 572.821 595.258 580.59 604.079C588.429 612.899 601.028 617.31 618.387 617.38C631.055 617.38 641.694 614.299 650.234 608.069C658.773 601.839 665.422 594.418 670.042 585.668L694.47 539.255H657.723L659.893 534.495L751.654 534.635L749.485 539.325H723.727L682.081 617.45H676.901L677.111 617.38Z" fill="#ECECEC"/>
<path d="M787.631 478.842L789.801 474.152H841.036L781.962 587.489C780.282 590.849 778.532 594.209 776.852 597.709C775.102 601.14 773.983 604.43 773.423 607.58C772.933 610.24 773.283 612.55 774.402 614.44C775.522 616.33 777.622 617.31 780.632 617.31C784.062 617.31 787.701 616.12 791.481 613.67C795.261 611.22 798.83 608.42 802.26 605.2C805.62 601.98 808.629 598.689 811.219 595.329C813.809 591.969 815.629 589.309 816.889 587.279L820.458 588.959C819.268 590.709 817.379 593.439 814.929 597.149C812.409 600.79 809.189 604.5 805.34 608.14C801.42 611.78 796.87 615 791.621 617.66C786.371 620.321 780.562 621.651 774.122 621.651C767.053 621.651 761.664 620.111 758.024 617.1C754.384 614.09 753.264 608.98 754.594 601.91C755.294 598.129 756.694 593.929 758.864 589.379C761.034 584.829 763.063 580.628 765.093 576.848L816.469 478.982H787.771L787.631 478.842ZM858.255 384.197C861.685 381.187 865.604 379.717 869.874 379.717C874.143 379.717 877.503 381.257 879.813 384.267C882.123 387.277 882.893 390.987 882.053 395.468C881.213 399.948 879.113 403.658 875.613 406.668C872.114 409.679 868.264 411.149 863.994 411.149C859.725 411.149 856.365 409.609 854.055 406.598C851.746 403.588 850.976 399.878 851.816 395.398C852.655 390.917 854.755 387.207 858.255 384.197Z" fill="#ECECEC"/>
<path d="M894.442 497.112C897.311 491.092 900.111 485.071 902.981 479.051H874.983L877.153 474.291H926.779C924.819 479.051 922.159 484.931 918.799 492.072C915.44 499.212 911.94 506.073 908.37 512.793L908.86 513.493C911.59 510.133 915.09 506.143 919.149 501.452C923.209 496.762 927.689 492.282 932.588 487.942C937.488 483.601 942.667 479.961 948.127 476.951C953.656 473.941 959.186 472.471 964.785 472.471C972.695 472.471 978.364 474.851 981.654 479.541C984.943 484.231 985.993 489.272 984.803 494.592C984.174 498.162 982.984 501.102 981.374 503.482C979.764 505.793 977.944 507.613 975.844 508.803C973.814 509.993 971.785 510.833 969.755 511.323C967.725 511.743 965.905 511.953 964.155 511.953C961.146 511.953 958.836 511.183 957.156 509.573C955.476 508.033 954.986 505.653 955.546 502.572C955.966 500.122 956.806 498.302 957.996 497.042C959.186 495.852 960.446 494.662 961.706 493.542C962.965 492.422 964.225 491.232 965.485 489.902C966.675 488.572 967.515 486.752 967.935 484.581C968.355 482.341 967.795 480.591 966.325 479.261C964.855 477.931 962.825 477.231 960.236 477.231C956.176 477.231 950.996 479.401 944.837 483.741C938.678 488.082 932.308 493.612 925.799 500.402C919.289 507.193 912.85 514.893 906.48 523.574C900.111 532.254 894.652 540.935 890.032 549.615L854.195 617.729H831.657L885.622 514.823C888.632 509.013 891.572 503.132 894.372 497.112H894.442Z" fill="#ECECEC"/>
<path d="M996.072 587.908C994.393 591.268 992.643 594.629 990.963 598.129C989.213 601.559 988.093 604.849 987.533 607.999C987.043 610.66 987.393 612.97 988.513 614.86C989.633 616.75 991.733 617.73 994.743 617.73C998.172 617.73 1001.81 616.54 1005.59 614.09C1009.37 611.64 1012.94 608.84 1016.37 605.619C1019.8 602.399 1022.74 599.109 1025.33 595.749C1027.92 592.389 1029.74 589.728 1031 587.768L1034.57 589.448C1033.38 591.198 1031.49 593.929 1029.04 597.639C1026.52 601.279 1023.3 604.989 1019.38 608.63C1015.46 612.27 1010.91 615.49 1005.66 618.15C1000.41 620.81 994.603 622.14 988.163 622.14C981.094 622.14 975.704 620.6 972.065 617.59C968.425 614.58 967.305 609.54 968.635 602.399C969.335 598.619 970.735 594.419 972.905 589.868C975.074 585.318 977.104 581.118 979.134 577.338L1089.79 368.866H1061.17L1063.34 364.105H1114.57L996.212 587.978L996.072 587.908Z" fill="#ECECEC"/>
<path d="M1083.42 568.027C1084.89 566.977 1087.9 565.576 1092.31 563.826V561.656C1092.31 559.906 1092.17 558.646 1091.82 557.946C1091.26 556.756 1090.14 556.196 1088.39 556.196C1087.55 556.196 1086.78 556.406 1086.01 556.896C1085.24 557.386 1084.89 558.016 1084.89 558.786C1084.89 558.996 1084.89 559.346 1085.03 559.836C1085.17 560.326 1085.17 560.676 1085.17 560.816C1085.17 561.796 1084.89 562.426 1084.26 562.846C1083.91 563.056 1083.49 563.196 1083.07 563.196C1082.37 563.196 1081.81 562.916 1081.39 562.426C1080.97 561.936 1080.83 561.376 1080.83 560.746C1080.83 559.556 1081.53 558.296 1082.93 556.966C1084.33 555.636 1086.36 555.006 1089.09 555.006C1092.24 555.006 1094.34 556.126 1095.46 558.296C1096.09 559.486 1096.37 561.236 1096.37 563.476V573.907C1096.37 574.887 1096.37 575.587 1096.58 576.007C1096.79 576.707 1097.21 576.987 1097.91 576.987C1098.26 576.987 1098.61 576.987 1098.82 576.777C1099.1 576.637 1099.45 576.357 1100.08 575.867V577.197C1099.59 577.897 1099.03 578.457 1098.4 578.877C1097.49 579.507 1096.58 579.857 1095.6 579.857C1094.48 579.857 1093.71 579.507 1093.22 578.737C1092.73 577.967 1092.45 577.057 1092.38 576.007C1091.12 577.127 1090.07 577.967 1089.23 578.527C1087.76 579.437 1086.36 579.927 1085.03 579.927C1083.63 579.927 1082.44 579.367 1081.39 578.387C1080.34 577.337 1079.85 576.007 1079.85 574.397C1079.85 571.877 1081.04 569.777 1083.35 568.097L1083.42 568.027ZM1092.31 565.086C1090.42 565.716 1088.88 566.487 1087.69 567.257C1085.38 568.797 1084.19 570.547 1084.19 572.507C1084.19 574.117 1084.68 575.237 1085.66 576.007C1086.29 576.497 1086.99 576.707 1087.76 576.707C1088.81 576.707 1089.86 576.357 1090.84 575.727C1091.82 575.097 1092.31 574.257 1092.31 573.277V565.086Z" fill="#ECECEC"/>
<path d="M1110.93 578.738C1112.05 578.597 1112.89 578.247 1113.31 577.827C1113.8 577.337 1114.01 576.357 1114.01 574.747V561.587C1114.01 560.466 1113.94 559.696 1113.73 559.276C1113.45 558.646 1112.82 558.296 1111.84 558.296C1111.7 558.296 1111.56 558.296 1111.42 558.296C1111.28 558.296 1111.07 558.296 1110.86 558.366V557.456C1111.49 557.246 1113.1 556.686 1115.55 555.846L1117.86 555.076C1117.86 555.076 1118.07 555.076 1118.07 555.216C1118.07 555.286 1118.07 555.426 1118.07 555.566V559.416C1119.54 557.946 1120.73 556.896 1121.57 556.336C1122.83 555.496 1124.16 555.076 1125.49 555.076C1126.61 555.076 1127.59 555.426 1128.5 556.056C1130.25 557.386 1131.09 559.696 1131.09 563.057V575.167C1131.09 576.427 1131.3 577.337 1131.79 577.827C1132.28 578.388 1133.05 578.667 1134.1 578.667V579.368H1123.74V578.667C1124.93 578.527 1125.77 578.178 1126.19 577.617C1126.68 577.057 1126.89 575.937 1126.89 574.187V563.127C1126.89 561.657 1126.61 560.396 1126.12 559.416C1125.63 558.436 1124.65 557.946 1123.25 557.946C1122.27 557.946 1121.36 558.296 1120.38 558.996C1119.82 559.416 1119.12 560.046 1118.28 560.956V575.517C1118.28 576.777 1118.56 577.617 1119.05 578.037C1119.54 578.458 1120.38 578.668 1121.5 578.738V579.438H1110.93V578.738Z" fill="#ECECEC"/>
<path d="M1184.78 556.686C1186.25 557.806 1186.95 558.996 1186.95 560.326C1186.95 560.887 1186.74 561.447 1186.39 561.937C1186.04 562.427 1185.41 562.707 1184.64 562.707C1184.08 562.707 1183.59 562.497 1183.17 562.077C1182.75 561.657 1182.4 561.026 1182.26 560.256L1181.98 558.996C1181.77 558.086 1181.42 557.456 1180.86 557.036C1180.3 556.686 1179.6 556.476 1178.76 556.476C1176.94 556.476 1175.33 557.316 1174.07 559.066C1172.81 560.816 1172.18 563.057 1172.18 565.927C1172.18 568.517 1172.88 570.897 1174.28 572.997C1175.68 575.097 1177.57 576.147 1179.95 576.147C1181.63 576.147 1183.1 575.587 1184.43 574.397C1185.2 573.697 1186.04 572.647 1186.95 571.177L1187.65 571.597C1186.74 573.697 1185.76 575.307 1184.71 576.567C1182.75 578.878 1180.51 580.068 1177.92 580.068C1175.33 580.068 1173.16 579.018 1171.2 576.847C1169.24 574.747 1168.26 571.807 1168.26 568.167C1168.26 564.527 1169.31 561.517 1171.41 558.926C1173.51 556.336 1176.17 555.076 1179.46 555.076C1181.49 555.076 1183.24 555.636 1184.71 556.756L1184.78 556.686Z" fill="#ECECEC"/>
<path d="M1204.51 568.027C1205.98 566.977 1208.99 565.576 1213.4 563.826V561.656C1213.4 559.906 1213.26 558.646 1212.91 557.946C1212.35 556.756 1211.23 556.196 1209.48 556.196C1208.64 556.196 1207.87 556.406 1207.1 556.896C1206.33 557.386 1205.98 558.016 1205.98 558.786C1205.98 558.996 1205.98 559.346 1206.12 559.836C1206.26 560.326 1206.26 560.676 1206.26 560.816C1206.26 561.796 1205.98 562.426 1205.35 562.846C1205 563.056 1204.58 563.196 1204.16 563.196C1203.46 563.196 1202.9 562.916 1202.48 562.426C1202.06 561.936 1201.92 561.376 1201.92 560.746C1201.92 559.556 1202.62 558.296 1204.02 556.966C1205.42 555.636 1207.45 555.006 1210.18 555.006C1213.33 555.006 1215.43 556.126 1216.55 558.296C1217.18 559.486 1217.46 561.236 1217.46 563.476V573.907C1217.46 574.887 1217.46 575.587 1217.67 576.007C1217.88 576.707 1218.3 576.987 1219 576.987C1219.35 576.987 1219.7 576.987 1219.91 576.777C1220.19 576.637 1220.54 576.357 1221.17 575.867V577.197C1220.68 577.897 1220.12 578.457 1219.49 578.877C1218.58 579.507 1217.67 579.857 1216.69 579.857C1215.57 579.857 1214.8 579.507 1214.31 578.737C1213.82 577.967 1213.54 577.057 1213.47 576.007C1212.21 577.127 1211.16 577.967 1210.32 578.527C1208.85 579.437 1207.45 579.927 1206.12 579.927C1204.72 579.927 1203.53 579.367 1202.48 578.387C1201.43 577.337 1200.94 576.007 1200.94 574.397C1200.94 571.877 1202.13 569.777 1204.44 568.097L1204.51 568.027ZM1213.4 565.086C1211.51 565.716 1209.97 566.487 1208.78 567.257C1206.47 568.797 1205.28 570.547 1205.28 572.507C1205.28 574.117 1205.77 575.237 1206.75 576.007C1207.38 576.497 1208.08 576.707 1208.85 576.707C1209.9 576.707 1210.95 576.357 1211.93 575.727C1212.91 575.097 1213.4 574.257 1213.4 573.277V565.086Z" fill="#ECECEC"/>
<path d="M1232.16 578.738C1233.91 578.598 1234.96 578.248 1235.45 577.828C1235.94 577.408 1236.15 576.148 1236.15 574.118V561.727C1236.15 560.607 1236.15 559.837 1235.94 559.417C1235.73 558.717 1235.17 558.367 1234.4 558.367C1234.19 558.367 1234.05 558.367 1233.91 558.367C1233.77 558.367 1233.28 558.577 1232.44 558.787V558.017L1233.49 557.667C1236.29 556.687 1238.32 555.917 1239.37 555.427C1239.86 555.217 1240.14 555.147 1240.21 555.147C1240.21 555.287 1240.21 555.427 1240.21 555.567V574.188C1240.21 576.148 1240.42 577.408 1240.91 577.898C1241.4 578.388 1242.38 578.738 1243.92 578.878V579.578H1232.16V578.878V578.738ZM1236.01 547.586C1236.5 547.026 1237.13 546.816 1237.83 546.816C1238.53 546.816 1239.09 547.096 1239.58 547.586C1240.07 548.076 1240.35 548.776 1240.35 549.477C1240.35 550.177 1240.07 550.877 1239.58 551.367C1239.09 551.857 1238.46 552.137 1237.83 552.137C1237.2 552.137 1236.5 551.857 1236.01 551.367C1235.52 550.877 1235.31 550.177 1235.31 549.477C1235.31 548.776 1235.52 548.076 1236.01 547.586Z" fill="#ECECEC"/>
<path d="M1254.91 578.668C1256.38 578.528 1257.43 578.178 1257.99 577.618C1258.55 577.058 1258.76 576.078 1258.76 574.537V547.796C1258.76 546.606 1258.69 545.766 1258.48 545.276C1258.13 544.506 1257.5 544.156 1256.52 544.156C1256.31 544.156 1256.03 544.156 1255.75 544.226C1255.47 544.296 1255.12 544.366 1254.77 544.506V543.596C1256.94 542.966 1259.6 542.056 1262.68 540.936C1262.82 540.936 1262.89 540.936 1262.89 541.076C1262.89 541.216 1262.89 541.426 1262.89 541.776V574.607C1262.89 576.218 1263.17 577.198 1263.59 577.688C1264.08 578.178 1265.06 578.458 1266.6 578.598V579.368H1254.84V578.598L1254.91 578.668Z" fill="#ECECEC"/>
<path d="M1276.61 578.738C1278.36 578.598 1279.41 578.248 1279.9 577.828C1280.39 577.408 1280.6 576.148 1280.6 574.118V561.727C1280.6 560.607 1280.6 559.837 1280.39 559.417C1280.18 558.717 1279.62 558.367 1278.85 558.367C1278.64 558.367 1278.5 558.367 1278.36 558.367C1278.22 558.367 1277.73 558.577 1276.89 558.787V558.017L1277.94 557.667C1280.74 556.687 1282.77 555.917 1283.82 555.427C1284.31 555.217 1284.59 555.147 1284.66 555.147C1284.66 555.287 1284.66 555.427 1284.66 555.567V574.188C1284.66 576.148 1284.87 577.408 1285.36 577.898C1285.85 578.388 1286.83 578.738 1288.37 578.878V579.578H1276.61V578.878V578.738ZM1289.91 547.516C1289.91 547.516 1289.28 548.146 1288.79 548.496L1281.16 553.677H1279.13L1286.41 545.836C1286.41 545.836 1286.97 545.276 1287.39 544.996C1287.74 544.716 1288.16 544.576 1288.65 544.576C1289.14 544.576 1289.42 544.716 1289.77 545.066C1290.12 545.416 1290.26 545.836 1290.26 546.326C1290.26 546.816 1290.12 547.236 1289.91 547.586V547.516Z" fill="#ECECEC"/>
<path d="M1300.27 578.738C1301.38 578.597 1302.22 578.247 1302.64 577.827C1303.13 577.337 1303.34 576.357 1303.34 574.747V561.587C1303.34 560.466 1303.27 559.696 1303.06 559.276C1302.78 558.646 1302.15 558.296 1301.17 558.296C1301.03 558.296 1300.9 558.296 1300.76 558.296C1300.62 558.296 1300.41 558.296 1300.2 558.366V557.456C1300.83 557.246 1302.43 556.686 1304.88 555.846L1307.19 555.076C1307.19 555.076 1307.4 555.076 1307.4 555.216C1307.4 555.286 1307.4 555.426 1307.4 555.566V559.416C1308.87 557.946 1310.06 556.896 1310.9 556.336C1312.16 555.496 1313.49 555.076 1314.82 555.076C1315.94 555.076 1316.92 555.426 1317.83 556.056C1319.58 557.386 1320.42 559.696 1320.42 563.057V575.167C1320.42 576.427 1320.63 577.337 1321.12 577.827C1321.61 578.388 1322.38 578.667 1323.43 578.667V579.368H1313.07V578.667C1314.26 578.527 1315.1 578.178 1315.52 577.617C1316.01 577.057 1316.22 575.937 1316.22 574.187V563.127C1316.22 561.657 1315.94 560.396 1315.45 559.416C1314.96 558.436 1313.98 557.946 1312.58 557.946C1311.6 557.946 1310.69 558.296 1309.71 558.996C1309.15 559.416 1308.45 560.046 1307.61 560.956V575.517C1307.61 576.777 1307.89 577.617 1308.38 578.037C1308.87 578.458 1309.71 578.668 1310.83 578.738V579.438H1300.27V578.738Z" fill="#ECECEC"/>
<path d="M1374.11 556.686C1375.58 557.806 1376.28 558.996 1376.28 560.326C1376.28 560.887 1376.07 561.447 1375.72 561.937C1375.37 562.427 1374.74 562.707 1373.97 562.707C1373.41 562.707 1372.92 562.497 1372.5 562.077C1372.08 561.657 1371.73 561.026 1371.59 560.256L1371.31 558.996C1371.1 558.086 1370.75 557.456 1370.19 557.036C1369.63 556.686 1368.93 556.476 1368.09 556.476C1366.27 556.476 1364.66 557.316 1363.4 559.066C1362.14 560.816 1361.51 563.057 1361.51 565.927C1361.51 568.517 1362.21 570.897 1363.61 572.997C1365.01 575.097 1366.9 576.147 1369.28 576.147C1370.96 576.147 1372.43 575.587 1373.76 574.397C1374.53 573.697 1375.37 572.647 1376.28 571.177L1376.98 571.597C1376.07 573.697 1375.09 575.307 1374.04 576.567C1372.08 578.878 1369.84 580.068 1367.25 580.068C1364.66 580.068 1362.49 579.018 1360.53 576.847C1358.57 574.747 1357.59 571.807 1357.59 568.167C1357.59 564.527 1358.64 561.517 1360.74 558.926C1362.84 556.336 1365.5 555.076 1368.79 555.076C1370.82 555.076 1372.57 555.636 1374.04 556.756L1374.11 556.686Z" fill="#ECECEC"/>
<path d="M1389.51 578.738C1391.26 578.598 1392.31 578.248 1392.8 577.828C1393.29 577.408 1393.5 576.148 1393.5 574.118V561.727C1393.5 560.607 1393.5 559.837 1393.29 559.417C1393.08 558.717 1392.52 558.367 1391.75 558.367C1391.54 558.367 1391.4 558.367 1391.26 558.367C1391.12 558.367 1390.63 558.577 1389.79 558.787V558.017L1390.84 557.667C1393.64 556.687 1395.67 555.917 1396.72 555.427C1397.21 555.217 1397.49 555.147 1397.56 555.147C1397.56 555.287 1397.56 555.427 1397.56 555.567V574.188C1397.56 576.148 1397.77 577.408 1398.26 577.898C1398.75 578.388 1399.73 578.738 1401.27 578.878V579.578H1389.51V578.878V578.738ZM1392.17 547.586C1392.66 547.026 1393.29 546.816 1393.99 546.816C1394.69 546.816 1395.25 547.096 1395.74 547.586C1396.23 548.076 1396.51 548.776 1396.51 549.477C1396.51 550.177 1396.23 550.877 1395.74 551.367C1395.25 551.857 1394.62 552.137 1393.99 552.137C1393.36 552.137 1392.66 551.857 1392.17 551.367C1391.68 550.877 1391.47 550.177 1391.47 549.477C1391.47 548.776 1391.68 548.076 1392.17 547.586Z" fill="#ECECEC"/>
<path d="M1419.95 556.267V572.298C1419.95 573.418 1420.09 574.328 1420.44 575.028C1421.07 576.288 1422.12 576.918 1423.73 576.918C1424.85 576.918 1425.9 576.568 1426.95 575.798C1427.58 575.378 1428.14 574.818 1428.77 574.048V560.327C1428.77 559.067 1428.56 558.227 1428.07 557.807C1427.58 557.387 1426.6 557.177 1425.13 557.107V556.267H1432.97V573.908C1432.97 575.028 1433.18 575.798 1433.53 576.218C1433.95 576.638 1434.79 576.848 1436.05 576.778V577.478C1435.14 577.758 1434.51 577.898 1434.09 578.038C1433.67 578.178 1432.97 578.388 1431.99 578.738C1431.57 578.878 1430.66 579.228 1429.26 579.788C1429.19 579.788 1429.12 579.788 1429.12 579.648C1429.12 579.578 1429.12 579.508 1429.12 579.368V575.308C1428 576.638 1427.02 577.688 1426.11 578.318C1424.71 579.298 1423.31 579.788 1421.77 579.788C1420.37 579.788 1419.04 579.298 1417.78 578.248C1416.52 577.198 1415.89 575.518 1415.89 573.138V560.117C1415.89 558.787 1415.61 557.877 1415.05 557.457C1414.7 557.177 1413.93 556.967 1412.74 556.827V556.127H1420.02L1419.95 556.267ZM1433.18 547.516C1433.18 547.516 1432.55 548.146 1432.06 548.496L1424.43 553.677H1422.4L1429.68 545.836C1429.68 545.836 1430.24 545.276 1430.66 544.996C1431.08 544.716 1431.43 544.576 1431.92 544.576C1432.41 544.576 1432.76 544.716 1433.11 545.066C1433.46 545.416 1433.6 545.836 1433.6 546.326C1433.6 546.816 1433.46 547.236 1433.18 547.586V547.516Z" fill="#ECECEC"/>
<path d="M1448.02 578.738C1449.77 578.598 1450.82 578.248 1451.31 577.828C1451.8 577.408 1452.01 576.148 1452.01 574.118V561.727C1452.01 560.607 1452.01 559.837 1451.8 559.417C1451.59 558.717 1451.03 558.367 1450.26 558.367C1450.05 558.367 1449.91 558.367 1449.77 558.367C1449.63 558.367 1449.14 558.577 1448.3 558.787V558.017L1449.35 557.667C1452.15 556.687 1454.18 555.917 1455.23 555.427C1455.72 555.217 1456 555.147 1456.07 555.147C1456.07 555.287 1456.07 555.427 1456.07 555.567V574.188C1456.07 576.148 1456.28 577.408 1456.77 577.898C1457.26 578.388 1458.24 578.738 1459.78 578.878V579.578H1448.02V578.878V578.738ZM1451.87 547.586C1452.36 547.026 1452.99 546.816 1453.69 546.816C1454.39 546.816 1454.95 547.096 1455.44 547.586C1455.93 548.076 1456.21 548.776 1456.21 549.477C1456.21 550.177 1455.93 550.877 1455.44 551.367C1454.95 551.857 1454.32 552.137 1453.69 552.137C1453.06 552.137 1452.36 551.857 1451.87 551.367C1451.38 550.877 1451.17 550.177 1451.17 549.477C1451.17 548.776 1451.38 548.076 1451.87 547.586Z" fill="#ECECEC"/>
<path d="M1471.68 578.738C1472.8 578.597 1473.64 578.247 1474.06 577.827C1474.55 577.337 1474.76 576.357 1474.76 574.747V561.587C1474.76 560.466 1474.69 559.696 1474.48 559.276C1474.2 558.646 1473.57 558.296 1472.59 558.296C1472.45 558.296 1472.31 558.296 1472.17 558.296C1472.03 558.296 1471.82 558.296 1471.61 558.366V557.456C1472.24 557.246 1473.85 556.686 1476.3 555.846L1478.61 555.076C1478.61 555.076 1478.82 555.076 1478.82 555.216C1478.82 555.286 1478.82 555.426 1478.82 555.566V559.416C1480.29 557.946 1481.48 556.896 1482.32 556.336C1483.58 555.496 1484.91 555.076 1486.24 555.076C1487.36 555.076 1488.34 555.426 1489.25 556.056C1491 557.386 1491.84 559.696 1491.84 563.057V575.167C1491.84 576.427 1492.05 577.337 1492.54 577.827C1493.03 578.388 1493.8 578.667 1494.85 578.667V579.368H1484.49V578.667C1485.68 578.527 1486.52 578.178 1486.94 577.617C1487.43 577.057 1487.64 575.937 1487.64 574.187V563.127C1487.64 561.657 1487.36 560.396 1486.87 559.416C1486.38 558.436 1485.4 557.946 1484 557.946C1483.02 557.946 1482.11 558.296 1481.13 558.996C1480.57 559.416 1479.87 560.046 1479.03 560.956V575.517C1479.03 576.777 1479.31 577.617 1479.8 578.037C1480.29 578.458 1481.13 578.668 1482.25 578.738V579.438H1471.68V578.738Z" fill="#ECECEC"/>
</g>
<defs>
<clipPath id="clip0_1222_2576">
<rect width="1331" height="523" fill="white" transform="translate(247 99)"/>
</clipPath>
</defs>
</svg>
