<svg width="1825" height="720" viewBox="0 0 1825 720" fill="none" xmlns="http://www.w3.org/2000/svg">
<path d="M88.3794 232.168C72.2621 227.563 30.1092 214.811 9.74118 199.402C1.41686 193.203 -1.77117 182.222 1.23975 172.127C7.2616 150.519 25.15 106.418 67.4801 115.628C67.4801 115.628 97.058 120.764 113.707 185.056C114.592 188.244 117.072 190.901 120.26 191.609L148.598 198.694C148.598 198.694 160.464 194.62 164.892 194.266C172.862 193.557 188.803 197.277 196.773 195.683C223.871 190.015 258.408 159.02 302.686 163.98C302.686 163.98 373 168.939 402.224 199.934C407.714 205.778 420.29 183.108 427.905 180.451C438.001 176.909 461.557 184.702 470.944 179.388C495.917 165.042 527.266 88.1751 562.157 108.543C562.157 108.543 609.269 136.173 595.986 185.41C595.986 185.41 593.86 215.165 507.783 224.375C507.783 224.375 476.966 223.312 478.028 255.193C478.028 255.193 482.102 318.776 428.791 322.85C428.791 322.85 360.248 335.956 360.957 258.204C360.957 258.204 312.25 212.331 290.288 234.648C290.288 234.648 273.286 250.234 266.732 254.13C255.751 260.683 225.996 278.218 253.449 303.368C253.449 303.368 274.88 325.507 290.288 323.204C290.288 323.204 324.648 320.193 335.452 323.381C355.466 329.049 389.118 356.679 403.11 372.088C407.006 376.515 413.205 389.622 426.311 368.014C437.824 348.886 482.81 412.646 483.165 442.933C483.165 453.56 496.625 471.802 497.511 482.96C498.042 489.159 496.448 500.672 495.385 506.516C493.437 518.206 494.146 543.356 488.124 553.629C475.195 576.299 450.93 612.253 393.723 609.065C393.723 609.065 347.496 608.179 332.264 609.419C323.586 610.128 306.76 614.378 298.259 615.087C284.267 616.504 242.114 615.087 242.114 615.087C242.114 615.087 204.743 615.972 195.002 615.087C189.511 614.556 174.456 606.94 174.456 606.94L136.554 599.678L108.393 595.604C101.663 594.719 94.9326 592.948 88.5565 590.645C73.8561 584.978 57.2075 574.705 52.6026 554.514C52.6026 554.514 41.2673 450.903 88.5565 440.63C88.5565 440.63 133.012 436.911 148.421 452.32C152.672 456.571 157.454 460.113 158.87 465.958L163.475 486.857C163.475 486.857 174.811 551.503 197.304 548.315L229.716 538.22C238.749 535.386 248.313 534.855 257.523 536.271L285.152 540.876C297.55 543.002 310.834 539.282 319.158 529.718C325.711 522.28 330.139 511.299 325.357 495.535C322.523 485.794 314.553 478.355 304.989 474.99L269.389 462.947C262.482 460.644 255.751 457.81 249.375 454.268C237.332 447.892 218.912 436.734 211.65 426.107C208.108 420.971 204.211 416.189 198.898 412.824C184.552 403.968 156.391 387.851 130.532 381.12C130.532 381.12 97.9435 374.744 77.5755 348.531C68.5428 336.842 63.9378 322.142 64.1149 307.441C64.292 290.261 68.897 270.956 80.2322 261.215C80.2322 261.215 90.859 253.776 94.7555 245.097C97.058 239.784 94.2242 233.762 88.5565 232.168H88.3794Z" fill="#ECECEC"/>
<path d="M518.41 268.829H548.697L562.334 262.985C562.334 262.985 605.727 262.808 620.959 262.985C624.324 262.985 632.648 268.829 632.648 268.829C632.648 268.829 642.744 269.892 643.452 272.726C645.755 281.582 643.452 309.388 643.452 309.388C643.452 314.17 643.806 319.13 644.692 323.912L648.057 344.457C648.411 346.228 648.411 347.822 648.411 349.593V370.669C648.411 377.931 653.371 384.13 660.455 385.724C669.665 387.849 682.417 389.621 693.044 386.255C698.18 384.661 701.368 379.525 701.368 374.035V311.691C701.368 311.691 687.376 267.767 710.224 262.808C734.665 257.494 794.53 266.704 806.928 270.601C806.928 270.601 843.059 284.238 835.266 314.525C835.266 314.525 827.296 341.446 826.41 350.656C825.525 359.866 826.41 378.817 828.358 388.027C829.421 393.34 835.443 402.904 836.329 408.395C841.819 442.932 827.65 518.736 858.645 546.189C865.552 552.21 862.541 575.589 832.255 575.589H798.958C790.633 575.589 782.486 573.464 775.224 569.213L772.568 567.619L753.971 571.516C738.562 574.704 722.09 571.693 709.693 561.952C696.232 551.325 685.959 533.968 703.139 508.464C705.619 504.744 707.567 500.848 708.453 496.42L711.287 483.136C713.058 474.989 712.703 466.488 710.224 458.518L709.693 456.924C707.213 448.776 700.306 442.755 691.981 441.869C688.97 441.515 685.605 441.338 682.063 441.338C665.591 441.338 651.599 453.558 648.411 469.676C646.995 476.76 647.703 484.022 650.36 490.752C651.422 493.586 651.777 496.774 651.068 499.785C648.766 509.703 649.651 520.153 653.902 529.363C659.57 541.761 666.477 558.587 663.82 562.483C659.215 569.568 640.441 572.224 627.689 567.442L614.051 563.546L581.285 564.431C577.743 564.431 574.024 564.963 570.659 566.025L550.645 571.339C540.549 573.995 529.923 566.911 529.391 556.461C529.214 552.033 529.568 546.897 531.34 541.229C533.819 533.082 535.059 524.581 533.996 516.079L528.506 474.458C528.152 471.978 527.797 469.499 527.089 467.196L514.16 415.479C512.388 408.04 511.326 400.602 511.326 392.986V324.62C511.326 319.484 509.732 314.347 506.898 310.097C502.824 304.075 497.511 295.573 496.625 290.969C495.209 283.353 500.522 268.475 518.056 268.475L518.41 268.829Z" fill="#ECECEC"/>
<path d="M1197.29 538.926C1193.03 535.561 1187.9 532.727 1182.94 530.071C1177.09 526.883 1172.31 522.101 1168.95 516.433L1148.22 481.896L1117.58 441.691C1114.22 437.263 1114.22 431.242 1117.76 426.991C1120.24 423.98 1123.61 421.323 1126.97 419.198C1132.82 415.478 1137.6 410.342 1140.43 403.966C1143.8 396.527 1145.39 388.38 1145.39 380.233C1145.39 375.805 1145.04 371.554 1143.97 367.127L1142.56 360.219C1141.14 354.374 1140.43 348.175 1140.43 342.154V323.911C1140.43 312.576 1134.94 301.949 1125.55 295.396L1115.99 288.843C1108.02 283.352 1098.46 280.518 1088.71 281.05H1085.35C1080.39 282.112 1075.08 281.404 1070.47 279.101L1064.98 276.268C1060.55 273.965 1055.59 272.902 1050.64 272.902H897.078C886.629 272.902 876.71 278.747 872.991 288.311C869.98 295.75 868.917 305.668 874.054 317.358C875.293 320.369 876.533 323.38 877.242 326.568C882.909 351.718 906.82 466.841 888.4 536.093C887.868 538.041 887.16 539.812 886.274 541.583C882.378 550.616 870.334 582.142 897.432 586.038C910.539 587.987 950.566 582.319 950.566 582.319C954.286 581.965 958.005 581.434 961.725 580.548L981.03 575.943C1002.28 577.891 1016.45 570.453 1016.45 570.453C1029.38 563.191 1018.58 541.229 1011.85 529.894C1008.84 525.112 1007.6 519.444 1008.13 513.776C1008.13 513.776 1008.13 484.198 1011.49 477.645C1013.09 474.634 1024.25 481.365 1024.25 481.365C1028.14 482.604 1031.33 485.792 1032.57 489.689V490.574C1034.7 497.305 1038.77 503.327 1044.26 507.4L1046.03 508.463C1049.4 510.942 1052.05 514.485 1053.82 518.558C1062.86 539.635 1072.6 553.45 1080.74 561.951C1089.25 571.161 1101.64 575.943 1114.22 575.943L1166.82 575.412C1179.75 577.183 1188.78 574.349 1194.81 570.453C1206.14 563.014 1207.73 547.428 1197.29 538.926ZM1053.29 369.252L1051.52 372.263C1047.62 378.639 1044.79 385.723 1043.02 392.985C1043.02 392.985 1043.2 397.236 1041.96 397.413C1029.56 400.424 1013.09 397.236 1013.09 397.236C1009.01 396.704 1005.83 390.86 1005.83 386.786V367.127C1005.83 356.677 1007.6 346.404 1011.14 336.486C1013.44 330.11 1019.64 325.328 1026.55 326.213C1036.47 327.453 1044.08 336.486 1044.08 336.486L1052.23 346.936C1057.19 353.489 1057.54 362.345 1053.29 369.252Z" fill="#ECECEC"/>
<path d="M1389.28 462.061C1377.23 456.925 1363.59 456.747 1351.2 460.821C1329.77 467.728 1307.45 479.949 1307.45 479.949C1282.83 487.919 1284.42 447.892 1285.66 434.254C1285.84 431.775 1287.97 430.003 1290.45 430.18C1320.73 433.369 1373.16 421.325 1373.16 421.325C1442.94 406.624 1403.44 337.019 1403.44 337.019C1379.36 287.959 1308.51 263.694 1308.51 263.694C1286.02 256.787 1257.15 268.299 1234.83 280.52C1198.88 300.357 1175.68 337.727 1174.97 378.818V379.172C1174.97 381.474 1174.26 383.6 1173.02 385.548L1169.48 390.507C1167 393.872 1165.94 397.946 1165.94 402.02C1165.94 406.093 1167.18 410.521 1169.83 414.063C1172.14 417.074 1172.67 420.794 1172.49 424.513C1169.83 455.685 1195.69 506.693 1195.69 506.693C1221.9 557.171 1312.05 551.503 1312.05 551.503C1365.54 552.034 1407.7 502.443 1407.7 502.443C1419.21 481.543 1403.09 467.728 1389.28 462.061ZM1271.5 352.428C1271.85 323.204 1295.58 316.297 1295.58 316.297C1321.62 313.109 1327.64 335.425 1328.88 348.177C1329.59 353.845 1326.75 359.512 1321.62 361.992C1309.22 368.014 1292.75 366.597 1282.3 365.003C1276.1 363.94 1271.5 358.627 1271.5 352.428Z" fill="#ECECEC"/>
<path d="M1805.14 602.156H1778.57C1777.33 602.156 1775.91 602.156 1774.67 602.156L1742.09 604.99C1739.78 605.167 1737.48 605.345 1735.18 605.345C1724.02 605.699 1687.18 607.116 1678.86 612.606C1678.86 612.606 1647.86 625.358 1636.53 596.312C1636.53 596.312 1630.5 584.268 1634.05 567.974C1635.29 561.952 1634.4 555.753 1631.39 550.262L1627.67 543.355C1625.9 540.167 1624.3 536.625 1623.07 533.082L1617.04 515.902C1615.8 512.537 1614.21 509.172 1612.08 506.338L1606.95 499.077C1605.89 497.66 1604.82 496.243 1603.76 495.003L1581.97 470.916C1581.97 470.916 1569.75 449.662 1556.65 464.362C1556.65 464.362 1546.02 484.908 1547.61 504.213C1547.61 504.213 1547.61 528.832 1563.91 541.761C1571.17 547.428 1569.93 559.295 1562.14 564.077C1557.18 567.265 1549.03 569.745 1536.28 570.099L1493.06 567.974C1489.88 567.974 1486.51 567.974 1483.32 567.974L1451.09 570.099C1439.93 570.807 1428.24 567.442 1420.45 559.472C1420.45 559.472 1420.27 559.295 1420.09 559.118C1414.78 553.627 1414.07 544.949 1417.61 538.219C1420.45 532.905 1425.41 525.821 1433.02 522.101C1435.68 520.862 1437.45 518.382 1437.45 515.548L1435.33 446.297C1435.33 440.452 1435.5 434.43 1436.56 428.586L1440.99 402.727C1442.06 395.997 1441.7 389.089 1439.75 382.536L1420.8 319.307C1420.8 319.307 1407.7 278.039 1424.52 275.028C1424.52 275.028 1521.4 257.494 1539.47 264.402C1539.47 264.402 1566.57 274.851 1549.21 301.064C1549.21 301.064 1536.1 371.909 1551.69 378.463C1551.69 378.463 1581.97 390.329 1606.59 349.947C1609.25 345.697 1610.31 340.737 1610.31 335.955V288.843C1610.31 280.873 1614.21 273.434 1620.76 269.184C1628.73 263.87 1637.06 259.62 1651.05 262.453L1694.97 261.214C1694.97 261.214 1734.65 251.827 1747.04 276.622C1747.04 276.622 1766.53 304.252 1733.23 319.838L1709.14 324.443C1705.25 325.151 1701.53 327.1 1698.52 329.756L1645.2 380.057C1645.2 380.057 1634.58 394.403 1650.69 398.831C1654.24 399.716 1657.25 402.196 1659.73 404.852C1659.73 404.852 1702.23 440.452 1707.37 454.621L1742.97 500.139L1795.75 552.388C1795.75 552.388 1829.58 577.538 1823.56 588.873C1823.56 588.873 1820.19 599.677 1804.78 601.979L1805.14 602.156Z" fill="#ECECEC"/>
</svg>
