<svg width="1825" height="720" viewBox="0 0 1825 720" fill="none" xmlns="http://www.w3.org/2000/svg">
<g clip-path="url(#clip0_963_22148)">
<path d="M320.925 367.363L395.183 294.981C395.877 294.356 396.919 294.356 397.614 294.981L454.227 349.163C454.227 349.163 454.783 349.927 454.783 350.413V471.212C454.783 471.698 454.575 472.115 454.227 472.462L373.162 551.791C373.162 551.791 372.398 552.277 371.982 552.277H322.176C321.203 552.277 320.439 551.513 320.439 550.54V368.613C320.439 368.127 320.647 367.71 320.995 367.363H320.925ZM407.269 369.655L370.662 338.396C369.55 337.424 367.814 338.257 367.814 339.716V506.639C367.814 507.611 368.578 508.375 369.55 508.375H406.158C407.131 508.375 407.895 507.611 407.895 506.639V370.975C407.895 370.489 407.686 370.002 407.269 369.655Z" fill="#ECECEC"/>
<path d="M550.227 340.063L595.101 297.065C596.212 296.023 598.019 296.787 598.019 298.315V347.635C598.019 349.233 600.033 349.997 601.075 348.746L647.477 295.328C648.172 294.564 649.422 294.564 650.117 295.328L684.71 335.409C684.71 335.409 685.127 336.104 685.127 336.521V504.555C685.127 505.527 685.891 506.291 686.863 506.291H711.176C712.565 506.291 713.399 507.82 712.635 509.001L684.363 551.443C684.015 551.929 683.529 552.207 682.904 552.207H638.03C637.057 552.207 636.293 551.443 636.293 550.471V364.376C636.293 363.959 636.154 363.542 635.877 363.264L618.441 343.189C617.746 342.425 616.566 342.356 615.871 343.189L598.505 361.25C598.505 361.25 598.019 362.014 598.019 362.431V550.471C598.019 551.443 597.254 552.207 596.282 552.207H551.408C550.435 552.207 549.671 551.443 549.671 550.471V341.244C549.671 340.758 549.88 340.341 550.227 339.994V340.063Z" fill="#ECECEC"/>
<path d="M1435.83 340.063L1480.7 297.065C1481.81 296.023 1483.62 296.787 1483.62 298.315V347.635C1483.62 349.233 1485.63 349.997 1486.68 348.746L1533.08 295.328C1533.77 294.564 1535.02 294.564 1535.72 295.328L1570.31 335.409C1570.31 335.409 1570.73 336.104 1570.73 336.521V504.555C1570.73 505.527 1571.49 506.291 1572.46 506.291H1596.78C1598.17 506.291 1599 507.82 1598.24 509.001L1569.96 551.443C1569.62 551.929 1569.13 552.207 1568.5 552.207H1523.63C1522.66 552.207 1521.89 551.443 1521.89 550.471V364.376C1521.89 363.959 1521.76 363.542 1521.48 363.264L1504.04 343.189C1503.35 342.425 1502.17 342.356 1501.47 343.189L1484.11 361.25C1484.11 361.25 1483.62 362.014 1483.62 362.431V550.471C1483.62 551.443 1482.86 552.207 1481.88 552.207H1437.01C1436.04 552.207 1435.27 551.443 1435.27 550.471V341.244C1435.27 340.758 1435.48 340.341 1435.83 339.994V340.063Z" fill="#ECECEC"/>
<path d="M811.552 443.218L893.589 371.739C894.353 371.114 894.353 369.933 893.659 369.238L863.442 338.674C862.33 337.563 860.455 338.327 860.455 339.924V369.586C860.455 370.558 859.691 371.322 858.718 371.322H816.762C813.775 371.322 811.344 368.891 811.274 365.904C811.274 363.751 812.177 361.736 813.775 360.347L889.421 295.05C890.116 294.425 891.158 294.495 891.783 295.189L943.256 349.719C943.256 349.719 943.743 350.483 943.743 350.9V507.264C943.673 508.236 944.437 509.001 945.34 509.001H970.278C971.737 509.001 972.501 510.668 971.667 511.779L940.617 551.513C940.269 551.93 939.783 552.207 939.227 552.207H896.576C895.604 552.207 894.84 551.443 894.84 550.471V519.768C894.84 518.239 893.034 517.475 891.922 518.517L855.87 551.721C855.87 551.721 855.106 552.207 854.689 552.207H812.524C811.552 552.207 810.788 551.443 810.788 550.471V444.607C810.788 444.121 810.996 443.635 811.413 443.287L811.552 443.218ZM892.061 385.562L858.371 416.543C858.024 416.891 857.815 417.308 857.815 417.794V506.778C857.815 507.75 858.579 508.514 859.552 508.514L893.242 507.889C894.214 507.889 894.979 507.125 894.979 506.153V386.813C894.979 385.285 893.173 384.52 892.061 385.562Z" fill="#ECECEC"/>
<path d="M1069.26 259.276L1114.49 213.291C1115.6 212.179 1117.47 212.943 1117.47 214.541V302.761C1117.47 303.733 1118.24 304.497 1119.21 304.497H1162.9C1164.43 304.497 1165.19 306.373 1164.15 307.484L1117.96 353.817C1117.96 353.817 1117.47 354.581 1117.47 355.067V505.388C1117.47 506.361 1118.24 507.125 1119.21 507.125H1156.86C1158.32 507.125 1159.08 508.723 1158.25 509.903L1127.41 551.513C1127.06 551.929 1126.57 552.207 1126.02 552.207H1070.45C1069.47 552.207 1068.71 551.443 1068.71 550.471V260.526C1068.71 260.04 1068.92 259.623 1069.2 259.276H1069.26Z" fill="#ECECEC"/>
<path d="M1258.42 235.728L1302.53 195.716C1303.64 194.674 1305.44 195.508 1305.44 197.036V252.538C1305.44 253.024 1305.23 253.511 1304.82 253.858L1260.71 291.438C1259.6 292.411 1257.86 291.577 1257.86 290.118V237.048C1257.86 236.561 1258.07 236.075 1258.42 235.728ZM1334.13 512.96L1305.1 551.582C1304.75 551.999 1304.26 552.277 1303.71 552.277H1259.67C1258.69 552.277 1257.93 551.513 1257.93 550.54V345.968C1257.93 345.481 1258.14 345.065 1258.49 344.717L1302.6 303.247C1303.71 302.205 1305.51 302.969 1305.51 304.497V508.584C1305.51 509.556 1306.28 510.32 1307.25 510.32L1332.81 510.181C1334.27 510.181 1335.1 511.849 1334.2 512.96H1334.13Z" fill="#ECECEC"/>
<path d="M1693.68 372.156L1769.4 297.273C1770.16 296.509 1771.41 296.648 1772.04 297.482L1824.34 370.002C1824.83 370.628 1824.76 371.531 1824.2 372.156L1742.44 465.03C1742.44 465.03 1742.03 465.724 1742.03 466.211V507.681C1742.03 508.653 1742.79 509.417 1743.76 509.417L1810.66 508.653C1812.19 508.653 1813.02 510.529 1811.91 511.64L1772.04 551.791C1772.04 551.791 1771.27 552.277 1770.79 552.277H1694.79C1693.82 552.277 1693.05 551.513 1693.05 550.54V373.406C1693.05 372.92 1693.26 372.503 1693.54 372.156H1693.68ZM1743 344.787L1742.44 443.426C1742.44 445.024 1744.39 445.788 1745.5 444.607L1784.75 401.192C1785.3 400.567 1785.37 399.664 1784.89 399.038L1746.26 343.814C1745.29 342.425 1743.14 343.12 1743.14 344.787H1743Z" fill="#ECECEC"/>
<path d="M226.245 195.647C226.106 194.744 225.62 193.98 224.787 193.563C223.258 192.729 221.105 193.563 220.063 195.508L212.422 209.54C211.311 211.624 208.601 212.249 206.656 210.929L145.528 168.278C144.833 167.792 143.93 167.861 143.305 168.486L47.7915 262.194C47.7915 262.194 47.3052 262.958 47.3052 263.444V375.907C47.3052 376.462 47.5831 377.018 48.0693 377.366L100.445 411.403C101.21 411.889 101.487 412.931 101.001 413.695L54.3906 497.886C54.3906 497.886 54.1822 498.164 54.0433 498.303L0.555716 549.637C-0.555713 550.748 0.208394 552.624 1.73661 552.624H133.788C134.205 552.624 134.691 552.485 134.969 552.138L221.105 471.003C221.452 470.656 221.661 470.239 221.661 469.753V348.955C221.661 348.329 221.383 347.843 220.897 347.496L165.395 311.861C164.63 311.374 164.353 310.332 164.839 309.568L215.687 217.042L225.829 198.495C226.384 197.522 226.523 196.48 226.315 195.577L226.245 195.647ZM126.703 501.22H65.0881C63.7683 501.22 62.9347 499.831 63.5599 498.65L125.175 387.438C126.078 385.84 128.44 386.465 128.44 388.271V499.484C128.44 500.456 127.675 501.22 126.703 501.22ZM125.73 361.25L97.9447 343.05C97.4585 342.703 97.1806 342.217 97.1806 341.591V224.405C97.1806 223.988 97.3195 223.571 97.6669 223.224L109.684 210.373C110.309 209.748 111.282 209.609 111.977 210.165L127.745 221.349C128.231 221.696 128.509 222.182 128.509 222.738V359.861C128.509 361.25 126.981 362.083 125.8 361.319L125.73 361.25ZM169.007 379.38V499.484C169.007 500.456 168.243 501.22 167.27 501.22H138.512C137.539 501.22 136.775 500.456 136.775 499.484V363.959C136.775 362.639 138.165 361.805 139.345 362.431L168.104 377.852C168.659 378.13 169.007 378.755 169.007 379.38ZM136.775 337.771V229.406C136.775 228.017 138.373 227.184 139.484 228.017L182.205 258.443C182.9 258.929 183.177 259.901 182.691 260.665L139.971 338.604C139.137 340.202 136.706 339.577 136.706 337.771H136.775Z" fill="#ECECEC"/>
</g>
<defs>
<clipPath id="clip0_963_22148">
<rect width="1824.62" height="384.624" fill="white" transform="translate(0 168)"/>
</clipPath>
</defs>
</svg>
