<svg width="1825" height="720" viewBox="0 0 1825 720" fill="none" xmlns="http://www.w3.org/2000/svg">
<g clip-path="url(#clip0_1214_2468)">
<path d="M263.574 442.936V441.349C267.653 441.122 270.826 440.216 273.546 439.083C276.265 437.95 278.078 436.59 278.985 435.23C278.985 435.003 279.438 434.323 279.438 433.19C279.438 432.284 279.665 431.151 279.891 429.791C279.891 428.431 279.891 427.071 280.118 425.711C280.118 424.352 280.118 422.992 280.118 421.632C280.118 418.006 280.118 414.38 280.118 410.754V385.144H216.434V419.819C216.434 422.992 216.434 425.938 216.434 428.884C216.434 431.83 217.114 433.87 217.794 435.003C219.154 436.816 220.967 438.176 223.233 439.309C225.5 440.216 227.993 440.896 230.259 441.122V442.709H182.666V441.122C185.386 440.669 187.879 439.989 190.372 438.856C192.864 437.95 194.678 436.59 196.037 435.003C196.491 434.55 196.717 433.644 197.17 432.284C197.397 431.151 197.624 429.564 197.85 427.978C197.85 426.391 198.077 424.578 198.304 422.765C198.304 420.952 198.304 419.139 198.304 417.326C198.304 415.74 198.304 413.7 198.304 411.207C198.304 408.714 198.304 405.768 198.304 402.822C198.304 399.649 198.304 396.702 198.304 393.303V346.617C198.304 344.577 198.304 342.764 198.077 341.177C198.077 339.591 197.624 338.005 197.397 336.645C197.171 335.285 196.491 334.152 196.037 333.472C194.451 331.659 192.638 330.299 190.372 329.619C188.105 328.939 185.612 328.259 182.893 328.033V326.446H230.939V328.033C229.352 328.033 227.766 328.486 226.179 328.939C224.366 329.393 222.78 330.072 221.42 330.979C220.06 331.885 218.927 333.245 217.794 334.832C216.888 336.418 216.208 338.458 216.208 340.951C216.208 344.804 216.208 348.883 215.981 353.189C215.754 357.495 215.981 361.801 215.981 365.654V381.971H279.665V355.909C279.665 353.189 279.665 350.016 279.665 346.39C279.665 344.35 279.438 342.311 279.212 340.044C279.212 337.778 278.532 335.965 277.625 334.605C275.585 331.659 273.546 329.846 271.053 329.166C268.56 328.486 266.067 328.033 263.574 328.033V326.446H312.073V328.033C309.58 328.259 306.861 329.166 304.594 330.299C302.328 331.432 300.288 333.019 299.155 335.285C298.702 335.965 298.475 337.098 298.249 338.458C298.249 339.818 297.795 341.404 297.795 342.99C297.795 344.577 297.795 346.39 297.795 347.976V400.782C297.795 403.728 297.795 406.901 297.795 410.074C297.795 413.247 297.795 416.873 297.795 420.725C297.795 423.898 297.795 426.618 298.022 429.338C298.022 432.057 298.475 433.87 299.155 434.777C300.515 437.043 302.328 438.403 304.821 439.309C307.314 440.216 309.807 440.669 312.527 441.122V442.709H262.894L263.574 442.936Z" fill="#ECECEC"/>
<path d="M423.577 442.935H324.765V441.349C327.484 440.896 329.977 440.216 332.244 439.309C334.51 438.403 336.55 437.043 337.909 435.23C338.363 434.55 338.816 433.643 339.269 432.51C339.496 431.377 339.949 429.791 340.176 428.204C340.402 426.618 340.629 424.805 340.629 423.218C340.629 421.405 340.629 419.592 340.629 418.006C340.629 416.419 340.629 414.38 340.629 411.887C340.629 409.394 340.629 406.447 340.629 403.501C340.629 400.328 340.629 397.382 340.629 393.983V353.189C340.629 351.149 340.629 349.336 340.629 347.296C340.629 345.257 340.629 343.217 340.402 341.404C340.402 339.591 339.949 338.004 339.496 336.418C339.043 335.058 338.589 333.925 337.909 333.245C336.323 331.432 334.51 330.526 332.697 329.846C330.884 329.392 328.391 328.939 325.671 328.486V326.899H414.738L425.616 353.642L424.03 354.549C415.418 343.67 407.032 336.418 399.553 332.565C397.74 331.659 394.341 330.979 389.355 330.299C384.369 329.619 378.477 329.392 371.224 329.392C368.958 329.392 366.692 329.392 364.199 329.619C361.706 329.619 360.119 330.072 358.986 330.072C358.986 331.885 358.533 335.285 358.533 340.724C358.533 346.163 358.306 352.282 358.306 359.535V369.96C358.306 372.679 358.306 374.946 358.306 376.759C358.306 378.572 358.306 379.931 358.306 380.838V382.651H361.479C363.066 382.651 364.879 382.651 367.145 382.651C369.185 382.651 371.451 382.424 373.491 382.198C375.53 382.198 377.343 381.745 378.703 381.518C381.876 380.838 384.596 379.705 386.862 378.345C389.128 376.985 390.715 375.399 392.075 373.586C393.434 371.773 394.568 369.733 395.247 367.24C395.927 364.747 396.834 362.027 397.514 359.081H399.553V409.847H397.514C396.607 406.447 395.248 402.821 393.661 399.195C391.848 395.569 390.035 392.85 387.995 391.036C386.182 389.45 384.142 388.317 381.876 387.41C379.383 386.504 376.664 385.824 373.491 385.597C371.904 385.597 370.545 385.597 369.411 385.371C368.278 385.144 367.145 385.371 366.238 385.371H358.76C358.76 386.957 358.533 388.997 358.533 391.943V411.207C358.533 413.02 358.533 414.606 358.533 416.193C358.533 417.779 358.533 419.139 358.533 420.045C358.533 423.445 358.76 426.844 358.986 429.791C359.213 432.964 359.893 435.23 360.799 436.59C361.706 438.176 364.199 439.083 367.825 439.763C371.451 440.442 375.53 440.669 379.836 440.669C381.65 440.669 383.916 440.669 386.862 440.669C389.808 440.669 392.755 440.216 395.927 439.763C399.327 439.309 402.5 438.403 405.446 437.27C408.392 436.136 411.112 434.323 413.831 432.057C416.551 429.791 419.044 427.071 421.764 423.672C424.256 420.272 426.976 416.419 429.696 411.887L431.509 412.34L423.35 443.162L423.577 442.935Z" fill="#ECECEC"/>
<path d="M535.533 442.935H431.962V441.349C434.682 440.896 437.401 440.216 439.894 439.309C442.614 438.403 444.653 437.043 446.013 435.23C446.466 434.55 446.92 433.643 447.373 432.51C447.826 431.377 448.053 429.791 448.279 428.204C448.279 426.618 448.733 424.805 448.733 423.218C448.733 421.405 448.959 419.592 448.959 418.006C448.959 416.419 448.959 414.38 448.959 411.887C448.959 409.394 448.959 406.448 448.959 403.501C448.959 400.328 448.959 397.382 448.959 393.983V347.75C448.959 345.71 448.959 343.897 448.733 342.311C448.733 340.724 448.279 339.138 448.053 337.778C447.826 336.418 447.146 335.512 446.693 334.605C445.107 332.792 443.067 331.432 440.574 330.299C438.081 329.392 435.361 328.713 432.642 328.259V326.673H484.087V328.259C482.728 328.259 480.915 328.713 479.102 329.166C477.062 329.619 475.249 330.299 473.662 331.206C471.849 332.112 470.49 333.472 469.13 335.285C467.997 337.098 467.317 339.364 467.09 342.311C467.09 346.163 467.09 349.563 466.863 352.736C466.863 355.908 466.863 358.855 466.863 362.028C466.863 364.974 466.863 368.147 466.863 371.319V400.782C466.863 403.501 466.863 406.448 466.863 409.394C466.863 412.34 466.863 415.74 466.863 419.366C466.863 422.765 467.09 426.165 467.317 429.111C467.317 432.284 467.997 434.55 468.903 436.136C469.356 436.59 470.263 437.27 471.396 437.723C472.756 438.176 474.342 438.629 476.155 439.083C477.968 439.536 480.008 439.763 482.048 439.989C484.314 440.216 486.354 440.442 488.62 440.442C489.527 440.442 490.886 440.442 492.699 440.442C494.513 440.442 496.552 440.442 498.819 440.216C501.085 440.216 503.351 439.763 505.844 439.536C508.337 439.309 510.377 438.856 512.19 438.176C516.496 437.043 520.122 435.457 522.842 433.417C525.788 431.377 528.054 429.337 530.094 426.618C532.134 424.125 533.947 421.405 535.306 418.459C536.666 415.513 538.026 412.34 539.386 409.167L540.972 409.62L535.08 442.935H535.533Z" fill="#ECECEC"/>
<path d="M646.583 442.935V441.122C651.116 441.122 655.195 439.988 658.141 438.175C661.088 436.362 663.354 434.549 664.487 432.283C665.167 430.923 665.62 429.11 665.847 427.07C666.074 425.031 666.3 422.764 666.527 420.725C666.527 413.699 666.754 406.9 666.754 400.328V334.604C663.127 342.536 659.955 349.789 657.008 356.588C654.062 363.16 651.116 369.732 648.17 376.078C645.223 382.424 642.277 388.996 639.331 395.568C636.385 402.141 633.212 409.393 629.586 417.552C629.132 418.685 628.226 420.271 627.319 422.538C626.413 424.804 625.28 427.297 624.373 429.563C623.467 432.056 622.56 434.096 621.654 436.136C620.747 438.175 620.294 439.535 620.067 439.988H619.161C615.761 432.056 612.362 424.124 608.962 416.192C605.563 408.26 602.163 400.781 598.99 393.529C595.817 386.276 592.645 379.478 589.925 373.132C587.205 366.786 584.712 361.12 582.446 356.134C580.18 351.148 578.367 347.069 576.78 343.67C575.421 340.27 574.287 338.004 573.834 336.871C573.834 343.896 573.834 350.242 573.834 355.681C573.834 361.12 573.834 366.559 573.834 371.772C573.834 377.211 573.834 382.65 573.834 388.543V409.166C573.834 414.152 573.834 418.685 574.287 422.311C574.514 425.937 575.421 429.11 576.78 431.603C578.14 434.096 579.953 436.136 582.673 437.495C585.392 438.855 589.019 439.988 593.551 440.668V442.255H551.397V440.668C555.25 439.988 558.196 438.855 560.689 437.269C563.182 435.682 564.995 433.869 566.355 431.15C567.715 428.657 568.848 425.257 569.528 421.631C570.208 417.778 570.661 413.246 570.661 407.58C570.661 403.047 571.115 397.381 571.115 391.262C571.115 385.143 571.115 378.118 571.115 371.092V350.695C571.115 348.655 571.115 345.936 571.115 342.763C571.115 339.817 570.435 337.324 569.075 335.511C567.942 333.698 566.582 332.111 564.769 330.978C563.182 329.845 561.369 329.165 559.556 328.712C557.743 328.259 556.157 327.805 554.797 327.579V325.992H589.245L627.773 413.926C632.532 403.727 637.065 393.529 641.597 383.33C646.13 373.132 650.209 364.066 653.835 355.908C657.462 347.749 660.408 340.95 662.674 335.511C664.94 330.072 666.3 326.899 666.527 325.992H700.975V327.579C696.669 327.579 693.27 328.485 690.777 330.298C688.51 332.111 686.924 334.151 686.017 336.417C685.337 338.23 684.884 341.177 684.657 345.029C684.657 348.882 684.204 352.735 684.204 356.588C684.204 361.8 684.204 366.786 684.204 371.545V403.727C684.204 409.393 684.204 415.512 684.204 421.858C684.204 423.898 684.204 425.937 684.657 427.977C684.884 430.017 685.337 431.83 686.017 432.963C686.017 432.963 686.471 433.643 687.15 434.549C687.83 435.456 688.737 436.136 690.097 437.042C691.456 437.949 693.043 438.855 694.856 439.535C696.669 440.215 699.162 440.668 701.655 440.668V442.255H646.357L646.583 442.935Z" fill="#ECECEC"/>
<path d="M782.109 442.935V441.349C782.109 441.349 783.243 441.349 784.376 441.122C785.509 441.122 786.869 440.442 788.229 439.989C789.588 439.536 790.721 438.629 791.855 437.723C792.761 436.816 793.441 435.456 793.441 434.096C793.441 433.19 793.215 431.603 792.535 429.337C791.855 427.071 791.175 424.351 790.042 421.178C788.908 418.005 787.775 414.379 786.416 410.527C785.056 406.674 783.469 402.594 781.883 398.515H738.823C737.236 402.594 735.65 406.447 734.063 410.3C732.477 413.926 731.117 417.779 729.531 421.632C727.264 427.524 726.131 431.603 726.131 433.87C726.131 435.23 726.584 436.363 727.491 437.269C728.397 438.176 729.531 438.856 730.89 439.536C732.25 440.215 733.61 440.442 735.196 440.895C736.783 441.122 738.143 441.349 739.729 441.575V443.162H705.281V441.349C708.001 441.122 710.494 440.215 712.533 439.082C714.573 437.949 715.706 437.043 715.933 436.589C716.613 435.909 717.972 434.096 719.559 431.377C721.372 428.657 723.412 424.351 725.905 418.912C728.171 413.926 730.664 408.034 733.383 401.688C736.103 395.342 739.049 388.543 741.996 381.744C744.942 374.945 747.888 367.92 750.834 361.121C753.78 354.095 756.5 347.749 758.993 341.63L757.406 338.004C759.446 337.098 761.033 336.191 762.619 334.831C764.206 333.698 765.565 332.338 766.698 331.205C767.832 329.845 768.965 328.712 769.645 327.579C770.551 326.446 771.004 325.539 771.458 324.633H772.817C776.217 333.471 779.39 342.084 782.336 350.016C785.282 357.948 788.229 365.653 790.948 373.132C793.668 380.611 796.387 387.863 798.88 394.662C801.373 401.688 804.093 408.487 806.586 415.286C807.719 418.685 808.852 421.405 809.985 423.671C811.118 425.938 812.252 428.431 813.385 431.15C813.385 431.603 814.065 432.283 814.745 433.417C815.424 434.55 816.558 435.683 817.691 436.816C818.824 437.949 820.41 438.856 822.223 439.762C824.036 440.669 826.303 441.122 828.796 441.122V443.162H781.656L782.109 442.935ZM760.806 345.03C760.126 346.39 759.22 348.656 758.086 351.602C756.953 354.548 755.367 358.174 753.554 362.48C751.741 366.786 749.701 371.546 747.435 376.985C745.168 382.424 742.902 388.317 740.182 394.662H780.296C778.483 389.903 776.67 384.917 774.631 380.158C772.818 375.399 771.004 370.639 769.191 366.107C767.378 361.574 765.792 357.495 764.432 353.868C763.072 350.242 761.713 347.069 760.806 344.803V345.03Z" fill="#ECECEC"/>
<path d="M171.108 320.553C169.975 317.833 168.388 314.887 166.802 311.941C165.215 308.995 163.402 306.275 161.589 303.556C159.776 301.063 158.19 298.57 156.377 296.303C154.79 294.037 153.204 292.451 152.071 291.317C148.898 288.371 145.498 286.331 141.645 285.198C138.019 284.292 133.26 283.612 127.368 283.385C124.421 283.385 121.928 283.385 119.889 283.385C117.849 283.385 115.583 283.385 113.543 283.385H98.5852C98.5852 287.238 98.5852 292.451 98.5852 298.796C98.5852 305.369 98.5852 312.168 98.5852 319.193V408.26C98.5852 412.566 98.5852 416.872 99.0385 420.951C99.2651 425.031 99.945 427.75 101.305 429.563C103.571 432.963 106.744 435.229 111.05 436.362C115.129 437.495 118.982 438.402 122.382 439.082V441.348H48.2728V439.082C52.1255 438.629 55.9783 437.949 59.6044 436.816C63.2305 435.682 66.8567 433.189 70.2561 429.337C70.936 428.657 71.6159 427.297 72.0692 425.484C72.5225 423.671 72.7491 421.858 72.9757 419.591C72.9757 417.325 73.429 415.059 73.429 412.339C73.429 409.846 73.429 407.353 73.429 404.86C73.429 402.821 73.429 399.874 73.429 396.475C73.429 393.075 73.429 388.996 73.6556 384.917C73.8823 380.837 73.6556 376.305 73.6556 371.772V283.612H58.6979C56.6582 283.612 54.6185 283.612 52.3522 283.612C50.0858 283.612 47.5929 283.612 44.6467 283.612C38.9808 283.612 34.2215 284.518 30.3688 285.652C26.7427 286.785 23.1165 289.051 19.9437 291.997C18.8105 293.13 17.2241 294.717 15.6377 296.757C14.0512 298.796 12.4648 301.289 10.6517 303.782C8.83869 306.275 7.25226 308.995 5.66583 311.941C4.0794 314.887 2.7196 317.607 1.81307 320.326L-0.226624 319.646L6.79899 276.586C10.1985 277.266 13.598 277.946 16.5442 278.399C19.4904 278.853 23.7964 279.079 29.4623 279.306C35.1281 279.306 40.3406 279.532 44.8733 279.759C49.4059 279.986 53.9386 279.759 58.018 279.759H101.305C105.837 279.759 110.37 279.759 114.45 279.759C118.529 279.759 123.062 279.759 127.594 279.759C132.127 279.759 137.339 279.759 143.005 279.759C147.991 279.759 152.071 279.306 155.47 278.399C158.87 277.493 162.042 276.813 165.669 275.68L172.921 320.1L170.881 320.78L171.108 320.553Z" fill="#ECECEC"/>
<path d="M1286.82 441.802H1140.64V439.535C1144.5 438.856 1148.12 437.949 1151.97 436.589C1155.6 435.229 1158.55 433.416 1160.81 430.923C1161.49 430.017 1162.17 428.657 1162.85 426.844C1163.31 425.031 1163.76 422.991 1164.21 420.725C1164.44 418.459 1164.89 415.966 1165.12 413.473C1165.35 410.98 1165.57 408.487 1165.57 405.994C1165.57 403.954 1165.57 401.008 1165.57 397.382C1165.57 393.756 1165.57 389.676 1165.8 385.37C1166.03 381.064 1165.8 376.532 1165.8 371.999V306.955C1165.8 304.236 1165.8 301.743 1165.35 299.25C1165.35 296.984 1164.89 294.717 1164.44 292.904C1163.99 291.091 1163.31 289.731 1162.4 288.598C1160.36 286.105 1157.41 284.065 1153.79 282.706C1150.16 281.346 1146.53 280.439 1142.46 279.986V277.72H1215.2V279.986C1213.16 280.213 1210.9 280.666 1208.18 281.346C1205.46 282.026 1202.97 282.932 1200.47 284.292C1197.98 285.652 1195.94 287.692 1194.13 290.185C1192.31 292.677 1191.41 296.077 1191.18 300.156C1191.18 305.369 1190.95 310.355 1190.73 314.661C1190.5 318.967 1190.73 323.5 1190.73 327.579C1190.73 331.885 1190.73 336.191 1190.73 340.724V382.197C1190.73 386.05 1190.73 390.13 1190.73 394.436C1190.73 398.515 1190.73 403.274 1190.73 408.487C1190.73 413.246 1191.18 418.005 1191.18 422.311C1191.41 426.617 1192.31 430.017 1193.67 432.057C1194.35 432.736 1195.49 433.643 1197.3 434.323C1199.11 435.003 1201.38 435.683 1203.87 436.363C1206.37 437.043 1209.31 437.269 1212.26 437.722C1215.2 438.176 1218.38 438.176 1221.32 438.176C1222.46 438.176 1224.5 438.176 1227.22 438.176C1229.94 438.176 1232.88 437.949 1236.05 437.722C1239.23 437.496 1242.4 437.043 1245.8 436.589C1249.2 436.136 1252.15 435.456 1254.64 434.776C1260.76 433.19 1265.74 430.923 1269.82 428.204C1273.9 425.484 1277.3 422.311 1280.25 418.685C1283.19 415.059 1285.46 411.206 1287.5 407.127C1289.54 403.048 1291.35 398.515 1293.17 393.982L1295.43 394.662L1287.05 441.575L1286.82 441.802Z" fill="#ECECEC"/>
<path d="M1073.11 339.137C1066.08 343.217 1059.51 348.202 1053.39 353.868C1047.27 359.761 1041.15 366.106 1035.26 373.132C1029.37 380.158 1023.02 387.183 1016.45 394.209C1018.71 396.928 1021.43 400.101 1024.38 403.727C1027.33 407.354 1031.18 411.206 1035.48 415.512C1039.79 419.592 1044.1 422.991 1048.4 425.484C1052.71 427.977 1058.15 429.337 1064.72 429.337C1068.12 429.337 1071.07 428.657 1074.01 427.524C1076.96 426.391 1079.68 424.804 1082.17 422.991C1084.66 421.178 1086.93 419.138 1088.97 417.099C1091.01 415.059 1092.6 413.019 1093.73 411.206L1096 412.113C1094.86 415.059 1092.82 418.685 1089.65 422.538C1086.7 426.391 1082.85 430.017 1078.55 433.416C1074.24 436.816 1069.48 439.535 1064.04 441.575C1058.6 443.615 1053.16 444.748 1047.27 444.748C1041.83 444.748 1036.84 443.841 1032.09 442.028C1027.55 440.215 1023.02 437.949 1019.17 434.776C1015.09 431.83 1011.46 428.204 1007.84 424.351C1004.21 420.498 1001.26 416.419 998.317 412.339C996.277 415.286 993.104 418.459 989.478 422.085C985.852 425.711 981.32 429.11 976.107 432.283C971.121 435.456 965.455 438.176 959.336 440.215C953.217 442.255 946.871 443.388 940.072 443.388C932.367 443.388 925.568 442.255 919.449 440.215C913.33 438.176 908.117 435.229 904.038 431.603C899.958 427.977 896.786 423.445 894.519 418.459C892.253 413.473 891.12 408.26 891.12 402.821C891.12 396.475 892.48 390.583 895.426 385.144C898.372 379.704 902.225 374.945 906.757 370.639C911.517 366.333 916.729 362.48 922.395 359.081C928.288 355.681 933.953 352.735 939.619 350.015C935.993 346.616 932.594 343.443 929.421 340.497C926.248 337.777 923.528 334.831 921.262 331.658C918.996 328.712 917.183 325.313 915.596 321.686C914.236 318.06 913.556 313.754 913.556 308.768C913.556 303.782 914.916 299.25 917.409 294.944C919.902 290.864 923.302 287.238 927.381 284.292C931.46 281.346 935.993 279.079 940.979 277.266C945.965 275.453 951.177 274.773 956.163 274.773C960.696 274.773 965.002 275.453 969.308 276.586C973.614 277.72 977.467 279.533 980.866 282.026C984.266 284.292 986.985 287.465 989.252 291.091C991.291 294.717 992.425 299.023 992.425 303.782C992.425 308.542 991.291 313.074 989.025 316.927C986.759 320.78 984.039 324.406 980.866 327.352C977.693 330.298 974.747 332.791 971.574 334.831C968.401 336.871 966.135 338.231 964.322 339.137C969.535 342.763 974.067 346.616 978.373 350.695C982.679 354.775 986.985 358.854 991.065 363.16C995.597 367.919 999.903 372.905 1003.76 377.891C1007.61 382.877 1011.01 387.637 1013.73 391.716C1017.58 387.41 1021.21 382.877 1024.61 378.571C1028.01 374.265 1030.95 369.959 1033.45 366.106C1035.94 362.254 1037.98 358.628 1039.56 355.228C1041.15 352.055 1041.83 349.336 1041.83 347.296C1041.83 343.896 1040.92 341.403 1038.88 339.59C1037.07 337.777 1034.35 336.418 1031.41 335.511C1028.23 334.604 1024.83 333.925 1020.98 333.698C1017.13 333.698 1013.27 333.245 1009.65 333.245V330.525L1096.22 328.712V331.432C1087.61 332.565 1079.9 335.058 1072.88 339.137H1073.11ZM990.385 400.781C988.345 398.062 986.306 395.569 984.266 393.076C982.226 390.583 979.96 388.09 977.467 385.37C974.974 382.651 972.481 379.704 969.308 376.305C967.722 374.492 965.682 372.452 963.189 370.186C960.696 367.919 958.203 365.653 955.71 363.387C953.217 361.12 950.724 359.081 948.231 357.041C945.738 355.001 943.699 353.415 942.112 352.055C939.393 354.095 936.446 356.588 933.5 359.534C930.554 362.48 927.834 365.653 925.341 369.053C922.848 372.452 920.809 376.305 919.222 380.611C917.636 384.69 916.956 389.223 916.956 393.756C916.956 398.288 917.862 402.594 919.449 406.674C921.035 410.753 923.528 414.379 926.701 417.552C929.874 420.725 933.5 422.991 937.806 424.804C942.112 426.617 946.871 427.524 951.857 427.524C956.843 427.524 961.602 427.071 965.455 426.391C969.535 425.711 973.161 424.578 976.56 422.991C979.96 421.631 983.133 419.818 986.306 417.552C989.478 415.286 992.651 412.793 996.277 409.847C994.238 406.447 991.971 403.274 990.158 400.555L990.385 400.781ZM972.934 298.117C971.801 294.717 970.441 291.771 968.402 289.051C966.362 286.332 964.095 284.292 961.149 282.479C958.203 280.666 955.257 279.986 952.084 279.986C949.138 279.986 946.645 280.666 944.378 281.799C942.112 282.932 940.526 284.519 939.166 286.332C937.806 288.145 936.9 290.184 936.22 292.224C935.54 294.264 935.313 296.304 935.313 298.117C935.313 302.876 935.766 306.729 936.9 309.448C937.806 312.168 939.619 315.114 942.112 318.287C944.832 321.913 948.005 325.086 951.177 327.805C954.35 330.525 958.203 333.698 962.736 337.324C967.042 333.245 970.215 328.939 972.028 324.633C973.841 320.327 974.974 314.887 974.974 308.542C974.974 305.142 974.521 301.516 973.387 298.117H972.934Z" fill="#ECECEC"/>
<path d="M1427.56 407.807C1424.39 415.059 1419.85 421.405 1414.41 426.844C1408.98 432.283 1402.4 436.363 1395.15 439.309C1387.9 442.255 1379.97 443.615 1371.58 443.615C1363.2 443.615 1355.72 442.255 1348.24 439.309C1340.99 436.363 1334.41 432.51 1328.97 427.297C1323.54 422.085 1319.23 415.739 1316.06 408.487C1312.88 401.235 1311.3 393.302 1311.3 384.464C1311.3 375.172 1312.88 366.786 1316.28 359.534C1319.68 352.055 1324.21 345.936 1329.88 340.724C1335.55 335.511 1342.12 331.658 1349.82 328.939C1357.3 326.219 1365.46 324.859 1373.85 324.859C1382.91 324.859 1391.3 326.446 1398.55 329.619C1405.8 332.792 1411.92 337.098 1417.13 342.537C1422.12 347.976 1425.97 354.322 1428.69 361.347C1431.41 368.373 1432.77 375.852 1432.77 383.557C1432.77 392.169 1431.19 400.101 1428.01 407.354L1427.56 407.807ZM1409.88 364.293C1408.3 357.721 1405.58 351.602 1402.4 346.163C1399 340.724 1394.7 336.418 1389.71 333.018C1384.73 329.619 1378.61 328.032 1371.81 328.032C1365.01 328.032 1358.66 329.619 1353.68 333.018C1348.46 336.418 1344.39 340.724 1340.99 346.163C1337.81 351.602 1335.32 357.721 1333.73 364.52C1332.15 371.319 1331.47 378.345 1331.47 385.37C1331.47 392.396 1332.37 399.648 1333.96 406.447C1335.77 413.246 1338.27 419.139 1341.67 424.351C1345.07 429.564 1349.37 433.643 1354.36 436.816C1359.34 439.989 1365.46 441.575 1372.26 441.575C1379.06 441.575 1384.95 439.762 1389.94 436.363C1394.92 432.963 1399 428.431 1402.4 422.991C1405.8 417.552 1408.3 411.433 1409.88 404.634C1411.47 397.835 1412.38 391.036 1412.38 384.237C1412.38 377.438 1411.47 371.092 1409.88 364.293Z" fill="#ECECEC"/>
<path d="M1554.25 331.206C1551.98 332.792 1550.17 335.058 1548.81 338.231C1548.58 338.911 1548.13 340.271 1547.9 341.857C1547.67 343.67 1547.45 345.483 1547.22 347.75C1547.22 350.016 1546.77 352.509 1546.77 355.002C1546.77 357.495 1546.77 359.988 1546.77 362.481C1546.77 367.014 1546.54 372.226 1546.32 377.892C1546.32 383.558 1545.86 390.13 1545.86 397.156C1545.86 399.195 1545.64 401.688 1545.41 404.861C1545.41 408.034 1544.73 411.207 1543.82 414.833C1542.92 418.459 1541.56 421.859 1539.74 425.258C1537.93 428.658 1535.21 431.831 1531.81 434.777C1528.41 437.723 1523.88 439.989 1518.67 441.576C1513.23 443.162 1506.65 444.069 1498.72 444.069C1490.79 444.069 1484.44 443.162 1479.01 441.576C1473.79 439.989 1469.26 437.723 1465.86 435.003C1462.46 432.284 1459.74 429.338 1457.93 425.938C1456.12 422.539 1454.53 419.366 1453.62 416.193C1452.72 413.02 1452.26 410.074 1452.04 407.581C1452.04 404.861 1451.81 403.048 1451.81 401.688C1451.81 398.742 1451.81 394.663 1451.81 389.903C1451.81 385.144 1451.81 379.705 1451.81 373.813V346.617C1451.81 344.577 1451.81 342.764 1451.58 341.177C1451.58 339.591 1451.13 338.005 1450.9 336.645C1450.68 335.285 1450 334.152 1449.54 333.472C1447.96 331.659 1446.14 330.299 1443.88 329.619C1441.61 328.939 1439.12 328.259 1436.4 328.033V326.446H1484.44V328.033C1482.86 328.033 1481.27 328.486 1479.69 328.939C1477.87 329.393 1476.29 330.072 1474.93 330.979C1473.57 331.885 1472.43 333.245 1471.3 334.832C1470.39 336.418 1469.71 338.458 1469.71 340.951C1469.71 343.67 1469.71 346.163 1469.49 348.43C1469.49 350.696 1469.49 352.736 1469.49 354.775V386.957C1469.49 389.45 1469.49 391.717 1469.49 394.209C1469.49 396.702 1469.49 398.969 1469.49 401.462C1469.49 407.128 1470.39 412.34 1471.98 417.099C1473.57 421.859 1475.83 425.711 1478.78 429.111C1481.72 432.284 1485.12 435.003 1489.43 436.59C1493.74 438.403 1498.5 439.309 1503.71 439.309C1509.83 439.309 1515.04 438.629 1519.35 437.27C1523.65 435.91 1527.05 433.87 1530 431.377C1532.94 428.884 1535.21 426.165 1536.8 422.765C1538.38 419.592 1539.74 416.193 1540.42 412.34C1541.1 408.487 1541.78 404.861 1542.01 401.008C1542.24 397.156 1542.46 393.53 1542.46 389.677V362.254C1542.46 359.988 1542.46 357.948 1542.46 355.682C1542.46 353.416 1542.46 351.376 1542.24 349.336C1542.24 347.296 1542.01 345.483 1541.78 343.67C1541.78 341.857 1541.33 340.498 1540.88 339.364C1539.74 336.418 1537.93 333.925 1535.21 332.112C1532.49 330.299 1528.64 328.939 1523.43 328.259V326.673H1563.54V328.259C1559.46 328.713 1556.51 329.846 1554.02 331.432L1554.25 331.206Z" fill="#ECECEC"/>
<path d="M1569.43 442.935V441.349C1572.15 440.896 1574.64 440.216 1576.91 439.309C1579.18 438.403 1581.22 437.043 1582.8 435.003C1583.26 434.323 1583.71 433.417 1583.94 432.284C1584.16 431.15 1584.39 429.791 1584.62 427.978C1584.84 426.165 1584.84 424.578 1584.84 422.992C1584.84 421.179 1584.84 419.366 1584.84 417.779C1584.84 416.193 1584.84 414.153 1584.84 411.66C1584.84 409.167 1584.84 406.221 1584.84 403.275C1584.84 400.102 1584.84 397.156 1584.84 393.756V347.07C1584.84 345.03 1584.84 343.217 1584.62 341.631C1584.62 340.044 1584.16 338.458 1583.94 337.098C1583.71 335.738 1583.03 334.605 1582.58 333.925C1580.99 332.112 1579.18 330.752 1576.91 330.072C1574.64 329.166 1572.15 328.712 1569.43 328.486V326.899H1617.7V328.486C1615.44 328.712 1612.95 329.392 1610.45 330.299C1607.96 331.205 1605.92 332.792 1604.56 335.511C1603.65 337.325 1602.97 339.591 1602.97 342.537C1602.97 345.483 1602.97 347.976 1602.75 350.469C1602.75 353.189 1602.75 355.908 1602.75 358.401C1602.75 360.894 1602.75 363.614 1602.75 366.334V420.499C1602.75 423.672 1602.75 426.618 1602.75 429.564C1602.75 432.51 1603.43 434.55 1604.11 435.683C1605.47 437.496 1607.51 438.856 1610.23 439.989C1612.95 440.896 1615.66 441.576 1617.7 441.802V443.389H1568.75L1569.43 442.935Z" fill="#ECECEC"/>
<path d="M1707 425.031C1704.96 429.11 1702.01 432.51 1698.39 435.456C1694.76 438.402 1690.23 440.442 1685.01 441.802C1679.8 443.162 1674.14 443.842 1668.02 443.842C1662.8 443.842 1658.27 443.615 1654.42 442.935C1650.57 442.255 1647.62 441.575 1645.13 440.669C1642.63 439.762 1640.82 438.856 1639.46 438.176C1638.1 437.496 1637.42 437.043 1637.19 437.043C1636.97 437.043 1636.06 437.722 1635.16 439.082C1634.25 440.442 1633.12 441.575 1632.21 442.708H1630.85L1630.4 410.527H1631.98C1632.89 413.473 1634.25 416.192 1635.61 418.912C1637.19 421.632 1638.78 424.124 1640.59 426.617C1642.41 429.11 1644.22 431.15 1646.26 432.963C1648.3 434.776 1650.11 436.136 1651.93 437.269C1653.74 438.176 1656.23 439.309 1659.18 440.215C1662.12 441.122 1665.07 441.575 1667.79 441.575C1675.72 441.575 1682.29 439.309 1687.05 435.003C1692.04 430.697 1694.53 424.804 1694.53 417.326C1694.53 414.379 1694.08 411.66 1693.17 409.393C1692.27 407.127 1690.91 405.087 1689.32 403.501C1687.73 401.914 1685.69 400.328 1683.43 399.195C1681.16 398.062 1678.67 396.929 1676.18 396.022C1673.68 395.116 1671.42 394.209 1669.38 393.529C1667.34 392.849 1665.52 392.169 1663.94 391.716C1662.35 391.036 1660.54 390.583 1658.72 389.903C1656.91 389.223 1654.87 388.543 1652.38 387.637C1649.66 386.503 1646.94 385.144 1644.22 383.104C1641.73 381.291 1639.46 379.025 1637.42 376.532C1635.38 374.039 1634.02 371.319 1632.66 368.146C1631.53 364.973 1630.85 361.801 1630.85 358.401C1630.85 352.509 1631.98 347.523 1634.02 343.443C1636.06 339.364 1639.01 335.738 1642.63 333.018C1646.26 330.299 1650.34 328.259 1655.1 326.899C1659.86 325.539 1664.62 324.859 1669.83 324.859C1674.59 324.859 1678.9 325.313 1682.29 325.993C1685.69 326.899 1688.64 327.579 1690.68 328.712C1692.95 329.619 1694.53 330.525 1695.67 331.432C1696.8 332.338 1697.48 332.565 1697.48 332.565C1697.71 332.565 1698.39 331.885 1699.52 330.525C1700.65 329.165 1701.56 328.032 1702.24 326.672H1704.05V356.588H1702.24C1700.88 352.962 1699.29 349.562 1697.25 345.936C1695.21 342.31 1692.95 339.364 1690.23 336.644C1687.51 333.925 1684.56 331.658 1680.93 329.845C1677.54 328.032 1673.68 327.352 1669.38 327.352C1665.98 327.352 1662.8 327.806 1659.86 328.712C1656.91 329.619 1654.42 331.205 1652.15 333.018C1649.89 335.058 1648.3 337.324 1646.94 340.27C1645.81 343.217 1645.13 346.389 1645.13 350.016C1645.13 355.681 1646.94 360.214 1650.34 363.84C1653.74 367.24 1658.27 369.959 1663.71 371.999C1665.75 372.906 1667.79 373.585 1669.83 374.265C1671.64 374.945 1673.46 375.625 1675.5 376.078C1677.31 376.758 1679.12 377.212 1681.16 377.891C1682.97 378.571 1685.01 379.251 1687.05 379.931C1694.31 382.651 1699.97 386.503 1704.05 391.716C1708.13 396.929 1710.17 403.274 1710.17 410.753C1710.17 415.966 1709.04 420.498 1707 424.578V425.031Z" fill="#ECECEC"/>
<path d="M1816.69 442.935H1717.88V441.349C1720.6 440.896 1723.09 440.216 1725.35 439.309C1727.62 438.403 1729.66 437.043 1731.02 435.23C1731.47 434.55 1731.93 433.643 1732.38 432.51C1732.61 431.377 1733.06 429.791 1733.29 428.204C1733.51 426.618 1733.74 424.805 1733.74 423.218C1733.74 421.405 1733.74 419.592 1733.74 418.006C1733.74 416.419 1733.74 414.38 1733.74 411.887C1733.74 409.394 1733.74 406.447 1733.74 403.501C1733.74 400.328 1733.74 397.382 1733.74 393.983V353.189C1733.74 351.149 1733.74 349.336 1733.74 347.296C1733.74 345.257 1733.74 343.217 1733.51 341.404C1733.51 339.591 1733.06 338.004 1732.61 336.418C1732.15 335.058 1731.7 333.925 1731.02 333.245C1729.43 331.432 1727.62 330.526 1725.81 329.846C1724 329.392 1721.5 328.939 1718.78 328.486V326.899H1807.85L1818.73 353.642L1817.14 354.549C1808.53 343.67 1800.14 336.418 1792.66 332.565C1790.85 331.659 1787.45 330.979 1782.47 330.299C1777.48 329.619 1771.59 329.392 1764.34 329.392C1762.07 329.392 1759.8 329.392 1757.31 329.619C1754.82 329.619 1753.23 330.072 1752.1 330.072C1752.1 331.885 1751.64 335.285 1751.64 340.724C1751.64 346.163 1751.42 352.282 1751.42 359.535V369.96C1751.42 372.679 1751.42 374.946 1751.42 376.759C1751.42 378.572 1751.42 379.931 1751.42 380.838V382.651H1754.59C1756.18 382.651 1757.99 382.651 1760.26 382.651C1762.3 382.651 1764.56 382.424 1766.6 382.198C1768.64 382.198 1770.45 381.745 1771.81 381.518C1774.99 380.838 1777.71 379.705 1779.97 378.345C1782.24 376.985 1783.83 375.399 1785.19 373.586C1786.55 371.773 1787.68 369.733 1788.36 367.24C1789.04 364.747 1789.95 362.027 1790.63 359.081H1792.66V409.847H1790.63C1789.72 406.447 1788.36 402.821 1786.77 399.195C1784.96 395.569 1783.15 392.85 1781.11 391.036C1779.29 389.45 1777.25 388.317 1774.99 387.41C1772.49 386.504 1769.77 385.824 1766.6 385.597C1765.02 385.597 1763.66 385.597 1762.52 385.371C1761.39 385.144 1760.26 385.371 1759.35 385.371H1751.87C1751.87 386.957 1751.64 388.997 1751.64 391.943V411.207C1751.64 413.02 1751.64 414.606 1751.64 416.193C1751.64 417.779 1751.64 419.139 1751.64 420.045C1751.64 423.445 1751.87 426.844 1752.1 429.791C1752.32 432.964 1753 435.23 1753.91 436.59C1754.82 438.176 1757.31 439.083 1760.94 439.763C1764.56 440.442 1768.64 440.669 1772.95 440.669C1774.76 440.669 1777.03 440.669 1779.97 440.669C1782.92 440.669 1785.87 440.216 1789.04 439.763C1792.44 439.309 1795.61 438.403 1798.56 437.27C1801.5 436.136 1804.22 434.323 1806.94 432.057C1809.66 429.791 1812.16 427.071 1814.87 423.672C1817.37 420.272 1820.09 416.419 1822.81 411.887L1824.62 412.34L1816.46 443.162L1816.69 442.935Z" fill="#ECECEC"/>
</g>
<defs>
<clipPath id="clip0_1214_2468">
<rect width="1824.62" height="169.748" fill="white" transform="translate(0 275)"/>
</clipPath>
</defs>
</svg>
