<svg width="1825" height="720" viewBox="0 0 1825 720" fill="none" xmlns="http://www.w3.org/2000/svg">
<g clip-path="url(#clip0_1162_2866)">
<path d="M869.406 81.9543L874.989 99.1154H867.002L857.818 101.107H849.037C849.037 101.107 841.452 103.501 839.46 103.904C837.468 104.306 835.467 102.707 834.27 103.904C833.073 105.101 823.889 107.093 823.889 107.093C823.889 107.093 823.094 105.493 819.1 107.093C815.107 108.692 813.115 109.487 811.918 110.281C810.721 111.076 805.933 110.281 805.933 110.281C805.933 110.281 804.736 113.873 803.539 114.667C802.342 115.462 800.35 114.667 800.35 114.667L796.356 115.021H792.765L789.576 117.856H784.788V124.244L787.585 125.843L788.379 129.837L787.585 134.223C789.576 135.42 789.184 133.428 791.176 134.223C793.167 135.017 789.979 135.42 793.168 135.017C796.356 134.615 799.555 135.734 801.154 135.174C802.754 134.615 803.549 136.048 805.148 135.331C806.747 134.615 807.14 136.852 808.337 135.537C809.534 134.223 811.133 134.223 812.723 133.82C814.312 133.418 816.716 133.025 819.513 132.623C822.309 132.221 819.915 132.623 826.302 132.221C832.69 131.819 830.688 131.819 834.682 131.819H841.069C845.455 131.819 847.457 131.416 847.457 131.416L850.253 129.424C850.253 129.424 849.056 127.825 853.05 128.227C857.043 128.63 859.437 128.63 859.437 128.63C859.437 128.63 857.838 129.032 863.823 129.424L869.809 129.827H874.999V133.82L871.408 135.959L868.612 141.003L867.414 145.791C867.414 145.791 866.62 147.39 867.012 148.98L867.414 150.579L867.817 154.17V158.958C866.217 161.755 863.823 166.141 863.823 166.141L861.429 170.527V177.709C861.429 177.709 860.634 179.308 860.232 181.3C859.83 183.292 858.633 186.088 858.633 186.088V195.272C858.633 195.272 857.033 192.476 856.239 195.272C855.444 198.069 852.647 203.259 852.647 203.259C853.845 206.056 854.639 208.45 854.639 208.45C854.639 208.45 851.45 211.639 852.647 211.639H856.239L859.035 212.473C861.429 211.276 860.634 211.678 863.823 209.676C867.012 207.675 866.62 206.487 869.406 206.88L874.989 207.675V209.667C874.989 209.667 874.989 208.872 879.375 208.469C883.761 208.067 887.362 207.272 887.362 207.272H892.15L893.75 194.664V188.276C893.75 188.276 895.349 187.874 896.144 185.48C896.939 183.086 896.144 181.889 898.136 179.897C900.127 177.905 901.727 174.707 901.727 174.707C901.727 174.707 901.325 173.912 901.727 171.91C902.129 169.909 901.727 167.122 901.727 167.122C901.727 167.122 899.284 165.13 901.903 163.531C904.523 161.931 902.924 164.728 904.523 161.931C906.123 159.135 905.72 161.529 906.123 159.135C906.525 156.741 905.328 155.142 906.123 153.552C906.917 151.963 905.092 151.56 906.211 149.559C907.329 147.557 906.338 145.173 906.338 145.173C906.338 145.173 908.526 140.787 908.919 139.59C909.311 138.393 910.116 135.596 910.911 134.399C911.706 133.202 909.714 135.596 911.706 133.202L913.697 130.808V122.821L920.085 119.632C921.684 118.837 925.275 116.041 925.275 116.041C925.275 116.041 924.873 115.246 927.267 114.442L933.253 112.45L935.244 112.048L938.1 111.253L943.231 110.85L948.814 108.859L956.801 108.064L966.78 106.465L969.969 105.67L972.363 104.07C972.363 104.07 974.953 104.07 975.552 103.874C976.15 103.678 977.347 103.276 978.142 102.677C978.937 102.079 977.141 101.284 979.938 101.284C982.734 101.284 984.324 100.882 985.727 101.088C987.13 101.294 988.523 101.284 990.113 101.49C991.702 101.696 994.106 101.892 994.106 101.892L997.501 101.696C997.501 101.696 996.706 101.5 997.501 100.695C998.296 99.8905 998.502 98.8995 999.1 98.1048C999.699 97.31 1000.3 96.9077 1000.49 96.113C1000.69 95.3182 1001.89 93.1203 1002.29 92.3255C1002.69 91.5308 1003.29 90.1277 1003.29 90.1277V84.5447L1004.49 83.3476L1001.09 81.9543H996.108C996.108 81.9543 989.024 84.8488 988.229 84.8488H981.841L979.447 85.0451C979.447 85.0451 975.856 85.2413 975.257 85.2413H971.863L966.878 86.2421L962.492 87.6354C962.492 87.6354 962.894 88.0377 960.098 88.0377C957.302 88.0377 957.508 88.44 954.907 88.44C952.307 88.44 948.922 88.8423 948.922 88.8423H945.135C945.135 88.8423 941.74 89.6371 941.141 89.8431C940.543 90.0492 937.148 90.8439 937.148 90.8439H932.36L930.368 91.2462C930.368 91.2462 929.769 91.8448 928.572 92.4433C927.375 93.0418 924.981 93.8366 924.981 93.8366C924.981 93.8366 923.98 94.0328 922.185 94.0328C920.389 94.0328 917.593 94.0328 916.994 94.2291C916.396 94.4253 916.199 95.0238 913.001 95.2299C909.802 95.4359 907.81 95.6322 907.81 95.6322C907.81 95.6322 905.612 95.0336 905.416 94.4351C905.22 93.8366 904.219 93.2381 904.621 92.6395C905.024 92.041 905.818 92.2372 906.221 91.2462C906.623 90.2552 907.015 89.8529 907.418 88.6559C907.82 87.4588 908.419 85.8595 908.419 85.8595L908.821 81.9641L909.419 79.8644L910.018 78.265H903.434C903.434 78.265 900.441 77.6665 899.244 78.265C898.047 78.8636 896.654 78.6673 895.653 79.0598C894.652 79.4523 891.866 80.4531 890.669 80.6591C889.472 80.8652 883.683 79.8644 883.683 79.8644L879.689 80.4629C879.689 80.4629 877.295 80.2667 876.697 80.4629C876.098 80.6591 873.704 80.8652 872.909 81.2577C872.114 81.6502 869.416 81.9543 869.416 81.9543H869.406Z" fill="#ECECEC"/>
<path d="M942.152 212.09C942.152 212.09 943.349 212.786 944.546 212.09L950.738 209.597L949.344 205.388C949.344 205.388 948.746 203.19 948.942 201.797C949.138 200.404 949.138 198.402 949.138 198.402C949.138 198.402 951.336 198.804 950.738 197.205C950.139 195.606 951.542 195.812 950.846 194.409C950.149 193.006 950.139 192.211 950.139 191.416V188.826L951.042 187.432V180.044L953.73 180.839L956.321 181.84C956.321 181.84 957.321 182.438 958.116 182.036C958.911 181.633 960.706 181.241 960.706 181.241L964.494 179.445L966.093 179.848L968.487 180.044L970.685 179.848L973.482 179.053H977.868L981.056 176.855L982.656 175.658L983.853 175.256C983.853 175.256 984.854 176.453 985.05 177.051C985.246 177.65 986.051 179.445 986.247 180.044C986.443 180.642 985.648 182.242 986.247 182.84C986.845 183.439 986.276 186.628 986.276 186.628L986.522 188.021L985.246 189.62L986.522 193.015C986.522 193.015 984.451 194.016 984.854 194.811C985.256 195.606 986.522 197.607 986.522 197.607L985.246 201.002L984.648 205.594L983.048 208.391C983.048 208.391 983.048 211.982 982.852 212.777C982.656 213.571 982.45 216.564 982.45 216.564L984.245 217.761C984.245 217.761 984.392 218.958 986.512 216.966C988.631 214.974 990.231 213.974 990.231 213.974L993.626 214.17L997.02 214.366C997.02 214.366 1001.41 213.964 1002 213.768C1002.6 213.571 1007.39 211.668 1007.39 211.668H1010.98V210.569C1010.98 210.569 1011.39 207.576 1010.98 206.781C1010.58 205.987 1010.38 204.79 1009.98 203.593C1009.58 202.396 1009.38 199.805 1009.19 198.402C1008.99 196.999 1008.59 197.205 1008.99 195.409C1009.39 193.614 1009.59 193.614 1009.79 192.221C1009.98 190.827 1011.16 189.228 1011.16 189.228V188.031C1011.16 188.031 1012.18 186.432 1012.18 185.637V184.842L1014.17 182.448L1015.37 179.858C1015.37 179.858 1014.77 177.866 1015.37 177.267C1015.97 176.669 1016.57 176.472 1016.76 175.275C1016.96 174.078 1017.96 173.038 1018.75 171.665C1019.55 170.291 1020.75 169.29 1020.75 169.29L1023.14 166.297L1025.53 161.705V154.916C1025.53 154.916 1024.53 154.719 1023.14 153.915L1022.15 152.041H1020.16L1018.17 151.844L1018.55 150.451L1016.17 150.647H1015.41L1015.77 147.459L1015.97 146.261L1016.16 144.858H1015.16L1015.72 141.071L1015.15 137.558C1015.15 137.558 1014.55 135.566 1014.36 134.566C1014.16 133.565 1013.56 132.966 1013.36 131.769C1013.15 130.572 1012.96 127.58 1013.16 126.382C1013.37 125.185 1014.16 122.791 1014.16 122.791C1014.16 122.791 1015.56 120.799 1016.15 120.799C1016.75 120.799 1017.15 121.997 1017.55 120.799C1017.94 119.602 1019.15 117.405 1019.15 117.405L1019.94 115.207L1020.14 113.009H1018.34L1011.55 114.206L1010.16 114.608C1010.16 114.608 1008.36 115.805 1007.76 116.404C1007.17 117.002 1005.97 117.601 1005.97 117.601L1004.47 118.199C1004.47 118.199 998.983 119.2 998.178 119.593C997.374 119.985 997.177 120.191 996.383 120.593L994.391 121.594C994.391 121.594 991.801 123.194 990.996 123.39L990.201 123.586L987.209 125.185L986.414 126.981L987.209 128.777C987.209 128.777 989.2 132.172 988.406 132.77C987.611 133.369 987.012 134.163 987.012 134.762C987.012 135.36 986.218 133.967 987.012 135.36C987.807 136.754 987.807 138.157 987.807 138.157C987.807 138.157 986.61 138.952 987.209 139.952C987.807 140.953 987.807 144.858 987.807 144.858V145.741L987.405 147.135C987.405 147.135 986.011 148.93 985.805 149.529C985.599 150.127 985.207 150.922 985.207 150.922L983.009 152.521L982.008 153.719L979.81 151.324C979.81 151.324 979.016 151.324 978.015 151.128C977.014 150.932 975.621 150.333 975.022 150.333C974.424 150.333 970.43 151.128 970.43 151.128L969.037 152.728L968.036 155.122L967.241 156.721L964.651 158.919L962.453 160.312C962.453 160.312 961.854 161.705 961.658 162.304C961.462 162.902 960.059 164.296 960.059 164.296H956.065L952.671 165.571C952.671 165.571 952.072 165.689 952.474 164.492C952.877 163.295 952.671 162.098 952.877 161.303C953.083 160.508 953.279 156.515 954.476 155.514C955.673 154.513 957.469 151.727 957.469 151.727L957.272 150.726C957.272 150.726 957.076 147.929 957.272 147.135C957.469 146.34 957.272 144.544 958.067 143.74C958.862 142.935 959.666 142.543 959.863 141.944C960.059 141.346 960.863 139.952 960.863 139.952L961.864 138.559C961.864 138.559 962.267 137.558 962.267 136.763C962.267 135.969 962.669 134.566 962.669 133.967C962.669 133.369 962.865 132.77 962.865 132.172C962.865 131.573 962.669 130.18 962.669 130.18C962.669 130.18 962.473 128.58 962.473 127.589V124.194L961.874 121.398H959.882L956.89 120.397C956.89 120.397 956.095 119.995 955.496 120.201C954.898 120.407 957.096 120.397 953.701 120.603C950.306 120.809 947.509 121.202 947.509 121.202C947.509 121.202 944.713 122.595 944.114 122.595C943.516 122.595 941.917 123.596 940.523 123.792C939.13 123.988 938.09 124.391 938.09 124.391L933.547 124.587L930.957 124.783L930.162 125.185V130.376L932.556 134.762C932.556 134.762 930.957 135.959 931.359 137.558C931.761 139.158 932.154 139.952 931.359 141.944C930.564 143.936 930.957 145.535 930.162 146.732C929.367 147.929 928.17 150.726 928.17 150.726H925.374V152.718L923.382 155.514C923.382 155.514 921.39 159.105 920.193 160.705L918.996 162.304L916.602 168.289V172.283L918.594 175.874H920.585L919.791 178.67L918.594 182.261C918.594 182.261 916.994 184.656 916.602 185.853L916.2 187.05V206.605C916.2 206.605 916.602 210.814 916.2 212.109C915.797 213.405 916.994 215.004 916.2 216.603L915.405 218.203H923.99L926.983 216.211L928.553 217.153L930.348 218.203L934.342 217.349L936.932 215.151L938.924 214.356L940.121 211.364L942.142 212.119L942.152 212.09Z" fill="#ECECEC"/>
<path d="M1053.13 112.989V121.741L1051.14 129.326H1053.13V141.699L1051.14 144.829H1049.15L1047.55 148.881V157.26L1046.3 162.451V174.422L1044.35 178.013L1041.56 180.809L1040.76 184.4L1036.77 187.991V191.18L1031.58 193.172L1027.58 199.157V203.946L1029.18 207.537H1036.37C1036.37 207.537 1038.36 209.136 1040.36 207.537C1042.36 205.937 1045.15 204.74 1046.75 204.348C1048.35 203.955 1046.34 203.553 1050.74 203.553C1055.14 203.553 1054.73 204.75 1057.92 203.955C1061.11 203.161 1062.31 202.356 1063.51 202.356C1064.7 202.356 1066.3 201.561 1068.7 201.561C1071.09 201.561 1073.89 201.964 1074.68 200.767C1075.48 199.57 1075.88 198.009 1077.08 198.009C1078.27 198.009 1079.07 197.607 1082.66 198.009C1086.25 198.412 1087.04 198.412 1091.04 198.804C1095.03 199.197 1101.81 199.599 1101.81 199.599L1104.21 201.591C1104.21 201.591 1111.79 203.583 1112.99 203.583H1118.57C1120.96 203.583 1122.96 203.18 1122.96 203.18L1128.75 203.043V196.155L1131.74 194.958V193.162C1131.74 193.162 1133.24 192.564 1134.73 192.564H1136.23L1138.33 189.866L1139.83 188.364V186.569L1145.22 186.265C1145.22 186.265 1147.02 183.272 1145.22 182.968C1143.42 182.664 1141.03 181.771 1140.13 181.466C1139.22 181.162 1136.83 180.868 1135.34 180.868C1133.85 180.868 1137.73 181.172 1133.84 180.868C1129.94 180.564 1132.34 180.868 1129.94 180.564C1127.55 180.26 1125.15 179.965 1123.96 180.26C1122.76 180.554 1120.66 181.162 1118.86 181.761C1117.07 182.359 1118.86 181.761 1117.07 182.359C1115.27 182.958 1110.78 185.951 1110.78 185.951C1110.78 185.951 1110.18 187.452 1108.98 187.148C1107.79 186.843 1107.19 185.951 1105.69 185.951C1104.19 185.951 1104.78 185.048 1100.6 184.754C1096.41 184.459 1092.51 183.851 1091.02 183.851C1089.53 183.851 1082.64 184.155 1082.64 184.155H1079.34L1077.84 182.654L1082.34 179.357L1086.78 177.257L1084.74 175.756L1083.54 173.362V170.065L1086.79 168.269L1085.35 167.072C1085.35 165.571 1086.79 164.08 1086.79 164.08V160.557L1083.85 158.693L1083.25 156.593L1086.79 156.996C1086.79 156.996 1087.29 156.691 1087.89 156.691C1088.49 156.691 1090.14 156.387 1091.19 157.143C1092.24 157.898 1092.98 158.045 1092.98 158.045C1092.98 158.045 1094.63 157.143 1095.08 157.143H1098.82C1098.82 157.143 1099.42 156.691 1100.47 156.397C1101.52 156.103 1103.46 155.347 1103.46 155.347C1103.46 155.347 1104.66 155.2 1105.11 155.494C1105.56 155.789 1107.5 156.397 1108.25 156.544C1108.99 156.691 1111.55 156.691 1112.29 156.996L1113.04 157.3L1117.37 158.497C1117.37 158.497 1117.68 159.547 1118.12 158.193C1118.56 156.839 1118.57 156.996 1118.86 156.093C1119.16 155.19 1119.17 154.15 1119.61 154.15C1120.05 154.15 1121.41 153.699 1121.41 153.699L1121.55 152.05C1121.55 152.05 1122.6 151.452 1123.05 151.452C1123.51 151.452 1126.65 151 1126.65 151L1125.9 149.951L1128.89 149.352L1127.39 147.704L1129.79 147.399L1125.6 144.103C1125.6 144.103 1123.8 143.955 1122.3 143.955C1120.8 143.955 1118.11 144.75 1118.11 144.75C1118.11 144.75 1117.06 143.897 1114.52 144.75C1111.98 145.604 1110.93 145.761 1110.93 145.761L1110.48 143.661L1110.78 142.013L1112.28 139.02L1108.54 137.823H1105.7C1105.7 137.823 1102.7 138.274 1101.96 138.422C1101.21 138.569 1100.02 138.873 1099.42 138.873H1097.77C1096.87 138.873 1093.73 138.726 1093.73 138.726C1093.73 138.726 1091.63 139.03 1091.19 139.177C1090.74 139.324 1088.79 140.374 1088.34 140.678C1087.89 140.982 1088.54 141.424 1086.79 141.581C1085.04 141.738 1083.99 141.885 1083.99 141.885L1082.94 140.835C1082.94 140.835 1083.39 138.892 1083.85 138.441C1084.3 137.99 1085.64 136.194 1086.09 135.9C1086.54 135.605 1088.94 134.104 1088.94 134.104L1086.79 133.202C1086.79 133.202 1089.54 132.152 1089.23 131.7C1088.93 131.249 1088.04 129.453 1088.04 129.453V126.461L1090.14 123.017C1090.14 123.017 1091.64 122.713 1092.68 122.418C1093.72 122.124 1095.67 121.516 1095.67 121.516L1097.32 119.867L1098.82 121.516L1110.79 121.82L1119.72 120.377L1131.99 119.779C1131.99 119.779 1135.89 122.173 1135.58 121.28C1135.28 120.387 1134.79 116.894 1134.79 116.894L1137.18 114.098L1138.38 112.93L1140.58 110.507L1139.98 109.113L1141.58 105.326L1136.79 103.53H1122.22L1108.45 104.727L1099.87 106.719L1090.09 107.72L1091.48 108.721L1081.9 109.319L1072.52 109.722C1072.52 109.722 1072.12 112.116 1071.52 111.919C1070.92 111.723 1053.96 112.94 1053.96 112.94H1053.12L1053.13 112.989Z" fill="#ECECEC"/>
<path d="M414.28 189.189L405.9 193.977V199.364L401.112 208.263L398.718 212.502L392.733 221.509L389.74 229.29V250.847L386.149 255.037V258.029C386.149 258.029 347.038 263.22 345.037 263.22C343.035 263.22 329.475 267.213 328.278 267.213C327.081 267.213 317.505 270.01 317.505 270.01C317.505 270.01 301.138 279.586 299.539 279.988C297.939 280.391 290.355 279.988 290.355 279.988L268.798 294.755H261.616L254.433 297.944L245.652 306.726H235.271L226.891 313.516H219.709L208.131 316.705H201.341L197.75 321.091L186.976 323.083L181.786 326.271L171.012 329.46L169.413 333.051L145.462 339.841C145.462 339.841 145.864 344.227 145.462 344.227H140.271V341.431L122.306 344.227L120.314 347.024H105.949C105.949 347.024 102.358 349.015 100.759 350.213C99.1594 351.41 97.9624 352.204 96.7653 352.204C95.5683 352.204 92.7719 351.007 91.5748 352.204L90.3778 353.401H85.9918V356.993C85.9918 356.993 86.3941 362.183 85.9918 363.38C85.5895 364.577 84 368.983 84 368.983L85.9918 371.76L87.1889 374.154L87.9836 376.145C88.3859 379.334 87.1889 377.343 88.3859 379.334C89.583 381.326 88.3859 378.932 89.583 381.326L90.78 383.72L91.5748 386.713L90.3778 390.903H94.7637L98.7572 387.714C98.7572 387.714 100.955 384.917 102.348 385.32C103.742 385.722 105.145 385.722 105.145 385.722L109.334 384.329L111.925 383.73L117.508 383.132L119.303 380.934C119.303 380.934 120.697 380.335 121.295 380.139C121.894 379.943 123.886 379.737 123.886 379.737L127.074 377.539L130.666 376.342L136.857 375.341L140.644 374.742L145.835 372.152L147.228 371.956L151.614 371.357C151.614 371.357 152.409 371.553 153.213 370.955C154.018 370.356 157.599 368.973 157.599 368.973L161.985 368.159L165.979 363.969L170.168 362.173L173.161 358.984L174.957 358.582L176.752 356.384H179.941L181.334 354.186L184.131 350.193L187.123 352.185C187.123 352.185 193.109 351.586 193.707 351.39C194.306 351.194 200.291 349.398 200.291 349.398C200.291 349.398 204.481 348.201 205.482 348.201C206.482 348.201 213.262 347.406 213.262 347.406L219.846 347.21L223.035 346.013C223.035 346.013 223.437 343.815 224.036 343.619C224.635 343.423 227.823 342.02 227.823 342.02L228.824 341.225H232.013L234.809 341.627L237.802 340.028L238.204 337.437L241.393 337.035L242.188 334.641L246.182 331.05L249.076 330.854L251.176 331.452C251.176 331.452 253.972 330.255 254.767 330.451C255.562 330.648 258.162 331.246 259.153 330.648C260.144 330.049 263.745 328.852 264.736 328.45C265.727 328.047 264.334 327.655 268.729 326.458L273.115 325.261L276.706 324.466C276.706 324.466 281.691 323.867 282.692 323.671C283.693 323.475 287.078 322.67 287.078 322.67L296.056 320.08L295.653 318.687C295.653 318.687 294.859 317.293 295.055 316.489C295.251 315.684 295.653 314.497 295.653 314.497C295.653 314.497 296.85 312.701 297.449 311.907C298.047 311.112 298.45 310.906 299.647 310.111C300.844 309.316 304.033 308.316 304.033 308.316L306.025 308.718L308.419 310.111C308.419 310.111 309.812 310.513 310.018 311.112C310.224 311.71 310.617 313.702 310.617 313.702C310.617 313.702 312.608 314.899 313.207 314.497C313.805 314.095 318.191 312.299 318.79 312.299C319.388 312.299 324.579 311.897 324.579 311.897C324.579 311.897 327.974 310.7 328.769 310.504L333.557 309.307C333.557 309.307 335.352 306.716 336.147 306.51C336.942 306.304 343.732 305.912 343.732 305.912C343.732 305.912 347.922 305.313 348.52 305.313C349.119 305.313 352.906 305.509 355.506 305.313C358.106 305.117 361.697 304.518 361.697 304.518H363.895L366.093 305.117C366.093 305.117 367.29 305.715 366.888 306.716C366.486 307.717 364.896 313.104 364.896 313.104C364.896 313.104 364.896 314.497 365.298 315.302C365.701 316.106 365.897 318.491 365.897 318.491L364.298 323.279L362.502 327.066V331.56L359.912 336.751L358.518 339.939C358.518 339.939 357.92 342.137 357.724 343.128C357.527 344.119 357.321 345.719 357.125 346.523C356.929 347.328 355.928 350.909 355.928 350.909L355.133 354.098C355.133 354.098 354.339 357.287 353.534 358.288C352.729 359.289 350.944 361.477 350.944 361.477L350.345 364.666L349.747 367.658C349.747 367.658 349.148 367.491 347.755 368.973C346.361 370.455 345.557 371.848 345.557 371.848L345.959 373.84L343.369 376.038C343.369 376.038 339.581 378.628 338.178 378.834C336.775 379.04 333.194 379.432 333.194 379.432L331.997 382.023L332.792 385.015L335.382 388.41L336.981 389.009L339.778 390.01L340.572 392.002C340.572 392.002 344.958 393.797 343.967 393.993C342.976 394.19 342.368 395.19 342.368 395.19L347.755 396.986L347.951 402.775L347.549 405.571L346.95 411.557C346.95 411.557 347.951 414.147 348.343 414.746C348.736 415.344 350.335 420.731 350.335 420.731L349.334 422.33L350.531 425.127L352.523 427.325L353.122 431.318C353.122 431.318 350.129 430.719 349.727 430.121C349.325 429.522 346.734 427.128 346.734 427.128L344.34 426.726C344.34 426.726 339.748 426.726 338.757 426.922C337.766 427.118 331.967 428.718 331.967 428.718L329.377 432.908L329.779 440.09L329.181 445.074L333.567 450.863L332.968 455.848L331.173 460.038L332.566 464.031L327.778 469.418C327.778 469.418 329.769 470.016 329.975 471.41C330.182 472.803 330.172 474.598 330.172 474.598L330.368 478.19L329.367 481.585L328.769 484.773V489.365L328.17 495.557L326.973 502.347L324.775 507.93C324.775 507.93 324.373 512.316 324.373 512.914C324.373 513.513 321.783 525.885 321.783 525.885L320.782 533.274L315.797 545.843L310.607 551.23L311.205 561.012L303.424 575.377L299.637 579.969L295.045 582.363C295.045 582.363 289.854 583.962 288.255 584.953C286.656 585.944 283.065 587.347 283.065 587.347L280.867 588.142C280.867 588.142 281.269 590.536 281.465 591.135C281.661 591.733 282.859 593.333 282.859 593.333C282.859 593.333 283.261 594.128 284.654 594.932C286.047 595.737 287.244 596.325 287.244 596.325C287.244 596.325 288.039 598.121 288.638 599.122C289.236 600.123 290.836 602.517 291.434 602.909C292.033 603.302 293.828 603.91 293.828 604.508C293.828 605.107 294.623 609.297 294.623 609.297C294.623 609.297 295.025 608.296 293.622 610.298C292.219 612.299 289.433 615.086 289.433 615.086L286.636 617.676C286.636 617.676 285.439 619.472 284.841 619.668C284.242 619.864 283.644 620.266 282.446 621.061C281.249 621.856 279.258 623.652 279.258 623.652L278.512 626.193L280.307 627.096H284.801L283.153 629.038C283.153 629.038 283.153 630.383 282.554 630.834C281.956 631.285 279.562 632.777 279.856 633.228C280.15 633.679 281.652 634.572 281.652 634.572L282.849 635.318C282.849 635.318 283.899 634.415 284.644 633.817C285.39 633.218 287.186 631.717 287.186 631.717C287.186 631.717 288.687 630.814 289.128 630.216C289.57 629.617 291.071 628.42 291.375 627.969C291.679 627.518 293.318 625.575 293.917 625.575C294.515 625.575 297.812 625.428 297.812 625.428C297.812 625.428 299.912 624.976 300.805 624.976C301.697 624.976 307.388 624.074 308.438 623.475C309.488 622.876 312.334 621.679 312.334 621.679L315.179 621.081C315.179 621.081 317.426 619.432 317.72 618.981C318.015 618.53 319.663 617.333 320.419 616.587C321.174 615.841 323.558 614.791 323.558 614.791C323.558 614.791 325.658 613.143 326.1 612.544C326.541 611.946 327.444 611.043 327.444 611.043L327.895 612.093L331.035 609.395C331.035 609.395 332.978 609.091 333.429 608.492C333.881 607.894 334.931 607.442 335.529 607.442H338.669L342.26 607.894L343.761 608.944C343.761 608.944 344.664 609.248 344.958 610.288C345.253 611.328 345.704 612.986 345.704 612.986C345.704 612.986 345.557 614.487 345.557 614.929C345.557 615.37 345.105 617.029 344.958 617.47C344.811 617.912 344.36 620.011 344.36 620.011C344.36 620.011 345.105 622.111 345.262 622.71L346.008 625.702L346.754 625.849L348.549 626.301L349.295 628.548L350.492 629.892C350.492 629.892 351.091 629.892 351.395 631.236C351.699 632.581 352.445 633.935 352.445 633.935C352.445 633.935 353.642 633.63 353.946 634.533C354.25 635.436 355.29 637.378 355.29 637.378L356.487 636.633L360.383 639.625L378.044 640.97L385.079 641.872L386.728 640.97L389.72 638.87C389.72 638.87 391.369 639.174 391.82 639.468C392.271 639.763 395.411 640.214 396.01 640.214H402.299L402.446 637.673C402.446 637.673 402.142 634.975 402.142 634.533C402.142 634.092 401.995 633.189 401.544 631.688C401.092 630.186 400.641 630.491 400.494 628.391C400.347 626.291 400.347 625.094 399.895 624.054C399.444 623.014 398.394 622.857 398.394 621.954C398.394 621.051 398.541 619.413 398.541 618.962C398.541 618.51 398.845 617.019 398.845 617.019L400.886 610.033L402.829 605.539C402.829 605.539 404.026 604.636 404.929 603.596C405.832 602.556 406.872 601.349 407.323 600.456C407.774 599.563 408.824 598.356 408.824 597.758C408.824 597.159 407.627 596.414 408.824 595.364C410.021 594.314 411.817 592.97 411.964 592.518C412.111 592.067 411.66 593.264 412.111 592.067C412.563 590.87 411.807 590.124 411.807 589.074C411.807 588.024 411.356 584.58 411.356 584.58C411.356 584.58 411.052 580.842 411.052 580.391C411.052 579.939 410.149 577.094 410.306 576.495C410.463 575.897 410.904 575.593 411.052 575.151C411.199 574.71 411.954 573.65 411.954 573.65L413.298 572.002L411.199 570.206C411.199 570.206 410.6 570.353 410.453 568.705C410.306 567.056 409.854 565.114 410.002 564.662C410.149 564.211 410.149 564.064 410.6 561.964C411.052 559.864 411.199 548.796 411.65 548.041C412.101 547.285 411.503 547.737 413.298 545.941C415.094 544.145 415.693 542.948 416.438 542.644C417.184 542.34 417.94 542.644 418.832 541.594C419.725 540.544 420.481 539.495 420.481 539.495C420.481 539.495 421.531 536.953 421.384 535.903C421.236 534.854 421.707 534.706 421.393 533.961C421.079 533.215 421.501 532.018 421.501 532.018L423.621 529.32V525.728L426.162 523.334L425.416 521.539L426.162 518.997L429.007 516.299L431.107 515.396L432.451 506.87C432.451 506.87 432.599 503.73 432.451 502.68C432.304 501.63 433.187 497.441 432.52 496.989C431.853 496.538 430.803 492.947 430.803 492.947L428.703 490.847L423.464 489.346L420.167 487.55C420.167 487.55 419.568 486.353 418.97 486.5C418.371 486.648 417.027 487.246 416.271 487.55C415.516 487.854 414.172 486.353 414.172 486.353L413.122 485.755L414.917 482.163C414.917 482.163 415.369 477.974 415.369 477.071C415.369 476.168 415.222 474.226 415.369 472.881C415.516 471.537 415.065 470.036 415.82 469.742C416.576 469.447 417.164 468.397 417.164 468.397L414.319 466.003C414.319 466.003 412.975 463.756 413.122 463.305C413.269 462.854 414.319 459.567 414.319 459.567L417.616 456.574L422.551 451.334C422.551 451.334 427.487 446.399 427.644 445.8C427.801 445.202 429.743 442.062 429.89 441.464C430.038 440.865 431.686 436.528 431.833 435.93C431.98 435.331 435.13 427.099 434.973 426.648C434.816 426.196 435.434 422.154 434.973 421.408C434.512 420.662 434.424 419.308 435.14 417.964C435.856 416.62 435.562 417.061 436.16 415.423C436.759 413.784 437.809 412.126 438.554 411.233C439.3 410.34 440.801 408.24 440.801 408.24L442.303 403.903V396.27C442.303 396.27 442.901 390.736 443.5 389.235C444.098 387.733 444.098 385.791 444.549 384.898C445.001 384.005 451.437 370.376 451.437 370.376V368.845L449.338 366.029L447.689 364.528C447.689 364.528 448.141 363.625 445.747 362.88C443.352 362.134 440.507 361.683 440.507 361.683L437.21 360.633C437.21 360.633 435.415 360.034 435.415 358.984C435.415 357.935 435.415 356.59 435.267 355.992C435.12 355.393 433.766 353.45 433.766 353.45L433.168 352.253L433.02 348.809L431.519 346.71L429.724 343.57L427.025 340.724L431.519 339.822L436.16 331.737C436.16 331.737 438.103 329.941 438.702 329.343C439.3 328.744 441.841 325.447 441.841 323.956C441.841 322.464 442.146 316.724 442.146 316.724C442.146 316.724 442.94 306.746 442.94 306.147C442.94 305.549 443.137 301.957 444.137 301.359C445.138 300.76 446.532 299.966 446.532 299.966C446.532 299.966 447.532 298.965 447.532 297.375C447.532 295.786 447.532 291.39 447.336 288.79C447.14 286.19 446.934 284.002 447.14 283.207C447.346 282.412 448.533 279.812 448.533 279.812C448.533 279.812 449.926 279.213 451.428 279.616C452.929 280.018 454.322 280.616 455.922 280.214C457.521 279.812 461.505 279.812 462.309 279.419C463.114 279.027 467.5 277.82 467.5 277.82C467.5 277.82 470.296 277.624 471.287 277.418C472.278 277.212 475.673 276.623 476.674 276.417C477.675 276.211 483.66 274.023 483.66 274.023L485.455 273.228L488.448 271.835L492.236 271.639C492.236 271.639 494.826 271.639 495.63 271.442C496.435 271.246 503.019 269.647 503.019 269.647L505.609 270.245L508.798 269.45C509.593 269.254 515.784 268.253 515.784 268.253C515.784 268.253 518.178 267.655 518.973 267.253C519.768 266.85 522.368 266.458 522.368 266.458L530.953 264.26L536.34 263.259L540.53 263.661C540.53 263.661 540.128 263.465 542.325 263.858C544.523 264.25 547.114 264.054 548.517 264.054C549.92 264.054 558.898 262.455 558.898 262.455L560.497 260.463C560.497 260.463 563.49 258.471 564.088 258.667C564.687 258.863 575.068 256.872 575.666 256.872C576.265 256.872 581.858 256.273 583.447 255.674C585.037 255.076 588.834 254.88 589.835 254.075C590.836 253.271 596.419 251.083 596.419 251.083C596.419 251.083 599.814 249.885 601.207 248.885C602.6 247.884 605.397 247.089 605.995 246.294C606.594 245.5 608.389 244.695 608.389 244.695L613.972 245.696L618.76 246.098C618.76 246.098 618.76 246.5 622.155 246.294C625.55 246.088 628.739 245.293 628.739 245.293L635.529 243.096C635.529 243.096 637.325 241.702 638.522 241.702C639.719 241.702 642.711 240.701 642.711 240.701L645.704 238.111L649.697 237.513L655.084 237.11L660.873 236.316L664.867 237.11L669.056 235.717L675.846 231.93L684.226 231.527L692.811 232.724L699.199 232.126H704.183L709.766 232.724L718.146 233.323L723.336 233.725L732.716 230.929C732.716 230.929 738.702 230.733 739.3 230.527L745.884 228.329L746.885 224.737V207.773L743.696 203.985C743.696 203.985 742.901 200.394 742.901 199.796V196.607C742.901 195.41 742.901 195.007 743.097 193.614C743.294 192.221 745.089 189.022 745.089 189.022L746.885 187.423L749.083 186.029L757.266 175.256L749.279 178.052C749.279 178.052 742.891 179.652 742.293 179.848C741.694 180.044 741.292 180.446 738.898 181.447C736.504 182.448 732.913 184.636 731.313 185.038C729.714 185.441 729.115 185.637 727.124 185.833C725.132 186.029 722.532 186.235 722.532 186.235C722.532 186.235 720.54 186.235 718.538 186.432C716.536 186.628 710.953 187.825 710.953 187.825L705.37 189.424L698.384 190.621C698.384 190.621 678.329 194.713 676.729 194.517C675.13 194.32 667.751 194.32 667.751 194.32C667.751 194.32 659.568 194.919 657.576 195.115C655.585 195.311 648.795 196.509 648.795 196.509C648.795 196.509 642.005 197.107 641.21 197.303C640.415 197.5 634.028 199.501 634.028 199.501L622.45 203.092L620.654 204.692C620.654 204.692 615.464 205.094 613.472 204.888C611.48 204.682 609.086 204.888 607.889 204.692C606.692 204.495 606.692 204.692 604.101 204.692C601.511 204.692 598.518 205.692 595.32 206.487C592.121 207.282 586.734 207.881 586.734 207.881L581.348 209.676C580.15 210.078 577.56 210.677 577.56 210.677L568.582 210.481L563.598 211.275L564.599 212.345L558.407 213.866L553.423 217.261C553.423 217.261 550.626 217.457 548.438 217.457C546.25 217.457 533.475 217.261 533.475 217.261L537.263 219.253C537.263 219.253 531.876 220.852 530.679 220.852C529.482 220.852 522.898 221.853 521.897 222.245C520.896 222.638 518.904 224.237 515.912 224.443C512.919 224.649 510.329 225.64 507.925 226.042C505.521 226.445 501.537 226.239 500.536 226.641C499.536 227.043 494.551 227.436 494.551 227.436L495.552 230.232C495.552 230.232 494.551 231.625 493.756 231.831C492.962 232.038 487.967 232.626 487.967 232.626L480.383 233.029L476.193 233.431C476.193 233.431 475.594 234.226 475.594 235.03C475.594 235.835 473.995 236.031 472.406 236.227C470.816 236.423 466.823 236.63 466.214 236.63C465.606 236.63 464.222 235.835 462.427 236.63C460.631 237.424 456.442 239.22 456.442 239.22L453.047 239.024C453.047 239.024 452.85 236.031 453.047 235.236C453.243 234.441 453.047 232.244 453.449 230.252C453.851 228.26 453.645 225.66 454.45 225.267C455.254 224.875 456.442 224.473 456.844 223.472C457.246 222.471 457.845 221.078 457.845 221.078C457.845 221.078 456.648 220.077 456.648 218.487C456.648 216.898 456.245 216.692 457.05 215.495C457.854 214.298 456.451 216.289 457.845 214.298C459.238 212.306 460.239 211.903 460.435 211.305C460.631 210.706 461.23 209.107 461.23 209.107L462.231 208.312C462.231 208.312 463.83 208.715 463.231 207.311C462.633 205.908 462.437 204.721 462.437 204.721L464.428 202.523V199.933L466.626 197.735L468.422 195.145L470.021 192.348L464.036 192.152L458.845 191.151L450.26 192.544L443.872 194.536L441.675 194.939L435.886 194.144L429.694 194.34L425.102 193.339L420.559 190.347L414.123 189.051L414.28 189.189Z" fill="#ECECEC"/>
<path d="M831.611 375.125L830.021 371.936H825.223L818.443 376.322L811.653 379.118L796.886 385.898L798.888 378.314V358.366L794.895 353.176L791.706 349.977L794.1 343.599L802.479 335.612L807.267 331.619L804.873 323.642C804.873 323.642 804.471 321.247 804.079 318.049C803.676 314.86 803.274 310.866 803.274 310.866L803.676 306.873L800.88 304.077L804.079 300.093L804.471 294.902C804.471 294.902 806.865 292.41 805.668 291.655C804.471 290.909 794.492 285.718 794.492 285.718C794.492 285.718 794.1 288.917 789.704 285.718C785.318 282.53 778.931 280.528 778.931 280.528L774.535 282.922C774.535 282.922 772.543 279.331 771.346 280.528C770.149 281.725 769.747 281.244 768.55 280.292C767.352 279.331 763.359 276.937 763.359 276.937L757.423 272.953H746.198L742.607 276.142C742.607 276.142 739.418 276.544 738.221 276.937L737.024 277.339C737.024 277.339 736.219 277.741 737.024 279.733C737.819 281.725 740.615 285.326 740.615 285.326V287.318L737.819 290.114L735.827 293.705C735.827 293.705 735.424 297.699 735.424 300.093C735.424 302.487 734.63 307.275 734.63 307.275L733.825 312.466L736.219 315.252L738.613 321.64L736.622 325.231L727.438 326.83C727.438 326.83 719.058 333.218 718.263 334.415C717.459 335.612 714.27 338.006 714.27 338.006L720.657 340.803L719.853 344.394L714.672 347.583L716.664 365.941L720.255 369.002H735.022L739.016 372.731L738.221 380.718L738.613 383.907L740.615 386.703L739.418 393.09L740.615 400.665H724.249L712.278 402.667L695.509 411.841L690.319 417.836L685.531 417.434L681.94 413.038C681.94 413.038 678.751 415.835 677.554 416.639C676.357 417.434 670.361 419.426 670.361 419.426C670.361 419.426 667.967 420.23 666.378 420.23C664.788 420.23 656.399 419.828 656.399 419.828C653.2 417.836 649.217 417.836 648.01 417.836C646.803 417.836 638.836 417.434 638.836 417.434C634.842 417.836 626.865 422.222 626.865 422.222L614.09 424.616L603.709 428.61C603.709 428.61 598.126 429.404 596.929 429.012C595.732 428.61 588.942 421.427 588.942 421.427C588.942 421.427 588.54 416.639 589.344 415.04C590.139 413.44 592.141 408.701 592.141 408.701L596.124 405.463L599.716 401.47L603.317 390.294C603.317 390.294 600.52 385.506 599.716 383.112C598.921 380.718 598.518 379.521 598.518 377.921C598.518 376.322 598.921 369.002 598.921 369.002C598.921 369.002 599.716 369.542 599.716 367.148V343.197L602.914 338.006C602.914 338.006 599.716 330.019 600.913 328.822C602.119 327.625 605.711 322.445 605.711 322.445L609.302 303.684C609.302 303.684 608.497 300.093 608.9 296.894C609.302 293.705 609.694 292.508 609.694 290.909V280.135H602.914L596.124 280.93L591.336 284.924L589.344 288.515L585.351 292.106L582.162 295.697L576.167 294.5L569.387 292.106L565.393 290.909L562.352 291.655V304.832L558.761 308.816C558.761 308.816 553.972 312.417 552.373 314.006C550.774 315.606 550.381 318 550.381 318C550.381 318 551.578 321.189 550.381 323.19C549.184 325.182 547.987 327.978 547.987 327.978C547.987 327.978 545.593 331.167 545.191 334.366C544.788 337.555 545.191 339.557 545.191 339.557C545.191 339.557 544.435 339.557 545.014 341.951C545.593 344.345 544.798 347.534 544.798 347.534V351.125L542.394 355.521V361.506C542.394 361.506 541.197 364.695 540.402 365.892C539.598 367.089 538.008 371.887 537.204 373.476C536.409 375.076 532.415 380.266 532.415 380.266V385.849C532.415 387.449 528.824 392.237 528.824 392.237L531.218 397.025L527.225 403.413V408.701L521.24 411.792L523.634 414.991L522.741 417.179H518.247L516.451 421.673V430.955L519.15 435.144L520.945 438.137L516.451 444.122C516.451 444.122 510.761 446.821 509.868 446.821C508.975 446.821 504.177 447.714 503.284 448.018C502.381 448.312 499.693 448.616 498.191 449.813C496.69 451.01 495.797 451.609 494.895 451.903C494.002 452.207 491.608 450.412 488.016 451.903C484.425 453.404 479.333 450.775 478.136 451.942C476.939 453.11 472.151 452.384 472.151 452.384C472.151 452.384 460.769 457.898 459.876 458.193C458.973 458.497 456.137 463.835 456.137 463.835V466.229C456.137 466.229 459.729 465.63 460.622 466.229C461.524 466.827 470.502 466.229 470.502 466.229L472.298 466.494H485.171C488.458 465.924 497.74 466.494 497.74 466.494C497.74 466.494 500.134 465.866 501.037 466.494C501.93 467.122 503.127 467.122 504.324 467.72C505.521 468.319 505.227 468.623 507.621 468.917C510.015 469.221 514.803 468.917 514.803 468.917L517.197 469.055H518.993C518.993 469.055 517.796 470.713 516.903 471.615C516 472.508 511.81 477.002 511.81 477.002L511.212 480.299C511.212 480.299 512.409 481.192 511.81 482.389C511.212 483.586 508.465 484.489 509.24 485.98C510.015 487.481 511.163 487.481 509.24 488.678C507.326 489.875 506.424 490.17 505.521 491.072C504.628 491.975 502.528 493.467 502.528 493.467L501.93 495.861C501.93 495.861 504.324 498.255 505.227 498.853C506.119 499.452 507.621 498.853 507.621 498.853C507.621 498.853 507.866 498.186 509.24 499.118L510.613 500.05L514.205 503.347C514.205 503.347 513.91 503.642 513.91 504.839V512.924L514.205 515.023L511.516 518.615L509.24 521.303V526.091L507.326 529.094C507.326 529.094 504.922 530.889 504.03 531.782C503.127 532.685 501.635 534.481 501.635 534.481L501.93 537.767L505.825 538.965L503.431 544.655V546.755C503.431 547.648 503.725 551.239 503.725 551.239V555.429L501.635 556.93L500.134 560.521L500.438 562.317L501.331 564.417L498.044 569.803C498.044 569.803 495.944 571.295 493.855 571.893C491.755 572.492 488.458 573.689 486.967 573.993C485.465 574.288 481.874 576.986 481.874 576.986L478.587 579.38L475.595 582.373L475.29 588.064L475.889 590.153L476.193 591.645C476.193 591.645 476.095 591.861 475.595 594.647C474.996 597.934 476.487 597.041 474.996 597.934C473.495 598.837 471.405 600.338 471.405 600.338L469.305 605.126L469.904 607.815C469.904 607.815 469.904 609.316 471.101 610.209L472.298 611.112V617.696L472.003 622.788L471.699 624.878H473.2L479.784 626.978C481.874 627.871 485.171 626.978 485.171 626.978L490.558 629.068H496.543C496.543 629.068 497.74 628.773 498.643 629.068C499.536 629.372 503.127 629.068 503.127 629.068L507.022 629.205L509.24 630.569H510.918L514.205 631.766H524.379L528.579 633.257H538.45L543.248 631.462L551.922 628.469L560.605 626.075L562.352 623.985C562.352 623.985 560.311 621.591 560.007 620.394C559.702 619.197 559.104 615.596 559.408 614.104C559.702 612.603 559.408 606.618 560.007 605.421C560.605 604.224 562.352 597.934 562.352 597.934C562.352 597.934 559.604 597.041 562.352 595.246C565.099 593.45 570.486 588.064 570.486 588.064C570.486 588.064 571.683 585.365 570.486 585.071C569.289 584.767 567.493 582.373 567.493 582.373C567.493 582.373 565.992 580.273 564.795 579.674C563.598 579.076 561.508 576.986 561.508 576.986C561.508 576.986 561.508 573.993 560.909 573.09C560.311 572.198 558.505 570.696 558.505 570.696L557.613 568.901L560.311 565.908L557.613 565.31C557.613 565.31 556.71 564.113 556.415 563.22C556.111 562.317 555.513 560.217 555.513 560.217L554.914 555.733L556.415 550.945C556.415 550.945 555.817 548.551 557.014 548.551C558.211 548.551 560.311 547.05 560.311 547.05L562.401 544.351L565.992 533.283L567.189 530.889L571.016 527.593L572.88 525.198C572.88 525.198 575.568 523.697 575.568 521.607V511.128C575.568 511.128 576.765 509.637 578.267 509.637C579.768 509.637 581.563 509.333 581.563 509.333C581.563 509.333 584.252 509.028 585.449 508.135C586.646 507.233 591.738 505.143 591.738 505.143L593.828 502.445C593.828 502.445 592.935 497.656 593.828 496.763C594.721 495.871 595.624 493.771 596.232 492.574C596.831 491.367 598.028 488.08 598.921 487.776C599.823 487.481 602.512 487.776 601.913 486.579C601.315 485.382 600.716 485.087 600.716 482.987C600.716 480.888 599.824 480.299 599.824 477.601C599.824 474.902 599.225 475.511 599.519 473.411L599.824 471.311L602.002 470.114V467.122C602.002 467.122 599.225 465.032 600.422 464.727C601.619 464.433 605.21 464.129 605.21 464.129C605.21 464.129 607.604 462.284 608.801 462.461C609.998 462.637 614.787 462.588 614.492 462.461C614.188 462.333 618.976 462.461 618.976 462.461C618.976 462.461 624.363 459.341 626.463 459.046C628.553 458.742 633.047 457.545 633.047 457.545C633.047 457.545 636.638 456.947 638.139 456.348C639.631 455.75 641.132 454.248 643.82 453.954L646.518 453.65L651.905 454.847L657.596 454.248H668.968C668.968 454.248 669.567 454.847 671.666 453.355C673.756 451.854 686.934 450.363 686.934 450.363C686.934 450.363 685.433 450.363 688.425 449.764C691.418 449.166 695.313 448.862 697.707 447.969C700.101 447.066 702.8 445.869 704.595 445.575C706.391 445.27 710.581 444.976 712.072 444.976C713.563 444.976 720.756 444.377 720.756 444.377C720.756 444.377 722.257 443.475 723.15 443.475C724.043 443.475 725.544 443.18 725.544 443.18L727.644 443.779L730.332 444.377L728.242 450.657C728.242 450.657 726.447 455.445 725.544 456.348C724.651 457.251 720.461 462.461 720.461 462.461L718.656 465.032L718.057 466.827L717.164 469.221V471.017L718.96 471.615C718.96 471.615 723.454 472.214 721.953 472.812C720.461 473.411 719.254 475.511 718.656 476.404C718.057 477.306 717.763 479.7 717.459 480.898C717.164 482.095 717.164 483.292 717.164 484.489V489.277L715.369 493.172L714.466 496.763L713.868 498.559L711.778 501.846L711.474 510.834C711.474 510.834 712.671 520.705 712.376 521.902C712.072 523.099 714.77 523.697 714.77 523.697L716.566 524.894L706.087 532.685V546.755L708.481 551.838C708.481 551.838 709.384 553.035 709.384 553.938V558.127L700.994 567.105L699.503 574.288C699.503 574.288 698.904 578.781 699.199 579.978C699.503 581.176 700.101 585.669 700.101 585.669L701.897 591.35L700.7 597.041L696.51 604.224L695.912 614.104L687.827 623.985L691.418 626.673L697.109 627.272L706.989 625.182C706.989 625.182 713.573 624.878 715.065 624.878C716.556 624.878 730.332 625.476 730.332 625.476L739.016 630.569L750.692 629.068L759.67 624.878L769.845 619.795L775.84 614.997L780.628 614.104L783.316 612.309L785.416 606.618L790.499 611.112L793.501 606.324L797.092 603.331V597.64C797.092 597.64 792 590.458 792 589.555C792 588.652 791.706 585.365 791.706 585.365C791.706 585.365 791.706 583.57 790.803 583.57C789.9 583.57 788.703 584.472 787.212 583.275C785.711 582.078 787.614 569.705 787.614 569.705L786.015 561.718C786.015 561.718 784.013 558.53 784.818 557.333C785.613 556.126 787.614 554.134 787.614 554.134C787.614 554.134 788.811 549.346 787.614 548.149C786.417 546.951 784.415 539.769 784.415 539.769L785.21 536.178C785.21 536.178 785.613 534.176 785.21 532.979C784.818 531.782 784.013 527.396 784.415 526.199C784.818 525.002 787.212 513.022 787.212 513.022L784.415 507.037L785.21 499.059C785.21 499.059 787.212 496.655 788.007 495.458C788.811 494.261 791.205 490.278 791.205 490.278L793.197 477.1L789.204 466.327C789.204 466.327 790.008 462.333 790.803 460.734C791.598 459.144 793.992 453.954 793.992 453.954L797.092 449.96L792.098 440.188L789.302 433.398L787.133 425.705L788.507 422.124L789.704 417.63C789.704 417.63 789.41 414.942 789.106 414.039C788.811 413.146 789.41 410.448 789.41 410.448H793.001L793.599 413.44L794.198 416.433L797.289 416.639L796.092 420.024L800.478 423.017L804.471 423.419L812.056 423.821C812.056 423.821 815.254 421.427 817.246 421.427C819.238 421.427 830.021 420.23 830.021 420.23L826.028 413.843C826.028 413.843 827.627 412.646 827.627 411.046C827.627 409.447 828.02 406.66 828.02 406.66L830.021 402.667L831.611 397.476L834.407 393.885V379.118L831.611 375.125ZM574.774 492.073H569.583L570.986 489.179L567.189 487.285V486.284H572.782L577.972 487.481L579.169 489.875L574.774 492.073ZM583.909 338.418L583.104 335.22L584.703 332.433L587.097 335.426L583.909 338.418Z" fill="#ECECEC"/>
<path d="M987.473 320.502C987.621 319.462 987.925 314.664 988.219 314.223C988.523 313.771 989.416 311.671 990.613 310.327C991.81 308.983 992.262 307.933 993.164 307.187C994.057 306.432 994.656 305.392 994.656 305.392L995.706 303.439C995.706 303.439 993.763 302.694 992.713 301.644C991.663 300.594 990.466 300.299 989.867 299.701L987.925 297.758C987.925 297.758 986.875 295.511 987.022 294.766C987.179 294.01 987.179 291.322 987.326 290.419C987.473 289.526 988.219 286.828 988.219 286.828C988.219 286.828 990.015 284.885 990.015 283.688C990.015 282.491 989.269 280.244 989.867 279.792C990.466 279.341 992.566 277.85 992.566 277.85L993.91 276.505L994.057 270.962L989.122 269.47L985.374 270.962L981.635 272.963H975.199C975.199 272.963 972.952 273.954 972.51 274.553C972.059 275.151 968.762 277.546 968.762 277.546L967.114 277.997L963.375 272.963C963.375 272.963 962.031 273.611 960.383 272.963C958.734 272.306 952.896 270.962 952.896 270.962L952.455 270.069L947.657 268.715C947.657 268.715 944.517 268.568 943.771 268.568C943.025 268.568 938.826 267.675 938.826 267.675L934.195 265.271L930.594 264.378V279.341L923.411 281.441L924.913 290.124L923.411 297.601L920.723 304.793C920.723 304.793 919.526 302.399 919.222 304.793C918.927 307.187 919.222 312.869 919.222 312.869L915.405 314.37L913.531 317.657H899.765L898.273 322.455L905.75 327.537L904.553 350.586L906.947 356.581L904.553 361.369L896.772 369.012L898.872 375.135L903.061 376.636L902.757 380.227L900.069 384.712L896.772 388.303H892.582V395.789L895.869 399.38L898.567 402.079L895.575 408.712C895.575 408.712 889.589 412.558 888.392 412.852C887.195 413.156 882.702 416.443 882.702 416.443L877.913 425.725L876.118 435.606L868.631 438.599L860.85 440.394L857.858 442.484V446.38L860.85 447.881L862.342 453.12L863.549 464.944C863.549 464.944 863.244 468.231 863.244 469.428V473.323L865.943 476.61L868.337 480.211L868.033 483.802L865.04 489.189L866.541 492.084L866.237 497.873L865.344 503.554C865.344 503.554 867.434 502.357 866.237 505.055C865.04 507.743 859.349 513.729 859.349 513.729C860.85 515.534 862.646 515.828 862.95 517.33C863.244 518.821 863.549 520.617 863.549 520.617L867.14 522.118L871.025 524.208L870.132 526.003L865.943 528.398L862.95 530.193L857.858 533.49V541.575C857.858 541.575 856.661 542.468 856.062 543.371C855.464 544.263 852.765 546.363 852.471 547.56L852.167 548.757L850.371 557.137C850.371 557.137 850.97 559.236 850.371 559.531C849.773 559.835 845.583 563.426 845.583 563.426L844.082 565.516V571.806C844.082 571.806 842.885 573.003 841.992 574.504C841.089 575.995 839.598 576.898 839.598 577.791C839.598 578.684 836.899 582.883 836.899 582.883L842.885 591.263L843.483 596.355L846.78 600.839L850.371 606.53L846.181 610.72L840.795 614.909V619.403H844.68L851.872 621.797L854.865 623.897L859.948 625.389H865.344L868.337 624.191L867.738 620.296L875.215 619.698C875.215 619.698 882.407 616.411 883.751 616.106C885.096 615.812 892.278 614.016 892.278 614.016C892.278 614.016 892.877 610.72 893.181 609.523C893.475 608.326 892.877 606.236 894.672 604.734C896.468 603.233 898.567 600.545 900.069 599.044C901.56 597.552 902.463 597.248 903.061 596.051C903.66 594.854 904.857 593.657 904.857 592.46C904.857 591.263 904.258 590.066 904.553 589.173C904.857 588.27 902.757 587.377 905.75 585.876C908.742 584.375 913.531 582.285 913.531 582.285C913.531 582.285 914.129 577.791 915.032 577.192C915.925 576.594 918.623 575.397 918.623 573.905C918.623 572.414 919.526 571.806 919.526 569.117C919.526 566.429 919.82 564.623 920.723 564.025C921.616 563.426 924.01 561.032 924.01 561.032L925.511 555.94C925.511 555.94 925.207 547.56 925.511 546.658C925.805 545.765 928.504 545.166 928.504 545.166L935.087 544.263L941.377 542.772C941.377 542.772 944.664 540.074 945.567 539.475C946.46 538.877 948.559 537.984 950.355 537.081C952.15 536.188 952.455 536.483 953.652 535.286C954.849 534.088 957.841 531.39 957.841 531.39C957.841 531.39 960.53 529.595 960.53 528.103V522.412C960.53 520.018 958.44 519.42 958.136 518.527C957.841 517.624 957.243 514.631 957.537 513.434C957.841 512.237 958.44 508.646 958.44 508.646L960.53 503.259L957.841 498.765L959.038 493.379C959.038 493.379 959.931 490.386 959.333 489.189C958.734 487.992 959.038 483.498 959.038 483.498L963.522 478.111C963.522 478.111 964.121 465.837 963.522 464.041C962.924 462.245 961.128 458.056 962.031 456.555C962.924 455.063 963.787 451.168 963.787 451.168C963.787 451.168 963.159 446.085 963.787 444.888C964.425 443.681 963.787 441.591 963.787 441.591L960.235 438.599C960.235 438.599 957.841 436.499 959.637 435.008C961.432 433.506 962.63 430.219 962.63 430.219C962.63 430.219 964.916 429.621 964.072 428.424C963.228 427.227 964.258 421.536 964.258 421.536L962.924 416.443L964.258 411.655C964.258 411.655 965.622 409.958 965.917 408.712L966.221 407.465L968.909 406.867C968.909 406.867 966.819 401.176 967.114 400.283C967.418 399.38 968.909 393.699 968.909 393.699L971.313 390.402L976.7 385.909C976.7 385.909 980.291 380.826 981.488 379.923C982.685 379.03 986.571 375.439 986.571 375.439C986.571 375.439 989.269 376.038 989.269 375.135V369.012L992.86 363.165L994.656 354.775L988.975 347.593L985.374 345.199L980.89 344.904L979.094 342.805L978.79 330.236L986.276 324.398C986.276 324.398 987.326 321.552 987.473 320.502ZM867.14 563.485L862.95 567.302L862.499 563.269L864.147 561.317L867.14 559.678V563.485Z" fill="#ECECEC"/>
<path d="M1361.66 222.912L1355.67 224.502L1353.67 225.502L1352.08 227.7C1352.08 227.7 1349.68 227.897 1348.68 227.897C1347.68 227.897 1346.09 228.093 1345.09 228.299C1344.1 228.495 1341.7 229.496 1341.7 229.496C1341.7 229.496 1341.11 230.487 1340.1 231.085C1339.1 231.684 1337.71 232.086 1337.71 232.086L1335.11 232.685L1334.12 233.283L1331.94 230.124C1332.05 230.34 1332.48 231.429 1330.32 232.685C1327.93 234.088 1324.94 236.874 1324.94 236.874L1323.54 238.072L1321.94 238.67L1317.15 239.072H1314.56C1313.16 239.072 1312.37 239.671 1311.56 239.867C1310.77 240.073 1306.98 242.467 1306.98 242.467L1303.58 243.664L1296 245.862L1292.81 247.854L1290.81 250.248C1292.01 251.641 1294.2 255.439 1294.2 255.439L1289.61 261.022L1289.82 262.425L1291.21 265.211C1291.21 265.211 1292.21 265.81 1292.61 266.408C1293.01 267.007 1293.8 269.411 1293.8 269.411L1291.61 274.798L1288.01 279.184L1287.22 285.571L1287.02 294.157L1280.04 299.936L1278.64 308.924L1281.43 315.704L1284.03 317.901V320.492C1284.03 320.492 1287.22 323.691 1287.41 324.289C1287.62 324.888 1288.01 326.879 1288.01 326.879L1287.82 330.078L1282.63 332.472C1282.63 332.472 1280.44 333.866 1279.63 334.464C1278.84 335.063 1271.25 341.646 1271.25 341.646L1269.46 342.049L1266.27 343.246L1263.67 347.033C1263.67 347.033 1262.67 350.624 1263.07 351.429C1263.47 352.224 1263.87 353.421 1263.07 354.019C1262.28 354.618 1261.68 357.012 1261.68 357.012L1262.47 361.408V364.204L1259.28 366.598L1258.09 369.002L1256.29 372.181L1253.69 380.168L1255.89 381.758L1252.69 391.736C1252.69 391.736 1251.49 393.336 1251.49 396.328C1251.49 399.321 1252.09 403.717 1252.09 404.315C1252.09 404.914 1253.09 408.701 1253.09 408.701L1251.9 413.892L1253.69 417.081L1253.09 420.279L1251.7 421.673L1251.9 435.448L1255.29 436.047L1255.69 438.235C1255.69 438.235 1253.89 441.228 1253.29 441.434C1252.69 441.63 1250.1 443.023 1250.1 443.023L1249.5 444.878L1245.51 447.615L1243.71 444.878C1243.71 444.878 1240.92 441.031 1239.92 440.629C1238.92 440.237 1236.53 438.637 1236.53 438.637L1235.33 435.841L1231.94 433.643L1229.74 433.849L1227.94 430.857L1226.75 428.659L1223.96 428.462L1221.57 425.215H1216.97L1216.57 422.673H1212.98L1209.39 418.876L1208 420.073L1198.21 411.694H1195.22L1189.14 404.315L1183.85 403.118L1176.46 396.132L1166.29 392.541L1162.29 390.539L1166.08 386.752L1170.48 386.153L1171.87 384.554L1173.07 376.773L1171.87 369.002H1168.47L1165.88 365.401L1162.89 361.202L1161.69 358.209L1159.9 355.815L1154.71 356.021L1150.71 350.624L1146.52 345.444C1146.52 345.444 1145.52 345.041 1145.33 342.843C1145.13 340.655 1145.13 338.055 1145.13 337.457C1145.13 336.858 1144.73 334.268 1144.13 333.463C1143.53 332.668 1140.94 329.872 1140.94 329.872C1140.94 329.872 1141.54 328.675 1141.74 327.88C1141.93 327.076 1141.14 323.092 1141.14 323.092L1137.74 320.099L1136.75 317.107L1137.14 314.31L1135.56 310.317L1132.96 306.529L1128.57 303.527L1126.18 299.74L1123.78 294.549L1122.78 290.163L1118.59 287.367L1113.8 282.981L1113 278.389L1113.2 272.796L1105.62 273.797L1097.44 274.798L1084.46 274.395L1071.29 276.789L1058.32 275.995L1048.34 276.387L1041.65 276.093L1043.65 283.275L1038.86 292.057V296.845L1034.87 299.239L1031.68 301.633V316.4C1031.68 316.4 1028.88 317.205 1031.68 318.794L1034.47 320.394L1037.97 321.09L1042.95 320.698L1050.84 320.394C1050.84 320.394 1042.41 325.987 1040.63 326.781C1038.86 327.576 1036.46 329.97 1036.46 329.97L1034.47 333.964L1036.07 337.162L1044.84 343.942H1035.27C1034.07 343.942 1032.18 346.435 1032.18 346.435L1034.27 349.427L1035.47 352.43L1033.67 356.021C1033.67 356.021 1032.28 355.118 1030.44 356.021C1028.59 356.914 1025.56 356.021 1025.56 356.021C1023.8 357.218 1020.8 359.906 1020.8 359.906V364.999L1018.7 367.687L1020.5 370.984C1020.5 370.984 1022.89 371.288 1022.6 373.378C1022.3 375.478 1022 379.363 1022.3 380.266C1022.6 381.159 1022.6 389.548 1022.6 389.548L1025.56 395.229V416.188L1028.88 420.976L1026.79 430.258L1030.08 442.827L1031.87 449.715L1032.47 454.503V458.389C1032.47 458.389 1032.18 463.785 1032.78 466.179C1033.37 468.574 1034.77 472.459 1034.77 472.459C1034.77 472.459 1035.87 475.157 1034.77 476.659C1033.67 478.15 1034.77 487.432 1034.77 487.432L1033.37 491.916L1031.58 494.919L1030.98 501.198L1029.18 504.495L1028.59 508.086V514.974L1030.68 520.057L1022 521.852L1018.7 526.945L1020.8 530.536L1018.7 535.628V550.297L1022.3 552.387C1022.3 552.387 1026.49 550.896 1025.59 552.387C1024.69 553.888 1022.3 556.283 1022.3 556.283L1017.21 559.677H1010.33L1007.63 563.484L1014.21 565.26H1019.01L1022.6 568.557L1027.08 569.754L1030.68 572.747C1030.68 572.747 1032.78 573.345 1033.37 574.238C1033.97 575.141 1039.36 579.027 1039.36 579.027C1039.36 579.027 1040.56 579.331 1042.35 580.528C1044.15 581.725 1045.34 583.52 1045.34 583.52L1048.04 585.316C1048.64 582.922 1050.94 582.922 1050.84 580.822C1050.73 578.732 1053.13 575.435 1053.13 575.435C1053.13 575.435 1052.83 570.951 1053.13 569.754C1053.43 568.557 1053.13 565.859 1053.13 565.859L1053.26 563.484V560.767L1055.53 561.071V559.677H1063.6C1063.6 559.677 1065.7 557.774 1065.7 556.881C1065.7 555.988 1068.7 550.896 1068.7 549.993V545.499C1068.7 545.499 1068.39 541.908 1068.7 538.915C1068.99 535.923 1071.99 530.242 1071.99 530.242V514.67L1076.48 511.079L1080.67 507.184L1086.36 505.094L1090.85 501.797L1096.53 498.51V460.489L1094.14 459.292L1099.53 459.596L1101.32 457.192L1104.02 453.11L1108.81 449.715L1110.31 448.214L1114.19 444.878L1120.48 442.827L1128.26 441.934L1130.36 443.426L1134.25 444.878L1136.05 447.017L1140.54 450.608L1144.44 453.11L1148.62 456.593L1153.71 457.79L1158.8 458.693L1163.29 460.489C1163.29 460.489 1161.5 461.391 1163.29 461.99C1165.09 462.588 1169.57 464.08 1169.57 464.08L1171.67 465.277L1175.86 466.474L1177.36 472.459L1182.45 479.053L1179.76 488.031L1188.14 491.622L1196.82 492.515L1198.31 494.614C1198.31 494.614 1198.91 494.31 1199.81 495.213C1200.71 496.116 1205.8 497.911 1205.8 497.911C1206.69 499.403 1209.99 500.305 1209.99 500.305L1212.98 502.994L1215.68 508.381C1215.68 508.381 1218.07 512.875 1218.67 514.67C1219.27 516.466 1221.07 520.057 1221.07 520.057L1223.16 523.952L1226.15 529.035V538.317L1220.16 540.112L1223.75 547C1223.75 547 1226.45 547.599 1226.15 548.796L1225.85 549.993L1228.85 555.38L1230.35 559.677L1233.64 563.484L1235.14 567.301C1235.14 567.301 1236.33 568.557 1237.23 568.852C1238.13 569.156 1242.61 570.951 1242.61 570.951L1247.11 572.443C1247.11 572.443 1249.5 575.141 1250.1 576.034C1250.7 576.937 1254 579.929 1254 579.929L1256.09 583.825V594.294H1258.48L1263.57 597.287L1265.97 606.274V609.561L1268.96 614.654L1272.26 616.145L1273.75 618.539C1273.75 618.539 1272.26 620.345 1273.75 621.238C1275.25 622.14 1277.34 625.378 1277.34 625.378L1280.93 627.527H1285.73V620.639L1289.92 620.345V616.449L1293.51 615.851L1296.5 615.252L1298.3 612.554V608.07L1296 599.082L1298.3 590.507L1294.61 587.906L1291.41 588.112L1293.01 579.527L1296.6 578.134L1300.19 572.747L1304.78 570.745H1308.37L1316.56 566.958L1320.34 566.163L1321.34 562.366L1320.34 555.978L1319.15 553.987L1309.37 551.386L1303.39 547.197L1300.39 542.811L1296 539.416L1292.81 535.226L1288.82 533.431L1288.01 529.437L1290.81 525.051L1290.21 520.263L1290.01 514.474L1291.81 513.071L1292.41 507.488L1294.01 505.486L1296.4 503.298L1294.2 494.31L1291.02 490.925L1291.21 483.939L1292.61 477.149L1292.01 470.771L1295.6 468.574V461.99L1299.99 456.799L1300.59 450.215L1294.8 445.221L1297.39 439.834L1304.18 438.235C1304.18 438.235 1307.18 437.038 1307.97 436.243C1308.78 435.448 1311.96 432.652 1312.56 432.25C1313.16 431.848 1315.16 431.848 1315.16 431.053C1315.16 430.258 1314.96 426.265 1314.96 426.265C1314.96 426.265 1314.96 421.869 1315.56 421.476C1316.15 421.074 1318.55 418.484 1318.55 418.484L1319.35 414.294L1320.15 407.906L1323.93 404.708L1317.95 394.533L1318.95 387.144L1316.96 380.767C1316.96 380.767 1318.55 375.37 1319.15 374.978C1319.74 374.575 1323.93 371.386 1323.93 371.386L1322.35 358.807L1323.93 354.422L1326.53 350.232L1327.54 344.443L1332.92 339.056L1335.71 335.661V329.48L1341.11 322.69L1339.51 314.909L1336.51 307.324L1338.51 303.331L1343.1 299.543L1341.3 293.156C1341.3 293.156 1342.5 289.565 1343.1 288.564C1343.7 287.563 1344.89 284.776 1344.89 284.776L1342.3 279.586L1349.08 271.206V262.621L1352.67 253.643L1354.47 248.05C1354.47 248.05 1356.26 245.656 1356.86 244.459C1357.46 243.262 1359.06 241.064 1359.66 240.466C1360.26 239.867 1362.86 237.875 1362.86 237.875L1364.25 235.285V233.283L1366.05 230.889L1368.04 228.897H1370.64V222.912H1361.66ZM1255.89 506.291L1253.89 504.691L1255.89 499.903L1256.89 503.092L1255.89 506.291ZM1259.7 492.78L1257.3 495.478V491.435L1259.7 489.934V492.78ZM1264.07 484.734L1263.27 482.34L1265.48 479.534L1266.47 482.34L1264.07 484.734ZM1266.27 450.225H1264.07L1266.27 446.026L1268.86 448.126L1266.27 450.225Z" fill="#ECECEC"/>
<path d="M1406.41 305.185L1399.62 311.975C1398.43 313.172 1396.43 315.968 1396.43 315.968V318.765L1394.04 321.561L1391.24 323.161L1386.46 327.547L1382.46 330.343V332.335L1379.67 334.729C1376.48 337.525 1373.68 339.517 1372.48 340.714C1371.29 341.911 1370.64 343.903 1370.64 343.903V346.297L1364.9 350.291V354.677C1364.9 354.677 1358.91 360.662 1357.72 360.662C1356.52 360.662 1349.73 363.056 1349.73 363.056L1342.05 366.951L1343.55 371.445H1345.05L1344.45 374.143V377.735H1345.95L1347.45 378.932L1351.64 380.727H1354.04L1357.93 382.827C1357.93 382.827 1357.93 385.221 1357.63 386.418C1357.32 387.615 1357.32 390.912 1357.32 390.912C1357.32 390.912 1357.63 395.406 1357.63 396.603C1357.63 397.8 1357.32 399.301 1357.32 399.301L1354.03 402.598L1354.93 406.189C1354.93 406.189 1356.13 406.788 1356.43 407.691C1356.74 408.593 1357.33 410.683 1357.33 410.683C1358.24 412.479 1358.24 415.177 1358.24 415.177L1360.94 416.678L1361.53 419.072L1361.23 423.861L1362.73 427.452L1358.84 432.24L1360.34 436.135H1363.33L1368.42 434.036H1379.79C1380.99 434.036 1384.29 433.731 1384.29 433.731L1384.89 436.125L1383.09 438.225L1379.2 441.218L1374.26 446.055C1374.41 448.4 1374.26 450.245 1374.26 450.245L1366.33 456.485H1357.95L1350.77 465.463L1349.27 472.351L1350.47 474.451C1350.47 474.451 1350.47 477.512 1351.06 479.573C1351.66 481.633 1352.26 483.429 1352.26 483.429L1352.86 487.324L1350.76 492.75C1350.76 492.75 1350.46 494.134 1350.46 495.517C1350.46 496.901 1349.86 499.942 1349.86 499.942C1349.86 499.942 1348.95 506.477 1348.36 506.33C1347.76 506.183 1347.45 508.273 1347.45 508.273L1351.64 512.767H1354.94C1354.94 512.767 1354.04 514.562 1355.24 515.161C1356.45 515.759 1359.43 516.956 1359.43 516.956L1361.83 518.457L1365.42 520.557L1366.92 522.657L1370.66 524.757C1370.66 524.757 1369.91 525.954 1368.41 526.856L1366.91 527.759C1366.91 527.759 1371.1 529.26 1369.01 529.859L1366.91 530.457C1366.91 530.457 1366.61 531.959 1367.51 532.557C1368.41 533.156 1370.65 534.951 1370.65 534.951L1374.24 537.65L1375.89 541.241C1375.89 541.241 1377.09 541.839 1377.09 542.742C1377.09 543.645 1377.99 546.333 1377.99 546.333H1382.18L1385.17 548.433L1387.27 549.934L1389.97 551.435H1393.56C1393.56 551.435 1395.36 553.231 1395.66 554.134C1395.96 555.036 1398.05 556.832 1398.05 556.832H1400.15L1400.75 558.628H1402.85L1409.14 562.817C1409.14 562.817 1409.14 561.316 1410.64 562.817C1412.14 564.318 1413.34 564.613 1414.23 564.917C1415.13 565.221 1414.23 566.114 1416.03 566.713C1417.82 567.311 1420.52 568.812 1420.52 568.812L1422.02 570.314L1424.72 572.109H1427.42L1429.22 576.299L1431.01 578.399L1433.71 581.695L1439.7 584.09H1446.58L1448.98 587.386C1448.98 587.386 1446.88 588.583 1448.98 589.182C1451.08 589.78 1456.46 592.773 1456.46 592.773V594.274L1460.96 596.374H1465.75L1472.04 592.783L1475.03 593.686C1475.03 593.686 1475.33 593.087 1478.92 593.087C1482.52 593.087 1484.91 592.783 1484.91 592.783H1488.5L1492.99 591.88L1496.89 590.683L1499.59 589.78L1502.29 589.476L1504.98 589.172L1508.28 588.269L1511.87 587.671L1516.06 586.474L1525.94 583.481L1533.13 582.578L1538.82 581.98C1538.82 581.98 1552.58 575.396 1554.38 574.798C1556.17 574.199 1559.17 574.199 1560.07 574.199C1560.97 574.199 1569.05 573.296 1569.95 573.296C1570.85 573.296 1577.44 572.394 1577.44 572.394L1581.93 570L1588.22 568.204L1592.41 564.907C1592.41 564.907 1590.91 563.406 1595.11 562.513C1599.31 561.62 1603.19 560.413 1603.19 560.413C1603.19 560.413 1603.79 560.717 1605.59 559.815C1607.38 558.912 1609.78 558.618 1610.68 557.715C1611.58 556.812 1613.38 555.919 1614.27 555.321C1615.16 554.722 1619.06 553.221 1619.06 553.221C1619.06 553.221 1620.56 552.024 1622.35 551.426C1624.15 550.827 1624.75 550.523 1625.95 549.924L1628.94 548.423C1628.94 548.423 1629.24 543.331 1628.94 543.331C1628.63 543.331 1626.84 544.233 1629.24 543.331C1631.65 542.428 1634.93 540.632 1634.93 540.632C1634.93 540.632 1636.13 539.73 1638.83 538.533C1641.53 537.336 1643.32 536.139 1644.81 535.236C1646.31 534.333 1649.31 531.341 1650.2 530.143C1651.09 528.946 1652.9 528.348 1653.79 527.151C1654.69 525.954 1657.69 524.158 1657.98 523.256L1658.29 522.353V519.36C1658.29 519.36 1655.89 517.26 1658.29 517.26C1660.68 517.26 1665.47 515.161 1665.47 515.161C1665.47 515.161 1667.86 514.562 1669.96 513.964C1672.06 513.365 1675.65 511.569 1675.65 511.569L1678.35 511.265L1679.47 509.097C1679.47 509.097 1678.87 507.753 1678.57 507.301C1678.26 506.85 1679.02 506.104 1677.07 504.603C1675.11 503.102 1673.62 501.905 1672.88 501.463C1672.13 501.022 1671.08 500.119 1671.08 500.119L1667.04 500.266C1666.73 499.216 1667.34 497.568 1667.04 497.126C1666.73 496.685 1665.39 494.879 1665.39 494.879L1665.09 493.829L1661.49 490.837L1660.59 489.493L1664.78 488.747L1668.23 489.944L1671.67 490.69L1675.41 492.034C1675.41 492.034 1676.91 492.338 1677.65 492.338C1678.4 492.338 1681.99 492.191 1681.99 492.191L1687.68 492.642L1689.93 493.388V484.253C1689.93 483.802 1689.03 483.056 1689.93 482.153C1690.83 481.251 1691.43 480.054 1691.43 480.054L1692.48 479.455V474.52C1692.48 474.52 1691.43 470.183 1691.43 469.584C1691.43 468.986 1692.48 467.789 1692.48 467.789C1692.48 467.789 1693.53 457.614 1693.82 457.162C1694.12 456.711 1693.68 455.367 1695.02 454.022C1696.37 452.678 1697.27 451.677 1697.42 450.755C1697.56 449.833 1697.72 448.184 1697.42 447.439C1697.11 446.693 1695.91 445.79 1695.47 445.045C1695.03 444.299 1693.37 444.142 1693.08 443.396C1692.78 442.65 1691.58 441.149 1691.28 440.404C1690.99 439.658 1690.09 436.812 1690.09 436.812C1690.09 436.812 1691.88 434.271 1692.19 433.82C1692.49 433.368 1693.38 430.68 1693.38 430.68L1696.23 428.139L1695.48 422.448C1695.48 422.448 1694.43 419.004 1694.58 417.355C1694.73 415.707 1694.43 415.255 1695.03 413.617C1695.63 411.978 1695.93 410.919 1695.93 410.919C1695.93 410.919 1697.18 410.919 1697.6 410.32C1698.02 409.722 1698.62 407.779 1698.62 407.779L1701.62 406.582L1703.72 405.679L1705.36 403.736L1709.86 401.342L1715.99 399.095L1718.98 397.3L1720.93 395.053L1722.72 392.806L1724.82 391.157L1727.07 390.255L1731.4 389.803L1734.85 389.951L1740.69 389.499V386.31L1739.84 381.718C1739.84 381.718 1739.44 381.316 1739.44 380.717C1739.44 380.119 1740.69 378.52 1740.69 378.52L1737.65 378.117L1737.24 375.527L1735.85 374.526L1736.05 372.534L1732.65 371.936L1733.65 369.031L1731.45 367.736L1730.45 363.144L1730.26 358.552L1728.26 357.758L1722.48 357.159L1719.89 358.552L1718.49 359.749L1716.7 361.741L1713.3 362.34L1710.31 361.937L1709.11 361.535L1707.32 359.543L1705.12 358.945L1699.13 358.749L1689.56 359.749L1680.97 359.946L1674.99 361.545L1661.22 362.742L1662.42 364.341L1644.45 364.145L1639.06 365.538C1639.06 365.538 1635.28 367.736 1635.07 367.138C1634.87 366.539 1633.08 365.538 1632.48 365.538C1631.88 365.538 1621.9 371.121 1621.9 371.121C1621.9 371.121 1617.12 372.318 1616.11 372.515C1615.11 372.711 1610.92 372.711 1609.73 373.113C1608.53 373.516 1605.94 376.508 1605.94 376.508C1605.94 376.508 1603.95 376.91 1603.35 377.107C1602.75 377.303 1597.16 377.901 1597.16 377.901C1597.16 377.901 1594.57 378.304 1593.97 378.098C1593.37 377.892 1591.38 377.695 1591.38 377.695L1587.98 377.499L1584.79 376.901L1572.23 380.296L1570.43 382.994L1567.13 385.388L1563.84 387.488C1563.84 387.488 1562.64 388.39 1560.25 389.283C1557.85 390.176 1554.86 391.383 1554.86 391.383C1554.86 392.884 1550.96 394.376 1550.96 394.376C1550.96 394.376 1548.57 396.171 1547.67 396.475C1546.76 396.78 1541.45 398.271 1541.45 398.271L1540.08 399.566C1540.08 399.566 1542.6 401.166 1541.45 401.362C1540.29 401.558 1534.5 405.355 1534.5 405.355L1528.92 407.151L1524.73 408.152C1524.73 408.152 1520.73 409.152 1520.13 409.349C1519.54 409.545 1518.34 409.751 1517.54 410.546C1516.75 411.341 1517.14 412.145 1515.55 412.145C1513.96 412.145 1511.96 412.547 1510.36 412.547C1508.76 412.547 1505.98 412.145 1504.57 412.744C1503.17 413.342 1501.98 413.744 1501.98 413.744L1502.38 415.942C1502.38 415.942 1505.98 415.746 1506.77 415.942C1507.56 416.139 1511.75 415.942 1513.16 415.942C1514.56 415.942 1517.54 415.54 1518.74 415.344C1519.94 415.148 1520.34 414.745 1522.33 414.549C1524.32 414.353 1525.32 414.549 1526.92 414.353C1528.52 414.157 1532.31 413.558 1533.71 413.156C1535.12 412.753 1536.11 411.762 1538.1 411.959C1540.09 412.155 1540.22 412.753 1541.46 412.753C1542.69 412.753 1541.29 412.557 1544.29 412.753C1547.29 412.95 1548.68 413.156 1549.48 412.753C1550.29 412.351 1553.07 411.753 1553.67 411.753C1554.27 411.753 1556.26 412.547 1559.66 411.556C1563.05 410.565 1563.85 409.761 1565.45 409.761C1567.04 409.761 1564.85 410.163 1569.64 410.359C1574.42 410.556 1577.62 411.154 1578.61 411.36C1579.6 411.566 1582.2 412.155 1582.8 412.361C1583.4 412.567 1585 414.353 1585 414.353L1585.6 415.55L1588.59 418.346L1591.78 421.143L1592.38 422.536L1593.38 422.938L1592.98 427.324L1590.78 432.907L1589.18 437.293C1589.18 437.293 1587.58 440.482 1587.38 442.081C1587.19 443.681 1586.59 445.869 1586.59 445.869L1589.18 447.262C1589.18 447.262 1591.57 446.86 1592.37 447.458C1593.16 448.057 1599.16 447.262 1599.16 447.262C1599.16 447.262 1601.96 448.861 1602.75 449.058C1603.55 449.254 1605.74 449.656 1606.34 449.46C1606.94 449.264 1608.54 449.058 1609.14 449.264C1609.74 449.47 1612.33 450.735 1612.33 450.735L1613.52 452.659L1614.72 454.052L1615.72 455.847L1618.12 457.839L1620.11 459.439L1621.11 461.43L1623.1 464.825L1622.5 469.015L1624.7 469.211L1625.7 471.409L1620.91 475.795L1619.72 476.796L1615.53 478.395C1615.53 478.395 1614.33 479.789 1612.94 479.995C1611.54 480.201 1607.35 482.389 1607.35 482.389L1604.56 484.184C1604.56 484.184 1602.76 485.381 1601.37 484.979C1599.97 484.577 1597.97 484.184 1597.37 483.978C1596.78 483.772 1594.98 482.977 1594.98 482.977L1592.99 482.183L1590.19 483.782C1590.19 483.782 1588.8 484.381 1588.4 484.979C1587.99 485.578 1586.4 486.775 1586.4 486.775L1584.8 487.177L1586.4 491.367L1588.99 493.359L1589.4 494.752C1589.4 494.752 1589.99 494.35 1590.59 495.35C1591.19 496.351 1592.59 497.342 1592.59 497.342L1593.18 499.736L1595.98 499.54L1593.99 503.534L1593.39 505.329C1593.39 505.329 1592.6 506.526 1592.39 507.321C1592.18 508.116 1591.19 510.716 1591.19 510.716L1591.39 512.511V515.308L1589.79 518.703L1590.79 528.682L1591.99 531.272L1592.18 534.667L1586.85 534.264C1586.85 534.264 1581.75 532.763 1581.15 532.763C1580.56 532.763 1581.01 532.91 1578.76 532.763C1576.51 532.616 1572.63 532.018 1572.03 531.861C1571.43 531.704 1569.49 531.713 1569.04 531.713C1568.59 531.713 1566.79 532.459 1566.79 532.459C1566.79 532.459 1565.89 533.058 1565.45 533.205C1565 533.352 1563.94 533.803 1563.5 533.951C1563.06 534.098 1559.17 535.599 1559.17 535.599C1559.17 535.599 1556.92 537.247 1556.17 537.542C1555.43 537.836 1554.52 538.592 1554.07 538.739C1553.62 538.886 1551.53 539.19 1550.78 539.337C1550.02 539.484 1548.24 540.083 1547.64 540.534C1547.04 540.986 1544.94 542.928 1544.94 542.928C1544.94 542.928 1542.77 544.125 1541.46 544.43C1540.14 544.734 1538.94 545.931 1536.55 546.225C1534.16 546.52 1533.7 547.128 1533.11 547.128C1532.51 547.128 1530.56 547.874 1529.97 547.726C1529.37 547.579 1527.87 547.422 1527.87 547.422C1526.67 546.971 1522.33 548.924 1521.58 549.071C1520.82 549.218 1520.23 549.375 1518.88 550.121C1517.52 550.866 1515.14 551.17 1514.54 551.023C1513.94 550.876 1509.3 548.031 1509.3 548.031C1509.3 548.031 1504.06 547.883 1503.01 547.579C1501.96 547.275 1500.47 543.242 1500.47 543.242C1500.47 543.242 1499.73 542.497 1499.57 541.898C1499.41 541.3 1498.07 538.307 1498.07 538.307C1498.07 538.307 1497.76 537.856 1496.87 537.11C1495.98 536.364 1494.77 535.167 1494.77 535.167C1494.77 535.167 1491.33 534.716 1490.87 534.117C1490.42 533.519 1492.97 530.978 1492.97 530.978C1492.97 530.978 1491.47 531.125 1490.73 530.673C1489.98 530.222 1487.74 528.731 1487.74 528.731L1488.93 527.082L1483.55 526.631C1483.55 526.631 1481.75 526.032 1481.15 525.885C1480.55 525.738 1475.02 524.688 1475.02 524.688L1471.33 521.244L1470.73 519.448L1469.34 516.858C1469.34 516.858 1468.74 514.268 1468.74 513.669C1468.74 513.071 1469.34 511.677 1468.74 511.275C1468.14 510.873 1467.35 510.873 1467.54 509.882C1467.74 508.891 1467.74 505.888 1467.74 505.888C1467.74 505.888 1466.94 504.093 1466.94 503.494C1466.94 502.896 1467.94 500.904 1467.94 500.904L1468.35 499.305L1466.95 497.509C1466.95 497.509 1465.56 495.713 1465.56 494.919C1465.56 494.124 1465.36 491.926 1465.36 491.926L1462.17 489.336C1462.17 489.336 1461.58 489.139 1460.78 488.541C1459.99 487.942 1458.79 487.344 1457.99 487.148C1457.18 486.951 1455.99 486.745 1454.59 486.147C1453.19 485.548 1451.6 484.95 1451.6 484.95C1451.6 484.95 1453.99 479.759 1453.59 478.964C1453.19 478.17 1451.39 477.365 1451.99 475.972C1452.59 474.578 1453.38 471.782 1453.38 471.782L1453.79 469.584L1451.79 466.994L1451.6 464.6L1452.2 461.009L1458.18 461.411L1461.37 461.607C1461.37 461.607 1460.58 460.214 1462.17 460.214C1463.75 460.214 1467.36 460.41 1467.36 460.41L1470.75 460.214L1476.14 461.215L1480.13 459.821L1482.33 458.624L1477.14 453.238L1474.15 449.45L1472.55 446.654C1472.55 446.654 1470.95 446.055 1471.15 444.662C1471.36 443.269 1471.35 441.071 1471.35 441.071C1471.35 441.071 1469.96 439.471 1469.96 438.677C1469.96 437.882 1469.76 435.88 1469.76 435.88C1469.76 435.88 1468.96 435.085 1467.37 434.281C1465.77 433.476 1464.18 432.485 1464.18 432.485L1459.79 425.273C1459.79 425.273 1458.19 423.9 1458.19 422.3V418.307C1458.19 418.307 1458.39 417.905 1457.79 415.511C1457.19 413.117 1457.19 412.714 1457.19 411.723C1457.19 410.732 1456.59 408.731 1455.8 408.132C1455 407.533 1453.81 406.935 1453.81 406.935L1450.02 405.934L1447.62 400.95L1448.62 397.555L1450.22 393.964L1451.62 391.766L1451.21 389.175L1450.21 385.182L1451.61 382.788L1451.21 379.393L1452.8 374.408L1449.81 370.621L1452.61 366.431L1453.4 364.636L1455 359.445C1455 359.445 1456.8 358.248 1456.99 357.453C1457.19 356.659 1457.59 354.657 1457.59 354.657C1457.59 354.657 1459.99 353.862 1459.58 352.665C1459.18 351.468 1458.99 350.87 1459.18 349.673C1459.38 348.475 1459.98 346.278 1460.38 345.483C1460.78 344.688 1461.77 341.892 1461.98 341.293C1462.18 340.695 1463.58 338.497 1463.58 338.497L1463.77 336.103C1463.77 336.103 1465.57 335.308 1465.17 334.503C1464.77 333.699 1464.77 333.11 1464.77 332.511C1464.77 331.913 1464.57 328.518 1464.57 328.518L1464.17 323.73L1466.56 321.532L1466.16 317.744L1468.36 316.95C1468.36 316.95 1469.75 317.352 1470.55 316.95L1473.74 315.35L1476.93 312.76L1479.33 310.964L1482.92 310.17L1483.92 307.373C1483.92 307.373 1483.12 302.987 1483.72 302.781C1484.32 302.575 1486.52 300.583 1486.52 300.583L1487.52 297.993L1491.51 295.599C1491.51 295.599 1493.91 292.008 1494.51 292.008C1495.1 292.008 1497.69 292.606 1498.5 292.008C1499.3 291.409 1502.29 290.212 1502.29 290.212L1504.68 289.015C1504.68 289.015 1507.27 287.622 1508.47 287.22C1509.66 286.817 1512.66 285.228 1512.66 285.228L1514.05 283.628C1514.05 283.628 1514.05 282.628 1515.25 282.235C1516.44 281.843 1517.24 281.038 1518.04 281.234C1518.85 281.43 1521.04 281.205 1521.04 281.205H1524.23L1525.62 279.439L1527.22 278.438L1531.6 277.045L1532.8 275.249L1533.4 272.855L1539.39 272.06C1539.39 272.06 1542.57 270.863 1543.17 270.863C1543.77 270.863 1547.96 270.068 1547.96 270.068C1547.96 270.068 1548.36 268.273 1549.35 268.076C1550.34 267.88 1552.35 266.477 1552.35 266.477L1554.34 264.878L1558.53 262.68L1560.13 261.287H1563.91L1565.91 260.09H1571.29L1573.29 261.287L1577.47 261.689C1577.47 261.689 1578.87 259.893 1579.47 260.09C1580.07 260.286 1584.06 261.885 1584.06 261.885L1589.45 262.68L1593.44 263.082L1598.83 264.681L1598.42 266.477L1597.63 269.666L1600.02 270.068L1600.22 272.06L1602.42 273.659L1605.81 275.857L1607.41 277.849V279.645L1610 282.039L1611.99 283.236L1612.79 286.425L1613.39 289.015L1615.78 291.605L1616.78 293.597L1618.77 294L1620.17 296.394L1620.57 298.592L1623.37 300.583L1626.55 300.986L1627.95 302.977L1630.94 303.978L1633.33 304.979L1636.73 307.373L1638.72 307.972L1640.71 309.169L1640.52 315.36L1641.91 316.557L1642.91 316.959L1646.31 315.36C1646.31 315.36 1646.71 314.762 1647.7 314.762C1648.69 314.762 1654.09 314.359 1654.09 314.359L1657.08 314.762H1659.67L1665.46 313.162L1666.85 311.769C1666.85 311.769 1668.25 314.163 1668.84 314.163C1669.44 314.163 1680.42 313.967 1680.42 313.967L1682.82 311.573L1684.21 309.179C1684.21 309.179 1685 308.384 1685.6 308.384C1686.2 308.384 1690.59 306.785 1690.59 306.785C1690.59 306.785 1692.78 305.391 1693.38 305.391C1693.98 305.391 1700.37 305.195 1700.37 305.195L1704.56 304.999L1706.35 302.801L1710.14 302.605L1712.13 303.605L1713.33 303.409L1715.13 304.41L1717.52 304.812C1717.52 304.812 1721.11 304.616 1721.91 304.812C1722.7 305.009 1727.89 305.009 1727.89 305.009L1729.29 304.214L1733.67 304.812L1737.86 304.018L1735.47 301.82C1735.47 301.82 1731.08 301.623 1730.48 300.623C1729.88 299.622 1728.88 298.631 1728.88 298.631C1728.88 298.631 1730.48 297.63 1727.49 297.63C1724.5 297.63 1722.3 297.434 1722.3 297.434L1720.91 296.04L1718.11 295.442C1718.11 295.442 1717.11 295.638 1716.51 294.843C1715.91 294.049 1714.71 293.244 1714.31 292.646C1713.91 292.047 1712.71 291.046 1712.71 291.046L1710.12 290.448L1708.73 290.251L1707.73 289.251C1707.73 289.251 1707.33 288.456 1707.13 287.857C1706.93 287.259 1705.33 285.061 1705.33 285.061L1704.93 283.864L1695.36 279.478C1695.36 279.478 1691.76 278.281 1691.17 277.879C1690.57 277.476 1688.77 275.887 1688.17 275.681C1687.57 275.475 1686.57 275.082 1685.18 274.287C1683.79 273.493 1681.79 273.09 1681.79 273.09C1681.79 273.09 1678.19 271.893 1678 271.295C1677.8 270.696 1672.01 266.31 1672.01 266.31L1669.02 265.516L1666.43 261.326L1665.83 258.529L1663.24 256.734L1663.04 255.134H1660.25L1658.65 249.551C1658.65 249.551 1657.26 245.764 1657.45 245.166C1657.65 244.567 1657.05 241.574 1657.05 241.574H1654.66L1656.45 237.983L1656.65 232.4H1646.67L1641.28 233.195L1639.08 233.391L1634.1 229.398L1625.72 225.61H1620.93L1616.55 227.406H1611.16L1607.76 229.398L1602.38 230.399L1604.17 231.998L1596.99 233.391L1598.38 234.785L1585.61 234.981L1579.22 236.776C1579.22 236.776 1578.02 237.777 1577.02 238.17C1576.02 238.562 1575.63 239.17 1574.03 239.563C1572.43 239.955 1570.04 241.359 1568.64 241.957C1567.25 242.556 1568.64 241.359 1567.25 242.556C1565.86 243.753 1563.86 244.95 1563.86 244.95C1563.86 244.95 1562.06 245.951 1561.27 245.744C1560.47 245.538 1556.28 245.548 1556.28 245.548L1553.69 247.746L1550.7 249.944L1542.71 250.14H1540.51L1535.73 249.738L1531.54 250.935L1527.54 248.541L1520.56 250.739L1516.77 253.928L1512.18 255.321L1504.59 256.92L1494.21 258.52L1490.42 261.11L1484.23 262.709L1481.84 266.703L1478.65 263.71L1473.07 266.507L1469.88 266.909L1467.29 268.302L1464.1 269.901L1463.1 270.696C1463.1 270.696 1462.5 270.098 1461.3 270.696C1460.1 271.295 1457.11 272.688 1457.11 272.688L1453.72 273.09C1453.72 273.09 1452.92 272.296 1452.32 272.492C1451.73 272.688 1447.94 275.288 1447.94 275.288L1442.75 277.084L1440.16 275.288L1437.76 275.092L1433.38 274.69L1427.39 278.085L1425.4 279.085L1422.41 280.086L1419.61 281.087L1417.02 281.882L1417.42 286.072L1418.42 287.465L1413.83 287.269L1410.44 289.466L1405.05 289.663L1394.07 291.861L1394.67 294.451L1396.27 295.049L1395.47 296.443L1396.27 298.435V299.632L1397.66 300.23L1400.06 301.231L1404.05 301.829L1403.45 303.223L1406.52 305.293L1406.41 305.185Z" fill="#ECECEC"/>
</g>
<defs>
<clipPath id="clip0_1162_2866">
<rect width="1656.56" height="564" fill="white" transform="translate(84 78)"/>
</clipPath>
</defs>
</svg>
