<svg width="1825" height="720" viewBox="0 0 1825 720" fill="none" xmlns="http://www.w3.org/2000/svg">
<g clip-path="url(#clip0_1222_2535)">
<path d="M352.464 477.422C351.055 521.488 331.917 554.856 291.877 574.863C272.385 584.603 251.4 587.162 229.695 584.783C213.184 582.972 197.53 578.699 183.112 570.439C160.796 557.667 145.376 539.164 137.165 514.709C130.064 493.563 129.057 472.081 134.383 450.54C141.993 419.761 160.13 396.877 188.204 381.971C210.521 370.121 234.493 366.752 259.113 370.462C299.164 376.498 328.372 397.71 344.493 435.381C350.179 448.675 352.662 462.779 352.464 477.422ZM166.739 473.909C166.373 487.899 168.58 501.972 173.816 515.488C183.676 540.95 200.745 558.943 227.758 566.094C245.66 570.835 263.077 569.391 279.151 559.657C297.113 548.772 306.847 531.893 312.179 512.192C316.917 494.69 317.205 476.96 314.248 459.117C311.399 441.938 304.886 426.391 293.539 413.096C275.552 392.028 252.582 383.253 225.281 387.647C203.18 391.201 187.58 404.375 177.421 423.963C169.402 439.427 166.541 456.132 166.739 473.915V473.909Z" fill="#ECECEC"/>
<path d="M872.617 373.573C874.734 373.387 876.059 373.189 877.379 373.171C901.962 372.883 926.54 372.506 951.124 372.374C976.056 372.236 999.794 377.169 1021.18 390.529C1046.68 406.461 1061.53 429.537 1066.29 459.158C1069.18 477.169 1068.39 494.941 1062.94 512.419C1055.06 537.659 1039.23 556.311 1015.89 568.611C998.36 577.853 979.498 582.438 959.766 582.349C941.684 582.271 923.607 580.952 905.525 580.496C897.002 580.281 888.456 580.838 879.922 580.988C878.644 581.012 877.361 580.712 876.119 580.568C876.119 579.891 876.023 579.597 876.131 579.454C884.222 568.647 885.037 555.868 885.787 543.143C886.225 535.771 886.213 528.368 886.207 520.984C886.159 485.627 886.129 450.269 885.907 414.912C885.841 404.063 884.738 393.304 879.04 383.648C877.157 380.46 875.064 377.391 872.611 373.567L872.617 373.573ZM917.628 475.725H917.022C917.022 491.417 916.944 507.108 917.052 522.8C917.112 531.779 917.304 540.77 917.724 549.736C918.174 559.422 921.97 563.984 931.56 565.368C949.193 567.909 966.694 567.604 983.864 561.922C1000.42 556.443 1012.85 546.164 1021.21 530.946C1027.83 518.88 1030.87 505.802 1032.11 492.196C1034.06 470.894 1032.16 450.143 1022.69 430.658C1013.57 411.903 999.11 398.932 979.18 392.285C963.395 387.023 947.244 386.609 930.918 388.707C921.184 389.96 917.808 393.208 917.706 403.074C917.46 427.289 917.628 451.504 917.628 475.725Z" fill="#ECECEC"/>
<path d="M493.987 346.889H442.199C442.511 346.062 442.619 345.36 442.991 344.851C450.068 335.189 451.711 323.89 451.921 312.49C452.425 285.554 452.485 258.6 452.515 231.658C452.533 212.897 452.437 194.137 451.957 175.382C451.651 163.407 450.428 151.485 442.751 141.403C442.457 141.02 442.541 140.354 442.325 139.132C445.132 139.132 447.687 139.108 450.236 139.132C465.253 139.276 480.283 139.156 495.289 139.677C506.396 140.067 517.702 140.199 528.521 142.404C545.842 145.935 560.548 154.374 568.393 171.294C579.014 194.203 573.497 224.765 546.058 238.713C543.335 240.097 540.558 241.368 537.278 242.944C547.347 262.262 558.263 280.783 570.636 298.405C583.039 316.069 596.005 333.313 612.432 349.112C610.177 349.898 608.456 350.827 606.639 351.084C588.586 353.632 573.413 347.878 561.1 334.679C547.917 320.54 537.649 304.297 528.311 287.508C522.026 276.204 516.508 264.48 510.475 253.032C509.833 251.809 508.016 250.472 506.72 250.455C500.129 250.347 493.532 250.754 486.94 250.754C484.379 250.754 483.264 251.396 483.294 254.189C483.54 274.31 483.528 294.437 483.882 314.558C484.074 325.521 486.317 336.004 493.382 344.905C493.7 345.306 493.706 345.954 493.97 346.895L493.987 346.889ZM482.802 202.534C482.988 202.546 483.174 202.552 483.366 202.564C483.366 212.448 483.438 222.332 483.318 232.215C483.288 234.847 484.122 235.967 486.802 235.866C493.502 235.62 500.273 235.973 506.894 235.146C511.992 234.505 517.18 233.013 521.858 230.873C531.634 226.407 537.098 218.226 539.221 207.851C541.872 194.898 541.212 182.221 534.417 170.539C526.986 157.772 510.343 151.041 494.047 153.769C488.212 154.746 485.279 157.533 484.895 163.431C484.044 176.455 483.486 189.498 482.802 202.528V202.534Z" fill="#ECECEC"/>
<path d="M1034.64 283.798C1034.73 282.815 1034.91 281.838 1034.9 280.855C1034.87 249.13 1035.07 217.405 1034.63 185.685C1034.49 175.52 1033.13 165.306 1031.42 155.267C1030.66 150.748 1027.65 146.612 1025.7 142.284C1025.36 141.511 1025.2 140.654 1024.95 139.833C1025.77 139.593 1026.59 139.15 1027.41 139.15C1038.2 139.114 1049 139.126 1059.79 139.197C1060.7 139.203 1061.6 139.743 1062.51 140.037C1062.19 140.942 1062.05 141.961 1061.53 142.728C1057.27 148.997 1054.9 156.004 1054.28 163.43C1053.38 174.069 1052.6 184.762 1052.58 195.431C1052.51 241.026 1052.73 286.621 1052.85 332.222C1052.87 338.791 1052.85 345.354 1052.85 352.912C1035.54 333.78 1019.05 314.468 1002.25 295.438C985.334 276.264 968.589 256.94 951.742 237.699C934.913 218.483 918.054 199.291 900.535 179.314C900.253 181.328 899.953 182.437 899.953 183.546C900.007 224.591 899.989 265.643 900.241 306.688C900.307 317.135 900.895 327.648 905.285 337.43C906.712 340.613 908.566 343.604 910.473 347.146H871.831C872.227 346.091 872.347 345.288 872.772 344.695C878.254 337.023 880.533 328.266 880.983 319.071C881.631 305.795 882.14 292.495 882.188 279.201C882.314 247.931 882.272 216.661 881.997 185.392C881.901 174.627 881.871 163.712 877.534 153.517C875.945 149.777 873.774 146.282 871.939 142.638C871.519 141.805 871.405 140.822 871.147 139.911C871.981 139.731 872.82 139.383 873.648 139.401C883.322 139.611 892.996 139.965 902.67 140.061C905.327 140.085 907.114 141.02 908.811 142.95C933.101 170.473 957.445 197.955 981.771 225.448C998.414 244.257 1015.06 263.071 1031.68 281.904C1032.35 282.659 1032.79 283.618 1033.34 284.481C1033.76 284.253 1034.19 284.032 1034.62 283.804L1034.64 283.798Z" fill="#ECECEC"/>
<path d="M1247.19 518.359C1247.39 516.752 1247.64 515.691 1247.63 514.637C1247.6 481.886 1247.76 449.13 1247.34 416.386C1247.23 407.246 1245.77 398.057 1244.16 389.031C1243.44 384.931 1240.88 381.149 1239.08 377.253C1238.58 376.18 1237.83 375.221 1236.8 373.573H1275.38C1275.38 374.244 1275.52 374.669 1275.36 374.879C1268.46 384.308 1266.53 395.18 1266.28 406.479C1265.87 424.664 1265.36 442.849 1265.34 461.034C1265.3 496.967 1265.57 532.906 1265.71 568.839C1265.74 574.479 1265.71 580.125 1265.71 587.006C1214.64 528.944 1164.31 471.254 1113.09 412.922C1112.88 414.96 1112.66 416.087 1112.66 417.207C1112.69 457.576 1112.56 497.95 1112.95 538.318C1113.04 547.453 1114.49 556.647 1116.19 565.65C1117.03 570.067 1119.89 574.113 1121.84 578.315C1122.16 578.986 1122.54 579.627 1123.19 580.844C1121.54 580.988 1120.38 581.168 1119.22 581.174C1108.86 581.21 1098.51 581.234 1088.16 581.192C1087.11 581.192 1086.07 580.712 1085.04 580.454C1085.38 579.567 1085.58 578.572 1086.1 577.805C1090.37 571.542 1092.65 564.499 1093.33 557.091C1094.22 547.135 1094.93 537.125 1094.97 527.134C1095.1 491.087 1095 455.034 1094.79 418.988C1094.73 408.205 1094.57 397.308 1090.26 387.131C1088.38 382.683 1085.85 378.512 1083.36 373.734C1084.63 373.591 1085.77 373.345 1086.91 373.357C1095.9 373.447 1104.9 373.764 1113.9 373.633C1117.58 373.579 1120.06 374.909 1122.4 377.582C1139.12 396.637 1155.93 415.601 1172.72 434.601C1196.73 461.777 1220.73 488.959 1244.74 516.123C1245.33 516.776 1246.04 517.316 1247.19 518.359Z" fill="#ECECEC"/>
<path d="M1260.35 200.67C1257.77 195.677 1255.32 190.618 1252.59 185.709C1247.43 176.437 1241.87 167.41 1232.91 161.219C1223.2 154.518 1212.11 152.366 1200.56 151.886C1177.52 150.933 1156.84 156.855 1139.78 172.966C1127.59 184.475 1120.24 198.8 1116.42 214.947C1112.05 233.396 1111.74 251.971 1116.51 270.354C1123.56 297.571 1139.36 317.741 1165.73 328.817C1182.35 335.794 1199.61 337.328 1217.28 333.966C1228.47 331.838 1235.14 324.508 1235.15 313.113C1235.17 301.431 1234.52 289.714 1233.43 278.08C1232.62 269.413 1227.8 262.364 1221.81 256.208C1220.97 255.345 1219.6 255.004 1218.47 254.422C1218.81 253.871 1219.15 253.319 1219.49 252.768C1220.59 252.576 1221.7 252.216 1222.81 252.21C1238.63 252.168 1254.45 252.162 1270.28 252.198C1271.35 252.198 1272.42 252.612 1273.49 252.84C1273.15 253.955 1273.01 255.183 1272.45 256.16C1267.48 264.725 1264.99 274.022 1264.91 283.816C1264.78 300.179 1264.96 316.548 1265.29 332.905C1265.35 335.944 1264.45 337.532 1261.85 338.677C1249.59 344.065 1236.79 347.464 1223.58 349.598C1208.75 351.989 1193.83 352.505 1178.98 350.76C1148.47 347.176 1121.71 335.722 1101.29 311.879C1091.35 300.269 1084.98 286.873 1081.26 272.092C1076.84 254.554 1076.62 236.92 1080.35 219.364C1085.59 194.724 1098.53 174.729 1118.71 159.576C1135.81 146.726 1155.16 139.359 1176.38 136.716C1198.9 133.911 1221.17 135.361 1243.18 140.612C1249.13 142.032 1254.96 144.064 1260.7 146.198C1262.02 146.69 1263.45 148.71 1263.61 150.154C1265.22 165.145 1264.73 180.129 1262.83 195.066C1262.59 196.978 1261.82 198.83 1261.29 200.706C1260.98 200.694 1260.67 200.676 1260.36 200.664L1260.35 200.67Z" fill="#ECECEC"/>
<path d="M1403.01 497.782C1399.97 495.45 1397.71 493.79 1395.53 492.028C1387.41 485.471 1377.93 482.714 1367.71 482.222C1358.84 481.796 1349.96 481.683 1341.09 481.305C1338.17 481.179 1336.94 482.204 1336.99 485.195C1337.27 505.43 1337.4 525.671 1337.77 545.9C1337.84 549.616 1338.6 553.356 1339.39 557.013C1340.51 562.185 1343.76 565.782 1349.11 566.159C1362.97 567.142 1376.87 567.538 1390.43 563.54C1397.71 561.394 1402.62 556.167 1406.69 550.162C1411.53 543.017 1416.08 535.681 1420.78 528.44C1421.44 527.427 1422.23 526.498 1423.52 524.79C1423.82 526.774 1424.12 527.919 1424.17 529.07C1424.76 545.678 1422.1 561.904 1418.37 578.003C1417.83 580.334 1416.77 581.599 1413.92 581.575C1377.61 581.27 1341.29 581.102 1304.97 580.91C1301.99 580.892 1299.01 580.91 1295.25 580.91C1297.02 577.961 1298.28 575.983 1299.42 573.939C1304.56 564.679 1305.47 554.381 1305.68 544.192C1306.19 519.414 1306.18 494.623 1306.21 469.839C1306.22 450.281 1306.25 430.717 1305.71 411.178C1305.45 401.917 1305.06 392.471 1301.15 383.762C1299.65 380.399 1297.68 377.241 1295.48 373.147C1297.95 373.147 1299.81 373.135 1301.66 373.147C1331.95 373.321 1362.24 373.519 1392.52 373.656C1397.19 373.68 1401.87 373.578 1406.52 373.231C1409.2 373.033 1410.65 373.842 1410.94 376.533C1411.96 385.794 1413.12 395.036 1413.93 404.315C1414.38 409.403 1414.29 414.54 1414.37 419.653C1414.38 420.804 1414.08 421.954 1413.93 423.111C1413.62 423.207 1413.32 423.309 1413.01 423.405C1411.44 421.313 1409.91 419.179 1408.28 417.129C1403.97 411.717 1399.65 406.305 1395.25 400.964C1387.94 392.069 1377.79 388.941 1366.93 387.808C1361.07 387.196 1355.1 387.346 1349.19 387.544C1342.1 387.784 1339.19 389.936 1338.46 396.894C1337.48 406.257 1337.24 415.715 1337.07 425.137C1336.85 437.754 1337.08 450.383 1336.96 463C1336.93 466.081 1337.84 467.25 1341.06 467.118C1350.5 466.734 1359.96 466.704 1369.4 466.374C1380.02 466.009 1389.34 462.233 1397.38 455.262C1398.97 453.877 1400.68 452.619 1403.02 450.755V497.77L1403.01 497.782Z" fill="#ECECEC"/>
<path d="M1563.38 290.954C1563.63 292.83 1563.84 293.807 1563.87 294.79C1564.41 311.393 1561.74 327.612 1558.07 343.73C1557.36 346.864 1555.96 347.817 1552.69 347.751C1523.44 347.164 1494.18 346.667 1464.92 346.391C1456.4 346.313 1447.86 347.044 1439.33 347.362C1438.14 347.404 1436.93 347.212 1435.02 347.074C1436.69 344.203 1438.13 341.961 1439.35 339.612C1443.83 331.005 1444.86 321.618 1445.09 312.154C1445.52 294.772 1445.84 277.378 1445.91 259.99C1446.01 235.206 1446.03 210.416 1445.67 185.631C1445.54 176.802 1444.27 167.986 1443.38 159.175C1442.75 153.043 1440.03 147.673 1436.77 142.542C1435.16 140.012 1435.59 139.035 1438.62 139.131C1445.1 139.335 1451.58 140.024 1458.06 140.042C1484.59 140.108 1511.12 140.012 1537.65 139.923C1540.72 139.911 1543.79 139.605 1546.85 139.371C1548.87 139.215 1550.03 139.881 1550.41 142.038C1553.05 156.861 1554.2 171.792 1553.92 186.842C1553.9 187.699 1553.62 188.55 1553.26 190.438C1550.62 186.908 1548.58 184.031 1546.4 181.274C1542.51 176.389 1538.63 171.492 1534.56 166.757C1527.63 158.689 1518.37 155.153 1508.09 154.338C1501.3 153.798 1494.44 153.774 1487.63 154.032C1481.08 154.278 1478.25 157.287 1477.76 163.88C1477.23 171.132 1476.72 178.403 1476.62 185.667C1476.43 200.106 1476.52 214.545 1476.52 228.984C1476.52 233.192 1476.8 233.54 1480.95 233.414C1490.62 233.12 1500.28 232.599 1509.95 232.377C1521.01 232.125 1530.12 227.504 1538.22 220.395C1539.44 219.328 1540.81 218.435 1542.68 217.033V263.479C1541.04 262.46 1539.7 261.89 1538.69 260.961C1529 251.953 1517.19 248.584 1504.33 248.123C1496.25 247.829 1488.17 247.775 1480.09 247.475C1477.33 247.373 1476.48 248.578 1476.52 251.119C1476.94 272.937 1477.21 294.754 1477.81 316.566C1477.91 319.976 1479.18 323.441 1480.39 326.701C1481.57 329.914 1484.37 331.772 1487.72 332.12C1501.84 333.588 1515.95 333.504 1529.76 329.89C1535.35 328.427 1540.02 324.831 1543.35 320.06C1549.2 311.687 1554.74 303.104 1560.44 294.622C1561.15 293.561 1562.03 292.608 1563.36 290.948L1563.38 290.954Z" fill="#ECECEC"/>
<path d="M1569.95 516.813C1571.64 519.654 1572.86 521.913 1574.28 524.023C1580.81 533.709 1587.05 543.611 1594.05 552.949C1604.5 566.915 1619.28 570.679 1635.92 569.043C1647.54 567.898 1657.31 563.073 1662 552.02C1667.66 538.684 1666.18 525.678 1656.41 514.415C1648.23 504.969 1637.76 498.208 1627.79 490.836C1615.75 481.923 1603.24 473.478 1592.14 463.486C1575.48 448.478 1570.47 429.16 1576.41 407.588C1580.29 393.484 1589.86 383.601 1602.76 376.948C1620.31 367.897 1638.91 368.011 1657.76 371.056C1667.6 372.644 1676.83 376.144 1685.87 380.238C1688.28 381.329 1689.32 382.887 1689.51 385.417C1690.59 399.976 1690.46 414.499 1688.21 428.95C1688.04 430.029 1687.21 431.006 1686.68 432.031C1686.02 431.233 1685.19 430.526 1684.72 429.633C1678.07 417.052 1671.13 404.669 1660.73 394.665C1645.73 380.22 1620.33 381.683 1608.37 397.62C1599.89 408.924 1600.63 426.834 1609.9 437.509C1617.15 445.852 1626.31 451.78 1635.21 458.098C1648.08 467.232 1661.37 475.899 1673.45 485.993C1689.83 499.682 1696.44 518.03 1693.21 539.11C1690.3 558.086 1678.93 571.117 1661.51 578.873C1646.87 585.388 1631.39 586.401 1615.66 585.238C1603.02 584.303 1590.63 582.091 1578.72 577.482C1576.05 576.445 1574.32 575.222 1573.65 572.237C1569.73 554.951 1567.87 537.515 1569.11 519.798C1569.17 519.072 1569.51 518.365 1569.95 516.813H1569.95Z" fill="#ECECEC"/>
<path d="M1552.76 433.188C1551.57 431.491 1550.7 430.526 1550.11 429.412C1544.61 418.946 1538.74 408.733 1531.08 399.628C1520.86 387.503 1508.16 382.714 1492.47 385.609C1480.65 387.785 1470.73 398.597 1468.67 410.339C1465.75 427.068 1473.62 438.402 1486.11 447.483C1500.08 457.636 1514.47 467.19 1528.52 477.236C1538.09 484.081 1546.81 491.819 1552.51 502.44C1566.4 528.363 1560.51 564.512 1526.78 579.023C1511.82 585.46 1496.17 586.401 1480.22 585.148C1467.92 584.183 1455.89 581.966 1444.31 577.476C1441.33 576.319 1439.8 574.821 1439.1 571.596C1435.51 554.958 1433.48 538.211 1434.47 521.165C1434.53 520.17 1434.69 519.187 1435.65 517.724C1436.43 518.737 1437.28 519.714 1438 520.775C1445.62 532.043 1452.65 543.773 1460.99 554.49C1471.65 568.18 1486.85 570.841 1503.18 568.797C1513.7 567.479 1522.31 562.744 1527.22 552.986C1533.73 540.027 1531.71 523.892 1521.25 513.828C1512.61 505.527 1502.86 498.34 1493.35 490.986C1482.67 482.714 1471.4 475.174 1460.97 466.621C1452.56 459.734 1446.01 451.145 1442.39 440.59C1433.4 414.361 1446.34 385.687 1471.91 375.168C1491.07 367.286 1510.63 367.819 1530.22 372.668C1537.55 374.484 1544.59 377.613 1551.6 380.526C1553.12 381.156 1554.91 383.361 1554.98 384.914C1555.68 399.904 1556.3 414.913 1553.65 429.813C1553.5 430.652 1553.22 431.467 1552.76 433.2L1552.76 433.188Z" fill="#ECECEC"/>
<path d="M677.181 432.354C676.486 431.323 675.694 430.346 675.118 429.249C669.253 418.059 663.015 407.102 654.403 397.728C642.882 385.189 628.877 381.784 612.804 387.113C601.301 390.925 594.164 401.786 593.204 415.254C592.305 427.817 598.128 437.083 607.406 444.264C618.268 452.667 629.891 460.081 640.89 468.317C650.6 475.587 660.814 482.516 669.211 491.147C690.4 512.935 690.658 551.313 664.827 571.368C652.682 580.796 638.479 584.68 623.462 585.406C605.007 586.293 586.895 584.117 569.436 577.524C565.934 576.199 564.734 574.161 563.984 570.697C560.44 554.388 558.521 537.971 559.528 521.278C559.594 520.199 559.774 519.132 560.728 517.772C561.489 518.767 562.311 519.72 563.001 520.757C569.976 531.246 576.639 541.951 583.944 552.2C597.978 571.884 624.487 572.537 639.589 565.368C650.774 560.058 657.084 547.489 655.626 534.081C654.679 525.312 651.266 517.592 644.669 511.994C634.551 503.411 623.924 495.409 613.29 487.449C602.111 479.082 590.193 471.685 580.478 461.442C566.215 446.41 561.585 428.758 566.647 408.882C570.354 394.323 579.908 384.044 593.072 377.037C607.076 369.587 622.166 368.634 637.598 369.617C651.554 370.51 664.611 374.61 677.073 380.706C678.435 381.371 679.952 383.343 680.024 384.781C680.798 400.006 681.35 415.242 678.585 430.358C678.489 430.898 678.267 431.413 678.105 431.941C677.793 432.078 677.475 432.216 677.163 432.348L677.181 432.354Z" fill="#ECECEC"/>
<path d="M861.599 346.943C856.447 346.943 852.159 346.907 847.877 346.949C837.645 347.057 827.413 347.201 817.188 347.332C815.136 347.356 813.085 347.356 811.04 347.428C808.341 347.524 807.873 346.283 808.851 344.012C809.883 341.62 810.92 339.223 811.82 336.783C815.298 327.313 812.096 318.37 809.355 309.488C806.878 301.462 803.855 293.604 801.264 285.608C800.137 282.132 798.415 280.633 794.439 280.681C775.649 280.921 756.853 280.861 738.062 280.717C734.842 280.693 733.288 281.922 732.383 284.805C729.324 294.551 725.935 304.195 723.117 314.007C720.172 324.256 721.119 334.236 726.571 343.622C728.197 346.421 727.645 347.554 724.55 347.338C712.837 346.523 701.142 346.206 689.435 347.374C688.697 347.446 687.917 347.135 686.742 346.925C687.048 345.792 687.126 344.779 687.569 343.958C699.912 321.098 708.801 296.757 718.265 272.662C727.357 249.514 736.431 226.36 745.487 203.194C752.061 186.381 758.592 169.544 765.135 152.72C767.48 146.69 769.795 140.642 772.194 134.631C772.446 133.995 773.148 133.534 773.646 132.988C774.233 133.588 775.085 134.085 775.367 134.81C785.359 160.536 795.279 186.285 805.259 212.016C814.213 235.099 822.999 258.247 832.295 281.191C839.582 299.178 847.469 316.926 855.218 334.721C856.969 338.743 859.278 342.525 861.605 346.937L861.599 346.943ZM767.084 194.257C766.647 194.341 766.209 194.425 765.771 194.503C764.314 198.53 762.91 202.576 761.387 206.58C754.49 224.705 747.55 242.813 740.659 260.938C739.088 265.068 739.208 265.187 743.7 265.193C758.718 265.205 773.736 265.205 788.753 265.193C793.569 265.193 793.851 264.66 792.13 260.087C784.747 240.445 777.418 220.779 770.035 201.138C769.16 198.806 768.074 196.552 767.084 194.257Z" fill="#ECECEC"/>
<path d="M778.689 366.584C781.047 372.458 783.463 378.308 785.748 384.206C794.127 405.795 802.464 427.409 810.818 449.011C819.91 472.518 828.961 496.044 838.125 519.528C845.85 539.307 854.012 558.895 864.28 577.536C865.941 580.545 865.665 581.012 862.301 581.012C846.941 581.024 831.576 581.03 816.216 581C815.028 581 813.841 580.688 812.24 580.467C813.373 577.769 814.339 575.51 815.28 573.238C819.047 564.14 817.481 555.113 814.627 546.224C811.568 536.712 808.131 527.326 804.959 517.849C804.227 515.656 802.937 514.781 800.688 514.787C780.879 514.811 761.063 514.811 741.253 514.769C739.01 514.769 737.75 515.548 737.061 517.808C733.828 528.315 730.337 538.744 727.153 549.269C724.07 559.458 726.145 569.036 731.213 578.141C731.531 578.716 731.765 579.334 732.305 580.515H690.658C691.3 579.202 691.761 578.357 692.145 577.476C700.326 558.889 708.71 540.38 716.603 521.674C722.385 507.978 727.531 494.012 732.94 480.161C740.209 461.556 747.454 442.945 754.711 424.334C761.77 406.251 768.824 388.162 775.907 370.09C776.386 368.862 777.082 367.723 777.682 366.536C778.018 366.554 778.354 366.572 778.689 366.59V366.584ZM771.199 427.02C770.167 429.033 769.507 430.076 769.075 431.203C760.967 452.415 752.882 473.645 744.797 494.869C743.502 498.274 744.078 499.125 747.73 499.131C763.222 499.161 778.707 499.173 794.199 499.167C797.971 499.167 798.211 498.765 796.898 495.259C791.362 480.478 785.85 465.686 780.303 450.911C777.436 443.287 774.503 435.681 771.199 427.02Z" fill="#ECECEC"/>
<path d="M253.751 190.715C253.571 189.678 253.211 188.629 253.247 187.598C253.721 172.613 254.255 157.629 254.753 142.65C254.831 140.265 255.814 139.294 258.351 139.324C284.758 139.642 311.171 139.971 337.584 140.073C364.459 140.175 391.328 140.049 418.203 139.971C421.16 139.965 424.117 139.714 427.067 139.45C429.706 139.216 431.194 140.055 431.29 142.932C431.763 157.695 432.321 172.452 432.747 187.214C432.777 188.257 431.991 189.318 431.589 190.373C430.852 189.624 430 188.953 429.388 188.107C424.392 181.221 419.708 174.088 414.407 167.447C408.487 160.038 400.432 155.699 391.01 154.764C383.567 154.027 376.022 153.991 368.532 154.159C363.398 154.272 360.879 156.358 360.165 161.477C359.169 168.652 358.582 175.946 358.57 183.193C358.516 226.06 358.714 268.922 358.738 311.789C358.744 324.209 361.964 335.333 370.721 344.516C371.23 345.049 371.41 345.894 371.902 346.919H314.05C314.818 345.72 315.292 344.755 315.969 343.958C321.919 337.005 325.409 328.968 326.123 319.881C326.825 310.938 327.503 301.96 327.527 292.999C327.629 255.478 327.539 217.957 327.365 180.435C327.335 174.43 326.609 168.418 325.997 162.43C325.493 157.527 322.513 154.458 317.583 154.123C306.535 153.361 295.5 153.23 284.95 157.485C275.516 161.291 269.525 168.855 263.965 176.839C260.744 181.454 257.716 186.207 254.603 190.895C254.327 190.835 254.045 190.781 253.769 190.721L253.751 190.715Z" fill="#ECECEC"/>
<path d="M472.798 450.665V497.519C471.323 496.596 470.315 496.164 469.554 495.463C460.371 487.024 449.504 482.72 437.089 482.223C429.358 481.911 421.622 481.707 413.885 481.407C411.618 481.318 410.538 482.175 410.562 484.56C410.754 505.023 410.634 525.498 411.15 545.955C411.468 558.506 413.639 570.697 424.015 579.73C423.865 579.975 423.715 580.215 423.559 580.461H369.335C371.164 577.062 372.94 574.072 374.427 570.943C378.086 563.271 378.709 554.921 379.135 546.656C379.669 536.329 379.717 525.971 379.723 515.626C379.735 482.534 379.849 449.443 379.417 416.357C379.291 406.989 377.936 397.548 376.148 388.336C375.189 383.385 372.124 378.842 369.767 373.579C371.05 373.447 372.52 373.148 373.983 373.16C403.815 373.327 433.647 373.555 463.478 373.693C469.626 373.723 475.773 373.519 481.914 373.219C484.313 373.106 485.495 373.867 485.921 376.234C488.596 391.057 489.483 406.018 489.567 421.044C489.567 421.721 489.034 422.405 488.746 423.082C487.99 422.554 487.066 422.165 486.503 421.476C480.343 413.917 474.37 406.191 468.066 398.753C463.472 393.335 457.097 390.278 450.308 389.367C440.993 388.12 431.523 387.718 422.119 387.635C415.564 387.581 412.847 390.368 411.972 396.829C411.288 401.888 410.85 407.012 410.79 412.113C410.592 429.058 410.682 446.002 410.484 462.941C410.442 466.249 411.51 467.358 414.79 467.148C425.232 466.483 435.71 466.333 446.121 465.356C453.918 464.625 460.479 460.561 466.495 455.694C468.324 454.22 470.165 452.757 472.792 450.659L472.798 450.665Z" fill="#ECECEC"/>
<path d="M1292.2 347.11C1293.76 344.413 1294.89 342.483 1296 340.541C1301.59 330.801 1302.5 319.904 1302.55 309.163C1302.78 264.258 1302.69 219.346 1302.33 174.441C1302.25 164.719 1301.24 154.865 1296.11 146.09C1295.36 144.819 1294.51 143.609 1293.83 142.302C1293.44 141.559 1292.88 140.426 1293.17 139.947C1293.52 139.389 1294.71 139.137 1295.54 139.131C1298.49 139.131 1301.45 139.371 1304.41 139.359C1315.55 139.329 1326.69 139.245 1337.83 139.173C1339.08 139.167 1340.34 139.065 1341.59 139.113C1344.38 139.221 1344.88 140.102 1343.19 142.38C1337.05 150.663 1334.48 160.146 1334.45 170.203C1334.3 217.728 1334.26 265.247 1334.45 312.772C1334.47 317.507 1335.82 322.428 1337.53 326.881C1338.35 329.009 1341.32 331.34 1343.61 331.7C1357.91 333.954 1372.23 333.618 1386.14 329.237C1393.91 326.785 1399.1 320.767 1402.87 313.91C1407.41 305.681 1411.24 297.056 1415.39 288.611C1415.96 287.454 1416.67 286.363 1417.31 285.242C1417.65 285.272 1417.99 285.302 1418.34 285.332C1418.97 289.396 1419.89 293.436 1420.17 297.523C1421.17 312.58 1420.08 327.51 1416.72 342.243C1415.45 347.787 1415.33 347.733 1409.67 347.655C1378.7 347.218 1347.74 346.774 1316.77 346.499C1310.06 346.439 1303.35 347.086 1296.64 347.356C1295.44 347.404 1294.22 347.224 1292.19 347.104L1292.2 347.11Z" fill="#ECECEC"/>
<path d="M675.286 346.889H623.636C623.84 346.062 623.822 345.3 624.175 344.815C631.54 334.877 633.052 323.189 633.274 311.472C633.801 283.972 633.796 256.46 633.849 228.955C633.879 211.681 633.933 194.389 633.376 177.127C633.076 167.866 632.668 158.438 628.686 149.741C627.51 147.176 626.089 144.7 624.577 142.315C623.252 140.229 623.468 139.174 626.101 139.114C626.898 139.096 627.696 139.084 628.494 139.084C642.702 139.096 656.91 139.09 671.124 139.168C672.372 139.174 673.613 139.743 674.854 140.055C674.381 141.158 674.087 142.387 673.403 143.34C667.951 150.91 665.414 159.589 665.366 168.639C665.115 217.968 665.097 267.303 665.264 316.632C665.3 326.774 668.011 336.394 674.483 344.611C674.914 345.163 674.992 345.996 675.292 346.883L675.286 346.889Z" fill="#ECECEC"/>
</g>
<defs>
<clipPath id="clip0_1222_2535">
<rect width="1563" height="454" fill="white" transform="translate(131 133)"/>
</clipPath>
</defs>
</svg>
