<svg width="1825" height="720" viewBox="0 0 1825 720" fill="none" xmlns="http://www.w3.org/2000/svg">
<g clip-path="url(#clip0_1222_2487)">
<path d="M60.4933 234.878L59.4597 251.186C64.7592 244.59 70.5928 239.665 76.9744 236.418C83.3491 233.165 90.3202 231.542 97.8741 231.542C107.1 231.542 115.07 233.887 121.791 238.569C128.513 243.251 132.709 248.654 134.374 254.772C136.039 260.89 136.878 271.281 136.878 285.931V363.689C136.878 380.476 135.824 392.413 133.715 399.509C131.606 406.606 127.285 412.259 120.765 416.483C114.237 420.7 106.364 422.809 97.1388 422.809C89.7792 422.809 82.9606 421.186 76.6761 417.933C70.3917 414.68 64.6552 409.852 59.4528 403.442V633.79H0V234.878H60.4933ZM77.4253 288.574C77.4253 277.17 76.9813 270.262 76.1004 267.848C75.2195 265.441 72.7639 264.234 68.7408 264.234C64.7176 264.234 62.2898 265.628 61.1592 268.41C60.0285 271.191 59.4667 277.919 59.4667 288.581V365.084C59.4667 376.21 60.0563 383.167 61.2355 385.949C62.4147 388.73 64.9673 390.124 68.8864 390.124C72.8056 390.124 75.0946 388.848 76.0241 386.302C76.9536 383.75 77.4253 377.562 77.4253 367.733V288.588V288.574Z" fill="#ECECEC"/>
<path d="M209.607 306.38H153.824V293.998C153.824 279.716 155.565 268.708 159.047 260.96C162.529 253.219 169.521 246.379 180.023 240.442C190.525 234.511 204.162 231.542 220.942 231.542C241.057 231.542 256.221 234.906 266.424 241.628C276.628 248.349 282.76 256.604 284.827 266.391C286.887 276.178 287.92 296.322 287.92 326.829V419.473H230.07V403.026C226.435 409.623 221.753 414.569 216.01 417.863C210.266 421.158 203.427 422.809 195.478 422.809C185.073 422.809 175.535 420.048 166.851 414.534C158.166 409.019 153.824 396.936 153.824 378.298V363.134C153.824 349.317 156.127 339.904 160.74 334.896C165.352 329.888 176.784 324.047 195.034 317.367C214.56 310.133 225.013 305.263 226.387 302.759C227.76 300.255 228.447 295.157 228.447 287.457C228.447 277.815 227.684 271.531 226.165 268.611C224.646 265.69 222.114 264.227 218.583 264.227C214.56 264.227 212.056 265.455 211.078 267.91C210.093 270.366 209.607 276.74 209.607 287.034V306.366V306.38ZM228.447 331.691C218.93 338.274 213.409 343.795 211.889 348.242C210.37 352.695 209.607 359.09 209.607 367.435C209.607 376.987 210.273 383.153 211.591 385.935C212.916 388.716 215.538 390.111 219.464 390.111C223.39 390.111 225.624 389.021 226.747 386.843C227.871 384.665 228.44 378.936 228.44 369.662V331.684L228.447 331.691Z" fill="#ECECEC"/>
<path d="M368.869 234.878L367.836 251.887C372.15 245.103 377.429 240.018 383.658 236.626C389.887 233.234 397.073 231.542 405.224 231.542C415.427 231.542 423.772 233.817 430.244 238.361C436.722 242.904 440.891 248.634 442.757 255.542C444.623 262.451 445.553 273.973 445.553 290.107V419.473H386.086V291.64C386.086 278.939 385.642 271.191 384.761 268.41C383.88 265.628 381.425 264.234 377.401 264.234C373.184 264.234 370.534 265.836 369.452 269.034C368.37 272.232 367.836 280.791 367.836 294.699V419.473H308.369V234.878H368.863H368.869Z" fill="#ECECEC"/>
<path d="M600.701 330.443H523.72V370.362C523.72 378.707 524.358 384.09 525.635 386.497C526.911 388.911 529.359 390.111 532.994 390.111C537.51 390.111 540.527 388.508 542.046 385.311C543.565 382.113 544.328 375.919 544.328 366.742V342.401H600.701V356.032C600.701 367.435 599.938 376.203 598.419 382.321C596.893 388.439 593.342 394.98 587.751 401.937C582.16 408.895 575.064 414.111 566.484 417.586C557.896 421.061 547.124 422.802 534.173 422.802C521.223 422.802 510.527 421.082 500.906 417.655C491.285 414.229 483.807 409.519 478.459 403.54C473.111 397.56 469.407 390.978 467.347 383.785C465.287 376.598 464.253 366.145 464.253 352.418V298.583C464.253 282.449 466.556 269.721 471.169 260.398C475.782 251.075 483.336 243.938 493.838 238.978C504.34 234.018 516.409 231.535 530.046 231.535C546.728 231.535 560.49 234.525 571.332 240.504C582.174 246.483 589.776 254.412 594.146 264.289C598.509 274.167 600.694 288.054 600.694 305.95V330.429L600.701 330.443ZM541.082 300.394V286.902C541.082 277.351 540.541 271.184 539.466 268.403C538.384 265.621 536.178 264.227 532.842 264.227C528.721 264.227 526.169 265.406 525.191 267.771C524.206 270.137 523.72 276.511 523.72 286.895V300.387H541.089L541.082 300.394Z" fill="#ECECEC"/>
<path d="M808.242 330.443H731.26V370.362C731.26 378.707 731.899 384.09 733.175 386.497C734.451 388.911 736.907 390.111 740.534 390.111C745.05 390.111 748.068 388.508 749.587 385.311C751.106 382.113 751.869 375.919 751.869 366.742V342.401H808.242V356.032C808.242 367.435 807.479 376.203 805.96 382.321C804.434 388.439 800.882 394.98 795.291 401.937C789.7 408.895 782.604 414.111 774.024 417.586C765.437 421.061 754.664 422.802 741.714 422.802C728.763 422.802 718.067 421.082 708.446 417.655C698.825 414.229 691.348 409.519 686 403.54C680.652 397.56 676.948 390.978 674.887 383.785C672.827 376.598 671.794 366.145 671.794 352.418V298.583C671.794 282.449 674.097 269.721 678.709 260.398C683.322 251.075 690.876 243.938 701.378 238.978C711.88 234.018 723.949 231.535 737.586 231.535C754.269 231.535 768.031 234.525 778.873 240.504C789.714 246.483 797.317 254.412 801.687 264.289C806.05 274.167 808.235 288.054 808.235 305.95V330.429L808.242 330.443ZM748.629 300.394V286.902C748.629 277.351 748.088 271.184 747.013 268.403C745.931 265.621 743.725 264.227 740.389 264.227C736.269 264.227 733.716 265.406 732.738 267.771C731.753 270.137 731.267 276.511 731.267 286.895V300.387H748.636L748.629 300.394Z" fill="#ECECEC"/>
<path d="M944.69 86V115.071H960.734V144.281H944.69V367.303C944.69 379.456 945.349 386.219 946.673 387.613C947.998 389.007 953.52 389.701 963.231 389.701V419.466H939.238C925.697 419.466 916.028 418.931 910.243 417.863C904.451 416.795 899.353 414.339 894.934 410.49C890.516 406.64 887.769 402.235 886.693 397.276C885.611 392.316 885.077 380.656 885.077 362.295V144.281H872.272V115.071H885.077V86H944.69Z" fill="#ECECEC"/>
<path d="M1109.99 234.878V419.465H1049.5L1050.53 404.129C1046.41 410.351 1041.34 415.019 1035.3 418.134C1029.27 421.248 1022.32 422.802 1014.47 422.802C1005.54 422.802 998.135 421.317 992.246 418.349C986.357 415.38 982.015 411.44 979.22 406.522C976.424 401.611 974.683 396.485 973.996 391.151C973.31 385.816 972.963 375.224 972.963 359.368V234.871H1032.43V360.477C1032.43 374.85 1032.89 383.382 1033.83 386.073C1034.76 388.764 1037.29 390.11 1041.41 390.11C1045.83 390.11 1048.45 388.716 1049.29 385.934C1050.12 383.153 1050.53 374.205 1050.53 359.09V234.871H1110L1109.99 234.878Z" fill="#ECECEC"/>
<path d="M1193.45 194.265V419.465H1132.22V194.265H1193.45Z" fill="#ECECEC"/>
<path d="M1276.03 194.265V223.613H1214.79V194.265H1276.03ZM1276.03 234.878V419.465H1214.79V234.878H1276.03Z" fill="#ECECEC"/>
<path d="M1357.87 234.878L1356.84 251.186C1362.14 244.59 1367.97 239.665 1374.35 236.418C1380.73 233.165 1387.7 231.542 1395.25 231.542C1404.48 231.542 1412.45 233.887 1419.17 238.569C1425.89 243.251 1430.09 248.654 1431.75 254.772C1433.41 260.89 1434.25 271.281 1434.25 285.931V363.689C1434.25 380.476 1433.2 392.413 1431.09 399.509C1428.98 406.606 1424.66 412.259 1418.14 416.483C1411.61 420.7 1403.74 422.809 1394.52 422.809C1387.16 422.809 1380.34 421.186 1374.05 417.933C1367.77 414.68 1362.03 409.852 1356.83 403.442V633.79H1297.36V234.878H1357.86H1357.87ZM1374.79 288.574C1374.79 277.17 1374.35 270.262 1373.47 267.848C1372.59 265.441 1370.13 264.234 1366.11 264.234C1362.09 264.234 1359.66 265.628 1358.53 268.41C1357.4 271.191 1356.84 277.919 1356.84 288.581V365.084C1356.84 376.21 1357.43 383.167 1358.6 385.949C1359.78 388.73 1362.33 390.124 1366.26 390.124C1370.18 390.124 1372.46 388.848 1373.39 386.302C1374.32 383.75 1374.79 377.562 1374.79 367.733V288.588V288.574Z" fill="#ECECEC"/>
<path d="M1506.98 306.38H1451.19V293.998C1451.19 279.716 1452.93 268.708 1456.42 260.96C1459.9 253.219 1466.89 246.379 1477.39 240.442C1487.89 234.511 1501.53 231.542 1518.31 231.542C1538.43 231.542 1553.59 234.906 1563.79 241.628C1574 248.349 1580.13 256.604 1582.2 266.391C1584.26 276.178 1585.29 296.322 1585.29 326.829V419.473H1527.44V403.026C1523.8 409.623 1519.12 414.569 1513.39 417.863C1507.64 421.158 1500.8 422.809 1492.85 422.809C1482.45 422.809 1472.91 420.048 1464.23 414.534C1455.54 409.019 1451.2 396.936 1451.2 378.298V363.134C1451.2 349.317 1453.5 339.904 1458.12 334.896C1462.73 329.888 1474.16 324.047 1492.41 317.367C1511.94 310.133 1522.39 305.263 1523.76 302.759C1525.14 300.255 1525.82 295.157 1525.82 287.457C1525.82 277.815 1525.06 271.531 1523.54 268.611C1522.01 265.69 1519.49 264.227 1515.96 264.227C1511.94 264.227 1509.43 265.455 1508.45 267.91C1507.47 270.366 1506.98 276.74 1506.98 287.034V306.366L1506.98 306.38ZM1525.82 331.691C1516.3 338.274 1510.78 343.795 1509.26 348.242C1507.73 352.695 1506.98 359.09 1506.98 367.435C1506.98 376.987 1507.64 383.153 1508.97 385.935C1510.29 388.716 1512.91 390.111 1516.84 390.111C1520.77 390.111 1523 389.021 1524.12 386.843C1525.25 384.665 1525.82 378.936 1525.82 369.662V331.684V331.691Z" fill="#ECECEC"/>
<path d="M1666.24 234.878L1665.21 251.887C1669.52 245.103 1674.8 240.018 1681.03 236.626C1687.26 233.234 1694.44 231.542 1702.59 231.542C1712.8 231.542 1721.14 233.817 1727.61 238.361C1734.09 242.904 1738.26 248.634 1740.13 255.542C1741.99 262.451 1742.92 273.973 1742.92 290.107V419.473H1683.46V291.64C1683.46 278.939 1683.01 271.191 1682.13 268.41C1681.25 265.628 1678.79 264.234 1674.77 264.234C1670.55 264.234 1667.9 265.836 1666.82 269.034C1665.74 272.232 1665.21 280.791 1665.21 294.699V419.473H1605.74V234.878H1666.23H1666.24Z" fill="#ECECEC"/>
<path d="M1824.62 194.265V223.613H1763.38V194.265H1824.62ZM1824.62 234.878V419.465H1763.38V234.878H1824.62Z" fill="#ECECEC"/>
</g>
<defs>
<clipPath id="clip0_1222_2487">
<rect width="1824.62" height="547.783" fill="white" transform="translate(0 86)"/>
</clipPath>
</defs>
</svg>
