<svg width="1825" height="720" viewBox="0 0 1825 720" fill="none" xmlns="http://www.w3.org/2000/svg">
<path d="M48.2193 297.179C45.7649 297.179 42.0812 297.353 38.0488 297.353C34.0163 297.527 29.6307 297.706 25.9515 297.706C21.5659 297.706 8.06483 297.532 0 297.353C0.876213 311.382 1.40378 331.022 1.40378 346.804V364.338C1.40378 380.12 0.876213 403.265 0 417.294C4.90863 417.12 9.29428 416.945 13.6754 416.945C18.0564 416.945 22.4421 417.12 27.3507 417.294C26.4745 403.265 25.9469 380.12 25.9469 367.146V365.916H33.4888C54.5271 365.916 82.4099 361.007 82.4099 327.866C82.4099 300.863 62.4176 297.179 48.2193 297.179ZM31.3877 357.145H25.9515V347.327C25.9515 337.156 26.1258 317.167 26.4791 306.822C29.1077 306.648 31.9153 306.473 34.7182 306.473C47.1687 306.473 56.8116 311.382 56.8116 329.444C56.8116 352.942 45.0631 357.149 31.3877 357.149V357.145Z" fill="#ECECEC"/>
<path d="M96.498 417.289C100.53 417.115 110.701 416.762 115.435 416.762C122.977 416.762 131.744 416.762 140.157 416.936C148.575 417.11 156.64 417.11 162.076 417.285C161.902 413.78 161.902 411.848 161.902 410.623C161.902 409.22 161.902 407.114 162.076 403.609C149.452 405.889 135.602 406.591 123.151 406.591C122.803 398.526 122.45 380.638 122.45 365.558V359.246C139.983 359.246 151.378 359.773 157.87 360.65C157.695 357.493 157.695 355.392 157.695 354.163C157.695 352.759 157.695 350.653 157.87 347.322C151.383 348.198 139.983 349.075 122.45 349.075V343.638C122.45 330.311 122.798 316.635 123.151 308.042C136.827 308.042 153.658 309.093 161.2 310.497C161.026 307.34 161.026 305.235 161.026 304.01C161.026 302.606 161.026 300.679 161.2 297.344C149.626 297.697 127.01 297.871 115.435 297.871C109.825 297.871 100.53 297.523 96.498 297.344C97.3743 311.373 97.9018 331.008 97.9018 346.79V364.324C97.9018 380.106 97.3743 403.251 96.498 417.28V417.289Z" fill="#ECECEC"/>
<path d="M184.812 417.289C189.721 417.115 194.107 416.941 198.488 416.941C202.869 416.941 206.906 417.115 211.461 417.289C210.585 403.26 210.057 380.643 210.057 365.035V359.599C212.163 359.599 213.039 359.948 213.562 360.475C223.384 373.624 241.44 402.907 249.331 417.638C253.189 417.289 262.479 416.936 266.864 416.936C269.011 416.936 271.383 416.936 274.204 416.982C274.191 417.083 274.172 417.184 274.158 417.285C275.452 417.211 276.801 417.133 278.072 417.074C278.485 417.088 278.888 417.097 279.315 417.111L279.388 417.014C280.508 416.968 281.503 416.936 282.223 416.936C284.15 416.936 287.66 417.111 290.288 417.285C290.288 397.471 293.619 357.668 296.954 329.435H297.656C298.706 332.417 299.936 335.394 301.688 339.078C311.859 360.471 327.112 393.961 334.828 415.179H348.329C358.151 389.052 376.033 349.602 386.552 329.435H387.254C389.534 352.406 392.163 394.314 392.342 417.285C396.723 417.111 401.457 416.936 405.843 416.936C410.228 416.936 414.958 417.111 420.046 417.285C416.715 396.246 411.807 336.624 409.527 297.348H389.364C376.74 326.279 359.734 362.576 349.389 384.143H348.687C337.292 361.173 321.336 324.526 309.762 297.348H289.6C286.825 329.205 280.393 376.881 275.273 410.192C263.786 394.438 245.28 368.118 237.945 356.966C251.794 355.213 266.699 347.497 266.699 324.526C266.695 303.67 250.386 297.179 230.577 297.179C227.949 297.179 223.389 297.353 218.829 297.353C214.269 297.527 209.713 297.706 206.731 297.706C201.648 297.706 193.579 297.532 185.34 297.353C186.042 311.382 186.216 331.018 186.216 346.799V364.334C186.216 380.115 185.688 403.26 184.812 417.289ZM210.062 346.102C210.062 335.931 210.411 316.993 210.938 306.827C213.392 306.478 216.374 306.299 218.301 306.299C228.82 306.299 241.096 309.455 241.096 327.692C241.096 349.607 228.472 352.763 215.498 352.763H210.062V346.102Z" fill="#ECECEC"/>
<path d="M430.221 416.954C432.418 416.954 435.629 417.129 437.487 417.303C440.02 407.307 446.272 388.373 451.342 375.569C456.581 375.394 464.352 375.394 470.944 375.394C477.536 375.394 485.817 375.394 491.56 375.569C496.125 389.772 501.194 407.132 503.726 417.303C508.965 417.129 513.19 416.954 515.723 416.954C519.778 416.954 525.356 417.129 531.27 417.303L531.779 416.776C523.159 395.209 502.208 335.243 489.533 297.192H471.788C456.581 335.945 439.68 375.748 420.927 416.776L421.431 417.303C424.303 417.129 427.344 416.954 430.221 416.954ZM473.311 320.337C478.55 334.541 485.308 355.406 488.519 365.751C483.45 365.925 476.013 365.925 470.435 365.925C465.535 365.925 459.452 365.925 455.058 365.751C459.452 353.653 468.072 332.261 473.307 320.337H473.311Z" fill="#ECECEC"/>
<path d="M545.459 417.29C547.739 417.115 551.418 416.941 553.702 416.941C555.987 416.941 559.313 417.115 562.295 417.29C560.015 403.26 558.79 376.61 558.79 355.567V331.192L559.318 331.018C561.07 333.298 562.648 335.05 563.878 336.454C585.095 360.65 616.657 399.054 630.681 417.464H646.81C646.462 407.821 646.109 390.988 646.109 373.101V359.072C646.109 338.032 646.985 311.378 648.389 297.349C646.636 297.523 643.48 297.702 641.2 297.702C638.746 297.702 635.589 297.528 631.731 297.349C634.011 311.378 635.236 338.028 635.236 359.072V380.29L634.534 380.464C632.782 377.835 631.204 376.083 629.974 374.679C612.267 353.814 586.843 323.127 565.277 297H547.041C547.216 304.538 547.743 324.705 547.743 346.8V355.567C547.743 376.61 546.867 403.26 545.463 417.29H545.459Z" fill="#ECECEC"/>
<path d="M677.029 417.289C681.061 417.115 691.231 416.762 695.966 416.762C703.503 416.762 712.27 416.762 720.688 416.936C729.106 417.11 737.171 417.11 742.602 417.285C742.428 413.78 742.428 411.848 742.428 410.623C742.428 409.22 742.428 407.114 742.602 403.609C729.977 405.889 716.128 406.591 703.677 406.591C703.324 398.526 702.975 380.638 702.975 365.558V359.246C720.509 359.246 731.904 359.773 738.396 360.65C738.221 357.493 738.221 355.392 738.221 354.163C738.221 352.759 738.221 350.653 738.396 347.322C731.909 348.198 720.513 349.075 702.975 349.075V343.638C702.975 330.311 703.324 316.635 703.677 308.042C717.353 308.042 734.184 309.093 741.726 310.497C741.552 307.34 741.552 305.235 741.552 304.01C741.552 302.606 741.552 300.679 741.726 297.344C730.152 297.697 707.535 297.871 695.961 297.871C690.351 297.871 681.056 297.523 677.024 297.344C677.9 311.373 678.428 331.008 678.428 346.79V364.324C678.428 380.106 677.905 403.251 677.024 417.28L677.029 417.289Z" fill="#ECECEC"/>
<path d="M770.201 417.29C772.481 417.115 776.16 416.941 778.444 416.941C780.729 416.941 784.055 417.115 787.037 417.29C784.757 403.26 783.532 376.61 783.532 355.567V331.192L784.06 331.018C785.812 333.298 787.39 335.05 788.62 336.454C809.837 360.65 841.399 399.054 855.423 417.464H871.552C871.204 407.821 870.851 390.988 870.851 373.101V359.072C870.851 338.032 871.727 311.378 873.131 297.349C871.378 297.523 868.222 297.702 865.942 297.702C863.488 297.702 860.331 297.528 856.473 297.349C858.753 311.378 859.978 338.028 859.978 359.072V380.29L859.276 380.464C857.524 377.835 855.946 376.083 854.716 374.679C837.008 353.814 811.585 323.127 790.019 297H771.783C771.958 304.538 772.485 324.705 772.485 346.8V355.567C772.485 376.61 771.609 403.26 770.205 417.29H770.201Z" fill="#ECECEC"/>
<path d="M946.246 308.4C956.939 308.4 970.445 309.63 980.088 310.855C979.914 307.698 979.914 305.244 979.914 303.666C979.914 302.088 979.914 299.633 980.088 297.179C967.637 297.706 948.003 298.055 932.919 298.055C917.836 298.055 898.554 297.706 886.806 297.179C886.98 299.633 886.98 302.088 886.98 303.666C886.98 305.244 886.98 307.698 886.806 310.855C896.274 309.625 909.95 308.4 920.648 308.4C920.996 315.241 921.171 324.182 921.171 329.091V364.334C921.171 380.115 920.648 403.26 919.767 417.289C924.675 417.115 929.061 416.941 933.442 416.941C937.823 416.941 942.209 417.115 947.118 417.289C946.241 403.26 945.714 379.941 945.714 364.334V329.091C945.714 324.356 945.888 315.415 946.241 308.4H946.246Z" fill="#ECECEC"/>
<path d="M1145.22 300.374C1142.24 300.548 1138.38 300.727 1136.63 300.727C1134.7 300.727 1131.72 300.553 1128.21 300.374C1122.07 323.519 1106.29 367.533 1096.12 392.954H1095.6C1085.43 368.231 1069.3 325.446 1061.75 300.374C1057.19 300.548 1052.11 300.727 1047.55 300.727C1043.87 300.727 1037.56 300.553 1032.47 300.374L1031.94 300.902C1048.6 339.301 1070.52 397.165 1078.41 420.31C1081.21 420.136 1085.25 419.962 1088.05 419.962C1090.85 419.962 1094.89 420.136 1096.99 420.31C1108.91 388.747 1134.51 325.45 1145.91 300.902L1145.21 300.374H1145.22Z" fill="#ECECEC"/>
<path d="M1170.67 300.199C1155.09 338.952 1137.78 378.755 1118.57 419.782L1119.09 420.31C1122.03 420.136 1125.14 419.961 1128.09 419.961C1130.34 419.961 1133.63 420.136 1135.53 420.31C1138.13 410.313 1144.53 391.38 1149.72 378.576C1155.09 378.401 1163.05 378.401 1169.8 378.401C1176.56 378.401 1185.03 378.401 1190.92 378.576C1195.59 392.779 1200.79 410.139 1203.38 420.31C1208.75 420.136 1213.08 419.961 1215.67 419.961C1219.83 419.961 1225.54 420.136 1231.6 420.31L1232.12 419.782C1223.29 398.216 1201.82 338.25 1188.85 300.199H1170.67ZM1169.29 368.932C1164.27 368.932 1158.04 368.932 1153.54 368.758C1158.04 356.66 1166.86 335.268 1172.23 323.344C1177.6 337.548 1184.52 358.413 1187.81 368.758C1182.62 368.932 1175 368.932 1169.29 368.932H1169.29Z" fill="#ECECEC"/>
<path d="M1337.57 397.338C1330.03 406.459 1317.58 410.84 1305.13 410.84C1274.62 410.84 1260.25 391.2 1260.25 359.99C1260.25 325.096 1277.78 308.438 1302.86 308.438C1318.28 308.438 1329.51 314.576 1333.19 327.725L1337.39 327.376C1338.62 318.957 1340.72 310.892 1342.3 306.511C1334.24 302.653 1318.98 298.271 1299.52 298.271C1257.97 298.271 1232.89 321.765 1232.89 360.169C1232.89 400.848 1257.61 422.589 1299.35 422.589C1316.88 422.589 1330.55 417.855 1337.92 412.593C1338.62 410.491 1339.67 403.302 1339.67 398.04L1337.57 397.338Z" fill="#ECECEC"/>
<path d="M1388.21 300.199C1373.06 338.952 1356.22 378.755 1337.53 419.782L1338.04 420.31C1340.9 420.136 1343.93 419.961 1346.8 419.961C1348.98 419.961 1352.18 420.136 1354.04 420.31C1356.56 410.313 1362.79 391.38 1367.84 378.576C1373.06 378.401 1380.8 378.401 1387.37 378.401C1393.93 378.401 1402.19 378.401 1407.91 378.576C1412.45 392.779 1417.5 410.139 1420.03 420.31C1425.25 420.136 1429.45 419.961 1431.98 419.961C1436.02 419.961 1441.58 420.136 1447.47 420.31L1447.97 419.782C1439.39 398.216 1418.51 338.25 1405.88 300.199H1388.21ZM1386.86 368.932C1381.98 368.932 1375.92 368.932 1371.54 368.758C1375.92 356.66 1384.51 335.268 1389.72 323.344C1394.94 337.548 1401.68 358.413 1404.87 368.758C1399.82 368.932 1392.41 368.932 1386.86 368.932Z" fill="#ECECEC"/>
<path d="M1474.87 301.075C1460.14 301.075 1440.5 300.727 1428.75 300.199C1428.93 302.654 1428.93 305.108 1428.93 306.686C1428.93 308.264 1428.93 310.719 1428.75 313.875C1438.22 312.646 1451.9 311.421 1462.6 311.421C1462.95 318.261 1463.12 327.202 1463.12 332.111V367.354C1463.12 383.136 1462.6 406.281 1461.72 420.31C1466.63 420.136 1471.01 419.961 1475.4 419.961C1479.78 419.961 1484.16 420.136 1489.07 420.31C1488.19 406.281 1487.67 382.961 1487.67 367.354V332.111C1487.67 327.377 1487.84 318.435 1488.19 311.421C1498.89 311.421 1512.39 312.65 1522.03 313.875C1521.86 310.719 1521.86 308.264 1521.86 306.686C1521.86 305.108 1521.86 302.654 1522.03 300.199C1509.59 300.727 1489.95 301.075 1474.87 301.075Z" fill="#ECECEC"/>
<path d="M1558.59 300.374C1553.68 300.548 1549.29 300.727 1544.91 300.727C1540.53 300.727 1536.14 300.553 1531.23 300.374C1532.11 314.403 1532.64 334.039 1532.64 349.82V367.355C1532.64 383.136 1532.11 406.281 1531.23 420.31C1536.14 420.136 1540.53 419.962 1544.91 419.962C1549.29 419.962 1553.85 420.136 1558.59 420.31C1557.71 406.281 1557.18 382.962 1557.18 367.355V349.82C1557.18 334.039 1557.71 314.399 1558.59 300.374Z" fill="#ECECEC"/>
<path d="M1639.47 297.745C1600.2 297.745 1575.65 322.12 1575.65 360.344C1575.65 398.569 1600.2 422.944 1639.47 422.944C1678.75 422.944 1703.47 398.046 1703.47 360.344C1703.47 322.643 1679.8 297.745 1639.47 297.745ZM1639.47 413.121C1616.68 413.121 1603.53 394.711 1603.53 360.344C1603.53 325.978 1616.68 307.214 1639.47 307.214C1662.27 307.214 1675.59 326.152 1675.59 360.344C1675.59 394.537 1662.27 413.121 1639.47 413.121Z" fill="#ECECEC"/>
<path d="M1824.62 299.633C1822.86 299.807 1819.71 299.986 1817.43 299.986C1814.97 299.986 1811.82 299.812 1807.96 299.633C1810.24 313.662 1811.46 340.312 1811.46 361.356V382.574L1810.76 382.748C1809.01 380.12 1807.43 378.367 1806.2 376.963C1788.49 356.098 1763.07 325.411 1741.5 299.284H1723.27C1723.44 306.822 1723.97 326.989 1723.97 349.084V357.851C1723.97 378.895 1723.09 405.545 1721.69 419.574C1723.97 419.4 1727.65 419.225 1729.93 419.225C1732.22 419.225 1735.54 419.4 1738.53 419.574C1736.25 405.545 1735.02 378.895 1735.02 357.851V333.476L1735.55 333.302C1737.3 335.582 1738.88 337.335 1740.11 338.738C1761.33 362.934 1792.89 401.338 1806.91 419.748H1823.04C1822.69 410.105 1822.34 393.273 1822.34 375.385V361.356C1822.34 340.317 1823.22 313.662 1824.62 299.633H1824.62Z" fill="#ECECEC"/>
</svg>
