<svg width="1825" height="720" viewBox="0 0 1825 720" fill="none" xmlns="http://www.w3.org/2000/svg">
<g clip-path="url(#clip0_685_2494)">
<path d="M256.797 241.554V257.151C256.612 257.151 256.426 257.151 256.228 257.151C233.852 257.151 230.884 271.994 230.884 271.994L164.721 456.654H124.471L58.1353 276.225C55.2162 271.153 52.4331 267.888 48.0791 265.031C40.1876 259.873 18.5538 257.77 18.5538 257.77V242.061H120.439V254.888C115.751 255.098 112.028 256.026 109.072 257.374C100.438 261.32 96.4922 271.401 99.7948 280.294L143.569 404.234C144.757 407.524 147.886 409.157 151.016 409.157C154.145 409.157 157.361 407.474 158.511 404.122L201.26 279.169C203.783 271.537 200.183 263.076 192.787 259.934C185.81 256.978 177.807 256.892 177.807 256.892V241.541H256.797V241.554ZM262.326 223H166.242C162.383 223 159.241 226.129 159.241 230.001V268.519C159.241 272.403 162.395 275.532 166.279 275.52L177.572 275.458C178.76 275.495 180.764 275.705 182.681 276.138L150.855 369.155L117.285 274.11L117.26 274.06C117.99 273.813 119.252 273.516 121.243 273.417L132.289 272.935C136.024 272.774 138.98 269.694 138.98 265.946V230.496C138.98 226.637 135.851 223.495 131.98 223.495H7.00098C3.12941 223.507 0 226.637 0 230.496V268.247C0 271.846 2.7336 274.864 6.32067 275.21L16.7603 276.225C25.1219 277.053 35.2152 279.144 38.0601 280.641C39.0867 281.321 39.9402 282.038 41.3256 284.24L107.056 463.049L109.839 470.619C110.853 473.378 113.475 475.208 116.407 475.208H172.86C175.816 475.208 178.451 473.353 179.453 470.57L182.199 462.913L248.361 278.253L248.708 277.276C249.314 276.781 251.454 275.705 256.241 275.705H256.599L268.288 275.841C272.185 275.878 275.363 272.737 275.363 268.84V230.001C275.363 226.142 272.234 223 268.363 223H262.339H262.326Z" fill="#ECECEC"/>
<path d="M528.635 241.554V313.209H510.02V307.197C510.02 282.174 489.734 261.889 464.711 261.889H396.557C391.127 261.889 386.736 266.292 386.736 271.71V330.093C386.736 335.498 391.115 339.877 396.52 339.877H418.958C431.178 339.877 441.099 330.847 441.099 318.614H453.678V385.16H442.1C442.1 368.215 428.358 354.472 411.412 354.472H398.796C391.585 354.472 385.734 360.323 385.734 367.534V429.442C385.734 439.177 393.626 447.068 403.36 447.068H466.258C511.541 446.066 512.048 386.694 512.048 386.694H528.648V462.171H308.266V445.943H333.041C333.041 445.943 333.177 445.943 333.425 445.943C335.577 445.943 345.992 445.027 345.992 427.438V272.452C345.992 259.613 335.515 259.502 335.119 259.502H316.306V241.554H528.635ZM405.277 319.851V280.443H464.699C479.48 280.443 491.454 292.428 491.454 307.197V324.749C491.454 328.621 494.595 331.763 498.467 331.763H540.164C544.035 331.763 547.177 328.621 547.177 324.749V230.013C547.177 226.142 544.035 223 540.164 223H304.753C300.881 223 297.739 226.142 297.739 230.013V271.042C297.739 274.914 300.881 278.055 304.753 278.055H320.412C324.284 278.055 327.425 281.197 327.425 285.069V420.351C327.425 424.222 324.284 427.364 320.412 427.364H296.7C292.829 427.364 289.687 430.506 289.687 434.378V473.687C289.687 477.558 292.829 480.7 296.7 480.7H540.164C544.035 480.7 547.177 477.558 547.177 473.687V375.129C547.177 371.257 544.035 368.116 540.164 368.116H500.483C496.612 368.116 493.47 371.257 493.47 375.129V386.484C493.445 387.251 493.074 399.199 488.522 410.505C482.276 426.016 473.234 428.304 466.01 428.502H411.276C407.405 428.502 404.263 425.36 404.263 421.489V373.026C425.155 373.026 423.522 391.172 423.522 391.172V396.701C423.522 400.572 426.664 403.714 430.535 403.714H442.076H453.653H472.207V385.16V300.06H429.533C425.662 300.06 422.52 303.202 422.52 307.074C422.52 322.3 405.277 319.851 405.277 319.851Z" fill="#ECECEC"/>
<path d="M585.113 245.166L740.458 246.304C767.881 246.304 801.847 259.638 801.847 301.149C801.847 336.389 758.517 346.42 745.418 348.659C743.279 349.03 741.72 350.885 741.72 353.062C741.72 355.066 743.056 356.81 744.985 357.355C789.366 369.81 780.968 405.817 780.968 405.817C777.319 443.172 791.84 446.784 797.592 446.784C798.965 446.784 799.831 446.574 799.831 446.574C817.444 446.574 814.29 407.697 814.29 407.697H829.133V425.558C826.87 452.226 820.97 467.07 783.986 469.717C782.625 469.815 781.314 469.865 780.052 469.865C763.143 469.865 753.829 461.59 748.733 453.426C744.763 447.056 742.846 439.622 742.846 432.114V404.828C742.808 400.795 742.475 397.097 741.906 393.708C738.318 372.383 719.653 356.909 698.032 356.909H675.038C668.507 356.909 663.213 362.203 663.213 368.734V428.539C663.213 438.793 671.525 447.106 681.779 447.106H693.035V462.196H585.113V445.597H605.708C618.3 445.597 628.517 435.392 628.517 422.788V282.224C628.517 270.931 619.364 261.765 608.058 261.765H585.113V245.166ZM566.56 236.841V273.306C566.56 277.177 569.701 280.319 573.573 280.319H608.058C609.11 280.319 609.963 281.173 609.963 282.224V422.738C609.963 425.088 608.058 426.993 605.708 426.993H573.573C569.701 426.993 566.56 430.135 566.56 434.007V473.699C566.56 477.571 569.701 480.713 573.573 480.713H711.589V428.515H688.792C684.921 428.515 681.779 425.373 681.779 421.501V382.439C681.779 378.568 684.908 375.426 688.792 375.426H698.044C710.785 375.426 721.546 384.394 723.624 396.751C724.044 399.261 724.279 401.995 724.304 404.889V432.089C724.304 443.321 727.31 454.082 732.987 463.21C743.105 479.451 759.816 488.394 780.052 488.394C781.772 488.394 783.54 488.332 785.309 488.208C815.577 486.044 829.195 475.802 835.207 468.195C844.446 456.494 846.351 442.084 847.625 427.117L847.687 426.338V389.131H814.29L799.348 389.007C798.891 386.299 798.223 383.441 797.258 380.485C794.821 373.039 790.294 364.318 781.908 356.476C783.887 355.512 785.866 354.473 787.82 353.347C802.688 344.775 820.401 328.757 820.401 301.149C820.401 269.793 805.075 252.253 792.223 243.063C778.432 233.192 760.076 227.762 740.533 227.75L585.249 226.624L573.622 226.538C569.726 226.513 566.56 229.655 566.56 233.551V236.854V236.841Z" fill="#ECECEC"/>
<path d="M685.477 281.333L724.044 282.545C740.669 282.545 740.075 302.052 740.075 302.052C740.075 319.987 725.801 321.038 725.801 321.038H685.428C685.267 321.038 685.131 320.915 685.131 320.779V281.642C685.131 281.482 685.279 281.346 685.465 281.346L685.477 281.333ZM681.977 264.202C671.191 264.202 665.921 270.263 665.921 279.874V324.267C665.921 333.853 671.178 338.157 681.94 338.157H726.605L727.396 338.096C729.586 337.935 737.316 337.007 744.849 331.713C751.417 327.099 759.247 318.243 759.309 302.225C759.371 298.749 758.95 284.203 748.003 274.196C741.806 268.519 733.668 265.488 724.44 265.402L686.219 264.202H685.873L685.477 264.189H681.977V264.202Z" fill="#ECECEC"/>
<path d="M862.468 245.166L964.613 246.551L1069.52 247.305L1071.71 330.192C1071.76 332.134 1070.2 333.742 1068.24 333.742H1057.11C1055.24 333.742 1053.71 332.27 1053.66 330.389C1053.24 316.635 1048.43 265.204 999.816 265.204C991.726 265.204 985.616 270.238 985.616 278.08V432.324C985.616 441.143 992.765 448.305 1001.6 448.305H1032.92V464.657H899.712V448.305H930.276C939.095 448.305 946.257 441.156 946.257 432.324V271.66C946.257 267.306 942.707 263.831 938.378 263.831C938.291 263.831 938.205 263.831 938.118 263.831C883.125 265.599 880.416 313.53 880.515 324.551C880.515 325.788 879.525 326.79 878.276 326.79H864.707C863.47 326.79 862.468 325.788 862.468 324.551V245.166ZM1053.68 352.283H1083.33C1087.2 352.283 1090.35 349.141 1090.35 345.27V333.729L1088.07 247.293V235.839C1088.07 231.98 1084.97 228.851 1081.11 228.826L1069.65 228.739L964.811 227.985L862.715 226.599L851.014 226.439C847.105 226.389 843.902 229.543 843.902 233.452V338.33C843.902 342.202 847.044 345.344 850.915 345.344H880.564C898.685 345.344 899.069 325.442 899.069 325.442C899.007 324.18 898.339 305.527 909.211 293.579C913.751 288.594 919.836 285.304 927.666 283.621V422.726C927.666 426.597 924.524 429.739 920.653 429.739H888.134C884.263 429.739 881.121 432.881 881.121 436.752V476.185C881.121 480.057 884.263 483.199 888.134 483.199H1044.42C1048.29 483.199 1051.43 480.057 1051.43 476.185V436.752C1051.43 432.881 1048.29 429.739 1044.42 429.739H1011.15C1007.27 429.739 1004.13 426.597 1004.13 422.726V283.955C1011.54 284.673 1017.27 287.27 1021.56 291.872C1032.2 303.239 1035.59 325.8 1035.14 332.492V342.449C1035.14 347.855 1039.52 352.246 1044.94 352.258L1053.66 352.283H1053.68Z" fill="#ECECEC"/>
<path d="M1237.19 248.938V267.43H1215.04C1204.77 267.43 1196.44 275.755 1196.44 286.033V430.197C1196.44 441.799 1205.85 451.212 1217.45 451.212H1239.09V468.195H1116.82V450.457H1137.2C1149.71 450.457 1159.84 440.327 1159.84 427.822V288.47C1159.84 276.645 1150.25 267.047 1138.41 267.047H1123.99V248.938H1237.21H1237.19ZM1255.75 230.384H1112.44C1108.57 230.384 1105.42 233.526 1105.42 237.398V278.599C1105.42 282.471 1108.57 285.613 1112.44 285.613H1138.4C1139.98 285.613 1141.27 286.899 1141.27 288.482V427.822C1141.27 430.073 1139.44 431.904 1137.19 431.904H1105.26C1101.39 431.904 1098.25 435.045 1098.25 438.917V479.735C1098.25 483.607 1101.39 486.749 1105.26 486.749H1250.61C1254.49 486.749 1257.63 483.607 1257.63 479.735V439.671C1257.63 435.8 1254.49 432.658 1250.61 432.658H1217.44C1216.08 432.658 1214.98 431.557 1214.98 430.197V292.428C1214.98 288.878 1217.84 285.996 1221.39 285.972H1237.18H1248.72C1252.59 285.972 1255.73 282.83 1255.73 278.958V230.384H1255.75Z" fill="#ECECEC"/>
<path d="M1527.41 336.352H1395.43C1390.29 336.352 1386.11 340.533 1386.11 345.678V381.19C1386.11 386.336 1390.29 390.504 1395.43 390.504H1428.14C1428.41 390.504 1428.57 390.541 1428.61 390.554C1428.71 390.653 1429.35 391.568 1429.35 393.473V402.156C1429.35 418.026 1419.22 430.234 1404.71 431.842C1402.3 432.102 1399.73 432.25 1397.07 432.275H1395.85L1395.14 432.386C1394.86 432.386 1394.1 432.448 1392.95 432.448C1388.88 432.448 1378.35 431.793 1368.55 425.682C1356.64 418.248 1348.94 404.716 1345.68 385.458L1345.66 385.346V385.235C1345.61 385.086 1342.42 366.854 1343.73 346.049C1344.81 329.202 1349.07 307 1363.36 296.931H1363.37C1363.85 296.585 1376.95 287.803 1393.27 287.803C1409.58 287.803 1424.64 297.092 1437.48 315.423L1440.93 320.346C1442.24 322.226 1444.38 323.339 1446.67 323.339H1492.84C1496.7 323.339 1499.84 320.21 1499.85 316.351L1499.9 304.86L1500.16 245.512L1500.2 234.677C1500.23 230.966 1497.36 227.886 1493.66 227.651L1482.83 226.921L1465.47 225.771L1459.94 225.19C1457.09 224.893 1454.35 226.352 1453.01 228.876L1449.6 235.332L1447.38 239.501C1446.1 241.95 1443.04 242.878 1440.62 241.554C1425.52 233.279 1403.86 224.695 1378.98 224.695C1358.68 224.695 1339.35 230.372 1321.54 241.579C1296.41 257.374 1278.06 282.447 1269.87 312.17C1264.31 332.406 1258.93 363.02 1264.96 393.93C1268.29 411 1274.75 426.523 1284.16 440.08C1294.92 455.566 1309.59 468.566 1327.77 478.721L1328.08 478.895L1328.4 479.055C1329.39 479.562 1352.97 491.363 1385.34 491.363C1407.12 491.363 1430.39 486.217 1449.47 476.037L1451.63 479.488L1455.02 484.943C1456.29 486.996 1458.54 488.246 1460.97 488.246H1496.66C1500.53 488.246 1503.68 485.104 1503.68 481.232V391.135H1527.41C1531.28 391.135 1534.43 388.006 1534.43 384.134V343.365C1534.43 339.493 1531.28 336.352 1527.41 336.352ZM1510.03 372.581H1500.89C1492.22 372.581 1485.12 379.681 1485.12 388.352V469.692H1464.75L1457.12 457.422C1455.62 455.022 1453.06 453.711 1450.44 453.711C1448.98 453.711 1447.5 454.119 1446.16 454.972C1424.7 468.628 1403.37 472.809 1385.34 472.809C1357.04 472.809 1336.82 462.518 1336.82 462.518C1269.87 425.126 1277.05 356.006 1287.77 317.093C1294.55 292.49 1309.8 270.869 1331.41 257.288C1347.76 247.009 1364 243.249 1378.98 243.249C1407.78 243.249 1431.97 257.115 1443.56 265.13C1444.9 266.057 1446.42 266.49 1447.9 266.49C1450.77 266.49 1453.54 264.882 1454.84 262.025L1464.23 244.288L1481.61 245.438L1481.35 304.785H1452.68C1433.22 277.017 1411.49 269.249 1393.27 269.249C1370.15 269.249 1352.67 281.766 1352.67 281.766C1313.04 309.684 1327.39 388.562 1327.39 388.562C1337.16 446.265 1379.35 451.002 1392.95 451.002C1395.63 451.002 1397.2 450.829 1397.2 450.829C1400.59 450.792 1403.77 450.606 1406.74 450.285C1431.2 447.576 1447.9 426.771 1447.9 402.156V393.473C1447.9 381.586 1440.02 371.95 1428.14 371.95H1406.64V354.906H1510.03V372.581Z" fill="#ECECEC"/>
<path d="M1690.93 248.852C1703.23 248.852 1745.53 251.462 1774.93 285.539C1774.93 285.539 1803.59 312.863 1805.74 360.088C1806.07 367.262 1806.03 374.461 1804.73 381.524C1787.22 476.903 1696.35 478.251 1691.23 478.251C1691.08 478.251 1691.01 478.251 1691.01 478.251C1555.11 474.231 1567.79 354.918 1567.79 354.918C1573.85 249.198 1686.38 248.938 1687.46 248.938C1687.46 248.938 1688.69 248.852 1690.92 248.852H1690.93ZM1690.93 230.298C1689.05 230.298 1687.68 230.347 1686.88 230.385C1681.46 230.446 1652.25 231.436 1621.67 245.426C1590.64 259.613 1552.92 289.881 1549.15 353.508C1548.59 359.754 1545.06 412.088 1580.41 452.251C1605.18 480.379 1642.2 495.37 1690.45 496.793H1690.55H1690.72C1690.72 496.793 1690.9 496.793 1691.24 496.793C1696.28 496.793 1722.83 496.1 1751.48 482.345C1778.37 469.444 1812.62 442.047 1823.14 384.839C1824.88 375.315 1824.74 366.161 1824.43 359.235C1822.16 309.176 1793.91 278.241 1788.67 272.922C1754.13 233.366 1705.17 230.286 1690.93 230.286V230.298Z" fill="#ECECEC"/>
<path d="M1688.53 286.281C1743.55 286.281 1740.26 368.177 1740.26 368.177C1738.99 417.543 1714.41 432.806 1697.87 437.494C1694.27 438.509 1690.56 439.016 1686.86 439.016C1681.11 439.016 1675.37 437.804 1670.08 435.453C1627.36 416.516 1633.53 355.35 1633.53 355.35C1635.45 286.664 1686.3 286.293 1687.4 286.293H1687.41C1687.79 286.293 1688.16 286.293 1688.55 286.293L1688.53 286.281ZM1688.53 267.727C1688.09 267.727 1687.63 267.727 1687.19 267.727C1683.52 267.752 1666.94 268.519 1650.08 279.7C1622.11 298.242 1615.3 330.365 1614.53 354.262C1613.85 362.537 1610.03 429.207 1662.21 452.325C1669.92 455.739 1678.44 457.545 1686.86 457.545C1692.41 457.545 1697.89 456.79 1703.18 455.294C1717.82 451.15 1730.5 442.727 1739.84 430.914C1752.05 415.502 1758.58 394.586 1759.27 368.746C1759.51 362.549 1760.45 313.493 1733.25 285.897C1721.52 273.998 1706.06 267.702 1688.55 267.702L1688.53 267.727Z" fill="#ECECEC"/>
</g>
<defs>
<clipPath id="clip0_685_2494">
<rect width="1824.62" height="273.805" fill="white" transform="translate(0 223)"/>
</clipPath>
</defs>
</svg>
