<svg width="1825" height="720" viewBox="0 0 1825 720" fill="none" xmlns="http://www.w3.org/2000/svg">
<path d="M131.471 397.796V414.385H0V401.982L101.084 321.518H3.72087V305.395H130.23V318.418L31.7824 397.796H131.471Z" fill="#ECECEC"/>
<path d="M230.849 305.395L295.654 414.385H277.36L263.561 390.664H175.191C173.951 392.68 171.78 396.556 168.679 401.982C165.579 407.408 163.098 411.594 161.238 414.385H143.253L210.229 305.395H231.004H230.849ZM184.803 374.696H254.724L222.942 320.743H217.981C214.105 326.945 208.524 335.937 201.237 347.719C193.95 359.502 188.369 368.494 184.803 374.696Z" fill="#ECECEC"/>
<path d="M393.792 414.385H306.196V305.395H389.606C405.729 305.395 416.737 307.255 422.783 311.131C428.675 315.007 431.776 322.138 431.776 332.526C431.776 346.014 426.504 354.231 415.962 357.022C429.295 359.657 435.806 368.494 435.806 383.378C435.806 395.315 432.861 403.377 426.814 407.718C420.923 412.059 409.76 414.23 393.637 414.23L393.792 414.385ZM322.785 350.045H393.327C402.319 350.045 408.21 349.27 411.001 347.874C413.791 346.479 415.187 342.758 415.187 336.712C415.187 330.2 413.636 326.014 410.536 324.309C407.435 322.604 400.613 321.673 390.071 321.673H322.785V350.045ZM322.785 397.796H391.466C403.559 397.796 411.156 396.866 414.256 394.85C417.512 392.99 419.063 388.339 419.063 380.897C419.063 374.076 417.667 369.89 414.722 368.494C411.776 366.944 405.419 366.324 395.652 366.324H322.63V397.796H322.785Z" fill="#ECECEC"/>
<path d="M583.401 394.695V414.385H566.812V403.687C566.812 395.005 566.037 388.959 564.486 385.393C562.936 381.827 559.835 379.192 555.029 377.641C550.223 376.091 542.316 375.316 531.464 375.316H471.93V414.385H455.341V305.395H539.061C556.735 305.395 568.517 307.41 574.564 311.596C580.61 315.782 583.711 323.534 583.711 335.161V339.192C583.711 347.719 582.161 354.076 579.06 358.107C575.959 362.138 571.308 365.083 565.262 366.789C572.858 368.029 577.82 370.51 579.99 374.076C582.161 377.641 583.246 384.463 583.246 394.695H583.401ZM472.085 358.727H537.045C548.363 358.727 556.115 357.487 560.3 355.006C564.486 352.526 566.657 347.874 566.967 341.053C566.967 332.991 564.952 327.875 560.766 325.549C556.735 323.224 547.743 322.138 534.099 322.138H471.93V358.882L472.085 358.727Z" fill="#ECECEC"/>
<path d="M626.656 305.395V414.385H610.067V305.395H626.656Z" fill="#ECECEC"/>
<path d="M768.359 380.588V384.309C768.359 393.146 766.809 399.657 763.553 403.998C760.297 408.34 754.716 411.44 746.499 413.146C738.437 415.006 726.034 415.781 709.445 415.781H704.174C693.787 415.781 685.415 415.781 678.903 415.471C672.392 415.161 666.5 414.541 661.384 413.611C656.268 412.681 652.237 411.44 649.756 410.2C647.276 408.96 645.105 406.944 643.4 404.154C641.694 401.518 640.764 398.572 640.299 395.627C639.834 392.681 639.679 388.495 639.679 383.379V379.968H656.423C656.423 386.169 657.508 390.51 659.524 392.991C661.539 395.472 665.57 397.177 671.771 397.952C677.818 398.882 688.36 399.347 703.399 399.347H708.36C721.073 399.347 730.375 398.882 736.422 397.952C742.313 397.022 746.499 395.316 748.669 392.836C750.84 390.355 751.925 386.634 751.925 381.363C751.925 377.332 750.995 374.542 748.979 372.836C746.964 371.131 742.778 369.891 736.267 369.115C729.755 368.34 719.212 368.03 704.794 368.03C693.166 368.03 683.709 367.72 676.423 367.1C669.136 366.48 663.244 365.55 658.438 364.464C653.787 363.379 650.221 361.519 648.051 358.883C645.88 356.247 644.33 353.457 643.555 350.511C642.78 347.565 642.47 343.379 642.47 338.108V334.387C642.47 322.605 646.19 314.853 653.632 310.822C661.074 306.791 675.957 304.775 698.438 304.775H703.089C721.383 304.775 734.871 305.706 743.243 307.566C751.77 309.426 757.351 312.527 760.297 316.713C763.243 320.899 764.638 327.566 764.638 336.713V339.969H748.204C748.204 334.542 747.274 330.666 745.259 328.186C743.398 325.705 739.367 324 733.631 322.915C727.739 321.829 718.282 321.364 705.104 321.364H701.228C684.019 321.364 672.702 322.294 667.43 324.155C662.159 326.015 659.369 330.046 659.058 336.093C659.369 340.279 660.454 343.379 662.469 345.395C664.485 347.255 668.671 348.806 675.337 349.581C682.004 350.356 692.236 350.976 706.345 350.976C724.639 350.976 738.127 351.906 746.809 353.612C755.491 355.472 761.227 358.263 764.173 362.294C767.119 366.325 768.514 372.681 768.514 381.208L768.359 380.588Z" fill="#ECECEC"/>
<path d="M835.8 358.727L922.155 414.385H892.078L816.885 367.409H802.467V414.385H785.723V305.395H802.467V350.51H820.296L890.217 305.395H917.039L835.8 358.727Z" fill="#ECECEC"/>
<path d="M951.922 305.395V414.385H935.333V305.395H951.922Z" fill="#ECECEC"/>
<path d="M1085.41 397.176V414.385H971.146V305.395H1084.48V322.449H987.735V350.045H1080.29V366.479H987.735V397.176H1085.41Z" fill="#ECECEC"/>
<path d="M1208.66 374.541V414.385H1192.07V305.395H1266.96C1278.89 305.395 1288.04 305.705 1294.4 306.48C1300.75 307.255 1306.18 308.805 1310.37 311.441C1314.55 314.077 1317.34 317.332 1318.58 321.363C1319.82 325.394 1320.44 331.131 1320.44 338.727V341.053C1320.44 355.316 1317.03 364.618 1310.37 368.649C1303.7 372.68 1289.13 374.696 1266.96 374.696H1208.66V374.541ZM1208.66 357.487H1264.01C1273.16 357.487 1280.13 357.332 1284.94 356.867C1289.75 356.401 1293.62 355.626 1296.57 354.231C1299.51 352.836 1301.53 351.13 1302.15 348.96C1302.77 346.789 1303.23 343.688 1303.23 339.658C1303.23 335.627 1302.92 332.371 1302.15 330.355C1301.37 328.34 1299.51 326.479 1296.57 325.084C1293.62 323.689 1289.59 322.914 1284.94 322.449C1280.29 321.983 1273.16 321.828 1264.01 321.828H1208.66V357.332V357.487Z" fill="#ECECEC"/>
<path d="M1406.18 415.782H1401.22C1390.52 415.782 1381.68 415.472 1374.71 415.007C1367.73 414.541 1361.53 413.456 1355.95 411.751C1350.36 410.2 1346.18 408.185 1343.08 405.704C1339.98 403.379 1337.5 399.968 1335.48 395.627C1333.47 391.286 1332.23 386.48 1331.61 381.364C1330.98 376.093 1330.67 369.426 1330.67 361.364V358.263C1330.67 350.201 1330.98 343.38 1331.61 338.109C1332.23 332.837 1333.47 328.031 1335.48 323.69C1337.5 319.349 1339.98 316.094 1343.08 313.613C1346.18 311.287 1350.52 309.272 1356.1 307.722C1361.68 306.171 1367.88 305.086 1374.86 304.621C1381.84 304.156 1390.52 303.846 1401.22 303.846H1406.18C1416.87 303.846 1425.56 304.156 1432.53 304.621C1439.51 305.086 1445.71 306.171 1451.29 307.722C1456.87 309.272 1461.22 311.287 1464.32 313.613C1467.42 315.939 1469.9 319.349 1471.91 323.69C1473.93 328.031 1475.17 332.837 1475.79 338.109C1476.41 343.38 1476.72 350.046 1476.72 358.263V361.364C1476.72 369.426 1476.41 376.093 1475.79 381.364C1475.17 386.635 1473.93 391.286 1471.91 395.627C1469.9 399.968 1467.42 403.224 1464.32 405.704C1461.22 408.185 1456.87 410.045 1451.45 411.751C1445.87 413.301 1439.67 414.386 1432.69 415.007C1425.71 415.472 1416.87 415.782 1406.18 415.782ZM1401.53 398.573H1405.56C1414.24 398.573 1421.22 398.418 1426.49 398.108C1431.76 397.798 1436.72 397.022 1441.06 395.937C1445.4 394.852 1448.66 393.457 1450.98 391.751C1453.15 390.201 1455.01 387.72 1456.56 384.309C1458.11 380.899 1459.04 377.333 1459.35 373.302C1459.66 369.271 1459.82 364 1459.82 357.488C1459.82 350.977 1459.35 345.24 1458.42 341.209C1457.49 337.178 1456.1 333.768 1454.08 330.822C1452.07 327.876 1448.81 325.861 1444.32 324.466C1439.82 323.225 1434.7 322.295 1428.97 321.83C1423.23 321.365 1415.48 321.055 1405.56 321.055H1401.53C1391.6 321.055 1383.7 321.365 1378.12 321.83C1372.38 322.295 1367.42 323.225 1362.77 324.466C1358.27 325.706 1355.02 327.876 1353 330.822C1350.98 333.768 1349.59 337.178 1348.66 341.209C1347.73 345.24 1347.26 350.667 1347.26 357.488C1347.26 364.31 1347.42 369.271 1347.73 373.302C1348.04 377.333 1348.97 380.899 1350.52 384.309C1352.07 387.72 1353.93 390.201 1356.1 391.751C1358.27 393.302 1361.53 394.697 1365.87 395.937C1370.21 397.177 1375.17 397.798 1380.44 398.108C1385.71 398.418 1392.69 398.573 1401.37 398.573H1401.53Z" fill="#ECECEC"/>
<path d="M1510.21 305.395V414.385H1493.62V305.395H1510.21Z" fill="#ECECEC"/>
<path d="M1678.58 305.395V414.385H1651.44L1554.24 319.658V414.385H1537.65V305.395H1564.93L1661.99 399.967V305.395H1678.58Z" fill="#ECECEC"/>
<path d="M1768.19 322.293V414.385H1751.6V322.293H1695.16V305.395H1824.62V322.449H1768.19V322.293Z" fill="#ECECEC"/>
</svg>
