<svg width="104" height="112" viewBox="0 0 104 112" fill="none" xmlns="http://www.w3.org/2000/svg">
<g clip-path="url(#clip0_202_584)">
<path d="M69.7411 45.8943H67.7124C67.7124 45.8943 67.7024 44.7781 67.7024 44.5489C67.4339 44.5489 61.2783 44.5688 61.0097 44.5688C61.0097 44.6884 61.0197 45.0173 61.0197 45.3262L67.1555 45.5654V45.8544L61.0197 45.6053V45.8544H54.7845V45.8345H54.7646V45.3461L39.5196 44.7183C39.45 44.788 39.3704 44.8777 39.2809 44.9674L70.7355 47.0304L70.7156 47.3095L39.0124 45.2266C38.9229 45.3163 38.8434 45.4059 38.7539 45.4857L73.4703 48.6749L73.4404 48.9639L38.4953 45.7548L38.4058 45.8345L76.0558 50.6482L76.0161 50.9272L38.0677 46.0836L37.5009 46.0737H37.3318C36.4467 46.0537 35.2037 46.0438 35.1539 46.0438C35.1539 46.0438 35.0943 46.0936 34.9749 46.1634L78.542 52.6414L78.5022 52.9304L34.607 46.4125C30.1717 49.3326 0 68.976 0 68.976V0.488343L35.2633 29.5796V35.6989L41.1704 29.1511H35.7606L0.43756 0H103.99V68.976C103.99 68.976 69.8306 45.9441 69.751 45.8943M76.6724 23.7096L79.248 29.2707V51.9338C88.586 58.2225 101.832 67.1621 103.712 68.4278V43.7914L91.1616 11.1223L76.6724 23.6996M11.7743 60.9632C21.341 54.7343 33.6125 46.7514 34.965 45.8744V36.2371L11.7743 60.9632ZM38.0776 45.8046H38.187L48.2211 34.7322H55.053V45.5554C55.411 45.5554 60.3634 45.5754 60.7114 45.5754V34.7322H67.9809C67.9809 34.7322 68.0008 45.3162 68.0008 45.5953H69.6416V29.1511H53.2132L48.1415 34.7322H47.7537L52.8254 29.1511H41.5582L35.2534 36.1274V45.7847C35.6412 45.7847 36.6556 45.7847 37.3616 45.8046V34.7322H47.5946L37.5605 45.8046H37.7992C37.9484 45.8046 38.0478 45.8046 38.0776 45.8046ZM54.7646 45.0671C54.7646 44.8578 54.7646 44.6585 54.7646 44.5788C54.5657 44.5788 46.8786 44.5788 42.5626 44.5588L54.7745 45.0671M41.6278 28.872H53.2828L60.4926 20.7097L62.9489 5.89002L41.6278 28.872ZM60.8307 20.5004H74.773V18.1783H61.2086L60.8208 20.5004M75.0514 18.0886V20.331L88.0589 5.71062H85.0656C83.7728 7.30521 75.1111 18.0189 75.0514 18.0886ZM61.6263 15.6868L61.2584 17.8793H74.5642L67.3146 10.6738L61.6263 15.6868ZM67.4638 10.4147C67.5533 10.5044 73.9774 16.9027 74.9023 17.8096L84.6976 5.70066H68.0505C67.8516 7.27532 67.4836 10.315 67.4638 10.4147ZM61.6959 15.2383L67.1853 10.3848L67.7621 5.70066H63.2771L61.686 15.2383" fill="#001E1E"/>
<path d="M3.65959 107.575C1.22318 104.635 0 101.486 0 98.1373C0 94.121 1.28285 90.6926 3.84854 87.8522C6.40428 85.0119 9.38765 83.5967 12.7787 83.5967C15.9709 83.5967 18.825 85.0418 21.3509 87.922C23.8868 90.8122 25.1497 94.0911 25.1497 97.7586C25.1497 101.426 23.8768 104.865 21.341 107.715C18.8051 110.575 15.8715 112 12.5699 112C9.06942 112 6.10595 110.525 3.65959 107.585M8.67164 85.6099C7.50813 86.2975 6.70262 87.4835 6.29489 89.1778C5.85733 90.862 5.65844 93.822 5.65844 98.0178C5.65844 100.928 5.77778 103.25 6.02639 104.984C6.26506 106.708 6.88162 108.143 7.85619 109.29C8.86058 110.416 10.392 110.994 12.5102 110.994C13.803 110.994 15.0859 110.645 16.3787 109.947C17.6814 109.27 18.5167 107.914 18.9145 105.891C19.3123 103.868 19.5012 100.758 19.5012 96.5627C19.5012 92.7656 19.2725 90.1445 18.7753 88.6894C18.288 87.2443 17.5024 86.1979 16.4184 85.56C15.3345 84.9122 14.0914 84.5933 12.6594 84.5933C11.2274 84.5933 9.86498 84.9421 8.68158 85.6099" fill="#001E1E"/>
<path d="M29.2966 111.343V110.336H33.5429V85.1814H29.2966V84.1748H43.209C46.3416 84.1748 48.7183 84.8824 50.2995 86.2876C51.8807 87.6929 52.6862 89.417 52.6862 91.4701C52.6862 93.5231 51.8906 95.3369 50.2796 96.7621C48.6785 98.1873 46.0035 98.8849 42.2743 98.8849H38.3661V110.346H42.7317V111.353H29.3066M38.3661 97.8783H40.9616C42.314 97.8783 43.4278 97.7687 44.3328 97.5295C45.2278 97.3003 45.9935 96.6824 46.6499 95.6957C47.2962 94.7091 47.6244 93.1842 47.6244 91.1113C47.6244 89.2775 47.346 87.9321 46.7692 87.065C46.1924 86.2079 45.5261 85.6797 44.7504 85.4804C43.9748 85.291 43.0101 85.1814 41.8665 85.1814H38.3661V97.8783Z" fill="#001E1E"/>
<path d="M60.095 107.575C57.6486 104.635 56.4453 101.486 56.4453 98.1373C56.4453 94.121 57.7083 90.6926 60.2839 87.8522C62.8496 85.0119 65.823 83.5967 69.2141 83.5967C72.3964 83.5967 75.2703 85.0418 77.7863 87.922C80.3122 90.8122 81.5951 94.0911 81.5951 97.7586C81.5951 101.426 80.3222 104.865 77.7764 107.715C75.2504 110.575 72.3168 112 69.0053 112C65.5048 112 62.5413 110.525 60.095 107.585M65.117 85.6099C63.9534 86.2975 63.1479 87.4835 62.7203 89.1778C62.3026 90.862 62.0938 93.822 62.0938 98.0178C62.0938 100.928 62.2131 103.25 62.4518 104.984C62.7004 106.708 63.307 108.143 64.2916 109.29C65.2761 110.416 66.8175 110.994 68.9257 110.994C70.2185 110.994 71.5113 110.645 72.7941 109.947C74.0969 109.27 74.9422 107.914 75.3399 105.891C75.7278 103.868 75.9366 100.758 75.9366 96.5627C75.9366 92.7656 75.6979 90.1445 75.2007 88.6894C74.7234 87.2443 73.9278 86.1979 72.8439 85.56C71.7698 84.9122 70.5069 84.5933 69.0948 84.5933C67.6826 84.5933 66.3004 84.9421 65.1269 85.6099" fill="#001E1E"/>
<path d="M88.7551 109.648L86.8556 111.343H86.1396V103.788H87.0247C87.8203 106.18 88.9241 107.994 90.3462 109.19C91.7683 110.386 93.3296 110.994 95.0201 110.994C96.7107 110.994 98.2421 110.436 99.6443 109.319C101.037 108.213 101.753 106.798 101.753 105.084C101.753 103.659 101.255 102.453 100.291 101.466C99.3162 100.479 97.735 99.8117 95.5472 99.4329C93.3494 99.0642 91.6887 98.6357 90.5152 98.1373C89.3418 97.639 88.3473 96.7819 87.512 95.5561C86.6866 94.3402 86.259 92.9848 86.259 91.4999C86.259 89.4468 86.9849 87.6131 88.4368 86.0185C89.8887 84.4039 91.8578 83.5967 94.3439 83.5967C96.4322 83.5967 98.3615 84.2445 100.161 85.5501C100.669 85.0717 101.096 84.5235 101.454 83.8857H102.28L102.399 90.9218H101.454C100.112 86.7061 97.735 84.6033 94.3339 84.6033C92.4544 84.6033 90.9727 85.1315 89.9385 86.1779C88.9042 87.2244 88.3772 88.3107 88.3772 89.4369C88.3772 90.4733 88.8048 91.3703 89.67 92.0879C90.5451 92.8254 92.1263 93.3835 94.4334 93.7722C96.7306 94.1608 98.4808 94.6592 99.6941 95.2272C100.897 95.8053 101.912 96.752 102.737 98.0875C103.572 99.423 103.98 100.958 103.98 102.682C103.98 105.343 103.105 107.555 101.375 109.329C99.6543 111.093 97.5162 111.99 94.9605 111.99C92.8721 111.99 90.7937 111.203 88.7352 109.638" fill="#001E1E"/>
</g>
<defs>
<clipPath id="clip0_202_584">
<rect width="104" height="112" fill="white"/>
</clipPath>
</defs>
</svg>
