<svg width="1825" height="720" viewBox="0 0 1825 720" fill="none" xmlns="http://www.w3.org/2000/svg">
<g clip-path="url(#clip0_925_5289)">
<path d="M266.567 356.188C266.567 356.188 208.802 169.962 112.821 83.2045C111.848 82.3244 110.282 83.0183 110.274 84.3384L106 631.414H159.754L163.156 493.551C163.257 489.345 166.727 486.011 170.933 486.07L227.843 486.874C232.658 486.942 236.636 490.657 237.016 495.463C238.768 517.026 242.991 576.255 241.713 631.414H295.551C295.551 631.414 307.424 489.565 266.567 356.188ZM214.76 434.068H169.926C166.854 434.068 164.366 431.597 164.357 428.525C164.256 404.339 164.307 312.851 166.211 292.287C166.371 290.586 168.529 289.926 169.596 291.263C191.302 318.58 214.743 391.662 224.136 421.264C226.151 427.611 221.412 434.068 214.76 434.068Z" fill="#ECECEC"/>
<path d="M758.518 91.193C758.509 89.8728 756.969 89.2128 755.962 90.059C644.849 183.9 595.395 356.188 595.395 356.188C554.538 489.565 566.402 633.58 566.402 633.58H614.579C614.579 633.58 616.246 488.473 626.283 455.749C627.247 452.609 630.167 450.477 633.45 450.477H696.978C705.297 450.477 712.016 457.247 711.949 465.565C711.61 508.927 710.688 633.394 710.95 633.935L711.271 634.595H758.255C759.711 634.595 760.896 633.419 760.913 631.963C761.26 591.2 758.518 91.193 758.518 91.193ZM710.595 391.417C710.595 398.348 706.143 402.647 703.071 402.647L646 403.146C639.349 403.146 634.398 398.559 636.624 390.342C659.887 304.38 683.066 282.522 704.155 259.03C705.932 257.049 709.215 258.175 709.401 260.824C711.136 285.356 710.595 368.145 710.595 391.417Z" fill="#ECECEC"/>
<path d="M316.674 80.3611L314.516 632.861H371.147C371.147 632.861 372.501 352.87 375.073 319.901C375.167 318.699 376.698 318.25 377.426 319.215C385.55 329.971 417.496 374.517 429.149 424.091C429.284 424.683 430.097 424.734 430.308 424.167C435.047 411.101 453.902 349.325 486.245 315.551C488.623 313.249 491.958 313.19 491.949 316.499C491.746 364.684 490.68 631.667 491.983 633.571H550.526V87.2919C550.526 87.2919 478.934 153.807 435.42 250.483C434.006 253.622 429.504 253.529 428.21 250.33C415.516 218.934 378.729 127.429 316.691 80.3611H316.674Z" fill="#ECECEC"/>
<path d="M872.304 386.636C872.304 386.636 925.889 367.087 943.99 272.587C963.505 170.673 901.534 115.48 901.534 115.48C873.184 88.7219 826.108 89.6782 826.108 89.6782L782.813 90.3552C781.273 90.3806 780.046 91.633 780.038 93.1648L778.599 634.595H827.03V412.023C827.03 405.448 836.415 404.288 838.006 410.669C853.247 471.836 885.464 550.664 953.824 634.595L1087.35 637.049C1087.35 637.049 931.246 570.466 872.304 386.636ZM834.519 364.405C830.313 366.859 826.471 365.683 826.471 360.817L826.108 170.842C826.108 166.408 830.076 166.128 834.037 166.374C851.199 166.856 888.612 182.444 892.775 242.401C892.775 242.401 899.587 335.827 834.519 364.405Z" fill="#ECECEC"/>
<path d="M1128.35 78C1128.35 78 918.484 132.583 960.594 384.038C960.594 384.038 986.387 551.714 1140.3 642L1232.31 564.611C1232.31 564.611 1067 552.975 1013.3 421.222C992.159 369.355 993.09 310.879 1015.77 259.664C1036.17 213.595 1078.18 163.894 1164.35 166.315L1128.35 78Z" fill="#ECECEC"/>
<path d="M1145.4 211.648C1074.14 211.648 1016.37 269.413 1016.37 340.676C1016.37 411.939 1074.14 469.704 1145.4 469.704C1216.66 469.704 1274.43 411.939 1274.43 340.676C1274.43 269.413 1216.65 211.648 1145.4 211.648ZM1132.83 403.18C1092.33 403.18 1059.49 370.075 1059.49 329.226C1059.49 288.378 1092.33 255.272 1132.83 255.272C1173.33 255.272 1206.18 288.378 1206.18 329.226C1206.18 370.075 1173.34 403.18 1132.83 403.18Z" fill="#ECECEC"/>
<path d="M1398.75 428.771C1397.82 426.452 1398.8 423.82 1401 422.644C1416.29 414.46 1473.42 378.893 1491.02 295.833C1491.02 295.833 1519.53 163.463 1414.4 113.763C1414.4 113.763 1379.6 90.9815 1289.35 95.4412L1287.45 637.049H1344.47V421.349C1344.47 419.267 1347.35 418.717 1348.11 420.655C1363.26 459.447 1417.23 582.441 1504.4 642L1506.95 532.546C1506.95 532.546 1445.46 507.218 1398.75 428.771ZM1343.56 387.474V199.835C1343.56 182.393 1360.36 169.954 1377.08 174.929C1402.52 182.486 1434.44 202.568 1442.44 255.272C1442.44 255.272 1459.42 387.474 1348.43 392.111C1345.77 392.221 1343.56 390.122 1343.56 387.474Z" fill="#ECECEC"/>
<path d="M1630.02 126.812C1615.98 114.71 1599.38 105.935 1581.47 101.196C1567.38 97.4722 1548.86 94.2903 1527.72 94.8657L1523.43 637.126C1523.43 637.126 1556.4 637.126 1571.69 633.783C1571.69 633.783 1641.24 632.37 1689.9 517.322C1706.71 477.582 1716.1 435.117 1718.37 392.018C1722.16 320.019 1714.01 199.174 1630.02 126.812ZM1595.74 526.123C1587.84 529.296 1579.24 523.517 1579.3 515.012L1581.12 244.973C1581.22 231.366 1596.09 223.089 1607.74 230.13C1633.57 245.735 1669.65 282.361 1674.19 365.962C1674.19 365.962 1682.71 491.164 1595.74 526.123Z" fill="#ECECEC"/>
</g>
<defs>
<clipPath id="clip0_925_5289">
<rect width="1613.1" height="564" fill="white" transform="translate(106 78)"/>
</clipPath>
</defs>
</svg>
