<svg width="1826" height="720" viewBox="0 0 1826 720" fill="none" xmlns="http://www.w3.org/2000/svg">
<g clip-path="url(#clip0_1161_2480)">
<path d="M280.606 517.039C278.874 515.928 275.942 514.685 271.901 513.219C267.859 511.798 264.484 510.066 261.863 508.067C259.243 506.068 257.2 503.004 255.823 498.873L159.311 183.489H130.664L34.4629 494.21C33.1749 498.784 30.9098 502.426 27.6676 505.136C24.4254 507.845 20.2948 510.332 15.2316 512.553C10.1684 514.774 6.52648 516.639 4.17253 518.149C1.81859 519.615 0.663818 521.569 0.663818 523.923C0.663818 528.053 4.17253 530.141 11.1455 530.141H73.4585C81.4086 530.141 85.4059 527.343 85.4059 521.791C85.4059 520.014 82.5634 517.971 76.834 515.706C71.1046 513.441 66.4855 510.821 62.888 507.845C59.3348 504.869 57.5139 500.028 57.5139 493.233C57.5139 488.569 58.6686 481.641 60.9337 472.447L69.9498 441.89C71.9929 435.894 73.6362 432.385 74.9242 431.364C76.2122 430.342 79.7209 429.854 85.4059 429.854H172.68C180.319 429.854 184.76 431.586 186.048 435.05L205.502 495.942C206.878 500.25 207.589 503.537 207.589 505.713C207.589 507.756 206.656 509.311 204.791 510.421C202.926 511.531 200.305 512.642 196.885 513.841C193.465 515.04 190.801 516.284 188.935 517.572C187.025 518.86 186.093 520.681 186.093 522.946C186.093 527.742 189.601 530.185 196.574 530.185H271.412C279.362 530.185 283.36 527.787 283.36 522.946C283.36 520.148 282.471 518.193 280.739 517.128L280.606 517.039ZM173.568 413.643H82.8743C80.5204 413.643 79.3656 412.621 79.3656 410.578C79.3656 409.468 79.5877 408.224 80.1206 406.758C80.6092 405.337 80.8313 404.538 80.8313 404.36L127.688 246.424L178.587 409.068C178.587 412.133 176.899 413.643 173.612 413.643H173.568Z" fill="#ECECEC"/>
<path d="M488.952 516.772C484.6 514.818 481.491 513.174 479.625 511.842C477.76 510.51 476.561 507.401 476.117 502.604L459.062 372.693C456.619 352.04 450.179 337.694 439.697 329.566C430.37 322.949 419.355 319.662 406.697 319.662C389.909 319.662 374.275 328.989 359.841 347.687L359.396 326.591C359.396 324.814 358.641 323.171 357.353 321.927C355.266 319.973 352.157 319.529 349.67 320.906L304.101 345.644C300.77 347.021 299.126 349.242 299.126 352.351C299.126 354.971 299.882 356.659 301.436 357.37C302.991 358.08 305.433 358.702 308.853 359.146C312.273 359.59 314.805 360.345 316.448 361.367C318.136 362.388 318.935 364.432 318.935 367.452V499.895C318.935 505.713 318.002 509.399 316.181 510.865C314.361 512.33 311.207 514.107 306.766 516.194C302.324 518.282 300.059 520.814 300.059 523.878C300.059 528.009 302.546 530.096 307.476 530.096H370.766C376.141 530.096 378.805 528.009 378.805 523.878C378.805 520.814 376.54 518.371 371.966 516.461C367.435 514.551 364.193 512.819 362.239 511.176C360.285 509.532 359.308 505.802 359.308 499.895V384.063C368.146 356.304 380.271 342.447 395.683 342.447C403.81 342.447 409.451 345.245 412.605 350.885C415.758 356.526 417.801 364.121 418.689 373.67L435.122 504.602C435.122 507.578 434.367 509.888 432.813 511.575C431.258 513.263 428.993 514.818 426.018 516.194C423.042 517.571 420.866 518.726 419.578 519.614C418.29 520.503 417.623 521.924 417.623 523.878C417.623 528.009 420.777 530.096 427.128 530.096H486.51C492.417 530.096 495.392 527.875 495.392 523.39C495.392 520.947 493.216 518.726 488.864 516.772H488.952Z" fill="#ECECEC"/>
<path d="M701.518 516.772C697.166 514.818 694.057 513.174 692.191 511.842C690.326 510.51 689.127 507.401 688.683 502.604L671.628 372.693C669.185 352.04 662.745 337.694 652.263 329.566C642.936 322.949 631.921 319.662 619.263 319.662C602.475 319.662 586.841 328.989 572.406 347.687L571.962 326.591C571.962 324.814 571.207 323.171 569.919 321.927C567.832 319.973 564.723 319.529 562.236 320.906L516.667 345.644C513.336 347.021 511.692 349.242 511.692 352.351C511.692 354.971 512.447 356.659 514.002 357.37C515.556 358.08 517.999 358.702 521.419 359.146C524.839 359.59 527.371 360.345 529.014 361.367C530.702 362.388 531.501 364.432 531.501 367.452V499.895C531.501 505.713 530.568 509.399 528.747 510.865C526.926 512.33 523.773 514.107 519.332 516.194C514.89 518.282 512.625 520.814 512.625 523.878C512.625 528.009 515.112 530.096 520.042 530.096H583.332C588.706 530.096 591.371 528.009 591.371 523.878C591.371 520.814 589.106 518.371 584.532 516.461C580.001 514.551 576.759 512.819 574.805 511.176C572.851 509.532 571.873 505.802 571.873 499.895V384.063C580.712 356.304 592.837 342.447 608.249 342.447C616.376 342.447 622.017 345.245 625.17 350.885C628.324 356.526 630.367 364.121 631.255 373.67L647.688 504.602C647.688 507.578 646.933 509.888 645.379 511.575C643.824 513.263 641.559 514.818 638.583 516.194C635.608 517.571 633.431 518.726 632.143 519.614C630.855 520.503 630.189 521.924 630.189 523.878C630.189 528.009 633.343 530.096 639.694 530.096H699.075C704.982 530.096 707.958 527.875 707.958 523.39C707.958 520.947 705.782 518.726 701.429 516.772H701.518Z" fill="#ECECEC"/>
<path d="M799.629 516.728C795.054 514.64 791.812 512.819 789.902 511.265C787.992 509.71 787.06 506.29 787.06 501.05V326.591C787.06 324.814 786.349 323.127 785.061 321.928C783.018 319.973 779.909 319.574 777.422 320.95L733.363 345.645C730.032 347.021 728.389 349.242 728.389 352.351C728.389 354.794 729.144 356.393 730.698 357.103C732.253 357.814 734.651 358.436 737.982 359.013C741.313 359.546 743.845 360.479 745.577 361.723C747.309 363.011 748.197 365.409 748.197 368.962V501.05C748.197 506.468 747.353 509.844 745.71 511.132C744.067 512.464 740.913 514.152 736.294 516.195C731.675 518.282 729.366 520.814 729.366 523.878C729.366 528.009 731.853 530.096 736.783 530.096H798.519C803.848 530.096 806.558 528.009 806.558 523.878C806.558 521.169 804.248 518.771 799.673 516.728H799.629Z" fill="#ECECEC"/>
<path d="M761.699 277.025C769.25 277.025 776.09 274.537 782.263 269.519C788.437 264.544 791.546 257.838 791.546 249.488C791.057 244.336 788.748 240.116 784.617 236.785C780.487 233.499 775.823 231.855 770.671 231.855C763.076 231.855 756.192 234.298 750.018 239.139C743.889 244.025 740.78 250.243 740.78 257.838C740.78 263.345 742.823 267.92 746.954 271.517C751.084 275.159 755.97 276.98 761.655 276.98L761.699 277.025Z" fill="#ECECEC"/>
<path d="M984.303 470.359C980.794 470.359 977.818 474.357 975.287 482.307C972.533 491.456 967.381 498.385 959.831 503.181C952.28 507.978 943.797 510.332 934.381 510.332C917.415 510.332 904.313 503.181 895.075 488.88C885.837 474.579 879.663 457.479 876.554 437.626L984.481 411.91C988.789 410.889 991.365 406.492 990.299 402.184C985.28 382.597 978.263 366.297 969.291 353.373C962.051 343.291 953.213 335.074 942.687 328.678C932.161 322.283 921.235 319.085 909.865 319.085C899.65 319.085 889.701 322.238 879.974 328.545C870.292 334.852 861.809 342.758 854.614 352.351C838.314 374.247 830.142 403.339 830.142 439.625C830.142 458.901 834.006 475.911 841.689 490.568C849.417 505.224 860.299 516.639 874.422 524.678C888.546 532.761 904.846 536.803 923.367 536.803C939.933 536.803 955.434 531.384 969.913 520.547C984.392 509.71 991.631 496.297 991.631 480.219C991.631 476.489 991.231 473.913 990.476 472.491C989.721 471.07 987.634 470.315 984.214 470.315L984.303 470.359ZM872.557 396.499C872.557 381.087 874.867 367.23 879.574 354.838C884.238 342.447 892.543 336.273 904.446 336.273C911.686 336.273 918.037 339.427 923.5 345.733C928.963 352.04 933.138 359.724 936.025 368.74C938.912 377.8 940.333 386.017 940.333 393.479C940.333 399.386 938.512 403.427 934.87 405.515C931.228 407.647 925.587 409.645 917.948 411.6L874.6 421.504C873.223 415.597 872.513 407.247 872.513 396.499H872.557Z" fill="#ECECEC"/>
<path d="M1388.74 208.049C1390.87 206.406 1393.93 204.94 1397.89 203.697C1401.84 202.453 1404.82 201.076 1406.9 199.655C1408.99 198.234 1410.01 196.013 1410.01 192.993C1410.01 188.196 1405.57 185.798 1396.64 185.798H1327.27C1318.34 185.798 1313.9 188.196 1313.9 192.993C1313.9 195.525 1314.92 197.479 1316.96 198.9C1319.01 200.321 1321.98 201.787 1325.98 203.253C1329.98 204.718 1333 206.317 1335.13 207.96C1337.22 209.648 1338.28 212.047 1338.28 215.156V309.669C1338.28 315.976 1337.48 320.062 1335.84 321.883C1334.2 323.748 1330.42 324.636 1324.38 324.636H1228.09C1221.83 324.636 1217.79 323.704 1215.92 321.794C1214.06 319.928 1213.12 315.842 1213.12 309.624V216.799C1213.12 212.935 1214.19 210.004 1216.28 208.049C1218.37 206.095 1221.56 204.363 1225.83 202.897C1230.09 201.432 1233.11 200.099 1234.89 198.944C1236.66 197.79 1237.55 195.791 1237.55 193.037C1237.55 188.241 1233.07 185.842 1224.05 185.842H1155.74C1146.41 185.842 1141.75 188.241 1141.75 193.037C1141.75 195.747 1142.68 197.701 1144.55 198.944C1146.41 200.188 1149.43 201.52 1153.61 202.853C1157.78 204.185 1160.94 205.829 1163.03 207.694C1165.16 209.604 1166.18 212.624 1166.18 216.843V499.139C1166.18 503.181 1165.11 506.157 1163.03 508.067C1160.94 510.021 1157.7 511.664 1153.34 513.041C1148.99 514.418 1145.97 515.661 1144.28 516.772C1142.59 517.882 1141.71 519.747 1141.71 522.457C1141.71 527.564 1146.37 530.14 1155.7 530.14H1224.01C1233.02 530.14 1237.51 527.564 1237.51 522.457C1237.51 519.703 1236.58 517.704 1234.67 516.55C1232.76 515.395 1229.69 514.062 1225.47 512.641C1221.25 511.22 1218.14 509.577 1216.1 507.711C1214.06 505.846 1213.04 503.003 1213.04 499.139V357.236C1213.04 351.285 1213.84 347.465 1215.39 345.777C1216.99 344.09 1220.54 343.246 1226.05 343.246H1324.29C1330.2 343.246 1334.02 344.045 1335.66 345.644C1337.35 347.243 1338.15 351.107 1338.15 357.236V498.118C1338.15 502.071 1337.08 505.046 1335 507.001C1332.86 508.955 1329.76 510.776 1325.63 512.375C1321.49 513.974 1318.47 515.439 1316.61 516.727C1314.74 518.015 1313.81 519.925 1313.81 522.457C1313.81 527.564 1318.25 530.14 1327.18 530.14H1396.55C1405.48 530.14 1409.92 527.564 1409.92 522.457C1409.92 519.703 1408.95 517.704 1406.99 516.461C1405.04 515.262 1402.02 513.929 1397.93 512.552C1393.85 511.176 1390.74 509.399 1388.6 507.311C1386.47 505.224 1385.45 502.159 1385.45 498.118V215.156C1385.45 212.047 1386.52 209.693 1388.69 208.049H1388.74Z" fill="#ECECEC"/>
<path d="M1618.8 494.698C1616.85 494.698 1615.38 495.498 1614.36 497.052C1613.34 498.607 1612.19 501.094 1610.9 504.558C1610.68 505.18 1610.41 505.802 1610.19 506.335C1607.12 513.708 1596.73 513.708 1593.8 506.246C1593.66 505.846 1593.49 505.447 1593.35 505.047C1591.18 498.74 1589.62 491.412 1588.73 483.017C1587.85 474.668 1587.22 468.672 1586.91 465.118L1578.52 389.748C1575.85 366.253 1569.95 348.576 1560.8 336.762C1551.65 324.948 1536.46 319.041 1515.23 319.041C1503.46 319.041 1492.62 321.75 1482.72 327.079C1472.81 332.454 1465.35 340.182 1460.33 350.219C1456.69 357.681 1454.87 363.543 1454.87 367.852C1454.87 372.693 1457 375.091 1461.31 375.091C1463.89 375.091 1466.24 372.87 1468.24 368.385C1475.3 349.686 1487.12 340.359 1503.64 340.359C1518.83 340.359 1528.29 348.132 1532.11 363.721C1535.17 374.469 1537.35 388.682 1538.55 406.359C1528.46 399.075 1517.67 395.433 1506.17 395.433C1497.06 395.433 1488.36 397.609 1480.05 401.917C1471.75 406.225 1464.51 412.044 1458.38 419.283C1452.25 426.567 1447.45 434.784 1444.03 443.977C1440.57 453.171 1438.84 462.454 1438.84 471.825C1438.84 484.35 1442.3 495.542 1449.23 505.446C1456.16 515.351 1465.17 523.035 1476.32 528.542C1487.47 534.049 1498.71 536.803 1510.17 536.803C1529.09 536.803 1544.14 529.519 1555.42 514.996C1562.49 529.563 1574.3 536.803 1590.82 536.803C1600.15 536.803 1608.23 533.738 1615.03 527.609C1621.82 521.48 1625.24 513.619 1625.24 504.07C1625.24 497.807 1623.07 494.698 1618.67 494.698H1618.8ZM1541.74 509.044C1536.55 515.484 1530.02 518.682 1522.16 518.682C1509.1 518.682 1499.11 512.775 1492.13 500.916C1485.21 489.058 1481.74 475.911 1481.74 461.477C1481.74 447.042 1483.74 436.782 1487.69 429.232C1493.56 417.817 1501.99 412.088 1513.14 412.088C1520.6 412.088 1526.87 414.664 1531.88 419.772C1536.9 424.879 1540.5 431.319 1542.59 439.136C1547.21 456.547 1549.52 472.491 1549.52 486.97C1549.52 495.276 1546.94 502.604 1541.74 509.044Z" fill="#ECECEC"/>
<path d="M1716.34 518.993C1714.83 517.927 1712.52 516.727 1709.32 515.395C1706.12 514.063 1703.72 512.375 1702.08 510.465C1700.44 508.511 1699.59 505.713 1699.59 502.115V191.261C1699.59 189.307 1698.75 187.441 1697.28 186.153C1695.11 184.244 1691.95 183.933 1689.47 185.398L1646.29 210.492C1643.27 211.691 1641.81 214.09 1641.81 217.732C1641.81 219.597 1642.43 220.885 1643.67 221.551C1644.92 222.218 1647.05 222.795 1649.98 223.283C1652.91 223.772 1655.22 224.349 1656.82 225.06C1658.42 225.771 1659.17 227.148 1659.17 229.191V502.071C1659.17 506.956 1658.29 510.065 1656.55 511.309C1654.82 512.597 1651.67 514.329 1647.14 516.505C1642.61 518.726 1640.3 521.169 1640.3 523.878C1640.3 528.009 1642.79 530.096 1647.72 530.096H1711.01C1716.02 530.096 1718.56 528.009 1718.56 523.878C1718.56 521.657 1717.8 520.058 1716.29 518.993H1716.34Z" fill="#ECECEC"/>
<path d="M1822.97 518.993C1821.46 517.927 1819.15 516.728 1815.96 515.395C1812.76 514.063 1810.36 512.375 1808.72 510.465C1807.07 508.511 1806.23 505.713 1806.23 502.115V188.196L1800.28 183L1752.93 210.537C1749.91 211.736 1748.45 214.134 1748.45 217.776C1748.45 219.642 1749.07 220.93 1750.31 221.596C1751.56 222.262 1753.69 222.839 1756.62 223.328C1759.55 223.817 1761.86 224.394 1763.46 225.105C1765.06 225.815 1765.81 227.192 1765.81 229.235V502.115C1765.81 507.001 1764.93 510.11 1763.19 511.353C1761.46 512.641 1758.31 514.374 1753.78 516.55C1749.25 518.771 1746.94 521.213 1746.94 523.923C1746.94 528.053 1749.42 530.141 1754.35 530.141H1817.64C1822.66 530.141 1825.2 528.053 1825.2 523.923C1825.2 521.702 1824.44 520.103 1822.93 519.037L1822.97 518.993Z" fill="#ECECEC"/>
</g>
<defs>
<clipPath id="clip0_1161_2480">
<rect width="1824.62" height="353.847" fill="white" transform="translate(0.619385 183)"/>
</clipPath>
</defs>
</svg>
