<svg width="1825" height="720" viewBox="0 0 1825 720" fill="none" xmlns="http://www.w3.org/2000/svg">
<g clip-path="url(#clip0_1161_2480)">
<path d="M362.058 496.757C360.55 495.791 357.999 494.708 354.482 493.433C350.964 492.196 348.026 490.688 345.746 488.948C343.465 487.209 341.687 484.541 340.489 480.946L256.493 206.425H231.561L147.835 476.886C146.714 480.868 144.743 484.038 141.921 486.397C139.099 488.755 135.504 490.92 131.098 492.853C126.691 494.786 123.522 496.409 121.473 497.724C119.424 499 118.419 500.701 118.419 502.75C118.419 506.345 121.473 508.162 127.542 508.162H181.774C188.693 508.162 192.172 505.726 192.172 500.894C192.172 499.348 189.698 497.569 184.712 495.598C179.725 493.626 175.705 491.345 172.574 488.755C169.482 486.165 167.897 481.951 167.897 476.036C167.897 471.977 168.902 465.946 170.873 457.943L178.72 431.346C180.498 426.127 181.928 423.072 183.049 422.183C184.17 421.294 187.224 420.869 192.172 420.869H268.128C274.776 420.869 278.642 422.377 279.763 425.392L296.693 478.394C297.892 482.144 298.51 485.005 298.51 486.899C298.51 488.678 297.698 490.031 296.075 490.997C294.451 491.964 292.171 492.93 289.194 493.974C286.218 495.018 283.899 496.1 282.275 497.221C280.613 498.342 279.801 499.927 279.801 501.899C279.801 506.074 282.855 508.201 288.924 508.201H354.056C360.976 508.201 364.454 506.113 364.454 501.899C364.454 499.464 363.681 497.763 362.174 496.835L362.058 496.757ZM268.901 406.758H189.969C187.92 406.758 186.915 405.869 186.915 404.091C186.915 403.124 187.108 402.042 187.572 400.766C187.997 399.529 188.19 398.833 188.19 398.678L228.971 261.205L273.269 402.776C273.269 405.444 271.8 406.758 268.939 406.758H268.901Z" fill="#ECECEC"/>
<path d="M543.386 496.526C539.598 494.825 536.892 493.394 535.268 492.235C533.645 491.075 532.601 488.369 532.215 484.193L517.371 371.114C515.245 353.138 509.64 340.651 500.518 333.576C492.401 327.816 482.814 324.955 471.798 324.955C457.186 324.955 443.58 333.074 431.017 349.349L430.631 330.986C430.631 329.44 429.974 328.009 428.853 326.927C427.036 325.226 424.33 324.839 422.165 326.038L382.506 347.571C379.607 348.769 378.177 350.702 378.177 353.408C378.177 355.689 378.834 357.158 380.187 357.777C381.54 358.396 383.666 358.937 386.642 359.323C389.618 359.71 391.822 360.367 393.252 361.256C394.721 362.145 395.417 363.924 395.417 366.553V481.835C395.417 486.9 394.605 490.108 393.02 491.384C391.435 492.66 388.691 494.206 384.825 496.023C380.96 497.84 378.988 500.044 378.988 502.711C378.988 506.307 381.153 508.124 385.444 508.124H440.526C445.203 508.124 447.523 506.307 447.523 502.711C447.523 500.044 445.551 497.918 441.57 496.255C437.627 494.593 434.805 493.085 433.105 491.655C431.404 490.224 430.553 486.977 430.553 481.835V381.011C438.246 356.849 448.798 344.787 462.211 344.787C469.285 344.787 474.194 347.223 476.939 352.133C479.683 357.042 481.461 363.653 482.234 371.965L496.537 485.933C496.537 488.523 495.879 490.534 494.526 492.003C493.174 493.472 491.202 494.825 488.612 496.023C486.023 497.222 484.128 498.227 483.007 499C481.887 499.773 481.307 501.01 481.307 502.711C481.307 506.307 484.051 508.124 489.579 508.124H541.26C546.401 508.124 548.991 506.191 548.991 502.286C548.991 500.16 547.096 498.227 543.308 496.526H543.386Z" fill="#ECECEC"/>
<path d="M728.386 496.526C724.598 494.825 721.892 493.394 720.268 492.235C718.645 491.075 717.601 488.369 717.215 484.193L702.371 371.114C700.245 353.138 694.64 340.651 685.518 333.576C677.401 327.816 667.814 324.955 656.798 324.955C642.186 324.955 628.58 333.074 616.017 349.349L615.631 330.986C615.631 329.44 614.974 328.009 613.853 326.927C612.036 325.226 609.33 324.839 607.165 326.038L567.506 347.571C564.607 348.769 563.177 350.702 563.177 353.408C563.177 355.689 563.834 357.158 565.187 357.777C566.54 358.396 568.666 358.937 571.642 359.323C574.618 359.71 576.822 360.367 578.252 361.256C579.721 362.145 580.417 363.924 580.417 366.553V481.835C580.417 486.9 579.605 490.108 578.02 491.384C576.435 492.66 573.691 494.206 569.825 496.023C565.96 497.84 563.988 500.044 563.988 502.711C563.988 506.307 566.153 508.124 570.444 508.124H625.526C630.203 508.124 632.523 506.307 632.523 502.711C632.523 500.044 630.551 497.918 626.57 496.255C622.627 494.593 619.805 493.085 618.105 491.655C616.404 490.224 615.553 486.977 615.553 481.835V381.011C623.246 356.849 633.798 344.787 647.211 344.787C654.285 344.787 659.194 347.223 661.939 352.133C664.683 357.042 666.461 363.653 667.234 371.965L681.537 485.933C681.537 488.523 680.879 490.534 679.526 492.003C678.174 493.472 676.202 494.825 673.612 496.023C671.023 497.222 669.128 498.227 668.007 499C666.887 499.773 666.307 501.01 666.307 502.711C666.307 506.307 669.051 508.124 674.579 508.124H726.26C731.401 508.124 733.991 506.191 733.991 502.286C733.991 500.16 732.096 498.227 728.308 496.526H728.386Z" fill="#ECECEC"/>
<path d="M813.773 496.487C809.792 494.67 806.97 493.085 805.308 491.732C803.646 490.379 802.834 487.402 802.834 482.841V330.986C802.834 329.44 802.216 327.971 801.095 326.927C799.316 325.226 796.611 324.878 794.446 326.076L756.101 347.571C753.202 348.77 751.772 350.703 751.772 353.409C751.772 355.535 752.429 356.927 753.782 357.545C755.135 358.164 757.222 358.705 760.121 359.208C763.02 359.672 765.223 360.483 766.731 361.566C768.238 362.687 769.011 364.775 769.011 367.867V482.841C769.011 487.557 768.277 490.495 766.847 491.616C765.417 492.776 762.672 494.245 758.652 496.023C754.632 497.84 752.622 500.044 752.622 502.712C752.622 506.307 754.787 508.124 759.077 508.124H812.807C817.445 508.124 819.803 506.307 819.803 502.712C819.803 500.353 817.793 498.266 813.812 496.487H813.773Z" fill="#ECECEC"/>
<path d="M780.762 287.842C787.334 287.842 793.286 285.677 798.659 281.309C804.032 276.979 806.738 271.141 806.738 263.873C806.313 259.389 804.303 255.716 800.708 252.817C797.113 249.956 793.055 248.525 788.571 248.525C781.961 248.525 775.969 250.652 770.596 254.866C765.262 259.118 762.556 264.53 762.556 271.141C762.556 275.935 764.334 279.917 767.929 283.048C771.524 286.218 775.776 287.803 780.724 287.803L780.762 287.842Z" fill="#ECECEC"/>
<path d="M974.498 456.126C971.445 456.126 968.855 459.606 966.651 466.526C964.255 474.49 959.771 480.52 953.2 484.696C946.628 488.871 939.245 490.92 931.051 490.92C916.285 490.92 904.882 484.696 896.842 472.247C888.801 459.799 883.429 444.915 880.723 427.634L974.653 405.25C978.402 404.361 980.644 400.534 979.717 396.784C975.349 379.735 969.241 365.547 961.433 354.297C955.132 345.522 947.44 338.37 938.279 332.803C929.118 327.236 919.609 324.452 909.713 324.452C900.823 324.452 892.164 327.197 883.699 332.687C875.272 338.176 867.889 345.058 861.627 353.408C847.441 372.467 840.329 397.789 840.329 429.374C840.329 446.152 843.692 460.959 850.379 473.716C857.105 486.474 866.575 496.409 878.867 503.407C891.159 510.443 905.346 513.961 921.464 513.961C935.882 513.961 949.373 509.244 961.974 499.812C974.576 490.379 980.876 478.703 980.876 464.709C980.876 461.461 980.528 459.219 979.871 457.982C979.214 456.745 977.397 456.088 974.421 456.088L974.498 456.126ZM877.244 391.836C877.244 378.421 879.254 366.359 883.351 355.573C887.41 344.787 894.638 339.413 904.998 339.413C911.298 339.413 916.826 342.158 921.58 347.648C926.335 353.137 929.968 359.826 932.481 367.673C934.993 375.56 936.23 382.712 936.23 389.207C936.23 394.348 934.646 397.866 931.476 399.683C928.306 401.539 923.397 403.279 916.749 404.98L879.022 413.601C877.824 408.459 877.205 401.191 877.205 391.836H877.244Z" fill="#ECECEC"/>
<path d="M1326.49 227.804C1328.34 226.374 1331.01 225.098 1334.45 224.015C1337.89 222.933 1340.48 221.734 1342.29 220.497C1344.11 219.26 1345 217.327 1345 214.698C1345 210.523 1341.14 208.436 1333.37 208.436H1272.99C1265.22 208.436 1261.35 210.523 1261.35 214.698C1261.35 216.902 1262.24 218.603 1264.02 219.84C1265.8 221.077 1268.39 222.353 1271.87 223.629C1275.35 224.904 1277.97 226.296 1279.83 227.727C1281.65 229.196 1282.57 231.283 1282.57 233.989V316.257C1282.57 321.746 1281.88 325.303 1280.45 326.888C1279.02 328.512 1275.73 329.285 1270.47 329.285H1186.67C1181.22 329.285 1177.7 328.473 1176.08 326.811C1174.46 325.187 1173.65 321.63 1173.65 316.218V235.42C1173.65 232.056 1174.57 229.505 1176.39 227.804C1178.21 226.103 1180.99 224.595 1184.7 223.319C1188.41 222.044 1191.04 220.884 1192.59 219.879C1194.13 218.874 1194.91 217.134 1194.91 214.737C1194.91 210.562 1191 208.474 1183.15 208.474H1123.7C1115.59 208.474 1111.53 210.562 1111.53 214.737C1111.53 217.095 1112.34 218.796 1113.96 219.879C1115.59 220.961 1118.22 222.121 1121.85 223.281C1125.48 224.441 1128.23 225.871 1130.04 227.495C1131.9 229.157 1132.79 231.786 1132.79 235.459V481.178C1132.79 484.696 1131.86 487.286 1130.04 488.949C1128.23 490.65 1125.41 492.08 1121.62 493.279C1117.83 494.477 1115.2 495.559 1113.73 496.526C1112.26 497.492 1111.49 499.116 1111.49 501.474C1111.49 505.92 1115.55 508.162 1123.67 508.162H1183.12C1190.96 508.162 1194.87 505.92 1194.87 501.474C1194.87 499.077 1194.06 497.338 1192.39 496.333C1190.73 495.327 1188.06 494.168 1184.39 492.931C1180.72 491.694 1178.01 490.263 1176.24 488.639C1174.46 487.016 1173.57 484.542 1173.57 481.178V357.661C1173.57 352.481 1174.26 349.156 1175.62 347.687C1177.01 346.218 1180.1 345.483 1184.89 345.483H1270.4C1275.54 345.483 1278.86 346.179 1280.29 347.571C1281.76 348.963 1282.46 352.326 1282.46 357.661V480.289C1282.46 483.73 1281.53 486.32 1279.71 488.021C1277.86 489.722 1275.15 491.307 1271.56 492.699C1267.96 494.09 1265.33 495.366 1263.71 496.487C1262.09 497.608 1261.28 499.271 1261.28 501.474C1261.28 505.92 1265.14 508.162 1272.91 508.162H1333.29C1341.06 508.162 1344.92 505.92 1344.92 501.474C1344.92 499.077 1344.07 497.338 1342.37 496.255C1340.67 495.212 1338.04 494.052 1334.49 492.853C1330.93 491.655 1328.22 490.108 1326.37 488.291C1324.51 486.474 1323.62 483.807 1323.62 480.289V233.989C1323.62 231.283 1324.55 229.234 1326.45 227.804H1326.49Z" fill="#ECECEC"/>
<path d="M1526.71 477.312C1525.01 477.312 1523.74 478.008 1522.85 479.361C1521.96 480.714 1520.96 482.879 1519.83 485.895C1519.64 486.436 1519.41 486.977 1519.22 487.441C1516.55 493.859 1507.5 493.859 1504.95 487.364C1504.84 487.016 1504.68 486.668 1504.57 486.32C1502.67 480.83 1501.32 474.451 1500.55 467.145C1499.77 459.877 1499.23 454.658 1498.96 451.565L1491.66 385.96C1489.34 365.509 1484.2 350.123 1476.23 339.839C1468.27 329.556 1455.05 324.414 1436.57 324.414C1426.33 324.414 1416.9 326.772 1408.28 331.411C1399.66 336.089 1393.16 342.816 1388.8 351.553C1385.63 358.048 1384.04 363.151 1384.04 366.901C1384.04 371.115 1385.9 373.202 1389.65 373.202C1391.89 373.202 1393.94 371.269 1395.68 367.365C1401.82 351.089 1412.1 342.971 1426.48 342.971C1439.7 342.971 1447.94 349.736 1451.26 363.305C1453.93 372.661 1455.82 385.032 1456.87 400.419C1448.09 394.078 1438.7 390.908 1428.69 390.908C1420.76 390.908 1413.19 392.803 1405.96 396.553C1398.73 400.303 1392.43 405.367 1387.1 411.668C1381.76 418.009 1377.59 425.161 1374.61 433.163C1371.59 441.166 1370.09 449.245 1370.09 457.403C1370.09 468.305 1373.1 478.047 1379.13 486.668C1385.16 495.289 1393.01 501.977 1402.71 506.771C1412.41 511.565 1422.19 513.961 1432.17 513.961C1448.63 513.961 1461.74 507.621 1471.56 494.98C1477.7 507.66 1487.98 513.961 1502.36 513.961C1510.48 513.961 1517.52 511.294 1523.43 505.959C1529.34 500.624 1532.32 493.781 1532.32 485.469C1532.32 480.018 1530.43 477.312 1526.6 477.312H1526.71ZM1459.65 489.799C1455.13 495.405 1449.44 498.188 1442.6 498.188C1431.24 498.188 1422.54 493.047 1416.47 482.725C1410.44 472.403 1407.43 460.959 1407.43 448.395C1407.43 435.831 1409.17 426.9 1412.61 420.328C1417.71 410.393 1425.05 405.406 1434.76 405.406C1441.25 405.406 1446.7 407.648 1451.07 412.094C1455.44 416.54 1458.57 422.145 1460.38 428.949C1464.4 444.104 1466.41 457.983 1466.41 470.586C1466.41 477.815 1464.17 484.194 1459.65 489.799Z" fill="#ECECEC"/>
<path d="M1611.6 498.459C1610.29 497.531 1608.28 496.487 1605.49 495.328C1602.71 494.168 1600.62 492.699 1599.19 491.036C1597.76 489.335 1597.03 486.9 1597.03 483.768V213.191C1597.03 211.49 1596.29 209.866 1595.02 208.745C1593.12 207.083 1590.38 206.812 1588.21 208.088L1550.64 229.93C1548.01 230.974 1546.74 233.062 1546.74 236.232C1546.74 237.855 1547.28 238.977 1548.36 239.556C1549.44 240.136 1551.3 240.639 1553.85 241.064C1556.4 241.489 1558.41 241.992 1559.8 242.611C1561.19 243.229 1561.85 244.428 1561.85 246.206V483.73C1561.85 487.982 1561.08 490.688 1559.57 491.771C1558.06 492.892 1555.32 494.4 1551.38 496.294C1547.43 498.227 1545.42 500.353 1545.42 502.712C1545.42 506.307 1547.59 508.124 1551.88 508.124H1606.96C1611.33 508.124 1613.53 506.307 1613.53 502.712C1613.53 500.779 1612.88 499.387 1611.56 498.459H1611.6Z" fill="#ECECEC"/>
<path d="M1704.41 498.459C1703.09 497.531 1701.08 496.487 1698.3 495.327C1695.52 494.168 1693.43 492.699 1692 491.036C1690.57 489.335 1689.84 486.9 1689.84 483.768V210.523L1684.66 206L1643.45 229.969C1640.82 231.013 1639.55 233.1 1639.55 236.27C1639.55 237.894 1640.09 239.015 1641.17 239.595C1642.25 240.175 1644.11 240.678 1646.66 241.103C1649.21 241.528 1651.22 242.031 1652.61 242.649C1654 243.268 1654.66 244.466 1654.66 246.245V483.768C1654.66 488.021 1653.89 490.727 1652.38 491.809C1650.87 492.931 1648.13 494.438 1644.19 496.333C1640.24 498.266 1638.23 500.392 1638.23 502.75C1638.23 506.345 1640.4 508.162 1644.69 508.162H1699.77C1704.14 508.162 1706.34 506.345 1706.34 502.75C1706.34 500.817 1705.68 499.425 1704.37 498.498L1704.41 498.459Z" fill="#ECECEC"/>
</g>
<defs>
<clipPath id="clip0_1161_2480">
<rect width="1588" height="308" fill="white" transform="translate(118.381 206)"/>
</clipPath>
</defs>
</svg>
