<svg width="1825" height="720" viewBox="0 0 1825 720" fill="none" xmlns="http://www.w3.org/2000/svg">
<g clip-path="url(#clip0_925_5415)">
<path d="M16.6977 429.908C23.2696 426.5 25.0708 418.614 25.5089 405.518C25.9471 393.786 25.9471 340.48 25.9471 328.505C25.9471 317.454 25.7037 307.036 25.5089 304.992C24.1459 296.424 18.937 292.335 10.3691 290.972C2.92087 289.852 0 288.927 0 285.324C0 282.598 2.48274 281.722 5.40361 281.722C9.93096 281.722 20.7869 283.961 32.0809 283.961C44.4946 283.961 54.2309 282.16 71.1719 282.16C112.259 282.16 134.214 295.012 134.214 318.525C134.214 333.227 128.567 343.352 114.547 349.486C112.502 350.411 110.944 350.849 110.944 351.969C110.944 353.332 112.989 354.452 115.228 355.133C132.169 360.099 146.19 370.03 146.19 394.224C146.19 404.593 142.149 414.573 134.896 422.216C124.04 433.753 112.551 440.082 86.5552 440.082C69.176 440.082 51.9915 438.476 38.8963 438.476C28.5272 438.476 20.5921 439.4 11.0993 439.4C9.29811 439.4 7.93504 438.476 7.93504 437.161C7.93504 430.394 12.6571 431.952 16.7463 429.956L16.6977 429.908ZM57.8333 427.23C63.0422 429.956 69.8088 432.196 81.9791 432.196C102.766 432.196 117.662 416.618 117.662 395.831C117.662 371.198 95.3178 360.342 62.1172 360.342C51.9428 360.342 51.9428 361.705 51.5047 371.393C50.8232 382.443 50.8232 385.608 50.8232 396.902C50.8232 417.445 50.8232 423.336 57.8333 427.182V427.23ZM52.8678 303.677C52.1862 310.687 52.1862 319.693 52.1862 326.704C52.1862 328.943 52.1862 336.878 52.8678 341.843C53.7927 347.929 56.4702 349.292 61.2409 350.217C67.5695 351.58 72.9731 351.58 78.8635 351.58C83.3909 351.58 87.9182 351.58 91.2772 351.141C96.9243 350.46 99.6504 349.097 102.328 346.419C106.417 342.135 108.656 336.683 108.656 326.752C108.656 305.284 91.9588 290.387 68.8839 290.387C57.3465 290.387 53.5006 296.034 52.8678 303.726V303.677Z" fill="#ECECEC"/>
<path d="M157.435 436.041C157.435 431.758 161.037 432.877 166.684 430.638C172.575 428.155 175.934 420.463 176.177 407.125C176.615 380.253 176.859 355.377 176.859 326.947C176.859 322.225 176.859 314.533 176.421 309.762C175.496 298.907 172.137 295.061 163.52 292.383C156.072 289.901 150.62 289.219 150.62 285.13C150.62 281.722 152.177 280.846 155.342 280.846C159.382 280.846 172.964 283.085 189.224 283.085C207.09 283.085 214.295 281.965 218.384 281.965C220.867 281.965 222.473 282.89 222.473 285.13C222.473 288.976 220.428 289.657 214.1 290.533C208.453 291.653 206.652 296.424 205.727 304.992C203.926 325.34 202.562 360.586 202.562 383.368C202.562 393.543 202.562 407.076 203.001 414.33C204.12 427.668 203.926 429.47 222.668 429.47C249.54 429.47 267.162 419.1 275.536 406.881C277.775 403.717 278.262 401.673 280.063 401.673C281.621 401.673 282.984 402.792 282.984 404.155C282.984 419.295 270.327 442.321 252.509 442.321C239.609 442.321 210.936 438.719 188.153 438.719C177.978 438.719 169.849 439.644 161.037 439.644C158.993 439.644 157.435 438.037 157.435 436.041Z" fill="#ECECEC"/>
<path d="M292.038 431.271C299.243 428.106 307.422 413.405 311.024 404.399C328.403 361.949 346.269 321.056 366.813 278.801C367.251 277.438 368.176 277 369.295 277C370.658 277 371.34 277.438 372.022 278.801C386.48 312.002 415.835 376.407 429.417 408.439C434.139 419.733 437.79 427.62 447.039 431.465C451.08 433.267 455.607 432.147 455.607 437.112C455.607 439.839 453.563 440.277 450.204 440.277C444.313 440.277 430.78 437.551 419.924 437.551C406.39 437.551 398.894 440.033 390.326 440.033C388.281 440.033 386.723 438.67 386.723 436.869C386.723 434.63 390.812 433.705 394.61 431.222C399.818 428.058 402.058 423.969 402.058 419.246C402.058 413.356 396.411 399.579 391.883 389.648C389.644 385.121 388.038 383.563 383.997 383.32C379.275 382.882 363.648 382.2 351.478 382.2C334.975 382.2 331.811 383.32 329.133 387.847C323.486 396.658 318.959 409.072 318.959 415.644C318.959 422.216 322.561 427.182 327.089 429.177C334.294 432.585 343.592 430.979 343.592 435.944C343.592 438.865 342.472 439.985 337.701 439.985C331.373 439.985 321.198 437.259 310.391 437.259C303.381 437.259 295.251 439.06 290.724 439.06C286.878 439.06 285.32 438.378 285.32 436.139C285.32 431.417 288.485 432.731 292.087 431.173L292.038 431.271ZM378.593 372.561C381.32 372.561 382.196 370.322 382.196 368.959C382.196 365.356 379.713 359.466 378.35 356.302C373.823 345.933 367.981 333.275 361.652 321.056C361.214 319.937 360.095 318.817 358.926 318.817C358.245 318.817 357.563 319.499 356.882 321.056C351.916 331.426 344.225 349.535 338.139 362.825C337.458 364.626 336.776 366.865 336.776 367.79C336.776 368.91 337.896 370.517 339.502 370.711C353.036 372.513 365.255 372.513 378.593 372.513V372.561Z" fill="#ECECEC"/>
<path d="M472.548 430.394C478.634 428.788 481.116 422.508 482.041 412.09C483.161 400.358 484.086 362.192 484.086 326.46C484.086 300.27 482.285 296.667 471.185 292.14C466.463 290.095 456.727 290.339 456.727 285.13C456.727 282.89 458.285 281.965 460.768 281.965C468.654 281.965 475.907 282.89 486.277 282.89C501.416 282.89 523.323 281.089 540.946 281.089C591.087 281.089 623.85 311.126 623.85 355.62C623.85 400.115 586.365 439.644 540.702 439.644C524.004 439.644 510.666 437.599 491.437 437.599C485.546 437.599 473.571 438.962 467.924 438.962C465.879 438.962 464.078 438.037 464.078 436.041C464.078 432.439 466.804 431.758 472.451 430.394H472.548ZM527.412 288.732C514.073 288.732 510.471 294.136 509.79 306.355C509.351 316.967 509.351 345.64 509.351 359.223V398.995C509.351 422.703 513.197 430.833 537.83 430.833C574.438 430.833 596.539 401.916 596.539 364.626C596.539 323.491 568.742 288.732 527.412 288.732Z" fill="#ECECEC"/>
<path d="M638.308 439.887C633.342 439.887 631.298 439.206 631.298 436.285C631.298 432.877 635.387 432.439 638.503 431.319C641.423 430.394 645.513 425.672 645.951 422.07C647.509 411.701 649.358 381.178 649.358 353.868C649.358 329.722 648.677 306.452 647.995 301.681C647.557 295.596 643.955 291.312 635.776 289.706C626.284 287.661 623.801 288.343 623.801 283.815C623.801 282.014 626.04 280.651 629.01 280.651C632.856 280.651 650.478 282.014 663.573 282.014C705.585 282.014 732.701 280.894 740.392 280.894C741.95 280.894 743.313 282.696 743.313 284.74C743.557 294.233 745.358 301.243 745.358 308.448C745.358 314.777 744.433 319.061 740.636 319.061C738.834 319.061 737.715 317.697 737.715 315.458C737.715 298.955 729.585 292.189 707.678 292.189C699.305 292.189 689.618 292.432 686.892 292.627C681.683 293.308 677.837 293.99 676.523 299.637C675.841 302.12 675.598 315.02 675.598 317.503C675.598 326.996 675.841 338.29 676.279 342.33C676.279 349.34 680.125 349.778 684.165 349.778H693.658C710.356 349.778 716.928 346.371 722.575 331.036C723.256 329.43 724.376 328.115 725.739 328.115C727.979 328.115 729.147 329.722 729.147 331.718C729.147 334.639 728.465 340.967 728.465 346.176C728.465 354.744 730.948 369.446 730.948 380.301C730.948 382.784 729.39 384.391 727.346 384.391C725.106 384.147 723.938 380.107 723.305 376.943C720.579 364.724 717.415 362.484 706.121 361.559C699.111 361.121 692.344 361.121 684.458 361.121C679.93 361.121 677.447 362.679 677.009 366.525C676.571 371.052 676.571 375.336 676.571 379.377C676.571 400.407 677.253 413.259 679.736 420.707C681.293 425.916 683.338 428.593 691.711 428.593C721.309 428.593 741.853 416.861 749.544 403.279C750.907 400.553 751.589 398.314 753.634 398.314C755.191 398.314 756.116 399.433 756.116 402.841C756.116 421.34 744.384 441.445 719.313 441.445C712.741 441.445 691.76 438.037 668.052 438.037C655.151 438.037 646.584 439.839 638.454 439.839L638.308 439.887Z" fill="#ECECEC"/>
<path d="M834.834 431.076C841.162 427.035 842.72 420.025 843.207 411.409C844.57 383.855 845.008 365.113 845.008 338.436C845.008 331.669 845.008 321.495 844.57 313.121C843.889 299.345 841.406 293.26 831.475 290.095C823.589 287.613 818.136 288.976 818.136 283.329C818.136 281.284 820.376 279.726 823.102 279.726C829.187 279.726 837.998 281.333 846.615 281.333C859.953 281.333 874.85 279.726 890.428 279.726C911.653 279.726 927.912 282.647 936.967 291.702C945.097 299.831 950.5 311.126 950.5 320.618C950.5 340.042 940.569 350.411 924.505 358.103C923.823 358.541 923.385 359.028 923.385 359.661C923.385 360.294 923.628 361.267 924.067 362.143C930.395 374.119 938.768 389.015 950.5 408.926C955.709 417.737 962.719 426.305 969.243 426.305C972.407 426.305 974.646 425.186 977.616 425.186C978.979 425.186 979.855 426.305 979.855 427.668C979.855 431.709 966.76 440.325 955.223 440.325C939.839 440.325 929.714 427.668 919.977 409.608C914.768 399.871 905.957 380.448 898.752 370.322C894.712 364.918 888.383 364.918 880.448 364.918C871.637 364.918 870.274 365.843 870.274 372.366C870.274 384.78 870.955 402.159 872.075 415.741C872.513 421.827 877.479 428.399 883.126 430.638C888.773 432.877 894.858 431.563 894.858 435.847C894.858 437.891 892.813 440.131 891.255 440.131C882.688 440.131 869.592 438.329 858.736 438.329C842.72 438.329 835.71 440.374 830.501 440.374C828.457 440.374 826.655 438.573 826.655 436.285C826.655 432.682 830.258 434.046 834.785 431.076H834.834ZM875.726 354.939C878.647 355.62 884.781 356.058 887.945 356.058C904.886 356.058 911.896 354.5 917.738 348.853C921.34 345.251 924.748 339.361 924.748 330.549C924.748 306.842 909.852 288.537 884.781 288.537C877.333 288.537 872.367 291.702 872.124 300.075C871.442 317.259 871.199 328.067 871.199 343.693C871.199 351.58 872.562 354.062 875.726 354.987V354.939Z" fill="#ECECEC"/>
<path d="M1002.01 283.767C1015.78 283.767 1025.52 281.965 1032.28 281.965C1038.18 281.965 1039.3 282.89 1039.3 284.448C1039.3 291.215 1035.25 288.051 1030.05 290.533C1023.47 293.454 1022.6 301.146 1021.48 318.768C1021.04 324.172 1021.04 346.76 1021.04 369.154C1021.04 402.354 1033.94 429.226 1071.62 429.226C1102.78 429.226 1121.52 407.563 1121.52 365.064V318.087C1121.52 302.704 1115.87 293.892 1106.13 291.653C1099.56 290.095 1093.23 290.533 1093.23 286.006C1093.23 282.842 1094.84 281.722 1098.2 281.722C1106.33 281.722 1114.7 282.842 1121.91 283.085C1128.67 283.085 1136.61 282.404 1142.26 282.404C1146.1 282.404 1148.34 283.523 1148.34 286.006C1148.34 291.653 1143.13 288.732 1138.85 291.653C1134.13 295.061 1132.96 301.584 1132.52 315.799C1132.28 325.292 1131.59 366.866 1131.59 376.553C1131.59 418.322 1100.2 442.273 1061.1 442.273C1017.05 442.273 994.265 424.893 994.265 376.31C994.265 364.334 994.703 336.537 994.703 315.556C994.703 299.539 991.101 295.888 983.652 292.042C977.762 289.122 970.752 291.118 970.752 285.714C970.752 283.913 972.31 282.306 973.916 282.306C978.638 282.306 990.176 283.669 1001.91 283.669L1002.01 283.767Z" fill="#ECECEC"/>
<path d="M1171.61 429.226C1177.26 425.38 1180.86 416.812 1181.35 410.24C1183.15 392.861 1183.15 363.02 1183.15 344.959C1183.15 335.904 1182.9 326.655 1182.71 318.087C1182.27 304.067 1170.05 293.016 1161.92 290.972C1155.84 289.365 1152.87 290.972 1152.87 285.763C1152.87 283.28 1154.23 281.722 1156.71 281.722C1160.8 281.722 1168.93 282.842 1177.74 282.842C1183.83 282.842 1188.79 281.479 1194.44 281.479C1198.97 281.479 1202.82 283.523 1206.17 288.051C1231.68 319.888 1263.57 357.421 1291.56 384.975C1293.17 386.581 1294.97 387.896 1295.84 388.139C1297.21 388.139 1297.65 386.338 1297.89 384.293C1299.25 373.243 1299.25 362.825 1299.25 327.823C1299.25 319.45 1299.01 312.245 1296.09 304.554C1294.04 298.225 1290.2 294.379 1284.36 291.896C1276.91 289.17 1268.53 289.414 1268.53 285.324C1268.53 283.085 1269.9 281.917 1273.74 281.917C1280.07 281.917 1287.28 283.961 1300.62 283.961C1311.47 283.961 1316.63 282.598 1321.16 282.598C1326.37 282.598 1327.73 283.036 1327.73 285.763C1327.73 289.365 1323.64 288.245 1319.16 291.166C1314.2 294.331 1311.03 298.42 1309.43 308.351C1308.75 313.998 1308.06 326.655 1308.06 337.267C1308.06 366.184 1306.94 402.305 1306.94 434.192C1306.94 438.232 1306.26 439.839 1304.46 439.839C1302.22 439.839 1301.74 437.794 1300.18 436.236C1263.37 397.632 1231.73 360.099 1199.21 323.539C1197.17 321.495 1196.97 320.813 1195.61 320.813C1192.69 320.813 1192.69 332.107 1192.69 338.192C1192.69 356.935 1193.13 375.239 1193.81 394.906C1194.73 420.902 1196.54 425.186 1208.71 429.226C1214.79 431.709 1221.8 431.271 1221.8 435.311C1221.8 437.551 1220.44 438.719 1216.84 438.719C1212.11 438.719 1204.18 436.918 1194.93 436.918C1185.68 436.918 1170.78 439.157 1165.14 439.157C1161.73 439.157 1161.29 437.794 1161.29 436.236C1161.29 433.315 1168.49 431.514 1171.66 429.226H1171.61Z" fill="#ECECEC"/>
<path d="M1360.01 429.226C1365.65 425.38 1369.26 416.812 1369.74 410.24C1371.54 392.861 1371.54 363.02 1371.54 344.959C1371.54 335.904 1371.3 326.655 1371.11 318.087C1370.67 304.067 1358.45 293.016 1350.32 290.972C1344.23 289.365 1341.26 290.972 1341.26 285.763C1341.26 283.28 1342.63 281.722 1345.11 281.722C1349.2 281.722 1357.33 282.842 1366.14 282.842C1372.23 282.842 1377.19 281.479 1382.84 281.479C1387.37 281.479 1391.21 283.523 1394.57 288.051C1420.08 319.888 1451.97 357.421 1479.96 384.975C1481.56 386.581 1483.36 387.896 1484.24 388.139C1485.6 388.139 1486.04 386.338 1486.29 384.293C1487.65 373.243 1487.65 362.825 1487.65 327.823C1487.65 319.45 1487.41 312.245 1484.48 304.554C1482.44 298.225 1478.59 294.379 1472.75 291.896C1465.3 289.17 1456.93 289.414 1456.93 285.324C1456.93 283.085 1458.29 281.917 1462.14 281.917C1468.47 281.917 1475.67 283.961 1489.01 283.961C1499.87 283.961 1505.03 282.598 1509.56 282.598C1514.76 282.598 1516.13 283.036 1516.13 285.763C1516.13 289.365 1512.04 288.245 1507.56 291.166C1502.59 294.331 1499.43 298.42 1497.82 308.351C1497.14 313.998 1496.46 326.655 1496.46 337.267C1496.46 366.184 1495.34 402.305 1495.34 434.192C1495.34 438.232 1494.66 439.839 1492.86 439.839C1490.62 439.839 1490.13 437.794 1488.57 436.236C1451.77 397.632 1420.13 360.099 1387.61 323.539C1385.56 321.495 1385.37 320.813 1384.01 320.813C1381.09 320.813 1381.09 332.107 1381.09 338.192C1381.09 356.935 1381.52 375.239 1382.21 394.906C1383.13 420.902 1384.93 425.186 1397.1 429.226C1403.19 431.709 1410.2 431.271 1410.2 435.311C1410.2 437.551 1408.83 438.719 1405.23 438.719C1400.51 438.719 1392.57 436.918 1383.32 436.918C1374.08 436.918 1359.18 439.157 1353.53 439.157C1350.12 439.157 1349.69 437.794 1349.69 436.236C1349.69 433.315 1356.89 431.514 1360.06 429.226H1360.01Z" fill="#ECECEC"/>
<path d="M1544.12 439.887C1539.15 439.887 1537.11 439.206 1537.11 436.285C1537.11 432.877 1541.2 432.439 1544.36 431.319C1547.28 430.394 1551.37 425.672 1551.81 422.07C1553.42 411.701 1555.22 381.178 1555.22 353.868C1555.22 329.722 1554.54 306.452 1553.86 301.681C1553.42 295.596 1549.77 291.312 1541.64 289.706C1532.14 287.661 1529.66 288.343 1529.66 283.815C1529.66 282.014 1531.9 280.651 1534.87 280.651C1538.72 280.651 1556.34 282.014 1569.43 282.014C1611.45 282.014 1638.56 280.894 1646.25 280.894C1647.81 280.894 1649.17 282.696 1649.17 284.74C1649.42 294.233 1651.22 301.243 1651.22 308.448C1651.22 314.777 1650.29 319.061 1646.5 319.061C1644.69 319.061 1643.57 317.697 1643.57 315.458C1643.57 298.955 1635.44 292.189 1613.54 292.189C1605.17 292.189 1595.48 292.432 1592.75 292.627C1587.54 293.308 1583.7 293.99 1582.38 299.637C1581.7 302.12 1581.46 315.02 1581.46 317.503C1581.46 326.996 1581.7 338.29 1582.14 342.33C1582.14 349.34 1585.98 349.778 1590.03 349.778H1599.52C1616.22 349.778 1622.79 346.371 1628.43 331.036C1629.12 329.43 1630.24 328.115 1631.6 328.115C1633.84 328.115 1635.01 329.722 1635.01 331.718C1635.01 334.639 1634.33 340.967 1634.33 346.176C1634.33 354.744 1636.81 369.446 1636.81 380.301C1636.81 382.784 1635.2 384.391 1633.21 384.391C1630.97 384.147 1629.8 380.107 1629.12 376.943C1626.39 364.724 1623.23 362.484 1611.93 361.559C1604.92 361.121 1598.16 361.121 1590.27 361.121C1585.74 361.121 1583.26 362.679 1582.82 366.525C1582.38 371.052 1582.38 375.336 1582.38 379.377C1582.38 400.407 1583.06 413.259 1585.55 420.707C1587.1 425.916 1589.15 428.593 1597.52 428.593C1627.12 428.593 1647.66 416.861 1655.36 403.279C1656.72 400.553 1657.4 398.314 1659.4 398.314C1661 398.314 1661.88 399.433 1661.88 402.841C1661.88 421.34 1650.15 441.445 1625.08 441.445C1618.5 441.445 1597.52 438.037 1573.81 438.037C1560.96 438.037 1552.35 439.839 1544.22 439.839L1544.12 439.887Z" fill="#ECECEC"/>
<path d="M1679.6 431.076C1685.93 427.035 1687.48 420.025 1687.97 411.409C1689.33 383.855 1689.77 365.113 1689.77 338.436C1689.77 331.669 1689.77 321.495 1689.33 313.121C1688.65 299.345 1686.17 293.26 1676.24 290.095C1668.35 287.613 1662.9 288.976 1662.9 283.329C1662.9 281.284 1665.14 279.726 1667.87 279.726C1673.95 279.726 1682.76 281.333 1691.38 281.333C1704.72 281.333 1719.61 279.726 1735.19 279.726C1756.42 279.726 1772.68 282.647 1781.73 291.702C1789.86 299.831 1795.27 311.126 1795.27 320.618C1795.27 340.042 1785.33 350.411 1769.27 358.103C1768.59 358.541 1768.15 359.028 1768.15 359.661C1768.15 360.294 1768.39 361.267 1768.83 362.143C1775.16 374.119 1783.53 389.015 1795.27 408.926C1800.47 417.737 1807.44 426.305 1814.01 426.305C1817.17 426.305 1819.41 425.186 1822.38 425.186C1823.74 425.186 1824.62 426.305 1824.62 427.668C1824.62 431.709 1811.52 440.325 1799.99 440.325C1784.6 440.325 1774.48 427.668 1764.74 409.608C1759.53 399.871 1750.72 380.448 1743.52 370.322C1739.43 364.918 1733.15 364.918 1725.21 364.918C1716.4 364.918 1715.04 365.843 1715.04 372.366C1715.04 384.78 1715.72 402.159 1716.84 415.741C1717.28 421.827 1722.24 428.399 1727.89 430.638C1733.54 432.877 1739.62 431.563 1739.62 435.847C1739.62 437.891 1737.58 440.131 1736.02 440.131C1727.45 440.131 1714.31 438.329 1703.5 438.329C1687.48 438.329 1680.47 440.374 1675.27 440.374C1673.22 440.374 1671.42 438.573 1671.42 436.285C1671.42 432.682 1675.02 434.046 1679.55 431.076H1679.6ZM1720.49 354.939C1723.41 355.62 1729.55 356.058 1732.71 356.058C1749.65 356.058 1756.66 354.5 1762.5 348.853C1766.1 345.251 1769.51 339.361 1769.51 330.549C1769.51 306.842 1754.62 288.537 1729.55 288.537C1722.1 288.537 1717.13 291.702 1716.89 300.075C1716.21 317.259 1715.96 328.067 1715.96 343.693C1715.96 351.58 1717.33 354.062 1720.49 354.987V354.939Z" fill="#ECECEC"/>
</g>
<defs>
<clipPath id="clip0_925_5415">
<rect width="1824.62" height="165.37" fill="white" transform="translate(0 277)"/>
</clipPath>
</defs>
</svg>
