<svg width="1826" height="720" viewBox="0 0 1826 720" fill="none" xmlns="http://www.w3.org/2000/svg">
<g clip-path="url(#clip0_963_22209)">
<path d="M355.857 356.745C349.873 353.632 343.364 351.651 337.259 349.226C337.987 348.902 338.755 348.619 339.523 348.336C347.084 345.547 353.795 341.382 359.132 335.156C373.848 317.974 374.495 285.833 350.52 268.893C337.866 259.958 323.514 256.724 308.555 255.592C294.971 254.581 281.467 255.916 268.045 258.018C266.145 258.301 265.579 259.029 265.579 261.01C265.66 274.149 265.619 287.288 265.619 300.428C265.619 351.449 265.619 402.471 265.619 453.452C265.619 455.433 265.943 456.362 268.166 456.524C275.888 457.05 283.57 458.061 291.292 458.546C306.857 459.556 322.422 459.516 337.825 456.443C357.878 452.441 382.5 435.259 382.742 403.279C382.944 382.014 374.292 366.327 355.776 356.705L355.857 356.745ZM279.972 270.672C284.58 270.147 289.109 269.581 293.677 269.176C305.24 268.166 316.762 268.368 327.961 271.925C336.693 274.715 344.254 279.324 349.631 287.248C359.415 301.722 358.444 331.194 331.155 340.655C325.131 342.757 318.581 343.687 312.193 344.132C302.612 344.819 292.99 344.617 283.408 344.738C282.276 344.738 281.184 344.536 279.972 344.415V270.632V270.672ZM347.973 438.574C339.604 443.385 330.508 445.649 321.128 446.943C310.212 448.438 290.928 446.983 280.214 443.829V358.039C289.068 358.039 297.962 357.999 306.816 358.039C317.005 358.12 327.152 358.443 337.057 361.193C354.078 365.882 364.953 376.798 368.107 394.668C371.382 413.063 364.185 429.235 348.014 438.574H347.973Z" fill="#ECECEC"/>
<path d="M481.672 385.167C501.603 380.073 516.926 368.793 525.78 349.307C531.076 337.582 531.804 325.13 530.348 312.435C528.287 294.525 520.12 280.375 505.606 270.268C490.809 259.959 473.91 256.401 456.485 255.754C446.094 255.39 435.623 256.239 425.193 256.684C421.837 256.845 418.481 257.452 415.166 257.856V455.392H430.004C430.004 447.792 430.004 440.434 430.004 433.035C430.004 381.731 429.963 330.386 429.923 279.081C429.923 276.373 430.004 273.664 429.923 270.955C429.882 269.5 430.368 268.934 431.823 268.853C434.532 268.732 437.2 268.408 439.909 268.206C453.17 267.034 466.349 267.438 479.206 271.4C514.056 282.114 522.829 316.357 513.045 342.717C507.466 357.675 495.903 366.61 481.268 371.34C470.594 374.817 459.598 375.666 448.439 375.06C444.801 374.858 441.122 374.656 436.957 374.413C465.217 403.118 493.033 431.377 520.929 459.759C524.931 456.322 528.731 453.047 532.653 449.651C511.306 428.83 490.202 408.252 468.937 387.512C473.424 386.663 477.589 386.097 481.632 385.086L481.672 385.167Z" fill="#ECECEC"/>
<path d="M685.96 455.635C686.445 455.513 687.092 455.19 687.213 454.826C688.709 450.702 690.124 446.538 691.66 442.091C655.234 442.495 619.171 442.859 582.987 443.223V380.275C583.917 380.275 584.725 380.275 585.534 380.275C597.784 380.356 609.993 380.437 622.243 380.518C641.124 380.639 660.004 380.72 678.884 380.76C679.734 380.76 681.068 380.437 681.31 379.871C682.887 376.03 684.221 372.068 685.677 368.146H582.866V271.359C583.553 271.359 584.119 271.278 584.685 271.278C600.291 271.4 615.896 271.521 631.461 271.642C647.552 271.764 663.643 271.885 679.734 272.006C680.461 272.006 681.634 271.764 681.795 271.319C683.291 267.195 684.585 262.991 686 258.705H568.069V455.635H684.019C684.666 455.635 685.353 455.716 686 455.594L685.96 455.635Z" fill="#ECECEC"/>
<path d="M892.592 258.705H877.836V455.473H892.592V362.527C927.887 395.234 962.737 427.496 997.667 459.88C1001.27 455.999 1004.9 452.117 1008.38 448.358C973.814 417.631 939.45 387.067 904.802 356.26L997.223 264.163L986.549 253.49L893.158 347.528L892.592 258.665V258.705Z" fill="#ECECEC"/>
<path d="M779.957 250.255C779.553 249.245 778.502 248.517 777.774 247.627C776.965 248.517 776.157 249.406 775.348 250.296C775.308 250.336 775.267 250.457 775.227 250.498C751.091 314.942 726.955 379.386 702.819 443.87C701.404 447.67 699.989 451.511 698.493 455.635C703.344 455.635 707.832 455.513 712.319 455.675C714.22 455.756 714.947 455.069 715.594 453.33C724.044 430.205 732.574 407.079 741.024 383.954C741.671 382.175 742.479 381.69 744.339 381.69C766.333 381.771 788.326 381.73 810.319 381.73H812.785C816.828 392.97 820.831 404.047 824.833 415.125C829.442 427.981 834.051 440.838 838.741 453.694C839.024 454.462 840.035 455.513 840.722 455.554C845.573 455.715 850.384 455.635 855.559 455.635C855.155 454.462 854.953 453.694 854.67 452.926C831.706 390.584 808.702 328.243 785.738 265.901C783.798 260.686 781.938 255.43 779.917 250.255H779.957ZM746.927 367.823C757.196 338.876 767.424 310.09 777.491 281.79C787.396 309.969 797.463 338.754 807.691 367.823H746.927Z" fill="#ECECEC"/>
<path d="M1222.86 265.942C1220.84 260.484 1218.85 255.026 1216.75 249.609C1216.43 248.8 1215.42 247.87 1214.61 247.789C1214.04 247.709 1213.28 248.922 1212.71 249.609C1212.47 249.892 1212.39 250.377 1212.26 250.741C1188.65 313.81 1165.04 376.879 1141.39 439.949C1139.49 445.043 1137.59 450.177 1135.57 455.635C1140.42 455.635 1144.91 455.554 1149.4 455.675C1151.26 455.716 1152.07 455.15 1152.71 453.371C1161.16 430.246 1169.69 407.12 1178.14 383.995C1178.79 382.256 1179.56 381.69 1181.42 381.69C1203.49 381.771 1225.57 381.731 1247.64 381.731H1249.9C1253.78 392.485 1257.63 403.077 1261.43 413.71C1266.24 427.011 1271.01 440.353 1275.82 453.654C1276.1 454.382 1276.79 455.514 1277.31 455.514C1282.37 455.675 1287.38 455.595 1292.72 455.595C1292.31 454.382 1292.03 453.533 1291.71 452.724C1268.74 390.463 1245.82 328.162 1222.86 265.902V265.942ZM1184 367.823C1194.27 338.876 1204.5 310.091 1214.57 281.79C1224.47 310.01 1234.58 338.836 1244.77 367.823H1184Z" fill="#ECECEC"/>
<path d="M1398.08 359.212C1385.91 354.401 1373.45 350.317 1361.16 345.83C1352.71 342.757 1344.1 340.008 1335.98 336.248C1327.97 332.488 1321.75 326.343 1319.44 317.408C1314.99 300.064 1321.71 281.79 1339.21 273.017C1358.17 263.516 1376.85 265.295 1394.6 276.454C1399.94 279.809 1404.67 284.216 1409.84 288.259C1412.67 284.903 1415.74 281.305 1418.82 277.626C1418.57 277.343 1418.41 277.06 1418.17 276.858C1416.47 275.443 1414.77 273.987 1412.99 272.653C1395.08 259.19 1375.35 251.832 1352.59 255.228C1325.51 259.271 1307.11 279.769 1304.81 302.166C1303.39 316.034 1306.1 328.809 1316.17 339.24C1322.27 345.547 1329.55 350.156 1337.68 353.188C1348.02 357.069 1358.54 360.506 1368.97 364.063C1379.11 367.5 1389.46 370.572 1398.56 376.435C1412.95 385.733 1417.24 397.943 1414.13 414.155C1411.58 427.456 1403.05 436.512 1390.76 441.323C1366.91 450.622 1344.1 448.196 1323.32 432.671C1317.95 428.669 1313.18 423.898 1308.32 419.653C1305.13 422.847 1301.77 426.203 1298.34 429.639C1305.13 435.825 1312.61 441.404 1320.45 446.498C1342.2 460.729 1365.53 463.478 1390.07 455.595C1411.26 448.802 1429.17 429.801 1429.57 405.422C1429.77 392.404 1426.17 381.084 1416.67 371.785C1411.22 366.449 1405.03 361.961 1398.04 359.212H1398.08Z" fill="#ECECEC"/>
<path d="M1139.01 377.809C1140.79 373.847 1142.4 369.804 1144.18 365.438H1038.78V270.753C1039.59 270.753 1040.24 270.672 1040.89 270.672C1067.65 270.955 1094.41 271.238 1121.18 271.561C1127.4 271.642 1133.67 271.804 1139.9 271.844C1140.62 271.844 1141.8 271.44 1142.04 270.915C1143.78 266.953 1145.31 262.95 1147.05 258.705H1023.22V455.554H1039.39C1038.95 429.598 1038.5 403.805 1038.06 377.849C1039.27 377.809 1039.92 377.728 1040.56 377.728C1056.41 377.849 1072.26 377.971 1088.11 378.092C1104.36 378.213 1120.61 378.334 1136.86 378.456C1137.59 378.456 1138.8 378.294 1139.01 377.809Z" fill="#ECECEC"/>
<path d="M1558.05 258.705H1428.76C1428.28 258.705 1427.75 258.625 1427.31 258.705C1426.9 258.827 1426.25 259.029 1426.17 259.352C1425.04 263.314 1423.99 267.317 1422.86 271.521H1481.4C1480.75 333.054 1482.21 394.264 1480.43 455.473H1496.36V271.562H1510.79C1524.98 271.562 1539.21 271.562 1553.4 271.562C1554.21 271.562 1555.51 271.36 1555.71 270.874C1557.41 266.953 1558.86 262.95 1560.52 258.705H1558.09H1558.05Z" fill="#ECECEC"/>
<path d="M1201.63 617.108C1195.61 614.035 1189.02 612.054 1182.87 609.669C1183.36 609.467 1184.25 609.103 1185.18 608.78C1192.78 606.031 1199.57 601.947 1204.95 595.842C1219.82 578.943 1220.43 547.287 1196.29 530.59C1183.56 521.777 1169.09 518.623 1154.01 517.491C1140.3 516.48 1126.72 517.814 1113.17 519.876C1111.27 520.159 1110.67 520.847 1110.67 522.828C1110.79 532.935 1110.71 543.002 1110.71 553.109C1110.71 606.111 1110.71 659.073 1110.67 712.076C1110.67 714.219 1110.99 715.189 1113.5 715.351C1121.22 715.836 1128.86 716.846 1136.58 717.332C1152.27 718.302 1167.95 718.261 1183.52 715.27C1203.69 711.348 1228.56 694.449 1228.84 662.955C1229.04 642.053 1220.35 626.568 1201.67 617.108H1201.63ZM1125.18 532.45C1128.09 532.086 1130.96 531.722 1133.87 531.399C1147.7 529.943 1161.49 529.539 1174.91 534.107C1186.39 538.029 1195.65 544.74 1199.25 556.828C1205.67 578.539 1194.19 598.066 1171.47 602.958C1160.6 605.303 1149.52 605.424 1138.44 605.424H1125.22V532.45H1125.18ZM1182.43 702.575C1171.07 706.173 1159.34 707.305 1147.5 706.173C1140.18 705.486 1132.86 704.394 1125.3 703.464V618.402C1126.11 618.402 1126.88 618.281 1127.69 618.281C1139.09 618.361 1150.49 618.281 1161.85 618.644C1173.25 619.049 1184.65 620.302 1194.68 626.407C1208.38 634.695 1214.85 647.147 1214.65 663.035C1214.41 683.007 1201.67 696.43 1182.43 702.535V702.575Z" fill="#ECECEC"/>
<path d="M848.08 192.806V121.206H952.953C952.589 145.221 952.265 168.993 951.902 193.008H967.143V0.202196H952.225V107.056H847.878V0.121338H832.636C833.323 64.5247 833.687 128.645 832.232 192.766H848.039L848.08 192.806Z" fill="#ECECEC"/>
<path d="M1123.81 192.968C1126.58 192.968 1128.43 191.66 1129.34 189.046C1130.4 186.014 1131.45 182.941 1132.58 179.707C1096.88 180.071 1061.63 180.475 1026.29 180.839V119.225C1027.18 119.225 1027.91 119.225 1028.64 119.225C1040.93 119.306 1053.22 119.427 1065.51 119.468C1083.74 119.589 1101.97 119.67 1120.25 119.71C1121.02 119.71 1122.23 119.427 1122.43 118.942C1123.97 115.142 1125.3 111.22 1126.72 107.379H1026.13V12.7352C1039.27 12.7352 1052.21 12.6543 1065.14 12.7352C1083.62 12.8565 1102.1 13.0586 1120.57 13.1799C1121.38 13.1799 1122.75 12.8565 1122.96 12.3309C1124.41 8.36885 1125.67 4.32595 1127.04 0.121338H1011.57V192.927H1123.81V192.968Z" fill="#ECECEC"/>
<path d="M1051.48 522.545C1051.8 533.703 1052.33 544.821 1052.37 555.979C1052.53 582.986 1052.45 610.033 1052.45 637.04C1052.45 646.177 1051.36 655.233 1048.97 664.046C1043.47 684.624 1030.98 698.734 1010.24 704.718C997.708 708.356 984.851 708.558 972.035 706.375C954.772 703.424 941.188 694.732 932.253 679.369C924.41 665.906 921.661 651.028 921.661 635.786C921.58 598.106 922.106 560.427 922.389 522.747C922.389 521.857 922.389 521.008 922.389 519.998H906.379C906.379 520.887 906.379 521.615 906.379 522.342C906.662 557.435 906.945 592.487 907.187 627.579C907.268 642.295 908.481 656.85 912.807 670.959C920.084 694.813 935.69 710.216 959.947 716.361C975.957 720.404 992.209 720.323 1008.38 717.655C1035.43 713.167 1053.5 698.047 1061.55 671.566C1065.87 657.335 1066.96 642.659 1066.92 627.903C1066.8 593.538 1065.99 559.214 1067.57 524.849C1067.65 523.272 1067.57 521.655 1067.57 519.998H1051.44C1051.44 520.927 1051.44 521.736 1051.44 522.504L1051.48 522.545Z" fill="#ECECEC"/>
<path d="M746.159 695.338C725.944 707.71 703.91 709.367 681.472 703.667C638.375 692.67 610.721 652.282 616.098 608.093C619.697 578.296 634.817 555.494 660.732 540.172C676.257 530.995 693.237 527.76 711.147 529.296C722.912 530.348 733.828 534.188 744.016 539.97C750.929 543.891 749.433 543.042 756.387 547.247L763.866 535.32C757.438 531.358 759.338 532.207 752.708 528.609C729.461 515.955 704.678 512.761 679.006 518.704C626.65 530.833 592.447 582.622 601.948 635.665C607.851 668.574 626.408 692.711 655.881 708.357C674.842 718.423 695.097 721.496 716.362 719.353C732.21 717.776 746.846 712.965 759.864 703.667C764.635 700.23 768.111 697.36 772.923 693.6C769.163 689.557 765.847 685.959 762.896 682.765C756.791 687.455 752.385 691.498 746.199 695.298L746.159 695.338Z" fill="#ECECEC"/>
<path d="M736.011 192.968H751.616V12.6543H764.554C778.866 12.6543 793.177 12.6543 807.449 12.6543C808.217 12.6543 809.511 12.4522 809.713 11.967C811.371 8.12628 812.826 4.20466 814.403 0.0404772H811.815C769.729 4.82127e-05 727.602 4.82127e-05 685.515 4.82127e-05C685.03 4.82127e-05 684.545 -0.0808098 684.06 4.82127e-05C683.655 0.0809062 683.008 0.32348 682.928 0.646912C681.836 4.5281 680.785 8.44971 679.653 12.6543H736.941C736.334 72.8531 737.749 132.809 735.97 192.887L736.011 192.968Z" fill="#ECECEC"/>
<path d="M905.206 701.16C879.736 701.605 854.266 702.009 828.795 702.373C821.639 702.454 814.483 702.373 806.923 702.373V520.038H792.045V715.189H911.877C910.543 711.105 909.168 707.143 907.955 703.101C907.511 701.645 906.823 701.079 905.206 701.12V701.16Z" fill="#ECECEC"/>
</g>
<defs>
<clipPath id="clip0_963_22209">
<rect width="1294.82" height="720" fill="white" transform="translate(265.619)"/>
</clipPath>
</defs>
</svg>
