<svg width="1825" height="720" viewBox="0 0 1825 720" fill="none" xmlns="http://www.w3.org/2000/svg">
<g clip-path="url(#clip0_963_22296)">
<path d="M184.476 385.659C184.964 386.636 185.452 387.478 185.94 388.233C186.428 388.987 186.695 389.919 186.695 391.161C186.695 393.867 184.077 396.396 178.842 398.836C173.606 401.276 167.573 403.45 160.74 405.403C153.908 407.355 147.075 408.863 140.243 409.972C133.41 411.081 128.397 411.614 125.247 411.614C117.926 411.614 110.251 410.771 102.176 409.041C94.1015 407.355 86.7367 404.515 80.0373 400.611C73.338 396.707 67.8365 391.516 63.5773 385.038C59.3181 378.561 57.1885 370.708 57.1885 361.435C57.1885 352.163 59.3181 344.31 63.5773 337.832C67.8365 331.355 73.338 326.164 80.0373 322.26C86.7367 318.355 94.1459 315.56 102.176 313.83C110.207 312.144 117.926 311.257 125.247 311.257C133.055 311.257 140.509 311.789 147.563 312.898C154.618 314.007 160.918 315.338 166.419 316.936C171.92 318.533 176.313 320.307 179.596 322.26C182.879 324.212 184.521 326.164 184.521 328.116C184.521 329.358 184.476 330.379 184.343 331.222C184.21 332.065 184.033 332.863 183.811 333.617L187.493 336.191L220.413 275.808L216.376 274.699C214.912 276.651 213.093 277.627 210.874 277.627C208.922 277.627 205.994 276.961 202.09 275.63C198.186 274.299 192.684 272.658 185.63 270.706C178.309 268.753 169.347 266.979 158.744 265.382C148.14 263.784 135.496 262.986 120.855 262.986C106.214 262.986 91.7057 265.071 77.2866 269.197C62.8674 273.368 49.9568 279.49 38.4658 287.698C26.9749 295.861 17.7466 306.11 10.648 318.444C3.54932 330.778 0.0443649 345.108 0.0443649 361.435C0.0443649 377.762 3.59369 392.137 10.648 404.426C17.7023 416.76 26.9749 427.009 38.4658 435.173C49.9124 443.336 62.8674 449.325 77.2866 453.097C91.7057 456.868 106.214 458.776 120.855 458.776C134.519 458.776 146.853 457.844 157.812 456.025C168.77 454.206 178.354 452.121 186.561 449.814C194.725 447.506 201.38 445.288 206.526 443.203C211.629 441.118 215.045 440.097 216.775 440.097C217.973 440.097 219.038 440.275 219.881 440.63C220.724 440.985 221.389 441.783 221.877 443.025L226.27 440.452L188.558 382.997L184.521 385.571L184.476 385.659Z" fill="#ECECEC"/>
<path d="M483.862 442.404C479.958 433.132 475.61 422.617 470.863 410.948C466.115 399.236 461.146 387.212 456.044 374.878C450.898 362.544 445.973 350.477 441.226 338.631C436.478 326.785 432.264 316.181 428.581 306.776C424.899 297.37 421.926 289.739 419.619 283.882C417.312 278.026 416.159 274.876 416.159 274.388C416.159 272.436 416.78 271.238 417.978 270.706C419.175 270.218 420.773 269.863 422.725 269.596V265.204H327.204V269.596C328.889 269.863 330.575 270.218 332.128 270.706C333.725 271.194 334.524 272.037 334.524 273.279C334.524 273.545 333.592 276.074 331.773 280.954C329.954 285.835 327.558 292.179 324.63 299.987C321.702 307.796 318.33 316.625 314.559 326.519C310.788 336.412 306.928 346.528 303.024 356.91C299.119 367.292 295.215 377.452 291.311 387.478C287.407 397.505 283.857 406.556 280.707 414.764C277.513 422.927 274.984 429.715 273.032 435.084C271.08 440.452 269.838 443.735 269.35 444.977C268.107 447.906 266.909 449.902 265.667 451.011C264.425 452.12 262.517 452.919 259.811 453.407V457.799H324.586V453.407C321.88 453.407 320.149 453.097 319.262 452.475C318.419 451.854 317.975 450.967 317.975 449.725C317.975 449.237 318.153 448.438 318.508 447.329C318.863 446.22 319.484 444.445 320.327 442.005C321.17 439.565 322.323 436.282 323.787 432.111C325.251 427.985 327.204 422.617 329.644 416.006H416.38C416.602 417.248 417.401 419.555 418.776 422.972C420.107 426.388 421.527 429.982 422.991 433.753C424.455 437.524 425.786 440.94 427.028 444.001C428.226 447.063 428.847 448.704 428.847 448.926C428.847 451.632 426.54 453.097 421.882 453.318V457.711H493.977V453.318C491.759 453.318 490.029 452.564 488.654 451.1C487.323 449.636 485.681 446.708 483.729 442.315L483.862 442.404ZM338.916 386.769L371.481 299.677L406.975 386.769H338.872H338.916Z" fill="#ECECEC"/>
<path d="M744.471 446.797L701.258 386.014C716.387 381.888 728.899 375.056 738.792 365.517C748.686 356.023 753.611 342.801 753.611 325.986C753.611 305.267 747.488 289.916 735.332 280.067C723.131 270.173 703.476 265.249 676.413 265.249H542.426V269.641C547.04 270.129 549.924 270.927 551.033 272.037C552.142 273.146 552.674 274.566 552.674 276.251V446.841C552.674 448.527 552.142 449.947 551.033 451.056C549.924 452.165 547.084 452.964 542.426 453.452V457.844H617.849V453.452C613.19 452.964 610.351 452.165 609.242 451.056C608.133 449.947 607.6 448.571 607.6 446.841V385.349H643.448C644.203 386.591 645.756 388.898 648.196 392.314C650.636 395.731 653.52 399.635 656.803 404.027C660.086 408.419 663.502 412.989 667.052 417.736C670.601 422.484 673.84 426.965 676.768 431.091C679.696 435.261 682.136 438.766 684.088 441.694C686.04 444.623 687.016 446.309 687.016 446.841C687.016 451.011 684.31 453.185 678.986 453.407V457.799H755.119V453.407C750.949 453.407 747.444 451.189 744.516 446.841L744.471 446.797ZM691.231 340.45C687.194 344.487 679.829 346.484 669.092 346.484H607.6V306.199H669.092C679.829 306.199 687.194 308.195 691.231 312.233C695.269 316.27 697.265 320.973 697.265 326.341C697.265 331.71 695.269 336.413 691.231 340.45Z" fill="#ECECEC"/>
<path d="M965.905 269.641C971.007 269.907 973.58 272.081 973.58 276.251V373.991C969.188 369.377 963.953 363.787 957.83 357.354C951.707 350.876 945.407 344.044 938.797 336.856C932.231 329.669 925.664 322.481 919.231 315.25C912.754 308.062 906.986 301.54 901.839 295.684C896.693 289.828 892.567 284.947 889.372 281.043C886.222 277.139 884.625 274.965 884.625 274.477C884.625 273.235 885.291 272.214 886.622 271.371C887.953 270.528 890.703 269.951 894.874 269.73V265.337H806.673V269.73C811.287 270.218 814.171 271.016 815.28 272.125C816.389 273.235 816.922 274.654 816.922 276.34V446.93C816.922 448.616 816.389 450.035 815.28 451.144C814.171 452.254 811.332 453.052 806.673 453.54V457.933H876.196V453.54C871.581 453.052 868.698 452.254 867.588 451.144C866.479 450.035 865.947 448.66 865.947 446.93V331.976C882.052 350.033 895.85 365.34 907.297 377.895C918.743 390.451 928.415 400.966 936.224 409.351C944.032 417.781 950.332 424.48 955.079 429.494C959.827 434.507 963.42 438.323 965.86 441.029C968.301 443.735 969.898 445.599 970.608 446.708C971.362 447.817 971.717 448.704 971.717 449.459C971.717 450.701 971.184 451.677 970.075 452.387C968.966 453.141 966.703 453.496 963.287 453.496V457.888H1032.85V453.496C1028.2 453.008 1025.36 452.209 1024.25 451.1C1023.14 449.991 1022.61 448.616 1022.61 446.885V276.251C1022.61 274.566 1023.14 273.146 1024.25 272.037C1025.36 270.927 1028.2 270.173 1032.85 269.641V265.249H965.86V269.641H965.905Z" fill="#ECECEC"/>
<path d="M1304.51 442.404C1300.61 433.132 1296.26 422.617 1291.51 410.948C1286.76 399.236 1281.79 387.212 1276.69 374.878C1271.55 362.544 1266.62 350.477 1261.87 338.631C1257.13 326.785 1252.91 316.181 1249.23 306.776C1245.55 297.37 1242.57 289.739 1240.27 283.882C1237.96 278.026 1236.81 274.876 1236.81 274.388C1236.81 272.436 1237.43 271.238 1238.63 270.706C1239.82 270.218 1241.42 269.863 1243.37 269.596V265.204H1147.85V269.596C1149.54 269.863 1151.22 270.218 1152.78 270.706C1154.37 271.194 1155.17 272.037 1155.17 273.279C1155.17 273.545 1154.24 276.074 1152.42 280.954C1150.6 285.835 1148.21 292.179 1145.28 299.987C1142.35 307.796 1138.98 316.625 1135.21 326.519C1131.44 336.412 1127.58 346.528 1123.67 356.91C1119.77 367.292 1115.86 377.452 1111.96 387.478C1108.06 397.505 1104.51 406.556 1101.36 414.764C1098.16 422.927 1095.63 429.715 1093.68 435.084C1091.73 440.452 1090.49 443.735 1090 444.977C1088.76 447.906 1087.56 449.902 1086.32 451.011C1085.07 452.12 1083.17 452.919 1080.46 453.407V457.799H1145.23V453.407C1142.53 453.407 1140.8 453.097 1139.91 452.475C1139.07 451.854 1138.62 450.967 1138.62 449.725C1138.62 449.237 1138.8 448.438 1139.16 447.329C1139.51 446.22 1140.13 444.445 1140.98 442.005C1141.82 439.565 1142.97 436.282 1144.44 432.111C1145.9 427.985 1147.85 422.617 1150.29 416.006H1237.03C1237.25 417.248 1238.05 419.555 1239.42 422.972C1240.76 426.388 1242.18 429.982 1243.64 433.753C1245.1 437.524 1246.43 440.94 1247.68 444.001C1248.87 447.063 1249.5 448.704 1249.5 448.926C1249.5 451.632 1247.19 453.097 1242.53 453.318V457.711H1314.63V453.318C1312.41 453.318 1310.68 452.564 1309.3 451.1C1307.97 449.636 1306.33 446.708 1304.38 442.315L1304.51 442.404ZM1159.56 386.769L1192.13 299.677L1227.62 386.769H1159.52H1159.56Z" fill="#ECECEC"/>
<path d="M1580.12 426.3C1579.63 425.102 1579.36 423.638 1579.36 421.907V361.125C1579.36 357.221 1581.31 355.136 1585.22 354.914V350.521H1477.23C1474.04 350.521 1472.22 348.303 1471.73 343.955H1467.34V395.199H1471.73C1471.95 392.98 1472.48 391.25 1473.19 389.875C1473.95 388.544 1475.28 387.878 1477.23 387.878H1524.44V412.058C1516.85 414.276 1509 415.962 1500.83 417.204C1492.67 418.447 1483.44 419.023 1473.19 419.023C1465.16 419.023 1456.95 417.914 1448.66 415.74C1440.36 413.522 1432.86 410.15 1426.16 405.492C1419.46 400.878 1413.92 394.932 1409.53 387.745C1405.13 380.558 1402.92 372.084 1402.92 362.323C1402.92 352.562 1404.73 343.733 1408.42 336.502C1412.1 329.314 1417.02 323.28 1423.24 318.4C1429.45 313.52 1436.55 309.926 1444.49 307.619C1452.43 305.312 1460.77 304.158 1469.55 304.158C1477.1 304.158 1484.86 304.779 1492.8 305.977C1500.74 307.22 1507.89 308.684 1514.23 310.37C1520.58 312.056 1525.81 313.963 1529.98 316.049C1534.11 318.134 1536.19 319.997 1536.19 321.728C1536.19 322.97 1535.93 324.301 1535.44 325.765L1539.83 328.338L1563.61 280.023L1559.22 278.559C1557.76 280.511 1556.07 281.487 1554.07 281.487C1552.61 281.487 1549.33 280.334 1544.18 278.026C1539.08 275.719 1533.44 273.679 1527.36 271.993C1521.02 270.307 1515.52 268.887 1510.9 267.778C1506.25 266.669 1501.76 265.781 1497.37 265.027C1492.98 264.273 1488.45 263.829 1483.84 263.563C1479.23 263.341 1473.81 263.208 1467.74 263.208C1452.38 263.208 1437.52 265.205 1423.28 269.242C1408.99 273.279 1396.39 279.357 1385.39 287.521C1374.43 295.684 1365.56 305.933 1358.86 318.267C1352.16 330.601 1348.79 345.064 1348.79 361.657C1348.79 378.251 1352.16 392.714 1358.86 405.048C1365.56 417.382 1374.43 427.542 1385.39 435.617C1396.39 443.647 1408.99 449.592 1423.28 453.363C1437.57 457.134 1452.38 459.042 1467.74 459.042C1513.12 459.042 1552.39 450.258 1585.62 432.688V428.296H1583.8C1581.85 428.296 1580.65 427.675 1580.16 426.477L1580.12 426.3Z" fill="#ECECEC"/>
<path d="M1813.62 308.417C1815.57 308.417 1817.03 309.083 1818.01 310.414C1818.99 311.745 1819.7 314.496 1820.23 318.666H1824.62V255H1820.23C1819.74 259.17 1818.99 261.877 1818.01 263.252C1817.03 264.583 1815.57 265.249 1813.62 265.249H1630.96V269.641C1635.57 270.129 1638.46 270.928 1639.57 272.037C1640.68 273.146 1641.21 274.566 1641.21 276.252V446.841C1641.21 448.527 1640.68 449.947 1639.57 451.056C1638.46 452.165 1635.62 452.964 1630.96 453.452V457.844H1813.62C1815.57 457.844 1817.03 458.199 1818.01 458.953C1818.99 459.707 1819.7 461.66 1820.23 464.81H1824.62V402.208H1820.23C1819.74 406.867 1818.99 409.839 1818.01 411.17C1817.03 412.501 1815.57 413.167 1813.62 413.167H1696.13V379.138H1764.24C1767.88 379.138 1770.54 379.936 1772.09 381.533C1773.69 383.131 1774.71 385.127 1775.2 387.567H1779.59V330.468H1775.2C1774.71 332.908 1773.69 334.904 1772.09 336.501C1770.49 338.099 1767.88 338.897 1764.24 338.897H1696.13V308.506H1813.62V308.417Z" fill="#ECECEC"/>
</g>
<defs>
<clipPath id="clip0_963_22296">
<rect width="1824.62" height="209.721" fill="white" transform="translate(0 255)"/>
</clipPath>
</defs>
</svg>
