<svg width="361" height="163" viewBox="0 0 361 163" fill="none" xmlns="http://www.w3.org/2000/svg">
<g clip-path="url(#clip0_216_857)">
<path d="M94.3989 27.8739L102.817 30.5428C101.526 35.221 99.3807 38.7146 96.3796 40.9787C93.3785 43.2428 89.5821 44.3973 84.9605 44.3973C79.2584 44.3973 74.5617 42.4481 70.8854 38.5496C67.2091 34.6512 65.3784 29.3283 65.3784 22.581C65.3784 15.4288 67.2241 9.88106 70.9154 5.93763C74.6067 1.9942 79.4685 0 85.4857 0C90.7376 0 95.0141 1.55938 98.3003 4.66314C100.251 6.49241 101.722 9.13136 102.697 12.565L94.1138 14.6192C93.6036 12.4001 92.5532 10.6308 90.9326 9.34128C89.312 8.05179 87.3613 7.40705 85.0505 7.40705C81.8694 7.40705 79.2884 8.54659 77.2927 10.8407C75.297 13.1348 74.3216 16.8233 74.3216 21.9363C74.3216 27.3641 75.297 31.2325 77.2477 33.5266C79.1984 35.8207 81.7493 36.9753 84.8704 36.9753C87.1813 36.9753 89.162 36.2405 90.8126 34.7861C92.4632 33.3317 93.6636 31.0226 94.3839 27.8739H94.3989Z" fill="#ECECEC"/>
<path d="M106.103 22.461C106.103 18.0828 106.763 14.4242 108.069 11.4554C109.044 9.2663 110.38 7.30209 112.075 5.56278C113.771 3.82348 115.616 2.53399 117.627 1.69432C120.298 0.569773 123.389 0 126.886 0C133.218 0 138.275 1.96422 142.086 5.89265C145.897 9.82108 147.788 15.2789 147.788 22.2661C147.788 29.2533 145.897 34.6212 142.131 38.5346C138.365 42.4481 133.323 44.4123 127.006 44.4123C120.688 44.4123 115.541 42.4631 111.76 38.5646C107.979 34.6662 106.103 29.3133 106.103 22.476V22.461ZM115.031 22.1762C115.031 27.0342 116.157 30.7227 118.407 33.2267C120.658 35.7308 123.509 36.9902 126.961 36.9902C130.412 36.9902 133.263 35.7457 135.469 33.2567C137.674 30.7677 138.8 27.0342 138.8 22.0562C138.8 17.0782 137.719 13.4646 135.559 11.0506C133.398 8.63656 130.532 7.42204 126.961 7.42204C123.389 7.42204 120.508 8.65155 118.317 11.0956C116.127 13.5396 115.031 17.2431 115.031 22.1762Z" fill="#ECECEC"/>
<path d="M152.2 43.6623V0.734375H181.655V7.99148H160.873V18.1574H178.804V25.4145H160.873V43.6623H152.2Z" fill="#ECECEC"/>
<path d="M186.457 43.6623V0.734375H215.913V7.99148H195.13V18.1574H213.062V25.4145H195.13V43.6623H186.457Z" fill="#ECECEC"/>
<path d="M222.245 43.6623V0.734375H253.321V7.99148H230.918V17.5127H251.716V24.7398H230.918V36.4201H254.147V43.6473H222.245V43.6623Z" fill="#ECECEC"/>
<path d="M260.224 43.6623V0.734375H291.3V7.99148H268.897V17.5127H289.694V24.7398H268.897V36.4201H292.125V43.6473H260.224V43.6623Z" fill="#ECECEC"/>
<path d="M28.2852 146.866L36.4931 149.46C35.2327 154.033 33.1469 157.422 30.2209 159.641C27.2948 161.86 23.5885 162.97 19.0869 162.97C13.5199 162.97 8.95823 161.065 5.37193 157.272C1.78564 153.479 0 148.276 0 141.693C0 134.721 1.80065 129.323 5.40195 125.455C9.00324 121.601 13.7299 119.667 19.5971 119.667C24.7289 119.667 28.8854 121.181 32.0816 124.21C33.9872 125.994 35.4128 128.573 36.3731 131.917L28.0001 133.911C27.5049 131.737 26.4695 130.028 24.894 128.768C23.3184 127.509 21.4127 126.879 19.1619 126.879C16.0558 126.879 13.5349 127.989 11.5992 130.223C9.66348 132.457 8.70313 136.055 8.70313 141.048C8.70313 146.341 9.64847 150.105 11.5542 152.354C13.4598 154.603 15.9357 155.728 18.9818 155.728C21.2326 155.728 23.1683 155.008 24.7889 153.583C26.4095 152.159 27.5649 149.91 28.2702 146.851L28.2852 146.866Z" fill="#ECECEC"/>
<path d="M42.3154 162.25V120.387H50.7785V162.25H42.3154Z" fill="#ECECEC"/>
<path d="M77.158 146.866V139.819H95.3896V156.492C93.6189 158.202 91.053 159.716 87.6918 161.021C84.3306 162.325 80.9244 162.97 77.4731 162.97C73.0915 162.97 69.2652 162.055 66.009 160.211C62.7528 158.367 60.3069 155.743 58.6713 152.324C57.0357 148.905 56.2104 145.187 56.2104 141.168C56.2104 136.805 57.1258 132.937 58.9564 129.548C60.7871 126.159 63.4581 123.565 66.9843 121.751C69.6703 120.357 73.0165 119.667 77.0079 119.667C82.2148 119.667 86.2663 120.762 89.1923 122.936C92.1184 125.11 93.9941 128.124 94.8344 131.977L86.4313 133.551C85.8461 131.497 84.7357 129.878 83.1001 128.678C81.4796 127.494 79.4388 126.894 76.9929 126.894C73.3016 126.894 70.3605 128.064 68.1698 130.403C65.994 132.742 64.8986 136.22 64.8986 140.824C64.8986 145.787 66.009 149.52 68.2148 152.009C70.4206 154.498 73.3166 155.743 76.9029 155.743C78.6735 155.743 80.4592 155.398 82.2298 154.693C84.0155 154.003 85.546 153.164 86.8215 152.159V146.851H77.128L77.158 146.866Z" fill="#ECECEC"/>
<path d="M139.791 162.25H130.593L126.931 152.744H110.185L106.734 162.25H97.7607L114.072 120.387H123.015L139.791 162.25ZM124.215 145.697L118.438 130.163L112.781 145.697H124.215Z" fill="#ECECEC"/>
<path d="M143.136 162.25V120.387H160.933C165.404 120.387 168.66 120.762 170.686 121.511C172.712 122.261 174.332 123.595 175.563 125.53C176.778 127.449 177.393 129.653 177.393 132.127C177.393 135.261 176.463 137.855 174.617 139.909C172.772 141.963 170.011 143.253 166.334 143.777C168.165 144.842 169.666 146.012 170.866 147.286C172.052 148.56 173.657 150.825 175.683 154.078L180.8 162.25H170.686L164.564 153.149C162.388 149.895 160.902 147.841 160.107 147.001C159.312 146.161 158.457 145.577 157.556 145.262C156.656 144.947 155.245 144.797 153.295 144.797H151.584V162.265H143.121L143.136 162.25ZM151.599 138.095H157.856C161.908 138.095 164.444 137.93 165.449 137.585C166.455 137.24 167.25 136.655 167.82 135.816C168.39 134.976 168.675 133.926 168.675 132.682C168.675 131.272 168.3 130.133 167.55 129.263C166.8 128.394 165.734 127.854 164.369 127.614C163.679 127.524 161.623 127.479 158.202 127.479H151.599V138.095Z" fill="#ECECEC"/>
<path d="M184.191 162.25V120.387H215.252V127.464H192.654V136.745H213.692V143.792H192.654V155.188H216.062V162.235H184.206L184.191 162.25Z" fill="#ECECEC"/>
<path d="M231.488 162.25V127.479H219.064V120.401H252.361V127.479H239.951V162.25H231.488Z" fill="#ECECEC"/>
<path d="M266.061 162.25V127.479H253.637V120.401H286.934V127.479H274.524V162.25H266.061Z" fill="#ECECEC"/>
<path d="M291.21 162.25V120.387H322.271V127.464H299.673V136.745H320.711V143.792H299.673V155.188H323.081V162.235H291.225L291.21 162.25Z" fill="#ECECEC"/>
<path d="M326.938 148.635L335.161 147.84C335.657 150.599 336.662 152.624 338.177 153.928C339.693 155.217 341.734 155.862 344.3 155.862C347.031 155.862 349.071 155.292 350.452 154.138C351.832 152.983 352.523 151.634 352.523 150.105C352.523 149.115 352.238 148.275 351.652 147.571C351.067 146.881 350.062 146.266 348.606 145.756C347.616 145.411 345.35 144.812 341.839 143.927C337.307 142.802 334.126 141.423 332.295 139.789C329.729 137.48 328.439 134.676 328.439 131.362C328.439 129.233 329.039 127.239 330.255 125.379C331.47 123.52 333.211 122.111 335.477 121.136C337.757 120.161 340.503 119.682 343.714 119.682C348.966 119.682 352.928 120.836 355.584 123.13C358.24 125.439 359.635 128.513 359.77 132.352L351.307 132.726C350.947 130.582 350.167 129.023 348.981 128.093C347.796 127.149 346.01 126.684 343.624 126.684C341.239 126.684 339.243 127.194 337.847 128.198C336.947 128.843 336.497 129.713 336.497 130.792C336.497 131.782 336.917 132.636 337.757 133.326C338.823 134.226 341.419 135.155 345.53 136.13C349.642 137.105 352.688 138.109 354.653 139.144C356.619 140.178 358.165 141.603 359.275 143.402C360.385 145.201 360.941 147.421 360.941 150.075C360.941 152.474 360.28 154.723 358.945 156.807C357.61 158.891 355.719 160.45 353.288 161.47C350.857 162.49 347.811 162.999 344.165 162.999C338.868 162.999 334.801 161.77 331.965 159.326C329.129 156.882 327.434 153.313 326.878 148.635H326.938Z" fill="#ECECEC"/>
<path d="M168.51 92.9477H163.079L160.918 87.34H151.044L149.003 92.9477H143.707L153.325 68.2676H158.607L168.495 92.9477H168.51ZM159.327 83.1716L155.921 74.0103L152.59 83.1716H159.327Z" fill="#ECECEC"/>
<path d="M170.521 92.9477V68.2676H175.367L185.481 84.761V68.2676H190.118V92.9477H185.121L175.157 76.8442V92.9477H170.521Z" fill="#ECECEC"/>
<path d="M194.68 68.2529H203.803C205.859 68.2529 207.42 68.4029 208.5 68.7177C209.956 69.1376 211.186 69.9023 212.221 70.9968C213.257 72.0914 214.037 73.4259 214.577 75.0002C215.117 76.5746 215.387 78.5238 215.387 80.8329C215.387 82.8571 215.132 84.6114 214.622 86.0808C214.007 87.8801 213.122 89.3345 211.981 90.4441C211.111 91.2837 209.956 91.9435 208.47 92.4083C207.375 92.7532 205.904 92.9331 204.058 92.9331H194.665V68.2529H194.68ZM199.677 72.4363V88.7947H203.398C204.794 88.7947 205.799 88.7198 206.414 88.5548C207.225 88.3599 207.9 88.0151 208.425 87.5352C208.95 87.0554 209.4 86.2607 209.73 85.1512C210.061 84.0416 210.241 82.5422 210.241 80.623C210.241 78.7038 210.076 77.2493 209.73 76.2297C209.4 75.2102 208.92 74.4155 208.32 73.8457C207.72 73.2759 206.939 72.8861 206.009 72.6762C205.319 72.5262 203.953 72.4363 201.913 72.4363H199.677Z" fill="#ECECEC"/>
</g>
<defs>
<clipPath id="clip0_216_857">
<rect width="361" height="163" fill="white"/>
</clipPath>
</defs>
</svg>
