<svg width="1825" height="720" viewBox="0 0 1825 720" fill="none" xmlns="http://www.w3.org/2000/svg">
<g clip-path="url(#clip0_555_2222)">
<path d="M532.215 123.124L569.399 134.913C563.698 155.577 554.22 171.009 540.964 181.01C527.707 191.011 510.938 196.111 490.524 196.111C465.337 196.111 444.59 187.501 428.351 170.281C412.112 153.06 404.026 129.548 404.026 99.7443C404.026 68.152 412.179 43.6464 428.484 26.2276C444.789 8.80876 466.264 0 492.843 0C516.042 0 534.932 6.88805 549.448 20.5979C558.064 28.6781 564.56 40.3348 568.868 55.5018L530.955 64.5755C528.702 54.7733 524.062 46.958 516.904 41.2621C509.745 35.5662 501.129 32.7182 490.921 32.7182C476.87 32.7182 465.469 37.7518 456.654 47.8852C447.838 58.0186 443.53 74.3115 443.53 96.8963C443.53 120.872 447.838 137.96 456.455 148.093C465.071 158.226 476.339 163.326 490.126 163.326C500.333 163.326 509.082 160.081 516.373 153.657C523.664 147.232 528.967 137.032 532.148 123.124H532.215Z" fill="#ECECEC"/>
<path d="M583.914 99.2144C583.914 79.8749 586.83 63.7145 592.596 50.6007C596.905 40.9309 602.804 32.2546 610.294 24.5718C617.783 16.889 625.936 11.1931 634.818 7.48413C646.616 2.51679 660.27 0 675.713 0C703.684 0 726.021 8.6763 742.857 26.0289C759.692 43.3815 768.044 67.4897 768.044 98.3534C768.044 129.217 759.692 152.928 743.056 170.214C726.419 187.501 704.148 196.177 676.244 196.177C648.339 196.177 625.605 187.567 608.902 170.347C592.199 153.127 583.914 129.482 583.914 99.2806V99.2144ZM623.351 97.956C623.351 119.415 628.322 135.708 638.264 146.768C648.207 157.829 660.8 163.393 676.045 163.393C691.29 163.393 703.883 157.895 713.627 146.901C723.37 135.907 728.341 119.415 728.341 97.4262C728.341 75.4374 723.569 59.4757 714.024 48.8124C704.48 38.1492 691.82 32.7845 676.045 32.7845C660.27 32.7845 647.544 38.2154 637.867 49.0111C628.19 59.8068 623.351 76.1659 623.351 97.956Z" fill="#ECECEC"/>
<path d="M787.531 192.865V3.24512H917.641V35.3011H825.841V80.2058H905.048V112.262H825.841V192.865H787.531Z" fill="#ECECEC"/>
<path d="M938.852 192.865V3.24512H1068.96V35.3011H977.163V80.2058H1056.37V112.262H977.163V192.865H938.852Z" fill="#ECECEC"/>
<path d="M1096.93 192.865V3.24512H1234.2V35.3011H1135.24V77.3579H1227.11V109.281H1135.24V160.876H1237.85V192.799H1096.93V192.865Z" fill="#ECECEC"/>
<path d="M1264.69 192.865V3.24512H1401.96V35.3011H1303V77.3579H1394.87V109.281H1303V160.876H1405.61V192.799H1264.69V192.865Z" fill="#ECECEC"/>
<path d="M240.179 648.735L276.435 660.193C270.868 680.394 261.654 695.362 248.73 705.164C235.805 714.967 219.433 719.868 199.549 719.868C174.958 719.868 154.809 711.456 138.967 694.7C123.126 677.943 115.239 654.961 115.239 625.886C115.239 595.088 123.192 571.245 139.1 554.157C155.007 537.136 175.886 528.592 201.802 528.592C224.471 528.592 242.83 535.281 256.948 548.66C265.366 556.541 271.663 567.933 275.905 582.703L238.92 591.511C236.733 581.908 232.159 574.358 225.2 568.794C218.24 563.231 209.822 560.449 199.88 560.449C186.16 560.449 175.024 565.35 166.474 575.219C157.924 585.087 153.682 600.983 153.682 623.038C153.682 646.417 157.858 663.041 166.275 672.976C174.693 682.911 185.63 687.878 199.085 687.878C209.027 687.878 217.577 684.699 224.736 678.407C231.894 672.115 236.998 662.18 240.113 648.669L240.179 648.735Z" fill="#ECECEC"/>
<path d="M302.153 716.689V531.771H339.536V716.689H302.153Z" fill="#ECECEC"/>
<path d="M456.06 648.735V617.607H536.592V691.256C528.77 698.806 517.436 705.495 502.589 711.258C487.742 717.02 472.696 719.868 457.451 719.868C438.097 719.868 421.195 715.828 406.812 707.681C392.429 699.535 381.625 687.944 374.401 672.843C367.176 657.743 363.531 641.317 363.531 623.567C363.531 604.294 367.574 587.206 375.66 572.238C383.746 557.27 395.545 545.812 411.121 537.798C422.985 531.638 437.766 528.592 455.397 528.592C478.396 528.592 496.292 533.427 509.217 543.03C522.142 552.634 530.427 565.946 534.139 582.968L497.022 589.922C494.437 580.848 489.532 573.695 482.307 568.397C475.149 563.165 466.134 560.515 455.33 560.515C439.025 560.515 426.034 565.681 416.357 576.013C406.746 586.345 401.908 601.711 401.908 622.044C401.908 643.967 406.812 660.458 416.556 671.453C426.299 682.447 439.091 687.944 454.933 687.944C462.754 687.944 470.642 686.421 478.463 683.308C486.35 680.261 493.111 676.552 498.745 672.115V648.669H455.927L456.06 648.735Z" fill="#ECECEC"/>
<path d="M732.719 716.689H692.088L675.915 674.698H601.945L586.701 716.689H547.064L619.112 531.771H658.616L732.719 716.689ZM663.919 643.569L638.4 574.954L613.412 643.569H663.919Z" fill="#ECECEC"/>
<path d="M747.496 716.689V531.771H826.106C845.858 531.771 860.241 533.427 869.189 536.738C878.137 540.05 885.296 545.944 890.731 554.488C896.1 562.966 898.817 572.702 898.817 583.63C898.817 597.472 894.708 608.93 886.555 618.004C878.403 627.078 866.207 632.774 849.968 635.092C858.054 639.794 864.682 644.96 869.985 650.59C875.221 656.22 882.313 666.22 891.261 680.593L913.863 716.689H869.189L842.146 676.486C832.536 662.114 825.974 653.04 822.461 649.331C818.948 645.623 815.17 643.039 811.193 641.649C807.216 640.258 800.986 639.595 792.369 639.595H784.813V716.755H747.43L747.496 716.689ZM784.879 609.99H812.519C830.415 609.99 841.616 609.262 846.057 607.738C850.498 606.215 854.011 603.632 856.53 599.923C859.048 596.214 860.308 591.578 860.308 586.081C860.308 579.855 858.651 574.821 855.337 570.98C852.022 567.138 847.316 564.754 841.285 563.694C838.236 563.297 829.155 563.098 814.043 563.098H784.879V609.99Z" fill="#ECECEC"/>
<path d="M928.843 716.689V531.771H1066.05V563.032H966.226V604.029H1059.15V635.158H966.226V685.494H1069.63V716.622H928.91L928.843 716.689Z" fill="#ECECEC"/>
<path d="M1137.76 716.689V563.099H1082.88V531.837H1229.96V563.099H1175.15V716.689H1137.76Z" fill="#ECECEC"/>
<path d="M1290.48 716.689V563.099H1235.6V531.837H1382.68V563.099H1327.86V716.689H1290.48Z" fill="#ECECEC"/>
<path d="M1401.56 716.689V531.771H1538.77V563.032H1438.95V604.029H1531.87V635.158H1438.95V685.494H1542.35V716.622H1401.63L1401.56 716.689Z" fill="#ECECEC"/>
<path d="M1559.38 656.551L1595.71 653.04C1597.89 665.227 1602.33 674.168 1609.03 679.93C1615.72 685.626 1624.74 688.474 1636.07 688.474C1648.13 688.474 1657.15 685.957 1663.25 680.858C1669.34 675.758 1672.39 669.797 1672.39 663.041C1672.39 658.67 1671.13 654.961 1668.55 651.848C1665.96 648.802 1661.52 646.086 1655.09 643.834C1650.72 642.311 1640.71 639.662 1625.2 635.754C1605.18 630.787 1591.13 624.694 1583.05 617.474C1571.71 607.275 1566.01 594.889 1566.01 580.252C1566.01 570.848 1568.66 562.039 1574.03 553.826C1579.4 545.613 1587.09 539.388 1597.1 535.083C1607.17 530.778 1619.3 528.658 1633.49 528.658C1656.68 528.658 1674.18 533.758 1685.91 543.891C1697.65 554.091 1703.81 567.668 1704.41 584.624L1667.02 586.279C1665.43 576.808 1661.99 569.92 1656.75 565.814C1651.51 561.641 1643.63 559.588 1633.09 559.588C1622.55 559.588 1613.73 561.84 1607.57 566.278C1603.59 569.126 1601.6 572.967 1601.6 577.736C1601.6 582.107 1603.46 585.882 1607.17 588.929C1611.88 592.903 1623.34 597.009 1641.51 601.314C1659.67 605.619 1673.12 610.056 1681.8 614.626C1690.49 619.196 1697.31 625.488 1702.22 633.436C1707.12 641.384 1709.58 651.186 1709.58 662.909C1709.58 673.506 1706.66 683.441 1700.76 692.647C1694.86 701.853 1686.51 708.741 1675.77 713.245C1665.04 717.748 1651.58 720 1635.47 720C1612.08 720 1594.11 714.569 1581.59 703.774C1569.06 692.978 1561.57 677.215 1559.12 656.551H1559.38Z" fill="#ECECEC"/>
<path d="M859.58 410.567H835.586L826.042 385.797H782.428L773.414 410.567H750.017L792.503 301.551H815.834L859.514 410.567H859.58ZM819.016 367.385L803.97 326.917L789.255 367.385H819.016Z" fill="#ECECEC"/>
<path d="M868.459 410.567V301.551H889.868L934.542 374.405V301.551H955.023V410.567H932.951L888.94 339.435V410.567H868.459Z" fill="#ECECEC"/>
<path d="M975.176 301.485H1015.48C1024.56 301.485 1031.45 302.147 1036.22 303.538C1042.65 305.393 1048.09 308.77 1052.66 313.605C1057.23 318.44 1060.68 324.335 1063.07 331.289C1065.45 338.243 1066.64 346.853 1066.64 357.053C1066.64 365.994 1065.52 373.743 1063.26 380.234C1060.55 388.182 1056.64 394.606 1051.6 399.507C1047.75 403.216 1042.65 406.13 1036.09 408.183C1031.25 409.707 1024.75 410.502 1016.6 410.502H975.11V301.485H975.176ZM997.248 319.963V392.222H1013.69C1019.85 392.222 1024.29 391.891 1027.01 391.162C1030.59 390.301 1033.57 388.778 1035.89 386.658C1038.21 384.539 1040.2 381.029 1041.66 376.128C1043.11 371.226 1043.91 364.603 1043.91 356.126C1043.91 347.648 1043.18 341.224 1041.66 336.72C1040.2 332.216 1038.08 328.706 1035.43 326.189C1032.77 323.672 1029.33 321.95 1025.22 321.023C1022.17 320.361 1016.14 319.963 1007.12 319.963H997.248Z" fill="#ECECEC"/>
</g>
<defs>
<clipPath id="clip0_555_2222">
<rect width="1594.6" height="720" fill="white" transform="translate(115.238)"/>
</clipPath>
</defs>
</svg>
