<svg width="1825" height="721" viewBox="0 0 1825 721" fill="none" xmlns="http://www.w3.org/2000/svg">
<path d="M505.59 259.321C507.098 258.288 509.004 258.209 510.83 258.527C518.294 259.876 539.811 258.924 535.841 268.928C531.871 281.553 525.202 294.733 512.18 299.815C463.746 320.697 401.735 280.917 412.295 228.116C429.525 142.206 536.794 168.249 538.223 193.339C538.382 196.356 534.809 197.23 531.474 200.326C531.474 200.326 527.425 205.249 520.993 199.771C511.386 196.118 503.764 188.416 492.092 191.275C491.139 190.878 474.703 195.165 470.495 208.187C470.495 208.187 467.001 215.73 462.634 217.477C458.267 219.382 459.538 234.389 460.332 239.312C462.873 249.872 456.997 260.273 467.001 270.516C474.703 278.377 492.489 292.113 499.952 270.516C501.302 267.022 501.858 261.703 505.59 259.241V259.321Z" fill="#ECECEC"/>
<path d="M702.582 221.764C702.582 221.764 702.502 221.526 702.502 221.367C701.946 217.08 700.358 213.03 697.976 209.299C694.324 203.502 689.639 198.341 684.081 194.292C679.556 190.878 674.871 187.464 674.871 187.464C669.948 182.938 649.701 168.725 643.746 167.058C627.628 162.611 605.872 163.961 590.072 165.39C588.563 165.47 586.578 165.549 584.752 165.47C581.258 165.47 577.844 166.502 574.906 168.328L562.44 176.427C554.024 179.285 546.084 189.528 540.923 197.547C535.603 205.805 531.871 215.095 530.839 224.861C529.331 240.106 533.936 250.19 533.936 250.19C537.191 270.357 567.998 289.334 567.998 289.334C570.539 292.907 586.896 297.592 595.868 299.894C599.6 300.926 603.411 301.323 607.222 301.323H633.107C636.124 301.323 638.744 299.894 641.364 298.465C642.873 297.592 645.572 296.877 647.319 296.718C665.025 295.13 679.238 281.791 689.242 268.849C699.644 255.43 704.805 238.518 702.582 221.764ZM650.416 250.19C650.416 250.19 647.954 257.097 646.525 261.226C645.811 263.132 644.778 264.879 643.349 266.308C639.141 270.754 634.218 274.407 628.739 277.265C623.42 280.123 617.703 282.744 610.795 278.774C595.709 275.598 592.851 280.52 584.99 273.613C577.844 267.34 573.874 258.288 572.842 248.84C571.889 239.788 571.651 227.878 574.906 219.224C577.368 212.713 585.466 202.153 591.183 196.753C593.168 194.927 593.724 193.022 601.426 193.101C604.681 193.101 608.413 190.401 611.986 187.305C614.368 185.32 619.053 185.399 624.293 185.32C652.639 184.764 664.39 221.923 650.416 250.19Z" fill="#ECECEC"/>
<path d="M869.719 547.543C868.766 545.796 869.083 543.573 869.322 541.588L870.116 535.633C870.671 531.504 872.339 527.534 874.8 524.12C877.897 519.991 879.406 514.91 879.247 509.828L878.294 484.499L877.42 443.132L883.217 397.477L886.631 394.618L888.616 382.55V356.903L890.363 350.075L891.077 342.85C890.76 341.182 890.919 339.435 891.474 337.847L897.112 321.65C898.779 317.997 897.112 313.948 896.079 310.137L896.477 304.023C896.079 302.435 896.159 300.688 896.715 299.18L900.367 289.493C902.511 283.935 901.32 277.98 900.844 272.025L903.384 263.688C903.94 261.782 904.099 259.638 903.702 257.653C903.226 255.112 902.67 253.604 903.702 250.11L908.863 232.96L945.466 447.816L956.503 500.379C956.821 501.967 957.297 503.555 957.773 505.143L968.731 539.127C969.445 541.27 970.001 543.494 970.398 545.717L980.005 597.327L995.33 662.514L1012.64 716.824C1013.59 719.841 1017.01 721.191 1019.78 719.682L1022.64 718.094C1026.3 716.109 1030.74 716.03 1034.55 717.856L1036.78 718.968C1041.06 721.112 1046.23 720.397 1049.8 717.221L1050.43 716.586C1054.4 713.013 1059.56 710.869 1064.96 710.551L1074.65 709.996C1077.11 709.837 1079.65 710.075 1082.03 710.71C1090.13 712.775 1101.33 708.011 1107.44 712.616C1115.62 718.73 1102.6 704.676 1102.6 704.676L1079.81 685.461C1078.86 684.667 1077.99 683.635 1077.35 682.523L1068.46 668.072C1066.15 664.341 1064.33 660.37 1062.98 656.162L1043.53 595.421L1042.26 590.578L1036.94 565.011C1035.59 558.5 1033.6 552.069 1031.06 545.876L1023.04 526.423C1020.74 520.944 1019.63 515.068 1019.63 509.113V502.761C1019.63 499.427 1018.99 496.092 1017.64 492.916L1007.48 468.46L993.503 410.498C992.63 406.767 992.154 402.876 992.154 399.065V391.284C992.154 388.663 991.439 386.043 990.01 383.741L985.325 376.039L984.452 369.29C985.246 364.446 984.849 359.444 983.261 354.839L979.847 344.914L963.014 253.286L956.662 227.799C955.868 224.782 955.55 221.606 955.55 218.509C955.55 211.204 954.28 203.899 951.66 197.071L947.293 185.399C944.752 178.571 943.481 171.425 943.481 164.12V161.341C943.481 157.45 943.164 153.639 942.529 149.828L936.732 114.971L926.013 44.2258C925.696 41.8438 924.346 39.7794 922.361 38.4296L917.914 35.333C917.914 35.333 926.013 17.7062 925.458 15.0066C924.822 12.0688 913.389 15.0066 913.389 15.0066C913.389 15.0066 919.264 9.60739 919.661 6.74899C919.979 4.60519 918.153 0.635181 915.612 0.476381C910.927 0.23818 903.067 12.307 903.067 12.307C901.876 13.5774 900.526 14.689 899.017 15.5624L887.743 21.835L873.371 30.4102C868.21 33.5068 866.384 40.0176 869.163 45.4168C870.989 48.9898 872.656 52.9598 872.974 56.0564C874.8 73.3657 862.89 132.439 862.89 132.439L853.839 211.442L845.581 312.201L839.547 394.936L835.021 363.335L831.289 328.002L824.54 258.05L821.523 200.168L813.98 93.8509C813.821 91.9453 814.774 90.1191 816.441 89.1663L819.617 87.2607C823.19 85.1169 823.031 79.8765 819.379 77.8915L812.63 74.3185C810.724 73.2863 809.216 71.5395 808.581 69.4751L806.596 63.2024C805.802 60.741 803.896 58.8354 801.435 58.1208C801.435 58.1208 798.02 55.8182 796.194 55.977C794.368 56.1358 790.239 60.2646 790.239 60.2646L782.934 59.4706C780.235 59.153 777.615 60.6616 776.503 63.0436L775.391 65.5051C774.359 67.6489 772.692 69.3163 770.548 70.3485L767.451 71.7777C764.672 73.0481 762.687 75.5095 761.973 78.4473L739.9 169.599L714.968 301.879L704.805 348.249L692.895 415.977L681.143 470.366C681.937 487.437 666.375 543.97 662.484 558.024C661.929 560.088 662.484 562.232 663.834 563.82C663.834 563.82 672.648 569.14 675.506 568.505C677.809 568.028 675.903 568.505 678.206 568.346C681.699 568.187 684.319 575.889 684.319 575.889C686.781 579.382 690.671 581.526 694.959 581.685L700.517 581.923C705.837 582.161 710.998 580.494 715.285 577.318L724.814 570.172C726.719 568.743 727.91 566.52 727.91 564.138L728.307 550.004C728.625 547.622 729.26 545.399 730.292 543.255L740.297 521.817C742.599 516.974 743.87 511.654 744.108 506.334L744.664 494.98C744.743 492.598 745.219 490.296 745.934 488.072L752.207 468.857L757.447 433.842L763.243 401.367L774.359 330.543L783.49 272.898L785.078 314.186C785.078 317.124 785.237 319.982 785.634 322.92L789.286 347.614L792.701 414.627L801.038 501.332C801.196 503 801.435 504.587 801.832 506.255L813.583 555.483C814.139 557.786 816.124 559.532 818.506 559.771L826.922 560.723L831.051 562.55C832.48 563.979 834.624 564.693 836.609 564.296C836.609 564.296 842.326 564.296 842.484 562.788C842.881 558.421 841.452 551.672 841.452 551.672C841.452 551.672 858.444 563.741 869.083 562.47C869.083 562.47 876.309 560.406 869.56 548.178L869.719 547.543Z" fill="#ECECEC"/>
<path d="M1004.94 182.938C1004.94 182.938 995.727 159.991 1014.94 167.455L1048.77 177.856C1048.77 177.856 1056.71 181.191 1050.43 188.258C1050.43 188.258 1046.46 191.513 1045.91 199.612C1045.75 201.756 1045.59 203.979 1045.11 206.043L1044.56 208.584C1043.6 212.633 1043.21 216.842 1043.45 220.97C1043.68 225.099 1043.76 230.975 1042.57 232.88C1041.2 235.104 1040.51 236.215 1040.51 236.215C1040.51 236.215 1037.57 274.645 1039.63 279.25C1039.63 279.25 1040.51 289.652 1042.18 292.589C1042.18 292.589 1044.72 297.195 1037.97 297.989L1027.8 299.656C1027.8 299.656 1019.15 303.388 1017.09 299.656L1015.02 295.924L1010.81 293.225C1008.19 291.557 1006.6 288.619 1006.6 285.523L1006.21 193.657C1006.21 193.657 1007.08 185.082 1004.94 182.779V182.938Z" fill="#ECECEC"/>
<path d="M1105.7 278.297L1200.58 180C1200.58 180 1200.82 179.127 1200.42 178.968L1182.48 167.931C1176.52 164.279 1168.98 164.358 1163.1 168.249L1158.74 171.107C1158.02 171.584 1157.15 171.822 1156.27 171.742L1082.67 165.946C1071.47 164.676 1071.63 173.886 1071.63 173.886C1066.39 177.936 1071.08 184.367 1071.08 184.367L1082.67 184.605L1098.95 186.908L1133.01 191.831C1133.8 191.91 1134.04 192.863 1133.41 193.339C1123.24 201.676 1116.41 214.698 1113.95 219.938C1113.16 221.606 1069.73 263.608 1062.58 284.252C1062.58 284.252 1061.95 290.128 1066.47 292.431C1066.47 292.431 1070.52 298.147 1074.65 299.656C1074.65 299.656 1082.19 303.229 1085.77 297.036L1102.76 295.051L1133.72 294.098C1140.31 293.86 1146.83 294.495 1153.26 295.924L1171.52 299.974C1173.5 300.45 1175.57 299.338 1176.36 297.433C1177.39 294.892 1178.59 291.478 1178.98 288.778C1179.22 286.873 1177.87 285.126 1175.96 284.808L1162.47 282.188C1157.7 281.235 1152.94 280.838 1148.1 280.918L1107.12 281.632C1105.38 281.632 1104.5 279.568 1105.7 278.377V278.297Z" fill="#ECECEC"/>
<path d="M1217.09 176.268C1219 174.442 1227.57 174.283 1227.57 174.283C1227.57 174.283 1235.91 170.154 1237.26 174.283L1248.93 178.491C1251.08 179.285 1252.51 181.27 1252.51 183.573V198.5L1252.03 200.088C1249.81 207.075 1250.68 214.46 1252.51 221.606C1252.9 223.273 1252.82 224.94 1252.35 226.37C1251.39 229.546 1250.68 232.722 1250.84 235.977L1251.47 249.713L1253.46 280.838C1253.46 280.838 1253.3 296.798 1251.47 301.641C1250.12 305.214 1246.79 309.105 1238.69 305.77C1238.69 305.77 1226.23 312.042 1226.23 301.641C1226.23 301.641 1217.49 300.847 1217.17 293.304C1217.17 293.304 1219.24 282.903 1217.17 278.059L1215.11 273.216V248.84C1215.11 241.217 1215.51 233.595 1216.7 226.131C1217.09 223.591 1217.41 220.653 1217.09 218.112C1216.38 211.442 1215.51 204.852 1215.82 198.183C1215.82 198.183 1212.73 180.318 1217.09 176.189V176.268Z" fill="#ECECEC"/>
<path d="M478.991 454.486C478.991 454.486 474.862 410.101 441.117 402.717C441.117 402.717 408.642 389.696 359.255 399.779C357.27 400.256 355.841 402.082 356 404.146L358.382 429.793L358.779 462.744C358.779 462.744 357.906 499.744 360.764 512.925C361.399 516.101 365.528 517.212 371.721 516.895C375.135 516.656 377.121 521.341 385.219 519.038C388.713 518.086 397.447 525.708 399.67 519.674C400.147 518.324 399.988 515.465 401.338 515.465C408.484 515.465 423.808 516.815 431.113 515.465C433.336 515.068 435.797 514.513 439.847 517.371C441.752 518.8 445.484 518.8 448.184 512.607C449.454 509.669 456.044 506.731 457.473 503.952C458.664 501.65 459.458 499.506 464.222 496.171C468.907 492.916 481.055 476.639 478.991 454.486ZM427.778 484.976C426.507 489.343 423.252 492.916 419.203 495.06C415.63 496.886 410.31 498.95 402.449 500.697C400.702 501.015 398.956 499.744 398.876 497.918L398.479 485.055C398.4 483.547 398.638 482.038 399.035 480.609C399.432 479.418 399.829 477.75 399.67 476.401C399.353 473.622 398.003 471.081 397.923 468.222L396.891 422.408C396.812 420.582 398.32 419.074 400.147 419.074C407.054 419.312 422.696 421.059 427.619 432.969C427.619 432.969 435.638 458.059 427.778 484.976Z" fill="#ECECEC"/>
<path d="M486.613 395.968C486.693 393.348 486.296 390.648 485.422 388.187L483.199 381.914C482.326 379.532 484.152 377.071 486.613 377.071H499C502.017 377.071 505.034 378.024 507.496 379.771C510.116 381.597 511.148 383.82 511.148 384.535C511.148 385.329 509.322 388.505 508.21 390.49C507.575 391.522 507.257 392.633 507.257 393.824L506.94 420.265C506.94 422.488 505.272 424.473 503.129 424.949L495.903 426.458C494.077 426.855 492.171 426.299 490.742 425.108L486.931 420.741L484.946 417.089L486.613 395.968Z" fill="#ECECEC"/>
<path d="M653.353 512.686L603.252 407.799L601.981 399.779C603.411 390.41 601.981 389.696 601.981 389.696C597.694 384.773 588.801 384.773 582.687 384.693C581.258 384.693 580.385 383.502 579.432 382.391C576.653 379.056 569.904 379.532 569.904 379.532L559.105 391.76L557.12 397.794L500.667 503.396C499.317 506.017 499.317 509.193 500.985 511.575C505.51 518.165 516.547 521.976 516.547 521.976C521.073 523.167 525.837 518.641 527.663 515.386C528.139 514.433 529.251 514.274 530.124 514.83C534.333 517.847 539.732 518.085 543.702 517.768C546.957 517.53 549.657 515.227 550.768 512.21L559.344 487.516C559.741 486.484 560.773 485.77 561.884 485.77L612.621 487.913C615.162 487.913 617.464 489.581 618.417 491.963L628.978 517.53C630.566 521.42 634.694 523.723 638.744 522.849C644.302 521.658 648.272 517.371 648.272 517.371C655.338 517.847 653.353 512.686 653.353 512.686ZM606.587 467.825C597.773 469.016 570.936 467.825 570.936 467.825C569.904 467.825 569.189 466.714 569.745 465.761C569.745 465.761 580.861 437.415 587.054 429.078C588.88 426.458 592.692 440.67 592.692 440.67C593.168 442.338 593.962 443.926 595.153 445.196C597.773 448.213 597.932 454.804 597.932 455.598C597.932 456.392 608.572 467.587 606.587 467.825Z" fill="#ECECEC"/>
<path d="M1195.58 428.602C1195.58 428.602 1170.09 400.256 1154.92 397.08C1154.92 397.08 1143.57 391.442 1132.61 393.507C1132.61 393.507 1123.8 393.189 1114.67 393.269C1102.68 393.427 1090.85 396.683 1080.61 403.035C1073.46 407.402 1065.44 413.516 1059.33 421.535C1059.33 421.535 1053.69 427.808 1049.08 436.859C1043.53 447.658 1042.49 460.203 1045.59 471.954C1048.69 483.388 1054.96 499.744 1067.11 507.525C1067.11 507.525 1090.05 521.341 1108.16 522.77C1108.16 522.77 1128.72 524.755 1146.43 522.77C1148.17 522.532 1150.64 523.167 1152.38 523.008C1169.53 521.5 1185.18 509.034 1195.34 496.489C1196.05 495.536 1196.77 494.583 1197.4 493.551C1200.66 488.231 1208.28 476.559 1209.39 461.156C1209.39 461.156 1211.93 442.02 1195.58 428.602ZM1149.92 468.46C1149.92 468.46 1145.63 481.164 1131.9 490.137C1127.37 492.598 1122.53 498.95 1116.81 495.456C1104.19 492.677 1101.81 496.965 1095.21 490.931C1089.26 485.452 1085.85 475.527 1085.05 467.269C1084.26 459.329 1086 448.928 1088.7 441.306C1090.77 435.589 1095.61 426.378 1100.46 421.614C1102.04 420.026 1102.52 418.359 1108.95 418.438C1111.73 418.438 1114.83 418.121 1117.84 415.342C1119.75 413.595 1123.72 413.674 1128.09 413.595C1151.83 413.119 1161.67 443.688 1149.92 468.46Z" fill="#ECECEC"/>
<path d="M1325.08 496.489C1320.23 495.695 1315.63 487.119 1313.49 482.673C1312.61 480.767 1311.5 479.1 1310.07 477.512C1310.07 477.512 1298.24 469.413 1301.1 469.89C1302.77 470.128 1304.2 470.525 1305.39 470.922C1310.55 472.51 1315.95 471.081 1321.35 471.001L1329.45 471.398C1330.87 471.16 1332.14 470.366 1333.18 469.334L1339.21 462.902C1342.7 459.25 1344.61 454.327 1344.69 449.246C1344.69 446.546 1344.53 443.688 1344.37 440.909C1343.98 434.001 1341.2 427.49 1336.43 422.488L1330.79 413.595C1325.24 402.32 1311.9 396.286 1311.9 396.286C1307.53 392.872 1292.6 392.872 1292.6 392.872L1256.16 393.03H1229.8C1223.68 392.395 1219.63 394.063 1217.09 395.889C1214.71 397.556 1214.16 400.891 1215.35 403.511C1218.52 410.498 1220.19 413.595 1220.19 413.595C1225.67 425.187 1222.49 487.993 1221.3 508.716C1221.06 513.004 1223.68 516.974 1227.81 518.244C1233.69 520.07 1236.39 520.865 1246.87 514.989C1246.87 514.989 1250.12 513.48 1253.54 518.006C1253.54 518.006 1263.94 521.659 1264.02 517.53C1264.42 504.667 1264.34 484.896 1264.5 475.13C1264.5 473.145 1270.61 474.654 1272.36 475.606C1276.88 477.909 1285.14 489.422 1285.14 489.422L1290.06 493.313C1292.05 494.107 1293.71 495.298 1295.06 496.806L1314.52 519.038C1322.46 526.105 1329.92 523.644 1329.92 523.644C1337.78 523.008 1340.4 508.478 1340.4 508.478C1343.02 501.888 1325.08 496.489 1325.08 496.489ZM1270.53 446.625C1269.18 446.705 1267.91 445.99 1267.51 444.72C1263.23 432.969 1266.96 419.232 1268.86 413.674C1269.42 412.166 1270.93 411.292 1272.52 411.451L1289.03 413.595L1296.02 416.612L1305.23 417.883C1306.5 418.041 1307.61 418.915 1307.85 420.106C1309.99 429.713 1303.64 438.527 1303.64 438.527C1297.61 444.561 1277.28 446.228 1270.53 446.625Z" fill="#ECECEC"/>
<path d="M1373.12 525.549C1372.96 528.09 1366.29 528.487 1363.67 524.041C1363.67 524.041 1357.47 531.107 1351.99 524.041L1348.5 518.403C1347.87 517.371 1347.55 516.101 1347.71 514.83L1350.64 492.678C1351.2 488.708 1351.28 484.658 1350.96 480.609L1350.57 475.924C1350.25 472.033 1350.25 468.063 1350.49 464.173L1351.99 440.909C1352.15 437.971 1351.99 435.033 1351.36 432.175C1350.8 429.713 1350.33 426.378 1350.96 423.838C1350.96 423.838 1352.07 417.724 1350.09 411.451C1350.09 411.451 1345.56 382.47 1372.96 393.11L1384.23 398.509C1387.72 400.176 1391.54 401.129 1395.43 401.209L1462.28 403.273C1462.28 403.273 1466.57 403.67 1467.44 406.846C1468.63 410.895 1466.33 421.059 1462.28 422.091C1458.79 422.964 1454.1 416.85 1450.61 417.644C1449.02 418.041 1448.94 420.741 1447.43 421.456C1446.16 422.091 1442.99 421.217 1440.76 420.503C1439.1 419.947 1437.43 419.788 1435.68 420.026L1424.49 419.471L1408.21 421.853C1406.78 422.091 1405.35 422.091 1404 421.853C1404 421.853 1396.86 421.217 1389.47 419.868C1387.17 419.471 1385.74 424.393 1387.49 429.078C1388.6 432.016 1387.33 450.913 1386.93 456.789C1386.93 457.741 1387.65 458.535 1388.6 458.615L1435.52 460.917C1442.51 461.235 1446.4 463.935 1448.62 466.555C1451.8 470.366 1450.45 476.162 1445.69 477.83C1442.19 479.1 1438.46 479.1 1438.46 479.1C1438.46 479.1 1388.28 476.162 1386.61 476.321C1384.95 476.48 1386.85 484.341 1386.85 485.929V494.821C1386.85 497.045 1388.6 498.871 1390.82 498.95L1441.64 501.015C1441.64 501.015 1455.69 500.3 1456.88 511.337C1456.88 511.337 1458.07 520.071 1444.34 518.8C1444.34 518.8 1399.95 513.322 1390.9 516.815C1390.9 516.815 1385.66 519.753 1375.18 515.942C1375.18 515.942 1373.59 514.989 1372.96 525.47L1373.12 525.549Z" fill="#ECECEC"/>
</svg>
