<svg width="1825" height="721" viewBox="0 0 1825 721" fill="none" xmlns="http://www.w3.org/2000/svg">
<g clip-path="url(#clip0_654_2404)">
<path d="M1147.01 111.931L1132.84 122.465L1128.29 124.287L1122.84 131.573L1116.02 136.127L1109.2 142.954L1092.83 157.519L1096.01 166.619L1101.47 184.028L1101.92 214.866L1103.05 217.824L1102.37 294.976L1101.92 314.795L1101.47 355.515L1100.56 385.104V479.318L1099.65 488.877L1100.56 559.879C1100.56 559.879 1099.2 573.992 1099.2 575.354C1099.2 576.716 1099.65 597.205 1099.65 597.205L1100.4 598.874L1102.38 599.631L1103.29 593.409C1103.29 593.409 1107.22 589.161 1106.92 588.403C1106.63 587.646 1105.41 579.15 1105.41 579.15L1108.14 577.635L1110.72 574.145L1109.81 562.16L1110.26 554.422L1112.38 550.779L1109.96 537.278L1113.29 531.515L1138.15 509.06C1138.15 509.06 1144.52 504.506 1145.12 503.297C1145.73 502.088 1150.88 496.011 1150.88 496.011L1154.82 494.794V485.694L1145.11 477.803L1136.63 462.932C1136.63 462.932 1137.23 443.813 1137.23 442.604C1137.23 441.395 1136.02 437.752 1136.63 436.229C1137.24 434.705 1138.45 428.338 1138.45 426.823C1138.45 425.307 1138.75 421.06 1138.45 418.327C1138.14 415.595 1137.84 411.654 1137.84 410.138C1137.84 408.623 1138.15 402.852 1138.15 402.852L1137.24 391.02L1136.33 386.168L1139.06 380.405L1136.93 372.82C1136.93 372.82 1137.24 365.84 1137.24 364.929C1137.24 364.018 1138.15 359.166 1138.46 357.643C1138.76 356.12 1137.55 350.058 1136.94 348.543C1136.34 347.028 1135.73 342.78 1135.73 341.257V330.335C1135.73 329.424 1136.03 320.325 1136.03 320.325L1135.43 299.997L1136.94 285.126L1136.34 277.542L1134.82 262.066L1136.95 202.591C1136.95 202.591 1137.86 185.898 1136.95 181.957C1136.04 178.016 1136.95 167.997 1136.95 167.997L1136.64 159.501L1137.25 147.967L1140.58 123.997L1143 132.798L1143.61 137.046L1148.16 144.332L1150.89 154.343L1154.82 162.838L1156.19 166.175L1158.31 166.78L1160.58 161.017L1162.4 147.669C1162.4 147.669 1165.73 139.174 1165.58 138.416C1165.43 137.659 1165.58 130.074 1165.58 130.074V123.4L1162.55 118.846L1154.37 113.535L1150.69 111.649C1149.51 111.044 1148.09 111.157 1147.01 111.955V111.931Z" fill="#ECECEC"/>
<path d="M1272.89 223.966L1269.02 223.74L1264.71 222.829L1263.2 223.635C1261.98 224.288 1261.04 225.376 1260.57 226.69L1256.33 238.571C1255.87 239.877 1254.62 240.739 1253.23 240.723C1253.07 240.723 1252.94 240.715 1252.89 240.699C1252.54 240.578 1250.73 240.812 1250.16 241.037C1249.59 241.263 1250.27 241.489 1248.11 241.489C1245.95 241.489 1244.81 241.601 1242.65 241.601H1238.34C1237.43 241.601 1236.17 241.376 1234.81 241.037C1233.45 240.699 1232.99 240.924 1232.77 240.578C1232.54 240.239 1233.9 224.538 1233.79 224.192C1233.68 223.853 1233.45 220.895 1233.45 219.871C1233.45 218.848 1233.45 217.026 1233.56 216.228C1233.68 215.43 1234.01 212.819 1234.01 212.819C1234.01 212.819 1234.92 197.231 1235.04 196.771C1235.15 196.32 1236.29 190.057 1236.29 189.372C1236.29 188.687 1236.63 183.23 1236.63 182.779C1236.63 182.327 1236.17 175.952 1236.63 174.13C1237.08 172.309 1237.99 170.487 1237.99 170.149C1237.99 169.931 1237.85 167.078 1236.9 165.151C1236.17 163.701 1234.17 163.515 1233.14 164.765C1229.37 169.343 1217.13 184.109 1216.36 184.367C1215.45 184.673 1208.78 192.564 1208.78 192.564L1204.23 199.238H1201.2L1192.11 215.93L1193.92 219.267C1193.92 219.267 1191.2 225.941 1192.11 227.158C1193.01 228.367 1193.32 238.99 1193.32 238.99L1193.63 244.148H1179.68L1169.68 265.991L1174.83 268.724L1193.32 266.298L1193.92 272.367L1193.32 290.575L1193.92 294.822L1192.41 299.674L1193.32 306.961L1192.72 361.882L1191.81 385.249C1191.81 385.249 1187.41 400.111 1178.77 403.303L1178.32 407.849C1178.32 407.849 1214.24 421.503 1217.42 430.611L1220.15 431.973H1227.42C1227.42 431.973 1227.65 429.474 1228.79 427.653C1229.92 425.831 1233.1 423.558 1234.24 421.737C1235.38 419.915 1253.56 398.29 1254.71 396.476C1255.84 394.655 1257.43 394.655 1257.43 393.97V390.552L1250.61 390.101L1245.38 392.374L1242.65 389.416L1226.97 381.904C1226.97 381.904 1227.65 361.197 1227.65 360.061C1227.65 358.924 1228.56 351.412 1228.33 349.139C1228.1 346.858 1227.88 342.538 1228.1 339.806C1228.33 337.073 1228.56 334.341 1229.01 331.617C1229.47 328.884 1231.06 321.147 1231.06 319.325C1231.06 317.503 1230.61 314.086 1230.83 311.587C1231.06 309.081 1231.06 306.123 1231.06 305.212C1231.06 304.301 1230.37 296.797 1230.37 296.797C1230.37 296.797 1231.36 275.236 1231.52 273.81C1231.68 272.222 1231.37 270.15 1231.14 268.949C1230.87 267.595 1232.19 264.935 1232.19 264.935C1232.19 264.935 1235.38 264.25 1236.29 264.25C1237.2 264.25 1244.25 264.025 1244.25 264.025L1251.98 263.34L1257.43 261.067L1262.66 250.822C1262.66 250.822 1266.75 243.77 1266.75 243.085C1266.75 242.399 1268.8 236.943 1268.8 236.943C1268.8 236.943 1273.8 225.788 1272.89 223.966ZM1254.78 245.511L1253.42 247.937H1251.98L1251.11 246.728L1250.69 245.132L1251.52 243.085C1252.51 241.867 1253.42 242.399 1253.42 242.399L1254.4 243.085L1254.78 243.995V245.511Z" fill="#ECECEC"/>
<path d="M1056.01 393.284L1053.96 392.148C1053.96 392.148 1051.92 389.875 1051.01 388.964C1050.1 388.053 1049.87 387.828 1047.59 386.006C1045.32 384.184 1040.1 381.678 1039.64 378.72C1039.19 375.762 1038.28 357.103 1038.28 356.417C1038.28 355.732 1038.95 355.281 1038.73 351.412C1038.5 347.543 1038.73 345.037 1038.73 342.538C1038.73 340.039 1037.59 340.257 1037.82 336.622C1038.04 332.979 1039.41 330.931 1039.41 329.795C1039.41 328.658 1038.04 310.217 1038.04 309.54C1038.04 308.863 1038.28 307.259 1038.5 303.164C1038.73 299.07 1038.95 296.563 1039.19 294.064C1039.41 291.558 1038.73 292.243 1039.41 289.059C1040.1 285.867 1040.55 283.135 1040.55 281.999C1040.55 280.862 1041.76 276.558 1041.76 274.769C1041.76 272.979 1045.39 267.515 1045.39 267.515C1043.88 263.267 1042.97 261.744 1041.46 259.922C1039.94 258.108 1038.12 258.407 1036.91 257.496C1035.7 256.585 1034.48 255.376 1032.97 254.763C1031.46 254.159 1030.55 253.853 1028.73 252.95C1026.91 252.039 1029.93 254.159 1026.91 252.039L1023.87 249.911C1023.87 249.911 1021.75 247.791 1020.54 246.881C1020.01 246.478 1019.01 245.849 1018.06 245.261C1016.72 244.438 1014.97 244.761 1014.02 246.002L1007.2 254.763C1007.2 254.763 1006.9 255.674 1004.78 257.496C1002.65 259.317 1002.05 259.922 1000.83 261.139C999.627 262.356 998.411 263.871 997.203 265.991C995.988 268.119 995.384 269.634 995.078 270.851L993.717 273.35L992.348 275.099C991.656 275.97 990.762 277.235 990.126 278.154C989.49 279.081 989.289 280.233 989.578 281.313C990.078 283.159 991.213 284.578 992.348 284.803C993.862 285.11 994.168 285.416 996.294 286.021C998.411 286.625 1003.83 290.308 1004.4 290.994C1004.97 291.671 1005.31 292.243 1005.19 292.928C1005.08 293.605 1005.08 295.886 1004.74 297.135C1004.4 298.385 1004.51 299.408 1004.51 300.093C1004.51 300.779 1003.26 329.795 1003.26 329.795C1003.26 329.795 1003.26 333.204 1003.03 336.162C1002.81 339.12 1002.58 342.989 1002.36 344.359C1002.12 345.722 1001.9 350.05 1001.45 351.412C1000.99 352.774 1000.76 354.451 1000.76 355.434C1000.76 356.417 1000.54 357.788 1000.54 358.924C1000.54 360.061 1000.76 360.512 1000.54 361.197C1000.3 361.882 1000.3 363.019 1000.3 363.019L999.394 366.887C999.394 366.887 997.348 369.394 996.672 370.071C995.988 370.756 995.303 372.804 993.942 373.263C992.574 373.714 990.529 375.762 990.529 375.762C990.529 375.762 990.762 377.809 989.393 378.035C988.032 378.268 986.438 379.179 985.754 379.631C985.078 380.09 983.032 382.137 982.686 382.363C982.348 382.589 981.213 383.274 981.213 383.274C981.213 383.274 979.844 383.959 978.709 383.499C977.573 383.048 975.528 382.137 975.528 382.137C972.34 380.316 972.34 380.09 970.979 379.856C969.618 379.631 968.249 379.405 966.889 378.72C965.52 378.035 964.159 377.809 963.024 377.132C962.814 377.003 962.734 376.955 962.734 376.947C962.541 376.826 962.267 376.672 961.888 376.447C959.159 374.851 957.114 373.714 957.114 373.714L954.61 370.982C954.61 370.982 953.7 368.935 953.925 367.113C954.159 365.292 954.159 363.019 954.159 363.019C953.7 360.746 953.925 359.15 954.159 357.788C954.384 356.417 954.384 355.055 954.61 353.685C954.835 352.323 954.384 345.947 954.384 345.947V335.937C954.384 332.979 954.159 332.294 954.159 329.795V324.556C954.159 323.194 955.52 311.128 955.069 309.766C954.61 308.403 954.61 308.17 954.61 305.897C954.61 303.624 954.384 301.568 954.61 299.295C954.835 297.023 954.61 296.563 954.835 294.064C955.069 291.558 954.835 289.285 955.069 287.689C955.294 286.093 955.979 284.046 955.979 282.224C955.979 280.403 957.565 277.904 958.024 276.993C958.475 276.082 961.204 273.124 961.204 273.124L963.249 271.303L961.204 268.345C961.204 268.345 959.384 267.893 958.475 267.434C957.565 266.983 954.384 266.523 953.925 265.846C953.474 265.161 950.294 264.476 949.61 263.114C948.925 261.744 946.196 259.922 946.196 259.922L938.699 254.917C938.699 254.917 937.105 253.554 936.421 252.644C935.744 251.733 934.48 250.604 933.691 250.371C929.263 249 925.374 251.048 925.374 251.048L920.961 255.142C920.961 255.142 918.006 259.471 917.097 261.518C916.187 263.565 908.457 278.815 908.457 278.815L906.187 283.135L908.006 287.915L910.961 290.421C913.691 293.154 914.142 294.516 914.142 294.516C914.142 294.516 915.052 295.652 915.052 297.023C915.052 298.393 915.277 300.666 915.277 302.254C915.277 303.841 915.51 305.437 915.277 308.403C915.052 311.361 915.51 371.208 915.51 371.208C915.51 371.208 914.367 376.221 914.142 378.72C913.916 381.226 914.367 384.636 914.142 386.006C913.916 387.368 913.465 391.237 913.232 392.148C913.006 393.059 911.871 394.655 912.097 395.332C912.322 396.017 913.232 398.29 914.601 399.2C915.961 400.111 916.187 400.345 920.052 402.158C923.916 403.98 923.007 403.529 925.511 404.891C928.015 406.261 929.15 407.398 930.06 407.849C930.97 408.308 932.105 409.67 933.925 410.581C935.744 411.492 935.286 411.718 938.925 413.539C942.564 415.361 944.835 417.183 944.835 417.183C944.835 417.183 943.241 417.408 947.105 419.689C950.97 421.962 951.204 421.962 952.339 422.414C953.474 422.873 956.429 424.009 956.429 424.009L959.159 423.099C962.114 420.141 963.934 418.319 964.61 416.957C965.294 415.587 965.52 414.91 966.204 414.224C966.889 413.539 967.34 413.088 968.249 411.718C969.159 410.356 968.708 411.492 970.295 409.219C971.889 406.938 971.663 406.487 972.799 405.802C973.934 405.117 974.393 404.891 975.303 404.665C976.204 404.439 977.114 404.665 977.573 403.98C977.775 403.682 977.702 403.738 977.646 403.787C977.702 403.706 977.815 403.561 978.024 403.303C978.934 402.158 978.024 403.529 978.934 402.158C979.844 400.796 980.303 400.796 981.213 398.975C982.123 397.153 982.573 396.476 983.258 395.791C983.934 395.106 984.168 395.106 985.078 394.195C985.987 393.284 985.987 393.51 987.348 392.148C988.709 390.786 988.942 391.011 990.303 390.326C991.664 389.641 990.078 389.641 991.664 389.641C993.25 389.641 990.988 388.964 993.258 389.641C995.529 390.326 996.897 390.786 997.582 391.237C998.258 391.696 998.717 392.607 999.394 393.284C1000.08 393.969 1002.36 396.927 1002.58 397.613C1002.81 398.29 1002.12 398.975 1002.58 400.111C1003.03 401.248 1005.54 406.027 1005.54 406.027C1005.54 406.027 1006.9 407.172 1008.49 407.398C1010.09 407.623 1012.36 407.849 1012.36 407.849C1015.31 409.896 1018.49 412.177 1018.49 412.177C1018.49 412.177 1029.41 419.915 1030.31 421.277C1031.22 422.647 1035.09 424.009 1035.09 424.009C1035.09 424.009 1036.91 422.647 1038.04 421.051C1039.19 419.455 1039.19 419.915 1040.55 417.634C1041.91 415.361 1042.37 415.82 1043.5 413.539C1044.64 411.266 1045.1 410.807 1046.01 409.445C1046.91 408.083 1049.41 405.35 1050.32 404.214C1051.23 403.069 1050.78 403.069 1052.6 402.392C1054.41 401.707 1055.55 401.707 1056.46 401.248L1057.37 400.796L1059.19 398.523L1056.01 393.284ZM929.826 309.838L929.448 308.476L929.826 306.276L930.591 308.057L929.826 309.838ZM1000.26 385.039L1000.02 385.772C1000.02 385.772 1000.3 386.627 1000.25 387.03C1000.19 387.425 999.965 387.771 999.683 388.223C999.394 388.674 998.774 388.279 997.976 388.223C997.179 388.166 997.461 387.94 996.954 387.594C996.439 387.255 996.495 386.119 996.616 385.837C996.728 385.547 997.638 385.208 997.976 385.039C998.315 384.87 998.516 384.273 998.661 384.128C999.257 383.515 999.852 383.427 999.852 383.427C1001.56 383.886 1000.54 384.354 1000.26 385.039ZM1019.87 328.118L1019.36 328.973C1019.25 329.166 1018.96 329.166 1018.84 328.965L1018.33 328.078C1018.29 328.014 1018.28 327.925 1018.3 327.852L1018.65 326.603C1019.25 325.926 1019.56 326.603 1019.56 326.603L1019.9 327.885C1019.93 327.965 1019.91 328.046 1019.87 328.118Z" fill="#ECECEC"/>
<path d="M886.242 386.111L882.732 385.805C881.959 385.732 881.21 385.474 880.566 385.031C880.123 384.725 879.6 384.362 879.133 384.032C878.07 383.274 877.015 382.21 875.493 381.146C873.98 380.09 874.286 379.937 872.764 378.873C871.25 377.809 869.285 376.447 868.827 376.141C868.376 375.843 866.097 375.23 866.097 375.23C866.097 375.23 863.52 371.893 863.367 371.442C863.222 370.982 862.611 366.428 862.611 365.373C862.611 364.317 862.764 361.729 862.764 360.367C862.764 359.005 863.069 353.685 863.069 353.685L862.313 339.733L861.403 325.926C861.403 325.926 861.628 320.01 861.403 318.866C861.169 317.729 860.944 315.682 860.944 313.635C860.944 311.588 861.169 309.081 861.403 307.944C861.628 306.808 861.854 303.39 861.854 302.713V298.844C861.854 298.844 864.132 291.784 865.034 290.647C865.944 289.511 867.538 287.238 868.448 285.868C869.358 284.506 871.403 281.548 872.087 280.637C872.764 279.726 875.042 277.453 875.042 277.453L875.332 277.292C876.363 276.711 876.83 275.478 876.435 274.366C876.017 273.189 875.509 271.883 875.268 271.763C874.817 271.529 876.178 271.303 873.223 269.715C870.268 268.119 868.674 267.434 867.997 266.983C867.313 266.523 864.809 265.846 863.448 265.161C862.079 264.476 858.899 263.565 857.989 262.88C857.079 262.203 855.493 261.292 854.808 261.067C854.124 260.833 850.718 261.067 850.718 261.067C850.718 261.067 849.575 259.922 847.989 259.011C846.394 258.109 842.755 256.964 842.755 256.964L838.89 254.691L829.003 250.597C829.003 250.597 822.642 247.977 822.183 247.752C821.732 247.526 820.025 246.728 818.656 245.93C817.295 245.132 815.137 244.108 814.228 243.657C813.318 243.198 810.588 242.287 810.025 241.948C809.453 241.602 806.723 240.352 806.039 240.014C805.363 239.667 804.34 239.216 803.318 238.531C802.295 237.854 800.363 237.056 799.565 236.709C798.768 236.371 797.174 235.919 797.174 235.919C797.174 235.919 796.498 235.686 796.151 235.919C795.813 236.145 794.106 236.709 793.655 236.943C793.196 237.169 791.948 238.765 791.377 239.103C790.813 239.442 790.016 240.352 789.332 241.15C788.647 241.948 788.534 242.746 787.061 243.657C785.58 244.568 783.422 245.471 782.971 246.156C782.512 246.841 781.94 248.09 781.038 248.549C780.128 249.001 778.534 250.25 777.053 250.822C775.579 251.395 774.21 253.208 774.21 253.208L769.669 256.287C769.669 256.287 768.3 257.988 767.962 258.334C767.624 258.673 768.075 259.245 766.714 259.245C765.354 259.245 763.703 260.551 763.244 260.777C762.793 261.01 761.481 263.114 760.684 263.227C759.894 263.34 760.233 263.565 759.323 263.791C758.413 264.025 757.39 264.589 756.706 264.815C756.03 265.048 754.661 266.185 753.638 266.524C752.616 266.87 751.819 267.321 751.368 267.434C750.909 267.547 750.458 267.547 749.886 268.345C749.322 269.143 748.864 269.482 748.187 269.828C747.503 270.167 746.255 270.505 745.909 270.618C745.57 270.739 744.999 271.763 744.999 271.763L746.818 279.347C746.818 279.347 745.611 281.467 746.818 283.595C748.034 285.715 745.611 292.695 746.818 293.912C748.034 295.121 746.303 300.892 747.173 304.535C748.034 308.17 746.81 314.852 747.269 316.972C747.728 319.1 747.543 324.556 747.487 327.289C747.422 330.021 746.287 342.458 746.287 342.458L747.575 359.755C747.575 359.755 746.665 377.052 746.287 377.962C745.909 378.873 744.701 386.458 744.999 387.369C745.305 388.279 745.103 390.859 744.242 392.076C743.727 392.801 743.227 394.139 742.913 395.082C742.68 395.775 742.752 396.525 743.09 397.162C743.654 398.193 744.532 399.725 745.071 400.112C745.909 400.724 748.638 401.933 749.548 402.239C750.458 402.538 753.791 404.061 755.917 404.666C758.034 405.27 758.944 405.883 761.368 407.092C763.791 408.309 766.223 410.13 768.647 410.735C771.07 411.339 773.188 412.556 775.917 413.467C778.647 414.378 781.071 415.587 781.071 415.587C784.106 418.626 785.314 421.358 786.224 421.656C787.134 421.963 791.683 424.01 791.683 424.01H792.746L795.813 417.296C795.813 417.296 798.994 414.563 799.332 413.886C799.678 413.201 800.363 412.742 801.152 411.831C801.949 410.92 804.678 406.374 805.25 405.915C805.814 405.463 809.34 403.182 810.025 402.618C810.701 402.046 811.724 401.482 812.408 400.797C813.092 400.112 816.047 398.064 817.295 397.613C818.543 397.154 819.228 397.5 820.363 397.266C821.498 397.041 823.318 393.857 823.318 393.857C823.318 393.857 824.115 397.266 824.115 397.839C824.115 398.411 823.777 401.595 824.115 401.933C824.453 402.28 824.687 404.666 824.687 405.351V408.196L831.732 412.742C831.732 412.742 835.484 413.653 836.281 414.225C837.078 414.789 838.214 416.723 838.89 417.183C839.575 417.634 841.056 419.569 841.62 419.802C842.191 420.028 844.236 421.052 846.62 421.503C849.011 421.963 851.628 422.986 852.763 423.325C853.899 423.671 857.538 425.259 857.538 425.259L861.403 420.447C861.403 420.447 862.764 418.924 863.222 417.562C863.673 416.2 863.826 415.289 864.736 414.225C865.646 413.161 867.16 411.492 867.764 410.888C868.376 410.275 872.466 405.27 872.466 405.27L878.223 398.443C878.223 398.443 881.403 397.685 882.313 397.379C883.223 397.081 884.745 396.17 885.953 394.953C887.168 393.744 888.529 392.221 888.529 392.221V388.602C888.529 387.304 887.539 386.224 886.242 386.111ZM791.304 386.877L790.7 389.19L788.953 388.279V386.764C788.953 386.232 789.332 385.474 789.332 385.474L791.602 384.564L791.304 386.877ZM825.935 329.038C826.386 331.689 825.178 330.932 825.701 331.996C826.225 333.052 825.701 335.631 825.701 335.631C825.701 335.631 825.025 337.759 825.025 338.21C825.025 338.661 825.629 341.7 825.629 343.522C825.629 345.343 825.782 345.343 825.629 346.56C825.484 347.769 825.629 349.591 825.629 351.719C825.629 353.847 825.629 351.719 824.92 354.145C824.212 356.571 825.484 356.111 824.912 358.691C824.341 361.27 825.178 360.061 824.84 362.036C824.502 364.002 825.178 364.615 824.792 366.428C824.397 368.25 825.025 367.492 824.775 368.403C824.534 369.314 824.872 370.072 824.767 371.136C824.655 372.199 824.872 372.651 824.719 374.779C824.574 376.898 824.872 379.026 824.719 380.389C824.574 381.759 822.754 381.759 821.998 382.21C821.233 382.67 819.872 383.121 819.872 383.121L817.754 383.879L814.413 382.21H811.989C811.989 382.21 808.052 381.299 806.989 381.146C805.926 381.001 801.989 379.937 800.62 379.784C799.259 379.631 797.287 378.567 796.836 378.567C796.385 378.567 792.746 377.205 792.287 377.205C791.828 377.205 788.043 375.383 788.043 375.383L787.286 373.408V369.467L786.377 365.824L785.692 364.002V330.537L784.106 326.982L784.863 313.788C784.863 313.788 785.62 308.783 786.312 308.476C786.997 308.17 786.53 295.886 786.377 295.427C786.224 294.976 786.377 282.225 786.377 282.225L787.286 274.189C787.439 276.163 796.079 279.347 796.836 279.952C797.593 280.556 803.656 283.748 803.656 283.748L812.899 289.511C812.899 289.511 817.754 293.759 818.656 294.516C819.566 295.274 821.998 296.338 822.448 296.491C822.907 296.644 824.115 298.313 824.115 298.313C824.115 298.313 824.719 299.828 824.719 300.432C824.719 301.037 824.872 302.56 825.025 304.68C825.178 306.808 824.719 307.114 824.574 309.234C824.421 311.362 824.719 311.966 824.872 313.788C824.974 315.002 825.076 316.166 825.178 317.278C825.331 318.946 825.331 319.398 825.484 321.066C825.629 322.735 825.484 322.59 826.031 324.258C826.587 325.926 825.484 326.378 825.935 329.038Z" fill="#ECECEC"/>
<path d="M787.737 4.57797C787.737 4.57797 786.377 3.21582 785.692 2.76445C785.016 2.30502 783.196 3.21582 781.827 2.76445C780.467 2.30502 779.782 3.40926 778.422 2.62743C777.053 1.85366 774.331 0.709124 773.647 0.709124C772.962 0.709124 772.278 -0.878715 770.917 0.709124C769.557 2.30502 767.737 3.67524 767.737 3.67524C764.548 4.57797 764.548 4.35229 763.413 4.81171C762.278 5.26308 761.593 4.57797 759.323 5.94819C757.052 7.31035 755.917 7.76977 755.233 7.99545C754.548 8.22114 752.728 8.68056 751.819 8.90625C750.909 9.13193 751.142 9.13193 748.864 10.7278C746.593 12.3157 744.548 13.4602 743.413 14.5967C742.269 15.7331 735.683 21.1979 735.683 21.1979C735.683 21.1979 730.449 26.8883 730.224 27.7911C729.998 28.7018 729.539 31.2085 727.953 31.4342C726.359 31.6599 722.269 31.8936 722.269 31.8936L710.674 21.6493V17.0953L707.486 16.1845C707.486 16.1845 707.035 14.1372 706.576 13.0008C706.125 11.8643 705.215 10.2684 705.215 10.2684L697.944 11.4129L693.846 16.8696V23.0195L690.666 31.4342L682.71 48.9569L663.386 55.3324L659.062 54.873L657.017 51.0041L655.657 44.6367C655.657 44.6367 638.152 20.7385 611.549 22.1087C611.549 22.1087 568.126 21.6493 557.667 65.5768L555.622 75.3618C555.622 75.3618 556.757 82.64 556.532 83.7765C556.306 84.921 556.306 89.4669 556.306 90.3777C556.306 91.2885 556.306 91.9736 557.667 94.4723C559.036 96.9789 559.945 96.7533 560.171 98.5748C560.396 100.396 561.765 103.121 562.216 104.032C562.675 104.942 563.126 105.853 563.585 106.538C564.036 107.223 563.81 107.9 564.946 109.271C566.081 110.633 577.901 122.239 578.36 122.924C578.811 123.601 577.45 123.376 581.999 126.793C586.54 130.203 588.36 131.573 589.495 131.799C590.639 132.024 591.09 131.799 592.45 132.935C593.819 134.072 594.045 134.531 595.405 134.982C596.774 135.442 602 136.353 602 136.353L604.955 137.263V144.542L604.729 150.458L604.045 153.19C604.045 153.19 594.954 152.964 593.819 152.964C592.684 152.964 586.774 152.739 583.585 152.505C580.405 152.279 571.54 152.279 570.63 152.054C569.72 151.828 564.036 151.143 563.126 150.683C562.216 150.232 557.441 147.048 556.99 143.856C556.532 140.673 557.441 137.562 553.126 137.642C553.126 137.642 551 143.405 551 144.316C551 145.227 553.126 153.118 553.126 153.118C553.126 153.118 554.945 164.95 555.243 169.197C555.549 173.445 555.243 176.782 555.243 179.514C555.243 182.247 556.725 187.703 555.38 190.742C554.036 193.773 554.221 200.454 555.944 200.753C557.667 201.059 558.923 201.889 559.945 197.795C560.968 193.7 560.743 194.385 561.194 192.676C561.652 190.968 561.419 191.081 562.216 190.057C563.013 189.033 563.013 188.469 564.487 187.784C565.968 187.099 566.081 186.535 567.562 186.414C569.036 186.301 570.171 186.648 570.856 186.301C571.54 185.962 572.45 185.503 573.472 185.052C574.495 184.6 575.968 184.141 576.54 183.802C577.112 183.456 577.112 183.343 578.473 183.23C579.833 183.117 582.45 182.892 583.811 182.666C585.18 182.432 584.954 182.432 588.473 182.206C591.999 181.981 592.909 181.981 594.157 181.868C595.405 181.755 594.616 181.755 597.338 181.755C599.19 181.755 600.1 181.803 600.494 181.844C600.526 183.101 600.558 184.592 600.534 185.769C600.365 185.753 600.188 185.769 599.955 185.858C599.198 186.124 597.837 185.584 596.468 185.89C595.107 186.188 594.045 185.737 593.135 185.89C592.225 186.035 591.315 186.188 589.801 186.567C588.288 186.946 587.225 186.341 584.495 186.68C581.766 187.018 582.523 186.188 578.891 186.793C575.252 187.405 577.675 186.341 576.613 186.793C575.558 187.252 575.099 187.405 573.126 188.469C571.162 189.525 571.315 188.921 570.703 189.227C570.099 189.525 568.738 189.678 567.675 189.984C566.612 190.283 564.946 190.742 564.946 190.742C562.973 193.773 564.946 196.811 564.946 196.811C564.946 196.811 567.369 194.837 568.585 194.837C569.801 194.837 569.495 194.232 570.099 194.079C570.703 193.926 571.162 193.628 572.369 193.474C573.585 193.321 574.342 192.257 574.342 192.257L580.405 191.5C580.405 191.5 582.225 191.347 583.135 191.193C584.044 191.048 585.405 191.048 586.162 191.048C586.919 191.048 588.586 191.193 589.35 191.193C590.115 191.193 592.378 191.347 592.378 191.347L594.649 191.048L596.774 190.742L600.333 191.048V193.926C600.333 193.926 599.955 207.58 600.333 208.644C600.711 209.707 600.711 221.999 600.333 222.45C599.955 222.902 601.621 233.219 601.621 234.283C601.621 235.347 602.99 237.168 603.288 237.926C603.594 238.684 604.504 242.327 604.504 243.084C604.504 243.842 605.108 245.97 605.865 248.396C606.621 250.822 606.927 252.95 607.386 254.465C607.837 255.98 608.594 264.629 608.594 264.629L608.143 272.367C608.143 272.367 601.468 278.589 601.17 279.04C600.864 279.5 599.504 281.015 599.198 281.773C598.892 282.53 598.892 283.594 598.892 284.658C598.892 285.722 598.747 287.238 598.747 287.238C598.747 287.238 597.982 287.689 597.531 287.995C597.08 288.293 597.531 288.906 597.531 289.357C597.531 289.809 599.955 291.332 600.333 291.937C600.711 292.541 604.504 296.337 604.504 296.337C604.504 296.337 606.927 299.674 607.233 300.432C607.531 301.19 607.684 302.254 607.684 303.164C607.684 304.075 606.621 305.897 606.018 306.501C605.414 307.114 602.531 310.596 602.233 311.055C601.927 311.507 599.955 314.392 599.198 314.787C598.441 315.19 598.441 315.609 597.837 316.367C597.225 317.124 596.927 317.576 596.468 318.64C596.017 319.704 596.621 319.551 597.08 320.461C597.531 321.372 597.982 321.678 598.892 321.977C599.802 322.283 604.198 326.377 604.198 326.377C604.198 326.377 605.567 328.046 606.018 328.65C606.477 329.263 606.621 329.416 607.837 330.174C609.053 330.931 608.143 331.23 608.143 331.689V333.511C608.143 333.511 606.621 334.873 604.955 336.243C603.288 337.605 603.594 337.299 602.837 337.911C602.08 338.516 602.378 338.822 602.08 339.58C601.774 340.337 601.621 341.7 601.323 342.61C601.017 343.521 600.558 343.828 600.333 344.585C600.108 345.343 598.892 346.407 598.747 347.164C598.594 347.922 598.441 349.897 598.441 349.897L602.531 352.774L608.143 359.601V364.002C608.143 364.002 605.712 367.951 605.108 368.403C604.504 368.862 602.837 370.684 602.837 370.684L600.333 375.077C598.288 377.809 599.955 380.235 600.333 381.146C600.711 382.057 607.837 390.858 607.837 390.858V393.897L606.018 397.234L603.747 400.417L601.621 402.844L600.333 405.27V406.793L602.531 407.696C603.9 408.155 611.324 416.651 611.928 417.561C612.539 418.472 613.296 419.23 614.657 421.503C616.018 423.784 615.414 424.235 615.567 425.146C615.72 426.057 615.567 433.794 615.567 434.705C615.567 435.616 616.477 439.412 616.477 439.412C616.477 439.412 616.783 442.596 616.928 443.047C617.081 443.507 616.928 444.869 616.928 446.384C616.928 447.9 616.783 448.512 616.783 449.423V456.854C616.783 458.378 617.387 458.523 617.838 459.893C618.296 461.255 617.693 462.472 617.838 463.383C617.991 464.294 617.234 467.171 617.234 467.171C617.234 467.171 617.838 469.146 617.991 470.363C618.144 471.572 617.991 472.177 617.991 472.942C617.991 473.708 617.693 474.909 617.693 475.368C617.693 475.828 618.594 477.19 618.594 477.19L619.657 501.765L620.116 503.28C620.116 503.28 620.414 505.561 620.414 506.472C620.414 507.383 620.72 511.776 620.567 513.751C620.414 515.725 620.414 517.547 620.269 518.305C620.116 519.062 621.783 533.627 621.783 533.627C621.783 533.627 622.081 540.454 622.081 541.058C622.081 541.663 622.387 550.166 622.846 552.133C623.297 554.107 623.144 553.503 623.144 553.954C623.144 554.406 622.991 565.335 622.991 565.335C622.991 565.335 623.45 568.068 624.053 569.131C624.657 570.187 624.053 569.131 624.359 571.558C624.657 573.984 624.359 574.29 624.359 578.231V582.326C624.359 584.147 624.359 583.994 624.206 586.428C624.053 588.855 624.206 588.097 624.206 590.37C624.206 592.643 624.359 591.281 624.81 593.4C625.269 595.528 624.81 595.069 624.81 598.559C624.81 602.049 624.657 599.929 624.657 601.138C624.657 602.347 625.116 603.266 625.567 605.692C626.026 608.118 626.026 607.965 626.324 611.157C626.63 614.341 626.324 616.315 626.324 616.92C626.324 617.524 627.234 625.568 627.234 626.173C627.234 626.777 627.089 627.994 627.089 629.365C627.089 630.735 627.089 631.944 626.936 633.757C626.783 635.579 627.234 636.038 627.234 638.158C627.234 640.278 627.54 640.286 627.387 643.172C627.234 646.049 627.54 644.534 627.54 648.177C627.54 651.82 627.693 650.297 627.846 652.723C627.999 655.157 627.999 653.94 628.297 655.761C628.603 657.583 628.603 657.124 628.756 659.55C628.901 661.984 628.756 661.073 628.756 664.708C628.756 668.343 628.756 667.287 628.603 668.964C628.45 670.632 628.297 671.841 628.144 672.446C627.999 673.058 628.297 675.178 628.297 675.178L628.554 676.806C628.216 677.04 627.999 677.153 627.999 677.153C627.999 677.153 621.936 666.53 620.72 665.321C619.504 664.104 615.494 660.235 614.585 658.719C613.675 657.204 613.143 656.898 612.234 653.561C611.324 650.224 609.158 646.009 607.99 643.47C606.976 641.269 605.671 639.73 606.171 635.579C606.501 632.806 605.043 631.597 604.431 630.082C603.828 628.567 602.233 627.156 602.539 626.245C602.845 625.335 602.837 622.836 602.539 620.716C602.241 618.588 602.539 613.736 602.241 612.825C601.935 611.914 600.422 609.488 600.422 607.965C600.422 606.442 599.512 602.508 599.512 602.508V592.796L599.737 586.727C599.737 586.727 601.557 567.382 604.963 560.781L610.647 552.592L613.602 549.408C613.602 549.408 614.287 547.813 614.512 546.902C614.738 545.991 614.738 545.54 615.197 544.854C615.647 544.169 617.242 542.122 617.467 541.437C617.636 540.945 618.981 539.132 619.689 538.189C619.955 537.834 619.963 537.35 619.706 536.996L618.417 535.174C618.047 534.65 617.29 534.602 616.855 535.069C614.955 537.101 610.454 541.921 609.737 542.815C608.828 543.952 606.557 548.957 605.196 549.642C603.827 550.327 602.467 552.6 602.467 552.6C602.467 552.6 600.647 556.01 600.422 556.695C600.188 557.38 602.241 554.647 599.512 559.201C596.782 563.747 596.557 563.981 596.323 564.892C596.098 565.803 594.963 568.076 594.963 569.212C594.963 570.349 594.053 573.081 593.602 573.992C593.143 574.903 592.555 575.813 591.943 576.95C591.323 578.086 591.098 581.044 590.647 581.955C590.188 582.866 587.684 590.378 587.684 590.378C587.684 590.378 581.097 614.502 584.962 641.584L585.872 647.427C585.872 647.427 586.629 650.305 586.927 651.216C587.233 652.126 588.594 658.8 588.747 659.413C588.9 660.017 589.962 663.201 589.962 663.813C589.962 664.426 590.719 668.512 590.719 669.27C590.719 670.028 591.798 671.849 591.943 673.22C592.08 674.582 593.9 677.766 594.053 678.378C594.206 678.983 597.99 686.261 598.143 686.873C598.296 687.478 598.602 689.904 599.359 690.508C600.116 691.121 600.116 692.032 602.386 693.7C604.665 695.369 605.575 697.19 607.088 698.552C608.602 699.923 610.269 703.106 610.728 703.26C611.179 703.405 611.179 703.711 612.242 704.17L613.304 704.622C613.304 704.622 614.214 704.775 615.881 705.533C617.548 706.29 617.999 711.295 616.791 712.359C615.575 713.423 613.151 709.474 613.151 709.474C613.151 709.474 613.755 707.805 612.692 707.048C611.638 706.29 609.512 704.775 608.602 704.017C607.692 703.26 607.088 702.196 605.873 701.132C604.665 700.068 604.818 700.068 603.296 698.101C601.782 696.126 600.873 694.764 599.81 693.547C598.755 692.33 598.449 692.483 597.692 690.815C596.935 689.146 595.413 687.325 595.268 686.116C595.116 684.899 592.096 679.136 591.943 678.676C591.782 678.225 590.566 674.13 590.26 672.913C589.962 671.696 588.296 664.571 588.296 664.571C588.296 664.571 588.143 662.903 587.684 661.686C587.233 660.469 585.872 656.68 585.719 656.076C585.566 655.463 583.296 649.394 583.296 649.394C583.296 649.394 581.476 635.442 581.323 634.982C581.17 634.531 581.017 634.531 581.017 632.097C581.017 629.663 581.17 628.913 581.017 627.551C580.864 626.181 581.017 626.181 580.864 623.908C580.719 621.635 580.26 622.086 580.566 619.813C580.864 617.532 581.17 616.775 581.323 615.566C581.476 614.349 581.774 614.042 581.774 612.833C581.774 611.624 581.927 610.552 581.323 609.65C580.719 608.739 579.809 607.675 579.809 607.07C579.809 606.466 580.864 604.185 580.864 603.427V601.452C580.864 600.542 578.593 599.478 578.593 599.478C578.593 599.478 576.476 604.032 576.476 604.491C576.476 604.951 575.107 607.369 575.26 607.973C575.413 608.586 575.711 611.165 575.566 611.769C575.413 612.374 574.197 614.502 574.044 615.864C573.899 617.234 573.44 619.201 573.746 620.571C574.044 621.933 574.197 623.602 574.197 624.819V629.219C574.197 630.13 574.35 631.799 574.503 633.62C574.656 635.442 574.656 636.498 574.656 638.166C574.656 639.835 574.503 639.835 574.954 643.631C575.413 647.427 576.621 651.973 576.621 652.586C576.621 653.198 578.287 659.106 578.44 659.558C578.593 660.017 580.413 667.295 580.26 669.875L580.566 672.76L583.143 675.186L585.107 682.013L589.503 690.057L590.719 692.943L593.143 694.764C593.143 694.764 595.872 700.979 596.476 702.042C597.088 703.106 601.331 706.137 601.331 706.137L603.602 707.507L604.963 710.24L607.692 715.092H612.845L612.998 718.429C612.998 718.429 612.395 719.791 612.845 720.097C613.304 720.403 614.061 721.008 614.512 721.008H618.458L622.926 715.092C622.926 715.092 624.52 713.496 624.746 712.585C624.971 711.674 625.881 709.853 626.566 709.176C627.242 708.491 627.701 707.58 628.611 706.443C629.521 705.307 631.566 704.17 631.566 704.17C634.295 701.212 634.746 700.527 635.882 699.391C637.025 698.246 638.611 696.884 639.07 695.973C639.521 695.062 639.746 695.062 640.656 693.926C641.566 692.789 641.341 693.015 643.16 691.194C644.98 689.372 645.431 688.921 646.341 688.236C647.251 687.55 649.755 683.915 649.755 683.915C649.755 683.915 651.574 681.183 652.251 680.957C652.935 680.724 656.116 678.902 657.025 678.451C657.935 677.999 661.575 675.944 661.575 675.944L662.026 683.569V698.367L663.958 699.842L666.913 698.818C666.913 698.818 666.462 696.312 666.462 695.86C666.462 695.409 667.259 694.837 666.913 693.587C666.575 692.33 667.203 691.992 667.002 690.629C666.8 689.259 666.824 689.146 667.042 688.461C667.259 687.784 667.71 687.897 667.597 686.986C667.485 686.075 668.088 685.503 667.613 684.592C667.146 683.682 666.575 683.117 666.575 682.094C666.575 681.07 666.462 681.183 666.575 680.159C666.687 679.136 666.687 678.225 666.687 677.766C666.687 677.306 666.687 676.855 666.8 675.605C666.913 674.356 667.034 674.13 667.034 673.22C667.034 672.309 667.203 670.826 667.799 670.487C668.394 670.141 680.214 663.66 680.214 663.66C680.214 663.66 681.35 661.952 681.696 661.613C682.034 661.266 681.124 661.041 682.719 661.041H685.102C685.673 661.041 686.583 661.154 687.147 660.928C687.719 660.702 688.967 660.13 688.967 660.13C688.967 660.13 688.516 659.219 688.967 657.97C689.426 656.721 688.628 656.148 688.967 655.576C689.313 655.012 689.828 655.012 689.112 653.875C688.403 652.731 687.719 651.941 687.38 651.82C687.034 651.707 685.786 651.594 685.215 651.707C684.651 651.82 680.786 654.214 680.786 654.214C680.786 654.214 678.507 655.238 678.169 655.35C677.831 655.463 676.696 655.81 676.35 656.148C676.011 656.487 675.102 657.398 674.643 657.744C674.192 658.083 673.395 658.881 673.056 659.106C672.71 659.332 672.147 659.679 671.688 659.792C671.237 659.904 667.372 661.839 667.372 661.839L666.913 656.035C666.913 656.035 667.71 654.101 667.823 653.642C667.935 653.19 667.71 650.119 667.823 649.773C667.935 649.434 667.935 647.048 667.935 647.048L669.079 641.697L668.507 638.964L667.597 636.804L668.394 625.883C668.394 625.883 668.966 624.174 668.845 623.037C668.733 621.901 668.394 620.079 668.282 618.258C668.169 616.436 668.056 614.042 668.056 612.567V610.294L668.322 595.988C668.322 595.988 668.62 587.492 668.467 585.824C668.322 584.156 668.467 574.596 668.322 574.145C668.169 573.685 669.53 507.996 669.53 507.996C669.53 507.996 669.079 471.129 669.079 469.307C669.079 467.486 669.53 437.446 669.53 434.713C669.53 431.981 672.71 355.974 672.71 355.974C672.71 355.974 671.349 352.331 671.8 349.599C672.259 346.866 672.259 340.95 672.259 340.95V330.544C672.259 330.544 673.773 284.207 673.773 282.692C673.773 281.176 673.773 276.316 674.079 272.979C674.377 269.642 674.377 262.058 674.683 259.93C674.989 257.81 674.989 253.861 675.287 252.652C675.593 251.435 673.773 241.424 674.079 240.513C674.377 239.602 674.683 237.176 674.683 234.444C674.683 231.712 674.989 229.285 674.989 227.464C674.989 225.642 675.287 224.732 675.287 222.007C675.287 219.283 675.593 218.058 675.287 214.415C674.989 210.779 673.773 209.256 674.377 206.83C674.989 204.404 675.287 204.098 675.287 202.889C675.287 201.68 674.989 196.819 674.989 195.602C674.989 194.385 674.683 192.87 674.989 191.959C675.287 191.056 675.287 187.711 675.287 187.711H689.474C690.142 187.711 692.268 187.711 693.476 187.413C694.691 187.107 695.601 186.801 697.115 187.107C698.629 187.413 696.205 187.413 698.629 187.413H705.602C705.602 187.413 717.422 188.929 718.331 188.622C719.241 188.324 726.214 188.018 727.124 188.018C728.034 188.018 733.34 190.291 733.34 190.291L735.916 191.661V184.987C735.916 184.987 737.277 180.433 737.124 179.974C736.979 179.522 739.25 179.676 739.25 179.676L740.007 177.096L735.312 177.249C735.312 177.249 734.403 175.879 734.403 175.275C734.403 174.67 734.403 174.058 734.701 173.453C735.007 172.849 735.916 172.091 735.916 171.632C735.916 171.172 736.214 169.512 736.214 168.899C736.214 168.287 736.214 166.022 736.069 165.409C735.916 164.805 735.007 162.983 735.007 162.532C735.007 162.08 735.16 161.008 735.16 161.008L735.61 159.493C735.61 159.493 735.916 153.843 736.367 152.626C736.826 151.417 738.187 151.602 738.791 149.023C739.403 146.444 740.466 145.686 740.007 144.63C739.556 143.566 739.556 142.656 739.25 142.051C738.944 141.438 737.889 140.528 737.889 140.528L736.367 140.681L734.097 143.107C734.097 143.107 733.034 143.566 732.583 144.324C732.124 145.082 731.061 147.056 730.916 147.814C730.763 148.572 731.52 149.176 730.457 149.789C729.394 150.393 728.034 150.845 727.583 150.998C727.124 151.151 725.457 150.845 724.7 150.998C723.943 151.151 725.304 150.546 723.943 151.151C722.575 151.755 723.79 152.215 721.52 152.368C719.241 152.513 715.457 152.819 715.457 152.819H712.88C712.88 152.819 711.061 153.73 710.449 153.73C709.837 153.73 705.449 153.271 705.449 153.271C705.449 153.271 702.268 153.73 701.664 153.577C701.052 153.424 701.052 152.819 699.539 152.819C698.025 152.819 696.358 153.126 695.899 153.271C695.448 153.424 693.178 154.641 692.719 154.488C692.268 154.335 688.323 153.424 688.323 153.424H684.385C683.628 153.424 681.205 153.126 680.593 152.972C679.989 152.819 674.989 152.819 674.989 152.819L675.899 129.074C675.899 129.074 676.35 124.754 676.35 123.158C676.35 121.562 675.899 115.646 675.899 114.058C675.899 112.47 675.44 104.04 675.665 102.903C675.899 101.767 676.124 88.5642 676.124 86.7426C676.124 84.921 676.35 82.1967 676.35 81.2859C676.35 80.3751 675.899 75.8212 675.899 75.8212C675.899 75.8212 679.989 73.0888 679.989 72.4118C679.989 71.7347 680.44 70.1308 681.124 68.7686C681.809 67.3984 684.305 63.5295 684.305 63.5295C684.305 63.5295 685.673 61.0309 685.899 60.1201C686.124 59.2093 686.583 57.3877 686.583 57.3877C686.583 57.3877 714.99 84.4697 740.119 84.4697L745.466 86.0656C745.466 86.0656 749.781 87.202 751.15 87.202C752.519 87.202 754.556 85.8318 755.466 85.8318C756.376 85.8318 759.331 86.2913 760.015 86.5169C760.692 86.7426 763.196 86.7426 763.196 86.7426L765.241 85.6061C765.241 85.6061 765.015 83.3332 765.241 82.6481C765.466 81.963 765.241 80.8265 765.241 80.8265L765.346 79.2387C765.346 79.2387 765.7 78.7067 766.231 78.8598C766.755 79.0049 768.276 79.5369 768.276 79.5369L769.412 79.0855C769.412 79.0855 773.123 73.7739 773.123 73.5482C773.123 73.3226 773.808 72.4118 773.88 71.646C773.961 70.8884 774.484 68.7686 774.484 68.7686L776.916 67.3984L779.565 64.8191C779.565 64.8191 780.628 62.5462 780.926 61.0309C781.232 59.5156 781.385 58.2985 782.294 57.3877C783.204 56.4769 785.934 54.204 785.934 54.204C785.934 54.204 786.538 50.5608 787.448 50.1095C788.357 49.65 801.393 36.4476 801.393 36.4476C801.393 36.4476 804.348 33.0382 804.348 32.3531V27.7991C804.348 27.1221 801.619 7.31841 787.745 4.58603L787.737 4.57797ZM675.432 181.03C675.432 181.03 676.873 180.578 677.67 180.425C678.467 180.272 679.321 180.731 680.939 180.425C682.557 180.119 684.377 180.965 685.287 180.393C686.197 179.821 686.044 179.668 688.467 179.668H695.891C697.107 179.668 698.17 179.966 699.684 179.668C701.197 179.361 703.476 179.668 704.386 179.668C705.296 179.668 706.809 179.393 708.323 179.53C709.837 179.668 711.656 179.321 713.629 179.49C715.594 179.668 717.566 178.918 718.935 179.442C720.296 179.966 721.657 179.708 722.72 180.143C723.782 180.578 725.9 181.03 726.512 181.03H731.512C732.728 182.545 732.422 184.826 732.422 184.826C732.422 184.826 728.332 185.277 727.873 184.826C727.422 184.367 725.755 184.367 725.143 184.068C724.539 183.762 725.143 183.609 723.629 183.609C722.116 183.609 721.053 183.762 720.143 183.762H718.025C717.269 183.762 715.747 183.609 714.692 183.609H711.206C710.143 183.609 709.837 183.915 707.864 183.762C705.899 183.609 706.503 183.609 704.99 183.609H700.593C700.134 183.609 699.378 183.762 698.774 183.762C698.17 183.762 697.107 183.609 696.503 183.609C695.899 183.609 695.44 183.311 694.377 183.311C693.315 183.311 692.558 183.456 691.35 183.456C690.142 183.456 689.53 183.609 688.314 183.609C687.099 183.609 686.954 183.762 685.891 183.762H682.71C682.099 183.762 681.591 183.609 680.939 183.456C680.287 183.311 679.071 183.456 678.467 183.456C677.863 183.456 675.432 183.311 675.432 183.311V181.03ZM631.381 610.093V594.013C631.381 594.013 630.72 591.128 630.575 590.676C630.422 590.217 630.422 586.88 630.422 586.428C630.422 585.977 630.72 581.415 631.179 580.964C631.63 580.504 631.179 578.538 631.179 578.538L629.666 572.468C629.666 572.468 629.054 566.85 628.756 565.488C628.45 564.126 628.756 563.36 628.756 563.36C628.756 563.36 628.144 554.107 627.999 553.503C627.846 552.898 627.999 550.617 627.846 549.255C627.693 547.885 627.846 547.587 627.846 547.587L628.756 544.395C628.756 544.395 628.297 540.147 627.999 539.091C627.693 538.028 626.493 534.078 626.493 534.078C626.493 534.078 626.179 511.478 626.429 510.865C626.67 510.26 626.179 509.197 626.348 506.617C626.525 504.038 626.324 504.344 626.348 503.28C626.364 502.225 626.348 498.581 626.348 498.581L625.873 493.576C625.873 493.576 626.936 490.691 625.873 489.78C624.81 488.869 623.901 468.695 623.901 468.695V462.319L623.45 460.191C623.45 460.191 622.991 455.186 623.144 454.734C623.297 454.275 622.991 453.066 622.846 450.938C622.846 450.938 622.234 446.537 622.081 445.627C621.936 444.716 622.234 442.596 622.387 441.991C622.54 441.379 622.991 438.195 622.234 436.978C621.477 435.769 621.63 426.21 621.63 426.21C621.63 426.21 621.324 425.299 620.567 424.541C619.81 423.784 619.206 421.656 619.206 421.656L619.359 418.625L619.81 413.765C619.81 413.765 617.693 413.007 616.477 410.428C615.261 407.849 614.81 407.244 614.81 407.244L608.441 402.247C608.441 402.247 609.81 396.774 610.261 396.017C610.72 395.259 611.775 396.017 611.775 396.017C611.775 396.017 612.99 393.284 613.441 392.22C613.9 391.164 615.261 388.126 615.567 387.215C615.873 386.304 615.72 382.814 615.72 382.814C615.72 382.814 612.684 380.235 612.081 379.784C611.477 379.324 608.288 375.536 606.171 374.021C606.171 374.021 606.927 372.046 607.386 371.441C607.837 370.829 608.288 370.829 609.81 369.918C609.81 369.918 610.414 367.492 610.567 366.13C610.72 364.76 610.567 366.13 612.081 362.793C613.594 359.456 612.99 361.882 613.747 361.423C614.504 360.971 615.261 359.601 615.72 359.303C616.171 358.997 616.324 357.933 616.63 357.022C616.928 356.111 616.477 354.298 616.477 354.298C616.477 354.298 615.261 353.081 614.504 352.476C613.747 351.863 612.684 350.501 612.234 350.195C611.775 349.897 610.567 348.986 609.198 348.075C607.837 347.164 607.837 346.407 607.233 345.496C606.621 344.585 606.324 343.521 606.324 343.521C606.324 343.521 606.774 342.312 607.233 341.7C607.684 341.095 608.441 340.337 609.198 339.427C609.963 338.516 610.261 338.065 610.865 337.452C611.477 336.848 611.63 335.784 612.234 334.72C612.837 333.664 614.206 331.085 614.206 331.085L615.116 327.288L615.261 325.168C615.261 325.168 614.053 323.492 613.143 322.589C612.234 321.678 611.63 321.219 611.018 320.913C610.414 320.614 609.053 319.551 607.837 319.099C606.621 318.64 605.865 317.124 604.81 314.787C604.81 314.787 606.324 310.902 608.143 308.927C609.963 306.961 610.567 305.744 611.018 305.139C611.477 304.535 615.261 301.496 615.261 301.496L614.206 296.031L612.539 294.064C612.539 294.064 608.594 289.817 607.99 289.357C607.386 288.906 604.955 286.02 604.955 286.02C604.955 286.02 604.198 283.441 604.504 281.62C604.81 279.798 609.657 275.704 609.657 275.704L614.351 271.762C613.441 271.303 612.99 266.749 612.99 266.749C612.99 266.749 612.387 264.782 612.234 264.323C612.081 263.871 611.63 260.986 611.171 259.777C610.72 258.56 611.018 257.198 611.018 257.198C611.018 257.198 610.72 254.465 610.72 253.853V251.273L609.81 249.307C609.81 249.307 609.053 247.026 608.9 246.268C608.747 245.51 608.441 242.48 608.441 242.48C608.441 242.48 608.288 238.837 608.143 237.926C607.99 237.015 608.594 234.436 608.747 233.678C608.9 232.921 608.747 230.188 608.9 229.124C609.053 228.06 608.594 226.094 608.441 224.723C608.288 223.361 608.594 221.999 608.594 221.999C608.594 221.999 607.531 214.866 607.386 213.802C607.233 212.738 607.386 211.529 607.386 210.465C607.386 209.401 607.386 206.822 607.531 205.613C607.684 204.396 607.531 203.485 607.684 201.664C607.837 199.842 607.684 199.084 607.837 196.964C607.99 194.837 607.837 194.079 607.837 194.079L608.288 191.5C608.288 191.5 610.108 190.589 612.234 190.79C614.351 190.992 614.504 190.79 614.504 190.79C614.504 190.79 615.72 190.436 616.477 190.742C617.234 191.048 620.116 189.831 620.116 189.831L622.564 190.218C622.62 190.774 622.709 191.298 622.918 191.653C623.369 192.451 623.828 193.241 623.715 193.587C623.603 193.926 623.256 194.949 622.918 196.433C622.58 197.908 622.234 197.682 622.58 199.503C622.918 201.325 623.409 204.057 623.731 204.847C624.053 205.645 623.731 207.128 623.731 207.128L622.693 209.748L623.876 229.584C623.876 229.584 624.15 232.461 623.876 233.219C623.603 233.984 623.635 236.564 623.997 237.321C624.359 238.079 623.482 239.747 623.997 241.867C624.512 243.995 623.667 246.115 624.086 247.937C624.512 249.758 623.369 250.822 624.166 252.95C624.963 255.07 625.873 260.534 625.873 261.139C625.873 261.743 625.422 274.793 625.873 282.224C626.324 289.664 626.783 376.294 627.387 379.477C627.999 382.669 627.387 400.796 627.387 400.796C627.387 400.796 627.854 402.158 627.661 403.069C627.467 403.98 627.709 408.308 627.709 408.308V414.91C627.709 414.91 627.041 419.689 627.709 421.277C628.377 422.873 627.709 427.427 627.709 427.427C627.709 427.427 627.403 429.7 627.999 430.385C628.603 431.062 629.513 438.574 629.513 439.71C629.513 440.847 629.287 449.955 629.513 451.317C629.738 452.687 629.513 458.144 629.513 458.144C629.513 458.144 629.029 461.561 629.609 462.698C630.189 463.834 629.609 468.388 629.609 468.388L629.867 471.572L631.099 532.789C631.099 532.789 630.873 538.479 631.099 540.301C631.332 542.122 632.468 558.283 632.468 558.283V564.884C632.468 565.561 632.009 566.931 632.468 569.43C632.918 571.936 632.242 572.621 632.468 574.209C632.693 575.805 632.79 576.942 632.629 579.215C632.468 581.496 632.709 589.008 632.709 589.008C632.709 589.008 632.951 597.422 632.709 599.018C632.468 600.614 632.709 604.709 632.814 606.756C632.918 608.803 632.814 612.898 632.814 612.898L632.862 615.405L631.381 610.093ZM608.143 185.632V182.223C608.787 182.247 609.319 182.247 609.504 182.206C610.076 182.094 612.459 181.981 612.918 181.981C613.377 181.981 616.437 181.634 616.437 181.634L619.625 181.296L621.324 180.957L622.347 183.23C622.347 183.23 622.306 184.004 622.274 184.955C622.274 184.955 619.657 185.277 618.296 185.027C616.928 184.778 616.928 185.277 616.477 185.027C616.018 184.778 614.053 185.277 612.99 185.027C611.928 184.778 611.324 185.277 610.72 185.688C610.237 186.011 608.9 185.664 608.143 185.632ZM628.804 96.9789C629.078 97.2852 628.675 117.54 628.804 117.838C628.933 118.145 629.054 123.988 628.804 125.278C628.554 126.568 628.981 132.105 628.804 133.161C628.627 134.225 629.207 135.74 629.207 135.974C629.207 136.207 629.432 137.787 629.432 138.319V143.631C629.432 143.856 629.432 146.516 629.513 147.58C629.585 148.636 629.432 152.279 629.36 153.118C629.287 153.948 629.36 155.165 629.36 156.374C629.36 157.583 629.432 158.953 629.432 160.396C629.432 161.839 629.432 163.354 629.585 164.571C629.738 165.78 630.044 170.56 630.044 170.56V175.186C630.044 175.646 630.116 182.924 630.116 183.391C630.116 183.859 630.342 195.594 630.342 195.594C630.342 195.594 630.648 198.633 630.72 199.463C630.801 200.301 630.801 201.059 630.873 202.574C630.954 204.09 631.026 204.775 631.026 206.217C631.026 207.66 630.954 208.418 630.954 208.869C630.954 209.321 631.179 214.56 631.179 214.56C631.179 214.56 631.332 234.968 631.332 236.185C631.332 237.402 631.252 239.062 631.252 239.522C631.252 239.981 631.735 242.02 631.735 242.02L631.63 257.875C631.63 257.875 631.864 269.715 631.63 270.094C631.405 270.473 631.63 274.793 631.63 274.793L630.575 294.29V275.397L629.891 258.632C629.891 258.632 629.36 248.315 629.207 248.09C629.054 247.864 629.432 242.778 629.513 242.552C629.585 242.327 628.981 232.84 628.941 232.614C628.893 232.389 628.941 221.846 628.941 221.846C628.941 221.846 628.828 213.955 628.901 212.44C628.981 210.917 628.901 207.507 628.901 207.507V200.978C628.901 200.978 628.675 197.875 628.353 197.343C628.031 196.811 628.224 194.305 628.305 193.628C628.385 192.942 628.377 192.032 628.273 191.725C628.176 191.427 628.377 188.542 628.273 187.937C628.176 187.325 628.144 185.962 628.256 185.358C628.377 184.745 627.693 182.142 627.693 182.142L628.256 177.999C628.256 177.999 627.693 167.98 627.693 167.642C627.693 167.303 627.121 164.684 627.008 164.224C626.896 163.773 627.008 158.993 627.008 158.993L626.485 147.612L626.429 137.489C626.429 137.489 626.558 132.597 626.429 132.25C626.3 131.911 626.429 128.841 626.429 128.841V119.281L626.324 110.181C626.324 110.181 626.558 99.0262 626.324 98.5748C626.099 98.1154 626.324 93.9081 626.324 93.9081L625.873 84.2359C627.089 83.4783 627.846 84.2359 628.071 84.6148C628.297 84.9936 628.603 89.1687 628.804 89.3944C629.005 89.6201 628.522 96.6727 628.804 96.9789ZM669.747 196.207C669.86 197.456 669.747 197.4 669.747 198.077C669.747 198.754 669.691 203.485 669.441 204.339C669.192 205.194 669.522 205.42 669.441 206.105C669.361 206.782 669.127 210.368 669.127 210.771C669.127 211.174 669.127 211.964 669.071 212.988C669.014 214.012 669.071 215.092 669.071 215.946C669.071 216.8 669.014 217.824 669.014 218.219C669.014 218.614 669.071 222.491 669.369 223.514C669.667 224.538 668.958 224.191 669.288 225.562C669.61 226.924 668.837 227.27 669.159 227.947C669.481 228.633 669.071 229.318 669.119 230.793C669.167 232.276 669.184 231.365 669.119 232.05C669.055 232.727 668.958 233.187 669.071 234.323C669.184 235.46 669.071 235.234 669.071 236.257C669.071 237.281 668.725 238.192 668.499 239.554C668.274 240.924 668.386 241.722 668.386 242.633C668.386 243.544 668.386 244.108 668.499 244.68C668.612 245.244 668.499 250.25 668.499 250.709V256.174C668.499 258.56 668.499 257.875 668.499 258.334C668.499 258.793 668.725 267.095 668.612 268.119C668.499 269.143 668.612 269.368 668.612 271.19V277.904C668.612 278.476 668.612 278.815 668.499 281.547C668.386 284.28 667.364 283.369 667.364 283.369L666.671 279.613C666.671 279.613 666.567 273.584 666.671 273.012C666.776 272.439 666.567 271.528 666.744 270.739C666.929 269.941 666.454 266.297 666.808 265.161C667.163 264.025 666.567 262.767 666.808 261.405C667.042 260.043 666.808 257.875 666.808 257.875C666.808 257.875 666.905 254.119 666.84 251.394C666.768 248.662 666.84 249.113 666.84 249.113C666.84 249.113 666.905 241.601 666.84 240.699C666.776 239.788 667.13 237.732 666.897 236.709C666.663 235.685 667.243 235.347 666.969 234.774C666.704 234.21 667.243 233.074 667.098 232.05C666.953 231.026 666.897 229.318 667.114 228.745C667.332 228.181 667.018 226.126 667.114 224.989C667.219 223.853 667.13 222.031 667.122 220.323C667.106 218.622 667.171 217.252 667.171 217.252C667.171 217.252 667.018 208.152 667.235 207.813C667.46 207.467 667.018 206.443 667.235 204.622C667.46 202.8 667.356 201.551 667.251 200.527C667.154 199.503 667.581 196.545 667.356 195.747C667.13 194.949 667.356 190.629 667.356 190.629L667.919 182.142L669.063 115.412V83.9135L669.175 139.423L669.208 166.618L669.288 179.256C669.288 179.256 669.401 183.399 669.401 183.714C669.401 184.028 669.626 188.751 669.57 189.259C669.514 189.775 669.626 192.846 669.795 193.362C669.956 193.869 669.626 194.949 669.739 196.207H669.747ZM680.778 53.7365C680.094 54.3088 679.184 57.7182 678.958 58.9756C678.733 60.2249 675.544 63.7552 675.319 64.3194C675.093 64.8917 674.071 66.7133 673.725 67.6241C673.387 68.5349 671.792 70.2355 671.229 71.0335C670.657 71.8314 667.364 75.4746 667.026 75.926C666.679 76.3854 665.77 76.3854 665.431 76.4982C665.093 76.6111 662.702 76.9496 661.792 77.1833C660.882 77.409 659.634 77.1833 659.175 77.1833C658.716 77.1833 655.431 77.0624 654.062 77.1833C652.702 77.2962 652.017 77.5219 651.566 77.6347C651.107 77.7475 649.859 78.0861 649.288 78.4327C648.724 78.7712 644.746 78.5455 643.265 78.6583C641.783 78.7712 640.648 78.7712 639.972 78.7712C639.295 78.7712 633.941 78.6583 633.49 78.6583C633.039 78.6583 623.49 78.7712 622.918 78.6583C622.347 78.5455 621.783 78.6583 620.76 78.7712C619.738 78.884 616.783 78.6583 615.189 78.6583C613.594 78.6583 613.707 78.6583 613.031 78.5455C612.346 78.4327 610.865 78.5455 610.188 78.5455C609.512 78.5455 609.279 78.6583 608.707 78.884C608.143 79.1178 607.233 78.9969 606.662 78.9969C606.09 78.9969 605.188 77.8604 605.188 77.8604C605.188 77.8604 604.166 78.0861 603.369 78.7712C602.571 79.4563 602.797 81.6164 602.797 81.6164C605.526 86.6217 609.657 83.0189 610.567 82.8657C611.477 82.7206 613.9 83.172 613.9 83.172L618.675 84.0828V85.1467C618.675 86.2106 618.747 86.4363 618.9 87.4197C619.053 88.403 619.359 90.0795 619.504 91.0628C619.657 92.0462 619.432 92.8844 619.053 95.5362C618.675 98.196 618.981 97.1321 618.828 98.4942C618.675 99.8645 618.594 100.695 618.594 101.605C618.594 102.516 618.981 102.976 619.206 103.959C619.432 104.942 619.738 104.942 620.269 106.006C620.793 107.07 620.648 107.368 620.648 107.9V110.858C620.648 111.165 620.873 118.83 620.873 118.83L621.308 121.329C621.743 123.835 620.648 124.287 621.308 127.47C621.976 130.662 620.648 129.977 621.308 132.024C621.976 134.072 620.873 134.305 621.308 136.119C621.743 137.94 620.873 138.4 620.873 139.988C620.873 141.575 620.873 139.988 621.308 141.809C621.743 143.631 620.873 143.405 621.308 145.227C621.743 147.048 621.324 147.725 621.308 149.321C621.292 150.917 621.324 152.279 621.308 154.552H609.053L608.594 152.054L609.729 146.589C609.729 146.589 610.414 142.494 610.414 140.447C610.414 138.4 611.098 138.174 611.098 138.174L611.775 133.644L608.369 129.977C608.369 129.977 607 131.339 606.549 132.935C606.098 134.531 604.278 132.935 604.278 132.935C604.278 132.935 602.91 132.024 602.233 131.573C601.549 131.113 599.504 130.203 597.909 129.526C596.315 128.841 594.729 127.704 594.729 127.704C594.729 127.704 591.774 125.657 590.18 123.706C588.586 121.756 588.135 123.601 588.135 123.601C588.135 123.601 586.999 123.835 586.09 123.601C585.18 123.376 584.954 121.788 584.044 120.643C583.135 119.507 580.856 118.596 579.721 117.919C578.585 117.234 577.901 116.098 576.766 115.412C575.63 114.727 575.179 113.816 573.585 112.003C571.991 110.181 572.675 109.496 571.991 107.449C571.315 105.402 571.765 104.942 571.765 104.942L568.585 100.848C568.585 100.848 567.216 98.3411 566.765 97.2046C566.306 96.0682 564.036 90.8371 564.036 90.8371V81.9549C564.036 79.682 563.585 79.9077 563.126 78.3198C562.675 76.7239 562.9 77.1833 563.126 76.0388C563.351 74.9023 564.036 74.2172 564.446 73.5402C564.849 72.8551 564.036 70.8078 564.487 69.2119C564.946 67.6241 564.261 67.1646 564.487 65.1174C564.72 63.0701 565.855 62.1593 566.765 61.4742C567.675 60.7972 566.306 58.7418 566.765 58.0648C567.216 57.3797 566.765 56.2432 566.765 55.3324C566.765 54.4216 567.45 53.0595 568.352 51.6892C569.261 50.3271 569.261 50.5528 570.405 49.1906C571.54 47.8204 571.081 47.8204 572.216 47.4255C573.36 47.0225 572.901 45.088 574.036 43.9516C575.179 42.8151 576.081 42.5894 577.45 41.6786C578.811 40.7678 578.585 40.7678 579.27 39.857C579.946 38.9462 583.811 36.2139 584.495 35.9882C585.18 35.7625 589.729 35.3031 589.729 35.3031C592.684 33.0301 598.135 31.4342 599.955 31.3375C601.774 31.2327 603.819 31.6599 606.774 31.4342C609.729 31.2085 611.324 31.4342 612.459 31.4342H616.324L630.189 35.5288C630.189 35.5288 632.009 36.6733 634.054 38.0354C636.107 39.3976 635.873 40.0827 636.558 40.9935C637.242 41.9043 640.197 42.8151 640.882 43.0408C641.558 43.2664 641.783 43.7259 642.693 44.6367C643.603 45.5475 644.972 46.9096 646.107 48.5055C647.243 50.1014 647.468 50.7785 648.611 52.3744C649.747 53.9703 649.972 55.1067 650.656 56.2432C651.333 57.3797 653.378 58.9756 654.062 59.6526C654.747 60.3377 657.243 63.5215 657.243 63.5215C657.243 63.5215 659.296 62.6107 660.206 62.1593C661.108 61.708 662.927 60.7972 664.296 60.1121C665.657 59.4269 667.026 59.4269 667.927 58.9756C668.837 58.5161 670.657 58.0648 671.792 57.6054C672.936 57.154 674.071 56.2432 674.071 56.2432L679.755 53.6237C679.755 53.6237 681.454 53.1723 680.778 53.7365ZM751.819 79.9077H748.638C748.638 79.9077 746.368 79.4563 740.458 78.3198C734.54 77.1833 737.728 77.409 735.908 76.7239C734.089 76.0388 733.179 75.8131 730.836 75.5874C728.493 75.3618 728.863 74.6766 726.584 73.7659C724.314 72.8551 724.765 73.0807 722.945 72.17C721.133 71.2592 719.99 70.8078 718.17 70.1227C716.359 69.4456 715.674 68.9862 714.306 68.0754C712.945 67.1646 712.494 67.1646 709.539 65.8025C706.576 64.4323 705.674 63.7552 704.531 63.2958C703.395 62.8444 702.486 62.1593 701.35 61.4742C700.215 60.7972 697.485 58.5162 697.485 58.5162L693.621 54.6473L688.846 53.6237L690.44 50.3271L696.044 51.9149C696.044 51.9149 697.413 54.0428 698.017 54.3491C698.621 54.6473 699.684 55.5581 700.899 56.4689C702.107 57.3797 702.711 57.3797 703.774 58.2905C704.837 59.2013 705.899 59.5075 706.809 60.1121C707.719 60.7166 708.629 61.176 709.08 61.7805C709.539 62.385 711.809 63.1426 713.476 63.9003C715.143 64.666 714.386 64.666 714.837 65.1174C715.296 65.5768 716.053 66.0282 717.719 67.2452C718.146 67.5596 718.364 67.7047 718.444 67.7611C718.323 67.6241 717.993 67.3178 718.323 67.3903C718.935 67.5435 721.657 68.6074 723.323 69.365C724.998 70.1227 724.692 69.9696 727.575 71.0335C730.449 72.0974 727.575 71.0335 729.845 72.0974C732.116 73.1613 731.206 72.7019 733.332 73.4596C735.449 74.2172 734.998 74.2172 736.971 74.9829C738.936 75.7406 739.242 75.7406 741.512 76.4982C743.791 77.2559 743.936 77.1027 745.756 77.409C747.575 77.7072 749.548 77.8604 749.548 77.8604L753.187 78.1667L751.819 79.9077ZM791.377 36.4395C787.737 41.4529 785.016 44.8623 785.016 44.8623C785.016 44.8623 779.106 50.7785 778.422 51.0041C777.737 51.2379 772.512 53.5108 772.512 53.5108C772.512 53.5108 763.985 56.0659 731.415 36.6572C730.755 36.2622 730.634 35.3434 731.182 34.8033L735.683 30.2977C735.683 30.2977 740.683 26.8883 741.359 25.7438C742.044 24.6073 748.187 20.7385 748.864 20.2871C749.548 19.8277 751.368 16.4183 751.368 16.4183L755.458 14.371L758.413 16.1845L764.323 13.0008L767.962 11.4129C767.962 11.4129 770.466 12.09 771.143 12.7751L771.827 13.4602C771.827 13.4602 778.647 14.1372 780.918 15.5075C783.196 16.8696 785.467 18.0061 786.151 18.9169C786.836 19.8277 791.151 26.6546 791.377 27.3397C791.602 28.0248 795.016 31.4342 791.377 36.4395Z" fill="#ECECEC"/>
</g>
<defs>
<clipPath id="clip0_654_2404">
<rect width="722" height="721" fill="white" transform="translate(551)"/>
</clipPath>
</defs>
</svg>
