<svg width="1825" height="720" viewBox="0 0 1825 720" fill="none" xmlns="http://www.w3.org/2000/svg">
<g clip-path="url(#clip0_716_2494)">
<path d="M386.175 7.79227C395.846 7.79227 405.479 7.71396 415.151 7.71396C415.307 24.786 415.464 41.858 415.62 58.93C426.154 58.93 436.687 58.8908 447.181 58.8908C447.063 41.8188 446.946 24.7468 446.828 7.6748C456.539 7.6748 466.25 7.6748 475.922 7.6748C476.196 56.4631 476.431 105.212 476.705 154.001C467.072 154.001 457.479 154.001 447.846 154.001C447.69 134.266 447.572 114.531 447.416 94.7968C436.922 94.7968 426.428 94.7968 415.895 94.836C416.09 114.571 416.247 134.305 416.443 154.04C406.849 154.04 397.295 154.079 387.702 154.118C387.232 105.369 386.684 56.5806 386.175 7.79227Z" fill="#ECECEC"/>
<path d="M481.404 5.32517C506.464 5.20771 531.485 5.16855 556.545 5.12939C556.584 15.5449 556.623 25.9604 556.663 36.3759C541 36.3759 530.271 36.3759 514.608 36.4542C514.648 44.2071 514.726 51.9599 514.765 59.7128C529.253 59.6737 538.846 59.6345 553.373 59.6345C553.413 69.5801 553.452 79.5257 553.491 89.4714C539.003 89.4714 529.449 89.4714 514.961 89.5497C515.039 99.182 515.078 108.775 515.157 118.408C531.172 118.368 542.292 118.329 558.346 118.329C558.385 129.371 558.425 140.413 558.464 151.455C533.208 151.455 507.913 151.534 482.657 151.651C482.265 102.863 481.834 54.1135 481.443 5.32517H481.404Z" fill="#ECECEC"/>
<path d="M719.907 1.84031C744.967 1.72284 769.988 1.68369 795.048 1.64453C795.087 12.06 795.127 22.4755 795.166 32.891C779.503 32.891 768.774 32.891 753.112 32.9693C753.151 40.7222 753.229 48.4751 753.268 56.228C767.756 56.1888 777.35 56.1496 791.877 56.1496C791.916 66.0953 791.955 76.0409 791.994 85.9865C777.506 85.9865 767.952 85.9865 753.464 86.0648C753.542 95.6972 753.581 105.29 753.66 114.923C769.675 114.884 780.795 114.844 796.85 114.844C796.889 125.886 796.928 136.928 796.967 147.97C771.711 147.97 746.416 148.049 721.16 148.166C720.768 99.3778 720.337 50.6287 719.946 1.84031H719.907Z" fill="#ECECEC"/>
<path d="M587.675 2.70175C602.476 2.70175 617.316 2.70175 632.118 2.70175C640.889 2.70175 647.976 4.50293 653.38 8.10528C658.783 11.7076 663.247 16.8762 666.771 23.611C670.295 30.3459 672.84 38.1771 674.446 47.0655C676.051 55.993 676.834 65.4296 676.834 75.4144C676.834 91.0376 675.699 103.176 673.35 111.79C671.039 120.405 667.789 127.609 663.639 133.444C659.488 139.239 655.063 143.115 650.325 145.034C643.825 147.696 637.952 149.028 632.666 148.988C617.982 148.988 603.298 148.988 588.615 148.988C588.301 100.2 587.988 51.4509 587.675 2.6626V2.70175ZM617.747 35.7885C617.865 62.4538 617.982 89.0798 618.1 115.745C620.527 115.745 622.955 115.745 625.383 115.745C631.609 115.745 635.994 114.688 638.618 112.613C641.241 110.537 643.277 106.857 644.765 101.649C646.253 96.4411 646.958 87.9835 646.919 76.2367C646.88 60.7309 645.157 50.1196 641.828 44.4029C638.461 38.6861 632.94 35.8277 625.187 35.7885C622.72 35.7885 620.214 35.7885 617.747 35.7885Z" fill="#ECECEC"/>
<path d="M799.865 1.64453C814.196 1.64453 828.488 1.64453 842.819 1.64453C851.277 1.64453 858.13 3.44571 863.337 7.04806C868.545 10.6504 872.852 15.819 876.259 22.5538C879.666 29.2886 882.133 37.1198 883.66 46.0082C885.187 54.9358 885.97 64.3724 885.97 74.3572C885.97 89.9804 884.834 102.119 882.602 110.733C880.331 119.347 877.238 126.552 873.205 132.386C869.211 138.181 864.904 142.058 860.322 143.976C854.057 146.639 848.34 147.97 843.25 147.97C829.075 147.97 814.862 147.97 800.687 147.97C800.413 99.1821 800.139 50.4329 799.865 1.64453ZM828.919 34.7705C829.036 61.4357 829.115 88.0618 829.232 114.727C831.581 114.727 833.931 114.727 836.28 114.727C842.271 114.727 846.539 113.67 849.084 111.594C851.63 109.48 853.587 105.839 855.036 100.631C856.446 95.4231 857.151 86.9262 857.151 75.2186C857.151 59.7128 855.467 49.1016 852.256 43.3848C849.006 37.668 843.642 34.8096 836.202 34.8096C833.813 34.8096 831.386 34.8096 828.997 34.8096L828.919 34.7705Z" fill="#ECECEC"/>
<path d="M682.473 1.91872C692.144 1.80125 701.777 1.72294 711.449 1.60547C712.036 50.3546 712.623 99.143 713.211 147.892C703.617 147.97 694.063 148.088 684.47 148.205C683.804 99.4562 683.099 50.6679 682.434 1.91872H682.473Z" fill="#ECECEC"/>
<path d="M919.879 0.704836C929.708 0.704836 943.412 -0.0391277 953.241 2.82831e-05C956.647 27.3309 958.723 42.0144 962.09 69.3061C967.376 42.0144 970.117 28.1532 975.482 0.86146C985.271 0.900616 995.06 0.939771 1004.85 1.01808C1009.82 28.3098 1014.87 41.3487 1019.77 68.6404C1023.53 41.3879 1023.29 28.4273 1027.09 1.17471C1036.84 1.25302 1049.57 1.33133 1059.32 1.40964C1052.62 50.5112 1048.43 98.8297 1040.64 147.54C1030.58 147.461 1016.56 147.383 1006.53 147.344C1000.97 116.607 997.135 95.4231 991.497 64.6857C985.428 95.3448 983.274 116.881 977.322 147.54C967.259 147.501 951.596 147.07 941.572 147.031C934.406 98.2423 927.202 49.454 919.919 0.66568L919.879 0.704836Z" fill="#ECECEC"/>
<path d="M1065.5 1.52734C1074.16 1.60566 1085.79 1.72312 1094.44 1.80144C1093.85 50.5506 1093.27 99.339 1092.72 148.088C1084.14 147.971 1072.59 147.892 1064.02 147.814C1064.52 99.0649 1065.03 50.2765 1065.54 1.52734H1065.5Z" fill="#ECECEC"/>
<path d="M1101.33 1.95761C1129.72 2.31002 1158.07 2.70158 1186.46 3.13229C1186.22 15.1923 1185.99 27.2132 1185.79 39.2733C1176.28 39.1166 1166.8 38.96 1157.29 38.8425C1156.66 75.5708 1156.03 112.299 1155.41 148.988C1146.17 148.871 1136.89 148.714 1127.64 148.597C1128.19 111.868 1128.78 75.1401 1129.33 38.4118C1119.81 38.2944 1110.34 38.1769 1100.82 38.0594C1100.98 25.9994 1101.14 13.9785 1101.33 1.91846V1.95761Z" fill="#ECECEC"/>
<path d="M1190.02 4.15039C1199.97 4.15039 1211.91 4.15039 1221.86 4.15039C1221.78 21.2224 1221.66 38.2944 1221.58 55.3664C1232.43 55.3664 1239.36 55.3664 1250.2 55.3664C1250.32 38.2944 1250.44 21.2224 1250.6 4.15039C1260.58 4.15039 1272.56 4.15039 1282.55 4.2287C1282.12 53.017 1281.65 101.766 1281.22 150.555C1271.31 150.555 1259.45 150.515 1249.54 150.476C1249.7 130.742 1249.81 111.007 1249.97 91.3116C1239.16 91.3116 1232.23 91.3116 1221.42 91.3116C1221.31 111.046 1221.23 130.781 1221.11 150.476C1211.24 150.476 1199.42 150.476 1189.55 150.476C1189.71 101.688 1189.9 52.9387 1190.06 4.15039H1190.02Z" fill="#ECECEC"/>
<path d="M1384.98 129.645C1374.88 129.567 1371.63 129.528 1361.49 129.449C1360.04 137.516 1358.55 145.543 1357.1 153.609C1348.02 153.57 1332.08 153.53 1323 153.491C1334.08 104.742 1345.24 55.9928 1356.48 7.24365C1366.27 7.28281 1377.03 7.36112 1386.82 7.40028C1397.32 56.2669 1410.63 105.134 1420.89 154.039C1411.57 153.961 1398.33 153.883 1389.05 153.804C1387.68 145.738 1386.31 137.672 1384.94 129.606L1384.98 129.645ZM1381.65 99.8867C1378.6 82.3448 1375.58 64.7638 1372.53 47.2219C1369.24 64.7246 1365.95 82.2665 1362.66 99.8084C1369.01 99.8084 1375.35 99.8867 1381.69 99.9258L1381.65 99.8867Z" fill="#ECECEC"/>
<path d="M385.157 574.849C397.765 574.731 410.334 574.614 422.943 574.536C423.452 622.032 423.922 669.489 424.431 716.985C411.94 717.103 399.488 717.181 386.997 717.298C386.37 669.802 385.783 622.345 385.157 574.849Z" fill="#ECECEC"/>
<path d="M434.142 574.575C446.515 574.496 458.849 574.457 471.223 574.418C487.708 600.613 504.114 626.848 520.443 653.082C520.169 626.809 519.855 600.535 519.581 574.261C532.033 574.261 544.524 574.261 556.976 574.222C557.407 621.718 557.798 669.215 558.229 716.672C545.855 716.672 533.521 716.672 521.148 716.711C504.976 690.672 488.687 664.633 472.358 638.634C472.711 664.712 473.102 690.79 473.455 716.867C461.121 716.907 448.786 716.985 436.452 717.024C435.669 669.528 434.886 622.032 434.142 574.575Z" fill="#ECECEC"/>
<path d="M620.645 572.5C633.057 572.421 645.509 572.343 657.922 572.265C658.078 589.063 658.196 605.861 658.352 622.619C671.901 622.541 685.449 622.502 698.997 622.463C698.879 605.665 698.801 588.867 698.684 572.108C711.175 572.108 723.666 572.03 736.157 572.03C736.352 619.996 736.548 668.001 736.744 715.967C724.37 715.967 711.997 716.006 699.623 716.045C699.506 696.624 699.389 677.242 699.271 657.821C685.762 657.86 672.253 657.899 658.744 657.977C658.901 677.398 659.096 696.781 659.253 716.202C646.919 716.28 634.623 716.32 622.289 716.437C621.78 668.471 621.232 620.466 620.723 572.5H620.645Z" fill="#ECECEC"/>
<path d="M744.145 572.225C756.166 572.108 768.187 572.029 780.169 571.951C780.56 619.917 780.991 667.922 781.382 715.888C769.479 715.967 757.575 716.084 745.672 716.163C745.163 668.196 744.654 620.191 744.145 572.225Z" fill="#ECECEC"/>
<path d="M786.825 668.158C798.65 667.218 810.476 666.278 822.34 665.338C823.163 672.191 824.729 677.437 827.117 681.04C830.994 686.835 836.476 689.732 843.602 689.732C848.928 689.732 853.039 688.205 855.897 685.23C858.756 682.254 860.205 678.769 860.205 674.853C860.205 671.133 858.795 667.805 856.054 664.868C853.313 661.932 846.891 659.152 836.907 656.567C820.5 652.26 808.792 646.465 801.744 639.221C794.657 631.977 791.054 622.737 790.976 611.499C790.937 604.098 792.66 597.089 796.262 590.511C799.825 583.894 805.229 578.725 812.473 574.927C819.717 571.129 829.663 569.21 842.31 569.171C857.855 569.132 869.681 572.539 877.864 579.352C886.009 586.165 890.864 597.05 892.431 611.969C880.644 612.791 868.897 613.652 857.111 614.475C856.132 608.014 854.175 603.276 851.16 600.339C848.144 597.403 843.994 595.954 838.669 595.954C834.322 595.954 831.033 597.089 828.84 599.282C826.647 601.475 825.551 604.138 825.59 607.309C825.59 609.58 826.53 611.655 828.37 613.496C830.132 615.375 834.322 617.137 840.979 618.743C857.346 622.893 869.093 627.083 876.181 631.39C883.268 635.658 888.437 640.983 891.647 647.327C894.858 653.67 896.503 660.757 896.503 668.627C896.503 677.868 894.388 686.365 890.12 694.157C885.852 701.949 879.9 707.862 872.226 711.895C864.551 715.928 854.919 717.964 843.25 718.003C822.771 718.081 808.557 713.422 800.608 704.024C792.66 694.627 788.078 682.684 786.943 668.158H786.825Z" fill="#ECECEC"/>
<path d="M960.015 571.716C972.584 571.716 985.153 571.795 997.723 571.873C997.605 588.632 997.527 605.43 997.41 622.188C1011.11 622.267 1024.82 622.345 1038.48 622.423C1038.64 605.665 1038.76 588.867 1038.92 572.108C1051.56 572.186 1064.17 572.304 1076.82 572.382C1076.31 620.309 1075.76 668.275 1075.25 716.202C1062.72 716.084 1050.23 716.006 1037.7 715.928C1037.86 696.546 1038.01 677.124 1038.21 657.742C1024.55 657.664 1010.88 657.585 997.214 657.507C997.096 676.889 996.979 696.311 996.861 715.693C984.41 715.654 971.919 715.575 959.467 715.536C959.663 667.609 959.819 619.643 960.015 571.716Z" fill="#ECECEC"/>
<path d="M1159.64 693.492C1146.64 693.296 1140.45 693.139 1127.45 692.982C1125.53 700.892 1123.61 708.762 1121.73 716.672C1110.02 716.554 1093.46 716.398 1081.75 716.28C1096.2 668.471 1108.77 620.701 1123.45 572.891C1136.06 573.048 1150.59 573.204 1163.2 573.4C1176.51 621.523 1191.63 669.685 1204.7 717.847C1192.72 717.651 1176.83 717.455 1164.84 717.298C1163.12 709.35 1161.4 701.401 1159.64 693.492ZM1151.84 662.284C1148.95 649.245 1146.05 636.206 1143.11 623.207C1139.86 636.167 1136.61 649.089 1133.36 662.049C1139.51 662.128 1145.66 662.206 1151.8 662.284H1151.84Z" fill="#ECECEC"/>
<path d="M1209.21 575.162C1220.52 575.162 1231.84 575.162 1243.16 575.162C1257.84 601.71 1272.41 628.219 1286.93 654.805C1287.13 628.297 1287.29 601.749 1287.48 575.241C1298.92 575.241 1310.35 575.319 1321.78 575.358C1321.35 623.324 1320.92 671.251 1320.49 719.178C1309.17 719.139 1297.82 719.1 1286.5 719.06C1272.13 692.708 1257.64 666.356 1243.12 640.004C1243 666.317 1242.92 692.669 1242.8 718.982C1231.49 718.982 1220.21 718.982 1208.89 718.982C1208.97 671.016 1209.09 623.089 1209.17 575.123L1209.21 575.162Z" fill="#ECECEC"/>
<path d="M1328.91 575.828C1346.92 575.906 1364.97 576.023 1382.99 576.18C1393.64 576.258 1402.21 578.099 1408.75 581.701C1415.25 585.303 1420.61 590.394 1424.77 597.05C1428.95 603.707 1431.93 611.42 1433.69 620.191C1435.45 628.962 1436.28 638.281 1436.12 648.07C1435.89 663.459 1434.24 675.362 1431.27 683.781C1428.29 692.238 1424.22 699.286 1419.09 704.964C1413.96 710.642 1408.48 714.401 1402.64 716.241C1394.69 718.786 1387.53 720.039 1381.07 720C1363.21 719.882 1345.36 719.765 1327.46 719.647C1327.93 671.721 1328.4 623.755 1328.87 575.828H1328.91ZM1364.89 608.601C1364.58 634.797 1364.27 660.992 1363.95 687.187C1366.89 687.187 1369.87 687.226 1372.8 687.266C1380.36 687.305 1385.73 686.326 1388.98 684.29C1392.19 682.254 1394.73 678.69 1396.61 673.561C1398.49 668.432 1399.51 660.13 1399.67 648.619C1399.9 633.387 1397.98 622.932 1394.03 617.255C1390.03 611.577 1383.34 608.719 1373.94 608.679C1370.92 608.679 1367.91 608.64 1364.89 608.601Z" fill="#ECECEC"/>
<path d="M385 161.049L513.395 159.717L513.63 247.309L449.53 247.505L449.726 318.691L502.078 318.534L502.313 400.84L449.961 400.996L450.431 567.566L386.175 567.762L385.039 161.088L385 161.049Z" fill="#ECECEC"/>
<path d="M522.361 158.934L667.123 156.977V242.454H584.346V307.57H660.545V391.129H584.346V471.869H667.75V563.65L522.322 564.629V158.934H522.361Z" fill="#ECECEC"/>
<path d="M676.051 155.998H740.268V463.294H810.398V563.69H676.051V155.998Z" fill="#ECECEC"/>
<path d="M1017.85 156.859L1143.31 157.877V243.511H1082.11V314.697H1132.46V397.002H1082.03V563.572H1017.69L1017.81 156.898L1017.85 156.859Z" fill="#ECECEC"/>
<path d="M1148.67 157.838L1294.41 160.775V246.252H1211.64V312.347H1287.83V392.969H1211.64V475.667H1295.04V565.491L1148.63 564.512V157.838H1148.67Z" fill="#ECECEC"/>
<path d="M1303.07 160.892L1367.28 160.813L1367.75 468.11L1437.88 467.992L1438.04 566.43L1303.69 565.647L1303.11 160.931L1303.07 160.892Z" fill="#ECECEC"/>
<path d="M941.846 496.341H889.651L880.919 563.65H815.488L882.955 155.998H946.389L1013.86 563.65H950.892L941.925 496.341H941.846ZM932.292 409.18L916.042 288.11L899.988 409.18H932.292Z" fill="#ECECEC"/>
</g>
<defs>
<clipPath id="clip0_716_2494">
<rect width="1053" height="720" fill="white" transform="translate(385)"/>
</clipPath>
</defs>
</svg>
