<svg width="1825" height="720" viewBox="0 0 1825 720" fill="none" xmlns="http://www.w3.org/2000/svg">
<g clip-path="url(#clip0_1153_2593)">
<path d="M329.98 179.323C329.98 179.323 329.932 179.259 329.916 179.227C329.035 177.899 310.361 149.527 308.136 147.622C305.864 145.67 269.458 113.249 240.173 110.273C240.125 110.273 240.093 110.273 240.045 110.273C238.605 110.177 214.393 108.8 198.071 116.946C195.862 118.05 193.398 118.562 190.934 118.274L158.4 113.633C156.864 113.409 155.632 114.865 156.112 116.338C157.488 120.626 159.713 128.211 159.713 132.708C159.713 139.125 159.089 270.938 156.272 289.165C156.192 289.661 156.304 290.173 156.576 290.589L159.041 294.414C159.457 295.054 160.161 295.422 160.929 295.374C161.825 295.31 163.137 295.23 164.673 295.118C173.539 294.462 182.452 295.438 190.982 297.95C201.287 300.991 216.346 304.143 230.348 302.287C254.736 299.022 333.452 278.219 338.397 213.489C338.397 213.441 338.397 213.393 338.397 213.345C338.429 212.033 338.717 193.726 329.98 179.307V179.323ZM245.422 285.42C225.803 304.543 217.098 288.349 215.85 285.708C215.738 285.484 215.689 285.26 215.657 285.004C212.121 241.877 215.081 144.166 215.609 128.131C215.657 126.611 216.378 125.203 217.578 124.307C236.157 110.401 258.976 135.637 258.976 135.637C275.875 148.071 278.707 201.455 278.82 203.599C278.82 203.647 278.82 203.679 278.82 203.727C278.788 247.894 246.974 283.676 245.518 285.292C245.486 285.34 245.454 285.372 245.406 285.404L245.422 285.42Z" fill="#ECECEC"/>
<path d="M490.437 133.764L485.46 131.428C485.22 131.316 485.012 131.172 484.836 130.98L467.409 112.833C466.945 112.337 466.257 112.113 465.585 112.209L453.919 113.985C453.919 113.985 453.791 114.001 453.711 114.001C450.527 114.145 366.145 118.962 357.536 202.655C356.88 209.04 357.056 215.521 358.272 221.826C361.937 240.693 375.651 278.619 427.275 297.102C431.74 298.702 435.708 293.757 433.132 289.773C424.395 276.219 413.033 253.303 420.634 234.452C420.954 233.652 421.754 233.14 422.618 233.172C428.731 233.332 452.975 233.908 464.993 233.476C468.674 233.332 472.258 234.372 475.459 236.212C476.083 236.58 476.691 236.804 477.203 236.708C477.571 236.66 478.019 236.452 478.483 236.148C481.412 234.276 482.868 230.771 482.436 227.315C480.996 216.017 478.899 183.964 491.573 136.213C491.829 135.236 491.365 134.196 490.453 133.764H490.437ZM472.786 175.851C472.802 176.987 471.906 177.915 470.786 177.979C419.018 180.412 422.058 171.05 422.058 171.05C420.682 145.478 443.246 121.17 446.158 118.162C446.35 117.954 446.59 117.778 446.862 117.666C453.727 114.705 459.152 120.93 459.76 121.682C459.792 121.73 459.824 121.778 459.872 121.826C471.33 137.573 472.658 167.802 472.818 175.883L472.786 175.851Z" fill="#ECECEC"/>
<path d="M454.607 298.51L467.585 283.724C467.81 283.468 467.97 283.148 468.05 282.812L477.587 241.958C477.763 241.173 480.66 241.093 480.948 241.846L490.101 269.578C490.501 270.602 490.709 271.674 490.709 272.778V284.588C490.709 285.228 490.405 285.852 489.893 286.237L464.913 305.664C464.545 305.952 464.097 306.112 463.633 306.112H456.976C455.968 306.112 455.103 305.392 454.911 304.415L454.127 300.287C453.999 299.647 454.191 298.991 454.607 298.51Z" fill="#ECECEC"/>
<path d="M536.877 109.601C534.94 109.216 533.436 111.233 534.332 112.993L538.301 120.786C538.429 121.042 544.494 239.269 535.452 284.108C535.436 284.188 535.42 284.252 535.388 284.348C535.02 285.436 532.092 294.91 542.941 294.654C543.054 294.654 543.166 294.654 543.278 294.622C545.566 294.222 572.402 289.661 583.14 294.654C583.14 294.654 588.485 296.334 595.286 295.822C598.454 295.582 600.471 292.333 599.35 289.357C597.878 285.388 596.31 279.659 596.566 273.754C597.062 263.017 595.846 213.953 595.846 213.953C595.846 213.953 596.342 214.001 597.19 214.177C609.896 216.737 618.874 228.227 618.441 241.189C617.929 257.192 619.194 300.03 647.006 306.127C647.07 306.127 647.134 306.159 647.198 306.159C648.83 306.383 671.154 309.152 677.299 293.197C677.507 292.637 677.459 292.013 677.171 291.485C675.891 289.101 672.274 282.124 672.482 279.131C672.738 275.499 673.938 225.091 627.835 209.952C627.083 209.712 626.523 209.072 626.411 208.288L626.219 206.992C626.043 205.808 626.891 204.703 628.075 204.591C639.805 203.407 694.438 195.534 694.214 151.959C694.214 151.959 697.638 104.88 618.842 106.064C618.794 106.064 618.746 106.064 618.714 106.064C617.097 106.192 586.244 108.592 572.866 113.169C567.553 114.993 561.808 115.137 556.352 113.857C547.838 111.857 541.069 110.449 536.877 109.617V109.601ZM643.213 168.346C643.213 168.458 643.197 168.57 643.165 168.682C640.973 180.044 634.924 187.677 629.627 192.366C623.626 197.678 615.497 200.159 607.656 198.543C599.766 196.91 596.566 192.174 595.334 189.309C594.854 188.173 594.614 186.941 594.598 185.692L593.397 124.563C593.397 124.403 593.398 124.243 593.43 124.083C595.046 115.521 604.615 114.321 604.615 114.321C625.355 107.968 639.517 124.083 641.965 132.868C644.286 141.254 643.277 166.089 643.181 168.346H643.213Z" fill="#ECECEC"/>
<path d="M920.457 168.65C920.457 168.65 920.521 168.506 920.537 168.426C921.834 164.089 927.61 147.783 930.267 146.566C932.427 145.574 931.099 142.054 930.507 140.726C930.363 140.389 930.139 140.117 929.851 139.909C926.186 137.205 899.414 117.458 894.869 116.786C889.989 116.05 881.011 116.082 878.275 116.786C878.275 116.786 800.166 134.789 791.653 183.436C791.621 183.596 791.589 183.74 791.525 183.868C790.581 186.013 782.611 204.4 783.076 211.985C783.076 211.985 777.763 296.638 884.196 307.904C886.388 308.128 887.412 305.263 885.572 304.063C873.378 296.078 850.558 278.427 848.014 256.76C848.014 256.712 848.014 256.648 847.982 256.6C847.438 254.199 833.996 193.502 849.39 157.48C849.438 157.384 849.47 157.272 849.486 157.176C850.078 154.632 858.159 122.067 881.027 121.458C881.139 121.458 881.235 121.458 881.331 121.458C883.283 121.667 902.871 124.451 906.807 153.672C906.807 153.672 909.72 169.242 912.92 176.987C913.624 178.684 916.025 178.684 916.761 177.003L920.425 168.682L920.457 168.65Z" fill="#ECECEC"/>
<path d="M893.749 217.97L898.758 229.843C899.078 230.612 899.254 231.428 899.254 232.26L898.438 286.956C898.438 287.885 898.214 290.269 897.798 291.373C897.718 291.581 897.59 291.757 897.446 291.917L892.085 297.998C891.957 298.158 891.829 298.318 891.733 298.51C890.117 301.871 891.813 305.919 895.397 307.088L899.014 308.272C899.43 308.416 899.878 308.416 900.294 308.272L924.026 300.863C924.362 300.751 924.73 300.735 925.082 300.815L943.021 304.575C944.317 304.847 945.549 303.855 945.549 302.527V273.37L945.181 228.771C945.165 228.147 945.245 227.507 945.421 226.899L947.518 219.554C947.838 218.45 947.198 217.298 946.109 216.977L942.221 215.809C941.261 215.521 940.253 215.473 939.276 215.649L926.986 217.986C926.746 218.034 926.49 218.034 926.234 217.986L904.199 214.193C904.007 214.161 903.815 214.161 903.623 214.177L895.477 215.057C894.085 215.201 893.221 216.657 893.765 217.954L893.749 217.97Z" fill="#ECECEC"/>
<path d="M1062.83 126.739C1062.69 126.739 1062.54 126.787 1062.4 126.819C1057.94 128.196 982.131 152.888 984.74 233.668C984.74 233.668 980.067 275.915 1057.33 312.673C1059.36 313.633 1061.3 311.184 1059.86 309.456C1050.22 297.742 1036.46 271.738 1036.97 219.122C1036.97 219.058 1036.97 219.01 1036.97 218.946C1036.75 216.226 1031.03 144.166 1062.88 130.996C1063.06 130.932 1063.22 130.868 1063.41 130.852C1065.63 130.532 1079.63 130.26 1092.39 171.915C1105.29 214.001 1105.06 262.489 1084.36 299.583C1082.04 303.759 1086.16 308.576 1090.58 306.768C1099.97 302.943 1115.99 292.302 1141.77 264.361C1141.88 264.249 1141.98 264.121 1142.06 263.977C1143.93 260.697 1166.26 219.81 1142 179.324C1141.96 179.26 1141.93 179.212 1141.9 179.148C1141.1 177.387 1126.63 146.807 1078.24 128.548C1078.11 128.5 1077.97 128.436 1077.86 128.356C1077.14 127.86 1073.3 125.683 1062.83 126.723V126.739Z" fill="#ECECEC"/>
<path d="M1189.68 130.372L1192.85 139.606C1192.93 139.83 1192.96 140.054 1192.96 140.278C1192.93 147.991 1192.39 282.044 1183.59 305.68C1183.36 306.304 1183.46 306.992 1183.83 307.536L1185.4 309.872C1185.84 310.544 1186.66 310.896 1187.46 310.784L1194.37 309.712H1194.82L1291.56 315.921C1293.62 316.049 1295.2 314.129 1294.71 312.129L1285.78 265.673C1285.2 263.369 1282.32 262.585 1280.64 264.265L1276.95 268.01C1276.34 268.634 1275.49 268.954 1274.63 268.922L1250.19 267.818C1248.57 267.738 1247.29 266.425 1247.28 264.809C1247.1 246.838 1246.37 151.719 1249.92 146.119C1252.54 141.974 1254.72 138.117 1255.87 136.021C1256.38 135.093 1256.11 133.941 1255.26 133.317L1251.58 130.66C1251.13 130.34 1250.59 130.212 1250.06 130.292L1226.51 133.701C1226.28 133.733 1226.04 133.733 1225.82 133.701L1193.57 127.668C1193.38 127.636 1193.2 127.62 1193.01 127.62H1191.67C1190.23 127.62 1189.22 129.028 1189.68 130.388V130.372Z" fill="#ECECEC"/>
<path d="M1435.53 241.477C1435.53 238.661 1437.68 232.484 1438.27 230.82C1438.36 230.532 1438.41 230.243 1438.38 229.955C1438 225.395 1434.91 187.613 1435.2 185.164C1435.5 182.86 1437.31 176.731 1437.72 175.355C1437.79 175.163 1437.8 174.987 1437.8 174.795C1437.84 171.338 1438.14 137.893 1438.46 136.341C1438.6 135.637 1438.56 134.868 1438.46 134.212C1438.33 133.348 1437.68 132.66 1436.83 132.484L1431.26 131.268C1430.86 131.188 1430.49 130.98 1430.2 130.692C1427.82 128.243 1416.23 116.498 1412.74 116.498C1408.84 116.498 1321.66 126.579 1310.89 215.697C1310.89 215.745 1310.89 215.793 1310.89 215.841C1310.7 218.69 1306.25 300.367 1410.18 307.856C1410.38 307.856 1410.58 307.856 1410.78 307.824C1412.66 307.424 1423.4 305.055 1429.87 301.007C1432.06 299.63 1433.5 300.078 1435.29 301.471C1435.95 301.967 1436.83 302.063 1437.56 301.679L1438.38 301.247C1438.89 300.975 1439.26 300.511 1439.42 299.966L1441.87 291.245C1441.95 290.973 1441.96 290.685 1441.93 290.397C1441.29 285.756 1435.58 244.566 1435.58 241.493L1435.53 241.477ZM1366.54 192.974C1366.54 192.974 1368.8 137.237 1397.29 122.45C1397.41 122.386 1397.54 122.322 1397.67 122.29C1399.53 121.746 1413.37 118.866 1421.55 150.999C1421.55 150.999 1428.95 185.772 1429.99 186.461L1429.03 186.141L1427.31 188.365C1426.95 188.813 1426.43 189.101 1425.87 189.165C1419.38 189.805 1379.49 193.79 1369.06 195.806C1367.76 196.062 1366.56 195.07 1366.56 193.742V192.974H1366.54ZM1432.71 247.99C1432.01 249.158 1427.53 271.274 1427.16 273.018C1427.15 273.098 1427.13 273.178 1427.13 273.258C1425.71 295.63 1410.46 299.07 1408.34 299.454C1408.2 299.486 1408.05 299.486 1407.89 299.486C1380.5 299.166 1371.73 250.183 1371.73 250.183C1370.99 240.421 1383.44 242.373 1387.6 243.109C1391.75 243.83 1421.29 236.516 1426.65 237.493C1432.03 238.469 1433.45 246.758 1432.71 247.99Z" fill="#ECECEC"/>
<path d="M1602.37 168.682C1605.06 166.762 1608.42 166.986 1608.52 170.282C1609.38 199.231 1612.47 290.477 1607.96 299.503L1605.3 307.088C1605.13 307.6 1605.14 308.16 1605.37 308.64L1607.89 314.193C1608.34 315.169 1609.45 315.649 1610.47 315.313L1624.09 310.752C1624.23 310.704 1624.39 310.672 1624.54 310.656L1651.05 307.936C1651.44 307.904 1651.84 307.968 1652.17 308.128L1658.11 311.009C1658.97 311.425 1659.97 311.553 1660.91 311.361L1666.27 310.288C1667.26 310.096 1667.98 309.2 1667.95 308.192L1664.35 143.43C1664.35 142.838 1664.58 142.262 1665.02 141.846L1667.33 139.686C1667.76 139.285 1668 138.741 1668 138.149V134.805C1668 133.653 1667.06 132.708 1665.9 132.708H1645.77C1645.29 132.708 1644.83 132.788 1644.38 132.932L1631 137.397C1630.62 137.525 1630.22 137.541 1629.82 137.445L1611.53 132.82C1611.27 132.756 1611 132.74 1610.73 132.772L1604.26 133.669C1603.17 133.813 1602.39 134.773 1602.45 135.861L1602.74 140.822C1602.81 141.894 1602.49 145.654 1601.83 146.503C1597.44 152.152 1580.02 172.635 1573.67 180.924C1572.67 182.22 1570.67 181.948 1570.06 180.444L1551.18 134.149C1550.83 133.301 1549.98 132.772 1549.05 132.852L1519.93 135.381C1519.7 135.397 1519.46 135.381 1519.24 135.333L1504.52 131.7C1503.99 131.572 1503.45 131.54 1502.9 131.604L1496.76 132.388C1495.44 132.564 1494.61 133.877 1495.04 135.141C1496.6 139.718 1499.77 149.303 1499.59 150.775C1499.35 152.712 1490.02 260.569 1504.5 308.464C1504.77 309.344 1505.59 309.936 1506.5 309.936H1522.22C1523.59 309.936 1524.6 308.624 1524.23 307.296C1522.33 300.239 1517.4 280.588 1517.4 266.97C1517.4 254.52 1515.27 216.05 1514.15 196.847C1514.02 194.542 1517.18 193.758 1518.14 195.854C1527.53 216.066 1548.75 260.169 1559.28 269.402C1560.38 270.362 1562.11 269.866 1562.59 268.474C1567.9 253.047 1595.14 173.819 1602.37 168.666V168.682Z" fill="#ECECEC"/>
<path d="M594.454 364.105C599.238 377.483 618.825 433.172 620.57 452.903C620.65 453.767 621.258 454.471 622.09 454.711L629.979 456.935C630.667 457.127 631.403 456.951 631.931 456.487L633.052 455.495C633.628 454.983 634.46 454.823 635.196 455.095L640.765 457.223C640.765 457.223 640.861 457.255 640.909 457.271C641.949 457.575 653.887 461.064 654.511 458.872C655.071 456.887 652.175 435.348 655.103 428.355C655.711 426.915 657.2 426.579 658.384 427.587C661.424 430.211 668.033 436.916 670.994 447.862C671.058 448.118 671.122 448.374 671.186 448.63C674.466 461.768 680.611 455.655 682.051 453.975C682.259 453.735 682.387 453.479 682.484 453.175C683.524 449.35 691.525 420.242 696.086 409.904C700.23 400.494 709.432 374.01 713.24 366.313C713.784 365.209 713.272 363.897 712.136 363.449L707.527 361.624C703.879 360.184 699.782 362.088 698.518 365.801L684.244 411.92C683.828 413.136 682.163 413.264 681.571 412.128L664.193 379.387C663.344 377.787 661.008 377.947 660.368 379.643L646.958 415.969C646.302 417.729 643.853 417.825 643.085 416.113C639.133 407.343 630.779 386.94 627.403 364.281C627.259 363.289 626.427 362.536 625.418 362.488L596.486 361.352C594.998 361.288 593.925 362.744 594.422 364.137L594.454 364.105Z" fill="#ECECEC"/>
<path d="M710.68 395.117L721.498 387.1C722.298 386.508 723.514 386.604 724.218 387.292L737.164 400.11C738.365 401.294 738.813 403.039 738.349 404.639C736.108 412.352 730.539 436.34 731.884 444.181C731.948 444.549 732.076 444.901 732.236 445.253L735.132 452.95C735.964 454.743 735.548 456.871 734.108 458.231L726.827 464.296C725.034 465.976 722.234 465.945 720.49 464.216L706.616 451.99C705.335 450.726 704.903 448.838 705.511 447.142L710.376 430.019C710.488 429.731 710.552 429.427 710.6 429.123L713.161 411.888C713.305 410.864 713.113 409.824 712.6 408.928L709.448 401.054C708.296 399.038 708.824 396.478 710.696 395.085L710.68 395.117Z" fill="#ECECEC"/>
<path d="M734.316 356.584L729.467 363.241C729.147 363.689 729.003 364.249 729.099 364.793L730.539 374.09C730.619 374.618 730.907 375.098 731.339 375.434L733.756 377.291C734.412 377.787 735.276 377.867 736.012 377.483L743.549 373.514C743.917 373.322 744.205 373.034 744.413 372.666L747.262 367.465C747.438 367.161 747.518 366.809 747.518 366.457V359.432C747.518 358.744 747.182 358.088 746.606 357.704L742.845 355.143C742.397 354.839 741.853 354.711 741.325 354.807L735.676 355.751C735.132 355.847 734.652 356.135 734.332 356.584H734.316Z" fill="#ECECEC"/>
<path d="M765.089 386.972L742.685 411.44C742.333 411.824 742.141 412.336 742.141 412.848V426.002C742.141 426.178 742.157 426.338 742.205 426.514L747.358 447.078C747.454 447.462 747.662 447.814 747.95 448.102L755.583 455.287C755.727 455.431 755.903 455.543 756.079 455.639L772.786 463.992C773.458 464.328 774.242 464.28 774.866 463.88L783.412 458.327C784.004 457.943 784.372 457.287 784.372 456.567V449.398C784.372 447.862 783.252 446.55 781.731 446.31L773.858 445.749C772.674 445.557 771.698 444.725 771.346 443.573L768.881 434.836C768.785 434.532 768.737 434.228 768.737 433.924V432.035C768.737 431.507 768.529 430.995 768.177 430.611L759.68 421.474C759.296 421.074 759.104 420.529 759.12 419.969L759.488 408.976C759.536 407.695 760.704 406.751 761.952 406.991L763.521 407.279C764.033 407.375 764.513 407.663 764.817 408.08L773.842 420.049C774.69 421.17 776.387 421.154 777.219 420.017L785.764 408.24C786.356 407.423 786.276 406.287 785.572 405.551L768.257 387.516C767.921 387.18 767.489 386.956 767.025 386.892L764.449 386.556L765.057 387.004L765.089 386.972Z" fill="#ECECEC"/>
<path d="M842.893 386.524L845.101 386.828C845.805 386.924 846.446 387.245 846.942 387.757L858.095 399.422C861.392 402.847 861.792 408.112 859.104 412C859.024 412.112 858.96 412.24 858.912 412.368L855.951 419.874C855.855 420.098 855.743 420.338 855.567 420.498C854.207 421.842 850.958 421.842 849.614 420.498C849.47 420.354 849.374 420.178 849.278 420.002L843.517 408.384C843.037 407.76 842.349 407.328 841.581 407.184L840.413 406.976C839.148 406.752 837.996 407.696 837.948 408.96L837.58 419.538C837.548 420.37 837.852 421.17 838.412 421.778C838.412 421.778 843.421 427.507 843.421 428.803C843.421 430.099 844.413 440.949 847.742 442.197C848.862 442.613 849.07 444.181 850.254 444.374L860.176 444.245C861.696 444.486 862.816 445.798 862.816 447.334L861.456 455.991C861.456 457 860.336 457.32 859.472 457.864C859.392 457.912 859.328 457.96 859.248 458.024L853.135 462.872C852.207 463.481 851.022 463.545 850.03 463.048L834.668 455.703C834.396 455.559 834.14 455.399 833.916 455.191L826.394 448.118C826.106 447.846 825.898 447.494 825.802 447.094L820.649 426.531C820.601 426.371 820.585 426.195 820.585 426.019V412.865C820.585 412.336 820.778 411.84 821.13 411.456L843.533 386.988L842.925 386.54L842.893 386.524Z" fill="#ECECEC"/>
<path d="M881.587 378.347L867.425 388.524C866.577 389.132 866.305 390.269 866.785 391.197L873.01 403.087C873.186 403.407 873.266 403.775 873.25 404.143L871.858 439.188C871.825 439.86 871.489 440.485 870.929 440.869C869.969 441.525 869.713 442.821 870.337 443.797L882.275 461.048C883.827 463.48 887.124 464.056 889.428 462.312L901.19 453.383C902.134 452.662 902.294 451.302 901.542 450.39L895.557 443.029C895.253 442.661 895.093 442.213 895.093 441.733L894.629 411.344C894.629 410.704 894.901 410.096 895.397 409.68L897.686 407.823C898.598 407.087 899.926 407.231 900.646 408.143L908.359 417.889C909.159 418.897 910.696 418.961 911.56 417.985L922.874 405.455C923.226 405.071 923.418 404.575 923.418 404.047V395.069C923.418 394.557 923.226 394.061 922.89 393.677L914.328 384.028C913.656 383.276 912.536 383.1 911.672 383.628L897.654 392.173C896.757 392.717 895.589 392.525 894.933 391.693L884.468 378.699C883.763 377.835 882.515 377.659 881.619 378.315L881.587 378.347Z" fill="#ECECEC"/>
<path d="M958.607 386.492L949.422 394.125C947.774 395.742 947.422 398.27 948.558 400.286L951.806 405.983C951.966 406.255 952.062 406.559 952.078 406.879L954.863 447.99C954.927 449.046 955.327 450.038 955.999 450.854L965.505 461.224C965.937 461.768 966.609 462.072 967.297 462.056C967.985 462.056 968.641 461.704 969.057 461.16L977.875 450.726C978.531 449.846 978.899 448.774 978.899 447.67V444.677C978.899 444.085 978.659 443.541 978.227 443.141L976.354 441.413C975.954 441.045 975.714 440.533 975.682 439.989L973.81 405.551C973.794 405.151 973.874 404.767 974.066 404.415L975.874 401.15C976.098 400.766 976.178 400.318 976.114 399.87L975.682 396.462C975.538 395.325 975.01 394.253 974.194 393.453L965.713 386.524C964.768 385.596 963.488 385.068 962.16 385.068C960.832 385.068 959.552 385.596 958.607 386.524V386.492Z" fill="#ECECEC"/>
<path d="M963.936 347.19C960 346.342 955.919 347.766 953.375 350.887C951.71 352.935 950.142 355.079 950.206 355.895C950.334 357.352 951.822 360.6 952.238 361.48C952.318 361.64 952.398 361.768 952.51 361.912C953.535 363.161 959.167 369.962 961.808 370.106C964.704 370.266 970.801 362.632 971.105 360.344C971.409 358.056 969.121 348.294 964.096 347.238C964.048 347.238 964 347.222 963.952 347.206L963.936 347.19Z" fill="#ECECEC"/>
<path d="M981.667 393.117L994.213 380.299C994.917 379.579 996.037 379.451 996.885 380.027C1003.43 384.444 1012.65 393.469 1013.18 393.741C1013.7 394.013 1028.23 387.212 1033.47 384.076C1034.81 383.276 1036.52 383.468 1037.64 384.54L1053.76 399.966C1054.29 400.462 1054.51 401.214 1054.37 401.919L1045.58 443.109C1045.42 443.845 1045.5 444.597 1045.82 445.269L1048.22 453.495C1048.81 454.775 1048.56 456.295 1047.58 457.319L1038.73 467.417C1037.24 468.985 1034.7 468.825 1033.42 467.097L1023.75 456.199C1023.11 455.335 1022.87 454.247 1023.08 453.207C1024.41 446.454 1028.63 416.849 1027.93 412.192C1027.13 406.943 1019.96 398.27 1014.62 405.791C1014.38 406.127 1014.25 406.559 1014.25 406.975L1013.93 453.623C1013.93 454.087 1013.77 454.551 1013.48 454.903L1006.07 464.264C1005.3 465.225 1003.89 465.337 1003 464.488C999.654 461.336 992.453 454.359 992.453 452.855C992.453 451.046 990.772 413.648 990.532 408.256C990.516 407.823 990.356 407.423 990.1 407.087L981.507 395.87C980.867 395.037 980.947 393.869 981.667 393.133V393.117Z" fill="#ECECEC"/>
<path d="M1093.19 364.649L1086.9 375.755C1086.34 376.747 1086.66 377.995 1087.64 378.571L1104.69 388.957C1105.16 389.245 1105.49 389.693 1105.64 390.221L1106.18 392.317C1106.41 393.165 1107.11 393.79 1107.98 393.87C1110.44 394.126 1115.56 395.198 1118.46 399.646C1122.3 405.567 1127.56 406.304 1127.72 441.445C1127.72 442.485 1126.97 443.365 1125.95 443.525L1117.46 444.838C1117.24 444.87 1117.03 444.87 1116.81 444.838C1115.06 444.55 1107.1 442.661 1106.09 432.676C1105.13 423.282 1103.27 409.472 1102.69 405.183C1102.58 404.383 1102.02 403.711 1101.24 403.471L1100.05 403.103C1099.25 402.847 1098.37 403.103 1097.83 403.759L1088.92 414.353C1088.56 414.769 1088.39 415.329 1088.44 415.873L1091.01 446.726C1091.03 446.982 1091.11 447.238 1091.22 447.462L1092.71 450.518C1092.98 451.079 1093.43 451.543 1093.97 451.847L1115.77 462.568C1117.24 463.385 1118.9 463.817 1120.6 463.817H1121.88C1122.46 463.817 1123 463.577 1123.4 463.16L1142.99 442.549C1143.53 441.989 1143.84 441.237 1143.84 440.453L1143.15 403.871C1143.15 403.167 1142.91 402.495 1142.48 401.951C1139 397.694 1123.72 378.379 1096.04 363.785C1095.03 363.257 1093.78 363.625 1093.22 364.617L1093.19 364.649Z" fill="#ECECEC"/>
<path d="M1164.22 382.908L1154.32 390.253C1152.51 391.725 1152.03 394.302 1153.23 396.302L1155.95 401.599C1156.33 402.255 1156.56 402.991 1156.59 403.759C1156.88 409.728 1158.08 436.9 1156.8 441.061C1156.73 441.253 1156.69 441.429 1156.67 441.621L1156.35 445.99C1156.25 447.27 1156.69 448.534 1157.55 449.494L1167.41 461.096C1169.14 463 1172.07 463.176 1174 461.48L1180.59 455.303C1182.24 453.863 1182.69 451.479 1181.65 449.542C1179.84 446.15 1177.31 439.797 1177.43 438.436C1177.57 436.58 1180.37 404.767 1180.56 397.246C1180.59 396.158 1180.24 395.102 1179.59 394.254L1170.91 383.692C1170.16 382.7 1169.04 382.06 1167.81 381.9C1166.53 381.724 1165.23 382.092 1164.22 382.908Z" fill="#ECECEC"/>
<path d="M1169.15 346.582C1169.06 346.582 1168.96 346.598 1168.87 346.63C1167.86 346.838 1161.89 348.342 1162.34 354.903C1162.34 354.903 1163.89 362.728 1164.11 363.849C1164.56 366.249 1173.63 374.33 1177.89 360.984C1177.94 360.824 1177.97 360.664 1177.99 360.504C1178.18 358.536 1179.07 345.67 1169.15 346.582Z" fill="#ECECEC"/>
<path d="M1230.36 444.582L1228.84 443.685C1228.12 443.253 1227.24 443.333 1226.54 443.797C1224.54 445.142 1222.12 445.27 1221.66 444.806C1221.02 444.165 1214.3 445.75 1213.22 435.332C1213.21 435.14 1213.16 434.948 1213.1 434.772C1212.55 433.412 1209.91 427.251 1205.7 422.754C1205.4 422.418 1205.19 422.018 1205.14 421.57L1203.88 409.904C1203.73 408.544 1204.9 407.408 1206.26 407.6L1210.42 408.192C1211.13 408.288 1211.75 408.752 1212.04 409.408L1213.64 412.961C1213.64 412.961 1213.7 413.105 1213.75 413.169L1215.16 415.553C1215.56 416.225 1216.3 416.625 1217.06 416.577L1219.93 416.433C1221.37 416.353 1222.63 415.425 1223.11 414.065L1224.75 405.551C1224.92 405.039 1224.99 404.479 1224.92 403.951L1224.67 401.871C1224.57 401.119 1224.25 400.399 1223.72 399.855L1213.77 387.853C1213.1 387.133 1212.15 386.732 1211.18 386.732H1205.81C1205.08 386.732 1204.39 387.117 1204.02 387.757C1201.22 392.461 1189.56 412.08 1187.08 415.521C1186.82 415.873 1186.69 416.289 1186.69 416.737V425.635C1186.69 425.939 1186.76 426.227 1186.88 426.499C1188.12 429.187 1195.01 444.31 1195.32 448.838C1195.35 449.238 1195.49 449.59 1195.73 449.91L1201.11 456.935C1201.46 457.4 1202.01 457.704 1202.58 457.752L1223.64 459.688C1224.28 459.752 1224.92 459.624 1225.5 459.352L1229.39 457.16C1230.62 456.567 1231.42 455.319 1231.42 453.943V446.374C1231.42 445.638 1231.03 444.95 1230.39 444.566L1230.36 444.582Z" fill="#ECECEC"/>
<path d="M782.947 513.552C783.572 503.79 784.404 503.726 784.452 503.566L786.388 498.126C786.692 497.277 787.492 496.717 788.388 496.733L802.151 496.925C803.303 496.941 804.215 497.87 804.215 499.022V503.102C804.215 504.062 803.991 505.007 803.575 505.855C802.311 508.399 799.35 513.952 796.406 516.72C792.773 520.129 770.369 596.317 767.281 607.263C767.073 608.031 766.369 608.559 765.569 608.559C764.817 608.559 764.176 608.095 763.904 607.407C761.472 600.974 747.438 581.387 742.157 574.218C741.261 572.985 739.389 573.113 738.652 574.442C737.276 576.922 735.324 580.651 734.156 583.851C732.732 587.772 735.612 596.733 737.276 601.31C737.772 602.67 736.764 604.11 735.308 604.11H731.179C730.571 604.11 729.947 603.998 729.371 603.774L717.081 599.085C716.905 599.021 716.729 598.973 716.537 598.957L710.024 598.333C709.528 598.285 709.016 598.413 708.616 598.701L702.199 603.23C701.463 603.758 700.454 603.742 699.734 603.198L696.886 601.054C696.39 600.67 696.118 600.062 696.198 599.438C698.054 582.923 692.901 560.647 692.901 560.647C684.244 515.872 669.553 499.774 665.745 496.269C665.185 495.757 664.945 494.973 665.121 494.237L665.905 490.988C666.129 490.044 666.977 489.388 667.937 489.388H673.314C673.506 489.388 673.698 489.42 673.89 489.468L691.925 494.621C692.229 494.717 692.565 494.733 692.885 494.669L701.126 493.149C701.495 493.085 701.863 493.117 702.215 493.229L707.784 495.213C708.648 495.517 709.224 496.365 709.176 497.293L708.76 505.999C707.784 513.776 718.585 550.214 723.018 564.712C723.546 566.408 725.946 566.36 726.426 564.648C732.731 542.244 742.621 527.938 746.926 522.449C747.886 521.233 749.79 521.441 750.462 522.849L765.361 553.766L765.953 554.95C766.769 556.599 769.169 556.471 769.793 554.742C773.586 544.293 782.579 519.073 782.931 513.568L782.947 513.552Z" fill="#ECECEC"/>
<path d="M831.771 547.35L820.233 534.404C817.833 530.979 814.761 532.355 814.761 532.355C812.888 532.915 795.141 550.23 795.141 550.23C790.709 554.583 788.404 560.664 788.82 566.857L790.725 594.781C790.853 596.573 791.797 598.19 793.269 599.182L810.248 610.544C812.456 612.016 815.417 611.792 817.369 609.984L825.53 602.43C826.506 601.534 827.051 600.286 827.051 598.974V597.886C827.051 596.205 826.154 594.653 824.682 593.805L822.01 592.269C821.77 592.141 821.514 592.045 821.258 592.013L813.992 591.021C813.016 590.893 812.264 590.092 812.184 589.1L811.928 585.868C811.816 584.123 812.488 582.443 813.752 581.259L830.379 565.833C831.483 564.824 832.139 563.416 832.219 561.912L832.795 550.966C832.875 549.67 832.507 548.406 831.771 547.35ZM814.809 565.881C814.809 565.977 814.809 566.057 814.793 566.153C814.104 571.401 812.968 572.682 810.376 572.234C807.783 571.786 807.575 567.129 806.919 565.289C806.279 563.464 807.399 556.023 807.399 556.023C807.399 556.023 807.335 555.175 811.192 556.215C814.761 557.175 814.825 564.776 814.809 565.881Z" fill="#ECECEC"/>
<path d="M859.039 499.726L844.237 522.306C843.885 522.786 843.693 523.362 843.693 523.97C843.629 530.755 842.477 572.041 839.932 583.867L838.604 591.5C838.508 592.029 838.62 592.573 838.924 593.021L851.294 611.648C851.87 612.512 853.007 612.832 853.951 612.384L861.472 608.799C861.76 608.655 862.016 608.463 862.224 608.207L867.713 601.23C868.289 600.494 868.305 599.47 867.777 598.718L860.416 588.396C860.144 588.012 860 587.548 860.032 587.068C860.464 579.803 864 519.953 862.64 500.766C862.512 498.942 860.176 498.27 859.103 499.758L859.039 499.726Z" fill="#ECECEC"/>
<path d="M895.157 497.614L877.458 514.272C876.77 514.913 876.386 515.825 876.386 516.769C876.386 517.697 876.018 518.577 875.346 519.233L871.81 522.658C871.409 523.058 871.169 523.602 871.169 524.162V529.603C871.169 530.035 871.297 530.451 871.553 530.803L876.178 537.38C876.418 537.732 876.546 538.132 876.562 538.564L877.186 590.204C877.186 590.797 877.442 591.357 877.89 591.741L890.757 603.134C891.141 603.471 891.637 603.663 892.149 603.663H893.141C893.781 603.663 894.405 603.839 894.949 604.175L902.79 609.071C903.543 609.535 904.487 609.487 905.191 608.943C908.055 606.687 915.304 600.958 915.432 600.574C915.56 600.19 915.592 595.885 915.608 593.901C915.608 593.277 915.336 592.685 914.856 592.285L900.71 580.411C900.246 580.011 899.974 579.435 899.958 578.827L899.35 528.307C899.35 527.138 900.278 526.178 901.446 526.178H912.728C913.864 526.194 914.792 525.298 914.824 524.162L915.048 515.473C915.08 514.32 914.168 513.36 913.016 513.328L900.694 512.96C899.558 512.928 898.662 512 898.662 510.864V499.15C898.678 497.31 896.485 496.366 895.141 497.614H895.157Z" fill="#ECECEC"/>
<path d="M986.708 500.046L975.202 510.336C974.578 510.912 974.114 511.632 973.81 512.416L971.282 519.313C971.17 519.601 971.01 519.873 970.785 520.081L968.097 522.738C967.809 523.026 967.441 523.218 967.057 523.298L962.336 524.29C961.36 524.498 960.672 525.346 960.672 526.338V531.267C960.672 531.795 960.864 532.307 961.232 532.691L965.121 536.916C965.505 537.332 965.697 537.876 965.665 538.436L963.392 583.531C963.392 583.643 963.376 583.739 963.36 583.851L960.88 596.045C960.736 596.717 960.944 597.421 961.424 597.918L975.538 612.528C976.322 613.328 977.587 613.392 978.435 612.64L989.412 603.006C990.229 602.286 990.357 601.086 989.732 600.206L981.779 589.196C981.491 588.796 981.347 588.3 981.395 587.804L985.076 538.772C985.172 537.572 986.244 536.708 987.428 536.852L993.397 537.604C994.341 537.716 995.253 537.188 995.605 536.292L998.102 529.971C998.438 529.107 998.182 528.131 997.462 527.554L989.796 521.458C989.348 521.105 989.06 520.577 989.012 520.001L988.66 516.017C988.468 513.872 989.541 511.088 991.477 510.112C992.293 509.712 993.173 509.488 994.037 509.728C996.726 510.464 999.414 514.608 998.678 516.321C997.942 518.033 1004.41 523.282 1007.06 513.616C1007.13 513.408 1007.16 513.184 1007.21 512.976C1007.38 511.872 1007.02 508.928 1006.34 506.879C1005.53 504.431 995.685 499.134 991.781 498.974C987.876 498.814 986.74 500.03 986.74 500.03L986.708 500.046Z" fill="#ECECEC"/>
<path d="M1040.33 535.156C1030.79 531.619 1021.88 533.123 1013.53 539.428C1010.97 541.365 1008.98 543.061 1008.76 543.813C1008.22 545.701 1008.57 554.615 1008.71 557.623C1008.74 558.263 1008.49 558.871 1008.01 559.287L1000.04 566.297C999.59 566.697 999.334 567.273 999.334 567.865V595.917C999.334 596.717 999.718 597.469 1000.36 597.949L1017.1 609.871C1018.12 610.639 1019.55 610.543 1020.44 609.631L1031.12 600.27C1032.27 599.102 1032.06 597.181 1030.67 596.317C1026.33 593.597 1018.39 588.332 1018.75 586.428C1019.15 584.251 1018.2 575.226 1018.1 572.265C1018.09 571.657 1018.28 571.065 1018.67 570.585L1023.79 564.216C1024.09 563.848 1024.25 563.384 1024.25 562.904V559.944C1024.25 558.999 1023.61 558.199 1022.7 557.943C1020.57 557.351 1016.87 555.831 1016.02 552.15C1014.81 546.885 1014.65 542.165 1016.02 541.525C1017.02 541.061 1018.44 541.189 1019.32 540.916C1019.69 540.804 1020.09 540.724 1020.46 540.836C1022.97 541.541 1033.55 543.477 1034.94 548.726C1034.94 548.726 1036.12 556.503 1034.65 557.639L1034.56 558.663C1034.51 559.159 1034.64 559.655 1034.92 560.055L1037.18 563.256C1037.44 563.624 1037.6 564.056 1037.63 564.504C1037.93 568.233 1038.91 585.58 1037.56 586.924C1036.62 587.868 1035.31 588.556 1034.6 589.228C1034.11 589.708 1033.82 590.364 1033.82 591.068V594.845C1033.82 595.837 1034.51 596.685 1035.47 596.893L1039.98 597.885C1040.32 597.965 1040.64 598.126 1040.89 598.35L1053.01 608.799C1053.9 609.567 1055.26 609.455 1056 608.527L1066.56 595.453C1067.2 594.669 1067.18 593.533 1066.51 592.765L1059.2 584.267C1058.88 583.883 1058.69 583.403 1058.69 582.907V550.774C1058.69 550.406 1058.51 549.862 1058.3 549.574C1056.82 547.462 1051.23 539.204 1040.3 535.156H1040.33Z" fill="#ECECEC"/>
<path d="M1076.61 596.749C1076.8 597.165 1076.87 597.645 1077.19 597.965L1087.22 606.975C1089.32 609.151 1092.93 608.623 1094.33 605.935L1098.31 598.349C1098.95 597.101 1098.97 595.613 1098.36 594.365C1098.28 594.205 1098.21 594.045 1098.18 593.885L1097.11 588.54C1097.08 588.38 1097.01 588.22 1096.95 588.076C1096.68 587.532 1096.53 586.94 1096.5 586.348L1094.74 551.318C1094.68 549.958 1095.89 548.902 1097.22 549.158C1097.73 549.254 1098.2 549.542 1098.5 549.958L1105.43 559.191C1105.69 559.527 1105.83 559.943 1105.85 560.375L1106.95 593.725C1106.95 594.045 1107.05 594.365 1107.21 594.653L1115.96 610.943C1116.65 612.224 1118.41 612.432 1119.37 611.343L1127.83 601.774C1128.31 601.23 1128.47 600.478 1128.27 599.79L1125.45 590.364C1125.39 590.124 1125.35 589.884 1125.37 589.628L1127.77 552.422C1127.77 552.198 1127.83 551.99 1127.91 551.782L1130.17 546.101C1130.51 545.253 1130.27 544.293 1129.56 543.717L1126.28 540.98C1125.99 540.74 1125.64 540.58 1125.27 540.516L1122.43 540.068C1121.99 540.004 1121.61 539.796 1121.31 539.508L1112.14 530.627C1111.75 530.243 1111.22 530.035 1110.68 530.035H1108.38C1107.8 530.035 1107.26 530.259 1106.86 530.691C1104.58 533.107 1096.69 540.724 1095.59 540.58C1094.76 540.468 1093.32 540.308 1092.39 540.196C1091.83 540.132 1091.33 539.844 1091 539.396C1089.12 536.964 1081.48 531.651 1080.24 532.067C1079.3 532.387 1078.15 532.659 1077.46 532.819C1077.04 532.915 1076.67 533.139 1076.39 533.459L1067.62 543.477C1067.26 543.861 1067.07 544.357 1067.07 544.885V547.909C1067.07 548.486 1067.31 549.03 1067.71 549.414C1067.71 549.414 1073.15 555.415 1073.31 558.023C1073.47 560.631 1076.07 595.565 1076.66 596.781L1076.61 596.749Z" fill="#ECECEC"/>
<path d="M1148.14 530.803L1134.27 542.229C1133.79 542.629 1133.5 543.221 1133.5 543.845V546.357C1133.5 547.013 1133.8 547.638 1134.33 548.038L1140.51 552.678C1141 553.062 1141.32 553.638 1141.34 554.263C1141.56 559.703 1142.6 586.028 1141.29 590.54L1140.09 594.701C1139.93 595.261 1140.01 595.869 1140.32 596.381L1149.87 612C1151.01 613.856 1153.37 614.544 1155.33 613.568L1165.62 608.127C1167.06 607.423 1167.28 605.951 1167.28 604.35C1167.28 603.406 1166.96 602.494 1166.38 601.742L1161.76 594.125C1161.17 593.373 1160.85 592.429 1160.86 591.468L1161.47 549.814C1161.47 549.174 1161.63 548.566 1161.92 547.99L1162.58 546.677C1162.91 546.005 1162.86 545.205 1162.45 544.565C1160.45 541.589 1154.46 532.995 1150.56 530.579C1149.81 530.115 1148.85 530.211 1148.16 530.771L1148.14 530.803Z" fill="#ECECEC"/>
<path d="M1194.79 583.259C1192.87 582.555 1190.71 583.339 1189.65 585.099C1188.26 587.42 1185.92 591.196 1185.06 591.948C1183.8 593.053 1181.43 595.741 1182.21 598.109C1182.9 600.158 1189.75 609.215 1193.32 611.183C1193.97 611.551 1194.79 611.487 1195.41 611.087C1197.48 609.743 1203.3 605.551 1204.47 599.854C1204.47 599.854 1205.25 594.013 1204.47 592.589C1203.69 591.164 1196.58 583.915 1194.84 583.275C1194.82 583.275 1194.8 583.275 1194.79 583.259Z" fill="#ECECEC"/>
</g>
<defs>
<clipPath id="clip0_1153_2593">
<rect width="1512" height="508" fill="white" transform="translate(156 106)"/>
</clipPath>
</defs>
</svg>
