<svg width="1825" height="720" viewBox="0 0 1825 720" fill="none" xmlns="http://www.w3.org/2000/svg">
<g clip-path="url(#clip0_554_1688)">
<path d="M88.2152 286.615V311.075H56.3135V433.371H31.9281V311.075H0V286.615H88.2152Z" fill="#ECECEC"/>
<path d="M241 323.404V346.446H293.919V370.905H241V396.583C241 403.39 246.509 408.912 253.298 408.912H293.919V433.371H251.092C232.044 433.371 216.601 417.891 216.601 398.795V321.192C216.601 302.096 232.044 286.615 251.092 286.615H293.919V311.075H253.298C246.509 311.075 241 316.597 241 323.404Z" fill="#ECECEC"/>
<path d="M1771.7 323.404V346.446H1824.62V370.905H1771.7V396.583C1771.7 403.39 1777.21 408.912 1784 408.912H1824.62V433.371H1781.79C1762.75 433.371 1747.3 417.891 1747.3 398.795V321.192C1747.3 302.096 1762.75 286.615 1781.79 286.615H1824.62V311.075H1784C1777.21 311.075 1771.7 316.597 1771.7 323.404Z" fill="#ECECEC"/>
<path d="M1738.25 286.615L1701.39 357.861L1699.6 361.344V433.371H1675.2V358.656L1674.79 357.861L1637.93 286.615H1666.63L1675.2 304.188L1688.08 330.594L1699.6 307.009L1709.55 286.615H1738.25Z" fill="#ECECEC"/>
<path d="M1450.27 286.615H1425.87V433.371H1450.27C1491.81 433.371 1525.5 400.503 1525.5 359.98C1525.5 319.457 1491.81 286.615 1450.27 286.615ZM1450.27 410.461V309.512C1478.06 309.512 1500.61 332.131 1500.61 359.98C1500.61 387.83 1478.05 410.448 1450.27 410.448V410.461Z" fill="#ECECEC"/>
<path d="M195.677 286.615V433.371H171.279V372.216H128.717V433.371H104.318V286.615H128.717V347.757H171.279V286.615H195.677Z" fill="#ECECEC"/>
<path d="M477.984 408.925V433.371H402.886V286.615H427.272V408.925H477.984Z" fill="#ECECEC"/>
<path d="M560.453 283C518.023 283 483.625 317.484 483.625 359.993C483.625 402.503 518.023 436.987 560.453 436.987C602.883 436.987 637.255 402.529 637.255 359.993C637.255 317.458 602.857 283 560.453 283ZM560.453 410.462C532.633 410.462 510.111 387.869 510.111 359.993C510.111 332.117 532.646 309.525 560.453 309.525C588.26 309.525 610.769 332.144 610.769 359.993C610.769 387.843 588.233 410.462 560.453 410.462Z" fill="#ECECEC"/>
<path d="M1159.58 283C1117.15 283 1082.76 317.484 1082.76 359.993C1082.76 402.503 1117.15 436.987 1159.58 436.987C1202.01 436.987 1236.39 402.529 1236.39 359.993C1236.39 317.458 1202 283 1159.58 283ZM1159.58 410.462C1131.76 410.462 1109.24 387.869 1109.24 359.993C1109.24 332.117 1131.78 309.525 1159.58 309.525C1187.39 309.525 1209.9 332.144 1209.9 359.993C1209.9 387.843 1187.36 410.462 1159.58 410.462Z" fill="#ECECEC"/>
<path d="M1328.31 283C1285.88 283 1251.49 317.484 1251.49 359.993C1251.49 402.503 1285.88 436.987 1328.31 436.987C1370.74 436.987 1405.12 402.529 1405.12 359.993C1405.12 317.458 1370.73 283 1328.31 283ZM1328.31 410.462C1300.49 410.462 1277.97 387.869 1277.97 359.993C1277.97 332.117 1300.51 309.525 1328.31 309.525C1356.12 309.525 1378.63 332.144 1378.63 359.993C1378.63 387.843 1356.09 410.462 1328.31 410.462Z" fill="#ECECEC"/>
<path d="M752.431 331.548V433.385H726.553V330.965C726.553 324.728 724.03 319.073 719.949 314.981C715.867 310.889 710.226 308.36 704.004 308.36C691.561 308.36 681.455 318.491 681.455 330.965V433.385H655.577V331.548C655.577 304.731 677.268 283 704.004 283C717.386 283 729.499 288.43 738.244 297.223C747.015 305.989 752.431 318.133 752.431 331.548Z" fill="#ECECEC"/>
<path d="M844.834 434.272C807.424 434.272 773.673 401.245 773.673 359.172C773.673 317.1 807.688 283 849.656 283C856.697 283 863.539 283.967 870.012 285.794V314.743C863.804 311.869 856.921 310.28 849.656 310.28C822.708 310.28 800.872 332.17 800.872 359.186C800.872 384.572 820.145 405.416 844.834 407.853V381.01H830.013V356.736H869.035V434.272H844.821H844.834Z" fill="#ECECEC"/>
<path d="M1037.38 434.272C999.97 434.272 966.219 401.245 966.219 359.172C966.219 317.1 1000.22 283 1042.19 283C1049.23 283 1056.07 283.967 1062.55 285.794V314.743C1056.34 311.869 1049.45 310.28 1042.19 310.28C1015.24 310.28 993.405 332.17 993.405 359.186C993.405 384.572 1012.68 405.416 1037.37 407.853V381.01H1022.55V356.736H1061.57V434.272H1037.35H1037.38Z" fill="#ECECEC"/>
<path d="M1611.74 353.134C1623.51 347.214 1631.58 334.978 1631.58 320.874C1631.58 300.957 1615.48 286.615 1595.59 286.615H1547.24V433.371H1596.46C1598.98 433.371 1601.43 433.133 1603.83 432.696C1623.21 429.24 1637.93 412.236 1637.93 391.776C1637.93 374.216 1627.08 359.199 1611.74 353.134ZM1571.88 308.426H1587.52C1594.11 308.426 1600.37 312.068 1603.13 318.093C1604.27 320.517 1604.89 323.258 1604.89 326.132C1604.89 326.754 1604.86 327.35 1604.81 327.946C1603.99 336.673 1596.2 343.082 1587.46 343.082H1571.88V308.439V308.426ZM1611.2 388.611C1611.2 389.26 1611.18 389.909 1611.12 390.518C1610.22 402.556 1599.63 411.574 1587.6 411.574H1571.88V367.449H1589.55C1601.2 367.449 1611.07 376.666 1611.2 388.346V388.611Z" fill="#ECECEC"/>
</g>
<defs>
<clipPath id="clip0_554_1688">
<rect width="1824.62" height="154" fill="white" transform="translate(0 283)"/>
</clipPath>
</defs>
</svg>
