<svg width="845" height="289" viewBox="0 0 845 289" fill="none" xmlns="http://www.w3.org/2000/svg">
<path d="M100.938 147.062V175.734H98.125C96.4583 169.12 94.6094 164.38 92.5781 161.516C90.5469 158.599 87.7604 156.281 84.2188 154.562C82.2396 153.625 78.776 153.156 73.8281 153.156H65.9375V234.875C65.9375 240.292 66.224 243.677 66.7969 245.031C67.4219 246.385 68.5938 247.583 70.3125 248.625C72.0833 249.615 74.4792 250.109 77.5 250.109H81.0156V253H25.5469V250.109H29.0625C32.1354 250.109 34.6094 249.562 36.4844 248.469C37.8385 247.74 38.9062 246.49 39.6875 244.719C40.2604 243.469 40.5469 240.188 40.5469 234.875V153.156H32.8906C25.7552 153.156 20.5729 154.667 17.3438 157.688C12.8125 161.906 9.94792 167.922 8.75 175.734H5.78125V147.062H100.938ZM115.999 275.56C117.279 275.773 118.559 275.987 119.839 276.2C121.225 276.413 122.612 276.52 123.999 276.52C126.665 276.52 128.852 275.667 130.559 273.96C132.265 272.253 133.652 270.173 134.719 267.72C135.892 265.373 136.852 262.867 137.599 260.2C138.345 257.64 139.199 255.453 140.159 253.64L107.999 170.12H118.719L145.279 241.32L171.839 170.12H182.239L151.359 251.88C149.439 257.107 147.572 261.8 145.759 265.96C144.052 270.12 142.185 273.64 140.159 276.52C138.239 279.507 136.052 281.747 133.599 283.24C131.252 284.84 128.425 285.64 125.119 285.64C123.412 285.64 121.759 285.533 120.159 285.32C118.665 285.107 117.279 284.84 115.999 284.52V275.56ZM200.959 211.88C200.959 216.573 201.599 221.053 202.879 225.32C204.159 229.48 205.972 233.16 208.319 236.36C210.772 239.453 213.705 241.96 217.119 243.88C220.639 245.693 224.585 246.6 228.959 246.6C233.865 246.6 238.132 245.64 241.759 243.72C245.492 241.693 248.532 238.973 250.879 235.56C253.225 232.147 254.932 228.2 255.999 223.72C257.065 219.133 257.492 214.227 257.279 209C257.279 203.773 256.532 199.187 255.039 195.24C253.652 191.187 251.679 187.773 249.119 185C246.559 182.227 243.572 180.147 240.159 178.76C236.745 177.267 233.012 176.52 228.959 176.52C224.479 176.52 220.479 177.427 216.959 179.24C213.439 181.053 210.505 183.56 208.159 186.76C205.812 189.853 203.999 193.587 202.719 197.96C201.545 202.227 200.959 206.867 200.959 211.88ZM200.959 285.64H191.359V170.12H200.959V184.68H201.279C202.665 182.013 204.425 179.613 206.559 177.48C208.799 175.347 211.199 173.587 213.759 172.2C216.425 170.813 219.145 169.747 221.919 169C224.692 168.253 227.412 167.88 230.079 167.88C236.799 167.88 242.505 169 247.199 171.24C251.892 173.48 255.732 176.573 258.719 180.52C261.812 184.36 264.052 188.947 265.439 194.28C266.825 199.613 267.519 205.32 267.519 211.4C267.519 217.16 266.772 222.707 265.279 228.04C263.785 233.373 261.492 238.067 258.399 242.12C255.412 246.067 251.572 249.267 246.879 251.72C242.292 254.067 236.852 255.24 230.559 255.24C224.692 255.24 219.039 253.96 213.599 251.4C208.265 248.733 204.052 244.84 200.959 239.72V285.64ZM305.331 258.28C297.758 258.28 291.678 255.613 287.091 250.28C282.505 244.84 280.211 237.587 280.211 228.52C280.211 225.64 280.585 222.707 281.331 219.72C282.185 216.733 283.198 213.96 284.371 211.4C283.731 210.44 283.198 209.213 282.771 207.72C282.451 206.12 282.291 204.253 282.291 202.12C282.291 195.187 283.518 188.84 285.971 183.08C288.425 177.213 291.731 172.147 295.891 167.88C300.051 163.613 304.638 160.307 309.651 157.96C314.665 155.613 319.731 154.44 324.851 154.44C333.598 154.44 340.745 157.373 346.291 163.24C351.945 169.107 354.771 178.227 354.771 190.6C354.771 196.787 353.811 203.08 351.891 209.48C349.971 215.88 347.358 222.013 344.051 227.88C340.851 233.64 337.118 238.813 332.851 243.4C328.691 247.987 324.211 251.613 319.411 254.28C314.718 256.947 310.025 258.28 305.331 258.28ZM302.771 204.2C303.305 205.373 303.571 206.76 303.571 208.36C303.571 209.96 303.251 211.613 302.611 213.32C301.971 215.027 301.331 217.32 300.691 220.2C300.051 222.973 299.731 226.973 299.731 232.2C299.731 233.587 299.891 234.76 300.211 235.72C300.638 236.573 301.545 237 302.931 237C306.558 237 309.971 235.827 313.171 233.48C316.478 231.133 319.411 228.04 321.971 224.2C324.638 220.36 326.878 216.093 328.691 211.4C330.611 206.6 332.051 201.747 333.011 196.84C334.078 191.827 334.611 187.187 334.611 182.92C334.611 180.147 334.078 178.227 333.011 177.16C331.945 176.093 330.078 175.56 327.411 175.56C323.785 175.56 320.051 176.733 316.211 179.08C312.478 181.32 309.331 184.413 306.771 188.36C304.211 192.2 302.931 196.573 302.931 201.48C302.931 202.44 302.878 203.347 302.771 204.2ZM432.22 211.88C432.22 206.867 431.58 202.227 430.3 197.96C429.127 193.587 427.367 189.853 425.02 186.76C422.673 183.56 419.74 181.053 416.22 179.24C412.7 177.427 408.7 176.52 404.22 176.52C400.167 176.52 396.433 177.267 393.02 178.76C389.607 180.147 386.62 182.227 384.06 185C381.5 187.773 379.473 191.187 377.98 195.24C376.593 199.187 375.9 203.773 375.9 209C375.687 214.227 376.113 219.133 377.18 223.72C378.247 228.2 379.953 232.147 382.3 235.56C384.647 238.973 387.633 241.693 391.26 243.72C394.887 245.64 399.207 246.6 404.22 246.6C408.593 246.6 412.487 245.693 415.9 243.88C419.42 241.96 422.353 239.453 424.7 236.36C427.153 233.16 429.02 229.48 430.3 225.32C431.58 221.053 432.22 216.573 432.22 211.88ZM432.22 170.12H441.82V245C441.82 250.547 441.233 255.827 440.06 260.84C438.993 265.96 437.02 270.44 434.14 274.28C431.26 278.12 427.313 281.16 422.3 283.4C417.287 285.747 410.833 286.92 402.94 286.92C396.86 286.92 391.633 286.12 387.26 284.52C382.887 283.027 379.313 281.107 376.54 278.76C373.767 276.413 371.633 273.8 370.14 270.92C368.753 268.147 368.007 265.533 367.9 263.08H378.14C378.887 266.173 380.06 268.68 381.66 270.6C383.26 272.627 385.127 274.173 387.26 275.24C389.5 276.413 391.953 277.213 394.62 277.64C397.287 278.067 400.06 278.28 402.94 278.28C409.447 278.28 414.673 277.16 418.62 274.92C422.567 272.68 425.553 269.747 427.58 266.12C429.607 262.493 430.887 258.387 431.42 253.8C432.06 249.213 432.327 244.52 432.22 239.72C429.127 244.84 424.86 248.733 419.42 251.4C414.087 253.96 408.487 255.24 402.62 255.24C396.327 255.24 390.833 254.067 386.14 251.72C381.553 249.267 377.713 246.067 374.62 242.12C371.633 238.067 369.393 233.373 367.9 228.04C366.407 222.707 365.66 217.16 365.66 211.4C365.66 205.32 366.353 199.613 367.74 194.28C369.127 188.947 371.313 184.36 374.3 180.52C377.393 176.573 381.287 173.48 385.98 171.24C390.673 169 396.38 167.88 403.1 167.88C405.767 167.88 408.487 168.253 411.26 169C414.033 169.747 416.7 170.813 419.26 172.2C421.927 173.587 424.327 175.347 426.46 177.48C428.7 179.613 430.513 182.013 431.9 184.68H432.22V170.12ZM469.712 253H460.112V170.12H469.712V185.64H470.032C472.699 179.027 476.112 174.44 480.272 171.88C484.539 169.213 490.139 167.88 497.072 167.88V178.28C491.632 178.173 487.152 179.027 483.632 180.84C480.112 182.653 477.286 185.107 475.152 188.2C473.126 191.293 471.686 194.973 470.832 199.24C470.086 203.4 469.712 207.773 469.712 212.36V253ZM536.43 242.203C539.506 242.203 542.367 241.28 545.012 239.434C546.489 238.327 548.242 236.604 550.273 234.266V206.673C545.228 207.903 540.798 209.841 536.983 212.487C530.524 216.978 527.294 222.7 527.294 229.652C527.294 233.774 528.216 236.912 530.062 239.065C531.969 241.157 534.092 242.203 536.43 242.203ZM499.793 235.374C499.793 226.883 503.884 220.146 512.066 215.163C520.249 210.18 533.077 205.166 550.549 200.121V186.37C550.549 180.771 549.35 176.649 546.95 174.004C544.612 171.297 540.429 169.943 534.4 169.943C531.016 169.943 528.216 170.589 526.002 171.881C523.848 173.112 522.772 174.681 522.772 176.588C522.772 177.326 522.895 177.941 523.141 178.434C523.387 178.926 523.756 179.449 524.248 180.002L525.356 181.294C526.217 182.34 526.894 183.509 527.386 184.801C527.94 186.032 528.216 187.354 528.216 188.77C528.216 192.338 527.017 195.106 524.617 197.075C522.279 198.982 519.542 199.936 516.404 199.936C512.774 199.936 509.667 198.859 507.083 196.706C504.561 194.553 503.299 191.446 503.299 187.385C503.299 180.125 506.714 174.373 513.543 170.128C520.372 165.883 528.77 163.76 538.737 163.76C549.442 163.76 558.394 165.821 565.592 169.943C572.729 174.127 576.297 181.817 576.297 193.015V238.788C576.297 240.142 576.635 241.311 577.312 242.295C578.05 243.218 578.85 243.679 579.712 243.679C580.45 243.679 581.096 243.556 581.65 243.31C582.265 243.002 583.188 242.233 584.418 241.003L587.279 244.971C583.587 249.278 579.496 252.292 575.005 254.015C572.175 255.123 569.191 255.676 566.053 255.676C560.455 255.676 556.363 254.046 553.779 250.785C552.303 248.939 551.226 246.202 550.549 242.572C545.32 247.801 539.414 251.493 532.831 253.646C528.832 255 524.894 255.676 521.018 255.676C515.85 255.676 511.021 254.046 506.529 250.785C502.038 247.463 499.793 242.326 499.793 235.374ZM604.174 211.88C604.174 216.573 604.814 221.053 606.094 225.32C607.374 229.48 609.187 233.16 611.534 236.36C613.987 239.453 616.92 241.96 620.334 243.88C623.854 245.693 627.8 246.6 632.174 246.6C637.08 246.6 641.347 245.64 644.974 243.72C648.707 241.693 651.747 238.973 654.094 235.56C656.44 232.147 658.147 228.2 659.214 223.72C660.28 219.133 660.707 214.227 660.494 209C660.494 203.773 659.747 199.187 658.254 195.24C656.867 191.187 654.894 187.773 652.334 185C649.774 182.227 646.787 180.147 643.374 178.76C639.96 177.267 636.227 176.52 632.174 176.52C627.694 176.52 623.694 177.427 620.174 179.24C616.654 181.053 613.72 183.56 611.374 186.76C609.027 189.853 607.214 193.587 605.934 197.96C604.76 202.227 604.174 206.867 604.174 211.88ZM604.174 285.64H594.574V170.12H604.174V184.68H604.494C605.88 182.013 607.64 179.613 609.774 177.48C612.014 175.347 614.414 173.587 616.974 172.2C619.64 170.813 622.36 169.747 625.134 169C627.907 168.253 630.627 167.88 633.294 167.88C640.014 167.88 645.72 169 650.414 171.24C655.107 173.48 658.947 176.573 661.934 180.52C665.027 184.36 667.267 188.947 668.654 194.28C670.04 199.613 670.734 205.32 670.734 211.4C670.734 217.16 669.987 222.707 668.494 228.04C667 233.373 664.707 238.067 661.614 242.12C658.627 246.067 654.787 249.267 650.094 251.72C645.507 254.067 640.067 255.24 633.774 255.24C627.907 255.24 622.254 253.96 616.814 251.4C611.48 248.733 607.267 244.84 604.174 239.72V285.64ZM684.866 253V137.8H694.466V181.64C698.306 177.587 702.253 174.28 706.306 171.72C710.466 169.16 715.426 167.88 721.186 167.88C726.306 167.88 731.053 168.787 735.426 170.6C739.8 172.307 743.48 175.347 746.466 179.72C748.493 182.707 749.666 185.8 749.986 189C750.413 192.093 750.626 195.347 750.626 198.76V253H741.026V198.92C741.026 191.453 739.373 185.853 736.066 182.12C732.76 178.387 727.266 176.52 719.586 176.52C716.6 176.52 713.88 177 711.426 177.96C708.973 178.813 706.733 179.987 704.706 181.48C702.786 182.973 701.133 184.68 699.746 186.6C698.36 188.52 697.293 190.547 696.546 192.68C695.586 195.347 695 197.907 694.786 200.36C694.573 202.813 694.466 205.48 694.466 208.36V253H684.866ZM800.852 230.656L818.431 167.844H842.102L812.884 251.594C807.259 267.74 802.806 277.74 799.524 281.594C796.243 285.5 789.681 287.453 779.837 287.453C777.858 287.453 776.269 287.427 775.071 287.375C773.873 287.375 772.076 287.297 769.681 287.141V269.328L772.493 269.484C774.681 269.589 776.764 269.51 778.743 269.25C780.722 268.99 782.389 268.391 783.743 267.453C785.045 266.568 786.243 264.719 787.337 261.906C788.483 259.094 788.951 257.375 788.743 256.75L757.493 167.844H782.259L800.852 230.656Z" fill="#ECECEC"/>
<path d="M225.72 53.2402C223.48 43.4269 219.32 36.4402 213.24 32.2802C207.16 28.1202 199.213 26.0402 189.4 26.0402C182.467 26.0402 176.493 27.4269 171.48 30.2002C166.467 32.9736 162.307 36.7069 159 41.4002C155.8 46.0936 153.4 51.5336 151.8 57.7202C150.307 63.8002 149.56 70.2536 149.56 77.0802C149.56 83.4802 150.2 89.7736 151.48 95.9602C152.867 102.147 155.107 107.694 158.2 112.6C161.293 117.4 165.453 121.294 170.68 124.28C175.907 127.267 182.467 128.76 190.36 128.76C195.267 128.76 199.747 127.96 203.8 126.36C207.853 124.76 211.373 122.574 214.36 119.8C217.453 116.92 220.013 113.56 222.04 109.72C224.173 105.88 225.773 101.667 226.84 97.0802H238.2C236.92 102.627 235.053 107.907 232.6 112.92C230.147 117.827 226.893 122.147 222.84 125.88C218.893 129.614 214.04 132.6 208.28 134.84C202.627 136.974 195.96 138.04 188.28 138.04C179.427 138.04 171.853 136.44 165.56 133.24C159.267 129.934 154.093 125.507 150.04 119.96C146.093 114.414 143.213 108.014 141.4 100.76C139.587 93.4002 138.68 85.6136 138.68 77.4002C138.68 66.4136 140.013 57.0802 142.68 49.4002C145.453 41.7202 149.24 35.4802 154.04 30.6802C158.84 25.7736 164.493 22.2536 171 20.1202C177.507 17.8802 184.6 16.7602 192.28 16.7602C198.147 16.7602 203.587 17.5602 208.6 19.1602C213.72 20.6536 218.2 22.9469 222.04 26.0402C225.987 29.1336 229.187 32.9736 231.64 37.5602C234.2 42.0402 235.96 47.2669 236.92 53.2402H225.72ZM248.616 135V52.1202H258.216V135H248.616ZM248.136 34.0402V19.8002H258.696V34.0402H248.136ZM284.245 135H274.645V52.1202H284.245V63.6402C288.085 59.5869 292.032 56.2802 296.085 53.7202C300.245 51.1602 305.205 49.8802 310.965 49.8802C316.085 49.8802 320.832 50.7869 325.205 52.6002C329.578 54.3069 333.258 57.3469 336.245 61.7202C338.272 64.7069 339.445 67.8002 339.765 71.0002C340.192 74.0936 340.405 77.3469 340.405 80.7602V135H330.805V80.9202C330.805 73.4536 329.152 67.8536 325.845 64.1202C322.538 60.3869 317.045 58.5202 309.365 58.5202C306.378 58.5202 303.658 59.0002 301.205 59.9602C298.752 60.8136 296.512 61.9869 294.485 63.4802C292.565 64.9736 290.912 66.6802 289.525 68.6002C288.138 70.5202 287.072 72.5469 286.325 74.6802C285.365 77.3469 284.778 79.9069 284.565 82.3602C284.352 84.8136 284.245 87.4802 284.245 90.3602V135ZM415.551 87.8002C415.551 83.7469 414.965 79.9602 413.791 76.4402C412.725 72.8136 411.071 69.7202 408.831 67.1602C406.698 64.4936 403.978 62.4136 400.671 60.9202C397.365 59.3202 393.578 58.5202 389.311 58.5202C385.045 58.5202 381.258 59.3202 377.951 60.9202C374.751 62.5202 371.978 64.6536 369.631 67.3202C367.391 69.9869 365.578 73.0802 364.191 76.6002C362.805 80.1202 361.898 83.8536 361.471 87.8002H415.551ZM361.471 95.8002C361.471 100.28 362.058 104.547 363.231 108.6C364.405 112.547 366.111 116.014 368.351 119C370.698 121.88 373.631 124.227 377.151 126.04C380.671 127.747 384.725 128.6 389.311 128.6C395.605 128.6 400.991 126.947 405.471 123.64C409.951 120.334 412.938 115.64 414.431 109.56H425.151C423.978 113.507 422.431 117.187 420.511 120.6C418.591 123.907 416.191 126.84 413.311 129.4C410.431 131.854 407.018 133.774 403.071 135.16C399.125 136.547 394.538 137.24 389.311 137.24C382.698 137.24 376.991 136.12 372.191 133.88C367.391 131.64 363.445 128.6 360.351 124.76C357.258 120.814 354.965 116.227 353.471 111C351.978 105.667 351.231 99.9602 351.231 93.8802C351.231 87.8002 352.085 82.0936 353.791 76.7602C355.605 71.4269 358.111 66.7869 361.311 62.8402C364.618 58.7869 368.618 55.6402 373.311 53.4002C378.005 51.0536 383.338 49.8802 389.311 49.8802C400.725 49.8802 409.685 53.8269 416.191 61.7202C422.698 69.5069 425.898 80.8669 425.791 95.8002H361.471ZM444.778 135H435.178V52.1202H444.778V64.6002H445.098C447.551 59.8002 451.071 56.1736 455.658 53.7202C460.244 51.1602 465.258 49.8802 470.698 49.8802C474.538 49.8802 477.791 50.3069 480.458 51.1602C483.124 52.0136 485.364 53.1869 487.178 54.6802C489.098 56.0669 490.644 57.7202 491.818 59.6402C493.098 61.5602 494.164 63.6402 495.018 65.8802C497.791 60.4402 501.471 56.4402 506.058 53.8802C510.751 51.2136 516.084 49.8802 522.058 49.8802C527.711 49.8802 532.191 50.8402 535.498 52.7602C538.911 54.5736 541.524 57.0269 543.338 60.1202C545.151 63.1069 546.324 66.5736 546.858 70.5202C547.498 74.4669 547.818 78.5202 547.818 82.6802V135H538.218V77.7202C538.218 71.7469 536.938 67.0536 534.378 63.6402C531.924 60.2269 527.284 58.5202 520.458 58.5202C516.938 58.5202 513.524 59.3202 510.218 60.9202C507.018 62.4136 504.191 64.7602 501.738 67.9602C500.671 69.3469 499.764 71.0002 499.018 72.9202C498.378 74.7336 497.844 76.6536 497.418 78.6802C496.991 80.7069 496.671 82.7336 496.458 84.7602C496.351 86.7869 496.298 88.6536 496.298 90.3602V135H486.698V77.7202C486.698 71.7469 485.418 67.0536 482.858 63.6402C480.404 60.2269 475.764 58.5202 468.938 58.5202C465.418 58.5202 462.004 59.3202 458.698 60.9202C455.498 62.4136 452.671 64.7602 450.218 67.9602C449.151 69.3469 448.244 71.0002 447.498 72.9202C446.858 74.7336 446.324 76.6536 445.898 78.6802C445.471 80.7069 445.151 82.7336 444.938 84.7602C444.831 86.7869 444.778 88.6536 444.778 90.3602V135ZM615.979 91.4802C611.925 93.1869 607.819 94.3069 603.659 94.8402C599.499 95.3736 595.339 95.8002 591.179 96.1202C583.819 96.6536 578.059 98.3069 573.899 101.08C569.845 103.854 567.819 108.067 567.819 113.72C567.819 116.28 568.299 118.52 569.259 120.44C570.325 122.254 571.659 123.8 573.259 125.08C574.965 126.254 576.885 127.16 579.019 127.8C581.259 128.334 583.499 128.6 585.739 128.6C589.579 128.6 593.312 128.12 596.939 127.16C600.565 126.2 603.765 124.76 606.539 122.84C609.419 120.814 611.712 118.307 613.419 115.32C615.125 112.227 615.979 108.6 615.979 104.44V91.4802ZM599.819 86.6802C601.632 86.4669 603.765 86.1469 606.219 85.7202C608.779 85.2936 610.859 84.7069 612.459 83.9602C614.059 83.2136 615.019 81.9869 615.339 80.2802C615.765 78.4669 615.979 76.8136 615.979 75.3202C615.979 70.4136 614.379 66.4136 611.179 63.3202C608.085 60.1202 602.805 58.5202 595.339 58.5202C592.032 58.5202 588.992 58.8402 586.219 59.4802C583.445 60.0136 580.992 61.0269 578.859 62.5202C576.832 63.9069 575.125 65.8269 573.739 68.2802C572.459 70.6269 571.605 73.6136 571.179 77.2402H561.419C561.739 72.3336 562.859 68.1736 564.779 64.7602C566.699 61.2402 569.152 58.4136 572.139 56.2802C575.232 54.0402 578.752 52.4402 582.699 51.4802C586.752 50.4136 591.019 49.8802 595.499 49.8802C599.659 49.8802 603.552 50.3602 607.179 51.3202C610.912 52.1736 614.112 53.6136 616.779 55.6402C619.552 57.5602 621.685 60.1736 623.179 63.4802C624.779 66.7869 625.579 70.8402 625.579 75.6402V120.76C625.579 124.494 626.219 126.894 627.499 127.96C628.885 128.92 631.605 128.654 635.659 127.16V134.68C634.912 134.894 633.792 135.214 632.299 135.64C630.912 136.067 629.525 136.28 628.139 136.28C626.645 136.28 625.205 136.12 623.819 135.8C622.219 135.587 620.939 135.107 619.979 134.36C619.019 133.507 618.219 132.547 617.579 131.48C617.045 130.307 616.672 129.08 616.459 127.8C616.245 126.414 616.139 124.974 616.139 123.48C612.085 127.96 607.445 131.374 602.219 133.72C596.992 136.067 591.339 137.24 585.259 137.24C581.632 137.24 578.112 136.76 574.699 135.8C571.392 134.84 568.459 133.347 565.899 131.32C563.339 129.294 561.312 126.84 559.819 123.96C558.325 120.974 557.579 117.454 557.579 113.4C557.579 99.3202 567.232 91.0002 586.539 88.4402L599.819 86.6802Z" fill="#ECECEC"/>
</svg>
