<svg width="1825" height="720" viewBox="0 0 1825 720" fill="none" xmlns="http://www.w3.org/2000/svg">
<g clip-path="url(#clip0_687_2594)">
<path d="M73.7023 407.726V396.557H73.3296C68.3067 405.306 56.581 410.329 42.9921 410.329C20.8425 410.329 0 398.42 0 362.125V304.615H19.3572V360.635C19.3572 382.222 27.3615 392.646 45.0391 392.646C62.7166 392.646 72.028 380.175 72.028 360.262V304.615H91.3852V407.721H73.7023V407.726Z" fill="#ECECEC"/>
<path d="M181.836 407.726V351.518C181.836 329.741 173.275 319.506 156.154 319.506C139.033 319.506 128.982 331.977 128.982 351.328V407.72H109.625V304.615H127.68V315.595H128.053C135.684 305.733 146.292 301.823 158.201 301.823C182.954 301.823 201.193 317.459 201.193 345.933V407.72H181.836V407.726Z" fill="#ECECEC"/>
<path d="M397.655 407.726V351.707C397.655 329.557 389.095 319.511 371.973 319.511C354.852 319.511 344.801 331.793 344.801 351.896V407.731H325.444V270H344.801V315.595H345.174C351.314 306.478 361.177 301.823 374.02 301.823C398.59 301.823 417.012 317.459 417.012 345.744V407.721H397.655V407.726Z" fill="#ECECEC"/>
<path d="M479.41 414.159C450.375 414.159 424.509 389.406 424.509 360.37C424.509 328.915 449.262 305.652 480.901 305.652C509.375 305.652 536.175 327.986 535.802 360.743C535.43 388.288 512.351 414.159 479.41 414.159ZM479.967 323.335C460.609 323.335 443.861 339.711 443.861 359.814C443.861 379.916 460.053 396.476 479.594 396.476C499.135 396.476 516.445 380.473 516.445 359.625C516.445 338.777 500.253 323.335 479.967 323.335Z" fill="#ECECEC"/>
<path d="M678.972 415.379V357.685C678.972 338.145 670.974 327.164 655.165 327.164C638.443 327.164 631.173 336.654 631.173 357.313V415.379H612.27V355.449C612.27 335.163 603.002 327.159 589.37 327.159C572.648 327.159 564.471 337.21 564.471 357.496V415.379H545.567V312.274H563.013V323.443H563.375C571.552 313.581 579.189 309.487 592.27 309.487C605.351 309.487 618.443 316 623.531 326.797C630.801 315.071 640.798 309.487 656.791 309.487C682.964 309.487 697.865 326.235 697.865 352.852V415.385H678.962L678.972 415.379Z" fill="#ECECEC"/>
<path d="M844.811 415.379V357.685C844.811 338.145 836.925 327.164 821.333 327.164C804.843 327.164 797.676 336.654 797.676 357.313V415.379H779.037V355.449C779.037 335.163 769.899 327.159 756.456 327.159C739.966 327.159 731.903 337.21 731.903 357.496V415.379H713.264V312.274H730.466V323.443H730.822C738.886 313.581 746.415 309.487 759.318 309.487C772.221 309.487 785.124 316 790.142 326.797C797.309 315.071 807.166 309.487 822.937 309.487C848.743 309.487 863.439 326.235 863.439 352.852V415.385H844.8L844.811 415.379Z" fill="#ECECEC"/>
<path d="M892.821 372.198C897.287 389.319 910.871 400.3 926.696 400.3C938.794 400.3 950.147 393.97 956.099 382.989H975.456C967.452 404.204 948.1 417.977 925.95 417.977C896.915 417.977 873.469 392.295 873.469 364.75C873.469 332.182 898.038 309.476 925.394 309.476C955.732 309.476 978.81 332.927 978.81 362.519C978.81 365.684 978.81 368.66 978.254 372.198H892.826H892.821ZM959.448 357.313C957.957 339.819 942.51 327.164 925.945 327.164C909.38 327.164 894.306 339.635 892.815 357.313H959.442H959.448Z" fill="#ECECEC"/>
<path d="M1190.21 449.811V401.05H1189.84C1182.21 411.658 1169.37 417.988 1155.41 417.988C1125.07 417.988 1101.43 393.791 1101.43 363.643C1101.43 333.494 1124.7 309.481 1154.85 309.481C1171.23 309.481 1185.93 318.042 1191.33 326.046H1191.7V312.274H1209.57V449.811H1190.21ZM1191.89 364.199C1191.89 343.54 1176.44 327.164 1155.96 327.164C1135.49 327.164 1120.79 342.8 1120.79 363.643C1120.79 384.485 1136.42 400.305 1156.52 400.305C1176.62 400.305 1191.88 383.74 1191.88 364.199H1191.89Z" fill="#ECECEC"/>
<path d="M1303.04 415.379V404.21H1302.67C1297.65 412.96 1285.92 417.983 1272.33 417.983C1250.18 417.983 1229.34 406.073 1229.34 369.779V312.269H1248.7V368.288C1248.7 389.876 1256.7 400.3 1274.38 400.3C1292.06 400.3 1301.37 387.829 1301.37 367.915V312.269H1320.73V415.374H1303.04V415.379Z" fill="#ECECEC"/>
<path d="M1337.24 300.359V277.653H1356.59V300.359H1337.24ZM1337.24 415.379V312.274H1356.59V415.379H1337.24Z" fill="#ECECEC"/>
<path d="M1569.33 419.208V404.507H1568.96C1560.95 415.676 1547.55 421.817 1532.48 421.817C1502.51 421.817 1478.88 399.111 1478.88 368.774C1478.88 338.436 1501.21 313.311 1531.92 313.311C1545.88 313.311 1559.1 318.334 1567.47 328.758H1567.85V281.482H1587.2V419.208H1569.34H1569.33ZM1533.41 330.988C1513.68 330.988 1498.24 347.553 1498.24 367.839C1498.24 388.125 1514.06 404.134 1533.41 404.134C1552.77 404.134 1569.34 388.131 1569.34 368.585C1569.34 347.553 1555.19 330.988 1533.41 330.988Z" fill="#ECECEC"/>
<path d="M1654.75 425.257C1625.72 425.257 1599.85 400.505 1599.85 371.469C1599.85 340.013 1624.6 316.751 1656.24 316.751C1684.72 316.751 1711.52 339.084 1711.14 371.841C1710.77 399.387 1687.69 425.257 1654.75 425.257ZM1655.31 334.434C1635.95 334.434 1619.2 350.81 1619.2 370.912C1619.2 391.015 1635.4 407.574 1654.94 407.574C1674.48 407.574 1691.79 391.571 1691.79 370.723C1691.79 349.875 1675.6 334.434 1655.31 334.434Z" fill="#ECECEC"/>
<path d="M1722.45 423.033V319.927H1740.5V329.233H1740.87C1745.52 322.347 1753.53 317.88 1767.12 317.135V337.048C1750.37 337.605 1741.81 347.845 1741.81 365.15V423.033H1722.45Z" fill="#ECECEC"/>
<path d="M1788.33 423.033V337.61H1774.37V319.927H1788.33V285.312H1807.68V319.927H1824.62V337.61H1807.68V423.038H1788.33V423.033Z" fill="#ECECEC"/>
</g>
<defs>
<clipPath id="clip0_687_2594">
<rect width="1824.62" height="179.811" fill="white" transform="translate(0 270)"/>
</clipPath>
</defs>
</svg>
