<svg width="1825" height="720" viewBox="0 0 1825 720" fill="none" xmlns="http://www.w3.org/2000/svg">
<g clip-path="url(#clip0_925_5387)">
<path d="M457.619 99.9916C457.619 99.9916 251.011 10.5544 196.388 116.092C189.644 129.158 187.537 144.162 191.667 158.324C207.768 213.874 286.837 225.338 286.837 225.338C286.837 225.338 365.821 235.032 350.311 272.797C347.529 279.709 339.015 287.38 332.187 290.33C262.981 319.496 205.745 274.651 196.725 265.547L177.084 295.388C177.084 295.388 255.31 362.908 342.218 319.243C355.706 312.5 367.844 302.806 375.684 289.993C378.887 284.767 381.163 278.023 382.764 271.954C400.635 205.529 293.917 187.068 293.917 187.068C293.917 187.068 233.731 178.808 234.742 142.729C234.995 132.108 241.486 122.583 250.337 116.682C300.492 83.8069 393.301 109.601 443.204 127.809L457.619 99.9916Z" fill="#ECECEC"/>
<path d="M507.353 130.506C478.018 125.196 447.25 129.579 421.962 145.511C403.501 157.228 385.546 176.363 382.343 207.299C378.803 241.102 400.298 262.428 422.72 271.026C450.369 281.563 480.968 279.877 508.617 269.425C524.043 263.693 539.975 250.627 548.826 237.814C566.781 211.683 582.713 144.078 507.353 130.506ZM538.458 198.617C529.101 244.136 484.003 262.091 447.419 254.252L444.384 253.493C415.724 246.918 401.815 214.296 415.134 188.08C431.487 156.048 468.661 152.423 468.661 152.423C486.616 147.113 547.73 153.182 538.458 198.617Z" fill="#ECECEC"/>
<path d="M596.284 122.077L556.75 305.587H584.399L615.588 194.486L637.083 278.107L717.416 178.217C717.416 178.217 730.566 289.319 736.72 294.545L770.101 291.932C770.101 291.932 760.913 253.999 751.64 115.923L714.297 113.985C714.297 113.985 657.651 187.321 649.727 207.468L627.305 119.632L596.116 122.077H596.284Z" fill="#ECECEC"/>
<path d="M793.535 103.616C793.535 103.616 793.113 225.507 785.189 279.287C785.189 279.287 869.737 260.237 951.841 263.356L960.186 229.047C960.186 229.047 833.743 229.047 823.712 235.285C823.712 235.285 827 211.43 827.084 205.698C827.084 205.698 893.677 192.969 941.473 191.452L943.243 162.539C943.243 162.539 911.379 169.788 828.264 172.233C828.264 172.233 832.058 142.476 831.046 134.805C831.046 134.805 944.676 130.675 958.5 125.786L962.631 99.823C962.631 99.823 898.904 102.942 793.535 103.616Z" fill="#ECECEC"/>
<path d="M1116.22 35C1116.22 35 1106.78 235.707 1098.51 295.894C1098.51 295.894 1192.34 284.345 1266.18 279.203L1275.37 248.688C1275.79 247.255 1274.69 245.822 1273.17 245.907L1143.44 252.229C1143.44 252.229 1158.79 43.2609 1149.93 35H1116.3H1116.22Z" fill="#ECECEC"/>
<path d="M1249.74 66.8636C1249.74 66.8636 1223.02 197.352 1224.37 226.35L1256.06 228.626C1256.06 228.626 1269.63 99.0643 1277.39 66.8636H1249.74Z" fill="#ECECEC"/>
<path d="M1307.65 60.2886C1307.65 60.2886 1300.15 211.598 1288.94 285.862L1325.35 281.226L1332.35 201.82L1351.06 183.107L1431.4 265.8L1471.1 238.236C1471.1 238.236 1443.53 206.456 1383.35 157.481L1474.89 73.4386L1441.26 60.3728L1339.01 142.561C1339.01 142.561 1346.51 68.8024 1345.58 57.0853L1307.74 60.3728L1307.65 60.2886Z" fill="#ECECEC"/>
<path d="M1483.91 63.6604C1483.91 63.6604 1484.84 237.393 1480.37 252.566C1480.37 252.566 1610.78 232.756 1644.24 228.626C1644.24 228.626 1644.92 212.526 1646.1 207.131C1647.44 201.061 1647.36 190.609 1647.36 190.609L1515.44 207.468L1516.2 167.343C1516.2 167.343 1610.44 148.461 1627.38 148.798C1627.38 148.798 1633.2 119.885 1631.77 114.659L1520.75 130.422L1520.92 91.2249L1642.64 78.6649C1642.64 78.6649 1642.64 63.829 1645.08 58.6869C1647.61 53.2078 1647.44 45.4526 1647.44 45.4526L1484 63.6604H1483.91Z" fill="#ECECEC"/>
<path d="M436.629 502.164C436.629 502.164 438.821 569.937 431.656 607.786C424.491 645.634 426.682 685 426.682 685L470.01 679.436C470.01 679.436 473.382 593.877 472.202 582.75C471.106 571.623 478.355 493.313 478.355 493.313L436.713 502.164H436.629Z" fill="#ECECEC"/>
<path d="M386.052 425.539L399.371 458.92L501.621 461.449C501.621 461.449 505.498 556.197 503.307 575.079C501.115 593.961 504.318 677.919 504.318 677.919H551.692C551.692 677.919 548.32 582.328 546.129 566.818C543.937 551.308 543.347 461.028 543.347 461.028L643.911 456.223C643.911 456.223 647.283 415.677 643.911 409.018C643.911 409.018 604.714 423.432 386.052 425.708V425.539Z" fill="#ECECEC"/>
<path d="M745.992 422.842C745.992 422.842 756.614 538.832 737.479 685.084C737.479 685.084 760.154 685.506 793.366 681.207V595.563L873.868 580.727C873.868 580.727 876.903 659.964 881.876 664.263L920.82 660.049C920.82 660.049 913.655 542.541 910.874 522.057C908.008 501.574 910.874 422.926 910.874 422.926L873.868 429.333C873.868 429.333 869.569 507.474 871.339 525.851L791.259 533.437C791.259 533.437 791.933 423.769 788.393 418.796C788.393 418.796 757.962 419.47 745.908 423.011L745.992 422.842Z" fill="#ECECEC"/>
<path d="M1223.86 479.404C1203.71 374.372 1072.55 396.458 1072.55 396.458C1072.55 396.458 947.205 413.317 933.549 526.525C932.285 537.146 932.369 547.936 934.139 558.473C948.132 643.611 1031.58 651.535 1072.3 650.27C1087.64 649.765 1103.66 647.151 1117.9 641.504C1150.86 628.438 1209.78 595.816 1224.28 526.356C1227.49 511.099 1226.81 494.746 1223.86 479.404ZM1193.43 532.51C1174.3 592.444 1113.86 616.299 1089.92 623.633C1082.84 625.74 1075.67 626.921 1068.42 627.258C1039.34 628.606 965.328 624.392 963.305 545.323C961.872 440.965 1079.97 424.865 1079.97 424.865C1079.97 424.865 1162.83 411.462 1190.9 470.132C1200.17 489.604 1199.92 512.026 1193.43 532.51Z" fill="#ECECEC"/>
<path d="M1220.49 428.068L1221.84 460.522C1221.84 460.522 1298.38 459.932 1315.66 457.74C1320.13 464.568 1303.35 632.063 1303.35 632.063L1350.56 630.124C1350.56 630.124 1351.15 483.703 1357.39 462.124C1357.39 462.124 1443.87 459.679 1450.7 460.859L1463.09 410.788C1463.09 410.788 1404.25 426.804 1220.57 428.068H1220.49Z" fill="#ECECEC"/>
</g>
<defs>
<clipPath id="clip0_925_5387">
<rect width="1470.44" height="650" fill="white" transform="translate(177 35)"/>
</clipPath>
</defs>
</svg>
