<svg width="1825" height="720" viewBox="0 0 1825 720" fill="none" xmlns="http://www.w3.org/2000/svg">
<g clip-path="url(#clip0_963_22178)">
<path d="M682.282 126.266C677.285 120.339 674.845 107.149 674.845 99.4786C674.845 93.9004 677.692 91.2275 677.692 87.9735C677.692 82.802 676.53 77.8049 676.53 72.8658C676.53 67.9267 676.704 63.2782 676.704 58.6878C676.704 55.4338 676.123 52.5866 676.123 49.5069V38.4085C676.123 37.2464 676.297 35.9099 676.878 34.8059C678.215 32.4816 679.377 30.6222 680.307 28.1236C682.224 23.3589 693.671 16.4442 693.671 11.0984C693.671 6.50794 688.5 2.49858 684.084 2.49858C681.236 2.49858 678.912 3.66072 676.239 3.66072C674.496 3.66072 672.985 3.25397 671.474 3.25397C670.138 3.25397 668.802 3.42829 667.291 3.42829C666.129 3.42829 664.966 3.02154 663.63 3.02154C660.55 3.02154 656.192 4.53232 652.125 4.53232C649.278 4.53232 646.372 3.95125 643.699 3.95125C641.201 3.95125 630.509 6.04309 630.509 9.29707C630.509 12.1443 652.532 22.1386 652.532 35.3289C652.532 37.8274 651.951 40.326 651.951 42.7665C651.951 44.684 652.706 46.6016 652.706 48.5191C652.706 50.8433 651.776 53.2838 651.544 55.6081C650.207 67.4619 645.443 67.8686 635.855 67.8686H632.601C630.858 67.8686 628.94 67.8686 627.255 67.6943C624.757 67.52 622.084 66.1835 619.585 66.1835C617.493 66.1835 616.157 67.9267 613.484 67.9267C609.649 67.9267 606.802 65.0795 602.792 65.0795C594.541 65.0795 591.694 56.4797 591.694 49.565C591.694 44.8003 589.951 40.5585 589.951 36.2005C589.951 34.1086 593.96 19.5238 595.122 18.5941C596.459 17.432 598.725 17.2577 600.468 17.2577C601.63 17.2577 603.548 19.3495 605.233 19.3495C608.487 19.3495 616.738 11.9119 616.738 8.83221C616.738 3.83504 608.894 2.14994 605.233 2.14994C600.468 2.14994 598.144 7.49576 592.798 7.49576C588.614 7.49576 584.547 5.40392 580.363 5.40392C576.179 5.40392 572.344 4.64853 568.684 4.64853C561.42 4.64853 554.506 0.232422 547.068 0.232422C542.884 0.232422 533.471 3.07965 533.471 8.25115C533.471 10.343 536.318 13.8294 538.643 13.8294C547.417 13.8294 544.569 15.7469 550.496 18.5941C553.169 19.9306 555.842 19.5238 557.76 22.1968C559.27 24.2886 559.677 26.7872 561.014 28.879C563.28 32.5397 564.268 35.5613 564.268 39.9774C564.268 42.6503 563.28 45.1489 563.28 47.9961C563.28 54.5041 566.941 60.6053 566.941 67.3456C566.941 73.2725 563.861 78.0373 563.861 83.9642C563.861 90.4721 565.953 96.98 565.953 103.488C565.953 106.568 564.791 109.241 564.791 112.262C564.791 120.513 563.047 120.862 558.457 126.033C557.469 127.196 553.46 130.624 552.123 130.624C548.463 130.624 545.034 129.462 541.606 129.462C537.19 129.462 531.263 131.554 531.263 136.551C531.263 139.805 533.762 144.395 537.016 145.325C539.688 146.08 547.707 148.579 550.613 148.579C552.937 148.579 554.622 147.068 556.946 147.068C558.283 147.068 559.619 148.404 560.956 148.404C562.466 148.404 564.791 146.487 567.289 146.487C571.705 146.487 575.54 143.988 579.55 143.988C582.629 143.988 583.385 146.661 587.801 146.661C595.297 146.661 598.318 141.664 600.41 141.664H602.153C603.664 141.664 605 141.49 605 139.398C605 137.887 604.594 136.899 603.083 136.899C602.095 136.899 601.165 136.899 600.41 137.074C599.074 137.074 598.318 135.912 597.737 134.982C595.064 131.147 594.657 132.483 593.728 126.731C592.566 119.061 591.984 111.449 591.984 103.779C591.984 101.28 590.822 98.7814 590.822 96.5152C590.822 94.249 591.984 91.518 592.159 89.2519C592.914 80.071 591.752 84.0804 597.911 78.9089C599.422 77.5724 600.41 76.9914 602.502 76.9914C604.594 76.9914 606.104 77.1657 607.673 77.1657C609.998 77.1657 611.857 76.7589 614.937 75.4225C616.099 75.4225 617.203 75.2482 618.539 75.2482C625.047 75.2482 626.209 78.9089 628.708 78.9089C633.124 78.9089 637.714 76.4103 642.479 76.4103C655.495 76.4103 650.73 91.1694 653.171 98.4327C653.345 99.1881 653.578 99.9435 653.578 100.757C653.578 106.684 650.149 112.611 650.149 118.538C650.149 121.036 650.149 124.871 649.394 127.137C646.547 135.912 633.705 137.074 633.705 142.071C633.705 142.826 634.693 143.001 635.216 143.407C637.308 144.569 639.981 144.163 642.305 145.15C644.222 145.906 646.14 147.475 648.406 147.475C652.997 147.475 657.761 144.628 661.596 144.628C664.676 144.628 667.697 146.138 670.777 146.138C673.45 146.138 676.355 144.802 679.203 144.802C681.12 144.802 683.038 145.557 684.781 145.557C686.698 145.557 688.79 144.569 690.708 144.569C692.044 144.569 693.206 145.15 694.368 145.15C696.46 145.15 699.366 141.722 699.366 139.805C699.366 132.716 686.175 131.031 682.166 126.208L682.282 126.266Z" fill="#ECECEC"/>
<path d="M705.234 92.622C705.234 94.1328 705.815 95.7017 706.571 97.0381C709.418 102.21 712.498 115.807 715.577 118.48C718.25 120.978 722.492 122.896 724.584 125.917C725.92 128.009 726.676 130.914 728.419 132.599C734.52 139.107 738.181 141.955 746.955 143.117L747.71 143.291C749.454 143.291 751.139 142.361 753.056 142.361C757.066 142.361 760.726 149.625 771.999 149.625C778.914 149.625 785.77 150.787 791.871 150.787C793.963 150.787 796.055 150.206 797.973 149.276C801.227 147.765 805.643 146.952 808.141 144.511C810.989 141.664 814.068 138.759 817.322 136.26C820.75 133.762 823.075 130.508 826.503 128.241C831.268 125.162 834.347 119.816 838.764 116.213C841.843 113.715 845.853 94.5977 846.027 90.0072C846.201 87.5086 846.957 86.1722 847.538 83.906C848.525 80.2453 848.293 76.6427 850.211 73.2144C850.792 72.0523 851.373 70.9482 851.373 69.7861C851.373 68.0429 850.617 66.5321 849.862 65.0214C845.853 57.3513 848.525 51.4244 843.935 44.9164C841.611 41.6625 838.938 39.1639 837.02 35.5613C834.347 30.3898 829.931 29.983 827.258 26.3804C817.496 12.7834 813.894 17.3739 804.306 8.42544C800.297 4.5904 798.554 5.92685 793.963 4.99715C789.547 4.24176 784.957 2.14992 780.366 2.14992C776.938 2.14992 773.684 1.39453 770.198 1.39453C758.925 1.39453 758.693 6.39171 750.848 8.48355C743.178 10.4011 740.331 13.4807 733.997 17.8387C727.896 22.2548 726.908 29.1114 721.562 33.9343C714.648 40.0355 715.635 44.6259 711.975 51.9473C710.813 54.2716 709.128 54.4459 708.372 57.5256C707.036 63.1038 703.956 68.4497 703.956 74.1441C703.956 80.4777 707.384 83.906 707.384 85.9979C707.384 88.4965 705.118 90.0072 705.118 92.9126L705.234 92.622ZM743.527 57.0026C745.444 48.2285 750.209 39.222 751.545 30.3898C752.126 26.2061 756.136 23.8818 757.472 19.2914C758.053 17.0252 763.573 15.1077 765.723 15.1077C771.476 15.1077 776.822 12.4348 778.565 12.4348C780.076 12.4348 781.412 13.3645 782.981 13.3645C786.235 13.3645 786.816 11.2727 788.327 11.2727C790.419 11.2727 792.743 13.3645 794.254 14.701C796.52 16.7928 798.67 17.7806 801.517 18.8846C806.282 20.9765 808.432 33.0627 810.698 37.8274C815.695 48.7515 814.301 58.5134 815.288 70.1929C815.695 74.2022 815.87 78.2116 817.206 82.0466C817.787 83.9641 817.961 85.8817 817.961 87.7992C817.961 91.8085 815.637 96.399 815.288 102.733C814.707 113.25 813.952 119.351 810.117 129.113C808.199 133.878 805.933 135.04 801.691 137.364C799.367 138.701 796.694 140.211 793.847 140.211C790.419 140.211 787.165 139.049 783.678 139.049C779.088 139.049 775.253 140.792 770.837 140.792C765.084 140.792 760.901 138.701 757.647 134.11C755.903 131.612 753.637 129.927 751.894 127.196C748.814 122.431 746.723 118.77 746.316 113.017C745.735 104.999 742.481 97.3287 742.481 89.31C742.481 83.5574 741.493 77.8048 741.493 72.1104C741.493 67.3456 742.248 61.7674 743.41 57.0026H743.527Z" fill="#ECECEC"/>
<path d="M869.793 23.9399C871.884 23.9399 873.802 22.9521 875.719 22.9521C879.555 22.9521 882.402 32.714 882.402 35.968C882.402 37.4788 881.995 39.0477 881.821 40.5584C880.484 48.8096 879.729 57.4094 879.729 65.6024C879.729 70.0185 880.891 74.2022 880.891 78.444C880.891 83.9641 880.484 93.3774 879.554 98.5489C878.973 101.222 878.567 103.895 878.567 106.568C878.567 110.751 880.077 123.244 883.738 125.917C889.084 129.927 886.585 137.19 899.253 139.514C904.017 140.444 904.598 140.095 908.84 143.117C913.256 146.371 917.44 145.964 922.437 147.126C924.936 147.707 928.364 149.625 930.688 149.625C933.361 149.625 937.196 146.777 943.123 146.777C945.97 146.777 947.888 149.857 950.793 149.857C953.292 149.857 957.708 146.022 959.393 144.279C962.996 140.27 967.819 137.016 972.235 134.11C984.263 126.266 979.905 119.177 982.926 107.904C985.018 100.466 987.11 96.98 987.11 88.3802C987.11 85.3006 986.703 82.279 986.703 79.1994C986.703 75.19 987.691 71.355 987.691 67.3456C987.691 59.3269 985.018 51.2501 985.018 42.8827C985.018 38.2923 985.774 21.4413 990.596 20.1049C991.177 19.9306 991.526 19.9306 992.107 19.9306H995.187C999.196 19.9306 1001.29 19.3495 1001.87 12.8415V12.0862C1001.87 9.41325 998.208 2.32424 995.187 2.32424C993.676 2.32424 991.933 2.90531 990.422 2.90531C988.098 2.90531 986.238 1.39453 983.914 1.39453C979.324 1.39453 978.743 4.24176 976.07 4.24176C971.886 4.24176 967.819 2.32424 963.635 2.32424C960.381 2.32424 953.292 7.67005 950.038 9.00651C949.457 9.76189 949.108 10.7497 949.108 11.6794C949.108 19.3495 964.042 18.9428 967.644 29.8668C968.225 31.61 968.632 33.1208 968.632 34.864C968.632 35.7937 969.213 36.9558 969.62 37.9436C970.375 39.6868 970.782 47.1245 970.782 49.2163C970.782 55.1432 968.109 61.0701 968.109 67.4037C968.109 72.1685 970.027 76.7589 970.027 81.5818C970.027 87.16 966.773 119.293 963.519 121.792C958.754 125.627 956.43 128.125 950.328 129.81C946.493 130.972 944.75 132.135 940.567 132.135C931.386 132.135 930.979 129.636 924.703 125.801C913.779 119.119 913.431 100.525 913.431 89.4262C913.431 83.6736 914.593 77.921 914.593 72.2266C914.593 62.8714 912.501 53.2838 912.094 43.6962C911.92 40.0355 910.002 36.4329 910.002 33.0046C910.002 27.252 920.171 18.8265 923.599 18.8265C925.517 18.8265 927.028 19.8144 928.945 19.8144C932.373 19.8144 933.129 14.6429 933.129 12.1443C933.129 10.2267 932.548 5.462 929.875 5.462C927.609 5.462 925.11 8.71597 922.96 8.71597C919.706 8.71597 919.532 4.53229 915.523 4.53229C913.605 4.53229 913.256 6.04307 909.77 6.04307C906.284 6.04307 904.192 3.77691 899.834 3.77691C896.231 3.77691 892.745 4.93904 889.316 4.93904C885.133 4.93904 881.065 2.8472 876.707 2.8472C871.943 2.8472 868.456 3.02152 866.016 7.43763C864.853 9.35515 863.924 11.447 863.924 13.7713C863.924 17.6063 865.26 24.1142 870.025 24.1142L869.793 23.9399Z" fill="#ECECEC"/>
<path d="M1020.23 56.2473C1024.41 63.162 1027.32 66.5903 1030.17 74.609C1030.92 76.9333 1032.49 77.1076 1034.58 77.2819C1037.84 77.4562 1041.44 78.7927 1044.52 78.7927C1046.44 78.7927 1048.53 77.6305 1050.45 77.6305C1052.19 77.6305 1055.44 79.3737 1057.54 79.5481C1066.31 80.4778 1073.98 86.056 1082.81 87.9735C1087.4 88.9032 1093.5 89.8911 1096.99 93.3194C1103.9 100.002 1108.67 98.3165 1108.67 110.17C1108.67 117.84 1106.17 118.015 1102.92 123.942C1101.58 126.44 1097.75 127.196 1095.65 128.939C1090.48 132.948 1083.8 131.031 1081.3 132.948C1079.79 134.11 1078.45 134.866 1076.71 134.866C1072.12 134.866 1068.29 130.45 1064.1 129.287C1061.25 128.532 1060.27 129.868 1057.77 126.963C1051.67 119.7 1046.09 124.116 1043.24 111.449C1042.08 106.684 1039.23 103.43 1037.49 99.0138C1035.75 94.5977 1034.06 84.2547 1027.55 84.2547C1018.37 84.2547 1019.53 100.873 1018.55 106.858C1018.14 109.124 1017.79 111.623 1017.79 113.947C1017.79 117.376 1019.13 120.455 1019.13 123.709C1019.13 128.3 1015.29 128.881 1015.29 133.064C1015.29 136.725 1016.63 140.328 1018.55 143.233C1018.72 145.557 1019.71 148.579 1022.56 148.579C1026.56 148.579 1034.82 138.062 1046.67 138.062C1049.52 138.062 1052.77 138.991 1055.44 139.979C1058.12 140.967 1058.29 147.242 1071.31 147.242C1074.91 147.242 1089.49 147.068 1092.52 146.08C1098.09 144.337 1109.54 137.074 1112.39 131.902C1114.48 127.893 1117.73 126.556 1119.07 122.14C1120.06 119.061 1120.58 115.807 1121.92 112.959C1124.59 106.858 1123.25 105.289 1124.24 99.5368C1124.42 98.2003 1125 96.6895 1125 95.3531C1125 94.5977 1124.82 93.8423 1124.59 93.0288C1123.25 89.3681 1118.49 77.1657 1116.34 74.8414C1113.84 72.1685 1110.24 70.4253 1106.98 68.7402C1102.97 66.4159 1103.9 60.8958 1096.64 60.8958C1094.14 60.8958 1091.64 61.6512 1089.2 61.6512C1085.78 61.6512 1082.52 59.908 1079.44 58.3972C1074.44 55.8986 1067.41 55.8986 1065.09 54.5622C1062.59 53.2257 1061.66 48.8096 1058.41 48.8096C1057.83 48.8096 1057.48 49.3907 1056.14 49.3907C1047.37 49.3907 1039.46 41.953 1039.46 33.1208C1039.46 31.2033 1039.87 29.2858 1040.22 27.3683C1041.56 22.0224 1056.66 16.2699 1061.84 16.2699C1065.26 16.2699 1068.75 17.7807 1072.18 17.7807C1075.84 17.7807 1076.36 20.6279 1079.85 21.9643C1094.61 27.7169 1099.55 37.2464 1100.88 52.5866C1101.29 56.0149 1101.29 56.5959 1104.54 56.5959C1106.05 56.5959 1107.26 56.0149 1108.15 54.8527C1115.24 46.0786 1112.56 38.7572 1113.72 28.4723C1114.13 24.4629 1116.05 19.8725 1116.05 15.8631C1116.05 13.597 1113.72 4.00937 1111.28 4.00937C1105.18 4.00937 1106.11 6.50795 1101.7 8.01873C1098.04 9.35518 1093.1 10.866 1089.26 10.866C1076.83 10.866 1080.84 -0.232422 1071.48 -0.232422C1069.56 -0.232422 1067.88 0.348645 1066.14 0.697285C1063.46 1.45267 1051.03 3.02155 1047.95 3.02155C1038.77 3.02155 1036.85 8.77411 1029.59 12.9578C1018.31 19.4657 1022.5 25.5669 1018.66 31.1452C1016.34 34.3992 1014.83 34.2248 1014.83 38.9896V41.6625C1014.83 44.1611 1015 46.0786 1017.5 48.1704C1019.24 49.6812 1018.66 53.5163 1020.17 56.0149L1020.23 56.2473Z" fill="#ECECEC"/>
<path d="M1142.49 20.2792C1144.4 20.2792 1145.92 18.3617 1147.66 18.3617C1148.07 18.3617 1148.41 18.536 1148.82 18.7684C1161.84 24.6953 1156.08 29.6925 1160.33 34.2829C1162.07 38.1179 1163.41 40.9652 1163.41 45.3813C1163.41 50.146 1161.49 54.7365 1161.49 59.5593C1161.49 62.9876 1163.41 66.2416 1163.41 70.0766V96.8638C1163.41 104.534 1160.56 107.381 1160.56 110.809C1160.56 112.901 1161.49 114.819 1161.49 116.911C1161.49 118.421 1160.33 120.92 1159.74 122.489C1159.16 124.406 1158.99 128.997 1157.25 130.333C1153.64 133.006 1136.39 133.413 1136.39 139.514C1136.39 142.013 1141.73 144.686 1144.06 144.86C1147.66 145.034 1151.73 146.371 1155.33 146.371C1160.5 146.371 1162.42 141.199 1166.83 141.199C1168.93 141.199 1171.02 142.187 1173.34 142.187H1176.77C1178.28 142.187 1179.85 142.187 1180.78 142.594C1184.61 143.93 1188.62 145.441 1192.81 145.441C1196.24 145.441 1199.32 143.523 1203.15 143.523C1205.42 143.523 1207.74 144.105 1210.07 144.105C1212.16 144.105 1213.9 141.606 1215.24 141.606C1217.74 141.606 1220.23 142.768 1222.67 142.768C1225 142.768 1227.26 142.013 1229.59 142.013C1232.84 142.013 1232.44 144.686 1236.68 144.686C1239.93 144.686 1242.2 142.594 1245.45 142.594C1246.61 142.594 1247.72 143.582 1249.05 143.582C1250.8 143.582 1252.48 142.245 1254.4 142.245C1259.75 142.245 1262.42 148.579 1268.58 148.579C1269.16 148.579 1269.92 148.579 1270.5 148.404C1272.01 144.744 1275.09 142.303 1276.07 138.468C1278.92 127.951 1282 126.382 1282 114.18C1282 113.424 1282 112.843 1281.83 112.262C1280.9 107.265 1279.91 94.4814 1272.47 94.4814C1271.48 94.4814 1269.97 94.4814 1269.22 95.2368C1268.64 95.8179 1266.54 102.326 1263.64 105.405C1260.79 108.659 1256.2 119.177 1254.28 120.339C1252.77 121.327 1245.1 128.59 1244.93 128.59C1239.18 129.171 1239 129.171 1234.01 132.251C1230 132.425 1227.67 135.505 1223.84 135.505C1222.33 135.505 1220.99 134.924 1219.42 134.924C1217.68 134.924 1215.99 136.086 1214.07 136.086C1211.58 136.086 1203.56 135.911 1201.81 134.343C1197.63 130.508 1193.04 117.898 1192.63 112.32C1192.23 107.555 1189.03 104.069 1189.03 99.13C1189.03 95.7017 1192.11 77.5143 1196.47 77.34L1198.39 77.1656C1201.23 77.1656 1202.98 79.2575 1205.47 79.6642C1206.06 79.6642 1206.81 79.8385 1207.39 79.8385C1208.73 79.8385 1210.07 79.6642 1211.4 79.6642C1218.84 87.1019 1220.18 82.1628 1227.26 92.6801C1227.85 93.6679 1229.18 94.5976 1230.34 94.772C1231.1 94.9463 1231.86 94.9463 1232.67 94.9463C1236.5 94.9463 1236.68 92.622 1236.68 89.6005V88.264C1236.68 83.0925 1233.42 74.4927 1233.42 71.2388C1233.42 67.4037 1234.18 63.22 1234.59 59.385C1234.99 55.2013 1237.26 51.7149 1237.26 47.1245C1237.26 41.3719 1235.34 38.699 1230.58 36.0261C1227.73 36.2004 1224.24 48.1123 1224.24 50.7852C1224.24 53.0514 1223.08 58.4553 1220.41 59.2107C1213.49 61.3025 1211.98 63.22 1206.46 65.7186C1204.72 66.474 1202.28 67.6361 1200.36 67.6361C1197.69 67.6361 1195.19 65.8929 1194.78 63.22C1194.2 58.6296 1190.6 51.192 1190.6 49.8555C1190.6 46.4272 1192.92 43.3475 1193.1 39.6868V35.8518C1193.1 32.1911 1193.27 28.0074 1194.61 25.6831C1198.04 20.163 1204.55 20.163 1210.12 17.8387C1210.7 17.6644 1211.05 17.432 1211.63 17.432C1214.71 17.432 1217.56 18.9427 1220.64 18.9427C1222.73 18.9427 1224.82 18.3617 1226.97 18.3617H1236.16C1242.84 18.3617 1241.15 21.79 1245.51 24.8696C1248.01 26.6128 1251.44 28.4722 1252.6 31.5519C1254.11 35.7356 1257.02 37.1301 1260.27 39.803C1263.12 42.0692 1262.19 46.8921 1264.28 49.7393C1266.02 52.2379 1267.71 56.8283 1270.96 56.8283H1272.12C1272.88 56.8283 1273.87 56.8283 1274.39 56.0729C1275.73 54.5621 1276.48 49.1582 1276.48 47.2988C1276.48 42.3016 1273.05 39.6287 1273.05 34.864C1273.05 31.7843 1272.88 28.5303 1272.88 25.2764C1272.88 22.4291 1273.46 19.3495 1273.46 16.2698C1273.46 13.7712 1273.29 10.5173 1271.14 8.83217C1268.81 6.91465 1263.12 4.06742 1260.04 4.06742C1255.62 4.06742 1251.26 6.74033 1246.67 6.74033C1241.09 6.74033 1236.33 3.31204 1230.98 3.31204C1226.97 3.31204 1222.73 5.81062 1218.55 5.98494C1216.28 5.98494 1214.13 6.74033 1211.87 6.74033C1210.12 6.74033 1208.26 6.15926 1206.29 6.15926C1203.44 6.15926 1200.94 7.3214 1198.27 7.3214C1194.09 7.3214 1187.93 2.32422 1186.42 2.32422C1183.92 2.32422 1181.65 3.25393 1179.15 3.25393C1177.06 3.25393 1174.97 2.32422 1172.64 2.32422C1168.98 2.32422 1165.96 4.59038 1162.48 4.59038C1158.47 4.59038 1154.63 2.0918 1150.62 2.0918C1144.7 2.0918 1135.34 5.92684 1135.34 12.7834C1135.34 16.6185 1138.59 20.4535 1142.6 20.4535L1142.49 20.2792Z" fill="#ECECEC"/>
<path d="M833.36 188.091C829.931 188.091 826.677 187.336 823.191 187.336C811.918 187.336 811.686 192.333 803.841 194.425C796.171 196.342 793.324 199.422 786.99 203.78C780.889 208.196 779.901 215.053 774.556 219.876C767.699 225.977 768.629 230.567 764.968 237.889C763.806 240.213 762.121 240.387 761.365 243.467C760.029 249.045 756.949 254.391 756.949 260.085C756.949 266.419 760.378 269.847 760.378 271.939C760.378 274.438 758.111 275.949 758.111 278.854C758.111 280.365 758.693 281.934 759.448 283.27C762.295 288.442 765.375 302.039 768.454 304.711C771.127 307.21 775.369 309.128 777.461 312.149C778.797 314.241 779.553 317.146 781.296 318.831C787.397 325.339 791.058 328.187 799.832 329.349L800.587 329.523C802.331 329.523 804.016 328.593 805.933 328.593C809.943 328.593 813.603 335.857 824.876 335.857C831.791 335.857 838.647 337.019 844.749 337.019C846.84 337.019 848.932 336.438 850.85 335.508C854.104 333.997 858.52 333.184 861.018 330.743C863.866 327.896 866.945 324.991 870.199 322.492C873.628 319.993 875.952 316.74 879.38 314.473C884.145 311.394 887.225 306.048 891.641 302.445C894.72 299.947 898.73 280.83 898.904 276.239C899.078 273.741 899.834 272.404 900.415 270.138C901.403 266.477 901.17 262.875 903.088 259.446C903.669 258.284 904.25 257.18 904.25 256.018C904.25 254.275 903.494 252.764 902.739 251.253C898.73 243.583 901.403 237.656 896.812 231.148C894.488 227.894 891.815 225.396 889.897 221.793C887.225 216.622 882.808 216.215 880.135 212.612C870.374 199.015 866.771 203.606 857.183 194.657C853.174 190.822 851.431 192.159 846.84 191.229C842.424 190.474 837.834 188.382 833.243 188.382L833.36 188.091ZM854.394 205.117C859.159 207.208 861.309 219.295 863.575 224.059C868.572 234.983 867.178 244.745 868.166 256.425C868.572 260.434 868.747 264.443 870.083 268.279C870.664 270.196 870.838 272.114 870.838 274.031C870.838 278.04 868.514 282.631 868.166 288.965C867.584 299.482 866.829 305.583 862.994 315.345C861.077 320.11 858.81 321.272 854.569 323.596C852.244 324.933 849.571 326.443 846.724 326.443C843.296 326.443 840.042 325.281 836.555 325.281C831.965 325.281 828.13 327.024 823.714 327.024C817.961 327.024 813.778 324.933 810.524 320.342C808.781 317.844 806.514 316.158 804.771 313.427C801.692 308.663 799.6 305.002 799.193 299.249C798.612 291.231 795.358 283.561 795.358 275.542C795.358 269.789 794.37 264.037 794.37 258.342C794.37 253.578 795.125 247.999 796.288 243.235C798.205 234.46 802.97 225.454 804.306 216.622C804.887 212.438 808.897 210.114 810.233 205.523C810.814 203.257 816.334 201.34 818.484 201.34C824.237 201.34 829.583 198.667 831.326 198.667C832.837 198.667 834.173 199.596 835.742 199.596C838.996 199.596 839.577 197.505 841.088 197.505C843.18 197.505 845.504 199.596 847.015 200.933C849.281 203.025 851.431 204.013 854.278 205.117H854.394Z" fill="#ECECEC"/>
<path d="M978.975 241.84C978.801 240.329 978.568 238.76 978.568 237.25C978.568 233.066 980.66 229.405 980.66 224.815C980.66 221.154 983.159 208.371 985.076 205.465C986.819 202.792 989.841 203.373 991.177 201.456C995.594 195.529 1000.53 198.609 1000.53 195.703C1000.53 191.52 986.761 189.602 983.507 189.602C978.51 189.602 973.571 191.113 968.748 191.113C965.494 191.113 962.821 189.37 959.742 189.37C956.662 189.37 953.64 188.614 950.735 188.614C948.643 188.614 946.551 189.37 944.634 189.37C941.787 189.37 938.707 188.44 935.86 187.859C933.187 188.44 930.282 189.021 927.609 189.021C925.691 189.021 924.006 188.266 922.03 188.266C918.951 188.266 914.767 194.193 914.767 197.04C914.767 197.795 914.767 198.376 915.174 199.132C917.091 203.315 921.275 203.896 926.272 203.896H932.025C940.625 203.896 949.224 205.64 949.224 224.176C949.224 227.836 948.295 231.439 948.295 235.1V237.598C948.295 241.259 948.295 244.687 947.307 248.522C946.9 250.265 946.551 251.951 946.551 253.519C946.551 255.786 947.539 257.703 947.539 260.027C947.539 267.291 944.285 273.624 944.285 278.215C944.285 279.377 944.866 280.307 944.866 281.469C944.866 282.98 944.46 284.316 944.46 285.652C944.46 290.069 946.551 294.078 946.551 298.494C946.551 299.83 946.377 301.167 945.796 302.329C945.041 303.84 940.625 311.51 939.462 312.091C937.952 312.672 925.284 315.694 923.599 315.694C919.009 315.868 912.675 316.856 912.675 322.783C912.675 328.709 920.52 332.37 925.517 332.37C926.679 332.37 927.609 332.196 928.771 332.196C929.352 332.196 929.933 332.196 930.514 332.37C931.676 332.777 933.361 333.532 934.523 333.532H935.279C941.031 331.789 949.05 331.789 953.466 328.768C954.047 328.361 954.803 328.012 955.558 328.012C958.231 328.012 960.729 329.523 963.577 329.523C965.494 329.523 967.237 328.361 968.923 328.361C970.608 328.361 972.758 329.291 974.675 329.523H976.418C977.58 329.523 978.917 329.523 979.847 330.104C984.437 330.104 988.853 330.511 993.444 330.511C998.789 330.511 1010.06 330.104 1010.06 322.666C1010.06 319.587 1004.72 315.229 1001.81 315.229H997.802C994.722 313.486 988.214 311.8 986.703 310.638C983.275 307.965 982.694 306.048 981.183 301.864C980.195 299.191 978.51 299.017 978.103 295.356C977.697 290.94 977.522 286.35 977.522 281.934C977.522 277.517 979.44 263.398 984.611 261.829C985.773 261.422 987.11 261.248 988.446 261.248C992.281 261.248 995.884 262.758 998.789 265.257C1009.13 273.857 1004.89 279.435 1010.64 289.952C1012.15 292.8 1015.81 297.797 1019.42 297.797C1021.33 297.797 1023.43 297.39 1023.43 295.124C1023.43 290.533 1020.93 286.117 1020.93 281.353C1020.93 278.099 1021.92 275.019 1021.92 271.765C1021.92 268.918 1020.75 266.419 1020.75 263.921C1020.75 259.504 1023.6 253.229 1023.6 246.895C1023.6 240.562 1022.61 232.136 1014.01 232.136C1012.5 232.136 1009.6 237.714 1007.51 239.225C1003.32 246.663 1001.17 250.324 991.817 250.324C987.633 250.324 979.556 246.489 978.801 241.898L978.975 241.84Z" fill="#ECECEC"/>
<path d="M1018.95 199.596C1020.11 200.177 1021.04 201.34 1022.21 202.095C1027.96 205.523 1032.38 211.102 1038.3 214.123C1043.65 216.796 1050.33 234.809 1053.58 234.809C1058.58 234.809 1060.27 227.72 1060.27 223.885C1060.27 221.619 1059.1 219.469 1059.1 217.377C1059.1 214.704 1060.27 212.206 1060.27 209.358C1060.27 206.279 1060.09 199.422 1058.35 197.098C1055.5 193.263 1054.51 189.079 1048.59 189.079C1045.33 189.079 1042.25 190.59 1039 190.59C1035.34 190.59 1031.91 189.428 1028.48 189.428C1025.63 189.428 1023.14 190.183 1020.46 190.183C1016.8 190.183 1012.21 190.764 1012.21 195.761C1013.96 199.015 1016.4 198.26 1018.89 199.596H1018.95Z" fill="#ECECEC"/>
<path d="M618.133 373.568C615.169 372.29 614.065 369.5 610.462 369.5C598.725 369.5 591.694 387.165 584.896 387.165C583.21 387.165 581.467 386.293 579.782 386.293C574.669 386.293 570.427 389.896 565.488 390.128C561.653 390.361 559.503 390.361 557.411 394.196C556.539 395.707 555.494 397.392 555.494 399.077C555.494 403.783 559.968 408.664 564.674 408.664H568.916C580.828 408.664 591.52 409.536 591.52 425.922C591.52 429.525 592.798 432.953 592.798 436.788C592.798 439.984 592.391 443.18 592.391 446.608C592.391 452.361 594.716 458.752 594.716 462.994C594.716 464.679 592.159 470.025 592.159 475.545C592.159 478.334 592.798 480.891 592.798 483.622C592.798 485.946 590.648 505.354 590.009 506.865C584.256 518.777 563.803 506.865 563.803 521.159C563.803 529.236 569.149 533.071 576.819 533.071C580.247 533.071 583.617 532.432 587.045 532.432C592.391 532.432 596.401 528.597 601.107 528.597C603.025 528.597 603.896 530.514 606.221 530.514C608.138 530.514 609.649 528.597 612.206 528.597C613.716 528.597 615.402 529.236 617.087 529.236C620.922 529.236 624.35 526.679 627.72 526.679C631.09 526.679 633.24 530.514 639.225 530.514C640.097 530.514 640.91 530.514 641.55 530.107C645.791 527.551 647.709 530.34 647.709 522.67C647.709 515 638.528 512.443 632.601 511.571C627.488 510.7 628.127 511.339 624.931 507.504C620.864 502.623 622.142 509.015 619.411 496.406C618.539 492.164 617.726 487.864 617.726 483.39C617.726 477.405 620.689 472.291 620.689 466.771C620.689 464.447 620.282 461.89 620.282 459.508C620.282 455.673 620.922 451.838 620.922 448.003C620.922 442.889 618.365 438.183 618.365 433.069C618.365 422.203 625.396 421.332 625.396 413.662C625.396 411.744 625.163 409.827 625.163 408.141C625.163 405.817 626.035 403.667 626.035 401.517C626.035 395.765 621.328 390.419 621.328 384.899C621.328 382.749 621.735 380.657 621.735 378.739C621.735 376.59 621.096 374.672 618.133 373.394V373.568Z" fill="#ECECEC"/>
<path d="M711.975 469.909C714.648 475.545 717.553 490.362 720.4 493.268C722.899 495.999 726.85 498.091 728.826 501.403C730.104 503.669 730.801 506.807 732.428 508.724C738.181 515.813 741.609 518.951 749.86 520.171L750.558 520.404C752.185 520.404 753.812 519.358 755.613 519.358C759.39 519.358 762.818 527.26 773.394 527.26C779.843 527.26 786.293 528.539 792.046 528.539C794.021 528.539 795.997 527.899 797.798 526.853C800.878 525.168 805.004 524.355 807.328 521.624C810.001 518.486 812.906 515.348 815.928 512.675C819.182 509.944 821.332 506.4 824.527 503.901C829.002 500.589 831.907 494.72 836.033 490.769C838.938 488.038 842.657 467.178 842.831 462.181C843.005 459.45 843.703 457.997 844.284 455.498C845.155 451.547 844.981 447.596 846.782 443.819C847.305 442.599 847.886 441.32 847.886 440.042C847.886 438.183 847.189 436.498 846.434 434.812C842.657 426.445 845.155 419.995 840.855 412.906C838.705 409.362 836.207 406.631 834.406 402.68C831.907 397.043 827.781 396.636 825.225 392.685C816.044 377.868 812.674 382.865 803.667 373.103C799.89 368.919 798.263 370.372 793.963 369.326C789.838 368.513 785.538 366.188 781.238 366.188C777.984 366.188 774.962 365.375 771.708 365.375C761.133 365.375 760.959 370.779 753.579 373.103C746.374 375.195 743.701 378.507 737.774 383.33C732.022 388.153 731.15 395.649 726.095 400.82C719.645 407.502 720.516 412.5 717.146 420.402C716.042 422.901 714.473 423.133 713.718 426.445C712.44 432.488 709.592 438.357 709.592 444.574C709.592 451.431 712.846 455.208 712.846 457.474C712.846 460.205 710.696 461.832 710.696 464.97C710.696 466.655 711.219 468.282 711.975 469.793V469.909ZM746.664 426.329C748.466 416.741 752.94 406.921 754.218 397.334C754.741 392.743 758.518 390.245 759.797 385.247C760.32 382.749 765.549 380.657 767.525 380.657C772.929 380.657 777.926 377.752 779.553 377.752C781.006 377.752 782.226 378.798 783.678 378.798C786.758 378.798 787.281 376.531 788.734 376.531C790.709 376.531 792.859 378.798 794.312 380.308C796.462 382.575 798.438 383.62 801.11 384.899C805.585 387.165 807.56 400.355 809.71 405.527C814.359 417.439 813.139 428.072 814.01 440.797C814.359 445.155 814.533 449.572 815.811 453.755C816.334 455.847 816.509 457.939 816.509 460.031C816.509 464.389 814.359 469.444 814.01 476.301C813.487 487.748 812.732 494.43 809.187 505.063C807.386 510.293 805.236 511.513 801.285 514.012C799.135 515.465 796.636 517.15 793.905 517.15C790.651 517.15 787.63 515.871 784.376 515.871C780.076 515.871 776.473 517.731 772.348 517.731C766.944 517.731 762.992 515.465 759.971 510.409C758.344 507.678 756.194 505.819 754.567 502.914C751.662 497.684 749.744 493.733 749.337 487.457C748.814 478.683 745.735 470.374 745.735 461.6C745.735 455.324 744.863 449.107 744.863 442.831C744.863 437.602 745.56 431.558 746.664 426.387V426.329Z" fill="#ECECEC"/>
<path d="M1037.78 489.258C1039.58 485.307 1042.08 482.576 1044.23 479.032C1048.53 471.943 1046.03 465.493 1049.81 457.125C1050.5 455.44 1051.26 453.813 1051.26 451.896C1051.26 450.618 1050.74 449.397 1050.16 448.119C1048.35 444.342 1048.53 440.391 1047.66 436.44C1047.13 433.941 1046.38 432.488 1046.2 429.757C1046.03 424.76 1042.25 403.9 1039.41 401.169C1035.28 397.218 1032.38 391.349 1027.9 388.037C1024.65 385.538 1022.5 381.994 1019.3 379.263C1016.22 376.532 1013.37 373.452 1010.7 370.314C1008.38 367.583 1004.25 366.77 1001.17 365.085C999.37 364.039 997.395 363.399 995.419 363.399C989.667 363.399 983.217 364.678 976.767 364.678C966.192 364.678 962.763 372.58 958.986 372.58C957.185 372.58 955.558 371.534 953.931 371.534L953.234 371.767C944.983 373.045 941.554 376.125 935.802 383.214C934.175 385.073 933.477 388.211 932.199 390.535C930.223 393.847 926.272 395.939 923.774 398.67C920.926 401.576 918.021 416.393 915.348 422.029C914.651 423.482 914.07 425.167 914.07 426.852C914.07 429.99 916.22 431.675 916.22 434.348C916.22 436.614 912.966 440.391 912.966 447.247C912.966 453.523 915.871 459.334 917.091 465.377C917.789 468.689 919.416 468.921 920.52 471.42C923.948 479.322 923.018 484.319 929.468 491.002C934.523 496.231 935.395 503.727 941.148 508.492C947.074 513.315 949.747 516.627 956.953 518.719C964.332 520.985 964.506 526.447 975.082 526.447C978.336 526.447 981.357 525.633 984.611 525.633C988.911 525.633 993.211 523.367 997.337 522.496C1001.64 521.45 1003.26 522.902 1007.04 518.719C1015.99 508.899 1019.42 513.896 1028.6 499.137C1031.1 495.185 1035.22 494.779 1037.78 489.142V489.258ZM1019.07 438.415C1017.79 442.599 1017.62 446.957 1017.27 451.373C1016.34 464.098 1017.62 474.732 1012.97 486.644C1010.82 491.873 1008.84 505.005 1004.37 507.272C1001.69 508.492 999.719 509.538 997.569 511.862C996.116 513.315 993.967 515.639 991.991 515.639C990.538 515.639 990.015 513.373 986.936 513.373C985.483 513.373 984.263 514.419 982.81 514.419C981.183 514.419 976.186 511.513 970.782 511.513C968.806 511.513 963.577 509.422 963.054 506.923C961.775 501.926 957.999 499.427 957.476 494.837C956.197 485.249 951.723 475.429 949.922 465.841C948.876 460.612 948.12 454.569 948.12 449.397C948.12 443.122 948.992 436.904 948.992 430.629C948.992 421.855 952.072 413.546 952.595 404.771C952.943 398.496 954.919 394.545 957.824 389.315C959.451 386.41 961.601 384.492 963.228 381.819C966.308 376.822 970.259 374.498 975.605 374.498C979.73 374.498 983.333 376.357 987.633 376.357C990.887 376.357 993.908 375.079 997.162 375.079C999.835 375.079 1002.39 376.764 1004.54 378.217C1008.49 380.715 1010.64 381.994 1012.44 387.165C1016.05 397.799 1016.74 404.481 1017.27 415.928C1017.62 422.784 1019.77 427.84 1019.77 432.198C1019.77 434.29 1019.59 436.381 1019.07 438.473V438.415Z" fill="#ECECEC"/>
<path d="M1160.38 515.697C1162.71 518.428 1166.83 519.242 1169.91 520.927C1171.71 521.973 1173.69 522.612 1175.67 522.612C1181.42 522.612 1187.87 521.333 1194.32 521.333C1204.89 521.333 1208.32 513.431 1212.1 513.431C1213.9 513.431 1215.53 514.477 1217.15 514.477L1217.85 514.244C1226.1 512.966 1229.53 509.886 1235.28 502.797C1236.91 500.938 1237.61 497.8 1238.89 495.476C1240.86 492.164 1244.81 490.072 1247.31 487.341C1250.16 484.436 1253.06 469.619 1255.74 463.982C1256.43 462.529 1257.02 460.844 1257.02 459.159C1257.02 456.022 1254.87 454.336 1254.87 451.664C1254.87 449.397 1258.12 445.62 1258.12 438.764C1258.12 432.488 1255.21 426.678 1253.99 420.635C1253.3 417.322 1251.67 417.09 1250.57 414.591C1247.14 406.689 1248.07 401.692 1241.62 395.01C1236.56 389.78 1235.69 382.284 1229.94 377.519C1224.01 372.697 1221.34 369.384 1214.13 367.293C1206.75 365.026 1206.58 359.564 1196 359.564C1192.75 359.564 1189.73 360.378 1186.47 360.378C1182.17 360.378 1177.87 362.644 1173.75 363.516C1169.45 364.562 1167.82 363.109 1164.04 367.293C1155.1 377.113 1151.67 372.116 1142.49 386.875C1139.99 390.826 1135.86 391.233 1133.31 396.869C1131.51 400.82 1129.01 403.551 1126.86 407.096C1122.56 414.185 1125.06 420.635 1121.28 429.002C1120.58 430.687 1119.83 432.314 1119.83 434.232C1119.83 435.51 1120.35 436.73 1120.93 438.008C1122.73 441.785 1122.56 445.737 1123.43 449.688C1123.95 452.187 1124.71 453.639 1124.88 456.37C1125.06 461.367 1128.83 482.228 1131.68 484.959C1135.81 488.91 1138.71 494.779 1143.18 498.091C1146.44 500.589 1148.59 504.134 1151.78 506.865C1154.86 509.596 1157.71 512.676 1160.38 515.813V515.697ZM1151.96 447.712C1153.24 443.529 1153.41 439.171 1153.76 434.755C1154.69 422.029 1153.41 411.396 1158.06 399.484C1160.21 394.254 1162.19 381.122 1166.66 378.856C1169.33 377.636 1171.31 376.59 1173.46 374.265C1174.91 372.813 1177.06 370.488 1179.04 370.488C1180.49 370.488 1181.01 372.755 1184.09 372.755C1185.54 372.755 1186.76 371.709 1188.22 371.709C1189.84 371.709 1194.84 374.614 1200.25 374.614C1202.22 374.614 1207.45 376.706 1207.97 379.205C1209.25 384.202 1213.03 386.7 1213.55 391.291C1214.83 400.878 1219.3 410.698 1221.11 420.286C1222.15 425.516 1222.91 431.559 1222.91 436.73C1222.91 443.006 1222.04 449.223 1222.04 455.499C1222.04 464.273 1218.96 472.582 1218.43 481.356C1218.08 487.632 1216.11 491.583 1213.2 496.812C1211.58 499.718 1209.43 501.635 1207.8 504.308C1204.72 509.305 1200.77 511.63 1195.42 511.63C1191.3 511.63 1187.69 509.77 1183.39 509.77C1180.14 509.77 1177.12 511.049 1173.86 511.049C1171.19 511.049 1168.64 509.364 1166.49 507.911C1162.53 505.412 1160.38 504.134 1158.58 498.962C1154.98 488.329 1154.28 481.647 1153.76 470.2C1153.41 463.343 1151.26 458.288 1151.26 453.93C1151.26 451.838 1151.44 449.746 1151.96 447.654V447.712Z" fill="#ECECEC"/>
<path d="M526.731 589.434C526.731 582.52 525.569 574.908 520.629 574.908C513.366 574.908 512.378 580.312 510.17 584.089C505.173 584.205 497.561 583.101 496.283 581.067C495.004 579.033 487.102 575.838 482.628 574.908C481.291 573.571 479.606 572.525 477.863 572.119C475.016 571.538 473.273 570.085 470.251 570.085C468.508 570.085 466.823 570.666 465.138 570.666C463.627 570.666 461.884 570.492 460.373 570.492H459.211C456.189 570.666 455.434 571.247 453.516 573.455C450.495 577 448.17 574.559 443.638 579.963C440.791 583.333 435.619 583.159 432.017 585.018C430.099 585.948 422.72 592.107 421.383 593.618C419.117 596.407 419.291 599.952 417.2 603.148C414.933 606.518 416.037 609.307 412.435 611.922C410.517 613.433 405.404 620.522 404.997 623.136C404.416 627.436 401.569 630.4 401.569 634.7C401.569 639.522 400.058 644.229 400.058 648.703C400.058 657.071 404.649 663.637 406.334 671.423C406.915 673.689 408.6 674.968 409.181 677.176C411.273 685.543 413.946 684.613 417.723 690.424C419.059 692.283 420.163 693.213 422.081 694.549C427.194 697.92 434.806 708.379 439.396 709.483C445.498 710.994 446.253 717.676 458.223 717.676C461.244 717.676 464.324 717.095 467.346 717.095C469.844 717.095 472.285 718.025 474.783 718.025C478.212 718.025 483.557 713.725 484.894 713.725C487.16 713.725 489.484 714.829 491.75 714.829C497.096 714.829 504.476 709.773 504.476 704.021C504.476 702.917 503.72 700.476 502.21 700.476C496.108 700.476 489.659 705.706 484.138 705.706C480.71 705.706 477.108 704.776 473.505 704.776C466.648 704.776 455.608 699.547 451.831 694.143C450.088 694.143 449.333 692.632 449.158 691.528C448.403 688.913 442.708 673.98 442.708 672.527C442.708 671.191 442.883 669.738 442.883 668.227C442.883 663.404 440.617 658.93 440.617 654.049C440.617 649.168 442.708 644.345 442.708 639.522C442.708 634.293 441.546 628.889 441.546 623.485C441.546 617.5 442.708 611.341 446.137 606.344C448.054 603.38 450.495 602.45 452.064 599.08C455.666 597.744 456.422 595.361 459.095 592.747C461.767 590.306 462.697 590.132 466.125 589.783C467.811 589.609 471.646 589.376 475.539 588.795C479.141 588.853 484.197 588.389 495.586 589.376C498.2 593.56 505.289 602.915 505.289 602.915C507.149 605.879 510.345 607.273 513.308 611.108C515.981 614.653 514.238 622.09 522.838 622.09C525.104 622.09 527.951 613.897 527.951 611.806C527.951 607.912 526.44 603.961 526.44 599.894C526.44 598.034 526.847 593.909 526.847 589.667L526.731 589.434Z" fill="#ECECEC"/>
<path d="M521.385 670.086C519.409 669.97 517.666 674.038 517.143 675.49C515.632 679.093 515.226 678.861 512.901 681.359C511.739 682.579 511.042 683.625 510.926 685.368C510.751 688.622 505.87 690.308 505.464 697.687C505.289 700.534 505.638 702.684 508.66 702.859C511.681 703.033 514.354 702.742 516.446 700.244C520.165 695.886 518.131 693.387 520.339 688.681C521.036 687.402 525.162 676.536 525.22 675.432C525.336 673.689 523.128 670.086 521.385 669.97V670.086Z" fill="#ECECEC"/>
<path d="M683.154 614.595C680.946 611.341 678.331 608.9 676.472 605.298C673.857 600.184 669.615 599.777 667 596.175C657.529 582.636 654.042 587.226 644.745 578.278C640.852 574.501 639.167 575.779 634.751 574.85C630.509 574.094 626.035 572.002 621.561 572.002C618.249 572.002 615.053 571.247 611.741 571.247C600.817 571.247 600.642 576.186 593.03 578.278C585.593 580.195 582.804 583.217 576.702 587.575C570.776 591.933 569.846 598.79 564.674 603.554C557.992 609.656 558.922 614.188 555.435 621.451C554.331 623.717 552.646 623.95 551.891 626.971C550.613 632.492 547.649 637.837 547.649 643.532C547.649 649.807 550.961 653.236 550.961 655.327C550.961 657.826 548.753 659.337 548.753 662.184C548.753 663.695 549.334 665.206 550.031 666.542C552.821 671.655 555.784 685.194 558.747 687.867C561.362 690.366 565.43 692.225 567.463 695.305C568.742 697.397 569.497 700.244 571.182 701.987C577.109 708.437 580.654 711.284 589.137 712.446L589.893 712.621C591.578 712.621 593.205 711.691 595.064 711.691C598.957 711.691 602.502 718.896 613.426 718.896C620.108 718.896 626.79 720.058 632.717 720.058C634.751 720.058 636.785 719.477 638.644 718.548C641.782 717.037 646.082 716.281 648.464 713.783C651.253 710.936 654.217 708.088 657.355 705.59C660.667 703.091 662.933 699.895 666.245 697.571C670.893 694.549 673.857 689.204 678.099 685.601C681.062 683.102 684.955 664.102 685.13 659.511C685.304 657.013 686.059 655.676 686.582 653.41C687.512 649.807 687.338 646.147 689.197 642.776C689.778 641.614 690.301 640.51 690.301 639.348C690.301 637.605 689.546 636.094 688.79 634.583C684.897 626.971 687.512 621.103 683.038 614.595H683.154ZM655.379 672.237C654.798 682.696 654.101 688.797 650.382 698.501C648.522 703.265 646.314 704.428 642.247 706.694C640.039 708.03 637.424 709.541 634.635 709.541C631.323 709.541 628.127 708.379 624.815 708.379C620.341 708.379 616.68 710.064 612.38 710.064C606.802 710.064 602.734 707.972 599.596 703.382C597.911 700.883 595.703 699.198 594.018 696.525C591.055 691.76 589.021 688.158 588.614 682.463C588.033 674.445 584.895 666.833 584.895 658.872C584.895 653.178 583.966 647.483 583.966 641.731C583.966 636.966 584.721 631.446 585.825 626.681C587.685 617.907 592.333 608.958 593.611 600.242C594.193 596.059 598.086 593.792 599.364 589.202C599.945 586.936 605.291 585.018 607.325 585.018C612.903 585.018 618.074 582.345 619.76 582.345C621.212 582.345 622.549 583.275 624.001 583.275C627.139 583.275 627.72 581.183 629.173 581.183C631.207 581.183 633.415 583.275 634.925 584.612C637.133 586.703 639.167 587.633 641.956 588.795C646.605 590.887 648.639 602.857 650.847 607.622C655.669 618.488 654.391 628.192 655.321 639.755C655.669 643.764 655.902 647.774 657.18 651.551C657.761 653.468 657.936 655.327 657.936 657.245C657.936 661.254 655.728 665.787 655.321 672.062L655.379 672.237Z" fill="#ECECEC"/>
<path d="M858.055 692.632C855.963 692.632 849.281 697.397 847.944 697.397C845.272 697.397 838.415 694.549 837.311 692.283C836.381 690.366 836.904 688.274 835.8 686.589C830.106 678.396 832.198 674.386 828.363 668.518C826.445 665.496 825.109 663.579 824.179 660.15C824.179 660.15 815.986 651.376 815.056 649.865C813.139 647.192 807.618 647.774 807.618 644.345C807.618 641.498 811.976 642.253 813.72 641.091C819.24 637.256 827.2 625.867 832.953 624.124C835.626 623.369 837.137 623.717 838.88 621.277C842.134 616.919 842.308 610.818 842.308 605.646C842.308 598.615 838.124 597.453 836.614 591.933C835.858 589.086 834.348 586.82 831.5 585.832C822.552 582.985 819.705 585.658 813.603 576.535C811.512 573.513 807.328 572.351 803.9 572.351C799.135 572.351 796.113 574.85 792.859 574.85C787.165 574.85 781.238 572.002 775.544 572.002C773.277 572.002 771.186 573.165 768.687 573.165C767.176 573.165 765.665 572.583 764.329 572.583C762.818 572.583 761.075 574.094 759.564 574.094C757.066 574.094 754.974 572.758 752.533 572.758C746.606 572.758 740.912 573.513 735.217 573.513C732.719 573.513 730.859 571.828 728.942 571.828C726.85 571.828 724.584 572.758 722.492 572.758C721.33 572.758 720.226 572.583 719.064 572.583C715.287 572.583 712.033 574.094 708.779 574.094H705.932C703.084 574.094 699.831 574.501 699.831 577.697C699.831 580.37 702.329 586.064 705.351 586.064C706.513 586.064 707.617 585.483 708.953 585.483C711.626 585.483 714.88 586.645 717.495 587.226C719.994 587.633 720.923 589.318 722.085 591.41C723.015 593.153 724.584 593.676 725.514 595.594C728.012 601.114 730.453 606.983 730.453 613.084C730.453 617.674 728.942 622.032 728.942 626.623C728.942 631.213 731.964 637.837 731.964 641.672V642.428C731.789 643.183 731.789 643.938 731.789 644.694C731.789 646.205 731.964 647.715 731.964 649.459C731.964 656.49 730.046 665.612 730.046 673.805C730.046 676.478 730.453 679.151 730.453 681.824V687.925C730.453 691.528 730.278 692.864 726.443 695.363C721.679 698.384 719.587 704.311 713.137 704.311C711.8 704.311 710.696 703.556 709.36 703.556C708.024 703.556 706.513 705.822 706.513 707.159C706.513 710.587 715.287 716.688 718.715 716.688C720.226 716.688 721.562 714.015 725.397 714.015C728.419 714.015 731.499 714.945 734.52 714.945C741.202 714.945 747.304 712.679 752.591 712.679C756.601 712.679 760.378 714.771 764.561 714.771H766.653C771.011 714.771 777.519 714.596 777.519 709.831C777.519 704.137 769.152 705.473 765.898 701.464C762.47 697.28 760.378 696.874 760.378 690.25C760.378 687.983 760.959 685.659 760.959 683.219C760.959 678.28 758.867 673.515 758.867 668.75C758.867 665.322 760.784 662.475 760.784 659.046C760.784 657.129 760.378 655.037 760.378 653.119C760.378 651.202 761.307 649.517 761.307 647.425C761.307 640.568 764.91 639.987 764.91 637.895C764.91 635.048 761.133 630.458 761.133 625.925C761.133 624.589 761.714 623.659 761.714 622.323C761.714 614.885 757.356 612.038 757.356 608.261C757.356 605.762 758.286 603.148 758.518 600.649C758.693 594.722 760.261 595.303 763.864 591.12C766.886 587.517 768.629 583.914 774.149 583.914C776.822 583.914 779.262 584.844 781.587 586.006C784.841 587.749 788.036 586.762 790.535 588.272C792.22 589.434 793.963 590.364 795.881 591.12C797.043 591.701 798.379 591.526 799.483 592.282C801.75 593.792 803.086 596.117 805.585 597.395C809.594 599.661 811.512 607.099 811.512 611.457C811.512 613.374 810.756 620.986 809.594 622.323C808.432 623.659 807.677 623.834 806.921 625.751C805.991 628.192 800.471 634.874 798.147 634.874C795.823 634.874 793.557 633.944 791.116 633.944C788.443 633.944 777.635 636.036 777.635 639.464C777.635 649.575 794.37 645.914 795.881 652.19C797.392 658.639 801.808 659.976 801.808 664.741C801.808 666.077 801.633 667.588 801.633 668.924C801.633 675.026 805.062 679.209 805.062 685.078C805.062 687.751 803.9 690.017 803.9 692.69C803.9 695.363 805.41 697.803 805.817 700.476C806.747 706.578 809.071 707.333 813.255 711.342C813.662 711.923 819.356 713.608 820.518 714.364C822.029 715.294 827.2 717.966 828.711 717.966C832.895 717.966 839.926 714.712 844.109 714.189C853.813 713.027 850.036 708.844 857.242 705.996C860.844 704.66 862.006 702.22 862.006 698.384C862.006 696.699 860.67 692.69 858.404 692.69L858.055 692.632Z" fill="#ECECEC"/>
<path d="M1004.66 586.994C1002.62 584.321 1001.35 582.055 997.802 582.055H995.419C994.49 582.055 993.734 581.881 992.107 580.718C989.899 579.208 987.11 578.975 984.495 578.22C981.532 577.464 982.461 576.128 978.743 575.721C977.232 575.547 975.779 575.315 974.094 575.315C970.55 575.315 968.516 577.813 965.204 577.813C964.623 577.813 956.139 571.712 950.038 571.712C943.007 571.712 940.392 576.477 935.802 576.477C933.594 576.477 931.153 575.14 928.945 574.966C923.367 574.385 923.018 572.293 915.987 572.293C909.712 572.293 905.586 574.792 901.926 574.792C899.892 574.792 896.754 573.048 894.139 572.7C891.757 572.525 889.316 572.293 886.934 572.293C881.763 572.293 868.049 574.385 868.049 581.997C868.049 585.018 872.117 590.771 875.487 590.771C877.869 590.771 880.833 590.597 883.796 590.597C886.585 590.597 889.549 590.771 891.757 591.526C900.822 594.548 899.892 605.588 901.228 613.433C901.228 613.839 901.403 614.188 901.403 614.769C901.403 618.546 900.124 622.381 900.124 626.39C900.124 630.4 901.809 634.409 901.809 638.186C901.809 642.544 900.299 646.728 900.299 651.318C900.299 655.908 900.124 660.441 900.124 665.031C900.124 667.53 900.705 669.796 900.705 672.295C900.705 675.549 899.253 691.528 898.091 693.445C895.301 698.21 894.778 698.791 889.956 700.128C886.643 701.057 884.784 703.382 881.065 703.73C877.753 704.137 873.105 705.648 873.105 710.006C873.105 715.526 883.506 717.792 887.748 717.792C892.745 717.792 896.812 714.538 901.461 714.538C903.669 714.538 905.528 715.7 907.736 715.7C909.596 715.7 911.455 715.119 913.489 715.119C917.382 715.119 921.275 716.281 925.168 716.281C929.991 716.281 934.64 714.945 939.404 714.945C941.612 714.945 943.879 715.526 946.087 715.526C949.399 715.526 956.081 712.504 956.081 708.495C956.081 704.486 949.05 703.149 946.435 702.22C938.998 699.372 934.407 697.455 934.407 688.913C934.407 687.402 934.582 685.892 934.582 684.323C934.582 678.977 931.037 678.977 930.514 676.711C929.933 674.212 930.34 671.191 929.759 668.518C929.178 665.264 928.306 662.591 928.306 659.162C928.306 652.015 931.153 648.878 933.245 645.914C937.254 642.951 942.135 639.697 941.031 639.813C939.927 639.929 936.79 638.012 934.698 636.617C933.536 633.014 931.269 629.121 931.269 623.194V618.43C931.269 615.176 929.236 612.735 929.236 609.656C929.236 604.31 930.746 601.114 932.373 596.175C934.756 588.911 936.441 583.043 945.157 583.043C949.05 583.043 952.595 580.951 956.081 580.951C957.766 580.951 959.044 581.706 960.73 581.706C962.182 581.706 963.519 580.951 964.797 580.951C965.901 580.951 971.479 589.144 973.106 590.48C975.489 592.572 976.07 592.398 977.348 595.826C978.859 599.429 981.067 601.753 981.067 605.937C981.067 616.57 980.486 623.834 971.828 630.283C970.55 631.213 969.736 632.433 968.283 633.712C963.925 637.547 949.515 637.663 947.656 640.162C948.585 641.091 962.008 641.149 963.286 641.149C967.354 641.149 970.898 638.476 974.791 638.476H978.103C979.033 638.476 979.963 638.476 980.893 638.07C983.682 637.14 986.471 636.327 989.202 635.804C992.34 635.048 997.162 635.629 999.777 633.305C1002.39 631.039 1006.98 623.194 1008.49 622.09C1011.46 619.65 1015.87 615.408 1015.87 611.224C1015.87 608.726 1014.94 606.634 1014.94 604.194C1014.77 595.826 1009.36 592.979 1004.77 587.052L1004.66 586.994Z" fill="#ECECEC"/>
<path d="M1131.68 642.253C1129.18 639.696 1125.58 638.011 1122.38 636.384C1118.37 634.176 1119.36 628.83 1112.1 628.83C1109.66 628.83 1107.16 629.586 1104.66 629.586C1101.23 629.586 1097.98 627.959 1094.96 626.448C1090.02 624.066 1082.99 624.066 1080.66 622.787C1078.16 621.509 1077.23 617.267 1073.98 617.267C1073.4 617.267 1073.05 617.79 1071.71 617.79C1062.94 617.79 1055.15 610.585 1055.15 602.159C1055.15 600.3 1055.56 598.499 1055.91 596.639C1057.24 591.468 1072.29 585.948 1077.41 585.948C1080.84 585.948 1084.26 587.4 1087.69 587.4C1091.3 587.4 1091.88 590.189 1095.3 591.468C1109.95 596.988 1114.89 606.227 1116.22 620.928C1116.63 624.24 1116.63 624.821 1119.83 624.821C1121.34 624.821 1122.54 624.259 1123.43 623.136C1130.46 614.652 1127.79 607.68 1128.95 597.743C1129.36 593.85 1131.21 589.434 1131.21 585.599C1131.21 583.391 1128.95 574.152 1126.45 574.152C1120.35 574.152 1121.34 576.534 1116.92 578.045C1113.32 579.323 1108.38 580.834 1104.54 580.834C1092.17 580.834 1096.18 570.143 1086.82 570.143C1084.9 570.143 1083.22 570.666 1081.48 571.072C1078.8 571.828 1066.43 573.28 1063.4 573.28C1054.28 573.28 1052.36 578.8 1045.16 582.868C1033.94 589.143 1038.13 595.012 1034.29 600.358C1032.03 603.496 1030.52 603.321 1030.52 607.912V610.469C1030.52 612.851 1030.69 614.71 1033.19 616.744C1034.93 618.197 1034.35 621.916 1035.86 624.298C1040.05 630.922 1042.89 634.234 1045.74 641.962C1046.49 644.171 1048.01 644.345 1050.1 644.519C1053.35 644.693 1056.95 645.972 1059.98 645.972C1061.89 645.972 1063.99 644.868 1065.9 644.868C1067.65 644.868 1070.84 646.495 1072.93 646.727C1081.71 647.657 1089.32 653.003 1098.04 654.862C1102.63 655.792 1108.67 656.722 1112.1 660.034C1118.95 666.483 1123.72 664.798 1123.72 676.245C1123.72 683.625 1121.22 683.799 1118.02 689.494C1116.69 691.876 1112.91 692.631 1110.82 694.258C1105.71 698.152 1099.02 696.292 1096.52 698.152C1095.01 699.256 1093.68 700.011 1091.93 700.011C1087.34 700.011 1083.57 695.769 1079.38 694.665C1076.54 693.91 1075.55 695.188 1073.11 692.457C1067.01 685.426 1061.49 689.668 1058.64 677.524C1057.48 672.933 1054.63 669.796 1052.94 665.554C1051.2 661.312 1049.52 651.376 1043.07 651.376C1033.94 651.376 1035.05 667.413 1034.12 673.108C1033.71 675.316 1033.36 677.698 1033.36 679.906C1033.36 683.218 1034.7 686.182 1034.7 689.319C1034.7 693.735 1030.92 694.317 1030.92 698.326C1030.92 701.812 1032.26 705.299 1034.18 708.088C1034.35 710.296 1035.34 713.259 1038.19 713.259C1042.2 713.259 1050.39 703.149 1062.18 703.149C1065.03 703.149 1068.28 704.078 1070.96 705.008C1073.63 705.938 1073.81 711.981 1086.76 711.981C1090.37 711.981 1104.83 711.807 1107.91 710.877C1113.43 709.192 1124.82 702.219 1127.73 697.222C1129.82 693.329 1133.07 692.05 1134.41 687.809C1135.34 684.845 1135.92 681.707 1137.26 678.976C1139.93 673.108 1138.59 671.597 1139.52 666.077C1139.7 664.798 1140.28 663.288 1140.28 662.009C1140.28 661.254 1140.1 660.557 1139.87 659.801C1138.54 656.315 1133.77 644.519 1131.68 642.311V642.253Z" fill="#ECECEC"/>
<path d="M1287.7 660.963C1286.77 660.963 1285.2 660.963 1284.44 661.719C1283.86 662.3 1281.77 668.575 1278.92 671.481C1276.07 674.618 1271.48 684.787 1269.62 685.891C1268.11 686.821 1260.5 693.852 1260.33 693.852C1254.63 694.433 1254.4 694.433 1249.46 697.338C1245.45 697.512 1243.19 700.476 1239.35 700.476C1237.84 700.476 1236.5 699.895 1234.99 699.895C1233.25 699.895 1231.56 700.999 1229.65 700.999C1227.15 700.999 1219.19 700.824 1217.44 699.314C1213.26 695.595 1208.67 683.451 1208.32 678.105C1207.92 673.514 1204.72 670.144 1204.72 665.379C1204.72 662.067 1207.74 644.519 1212.16 644.345L1214.07 644.17C1216.92 644.17 1218.67 646.204 1221.11 646.553C1221.69 646.553 1222.44 646.727 1223.02 646.727C1224.36 646.727 1225.7 646.553 1227.03 646.553C1234.47 653.758 1235.81 648.935 1242.84 659.104C1243.42 660.034 1244.76 660.963 1245.86 661.138C1246.61 661.312 1247.37 661.312 1248.13 661.312C1251.9 661.312 1252.13 659.104 1252.13 656.14V654.862C1252.13 649.865 1248.88 641.556 1248.88 638.418C1248.88 634.699 1249.64 630.69 1250.04 626.971C1250.45 622.903 1252.72 619.591 1252.72 615.175C1252.72 609.655 1250.8 607.04 1246.03 604.484C1243.19 604.658 1239.76 616.105 1239.76 618.72C1239.76 620.928 1238.6 626.099 1235.98 626.855C1229.12 628.888 1227.61 630.748 1222.09 633.13C1220.41 633.886 1217.91 634.99 1215.99 634.99C1213.32 634.99 1210.88 633.305 1210.47 630.748C1209.89 626.332 1206.29 619.126 1206.29 617.79C1206.29 614.478 1208.55 611.515 1208.79 608.028V604.309C1208.79 600.823 1208.96 596.755 1210.3 594.547C1213.73 589.202 1220.18 589.202 1225.7 586.993C1226.28 586.819 1226.63 586.645 1227.21 586.645C1230.23 586.645 1233.13 588.098 1236.16 588.098C1238.25 588.098 1240.34 587.516 1242.43 587.516H1251.55C1258.24 587.516 1256.49 590.829 1260.85 593.792C1263.35 595.477 1266.78 597.278 1267.88 600.242C1269.39 604.309 1272.24 605.588 1275.49 608.202C1278.34 610.41 1277.41 615.059 1279.5 617.79C1281.25 620.172 1282.93 624.647 1286.19 624.647H1287.35C1288.1 624.647 1289.03 624.647 1289.61 623.891C1290.95 622.439 1291.71 617.267 1291.71 615.408C1291.71 610.585 1288.28 608.028 1288.28 603.38C1288.28 600.416 1288.1 597.278 1288.1 594.141C1288.1 591.351 1288.68 588.446 1288.68 585.483C1288.68 583.1 1288.51 579.963 1286.42 578.277C1284.15 576.418 1278.46 573.687 1275.38 573.687C1271.02 573.687 1266.6 576.302 1262.07 576.302C1256.55 576.302 1251.79 572.99 1246.44 572.99C1242.43 572.99 1238.25 575.372 1234.06 575.605C1231.8 575.605 1229.71 576.36 1227.38 576.36C1225.64 576.36 1223.78 575.779 1221.86 575.779C1219.01 575.779 1216.52 576.883 1213.84 576.883C1209.66 576.883 1203.56 572.06 1202.05 572.06C1199.55 572.06 1197.28 572.99 1194.78 572.99C1192.69 572.99 1190.6 572.06 1188.33 572.06C1184.73 572.06 1181.65 574.268 1178.22 574.268C1174.21 574.268 1170.44 571.886 1166.43 571.886C1160.5 571.886 1151.2 575.605 1151.2 582.229C1151.2 585.948 1154.46 589.608 1158.41 589.608C1160.33 589.608 1161.84 587.749 1163.52 587.749C1163.93 587.749 1164.28 587.923 1164.68 588.098C1177.64 593.85 1171.95 598.615 1176.13 603.031C1177.87 606.75 1179.15 609.481 1179.15 613.723C1179.15 618.313 1177.24 622.787 1177.24 627.378C1177.24 630.69 1179.15 633.827 1179.15 637.546V663.404C1179.15 670.783 1176.31 673.572 1176.31 676.885C1176.31 678.918 1177.24 680.778 1177.24 682.811C1177.24 684.264 1176.07 686.705 1175.49 688.157C1174.91 690.017 1174.74 694.433 1172.99 695.711C1169.39 698.268 1152.25 698.675 1152.25 704.601C1152.25 706.984 1157.6 709.599 1159.86 709.773C1163.46 709.947 1167.47 711.226 1171.08 711.226C1176.19 711.226 1178.11 706.228 1182.46 706.228C1184.56 706.228 1186.65 707.158 1188.91 707.158H1192.34C1193.85 707.158 1195.36 707.158 1196.35 707.507C1200.13 708.785 1204.14 710.296 1208.32 710.296C1211.75 710.296 1214.77 708.436 1218.61 708.436C1220.87 708.436 1223.2 709.018 1225.46 709.018C1227.56 709.018 1229.3 706.635 1230.58 706.635C1233.08 706.635 1235.52 707.739 1238.01 707.739C1240.28 707.739 1242.61 706.984 1244.87 706.984C1248.13 706.984 1247.72 709.541 1251.9 709.541C1255.16 709.541 1257.42 707.507 1260.68 707.507C1261.84 707.507 1262.94 708.436 1264.28 708.436C1266.02 708.436 1267.71 707.158 1269.62 707.158C1274.97 707.158 1277.64 713.259 1283.69 713.259C1284.27 713.259 1285.02 713.259 1285.6 713.085C1287.11 709.599 1290.19 707.158 1291.12 703.497C1293.97 693.329 1297.05 691.876 1297.05 680.022C1297.05 679.267 1297.05 678.744 1296.88 678.163C1295.95 673.34 1294.96 660.963 1287.58 660.963H1287.7Z" fill="#ECECEC"/>
<path d="M1424.19 659.163C1422.85 655.618 1418.09 643.706 1416 641.44C1413.5 638.825 1409.89 637.14 1406.7 635.455C1402.69 633.247 1403.68 627.843 1396.41 627.843C1393.91 627.843 1391.47 628.598 1388.98 628.598C1385.55 628.598 1382.29 626.913 1379.27 625.461C1374.33 623.02 1367.3 623.02 1364.98 621.742C1362.48 620.463 1361.55 616.164 1358.3 616.164C1357.71 616.164 1357.37 616.745 1356.03 616.745C1347.26 616.745 1339.47 609.481 1339.47 600.94C1339.47 599.08 1339.88 597.221 1340.22 595.361C1341.56 590.132 1356.61 584.554 1361.72 584.554C1365.15 584.554 1368.58 586.064 1372.01 586.064C1375.61 586.064 1376.19 588.853 1379.62 590.132C1394.26 595.71 1399.2 605.065 1400.54 619.941C1400.95 623.311 1400.95 623.834 1404.14 623.834C1405.65 623.834 1406.85 623.272 1407.74 622.149C1414.78 613.607 1412.1 606.518 1413.26 596.465C1413.67 592.572 1415.53 588.098 1415.53 584.147C1415.53 581.939 1413.26 572.584 1410.77 572.584C1404.66 572.584 1405.65 575.024 1401.24 576.477C1397.63 577.755 1392.69 579.266 1388.86 579.266C1376.48 579.266 1380.49 568.458 1371.14 568.458C1369.22 568.458 1367.53 569.039 1365.79 569.388C1363.12 570.143 1350.74 571.596 1347.72 571.596C1338.6 571.596 1336.68 577.174 1329.47 581.3C1318.26 587.633 1322.44 593.618 1318.61 599.022C1316.34 602.16 1314.83 601.986 1314.83 606.634V609.249C1314.83 611.689 1315.01 613.549 1317.5 615.583C1319.25 617.093 1318.67 620.812 1320.18 623.194C1324.36 629.877 1327.21 633.247 1330.06 641.091C1330.81 643.299 1332.32 643.532 1334.41 643.706C1337.67 643.88 1341.27 645.217 1344.29 645.217C1346.21 645.217 1348.3 644.113 1350.22 644.113C1351.96 644.113 1355.16 645.798 1357.25 645.972C1366.02 646.902 1373.64 652.306 1382.35 654.165C1386.94 655.095 1392.99 656.025 1396.41 659.395C1403.27 665.903 1408.03 664.218 1408.03 675.781C1408.03 683.219 1405.54 683.393 1402.34 689.204C1401 691.644 1397.23 692.341 1395.14 694.027C1390.02 697.92 1383.34 696.06 1380.84 697.92C1379.33 699.024 1377.99 699.779 1376.25 699.779C1371.66 699.779 1367.88 695.479 1363.7 694.375C1360.85 693.62 1359.86 694.956 1357.42 692.167C1351.32 685.078 1345.8 689.378 1342.96 677.059C1341.79 672.411 1338.95 669.215 1337.26 664.973C1335.52 660.673 1333.83 650.621 1327.38 650.621C1318.26 650.621 1319.36 666.833 1318.43 672.585C1318.03 674.793 1317.68 677.234 1317.68 679.5C1317.68 682.87 1319.02 685.834 1319.02 689.029C1319.02 693.504 1315.24 694.027 1315.24 698.152C1315.24 701.697 1316.58 705.241 1318.49 708.03C1318.67 710.238 1319.65 713.26 1322.5 713.26C1326.51 713.26 1334.7 703.033 1346.5 703.033C1349.35 703.033 1352.6 703.963 1355.27 704.892C1357.95 705.822 1358.12 711.982 1371.08 711.982C1374.68 711.982 1389.15 711.807 1392.23 710.877C1397.75 709.192 1409.2 702.103 1412.04 697.106C1414.14 693.213 1417.39 691.877 1418.73 687.635C1419.66 684.671 1420.24 681.476 1421.57 678.686C1424.25 672.701 1422.91 671.249 1423.84 665.67C1424.01 664.392 1424.6 662.881 1424.6 661.545C1424.6 660.79 1424.42 660.034 1424.19 659.337V659.163Z" fill="#ECECEC"/>
</g>
<defs>
<clipPath id="clip0_963_22178">
<rect width="1024.6" height="720" fill="white" transform="translate(400)"/>
</clipPath>
</defs>
</svg>
