<svg width="1825" height="720" viewBox="0 0 1825 720" fill="none" xmlns="http://www.w3.org/2000/svg">
<g clip-path="url(#clip0_1164_2952)">
<path d="M191.581 143.586C191.581 143.586 160.809 144.56 161.301 166.56C161.301 166.56 159.992 180.571 176.825 184.139C178.074 184.404 178.53 185.942 177.654 186.867C167.784 197.285 131.213 246.982 138.476 328.713C138.476 328.713 141.406 407.896 201.355 500.393C201.355 500.393 211.98 515.665 201.355 518.597C201.355 518.597 177.029 525.386 172.887 513.623C172.503 512.541 172.695 511.352 173.415 510.463C177.354 505.632 190.333 486.924 166.728 474.235C166.728 474.235 137.42 459.576 126.254 492.379C116.397 521.325 129.736 553.647 154.925 567.309C160.508 570.337 166.824 571.743 173.175 571.539L229.078 569.736C237.902 569.448 246.223 565.17 251.254 557.901C257.677 548.625 262.48 533.821 252.106 513.851C252.106 513.851 175.372 392.264 228.273 240.926C231.275 232.335 236.678 224.693 244.086 219.394C252.022 213.71 263.728 209.204 279.769 212.124C288.462 213.71 296.038 219.177 299.976 227.096C302.798 232.779 305.091 240.794 305.439 252.016C306.412 283.786 305.439 327.283 305.439 327.283C305.439 327.283 304.466 336.811 297.383 335.105C290.299 333.399 285.664 321.203 271.989 323.642C258.313 326.081 245.37 334.612 249.273 369.326C253.175 404.039 271.004 405.493 278.088 405.746C284.704 405.974 291.752 404.183 296.038 395.7C297.022 393.766 298.679 392.18 300.744 391.507C302.353 390.978 304.202 392.012 305.751 393.658C306.7 394.667 307.168 396.037 307.204 397.419C307.576 410.251 310.098 493.929 310.854 520.243C310.974 524.293 306.7 529.159 302.654 529.159H302.593C290.683 529.159 281.03 538.82 281.03 550.739C281.03 563.512 291.367 573.858 304.13 573.858H384.766C397.985 573.858 409.355 571.01 408.695 549.91C408.695 536.969 398.213 526.468 385.27 526.468H385.066C381.128 526.468 377.334 521.673 377.298 517.732L376.518 400.086C376.518 399.617 376.554 399.149 376.662 398.692C377.202 396.277 379.927 391.002 384.814 392.096C391.598 393.622 393.471 396.049 397.265 400.855C400.254 404.64 416.907 413.039 429.49 397.383C434.077 391.675 437.006 384.538 437.283 377.22C437.703 366.382 436.394 347.661 432.3 335.165C429.274 325.937 419.693 319.797 410.052 320.951C406.702 321.347 403.184 322.621 399.894 325.408C397.073 327.799 393.747 329.554 390.085 330.131C384.166 331.08 376.746 330.107 376.746 319.232C376.746 306.051 376.229 261.292 375.941 238.018C375.749 222.097 388.008 208.736 403.892 207.726C408.419 207.438 413.654 207.57 419.729 208.279C459.29 212.917 531.209 308.719 438.531 495.683C438.531 495.683 405.201 556.531 448.785 568.27C492.368 580.01 527.908 570.842 544.753 545.909C544.753 545.909 558.176 529.988 558.044 509.79C557.948 495.371 549.892 481.937 537.153 475.196C528.748 470.751 517.666 469.333 505.924 480.039C505.924 480.039 493.281 494.758 511.963 509.79C511.963 509.79 509.634 517.059 500.473 514.957C491.108 512.806 485.284 503.385 487.121 493.953C488.838 485.121 491.852 471.76 506.044 453.76C536.288 418.566 605.746 264.885 499.008 188.693C498.3 188.189 498.396 187.107 499.2 186.759C504.135 184.632 517.186 177.759 518.867 163.737C520.944 146.386 502.262 141.988 495.55 141.988C488.838 141.988 373.516 146.266 345.553 145.1C318.934 143.995 191.581 143.574 191.581 143.574V143.586Z" fill="#ECECEC"/>
<path d="M780.368 279.532C734.503 224.908 651.539 267.804 651.539 267.804C652.523 257.243 646.688 253.446 639.976 252.46C630.611 251.079 621.342 255.632 616.239 263.611L589.453 305.39C589.453 305.39 575.777 325.912 589.945 337.892C601.988 348.069 614.727 336.174 618.281 332.377C619.541 331.031 620.814 330.214 622.171 328.976C638.379 314.305 662.344 307.036 675.948 304.224C686.598 302.025 697.752 303.143 707.549 307.889C716.506 312.239 722.653 318.523 726.831 324.663C732.042 332.329 734.984 341.317 735.764 350.545C744.301 452.005 739.27 474.895 737.925 478.933C737.661 479.726 737.445 480.531 737.241 481.336C732.366 499.78 713.168 507.819 699.264 511.267C688.699 513.887 677.665 514.235 667.003 512.108C621.03 502.916 622.807 458.975 622.807 458.975C624.824 413.699 654.852 407.283 654.852 407.283C671.385 401.455 682.083 405.084 688.771 410.515C698.004 418.013 701.294 430.69 697.487 441.96C695.71 447.247 692.949 450.804 691.268 452.618C690.332 453.64 689.071 454.337 687.714 454.565C684.172 455.166 682.515 453.712 681.759 451.969C680.846 449.855 681.339 447.391 682.755 445.589C699.084 424.862 679.033 415.105 679.033 415.105C672.802 410.275 633.433 411.14 633.793 456.596C634.153 502.051 683.248 509.381 711.271 491.057C742.776 474.559 732.51 418.47 732.51 418.47C728.116 373.375 678.301 366.045 678.301 366.045C606.502 357.982 581.228 404.171 581.228 404.171C548.259 455.262 560.229 499.624 573.832 525.71C583.702 544.635 599.598 559.871 618.953 568.846C671.902 593.395 722.977 566.419 729.953 561.433C731.43 560.375 733.903 557.768 737.457 556.266C742.152 554.283 747.531 555.593 751.121 559.21C772.144 580.394 794.788 571.694 794.788 571.694C804.61 569.784 809.268 564.713 811.321 559.318C811.321 559.318 814.479 552.277 811.321 541.27L800.311 528.341C797.37 524.893 795.881 520.447 796.145 515.917C792.411 402.693 803.409 304.825 780.404 279.52L780.368 279.532Z" fill="#ECECEC"/>
<path d="M815.043 290.683L819.353 294.011C825.045 299.791 828.599 307.349 829.343 315.423C833.437 360.146 832.02 495.287 831.636 526.083C831.588 529.459 829.763 532.559 826.834 534.218C818.357 539.012 817.637 548.985 817.637 548.985C815.932 573.665 842.55 573.425 842.55 573.425L977.575 565.795C981.886 565.555 985.704 563.007 987.637 559.15C995.129 544.263 999.559 523.463 1000.64 517.984C1000.86 516.891 1000.99 515.785 1000.92 514.68C1000.59 509.237 997.098 505.86 993.448 503.818C989.798 501.775 985.271 500.826 980.925 501.09C972.917 501.571 965.305 504.791 959.361 510.198L954.211 514.896C946.538 521.889 936.525 525.831 926.151 525.771C921.049 525.746 916.63 525.194 912.812 524.305C899.185 521.12 889.399 509.177 888.679 495.19C883.204 388.25 889.784 363.702 889.784 363.702C902.667 324.207 932.035 320.974 950.525 323.342C966.157 325.348 979.1 336.487 983.074 351.759C984.203 356.096 984.767 360.29 985.031 363.859C985.74 373.531 982.93 383.24 976.651 390.618C967.106 401.84 952.686 404.976 941.568 397.911C928.937 389.885 933.595 375.922 935.661 371.188C935.901 370.635 936.705 370.696 936.861 371.284C939.371 380.56 944.533 384.574 949.168 386.244C955.651 388.587 963.083 386.773 967.718 381.666C972.352 376.559 973.937 368.725 973.925 362.657C973.913 356.589 972.268 350.221 968.835 345.006C961.631 334.06 950.741 332.041 940.943 333.146C926.271 334.793 913.665 344.189 907.013 357.37C899.149 372.954 900.097 386.484 903.771 396.866C908.31 409.699 918.095 419.96 930.354 425.836C983.206 451.177 1010.43 400.098 1010.43 400.098C1044.61 338.998 1000.17 288.652 1000.17 288.652C971.476 256.883 943.933 261.581 927.304 269.571C920.22 272.972 913.893 277.778 908.43 283.425C903.867 288.147 900.241 290.827 897.396 292.209C892.785 294.444 887.767 290.262 888.859 285.252C889.892 280.529 888.859 276.36 887.13 272.972C883.756 266.375 877.285 262.025 870.033 260.559C851.723 256.846 831.936 264.585 820.062 270.641C816.82 272.287 814.143 274.918 812.69 278.259C811.237 281.599 810.733 286.321 815.055 290.671L815.043 290.683Z" fill="#ECECEC"/>
<path d="M1056.88 184.367C1056.88 184.367 1029.77 185.1 1033.8 225.053C1033.8 225.053 1034.03 232.01 1037.15 238.678C1039.6 243.917 1040.59 249.721 1039.59 255.416C1038.82 259.85 1037.92 264.092 1033.39 265.257C1022.94 267.949 1013.9 275.519 1015.85 291.656C1015.85 291.656 1016.28 307.781 1030.24 313.008C1032.01 313.669 1033.2 315.363 1033.23 317.261L1034.8 470.942C1034.97 487.548 1038.75 503.974 1046.3 518.753C1058.36 542.34 1082.91 568.678 1132.59 570.012C1132.59 570.012 1199.14 575.888 1207.39 490.636C1208.59 478.26 1207.25 465.704 1202.76 454.096C1195.67 435.76 1179.27 414.228 1141.38 416.511C1141.38 416.511 1094.49 420.933 1094.49 463.937C1094.49 463.937 1091.82 516.242 1139.7 508.467C1147.8 507.158 1155.19 502.712 1159.67 495.827C1162.75 491.069 1164.82 484.821 1162.99 477.251C1158.09 456.92 1137.9 458.506 1132.41 468.311C1131.63 469.705 1130.3 470.762 1128.7 470.87C1127.1 470.978 1125.27 470.354 1124.22 467.518C1123.18 464.682 1123.74 461.798 1125.36 459.431C1128.47 454.865 1135.75 447.884 1149.88 451.381C1158.56 453.532 1166.28 458.77 1170.75 466.521C1173.97 472.108 1176.15 479.834 1174.17 489.915C1171.44 503.745 1165.15 511.556 1157.79 516.001C1148.26 521.745 1139.83 523.211 1127.72 520.82C1112.52 517.816 1090.27 507.674 1088.46 482.213C1086.21 450.684 1085.92 364.002 1085.9 333.026C1085.9 323.281 1092.05 314.45 1101.33 311.506C1105.98 310.028 1111.82 309.163 1118.96 309.703C1125.26 310.184 1131.35 312.046 1136.97 314.93C1143.71 318.379 1157.02 322.632 1170.88 312.491C1170.88 312.491 1184.62 302.782 1182.97 282.247C1182.97 282.247 1180.22 256.954 1147.8 262.998C1147.8 262.998 1086.47 275.831 1085.38 253.109C1085.38 253.109 1086.63 206.368 1084.43 199.399C1082.24 192.43 1077.35 181.808 1056.9 184.367H1056.88Z" fill="#ECECEC"/>
<path d="M1447.82 543.482C1447.33 537.726 1444.3 532.487 1439.57 529.171L1428.95 524.809C1426.15 522.851 1422.42 519.679 1422.34 516.266L1418.3 314.426C1418.26 312.792 1418.17 311.17 1417.9 309.559C1414.22 287.222 1389.31 271.193 1389.31 271.193C1344.27 245.9 1303.6 270.088 1303.6 270.088C1296.56 271.854 1287.12 280.517 1279.84 288.208C1275.83 292.461 1268.7 289.673 1268.64 283.822L1267.8 201.598C1267.75 196.756 1269.78 192.106 1273.4 188.886C1286.06 177.663 1280.75 166.14 1279.43 161.586C1277.62 155.35 1265.88 149.113 1257.09 156.84C1257 156.912 1256.91 156.984 1256.82 157.068C1251.24 161.838 1243.02 162.006 1237.18 157.524C1224.98 148.14 1218.57 147.167 1207.8 149.486C1202.69 150.579 1199.84 153.631 1198.25 156.767C1195.99 161.237 1196.14 166.536 1198.22 171.102C1199.35 173.614 1200.85 176.269 1202.41 178.792C1208.26 188.213 1211.63 198.943 1212 210.021C1214.18 274.341 1216.62 479.318 1217.08 518.934V519.066C1217.08 523.103 1214.84 526.816 1211.25 528.678C1207.85 530.457 1205.03 533.052 1202.99 536.164C1200.96 539.264 1199.7 542.893 1199.42 546.714C1198.52 559.403 1208.46 570.241 1221.18 570.421L1273.21 571.118C1285.43 571.118 1295.18 561.181 1295.18 549.177C1295.18 548.624 1295.16 548.084 1295.12 547.531C1294.61 540.394 1290.64 533.965 1284.52 530.276L1277.13 525.987C1275.14 524.833 1273.91 522.731 1273.86 520.436L1272.15 434.199C1272.14 433.454 1273.07 433.165 1273.51 433.754C1283.72 447.332 1321.92 445.686 1321.92 445.686C1350.63 447.824 1366.6 426.124 1371.12 418.843C1371.52 418.206 1372.49 418.482 1372.51 419.227L1373.84 515.833C1373.9 520.207 1371.38 524.208 1367.4 526.023L1364.28 527.453C1357.06 530.757 1352.47 537.954 1352.47 545.873V546.089C1352.59 557.396 1361.94 566.408 1373.24 566.107L1428.94 564.641C1439.57 564.353 1447.89 555.63 1447.89 545.2C1447.89 544.635 1447.87 544.058 1447.82 543.482ZM1362.31 336.859C1310.34 306.892 1290.42 350.125 1290.42 350.125C1281.74 367.067 1284.15 377.016 1288.45 386.845C1291.03 392.744 1297.88 399.569 1303.8 402.105C1320.76 409.374 1328.27 394.847 1328.27 394.847C1333.16 387.578 1328.93 374.517 1325.67 368.268C1325.16 367.307 1324.94 366.286 1324.94 365.264C1324.94 362.873 1326.26 360.566 1328.54 359.413C1330.59 358.379 1333.12 358.824 1334.6 360.578C1338.27 364.976 1340.15 371.801 1341.07 376.643C1341.83 380.645 1342.06 384.742 1341.6 388.791C1339.81 404.556 1331.82 410.864 1322.76 413.327C1313.75 415.767 1304.2 414.216 1295.98 409.807C1281.75 402.165 1275.61 390.473 1273.5 378.842C1269.32 355.712 1281.1 332.762 1301.65 321.359C1337.95 301.233 1358.64 329.602 1362.86 336.307C1363.09 336.667 1362.68 337.076 1362.31 336.859Z" fill="#ECECEC"/>
<path d="M1701.63 539.011C1701.42 534.638 1698.9 530.721 1695.02 528.702L1680.95 521.396C1677.65 519.438 1675.51 515.989 1675.23 512.156C1672.79 478.921 1668.68 324.11 1668.68 324.11C1668.68 324.11 1667.88 277.621 1633.08 261.148C1609.32 250.105 1557.39 262.493 1537.26 268.826C1533.25 270.087 1528.1 268.189 1525.83 264.644L1525.23 263.707C1521.77 258.312 1515.56 255.344 1509.2 256.029C1505 256.486 1501.1 258.492 1498.33 261.688C1462.85 302.602 1454.39 339.875 1454.39 339.875C1453.66 348.118 1457.5 351.398 1461.53 352.599C1465.57 353.801 1473.76 350.256 1477.24 348.142L1521.43 319.256C1533.25 312.106 1552.95 308.189 1566.73 308.946C1578.14 309.571 1586.88 312.923 1593.5 317.141C1604.74 324.314 1611.81 335.477 1612.85 348.778C1614.85 373.975 1617.04 427.469 1617.04 427.469C1619.2 471.855 1601.91 493.616 1585.39 504.262C1568.87 514.908 1546.65 516.638 1528.31 508.011C1496.29 492.943 1496.53 456.439 1496.53 456.439C1496.53 400.35 1537.92 399.256 1537.92 399.256C1554.43 398.151 1568.19 408.436 1572.35 421.233C1574.98 429.332 1572.92 438.392 1566.96 444.484C1562.72 448.821 1558.32 449.398 1555.65 449.11C1554.75 449.014 1554.28 447.992 1554.85 447.271C1578.95 416.331 1543.79 411.717 1543.79 411.717C1528.41 409.794 1519.75 418.842 1515.22 426.724C1512.47 431.507 1510.8 436.83 1510.05 442.297C1504.53 484.4 1526.73 496.8 1542.99 500.321C1554.33 502.772 1566.3 501.162 1576.44 495.49C1606.97 478.416 1606.43 435.916 1606.43 435.916C1613.75 361.131 1539.02 364.375 1539.02 364.375C1434.27 370.551 1437.56 460.717 1437.56 460.717C1440.61 559.054 1490.83 563.031 1528.9 570.769C1549.06 574.866 1570.1 572.127 1588.59 563.103C1599.61 557.72 1606.4 551.388 1610.4 547.759C1611.9 546.401 1614.24 546.75 1615.29 548.492C1619.53 555.581 1633.17 570.18 1664.42 567.765C1664.42 567.765 1706.37 572.836 1701.63 539.023V539.011Z" fill="#ECECEC"/>
</g>
<defs>
<clipPath id="clip0_1164_2952">
<rect width="1579" height="437" fill="white" transform="translate(123 142)"/>
</clipPath>
</defs>
</svg>
