<svg width="1826" height="720" viewBox="0 0 1826 720" fill="none" xmlns="http://www.w3.org/2000/svg">
<g clip-path="url(#clip0_261_607)">
<path d="M83.5709 350.783C78.7406 369.501 73.9223 388.232 69.08 406.951C67.5855 412.741 66.0312 418.52 64.5726 424.322C64.0943 426.232 63.0422 427.004 61.1292 426.991C54.7924 426.93 48.4556 426.906 42.1189 426.991C39.7635 427.028 38.9505 425.718 38.3885 423.698C31.8724 400.058 25.3085 376.443 18.7565 352.815C18.6369 352.374 18.4696 351.946 17.9435 351.53C17.9435 352.962 17.9435 354.407 17.9435 355.839C17.9435 377.581 17.9435 399.336 17.9435 421.078C17.9435 425.004 15.9667 426.967 12.0132 426.967C9.59808 426.967 7.17097 426.869 4.75582 426.991C2.1972 427.114 1.16897 425.889 1.22875 423.429C1.25267 422.609 1.2168 421.788 1.2168 420.956C1.2168 381.572 1.2168 342.189 1.2168 302.805C1.2168 296.88 1.24071 296.856 6.90794 296.856C19.1271 296.856 31.3344 296.856 43.5536 296.856C48.6828 296.856 48.623 296.88 50.0458 302.389C54.9239 321.242 59.8618 340.071 64.9791 359.72C66.3062 354.627 67.454 350.318 68.554 345.996C72.4039 330.877 76.3016 315.758 80.02 300.602C80.7015 297.811 81.8851 296.77 84.7307 296.794C98.2053 296.917 111.692 296.905 125.178 296.794C128.108 296.77 129.267 297.713 129.255 300.834C129.184 341.503 129.184 382.184 129.255 422.853C129.255 426.232 127.952 427.016 124.939 426.991C112.732 426.869 100.513 426.844 88.3056 427.004C85.0057 427.04 83.9177 425.963 83.9296 422.572C84.0372 399.887 83.9894 377.19 83.9894 354.505C83.9894 353.268 83.9894 352.032 83.9894 350.783C83.8459 350.771 83.7144 350.746 83.5709 350.734V350.783Z" fill="#121212" stroke="#121212" stroke-miterlimit="10"/>
<path d="M753.297 366.086C757.083 366.086 758.98 367.963 758.988 371.717C758.988 389.591 759.047 402.299 758.94 420.172C758.916 423.38 759.932 424.482 763.113 424.445C775.559 424.298 788.005 424.396 800.44 424.384C805.665 424.384 805.677 424.384 805.677 419.181C805.677 399.311 805.677 379.442 805.677 359.585C805.677 339.483 805.677 319.381 805.677 299.28C805.677 294.383 805.581 294.285 800.894 294.285C788.567 294.272 776.24 294.285 763.914 294.285C759.024 294.285 759 294.321 759 299.475C759 313.579 758.94 327.694 759.047 341.797C759.071 344.625 758.33 345.849 755.365 345.69H742.584C739.296 345.91 738.471 344.613 738.495 341.454C738.626 327.229 738.483 313.003 738.602 298.778C738.626 295.509 737.73 294.162 734.322 294.211C721.529 294.37 708.748 294.26 695.955 294.285C691.854 294.285 691.459 294.676 691.459 298.986C691.447 339.312 691.471 379.626 691.399 419.952C691.399 423.245 692.356 424.506 695.751 424.457C708.305 424.286 720.871 424.396 733.425 424.384C736.829 424.384 738.535 422.609 738.543 419.058C738.543 400.952 738.59 388 738.495 369.893C738.483 367.016 739.332 365.865 742.237 366.037L753.297 366.086Z" fill="#121212" stroke="#121212" stroke-miterlimit="10"/>
<path d="M1549.42 353.942C1557.42 356.206 1564.31 358.606 1569.68 364.311C1578.85 374.08 1581.2 385.576 1577.66 398.197C1574.4 409.84 1566.4 417.063 1555.03 420.307C1548.79 422.082 1542.42 422.915 1535.91 422.902C1513.21 422.853 1490.51 422.89 1467.81 422.878C1463.34 422.878 1463.17 422.719 1463.17 418.091C1463.17 377.998 1463.17 337.904 1463.17 297.823C1463.17 293.061 1463.44 292.779 1468 292.779C1489.55 292.779 1511.1 292.644 1532.65 292.877C1542.42 292.987 1551.87 295.056 1560.37 300.381C1571.24 307.188 1574.72 317.484 1573.08 329.763C1571.53 341.381 1564.62 348.714 1553.89 352.497C1552.71 352.913 1551.5 353.28 1549.42 353.942ZM1510.33 385.306C1510.33 390.938 1510.33 396.581 1510.33 402.213C1510.33 406.539 1512.5 408.612 1516.84 408.432C1525.7 408.053 1530.55 403.915 1531.38 395.651C1531.97 389.812 1532.01 383.898 1531.36 378.071C1530.14 367.237 1524.29 362.352 1513.66 362.683C1511.09 362.768 1510.25 363.76 1510.29 366.282C1510.4 372.623 1510.33 378.965 1510.33 385.294V385.306ZM1510.33 327.547C1510.33 333.411 1510.31 339.275 1510.34 345.152C1510.34 346.388 1510.11 347.747 1511.8 348.31C1518.05 350.367 1525.5 346.278 1526.99 339.74C1528.55 332.922 1528.62 325.992 1527.63 319.1C1526.3 309.943 1522.38 306.87 1513.34 307.176C1511.1 307.249 1510.28 308.057 1510.3 310.298C1510.38 316.052 1510.33 321.793 1510.33 327.547Z" fill="#121212" stroke="#121212" stroke-miterlimit="10"/>
<path d="M228.133 362.083C228.133 342.226 228.133 322.357 228.133 302.5C228.133 297.003 228.252 296.893 233.453 296.893C252.571 296.893 271.701 296.77 290.819 296.917C323.507 297.162 342.864 318.121 347.013 349.559C349.392 367.592 346.929 385 338.189 401.099C331.41 413.586 321.044 421.446 307.402 424.727C299.966 426.514 292.433 427.089 284.793 427.04C267.397 426.906 250.001 427.004 232.604 426.992C228.36 426.992 228.145 426.771 228.145 422.376C228.133 402.274 228.145 382.185 228.145 362.083H228.133ZM275.24 361.899C275.24 363.429 275.24 364.96 275.24 366.478C275.24 380.581 275.24 394.684 275.264 408.799C275.264 410.366 274.893 412.105 277.321 412.533C285.917 414.064 292.039 410.685 295.111 402.36C295.96 400.071 296.749 397.659 296.988 395.235C299.248 373.076 299.714 350.844 296.869 328.759C295.111 315.134 290.305 311.363 279.76 311.302C275.252 311.277 275.24 311.289 275.24 316.04C275.24 331.318 275.24 346.596 275.24 361.887V361.899Z" fill="#121212" stroke="#121212" stroke-miterlimit="10"/>
<path d="M1145.75 359.732C1145.96 347.367 1147.83 335.382 1153.21 324.107C1159.75 310.396 1170.16 301.116 1184.3 296.648C1202.08 291.028 1219.96 290.906 1237.35 298.435C1253.65 305.486 1263.29 318.476 1267.87 335.652C1272.41 352.693 1272.28 369.783 1267.72 386.763C1262.84 404.955 1251.96 417.761 1234.39 424.323C1216.65 430.946 1198.89 430.676 1181.34 423.919C1165.22 417.712 1154.75 405.849 1149.93 388.955C1147.22 379.43 1145.65 369.71 1145.75 359.732ZM1195.64 360.736C1195.38 371.693 1195.93 382.625 1196.55 393.545C1196.8 398.051 1197.48 402.543 1198.91 406.841C1200.62 411.97 1204.21 414.957 1208.44 415.018C1212.66 415.067 1216.5 411.75 1218.08 406.559C1219.65 401.417 1220.24 396.08 1220.54 390.742C1221.68 370.542 1221.58 350.318 1220.54 330.118C1220.26 324.548 1219.66 318.965 1217.51 313.726C1215.61 309.086 1212.42 306.723 1208.26 306.87C1203.6 307.029 1200.72 309.649 1199.19 313.97C1198.64 315.525 1198.19 317.141 1197.9 318.782C1195.45 332.677 1195.78 346.731 1195.65 360.748L1195.64 360.736Z" fill="#121212" stroke="#121212" stroke-miterlimit="10"/>
<path d="M1652.08 290.649C1666.65 290.698 1679.11 293.134 1690.33 300.663C1701.77 308.339 1708.87 319.222 1712.53 332.358C1717.44 349.987 1717.23 367.788 1712.58 385.502C1706.65 408.052 1688.64 423.417 1664.36 426.612C1648.11 428.754 1632.61 426.575 1618.09 418.373C1606.85 412.019 1599.36 402.482 1595.39 390.24C1589.2 371.179 1588.06 351.824 1593.77 332.371C1600.86 308.204 1617.18 295.154 1641.26 291.494C1645.32 290.881 1649.4 290.502 1652.08 290.649ZM1666.09 358.483C1666.03 348.212 1666.21 337.941 1665.24 327.694C1664.74 322.344 1664.26 316.994 1662.37 311.901C1660.66 307.298 1657.48 304.752 1653.3 304.703C1648.98 304.654 1645.78 306.931 1643.96 311.522C1642.73 314.631 1642.03 317.9 1641.74 321.255C1639.69 344.27 1639.92 367.298 1641.16 390.338C1641.48 396.386 1641.83 402.556 1644.84 408.065C1646.72 411.493 1649.73 413.39 1653.48 413.231C1657.2 413.084 1660.1 411.015 1661.79 407.489C1662.92 405.102 1663.51 402.531 1663.91 399.936C1666.11 386.2 1666.1 372.354 1666.08 358.496L1666.09 358.483Z" fill="#121212" stroke="#121212" stroke-miterlimit="10"/>
<path d="M664.653 332.848C665.55 331.808 666.698 329.555 666.375 328.208C662.991 314.362 656.571 302.867 642.439 297.554C632.228 293.71 621.013 293.905 610.408 295.423C588.54 298.582 572.913 310.347 564.401 331.232C555.673 352.644 555.613 374.288 564.353 395.725C564.389 395.823 564.437 395.92 564.472 396.018C569.9 409.203 580.565 419.365 593.622 424.47C612.285 431.766 641.889 429.403 649.732 414.97C651.645 413.807 653.199 413.39 654.048 415.961L655.471 420.858C656.499 424.421 659.691 426.857 663.314 426.857H667.654C671.361 426.392 672.664 426.208 672.592 422.56C672.413 412.093 672.52 401.638 672.52 391.17C672.52 380.471 672.401 369.771 672.592 359.071C672.652 355.619 671.444 354.627 668.192 354.664C654.251 354.799 640.298 354.688 626.358 354.725C617.223 354.75 618.263 353.685 618.263 363.025C618.263 372.501 617.139 371.803 626.369 371.717C629.072 371.693 630.016 372.709 629.98 375.451C629.861 384.266 629.968 393.093 629.873 401.907C629.849 403.768 629.562 405.678 629.036 407.453C627.888 411.383 625.341 414.113 621.216 414.394C617.283 414.663 614.043 412.95 611.998 409.326C611.137 407.796 610.456 406.18 610.121 404.417C609.356 400.364 608.973 396.276 608.758 392.174C607.873 375.133 608.22 358.092 608.866 341.075C609.165 333.264 609.105 325.295 612.596 317.937C616.984 308.682 627.756 305.903 635.875 312.085C640.334 315.489 642.702 320.239 643.802 325.711L645.511 337.06C645.798 338.945 647.496 340.267 649.337 340.022C653.414 339.496 660.301 337.855 664.629 332.86L664.653 332.848Z" fill="#121212" stroke="#121212" stroke-miterlimit="10"/>
<path d="M453.375 364.617C435.501 340.389 421.201 323.703 403.399 299.414C402.083 297.615 400.673 296.807 398.496 296.843C391.933 296.929 380.18 296.868 373.604 296.868C370.073 296.868 368.303 298.717 368.295 302.414C368.295 342.042 368.295 381.67 368.295 421.286C368.295 421.874 368.343 422.462 368.295 423.049C368.056 425.853 369.12 427.224 372.049 427.016C374.345 426.844 378.267 426.991 380.574 426.991C384.281 426.991 386.138 425.151 386.146 421.47L386.66 353.807C387.616 354.982 388.525 355.986 389.338 357.076C404.403 377.129 419.456 403.315 434.425 423.453C436.266 425.926 438.143 427.151 441.3 427.065C450.052 426.857 458.815 427.004 467.579 426.991C472.517 426.991 472.529 426.979 472.529 421.899C472.529 381.915 472.529 341.944 472.529 301.961C472.529 301.251 472.481 300.553 472.529 299.843C472.649 297.725 471.597 296.868 469.612 296.88C466.958 296.905 464.315 296.856 461.661 296.88C456.544 296.892 453.184 297.015 453.172 302.193L453.375 364.629V364.617Z" fill="#121212" stroke="#121212" stroke-miterlimit="10"/>
<path d="M1071.4 362.891C1071.37 376.566 1071.68 383.311 1074.99 394.917C1079.66 411.285 1098.81 410.024 1106.48 402.519C1114.73 394.464 1117.07 384.609 1116.19 373.86C1115.38 365.241 1120.67 366.466 1122.83 366.931C1124.62 367.359 1126.39 367.898 1128.16 368.4C1132.37 369.583 1134.62 372.399 1134.89 376.847C1136.24 398.859 1124.87 419.169 1102.38 424.604C1086.23 428.51 1070.07 427.885 1054.46 421.703C1040.79 416.292 1032.16 405.727 1027.31 391.942C1020.1 371.473 1020.07 350.832 1027.71 330.534C1034.31 312.979 1046.43 300.516 1064.29 295.277C1079.91 290.698 1095.78 290.245 1110.62 298.619C1122.62 305.401 1129.02 319.161 1128.16 333.448C1128.07 334.807 1127.39 335.578 1126.25 336.105C1121.21 338.431 1116.17 340.745 1111.14 343.107C1108.75 344.234 1108.41 343.009 1108.41 340.94C1108.41 335.431 1108.99 329.886 1107.76 324.426C1106.82 320.263 1105.49 316.333 1102.74 312.955C1098.47 307.727 1092.96 305.989 1086.63 307.139C1080.8 308.192 1077.22 311.963 1075.36 317.778C1073.36 324.009 1072.59 330.412 1072.27 336.851C1071.83 346.119 1071.06 355.386 1071.39 362.891H1071.4Z" fill="#121212" stroke="#121212" stroke-miterlimit="10"/>
<path d="M875.99 295.142C893.159 295.142 910.328 295.142 927.497 295.142C932.065 295.142 932.184 295.289 932.22 299.855C932.232 302.561 932.077 305.278 932.256 307.959C932.483 311.265 931.012 312.269 927.964 312.22C920.479 312.097 912.983 312.171 905.498 312.183C902.166 312.183 900.496 313.856 900.488 317.202C900.488 351.42 900.488 385.637 900.488 419.842C900.488 423.441 898.695 425.241 895.108 425.241C881.968 425.241 868.828 425.241 855.7 425.241C851.169 425.241 851.097 425.167 851.097 420.454C851.097 386.126 851.097 351.787 851.097 317.459C851.097 313.942 849.396 312.179 845.992 312.171C838.496 312.171 831.011 312.073 823.526 312.207C820.394 312.269 819.103 311.081 819.318 307.861C819.497 305.168 819.342 302.45 819.354 299.757C819.378 295.338 819.545 295.142 823.813 295.129C841.21 295.117 858.618 295.129 876.014 295.129L875.99 295.142Z" fill="#121212" stroke="#121212" stroke-miterlimit="10"/>
<path d="M1784.79 349.693C1787.88 341.614 1790.64 334.415 1793.36 327.229C1797.27 316.933 1801.24 306.662 1805.02 296.317C1805.99 293.66 1807.48 292.718 1810.2 292.865C1813.88 293.061 1817.56 292.865 1821.26 292.926C1824.86 292.975 1825.26 293.526 1824 296.831C1818.65 310.714 1813.22 324.572 1807.88 338.455C1803.32 350.257 1798.84 362.095 1794.32 373.909C1793.76 375.39 1793.87 376.92 1793.87 378.438C1793.87 391.831 1793.77 405.237 1793.91 418.63C1793.95 421.996 1792.9 423.123 1789.57 423.086C1776.9 422.927 1764.23 422.927 1751.57 423.086C1748.22 423.123 1747.18 421.948 1747.21 418.605C1747.34 405.445 1747.21 392.284 1747.3 379.112C1747.31 376.1 1746.75 373.321 1745.64 370.554C1735.82 346.351 1726.06 322.124 1716.27 297.908C1714.32 293.085 1714.42 292.901 1719.64 292.901C1732.54 292.901 1745.44 292.987 1758.34 292.84C1761.39 292.803 1762.74 293.991 1763.83 296.843C1770.21 313.591 1776.79 330.265 1783.32 346.951C1783.57 347.588 1783.97 348.151 1784.83 349.693H1784.79Z" fill="#121212" stroke="#121212" stroke-miterlimit="10"/>
<path d="M204.353 362.217C204.353 382.197 204.353 402.189 204.353 422.168C204.353 426.857 204.221 426.979 199.762 426.979C186.969 426.992 174.187 426.894 161.394 427.04C158.142 427.077 157.222 425.829 157.234 422.719C157.293 382.283 157.293 341.846 157.234 301.41C157.234 298.154 158.19 296.782 161.586 296.819C174.486 296.966 187.399 296.954 200.3 296.819C203.564 296.782 204.425 298.092 204.413 301.202C204.317 321.536 204.365 341.871 204.365 362.217H204.353Z" fill="#121212" stroke="#121212" stroke-miterlimit="10"/>
<path d="M541.995 361.985C541.995 382.086 541.995 402.188 541.995 422.29C541.995 426.93 541.935 426.979 537.32 426.991C524.766 426.991 512.2 426.893 499.646 427.052C496.298 427.089 495.294 425.902 495.306 422.572C495.389 382.135 495.389 341.699 495.306 301.251C495.306 297.835 496.454 296.782 499.718 296.819C512.391 296.953 525.065 296.966 537.738 296.819C541.086 296.782 542.078 297.994 542.066 301.324C541.947 321.548 542.007 341.76 542.007 361.985H541.995Z" fill="#121212" stroke="#121212" stroke-miterlimit="10"/>
<path d="M1267.69 299.806L1303.2 418.471C1303.7 420.16 1305.22 421.311 1306.94 421.311H1337.83C1339.63 421.311 1341.19 420.062 1341.64 418.287L1357.3 355.57L1374.37 418.373C1374.84 420.111 1376.39 421.311 1378.15 421.311H1408.46C1410.14 421.311 1411.65 420.197 1412.18 418.556L1450.44 300.406C1451.27 297.81 1449.38 295.129 1446.72 295.129H1429.99C1428.22 295.129 1426.67 296.354 1426.2 298.104L1407.65 369.024L1389.81 297.615C1389.35 295.815 1387.76 294.566 1385.96 294.591L1354.19 295.031C1352.38 295.056 1350.82 296.354 1350.42 298.153L1334.69 369.024L1315.77 298.055C1315.31 296.329 1313.79 295.117 1312.04 295.093L1271.49 294.615C1268.83 294.578 1266.92 297.211 1267.7 299.806H1267.69Z" fill="#121212" stroke="#121212" stroke-miterlimit="10"/>
</g>
<defs>
<clipPath id="clip0_261_607">
<rect width="1824.62" height="139.758" fill="white" transform="translate(0.619141 290)"/>
</clipPath>
</defs>
</svg>
