<svg width="1825" height="720" viewBox="0 0 1825 720" fill="none" xmlns="http://www.w3.org/2000/svg">
<g clip-path="url(#clip0_963_22346)">
<path d="M10.8726 309.844C11.3672 310.734 11.6145 311.674 11.6145 312.713C11.6145 327.353 11.5156 381.314 11.5156 382.748C11.5156 392.294 11.0705 400.454 10.1802 407.329C9.43828 413.116 8.30071 418.656 6.81692 423.948C6.37178 425.531 7.50935 427.113 11.2188 427.113H37.6303C39.2625 427.113 40.4001 425.531 39.955 423.948C38.2733 418.408 37.1357 412.918 36.4928 407.527C35.7014 401.444 35.3057 393.184 35.3057 382.748V341.647L86.9417 409.011C92.9264 417.073 86.9417 409.011 100.692 427.113H127.993C128.537 382.748 128.537 399.267 128.537 382.748V335.365C128.537 325.078 128.933 316.867 129.724 310.784C130.367 305.838 131.604 300.298 133.434 294.116C133.879 292.583 132.741 291 131.109 291H102.373C100.741 291 99.6034 292.533 100.049 294.116C101.582 299.408 102.67 305.047 103.412 310.982C104.302 317.758 104.747 325.869 104.747 335.415L103.115 380.374L48.7588 312.861C48.7588 312.861 37.5314 300.595 37.9271 292.731C37.9271 291.89 37.1852 291.198 36.3444 291.198L0.23877 291L10.8726 309.844Z" fill="#ECECEC"/>
<path d="M428.56 294.264C429.104 292.682 427.967 291 426.285 291H392.702C390.971 291 389.833 292.632 390.377 294.264C393.938 304.799 395.719 316.719 395.719 330.024V388.04C395.719 401.394 393.938 415.391 390.377 425.926C389.833 427.558 390.971 429.191 392.702 429.191H426.285C428.016 429.191 429.154 427.509 428.61 425.926C425.049 415.391 423.268 401.394 423.268 388.04V330.073C423.268 316.719 425.049 304.799 428.61 294.314L428.56 294.264Z" fill="#ECECEC"/>
<path d="M1106.65 296.391C1107.2 294.759 1106.06 293.127 1104.33 293.127H1070.75C1069.06 293.127 1067.88 294.759 1068.42 296.391C1071.98 306.926 1073.76 318.846 1073.76 332.2V390.216C1073.76 403.571 1071.98 415.49 1068.42 426.025C1067.88 427.657 1069.01 429.29 1070.75 429.29H1104.33C1106.01 429.29 1107.2 427.657 1106.65 426.025C1103.09 415.49 1101.31 403.571 1101.31 390.216V332.2C1101.31 318.846 1103.09 306.926 1106.65 296.391Z" fill="#ECECEC"/>
<path d="M792.634 403.274L751.829 357.622L780.318 325.968L810.39 297.331C812.022 295.798 810.934 293.028 808.659 293.028H769.882C768.596 293.028 767.607 294.017 767.459 295.254C767.112 298.073 766.42 300.595 765.381 302.771C764.095 305.492 761.919 308.657 758.902 312.317L722.005 353.369V332.101C722.005 318.747 723.835 306.827 727.495 296.342C728.039 294.709 726.902 293.077 725.22 293.077H690.747C689.015 293.077 687.878 294.759 688.471 296.342C692.131 306.877 693.961 318.796 693.961 332.101V390.117C693.961 403.471 692.131 415.391 688.471 425.877C687.927 427.509 689.065 429.141 690.747 429.141H725.22C726.951 429.141 728.089 427.459 727.495 425.877C723.835 415.342 722.005 403.422 722.005 390.117V372.609C728.929 373.697 772.256 429.191 772.256 429.191H813.407C814.693 429.191 815.385 427.608 814.495 426.668L792.634 403.274Z" fill="#ECECEC"/>
<path d="M1471.02 293.127H1368.99C1366.61 293.127 1364.39 294.512 1363.4 296.688L1355.53 314.741C1354.5 317.164 1356.87 319.637 1359.29 318.698C1371.71 313.752 1385.46 311.279 1400.49 311.279V390.216C1400.49 403.62 1398.76 415.54 1395.25 425.976C1394.71 427.608 1395.89 429.29 1397.62 429.29H1430.32C1432.05 429.29 1433.24 427.608 1432.69 425.976C1429.18 415.441 1427.45 403.571 1427.45 390.216V311.229C1440.41 311.328 1451.59 313.356 1460.98 317.412C1463.8 318.599 1466.97 317.065 1467.91 314.147L1473.4 296.342C1473.89 294.759 1472.7 293.127 1471.02 293.127Z" fill="#ECECEC"/>
<path d="M1824.61 423.552C1819.22 412.177 1813.88 397.685 1813.88 397.685L1788.8 329.035C1779.26 304.602 1778.76 299.26 1777.08 292.83C1776.78 291.742 1775.79 290.951 1774.66 290.951H1747.06C1745.62 290.951 1744.49 292.187 1744.59 293.671C1745.23 303.81 1742.66 311.773 1736.47 325.127L1706.06 395.162C1706.06 395.162 1700.37 412.82 1691.42 423.058C1690.03 424.64 1691.22 427.064 1693.3 427.064H1724.31C1725.69 427.064 1726.73 425.926 1726.78 424.591L1726.93 419.744C1727.08 415.738 1727.72 411.83 1728.96 408.022C1731.78 399.268 1736.62 385.023 1736.62 385.023H1778.17C1778.17 385.023 1788.16 411.583 1788.41 417.617C1788.6 421.426 1787.81 422.81 1787.71 424.245C1787.57 425.778 1788.8 427.113 1790.39 427.113H1822.39C1824.22 427.113 1825.4 425.234 1824.66 423.602L1824.61 423.552ZM1747.01 363.162L1759.42 335.168L1770.85 363.162H1747.01Z" fill="#ECECEC"/>
</g>
<defs>
<clipPath id="clip0_963_22346">
<rect width="1824.62" height="138.191" fill="white" transform="translate(0.23877 291)"/>
</clipPath>
</defs>
</svg>
