<svg width="1825" height="720" viewBox="0 0 1825 720" fill="none" xmlns="http://www.w3.org/2000/svg">
<g clip-path="url(#clip0_925_5313)">
<path d="M357.327 79.7129H296V308.251H357.327V79.7129Z" fill="#ECECEC"/>
<path d="M608.364 172.209C613.172 185.253 618.31 198.561 623.119 211.934L659.085 308.185H762.899V79.7129H702.297V171.155C702.297 198.231 702.626 202.645 704.01 232.818L704.668 253.373H702.297C697.818 240.724 693.404 227.68 688.925 214.635C683.787 201.591 678.978 188.942 674.17 175.898L637.874 79.7129H534.785V308.251H594.728V216.809C594.728 189.733 594.399 184.594 593.016 153.433L591.962 132.219H594.728L608.43 172.275L608.364 172.209Z" fill="#ECECEC"/>
<path d="M816.979 300.675C832.064 307.526 849.849 309.898 886.144 309.898C924.877 309.898 939.566 307.526 954.651 299.291C970.065 290.727 980.011 275.311 982.383 256.469C982.712 253.373 984.425 227.35 984.425 223.925V79.7129H923.098V225.637C923.098 252.714 917.631 257.523 888.186 257.523C853.274 257.523 847.082 253.439 847.082 228.734V79.7129H785.756V228.734C785.756 241.053 785.756 243.491 786.415 250.342C788.127 277.09 796.691 291.122 816.913 300.675H816.979Z" fill="#ECECEC"/>
<path d="M1041.67 297.579C1056.42 306.802 1074.21 309.898 1109.85 309.898C1165.7 309.898 1191.72 301.334 1206.81 277.353C1217.74 260.224 1220.18 244.479 1220.18 195.135C1220.18 163.249 1219.52 146.515 1217.08 135.843C1212.28 111.533 1199.63 95.3923 1177.69 85.8397C1164.32 80.0422 1148.58 77.9341 1117.42 77.9341C1088.3 77.9341 1069.8 79.9764 1057.48 84.1268C1034.55 92.3618 1018.74 107.778 1013.61 126.949C1009.13 142.365 1007.41 164.632 1007.41 206.071C1007.41 228.668 1008.07 240.329 1009.79 249.947C1014.27 272.215 1023.82 286.577 1041.67 297.579ZM1075.26 144.144C1080.73 133.208 1088.96 130.441 1115.71 130.441C1140.34 130.441 1148.58 133.537 1153.39 144.473C1156.81 152.708 1157.47 159.889 1157.47 191.38C1157.47 222.87 1156.42 231.83 1152.99 240.724C1147.85 253.768 1139.95 257.194 1114.98 257.194C1073.22 257.194 1070.45 253.439 1070.45 196.914C1070.45 162.985 1071.51 151.72 1075.26 144.144Z" fill="#ECECEC"/>
<path d="M1388.02 308.251L1454.82 79.7129H1391.45L1365.76 167.795C1357.19 197.968 1348.96 227.416 1341.45 255.811H1339.74C1335.98 241.053 1332.23 226.362 1328.08 211.605C1323.99 197.243 1319.84 182.486 1315.76 167.729L1290.4 79.647H1228.41L1293.17 308.185H1388.02V308.251Z" fill="#ECECEC"/>
<path d="M1529.12 79.7129H1467.79V308.251H1529.12V79.7129Z" fill="#ECECEC"/>
<path d="M467.266 477.497C459.032 503.191 458.044 507.275 450.469 535.735L445.331 555.236H442.96C440.193 546.342 437.822 537.053 435.45 527.83C429.983 509.317 426.887 499.04 419.707 477.102L398.496 411.683H302.851V640.221H363.123V571.706C363.123 552.535 362.464 539.82 359.698 491.859L357.985 465.112H360.027C366.878 486.325 372.345 503.849 376.495 517.157L393.951 568.873L418.258 640.155H470.692L494.34 569.268L511.466 517.223L519.7 491.2L527.605 465.178H529.647L528.264 491.925C525.497 539.886 525.168 549.504 525.168 571.772V640.287H585.44V411.749H487.818L467.266 477.497Z" fill="#ECECEC"/>
<path d="M778.642 417.942C765.27 412.144 749.527 410.036 718.37 410.036C689.254 410.036 670.744 412.078 658.426 416.229C635.503 424.464 619.694 439.88 614.556 459.051C610.076 474.467 608.364 496.734 608.364 538.173C608.364 560.77 609.022 572.431 610.735 582.049C615.214 604.317 624.766 618.678 642.617 629.68C657.372 638.904 675.158 642 710.794 642C766.654 642 792.673 633.436 807.757 609.455C818.692 592.326 821.129 576.581 821.129 527.237C821.129 495.351 820.471 478.617 818.033 467.945C813.225 443.635 800.577 427.494 778.642 417.942ZM754.006 572.76C748.868 585.804 740.964 589.23 715.998 589.23C674.235 589.23 671.469 585.475 671.469 528.95C671.469 495.021 672.523 483.756 676.278 476.18C681.745 465.244 689.979 462.477 716.723 462.477C741.359 462.477 749.593 465.573 754.401 476.509C757.827 484.744 758.485 491.925 758.485 523.416C758.485 554.906 757.431 563.866 754.006 572.76Z" fill="#ECECEC"/>
<path d="M998.917 508.395C984.557 503.915 983.832 503.915 928.368 499.831C908.87 498.447 906.763 498.118 903.008 494.692C899.583 491.925 897.87 486.457 897.87 478.947C897.87 460.764 905.05 456.679 934.89 456.679C960.909 456.679 967.101 460.764 967.101 478.947V483.031H1025.33L1025.66 472.754C1025.66 453.583 1021.91 439.88 1013.34 429.602C1001.68 414.845 982.186 410.102 934.231 410.102C889.702 410.102 870.533 413.528 855.449 424.134C842.406 433.358 836.609 450.486 836.609 478.288C836.609 519.068 846.885 535.867 875.342 543.048C887.001 545.815 905.84 547.857 943.19 549.899C967.167 551.283 971.976 555.038 971.976 571.113C971.976 580.336 969.934 585.475 965.454 589.296C960.316 593.776 957.22 594.105 937.393 594.105C909.332 594.105 906.565 593.776 901.427 589.625C896.618 586.199 894.576 580.402 894.576 570.784V566.304H836.346C836.346 594.039 838.388 606.359 845.568 617.69C857.227 636.202 879.162 642 937.393 642C982.581 642 1001.09 637.915 1016.18 624.871C1027.83 614.594 1032.25 598.848 1032.25 568.017C1032.25 531.387 1024.01 516.301 999.049 508.395H998.917Z" fill="#ECECEC"/>
<path d="M1039.63 464.189H1097.53V640.287H1158.85V464.189H1220.51V411.749H1039.63V464.189Z" fill="#ECECEC"/>
<path d="M1416.41 540.545C1427.74 531.651 1431.83 516.235 1431.83 482.965C1431.83 452.133 1426.36 436.059 1411.6 425.057C1398.23 414.779 1383.54 411.683 1350.61 411.683H1235.2V640.221H1296.53V579.611H1342.11C1360.29 578.953 1368.46 588.505 1367.8 609.785V640.287H1430.11V598.519C1430.77 570.454 1417.07 555.368 1389.01 553.984V551.612C1405.08 547.528 1410.62 545.42 1416.41 540.676V540.545ZM1345.2 527.896H1296.59V464.189H1342.17C1364.77 464.189 1369.25 468.999 1369.25 491.596C1369.25 522.428 1365.49 527.896 1345.27 527.896H1345.2Z" fill="#ECECEC"/>
<path d="M1516.14 411.749H1454.81V640.287H1516.14V411.749Z" fill="#ECECEC"/>
</g>
<defs>
<clipPath id="clip0_925_5313">
<rect width="1233.12" height="564" fill="white" transform="translate(296 78)"/>
</clipPath>
</defs>
</svg>
