<svg width="1825" height="720" viewBox="0 0 1825 720" fill="none" xmlns="http://www.w3.org/2000/svg">
<g clip-path="url(#clip0_956_22122)">
<path d="M111.559 78C89.1839 78 56.0176 83.3955 31.1033 110.373C4.60202 138.778 0 179.244 0 206.698C0 272.872 26.66 331.27 108.861 331.27C191.063 331.27 220.421 266.841 220.421 202.572C220.579 120.846 178.368 78 111.559 78ZM163.451 280.806C149.486 297.469 129.65 302.864 109.972 302.864C90.2947 302.864 70.1411 297.786 56.4937 280.806C39.8312 260.018 35.0705 230.977 35.0705 204.635C35.0705 155.123 50.7809 106.088 111.877 106.088C166.942 106.088 185.033 147.506 185.033 202.254C185.033 218.6 182.97 256.685 163.292 280.806H163.451Z" fill="#ECECEC"/>
<path d="M371.177 84.3476H338.169V325.557H483.529V295.882H371.177V84.3476Z" fill="#ECECEC"/>
<path d="M848.834 257.796C848.834 222.408 848.834 192.574 829.157 168.93C814.398 150.521 782.343 128.781 730.293 128.781C697.285 128.781 664.119 137.191 639.046 158.456C607.625 185.116 607.625 223.202 607.625 255.733V325.557H848.834V257.796ZM821.539 292.232H635.396V252.083C635.396 222.725 639.363 203.365 656.502 187.972C681.575 165.28 722.675 164.645 731.721 164.645C745.685 164.645 785.199 165.597 808.209 196.383C820.27 212.411 821.539 236.532 821.539 259.542V292.232Z" fill="#ECECEC"/>
<path d="M1095.6 199.715C1107.34 195.431 1136.38 184.957 1136.38 145.285C1136.38 126.242 1129.72 112.277 1119.4 102.121C1104.33 87.3627 1087.98 84.3476 1058.62 84.3476H972.454V325.557H1060.37C1079.41 325.557 1098.14 325.557 1114.8 314.448C1122.89 309.053 1143.84 292.39 1143.84 259.7C1143.84 213.521 1109.72 203.524 1095.76 199.557L1095.6 199.715ZM1004.83 111.801H1052.91C1071.32 111.801 1101.63 111.801 1101.63 148.141C1101.63 184.481 1062.91 186.227 1051.48 186.227H1004.67V111.801H1004.83ZM1061.95 298.579H1004.83V215.108H1063.38C1092.74 215.108 1109.56 232.882 1109.56 256.844C1109.56 284.615 1088.46 298.579 1062.11 298.579H1061.95Z" fill="#ECECEC"/>
<path d="M1361.56 78C1339.19 78 1306.02 83.3955 1281.11 110.373C1254.76 138.778 1250 179.244 1250 206.539C1250 272.713 1276.66 331.111 1358.86 331.111C1441.07 331.111 1470.42 266.683 1470.42 202.413C1470.42 120.529 1428.37 77.8413 1361.56 77.8413V78ZM1413.45 280.806C1399.49 297.469 1379.65 302.864 1359.98 302.864C1340.3 302.864 1320.14 297.786 1306.5 280.806C1289.83 260.018 1285.07 230.977 1285.07 204.635C1285.07 155.123 1300.78 106.088 1361.88 106.088C1416.95 106.088 1435.04 147.506 1435.04 202.254C1435.04 218.6 1432.97 256.685 1413.3 280.806H1413.45Z" fill="#ECECEC"/>
<path d="M1731.31 192.733L1583.41 98.471V135.922L1701.63 208.126L1583.41 279.219V320.637L1729.72 226.375H1824.62V192.733H1731.31Z" fill="#ECECEC"/>
<path d="M810.748 583.27H908.66V571.844H825.03V528.204H907.39V516.62H810.907V559.466H754.413V550.421C780.914 549.151 796.466 540.265 796.466 525.665C796.466 509.796 778.217 500.909 747.589 500.909C716.962 500.909 699.03 509.955 699.03 525.665C699.03 540.423 714.423 548.834 739.972 550.421V559.466H683.796V571.05H810.748V583.27ZM713.471 525.506C713.471 517.413 726.642 512.176 747.431 512.176C768.219 512.176 781.866 517.572 781.866 525.506C781.866 533.441 768.536 538.995 747.431 538.995C726.325 538.995 713.471 533.758 713.471 525.506Z" fill="#ECECEC"/>
<path d="M990.385 584.063H1031.64V509.479H1017.52V535.186H949.602V509.479H935.32V584.063H976.103V611.834H921.673V607.867H795.197V581.683H697.919V593.108H780.914V603.899H698.713V637.7H800.433V625.957H712.836V614.532H794.403V619.292H919.927V623.26H1047.2V611.675H990.385V583.904V584.063ZM949.602 572.32V546.771H1017.52V572.32H949.602Z" fill="#ECECEC"/>
<path d="M1070.37 512.494C1045.29 512.494 1034.03 534.234 1034.03 562.164C1034.03 590.093 1045.29 612.151 1070.37 612.151C1095.44 612.151 1106.55 590.252 1106.55 562.323C1106.55 534.393 1095.44 512.494 1070.37 512.494ZM1070.37 599.773C1056.08 599.773 1048.62 584.063 1048.62 562.323C1048.62 540.582 1056.08 524.713 1070.37 524.713C1084.65 524.713 1092.26 540.582 1092.26 562.323C1092.26 584.063 1084.81 599.773 1070.37 599.773Z" fill="#ECECEC"/>
<path d="M1149.08 501.862H1134.79V642.778H1149.08V501.862Z" fill="#ECECEC"/>
</g>
<defs>
<clipPath id="clip0_956_22122">
<rect width="1824.62" height="564.778" fill="white" transform="translate(0 78)"/>
</clipPath>
</defs>
</svg>
