<svg width="1825" height="720" viewBox="0 0 1825 720" fill="none" xmlns="http://www.w3.org/2000/svg">
<g clip-path="url(#clip0_1128_2690)">
<path d="M253.125 142.702C253.125 133.929 253.857 125.157 246 119.679V78H331.803C349.753 78 373.848 77.7254 388.608 90.3416C412.703 110.907 409.265 148.454 409.265 154.494V173.137C409.265 217.823 395.982 245.513 342.144 245.513H318.781C318.781 257.031 318.049 265.804 325.907 271.282V312.948H246V271.282C253.87 265.804 253.125 257.031 253.125 248.259V142.702ZM318.781 195.886H324.926C344.354 195.886 343.608 183.544 343.608 161.619C343.608 139.695 344.34 127.079 324.926 127.079H318.781V195.886Z" fill="#ECECEC"/>
<path d="M512.037 78H588.257V119.666C579.406 125.144 580.138 133.916 580.138 142.689V237.813C579.641 262.758 577.928 282.499 559.978 300.044C544.486 315.118 523.097 317.589 504.167 317.589C485.236 317.589 463.847 315.118 448.355 300.044C430.405 282.499 428.692 262.758 428.195 237.813V142.702C428.195 133.929 428.927 125.157 421.07 119.679V78H500.977V119.666C493.106 125.144 493.851 133.916 493.851 142.689V249.88C493.851 254.534 494.832 266.601 506.886 266.601C518.94 266.601 519.92 254.534 519.92 249.88V142.702C519.672 133.929 520.417 125.157 512.05 119.679V78H512.037Z" fill="#ECECEC"/>
<path d="M598.572 312.935V271.269C606.442 265.791 605.697 257.018 605.697 248.246V142.702C605.697 133.929 606.429 125.157 598.572 119.679V78H678.478V119.666C670.608 125.144 671.353 133.916 671.353 142.689V263.032H677.746C694.468 263.032 694.219 251.789 694.219 236.989V198.88H752.005V312.922H598.585L598.572 312.935Z" fill="#ECECEC"/>
<path d="M776.518 142.702C776.518 133.929 777.25 125.157 769.393 119.679V78H855.196C873.146 78 897.241 77.7254 911.988 90.3416C936.083 110.907 932.644 148.454 932.644 154.494V173.137C932.644 217.823 919.362 245.513 865.524 245.513H842.161C842.161 257.031 841.429 265.804 849.286 271.282V312.948H769.38V271.282C777.25 265.804 776.505 257.031 776.505 248.259V142.702H776.518ZM842.161 195.886H848.306C867.733 195.886 866.988 183.544 866.988 161.619C866.988 139.695 867.72 127.079 848.306 127.079H842.161V195.886Z" fill="#ECECEC"/>
<path d="M368.422 439.031C368.422 425.343 369.337 415.08 365.964 408.582C362.892 402.084 356.146 398.999 340.51 400.372V456.131H392.648V513.263H340.51V550.55C340.51 561.492 339.595 572.448 349.4 579.286V631.28H249.752V579.286C259.571 572.448 258.642 561.492 258.642 550.55V418.845C258.642 403.444 257.727 394.214 248.223 390.109V338.115H439.269V439.031H368.435H368.422Z" fill="#ECECEC"/>
<path d="M459.794 419.394C459.794 408.451 460.71 397.495 450.904 390.658V338.664H550.565V390.658C540.747 397.495 541.675 408.451 541.675 419.394V551.098C541.675 562.041 540.76 572.997 550.565 579.834V631.829H450.904V579.834C460.723 572.997 459.794 562.041 459.794 551.098V419.394Z" fill="#ECECEC"/>
<path d="M684.871 430.298C684.871 418.322 687.016 397.796 669.85 397.796C652.684 397.796 654.828 418.322 654.828 430.298V543.529C654.828 555.505 652.684 576.03 669.85 576.03C687.016 576.03 684.871 555.505 684.871 543.529V510.348H763.994V608.192C742.84 627.698 708.796 638.3 675.681 639.32C642.866 640.34 610.979 632.13 594.728 615.029C572.032 591.418 572.961 560.629 572.961 528.481V426.532C572.961 400.189 576.033 374.538 595.343 356.745C613.123 340.324 642.264 333.134 673.236 334.506C704.508 335.879 737.637 346.822 764.007 366.328V447.751H684.885V430.298H684.871Z" fill="#ECECEC"/>
<path d="M779.381 339.775H1006V474.944H948.045V425.682C948.045 412.334 945.287 405.157 933.638 404.817V554.994C933.638 565.937 932.723 576.893 942.528 583.73V635.725H842.867V583.73C852.686 576.893 851.757 565.937 851.757 554.994V404.817C840.109 405.157 837.35 412.347 837.35 425.682V474.944H779.394V339.775H779.381Z" fill="#ECECEC"/>
<path d="M1030.16 418.845C1030.16 407.902 1031.08 396.946 1021.27 390.109V338.115H1120.93V390.109C1111.11 396.946 1112.04 407.902 1112.04 418.845V550.55C1112.04 561.492 1111.13 572.448 1120.93 579.286V635.738H1021.27V579.286C1031.09 572.448 1030.16 561.492 1030.16 550.55V418.845Z" fill="#ECECEC"/>
<path d="M1340.48 549.883C1340.48 623.579 1300.62 642 1242.66 642C1184.71 642 1144.84 623.579 1144.84 549.883V424.401C1144.84 350.705 1184.71 332.284 1242.66 332.284C1300.62 332.284 1340.48 350.705 1340.48 424.401V549.883ZM1226.71 554.406C1226.71 556.498 1225.8 577.69 1242.66 577.69C1259.53 577.69 1258.61 556.485 1258.61 554.406V419.538C1258.61 417.446 1259.53 396.593 1242.66 396.593C1225.8 396.593 1226.71 417.446 1226.71 419.538V554.406Z" fill="#ECECEC"/>
<path d="M1502.08 471.611H1502.7V419.956C1502.7 409.014 1503.61 398.058 1493.81 391.22V339.226H1577.83V391.22C1568.01 398.058 1568.94 409.014 1568.94 419.956V634.627H1488.41L1440.21 500.7H1440.15V551.674C1440.15 562.617 1439.24 573.572 1449.04 580.41V634.64H1367.48V580.41C1377.29 573.572 1376.37 562.617 1376.37 551.674V419.969C1376.37 409.027 1377.28 398.071 1367.48 391.233V339.239H1456.4L1502.1 471.637L1502.08 471.611Z" fill="#ECECEC"/>
</g>
<defs>
<clipPath id="clip0_1128_2690">
<rect width="1331.83" height="564" fill="white" transform="translate(246 78)"/>
</clipPath>
</defs>
</svg>
