<svg width="1825" height="720" viewBox="0 0 1825 720" fill="none" xmlns="http://www.w3.org/2000/svg">
<g clip-path="url(#clip0_1161_2525)">
<path d="M1549.84 569.387C1526.39 594.549 1508.04 607.131 1494.73 607.131C1493.01 607.131 1491.45 606.195 1490.1 604.375C1488.75 602.556 1488.07 600.736 1488.07 599.02C1488.07 590.858 1498.78 568.815 1520.25 532.786C1531.85 513.55 1553.32 480.017 1584.62 432.135C1611.75 390.959 1627.51 366.628 1631.98 359.246L1590.18 361.117L1506.94 498.369C1501.54 483.552 1490.78 476.17 1474.76 476.17C1450.33 476.17 1427.19 486.724 1405.41 507.779C1388.62 524 1378.32 541.208 1374.48 559.249C1363.77 569.751 1353.06 578.589 1342.35 585.659C1326.33 596.265 1311.26 601.568 1297.22 601.568C1287.08 601.568 1279.23 598.501 1273.56 592.314C1267.9 586.179 1265.04 578.017 1265.04 567.879L1266.91 555.297C1291.81 550.358 1312.3 544.692 1328.31 538.297C1356.18 527.171 1370.11 514.226 1370.11 499.461C1370.11 491.091 1366.78 485.112 1360.13 481.525C1353.47 477.937 1345.67 476.17 1336.84 476.17C1313.65 476.17 1289.99 486.204 1265.82 506.324C1244.24 524.26 1232.34 543.34 1230.05 563.564C1204.16 591.326 1185.23 605.259 1173.33 605.259C1172.08 604.999 1170.89 604.271 1169.64 603.024C1167.66 600.788 1166.67 598.605 1166.67 596.369C1166.67 587.739 1175.1 572.558 1192.05 550.878C1208.94 529.199 1217.42 512.406 1217.42 500.553C1217.42 493.638 1214.76 487.919 1209.46 483.344C1204.16 478.769 1198.02 476.482 1191.16 476.482C1177.12 476.482 1161.42 484.384 1144.16 500.137C1134.75 508.871 1123.37 521.816 1110.11 538.869C1113.39 533.982 1116.04 529.927 1117.91 526.807C1124.1 515.942 1127.16 506.428 1127.16 498.317C1127.16 491.663 1124.72 486.36 1119.78 482.408C1114.84 478.457 1109.07 476.482 1102.42 476.482C1086.61 476.482 1070.6 483.864 1054.33 498.681C1049.13 503.36 1037.06 517.085 1018.09 539.753L1062.49 479.081L1018.82 481.317C1007.48 501.073 999.061 515.474 993.654 524.624C993.03 525.664 991.158 528.731 988.091 533.67C985.959 534.242 983.88 534.606 981.8 534.606C972.182 534.606 967.347 529.667 967.347 519.789C967.347 513.602 968.595 507.675 971.039 502.008C971.766 500.293 976.809 491.767 986.219 476.43C965.996 476.43 946.5 483.084 927.783 496.446C914.942 505.596 899.917 520.517 882.657 541.312L925.964 480.641L883.385 482.097L852.607 533.93C849.643 534.866 846.68 535.334 843.769 535.334C833.891 535.334 825.26 525.508 817.878 505.908C810.495 486.308 796.406 476.482 775.715 476.482C764.485 476.482 753.671 478.405 743.169 482.045H658.791C671.84 458.545 680.054 444.04 683.486 438.633C696.535 417.11 708.44 400.265 719.254 388.152C733.499 372.295 746.029 364.393 756.895 364.393C762.041 364.393 765.837 366.524 768.332 370.839C770.776 375.155 772.023 379.938 772.023 385.188C772.023 389.711 771.244 394.754 769.736 400.317C768.228 405.88 766.357 410.923 764.277 415.446H771.659C780.55 415.446 788.036 413.159 794.223 408.584C800.41 404.009 803.477 397.406 803.477 388.776C803.477 378.898 799.37 371.463 791.104 366.368C782.837 361.325 773.635 358.778 763.549 358.778C743.793 358.778 724.193 365.796 704.697 379.886C688.685 391.479 672.88 407.648 657.335 428.34C646.729 442.377 635.24 460.261 622.918 481.993H587.773L583.718 489.739H617.771C607.217 508.403 596.819 526.963 586.422 545.523C585.122 546.979 583.822 548.435 582.626 549.683C568.797 564.5 555.02 576.457 541.191 585.555C525.178 596.161 510.101 601.464 496.064 601.464C485.926 601.464 478.076 598.397 472.409 592.21C466.742 586.075 463.883 577.913 463.883 567.775L465.754 555.193C490.657 550.255 511.141 544.588 527.154 538.193C555.02 527.067 568.953 514.122 568.953 499.357C568.953 490.987 565.626 485.008 558.971 481.421C552.317 477.833 544.518 476.066 535.68 476.066C512.493 476.066 488.838 486.1 464.663 506.22C442.203 524.884 430.298 544.848 428.738 565.955C403.315 593.562 382.571 607.391 366.611 607.391L359.228 596.993C359.228 588.831 361.568 578.589 366.247 566.215C375.865 540.74 380.7 523.896 380.7 515.734C380.7 507.571 378.412 500.293 373.837 493.846C369.262 487.399 363.179 482.2 355.537 478.249C377.736 478.249 397.44 472.686 414.753 461.613C434.457 448.771 444.335 431.875 444.335 410.923C444.335 401.045 441.371 391.791 435.445 383.161C429.518 374.531 421.979 367.356 412.881 361.689C423.487 356.49 435.705 352.955 449.534 350.979V346.924C441.891 346.924 433.989 347.912 425.879 349.888C420.68 351.135 413.193 353.475 403.315 356.906C389.278 351.707 374.825 348.276 360.008 346.56C345.191 344.845 328.191 343.961 308.955 343.961C269.235 343.961 229.775 355.555 190.575 378.742C145.656 405.36 123.249 437.178 123.249 474.194C123.249 490.467 128.968 503.568 140.457 513.394C151.947 523.272 165.932 528.211 182.465 528.211C206.12 528.211 226.24 518.957 242.772 500.449C259.305 481.941 267.571 460.885 267.571 437.178L266.479 416.07L260.916 416.434C260.916 443.053 256.237 465.772 246.827 484.488C234.714 508.403 216.726 520.361 192.81 520.361C179.969 520.361 169.935 516.461 162.657 508.715C155.378 500.969 151.739 490.675 151.739 477.833C151.739 440.349 170.351 408.896 207.627 383.473C240.693 360.805 276.825 349.42 316.025 349.42C330.062 349.42 342.904 350.356 354.497 352.175C366.091 354.047 377.165 357.53 387.822 362.729C357.721 375.102 328.399 403.021 299.752 446.484C277.293 482.304 254.99 518.125 232.79 553.946C206.9 589.506 179.761 607.287 151.375 607.287C140.041 607.287 130.943 604.479 124.185 598.865C117.374 593.25 113.995 584.827 113.995 573.598C118.674 573.598 122.209 571.986 124.548 568.763C126.888 565.539 128.084 561.588 128.084 556.909C128.084 551.71 126.16 547.655 122.365 544.692C118.518 541.728 114.047 540.273 108.848 540.273C102.661 540.273 97.774 542.976 94.0308 548.435C90.3395 553.842 88.4679 559.769 88.4679 566.215C88.4679 581.24 95.4865 593.094 109.576 601.724C121.637 609.106 135.57 612.85 151.375 612.85C194.526 612.85 230.555 597.201 259.409 565.851C271.99 552.022 293.462 518.385 323.772 464.836C349.194 419.969 373.837 388.724 397.752 371.255C406.85 379.626 411.426 390.855 411.426 404.944C411.426 427.664 403.107 445.132 386.419 457.506C371.498 468.579 352.574 474.142 329.646 474.142V478.197C338.536 479.185 344.567 480.641 347.791 482.616C352.73 485.84 355.173 491.247 355.173 498.889C355.173 506.531 350.442 520.205 340.928 539.961C331.414 559.717 326.683 575.261 326.683 586.595C326.683 595.225 329.438 602.088 335.001 607.131C340.564 612.174 347.635 614.721 356.265 614.721C371.082 614.721 386.731 608.794 403.263 596.941C411.477 591.066 419.9 583.684 428.582 574.793C429.362 586.439 433.365 595.797 440.644 602.868C448.806 610.77 459.62 614.721 473.189 614.721C493.153 614.721 512.545 609.522 531.261 599.176C545.402 591.274 560.375 579.525 576.076 563.98C573.84 567.931 571.605 571.934 569.369 575.885C545.714 617.061 523.982 648.41 504.226 669.882C477.088 699.464 450.729 714.281 425.047 714.281C411.737 714.281 401.184 710.849 393.437 704.039C385.691 697.228 381.792 687.246 381.792 674.093C381.792 662.915 385.431 653.557 392.709 646.019C399.988 638.48 409.034 634.685 419.9 634.685V630.526L406.227 629.122C391.41 629.122 378.828 632.554 368.482 639.468C356.421 647.63 350.338 658.6 350.338 672.377C350.338 688.91 358.24 701.387 373.993 709.758C386.315 716.412 401.496 719.74 419.484 719.74C457.956 719.74 493.101 706.69 524.918 680.54C549.353 660.576 573.736 630.474 598.171 590.234C616.679 556.701 635.292 523.168 654.06 489.583H725.961C718.578 493.69 711.352 498.681 704.333 504.764C681.406 524.728 669.916 547.187 669.916 572.09C669.916 585.191 673.92 595.589 681.926 603.336C689.932 611.134 700.59 614.981 713.951 614.981C738.386 614.981 760.378 606.559 779.978 589.61C799.578 572.714 812.575 552.074 819.022 527.639C825.936 536.269 834.307 540.585 844.185 540.585C845.692 540.585 847.252 540.429 848.76 540.221L807.948 609.054L846.056 607.963C861.861 581.344 875.17 560.964 886.036 546.927C902.049 526.443 919.465 509.807 938.233 496.965C934.75 502.372 933.034 508.039 933.034 513.966C933.034 523.116 935.946 530.447 941.717 535.957C947.487 541.52 955.078 544.276 964.488 544.276C970.986 544.276 977.277 543.132 983.412 541.052C979.305 547.707 974.002 556.233 967.451 566.839C955.13 586.803 946.344 600.892 941.197 609.002L978.941 607.495C1004.57 566.527 1026.15 536.321 1043.67 516.825C1062.18 496.082 1076.84 485.736 1087.7 485.736C1090.41 485.736 1092.69 486.776 1094.57 488.907C1096.44 490.987 1097.32 493.534 1097.32 496.498C1097.32 504.868 1088.07 523.636 1069.56 552.75C1056.98 571.518 1044.4 590.234 1031.81 609.002L1071.43 607.495C1078.81 594.393 1088.07 579.784 1099.19 563.72C1114.01 541.936 1127.68 524.364 1140.26 511.003C1156.07 494.158 1168.75 485.788 1178.37 485.788C1184.51 485.788 1187.63 489.011 1187.63 495.458C1187.63 501.125 1179.2 514.798 1162.26 536.477C1145.36 558.105 1136.94 574.897 1136.94 586.751C1136.94 594.445 1139.54 600.632 1144.68 605.311C1149.88 609.99 1156.38 612.382 1164.28 612.382C1180.56 612.382 1201.04 599.904 1225.68 575.001C1226.98 573.702 1228.33 572.298 1229.74 570.79C1229.74 584.256 1233.84 594.913 1241.95 602.712C1250.12 610.614 1260.93 614.565 1274.5 614.565C1294.46 614.565 1313.86 609.366 1332.57 599.02C1345.52 591.794 1359.09 581.396 1373.33 567.775C1373.07 570.27 1372.92 572.818 1372.92 575.365C1372.92 586.231 1375.52 595.121 1380.82 601.984C1386.07 608.898 1393.97 612.33 1404.47 612.33C1414.98 612.33 1424.23 609.834 1433.64 604.947C1443.05 600.008 1451.42 593.614 1458.75 585.711V591.638C1458.75 598.813 1461.19 604.427 1466.13 608.483C1471.07 612.538 1477.36 614.565 1485 614.565C1498.31 614.565 1513.24 608.275 1529.77 595.693C1542.61 586.075 1556.28 572.61 1570.84 555.349C1579 545.731 1589.19 532.526 1601.56 515.734L1596.37 513.134C1575.62 539.545 1560.23 558.157 1550.1 569.023L1549.84 569.387ZM529.025 481.733C534.952 481.733 537.916 484.592 537.916 490.311C537.916 503.464 529.025 516.461 511.297 529.355C496.48 540.013 481.559 546.979 466.534 550.203C470.953 536.581 479.116 522.44 490.969 507.779C505.058 490.415 517.744 481.733 529.077 481.733H529.025ZM765.837 565.799C749.044 594.341 732.563 608.587 716.239 608.587C710.572 608.587 706.621 607.079 704.385 603.959C702.15 600.892 701.058 596.525 701.058 590.858C701.058 572.922 708.7 550.878 723.985 524.832C740.778 496.29 757.258 482.045 773.583 482.045C779.25 482.045 783.201 483.604 785.437 486.672C787.672 489.739 788.764 494.262 788.764 500.137C788.764 517.865 781.122 539.753 765.837 565.799ZM1330.44 481.733C1336.37 481.733 1339.33 484.592 1339.33 490.311C1339.33 503.464 1330.44 516.461 1312.71 529.355C1297.9 540.013 1282.97 546.979 1267.95 550.203C1272.37 536.581 1280.53 522.44 1292.38 507.779C1306.47 490.415 1319.16 481.733 1330.49 481.733H1330.44ZM1471.75 561.276C1455.73 586.699 1440.29 599.384 1425.48 599.384C1419.55 599.384 1415.24 597.357 1412.53 593.302C1409.83 589.247 1408.48 584.256 1408.48 578.329C1408.48 561.536 1415.49 541.936 1429.58 519.477C1444.87 494.834 1460.31 482.46 1475.85 482.46C1487.92 482.46 1494 488.855 1494 501.696C1494 517.709 1486.62 537.569 1471.8 561.276H1471.75Z" fill="#ECECEC"/>
<path d="M564.43 250.64C578.207 257.919 594.428 261.558 612.988 261.558C639.087 261.558 662.638 255.787 683.746 244.245C702.046 234.211 719.358 219.394 735.683 199.846C746.965 186.277 760.638 166.209 776.702 139.643C788.504 139.643 801.034 138.655 814.343 136.627C800.774 157.475 790.48 179.415 783.461 202.498H787.62C795.419 184.926 807.324 168.029 823.389 151.704C835.45 139.643 851.359 126.386 871.167 111.829C869.399 111.829 863.369 112.14 853.127 112.764C842.833 113.388 834.671 113.7 828.64 113.7C825.624 120.459 820.478 125.554 813.199 128.933C805.921 132.312 794.639 134.028 779.354 134.028C796.146 101.639 808.936 79.8551 817.722 68.5734C837.01 43.7225 857.234 31.2971 878.29 31.2971C883.54 31.817 889.727 32.3889 896.746 33.0127C903.764 33.6366 910.679 33.9486 917.438 33.9486C927.212 33.9486 935.166 32.8048 941.353 30.5693C947.487 28.3337 950.555 24.5385 950.555 19.2876C950.555 19.0276 949.983 17.6759 948.839 15.1284C947.695 12.6329 946.759 10.5014 946.032 8.73374C940.781 5.97831 923.52 3.84675 894.302 2.33906C865.084 0.831366 841.429 0.103516 823.389 0.103516C793.547 0.103516 763.185 2.49502 732.304 7.27804C689.88 13.7767 656.399 23.9666 631.808 37.7438C600.459 55.3162 584.758 78.1395 584.758 106.214C584.758 122.018 591.413 134.964 604.722 144.998C616.783 154.044 631.08 158.567 647.613 158.567C672.724 158.567 694.455 149.833 712.912 132.416C731.368 115 740.57 93.9962 740.57 69.4053L740.206 58.4875H734.175C734.175 86.0938 726.845 106.682 712.132 120.199C697.471 133.768 676.311 140.527 648.705 140.527C634.408 140.527 621.722 137.511 610.701 131.481C597.391 124.202 590.737 114.064 590.737 101.015C590.737 80.9469 602.798 64.6223 626.869 52.0928C645.17 42.5788 670.28 35.5602 702.15 31.0372C723.465 28.0218 745.821 26.5141 769.112 26.5141C779.666 26.5141 795.471 26.878 816.526 27.6579C837.582 28.4377 853.387 28.8016 863.941 28.8016C835.606 35.5602 811.015 48.3496 790.168 67.1697C771.608 83.7543 755.023 106.058 740.518 134.132H722.062V139.799H737.866C718.786 172.136 708.648 189.241 707.401 190.956C694.091 211.284 680.938 226.465 667.889 236.499C651.096 249.548 632.9 256.047 613.3 256.047C600.511 256.047 589.957 253.291 581.691 247.781C571.917 241.282 567.03 231.976 567.03 219.914C571.293 219.394 574.62 217.679 577.012 214.663C579.403 211.648 580.599 208.009 580.599 203.746C580.599 198.235 578.779 193.764 575.14 190.384C571.501 187.005 566.926 185.289 561.415 185.289C554.136 185.289 548.417 187.941 544.31 193.192C540.203 198.443 538.124 204.733 538.124 212.012C538.124 228.597 546.91 241.49 564.482 250.796L564.43 250.64Z" fill="#ECECEC"/>
<path d="M926.848 53.4448C922.325 57.448 920.089 62.231 920.089 67.7419C920.089 73.2528 922.013 77.5679 925.912 80.7392C929.811 83.8586 934.49 85.4183 940.001 85.4183C945.512 85.4183 950.295 83.3907 954.298 79.3875C958.301 75.3843 960.329 70.7053 960.329 65.4544C960.329 60.2034 958.457 56.1483 954.662 52.665C950.919 49.1297 946.759 47.4141 942.236 47.4141C936.466 47.4141 931.319 49.4416 926.796 53.4448H926.848Z" fill="#ECECEC"/>
<path d="M917.802 214.507C892.483 240.346 874.027 253.291 862.485 253.291C860.457 253.291 859.054 252.615 858.17 251.212C857.286 249.86 856.87 247.364 856.87 243.881C856.87 235.615 866.124 216.431 884.736 186.277C885.464 185.289 898.046 166.105 922.377 128.673L883.229 130.544C861.133 165.169 849.851 182.846 849.384 183.626C834.099 209.464 826.404 227.556 826.404 237.798C826.404 245.077 828.848 250.9 833.735 255.319C838.622 259.686 844.861 261.921 852.347 261.921C863.369 261.921 877.562 255.423 894.874 242.373C900.905 237.902 907.04 232.755 913.226 227.245L894.874 258.178L933.658 257.034C949.723 229.948 963.24 209.256 974.314 194.959C990.639 174.163 1008.31 157.215 1027.4 144.166C1023.86 149.676 1022.14 155.447 1022.14 161.478C1022.14 170.784 1025.11 178.219 1030.98 183.885C1036.86 189.552 1044.6 192.36 1054.12 192.36C1057.55 192.36 1060.93 191.944 1064.31 191.372C1059.16 192.776 1054.85 195.895 1051.47 200.834C1046.68 207.749 1044.29 215.547 1044.29 224.333C1044.29 238.37 1049.8 248.82 1060.82 255.579C1069.87 261.09 1081.88 263.845 1096.96 263.845C1119.26 263.845 1139.59 259.062 1157.94 249.548C1171.09 242.633 1184.09 232.963 1196.88 220.486C1194.54 227.141 1193.29 232.755 1193.29 237.123C1193.29 245.909 1196.1 252.199 1201.77 255.943C1207.43 259.686 1214.61 261.557 1223.39 261.557C1242.21 261.557 1264.52 249.028 1290.36 223.917C1302.42 212.116 1320.09 191.684 1343.44 162.57L1340.06 159.554C1318.48 186.173 1302.16 205.097 1291.14 216.379C1266.81 241.23 1247.36 253.655 1232.8 253.655C1226.77 253.655 1223.76 250.38 1223.76 243.881C1223.76 235.355 1231.92 217.523 1248.25 190.436C1259.53 172.604 1270.81 154.667 1282.09 136.627H1328.78L1332.94 128.725H1287.03L1317.13 81.3105L1276.06 82.8182L1248.35 128.569L1220.74 128.777L1217.78 136.679H1244.5C1236.96 148.481 1229.43 160.282 1221.94 172.032C1213.88 185.029 1207.64 196.311 1203.01 206.085C1193.76 216.015 1184.87 224.437 1176.4 231.092C1163.09 241.386 1149.41 248.56 1135.38 252.563C1141.67 248.82 1146.4 243.777 1149.67 237.538C1152.95 231.248 1154.56 224.489 1154.56 217.211C1154.56 209.932 1151.44 201.042 1145.15 191.268C1132.36 171.2 1125.97 157.631 1125.97 150.612C1125.97 143.594 1127.79 138.499 1131.43 134.6C1135.06 130.7 1140 128.777 1146.29 128.777C1151.08 128.777 1154.87 130.492 1157.78 133.872C1160.7 137.251 1162.1 141.462 1162.1 146.453C1162.1 150.716 1161.37 155.499 1159.86 160.75C1158.36 166.001 1156.59 170.784 1154.61 175.047C1158.88 176.295 1162.62 176.919 1165.89 176.919C1173.17 176.919 1179.2 174.527 1183.93 169.744C1188.72 164.961 1191.11 159.087 1191.11 152.068C1191.11 142.554 1186.95 135.327 1178.68 130.44C1170.42 125.553 1161.11 123.11 1150.82 123.11C1136.52 123.11 1124.1 126.385 1113.54 132.884C1101.22 140.422 1095.09 150.924 1095.09 164.493C1095.09 166.313 1095.45 168.393 1096.07 170.628C1094.36 172.188 1092.75 173.592 1091.29 174.631C1084.53 179.674 1077.98 182.17 1071.74 182.17C1061.97 182.17 1053.91 177.127 1053.91 167.093C1053.91 160.802 1055.16 154.771 1057.65 149.001C1058.38 147.233 1063.53 138.603 1073.09 123.006C1052.51 123.006 1045.33 121.914 1016.84 143.386C1003.79 152.692 988.507 167.873 970.935 188.98L1014.97 127.269L971.662 128.725L925.392 206.709C922.741 209.516 920.193 212.168 917.802 214.507ZM1084.32 184.197C1089.11 181.546 1093.53 178.427 1097.58 174.943C1099.92 180.61 1103.87 187.421 1109.54 195.323C1119.21 208.892 1124.04 219.654 1124.04 227.66C1124.04 236.707 1120.51 244.037 1113.49 249.652C1106.47 255.319 1098.41 258.126 1089.42 258.126C1081.88 258.126 1075.49 256.099 1070.23 252.095C1064.98 248.092 1062.33 242.581 1062.33 235.563C1062.33 230.78 1063.58 226.153 1066.08 221.63C1068.83 222.41 1071.33 222.773 1073.61 222.773C1078.14 222.773 1081.88 221.422 1084.9 218.614C1087.91 215.859 1089.42 211.856 1089.42 206.553C1089.42 201.25 1087.65 197.559 1084.17 194.699C1080.68 191.84 1076.26 190.384 1071.01 190.384C1069.97 190.384 1068.99 190.436 1068.05 190.54C1073.61 189.188 1079.07 187.109 1084.38 184.145L1084.32 184.197Z" fill="#ECECEC"/>
<path d="M1626.78 446.121C1626.78 446.121 1635.51 426.625 1649.13 411.132L1665.3 394.807C1679.34 380.666 1679.76 369.228 1679.76 369.228C1679.6 364.913 1678.09 361.43 1675.23 358.779C1672.37 356.179 1668.73 354.983 1664.73 355.087C1662.55 355.191 1660.62 355.763 1658.91 356.803C1657.4 357.739 1655.89 358.883 1654.44 360.286C1650.23 364.237 1648.46 372.504 1644.09 385.241C1642.22 390.804 1643.52 386.905 1639.72 400.162C1637.85 406.609 1635.51 412.951 1632.6 418.982C1629.69 425.013 1625.22 433.799 1619.92 442.741L1626.78 446.121Z" fill="#ECECEC"/>
<path d="M1683.4 446.121C1683.4 446.121 1692.13 426.625 1705.75 411.132L1721.92 394.807C1735.96 380.666 1736.37 369.228 1736.37 369.228C1736.22 364.913 1734.71 361.43 1731.85 358.779C1728.99 356.179 1725.35 354.983 1721.35 355.087C1719.16 355.191 1717.24 355.763 1715.53 356.803C1714.02 357.739 1712.51 358.883 1711.05 360.286C1706.84 364.237 1705.08 372.504 1700.71 385.241C1698.84 390.804 1700.14 386.905 1696.34 400.162C1694.47 406.609 1692.13 412.951 1689.22 418.982C1686.31 425.013 1681.84 433.799 1676.53 442.741L1683.4 446.121Z" fill="#ECECEC"/>
<path d="M493.153 92.9565C493.153 92.9565 501.887 73.4605 515.508 57.9677L531.677 41.6431C545.714 27.502 546.13 16.0643 546.13 16.0643C545.974 11.7492 544.466 8.26592 541.607 5.61447C538.747 3.015 535.108 1.81925 531.105 1.92322C528.921 2.0272 526.998 2.59909 525.282 3.63887C523.774 4.57468 522.267 5.71844 520.811 7.12216C516.6 11.0733 514.832 19.3396 510.465 32.077C508.594 37.6399 509.893 33.7407 506.098 46.998C504.226 53.4446 501.887 59.7873 498.976 65.8181C495.96 72.1088 491.593 80.635 486.29 89.5772L493.153 92.9565Z" fill="#ECECEC"/>
<path d="M549.769 92.9565C549.769 92.9565 558.503 73.4605 572.125 57.9677L588.293 41.6431C602.33 27.502 602.746 16.0643 602.746 16.0643C602.59 11.7492 601.083 8.26592 598.223 5.61447C595.364 3.015 591.724 1.81925 587.721 1.92322C585.538 2.0272 583.614 2.59909 581.898 3.63887C580.391 4.57468 578.883 5.71844 577.427 7.12216C573.216 11.0733 571.449 19.3396 567.082 32.077C565.21 37.6399 566.51 33.7407 562.714 46.998C560.843 53.4446 558.503 59.7873 555.592 65.8181C552.68 71.8488 548.209 80.635 542.906 89.5772L549.769 92.9565Z" fill="#ECECEC"/>
</g>
<defs>
<clipPath id="clip0_1161_2525">
<rect width="1648.43" height="720" fill="white" transform="translate(88)"/>
</clipPath>
</defs>
</svg>
