<svg width="1825" height="720" viewBox="0 0 1825 720" fill="none" xmlns="http://www.w3.org/2000/svg">
<g clip-path="url(#clip0_590_1497)">
<path d="M4.74599 262.787H153.249C155.869 262.787 157.995 264.92 157.995 267.547V280.156C157.995 282.783 155.869 284.916 153.249 284.916H96.2976C93.678 284.916 91.5517 287.049 91.5517 289.676V458.21C91.5517 460.838 89.4253 462.97 86.8057 462.97H71.1728C68.5532 462.97 66.4268 460.838 66.4268 458.21V289.676C66.4268 287.049 64.3005 284.916 61.6808 284.916H4.74599C2.12634 284.916 0 282.783 0 280.156V267.547C0 264.92 2.12634 262.787 4.74599 262.787Z" fill="#ECECEC"/>
<path d="M193.157 262.787H208.789C211.409 262.787 213.535 264.92 213.535 267.547V343.147C213.535 345.775 215.662 347.907 218.281 347.907H315.413C318.032 347.907 320.159 345.775 320.159 343.147V267.547C320.159 264.92 322.285 262.787 324.905 262.787H340.537C343.157 262.787 345.283 264.92 345.283 267.547V458.21C345.283 460.838 343.157 462.97 340.537 462.97H324.905C322.285 462.97 320.159 460.838 320.159 458.21V373.107C320.159 370.48 318.032 368.347 315.413 368.347H218.281C215.662 368.347 213.535 370.48 213.535 373.107V458.21C213.535 460.838 211.409 462.97 208.789 462.97H193.157C190.537 462.97 188.411 460.838 188.411 458.21V267.547C188.411 264.92 190.537 262.787 193.157 262.787Z" fill="#ECECEC"/>
<path d="M406.607 262.787H538.083C540.703 262.787 542.829 264.92 542.829 267.547V280.156C542.829 282.783 540.703 284.916 538.083 284.916H431.732C429.112 284.916 426.986 287.049 426.986 289.676V343.437C426.986 346.065 429.112 348.197 431.732 348.197H527.468C530.088 348.197 532.214 350.33 532.214 352.957V364.713C532.214 367.34 530.088 369.473 527.468 369.473H431.732C429.112 369.473 426.986 371.606 426.986 374.233V434.99C426.986 437.617 429.112 439.75 431.732 439.75H541.434C544.054 439.75 546.18 441.882 546.18 444.51V458.227C546.18 460.855 544.054 462.988 541.434 462.988H406.607C403.987 462.988 401.861 460.855 401.861 458.227V267.547C401.861 264.92 403.987 262.787 406.607 262.787Z" fill="#ECECEC"/>
<path d="M689.444 390.339H704.652C706.999 390.339 708.989 392.079 709.33 394.416C713.906 425.639 734.369 441.864 770.517 441.864C798.16 441.864 817.977 429.273 817.977 404.346C817.977 376.911 793.975 370.462 758.236 362.631C723.057 354.799 692.914 344.716 692.914 306.925C692.914 273.893 720.268 254.017 760.736 254.017C808.145 254.017 829.153 276.947 835.481 310.849C836.025 313.766 833.763 316.445 830.803 316.445H816.701C814.405 316.445 812.466 314.79 812.04 312.538C807.277 286.587 789.229 273.603 761.28 273.603C733.332 273.603 716.338 285.086 716.338 305.798C716.338 328.473 738.673 335.196 768.544 341.082C807.345 348.913 842.796 358.433 842.796 403.51C842.796 441.028 812.364 462.014 769.378 462.014C715.743 462.014 688.9 433.368 684.681 395.628C684.375 392.812 686.586 390.356 689.41 390.356L689.444 390.339Z" fill="#ECECEC"/>
<path d="M886.258 261.575H901.891C904.511 261.575 906.637 263.708 906.637 266.335V341.935C906.637 344.563 908.763 346.695 911.383 346.695H1008.51C1011.13 346.695 1013.26 344.563 1013.26 341.935V266.335C1013.26 263.708 1015.39 261.575 1018.01 261.575H1033.64C1036.26 261.575 1038.38 263.708 1038.38 266.335V456.998C1038.38 459.626 1036.26 461.759 1033.64 461.759H1018.01C1015.39 461.759 1013.26 459.626 1013.26 456.998V371.895C1013.26 369.268 1011.13 367.135 1008.51 367.135H911.383C908.763 367.135 906.637 369.268 906.637 371.895V456.998C906.637 459.626 904.511 461.759 901.891 461.759H886.258C883.639 461.759 881.512 459.626 881.512 456.998V266.335C881.512 263.708 883.639 261.575 886.258 261.575Z" fill="#ECECEC"/>
<path d="M1095.4 261.575H1111.04C1113.66 261.575 1115.78 263.708 1115.78 266.335V456.998C1115.78 459.626 1113.66 461.759 1111.04 461.759H1095.4C1092.79 461.759 1090.66 459.626 1090.66 456.998V266.335C1090.66 263.708 1092.79 261.575 1095.4 261.575Z" fill="#ECECEC"/>
<path d="M1172.11 261.575H1191.31C1192.91 261.575 1194.41 262.377 1195.27 263.725L1284.87 400.712C1291.57 411.069 1299.38 426.475 1299.38 426.475H1299.94V266.335C1299.94 263.708 1302.07 261.575 1304.69 261.575H1318.65C1321.27 261.575 1323.4 263.708 1323.4 266.335V456.998C1323.4 459.626 1321.27 461.759 1318.65 461.759H1300.26C1298.67 461.759 1297.19 460.957 1296.3 459.626L1206.14 322.349C1199.73 312.555 1191.35 297.439 1191.35 297.439H1190.78V457.015C1190.78 459.643 1188.66 461.776 1186.04 461.776H1172.07C1169.45 461.776 1167.33 459.643 1167.33 457.015V266.335C1167.33 263.708 1169.45 261.575 1172.07 261.575H1172.11Z" fill="#ECECEC"/>
<path d="M1381.64 261.575H1397.28C1399.9 261.575 1402.02 263.708 1402.02 266.335V456.998C1402.02 459.626 1399.9 461.759 1397.28 461.759H1381.64C1379.02 461.759 1376.9 459.626 1376.9 456.998V266.335C1376.9 263.708 1379.02 261.575 1381.64 261.575Z" fill="#ECECEC"/>
<path d="M1457.85 261.575H1477.06C1478.66 261.575 1480.15 262.377 1481.02 263.725L1570.62 400.712C1577.32 411.069 1585.13 426.475 1585.13 426.475H1585.69V266.335C1585.69 263.708 1587.81 261.575 1590.43 261.575H1604.4C1607.02 261.575 1609.15 263.708 1609.15 266.335V456.998C1609.15 459.626 1607.02 461.759 1604.4 461.759H1586.01C1584.41 461.759 1582.93 460.957 1582.05 459.626L1491.89 322.349C1485.48 312.555 1477.09 297.439 1477.09 297.439H1476.53V457.015C1476.53 459.643 1474.4 461.776 1471.78 461.776H1457.82C1455.2 461.776 1453.07 459.643 1453.07 457.015V266.335C1453.07 263.708 1455.2 261.575 1457.82 261.575H1457.85Z" fill="#ECECEC"/>
<path d="M1801.18 435.432H1800.62C1786.11 455.872 1764.61 465.956 1738.38 465.956C1682.27 465.956 1644.6 423.114 1644.6 362.375C1644.6 301.636 1677.8 257.378 1740.6 257.378C1784.63 257.378 1812.53 280.121 1820.71 316.001C1821.39 318.953 1819.09 321.785 1816.06 321.785H1799.61C1797.47 321.785 1795.6 320.352 1795.06 318.288C1788.61 293.804 1770.19 279.234 1740.06 279.234C1692.06 279.234 1670.28 315.353 1670.28 362.392C1670.28 409.431 1698.76 444.134 1739.23 444.134C1779.69 444.134 1799.51 416.136 1799.51 382.542C1799.51 379.914 1797.39 377.781 1794.77 377.781H1744.24C1741.62 377.781 1739.5 375.649 1739.5 373.021V360.703C1739.5 358.075 1741.62 355.943 1744.24 355.943H1819.89C1822.51 355.943 1824.64 358.075 1824.64 360.703V457.015C1824.64 459.643 1822.51 461.775 1819.89 461.775H1812.05C1809.92 461.775 1808.05 460.342 1807.47 458.278L1801.18 435.449V435.432Z" fill="#ECECEC"/>
</g>
<defs>
<clipPath id="clip0_590_1497">
<rect width="1824.62" height="211.956" fill="white" transform="translate(0 254)"/>
</clipPath>
</defs>
</svg>
