<svg width="469" height="114" viewBox="0 0 469 114" fill="none" xmlns="http://www.w3.org/2000/svg">
<path d="M403.441 56.3022H403.325L397.57 42.1445H380.039V72.4055H391.258V53.4426H391.374L399.117 72.4055H407.604L415.207 53.4426H415.335V72.4055H426.856V42.1445H408.975L403.441 56.3022Z" fill="#121212"/>
<path d="M208.289 92.6575C201.698 91.5558 197.942 91.2979 197.942 89.5282C197.942 88.2976 199.919 87.4186 202.744 87.4186C206.255 87.4186 207.987 88.4734 208.348 90.126H221.101C220.915 83.5276 212.533 80.9023 203.418 80.9023C193.501 80.9023 185.235 83.5276 185.235 90.4658C185.898 99.08 194.176 98.6346 201.57 99.9004C206.987 100.826 209.952 101.295 209.952 103.112C209.952 104.928 207.452 106.569 204.93 106.569C200.674 106.569 198.861 104.459 198.431 102.057H183.759C183.945 109.042 192.629 112.417 204.092 112.417C214.509 112.417 223.845 109.862 223.845 103.264C224.042 94.8608 215.672 93.8881 208.278 92.6575H208.289Z" fill="#121212"/>
<path d="M53.979 81.1602H44.0156V111.409H53.979V81.1602Z" fill="#121212"/>
<path d="M178.423 81.5234H167.553V111.773H178.423V81.5234Z" fill="#121212"/>
<path d="M330.71 42.1445H320.747V72.3937H330.71V42.1445Z" fill="#121212"/>
<path d="M298.739 42.1449H278.858V72.3941H290.112V60.9437H301.041C309.748 60.9437 315.643 58.7638 315.91 52.9273C316.131 48.0049 314.934 45.7547 311.853 43.856C309.016 42.0746 304.249 42.1449 298.75 42.1449H298.739ZM298.762 53.5601H290.856C290.31 53.5601 289.88 53.1148 289.88 52.5757V49.9856C289.88 49.4347 290.322 49.0011 290.856 49.0011H298.622C302.366 49.0011 303.459 49.8801 303.459 51.2279C303.459 52.5757 302.296 53.5719 298.762 53.5719V53.5601Z" fill="#121212"/>
<path d="M274.231 81.6758L261.524 112.37H272.964L274.975 108.866H287.694L289.705 112.37H301.482L288.147 81.6758H274.231ZM277.254 101.998L279.765 96.4195C280.404 95.0248 281.207 92.7511 281.207 92.7511H281.311C281.311 92.7511 282.16 95.0248 282.753 96.4195L285.148 101.998H277.254Z" fill="#121212"/>
<path d="M317.515 81.6758H306.005V112.37H338.557V104.717H317.515V81.6758Z" fill="#121212"/>
<path d="M355.38 81.6758H343.87V112.37H376.423V105.01H355.38V81.6758Z" fill="#121212"/>
<path d="M400.198 80.9258C387.538 80.9258 379.562 87.9812 379.562 97.4744C379.562 106.968 387.549 113.988 400.198 113.988C412.847 113.988 420.951 106.979 420.951 97.4744C420.951 87.9695 412.859 80.9258 400.198 80.9258ZM400.245 106.581C394.548 106.581 391.63 102.678 391.63 97.4861C391.63 92.2941 394.537 88.3445 400.245 88.3445C405.953 88.3445 408.86 92.2941 408.86 97.4861C408.86 102.678 405.953 106.581 400.245 106.581Z" fill="#121212"/>
<path d="M290.112 24.1313H269.372V0.550781H258.025V30.8H290.112V24.1313Z" fill="#121212"/>
<path d="M113.539 42.1445L101.018 72.3937H112.283L114.259 68.9363H126.792L128.769 72.3937H140.383L127.246 42.1445H113.527H113.539ZM116.515 62.1857L118.991 56.689C119.619 55.3178 120.41 53.0793 120.41 53.0793H120.514C120.514 53.0793 121.351 55.3178 121.933 56.689L124.293 62.1857H116.515Z" fill="#121212"/>
<path d="M445.632 65.4321V60.5917H464.222V53.9465H445.632V49.3406H467.652V42.1445H434.064V72.4055H469V65.4321H445.632Z" fill="#121212"/>
<path d="M99.5182 57.3336C99.5182 45.0394 91.4266 42.1445 79.7658 42.1445H61.083V72.3937H79.2543C91.8219 72.3937 99.5182 69.745 99.5182 57.3336ZM72.4415 65.0805V49.4695H77.9871C83.8232 49.4695 87.5086 52.3526 87.5086 57.3336C87.5086 62.3146 83.5907 65.0805 77.9871 65.0805H72.4415Z" fill="#121212"/>
<path d="M252.131 23.8383H228.763V18.998H247.353V12.3528H228.763V7.74683H250.794V0.550781H217.195V30.8H252.131V23.8383Z" fill="#121212"/>
<path d="M215.218 65.7368H194.466V42.1445H183.131V72.4055H215.218V65.7368Z" fill="#121212"/>
<path d="M190.92 32.6049C197.198 32.6049 201.779 31.5032 205.453 29.0069C208.533 26.9325 211.056 22.8891 211.428 19.5489H198.698C198.279 22.2562 195.326 25.0807 190.92 25.0807C185.305 25.0807 182.236 20.7443 182.236 15.7868C182.236 10.8292 185.13 7.27809 191.106 7.27809C195.21 7.27809 198.047 9.3994 198.349 11.7668H210.952C210.405 7.91097 207.813 4.53562 203.348 2.37915C200.209 0.855556 195.989 0.0117188 191.281 0.0117188C178.318 0.0117188 170.412 6.71553 170.412 15.7751C170.796 26.9442 177.771 32.6166 190.92 32.6166V32.6049Z" fill="#121212"/>
<path d="M67.2441 9.79783V12.1653C69.6158 12.0598 71.1272 11.3917 72.6269 10.3135C74.022 9.30559 74.801 7.40696 74.801 5.41456V0.550781H66.7559V7.40696H69.8367C69.9762 8.48519 69.6391 9.36419 67.2558 9.79783H67.2441Z" fill="#121212"/>
<path d="M161.704 92.0597C161.704 88.7195 160.693 85.1566 157.542 83.258C154.647 81.4766 149.811 81.4414 144.195 81.4414H123.49V111.691H135.127V100.193H141.661L148.753 111.691H161.483L154.066 99.4901C158.693 97.8025 161.692 95.8687 161.692 92.0597H161.704ZM144.719 93.0793H136.057C135.546 93.0793 135.127 92.6574 135.127 92.1417V89.704C135.127 89.1883 135.546 88.7664 136.057 88.7664H144.567C148.369 88.7664 149.392 89.5282 149.392 90.8994C149.392 92.2706 148.288 93.091 144.707 93.091L144.719 93.0793Z" fill="#121212"/>
<path d="M145.428 42.1445V72.4055H177.516V65.7368H156.775V42.1445H145.428Z" fill="#121212"/>
<path d="M374.109 61.1191V42.1445H361.832V61.459C361.832 64.2484 359.716 66.229 355.542 66.229C351.02 66.229 348.904 64.471 348.904 61.6348V42.1445H336.627V61.1191C336.627 68.8074 342.731 73.4017 355.356 73.4017C367.982 73.4017 374.086 68.6785 374.086 61.1191H374.109Z" fill="#121212"/>
<path d="M64.6051 23.5805H43.3879V0.550781H32.0991V30.8H64.6051V23.5805Z" fill="#121212"/>
<path d="M145.428 32.6049C151.705 32.6049 156.286 31.5032 159.96 29.0069C163.041 26.9325 165.564 22.8891 165.936 19.5489H153.205C152.787 22.2562 149.834 25.0807 145.428 25.0807C139.812 25.0807 136.743 20.7443 136.743 15.7868C136.743 10.8292 139.638 7.27809 145.614 7.27809C149.717 7.27809 152.554 9.3994 152.856 11.7668H165.459C164.913 7.91097 162.32 4.53562 157.856 2.37915C154.717 0.855556 150.496 0.0117188 145.788 0.0117188C132.825 0.0117188 124.919 6.71553 124.919 15.7751C125.303 26.9442 132.279 32.6166 145.428 32.6166V32.6049Z" fill="#121212"/>
<path d="M261.524 81.4414H227.519V88.9773H238.668V111.691H250.212V88.9773H261.524V81.4414Z" fill="#121212"/>
<path d="M352.311 33.062C364.972 33.062 373.063 26.0535 373.063 16.5486C373.063 7.04369 364.972 0 352.311 0C339.651 0 331.675 7.05541 331.675 16.5486C331.675 26.0417 339.662 33.062 352.311 33.062ZM352.369 7.40701C358.066 7.40701 360.984 11.3566 360.984 16.5486C360.984 21.7405 358.078 25.6433 352.369 25.6433C346.661 25.6433 343.755 21.7405 343.755 16.5486C343.755 11.3566 346.661 7.40701 352.369 7.40701Z" fill="#121212"/>
<path d="M97.3792 105.432C91.7639 105.432 88.6946 101.096 88.6946 96.1383C88.6946 91.1808 91.5895 87.6297 97.5652 87.6297C101.669 87.6297 104.506 89.751 104.808 92.1184H117.411C116.864 88.2625 114.272 84.8872 109.807 82.7307C106.668 81.2071 102.448 80.3633 97.7396 80.3633C84.7767 80.3633 76.8711 87.0671 76.8711 96.1266C77.2547 107.296 84.2303 112.968 97.3792 112.968C103.657 112.968 108.238 111.867 111.912 109.37C114.992 107.296 117.515 103.252 117.887 99.9122H105.157C104.738 102.619 101.785 105.444 97.3792 105.444V105.432Z" fill="#121212"/>
<path d="M101.018 31.8079C113.585 31.8079 119.747 27.0848 119.747 19.5254V0.550781H107.47V19.8653C107.47 22.6546 105.354 24.6353 101.18 24.6353C96.658 24.6353 94.5421 22.8773 94.5421 20.0411V0.550781H82.2651V19.5254C82.2651 27.2137 88.3687 31.8079 100.994 31.8079H101.018Z" fill="#121212"/>
<path d="M327.896 24.1313H307.143V0.550781H295.808V30.8H327.896V24.1313Z" fill="#121212"/>
<path d="M254.142 49.3406V42.1445H220.555V72.4055H255.49V65.4321H232.111V60.5917H250.712V53.9465H232.111V49.3406H254.142Z" fill="#121212"/>
<path d="M18.6828 81.1602H0V111.409H18.1713C30.7388 111.409 38.4352 108.761 38.4352 96.3492C38.4352 83.9378 30.3436 81.1602 18.6828 81.1602ZM16.9157 104.096H11.3701V88.4851H16.9157C22.7519 88.4851 26.4373 91.3682 26.4373 96.3492C26.4373 101.33 22.5193 104.096 16.9157 104.096Z" fill="#121212"/>
</svg>
