<svg width="1825" height="720" viewBox="0 0 1825 720" fill="none" xmlns="http://www.w3.org/2000/svg">
<path d="M1569.57 359.23H1569.12L1546.73 304.13H1478.52V421.902H1522.17V348.101H1522.62L1552.74 421.902H1585.76L1615.34 348.101H1615.84V421.902H1660.66V304.13H1591.1L1569.57 359.23Z" fill="#121212"/>
<path d="M810.338 500.721C784.693 496.433 770.084 495.43 770.084 488.542C770.084 483.753 777.773 480.332 788.764 480.332C802.423 480.332 809.162 484.437 810.565 490.868H860.182C859.458 465.188 826.847 454.971 791.387 454.971C752.806 454.971 720.648 465.188 720.648 492.191C723.226 525.717 755.429 523.983 784.196 528.91C805.273 532.513 816.806 534.337 816.806 541.407C816.806 548.477 807.082 554.863 797.267 554.863C780.713 554.863 773.657 546.653 771.983 537.302H714.903C715.627 564.488 749.414 577.624 794.01 577.624C834.536 577.624 870.856 567.68 870.856 542C871.625 509.296 839.059 505.51 810.293 500.721H810.338Z" fill="#121212"/>
<path d="M210.002 455.975H171.24V573.701H210.002V455.975Z" fill="#121212"/>
<path d="M694.144 457.388H651.854V575.115H694.144V457.388Z" fill="#121212"/>
<path d="M1286.61 304.13H1247.85V421.857H1286.61V304.13Z" fill="#121212"/>
<path d="M1162.23 304.131H1084.88V421.858H1128.67V377.294H1171.18C1205.06 377.294 1227.99 368.81 1229.03 346.095C1229.89 326.938 1225.23 318.18 1213.25 310.791C1202.21 303.858 1183.67 304.131 1162.27 304.131H1162.23ZM1162.32 348.558H1131.56C1129.44 348.558 1127.76 346.825 1127.76 344.727V334.646C1127.76 332.503 1129.48 330.815 1131.56 330.815H1161.77C1176.34 330.815 1180.59 334.236 1180.59 339.481C1180.59 344.727 1176.07 348.604 1162.32 348.604V348.558Z" fill="#121212"/>
<path d="M1066.88 457.981L1017.45 577.441H1061.95L1069.78 563.803H1119.26L1127.08 577.441H1172.9L1121.02 457.981H1066.88ZM1078.64 537.074L1088.41 515.362C1090.9 509.934 1094.02 501.086 1094.02 501.086H1094.43C1094.43 501.086 1097.73 509.934 1100.04 515.362L1109.35 537.074H1078.64Z" fill="#121212"/>
<path d="M1235.27 457.981H1190.5V577.441H1317.14V547.656H1235.27V457.981Z" fill="#121212"/>
<path d="M1382.59 457.981H1337.81V577.441H1464.45V548.797H1382.59V457.981Z" fill="#121212"/>
<path d="M1556.95 455.062C1507.7 455.062 1476.67 482.521 1476.67 519.468C1476.67 556.414 1507.74 583.736 1556.95 583.736C1606.16 583.736 1637.69 556.46 1637.69 519.468C1637.69 482.476 1606.21 455.062 1556.95 455.062ZM1557.13 554.909C1534.97 554.909 1523.62 539.72 1523.62 519.513C1523.62 499.307 1534.92 483.935 1557.13 483.935C1579.34 483.935 1590.65 499.307 1590.65 519.513C1590.65 539.72 1579.34 554.909 1557.13 554.909Z" fill="#121212"/>
<path d="M1128.67 234.024H1047.98V142.251H1003.83V259.978H1128.67V234.024Z" fill="#121212"/>
<path d="M441.717 304.13L393.004 421.857H436.832L444.521 408.401H493.279L500.968 421.857H546.152L495.043 304.13H441.671H441.717ZM453.295 382.128L462.929 360.735C465.372 355.399 468.447 346.687 468.447 346.687H468.854C468.854 346.687 472.111 355.399 474.372 360.735L483.554 382.128H453.295Z" fill="#121212"/>
<path d="M1733.71 394.763V375.924H1806.03V350.062H1733.71V332.136H1819.37V304.13H1688.71V421.902H1824.62V394.763H1733.71Z" fill="#121212"/>
<path d="M387.171 363.244C387.171 315.396 355.691 304.13 310.325 304.13H237.641V421.857H308.335C357.228 421.857 387.171 411.548 387.171 363.244ZM281.83 393.394V332.638H303.405C326.11 332.638 340.448 343.859 340.448 363.244C340.448 382.63 325.206 393.394 303.405 393.394H281.83Z" fill="#121212"/>
<path d="M980.902 232.884H889.99V214.046H962.313V188.184H889.99V170.258H975.701V142.251H844.986V259.978H980.902V232.884Z" fill="#121212"/>
<path d="M837.295 395.948H756.56V304.13H712.461V421.902H837.295V395.948Z" fill="#121212"/>
<path d="M742.765 267.003C767.189 267.003 785.01 262.715 799.302 252.999C811.288 244.926 821.103 229.189 822.551 216.19H773.024C771.396 226.726 759.907 237.719 742.765 237.719C720.919 237.719 708.978 220.842 708.978 201.548C708.978 182.254 720.241 168.433 743.489 168.433C759.455 168.433 770.491 176.689 771.667 185.903H820.696C818.57 170.896 808.484 157.76 791.116 149.367C778.904 143.437 762.485 140.153 744.167 140.153C693.736 140.153 662.979 166.244 662.979 201.503C664.472 244.972 691.61 267.048 742.765 267.048V267.003Z" fill="#121212"/>
<path d="M261.61 178.24V187.454C270.837 187.043 276.716 184.443 282.551 180.247C287.979 176.324 291.009 168.935 291.009 161.181V142.251H259.71V168.935H271.696C272.239 173.131 270.927 176.552 261.655 178.24H261.61Z" fill="#121212"/>
<path d="M629.101 498.394C629.101 485.394 625.166 471.528 612.909 464.139C601.647 457.206 582.831 457.069 560.985 457.069H480.431V574.795H525.706V530.049H551.125L578.715 574.795H628.242L599.385 527.313C617.387 520.744 629.056 513.218 629.056 498.394H629.101ZM563.02 502.362H529.324C527.334 502.362 525.706 500.72 525.706 498.713V489.226C525.706 487.219 527.334 485.577 529.324 485.577H562.432C577.223 485.577 581.203 488.542 581.203 493.878C581.203 499.215 576.906 502.408 562.975 502.408L563.02 502.362Z" fill="#121212"/>
<path d="M565.78 304.13V421.902H690.615V395.948H609.925V304.13H565.78Z" fill="#121212"/>
<path d="M1455.45 377.977V304.13H1407.69V379.3C1407.69 390.156 1399.46 397.864 1383.22 397.864C1365.62 397.864 1357.39 391.022 1357.39 379.984V304.13H1309.63V377.977C1309.63 407.899 1333.37 425.779 1382.49 425.779C1431.61 425.779 1455.36 407.397 1455.36 377.977H1455.45Z" fill="#121212"/>
<path d="M251.343 231.881H168.798V142.251H124.88V259.978H251.343V231.881Z" fill="#121212"/>
<path d="M565.778 267.003C590.202 267.003 608.022 262.715 622.315 252.999C634.301 244.926 644.116 229.189 645.563 216.19H596.037C594.408 226.726 582.92 237.719 565.778 237.719C543.932 237.719 531.991 220.842 531.991 201.548C531.991 182.254 543.253 168.433 566.501 168.433C582.468 168.433 593.504 176.689 594.68 185.903H643.709C641.583 170.896 631.497 157.76 614.129 149.367C601.916 143.437 585.498 140.153 567.18 140.153C516.749 140.153 485.992 166.244 485.992 201.503C487.485 244.972 514.623 267.048 565.778 267.048V267.003Z" fill="#121212"/>
<path d="M1017.45 457.069H885.148V486.398H928.524V574.795H973.437V486.398H1017.45V457.069Z" fill="#121212"/>
<path d="M1370.65 268.782C1419.9 268.782 1451.38 241.505 1451.38 204.513C1451.38 167.521 1419.9 140.108 1370.65 140.108C1321.39 140.108 1290.37 167.567 1290.37 204.513C1290.37 241.46 1321.44 268.782 1370.65 268.782ZM1370.87 168.935C1393.04 168.935 1404.39 184.307 1404.39 204.513C1404.39 224.72 1393.08 239.909 1370.87 239.909C1348.67 239.909 1337.36 224.72 1337.36 204.513C1337.36 184.307 1348.67 168.935 1370.87 168.935Z" fill="#121212"/>
<path d="M378.848 550.439C357.002 550.439 345.061 533.562 345.061 514.268C345.061 494.974 356.324 481.153 379.572 481.153C395.538 481.153 406.574 489.409 407.75 498.623H456.779C454.653 483.616 444.567 470.48 427.199 462.087C414.987 456.157 398.568 452.873 380.25 452.873C329.819 452.873 299.062 478.964 299.062 514.222C300.555 557.691 327.693 579.768 378.848 579.768C403.272 579.768 421.093 575.48 435.385 565.765C447.371 557.691 457.186 541.955 458.634 528.955H409.107C407.479 539.492 395.99 550.484 378.848 550.484V550.439Z" fill="#121212"/>
<path d="M393.004 263.901C441.897 263.901 465.869 245.519 465.869 216.099V142.251H418.106V217.421C418.106 228.277 409.874 235.986 393.637 235.986C376.042 235.986 367.811 229.144 367.811 218.106V142.251H320.048V216.099C320.048 246.021 343.794 263.901 392.913 263.901H393.004Z" fill="#121212"/>
<path d="M1275.66 234.024H1194.92V142.251H1150.83V259.978H1275.66V234.024Z" fill="#121212"/>
<path d="M988.726 332.136V304.13H858.057V421.902H993.972V394.763H903.015V375.924H975.383V350.062H903.015V332.136H988.726Z" fill="#121212"/>
<path d="M72.6844 455.975H0V573.701H70.6943C119.588 573.701 149.53 563.393 149.53 515.089C149.53 466.785 118.05 455.975 72.6844 455.975ZM65.8095 545.239H44.2348V484.483H65.8095C88.5149 484.483 102.853 495.703 102.853 515.089C102.853 534.474 87.6103 545.239 65.8095 545.239Z" fill="#121212"/>
</svg>
