<svg width="1825" height="720" viewBox="0 0 1825 720" fill="none" xmlns="http://www.w3.org/2000/svg">
<g clip-path="url(#clip0_1161_2705)">
<path d="M405.65 49.8839L393.995 7.64617C393.436 5.59489 391.571 4.19629 389.52 4.19629H272.97C270.918 4.19629 269.054 5.59489 268.494 7.64617L256.839 49.8839C255.254 55.3851 254.508 59.0215 254.508 60.6065C254.508 61.9119 255.254 62.6578 256.28 62.6578C258.611 62.6578 258.611 60.3268 263.832 50.1637C274.555 29.2779 296 11.469 318.657 8.85829V158.788C318.657 181.446 291.524 170.537 291.524 178.555C291.524 180.14 292.364 181.725 294.974 181.725C305.417 181.725 311.664 181.166 331.245 181.166C350.825 181.166 357.072 181.725 367.515 181.725C370.406 181.725 370.872 180.14 370.872 178.555C370.872 170.537 343.739 181.446 343.739 158.788V8.85829C366.49 11.469 387.842 29.2779 398.564 50.1637C403.786 60.3268 403.786 62.6578 406.117 62.6578C407.235 62.6578 407.981 61.9119 407.981 60.6065C407.981 59.0215 407.235 55.3851 405.65 49.8839Z" fill="#ECECEC"/>
<path d="M405.65 329.232L393.995 286.994C393.436 284.943 391.571 283.544 389.52 283.544H272.97C270.918 283.544 269.054 284.943 268.494 286.994L256.839 329.232C255.254 334.733 254.508 338.369 254.508 339.954C254.508 341.26 255.254 342.005 256.28 342.005C258.611 342.005 258.611 339.674 263.832 329.511C274.555 308.626 296 290.817 318.657 288.206V438.136C318.657 460.793 291.524 449.884 291.524 457.903C291.524 459.488 292.364 461.073 294.974 461.073C305.417 461.073 311.664 460.514 331.245 460.514C350.825 460.514 357.072 461.073 367.515 461.073C370.406 461.073 370.872 459.488 370.872 457.903C370.872 449.884 343.739 460.793 343.739 438.136V288.206C366.49 290.817 387.842 308.626 398.564 329.511C403.786 339.674 403.786 342.005 406.117 342.005C407.235 342.005 407.981 341.26 407.981 339.954C407.981 338.369 407.235 334.733 405.65 329.232Z" fill="#ECECEC"/>
<path d="M609.566 158.788V26.667C609.566 3.91644 632.504 14.9188 632.504 6.80688C632.504 5.2218 631.478 3.63672 629.147 3.63672C622.807 3.63672 616.559 4.19616 596.979 4.19616C577.399 4.19616 571.152 3.63672 564.904 3.63672C562.573 3.63672 561.455 5.2218 561.455 6.80688C561.455 14.9188 584.485 3.91644 584.485 26.667V85.1286H508.774V26.667C508.774 3.91644 531.711 14.9188 531.711 6.80688C531.711 5.2218 530.685 3.63672 528.354 3.63672C522.107 3.63672 515.767 4.19616 496.186 4.19616C476.606 4.19616 470.359 3.63672 464.112 3.63672C461.781 3.63672 460.755 5.2218 460.755 6.80688C460.755 14.9188 483.692 3.91644 483.692 26.667V158.788C483.692 181.446 460.755 170.536 460.755 178.555C460.755 180.14 461.781 181.725 464.112 181.725C470.359 181.725 476.606 181.166 496.186 181.166C515.767 181.166 522.107 181.725 528.354 181.725C530.685 181.725 531.711 180.14 531.711 178.555C531.711 170.536 508.774 181.446 508.774 158.788V89.7906H584.485V158.788C584.485 181.446 561.455 170.536 561.455 178.555C561.455 180.14 562.573 181.725 564.904 181.725C571.152 181.725 577.399 181.166 596.979 181.166C616.559 181.166 622.807 181.725 629.147 181.725C631.478 181.725 632.504 180.14 632.504 178.555C632.504 170.536 609.566 181.446 609.566 158.788Z" fill="#ECECEC"/>
<path d="M837.725 112.261C834.835 112.261 835.58 115.711 830.173 128.485C818.611 155.059 794.089 175.478 760.149 175.478C744.205 175.478 740.103 170.536 740.103 158.788V89.7906C764.905 89.7906 783.18 98.7416 783.18 127.18C783.18 130.816 783.646 132.401 785.79 132.401C788.121 132.401 788.401 130.816 788.401 127.18V50.4432C788.401 46.7136 788.121 45.2218 785.79 45.2218C783.646 45.2218 783.18 46.7136 783.18 50.4432C783.18 77.8558 764.905 85.1286 740.103 85.1286V9.97705C783.925 9.97705 809.473 13.3337 825.977 55.8512C827.748 60.6064 828.588 62.378 830.359 62.378C832.224 62.378 832.97 61.3523 832.97 60.047C832.97 58.7416 832.783 57.4363 831.198 53.054L814.974 3.63672C786.536 3.91644 775.814 4.19616 727.515 4.19616C707.935 4.19616 701.688 3.63672 695.441 3.63672C693.11 3.63672 691.991 5.2218 691.991 6.80688C691.991 14.9188 715.021 3.91644 715.021 26.667V158.788C715.021 181.446 691.991 170.536 691.991 178.555C691.991 180.14 693.11 181.725 695.441 181.725C701.688 181.725 707.935 181.166 727.515 181.166C761.734 181.166 792.037 181.446 823.832 181.725L837.445 126.154C838.751 121.119 839.776 115.898 839.776 114.592C839.776 113.101 839.03 112.261 837.725 112.261Z" fill="#ECECEC"/>
<path d="M508.774 369.417V438.321C508.774 461.072 531.711 450.07 531.711 458.182C531.711 459.767 530.685 461.352 528.354 461.352C522.107 461.352 515.86 460.792 496.28 460.792C476.699 460.792 470.452 461.352 464.205 461.352C461.874 461.352 460.849 459.767 460.849 458.182C460.849 450.07 483.786 461.072 483.786 438.321V306.2C483.786 283.45 460.849 294.452 460.849 286.34C460.849 284.755 461.874 283.17 464.205 283.17C470.452 283.17 476.699 283.729 496.28 283.729C515.86 283.729 522.107 283.17 528.354 283.17C530.685 283.17 531.711 284.755 531.711 286.34C531.711 294.452 508.774 283.45 508.774 306.2V364.662H584.485V306.2C584.485 283.45 561.548 294.452 561.548 286.34C561.548 284.755 562.573 283.17 564.904 283.17C571.152 283.17 577.399 283.729 596.979 283.729C616.559 283.729 622.807 283.17 629.054 283.17C631.385 283.17 632.41 284.755 632.41 286.34C632.41 294.452 609.473 283.45 609.473 306.2V438.321C609.473 461.072 632.41 450.07 632.41 458.182C632.41 459.767 631.385 461.352 629.054 461.352C622.807 461.352 616.559 460.792 596.979 460.792C577.399 460.792 571.152 461.352 564.904 461.352C562.573 461.352 561.548 459.767 561.548 458.182C561.548 450.07 584.485 461.072 584.485 438.321V369.417H508.774Z" fill="#ECECEC"/>
<path d="M715.021 306.293C715.021 283.542 692.084 294.545 692.084 286.433C692.084 284.848 693.11 283.263 695.441 283.263C701.688 283.263 707.935 283.822 727.515 283.822C775.814 283.822 786.536 283.542 814.974 283.263L831.198 332.587C832.783 337.062 833.063 338.368 833.063 339.673C833.063 340.978 832.317 342.004 830.452 342.004C828.587 342.004 827.842 340.139 825.977 335.477C809.567 292.96 783.925 289.51 740.103 289.51V364.661C764.905 364.661 783.18 357.389 783.18 329.976C783.18 326.34 783.739 324.755 785.79 324.755C788.121 324.755 788.401 326.34 788.401 329.976V406.713C788.401 410.349 788.121 411.934 785.79 411.934C783.739 411.934 783.18 410.349 783.18 406.713C783.18 378.274 764.905 369.417 740.103 369.417V438.321C740.103 450.069 744.298 455.011 760.242 455.011C794.182 455.011 818.704 434.685 830.173 408.018C835.674 395.244 834.835 391.794 837.725 391.794C839.03 391.794 839.776 392.54 839.776 394.125C839.776 395.431 838.751 400.652 837.445 405.594L823.832 461.165C791.944 460.885 761.734 460.605 727.515 460.605C707.935 460.605 701.688 461.165 695.441 461.165C693.11 461.165 692.084 459.58 692.084 457.995C692.084 449.883 715.021 460.885 715.021 438.135V306.013V306.293Z" fill="#ECECEC"/>
<path d="M892.177 372.308C892.177 314.592 939.73 279.627 981.688 279.627C1023.65 279.627 1071.2 314.592 1071.2 372.308C1071.2 430.023 1023.65 464.988 981.688 464.988C939.73 464.988 892.177 430.023 892.177 372.308ZM981.688 458.741C1011.15 458.741 1042.48 438.415 1042.48 372.308C1042.48 306.2 1011.15 285.874 981.688 285.874C952.224 285.874 920.895 306.2 920.895 372.308C920.895 438.415 952.224 458.741 981.688 458.741Z" fill="#ECECEC"/>
<path d="M1164.16 438.321C1164.16 461.072 1187.1 450.07 1187.1 458.182C1187.1 459.767 1186.07 461.352 1183.74 461.352C1177.49 461.352 1171.24 460.792 1151.66 460.792C1132.08 460.792 1125.84 461.352 1119.59 461.352C1117.26 461.352 1116.23 459.767 1116.23 458.182C1116.23 450.07 1139.17 461.072 1139.17 438.321V306.2C1139.17 283.45 1116.23 294.452 1116.23 286.34C1116.23 284.755 1117.26 283.17 1119.59 283.17C1125.84 283.17 1132.08 283.729 1151.66 283.729C1164.16 283.729 1174.14 283.17 1185.04 283.17C1231.29 283.17 1252.92 304.615 1252.92 329.603C1252.92 347.879 1238 364.569 1218.24 369.044C1208.82 371.095 1198.1 371.934 1188.77 372.401V372.96C1216.19 375.291 1227.19 381.072 1237.07 400.093L1256.09 436.923C1268.4 460.979 1286.12 451.841 1286.12 458.088C1286.12 460.14 1285.56 461.259 1282.95 461.259C1275.86 461.259 1265.7 460.699 1256.09 460.699H1240.99L1207.05 394.685C1199.22 379.3 1188.21 374.545 1171.06 374.545H1164.25V438.228L1164.16 438.321ZM1164.16 369.976H1182.71C1210.87 369.976 1226.82 356.923 1226.82 328.764C1226.82 303.403 1210.13 289.603 1182.99 289.603H1164.16V369.976Z" fill="#ECECEC"/>
<path d="M1341.97 306.294C1341.97 283.543 1319.03 294.546 1319.03 286.434C1319.03 284.849 1320.06 283.264 1322.39 283.264C1328.63 283.264 1334.88 283.823 1354.46 283.823C1402.76 283.823 1413.48 283.543 1441.92 283.264L1458.14 332.588C1459.73 337.063 1460.01 338.369 1460.01 339.674C1460.01 340.979 1459.26 342.005 1457.4 342.005C1455.53 342.005 1454.79 340.14 1452.92 335.478C1436.51 292.961 1410.87 289.511 1367.05 289.511V364.662C1391.85 364.662 1410.13 357.39 1410.13 329.977C1410.13 326.341 1410.69 324.756 1412.74 324.756C1415.07 324.756 1415.35 326.341 1415.35 329.977V406.714C1415.35 410.35 1415.07 411.935 1412.74 411.935C1410.69 411.935 1410.13 410.35 1410.13 406.714C1410.13 378.275 1391.85 369.418 1367.05 369.418V438.322C1367.05 450.07 1371.24 455.012 1387.19 455.012C1421.13 455.012 1445.65 434.686 1457.12 408.019C1462.62 395.245 1461.78 391.795 1464.67 391.795C1465.98 391.795 1466.72 392.541 1466.72 394.126C1466.72 395.432 1465.7 400.653 1464.39 405.595L1450.78 461.166C1418.89 460.886 1388.68 460.606 1354.46 460.606C1334.88 460.606 1328.63 461.166 1322.39 461.166C1320.06 461.166 1319.03 459.581 1319.03 457.996C1319.03 449.884 1341.97 460.886 1341.97 438.135V306.014V306.294Z" fill="#ECECEC"/>
<path d="M1623.93 425.082L1677.45 283.823H1687.61C1707.19 283.823 1713.44 283.264 1719.68 283.264C1722.01 283.264 1723.04 284.849 1723.04 286.434C1723.04 294.546 1700.1 283.543 1700.1 306.294V438.415C1700.1 461.166 1723.04 450.163 1723.04 458.275C1723.04 459.86 1722.01 461.446 1719.68 461.446C1713.44 461.446 1707.19 460.886 1687.61 460.886C1668.03 460.886 1661.78 461.446 1655.53 461.446C1653.2 461.446 1652.18 459.86 1652.18 458.275C1652.18 450.163 1675.11 461.166 1675.11 438.415V308.439H1674.09L1618.7 456.224C1617.4 459.581 1616.84 462.005 1614.79 462.005C1612.74 462.005 1612.18 459.674 1610.87 456.224L1557.63 310.583H1557.07V420.233C1557.07 440.373 1566.49 451.842 1580.57 455.198C1583.93 455.944 1586.35 455.944 1586.35 458.835C1586.35 460.42 1585.79 461.446 1583.46 461.446C1580.1 461.446 1565.18 460.886 1553.44 460.886C1541.69 460.886 1526.77 461.446 1523.41 461.446C1521.08 461.446 1520.52 460.42 1520.52 458.835C1520.52 455.944 1522.85 455.944 1526.3 455.198C1540.38 451.842 1549.8 440.28 1549.8 420.233V306.387C1549.8 283.637 1526.86 294.639 1526.86 286.527C1526.86 284.942 1527.89 283.357 1530.22 283.357C1536.47 283.357 1542.71 283.916 1562.29 283.916H1571.71L1623.93 425.175V425.082Z" fill="#ECECEC"/>
<path d="M1048.07 9.8838C1004.25 9.8838 978.611 13.2404 962.201 55.8512C960.336 60.5132 959.59 62.378 957.725 62.378C955.86 62.378 955.114 61.3523 955.114 60.047C955.114 58.7416 955.394 57.4362 956.979 52.9607L973.203 3.63672C989.613 3.91644 1006.12 4.19616 1022.53 4.19616C1049.94 4.19616 1061.97 3.63672 1076.33 3.63672C1080.8 3.63672 1081.27 4.94208 1081.27 6.52716C1081.27 7.83252 1080.24 9.4176 1079.22 11.0027L975.534 175.478H1001.08C1035.02 175.478 1059.54 155.152 1071.01 128.485C1076.51 115.711 1075.67 112.261 1078.56 112.261C1079.87 112.261 1080.62 113.007 1080.62 114.592C1080.62 115.898 1079.59 121.119 1078.28 126.061L1064.67 181.632C1045.09 181.352 1026.26 181.073 1007.79 181.073C968.354 181.073 958.471 181.632 950.079 181.632C948.028 181.632 946.909 181.073 946.909 179.767C946.909 178.462 947.935 177.157 953.995 167.46L1052.55 9.8838H1048.07Z" fill="#ECECEC"/>
<path d="M1162.67 26.667C1162.67 3.91644 1139.73 14.9188 1139.73 6.80688C1139.73 5.2218 1140.76 3.63672 1143.09 3.63672C1149.33 3.63672 1155.58 4.19616 1175.16 4.19616C1223.46 4.19616 1234.18 3.91644 1262.62 3.63672L1278.84 52.9607C1280.43 57.4363 1280.71 58.7416 1280.71 60.047C1280.71 61.3523 1279.96 62.378 1278.1 62.378C1276.23 62.378 1275.49 60.5132 1273.62 55.8512C1257.21 13.3337 1231.57 9.8838 1187.75 9.8838V85.0353C1212.55 85.0353 1230.83 77.7626 1230.83 50.35C1230.83 46.7136 1231.38 45.1286 1233.44 45.1286C1235.77 45.1286 1236.05 46.7136 1236.05 50.35V127.087C1236.05 130.723 1235.77 132.308 1233.44 132.308C1231.38 132.308 1230.83 130.723 1230.83 127.087C1230.83 98.6484 1212.55 89.7906 1187.75 89.7906V158.695C1187.75 170.443 1191.94 175.385 1207.89 175.385C1241.83 175.385 1266.35 155.059 1277.82 128.392C1283.32 115.618 1282.48 112.168 1285.37 112.168C1286.68 112.168 1287.42 112.914 1287.42 114.499C1287.42 115.805 1286.4 121.026 1285.09 125.968L1271.48 181.539C1239.59 181.259 1209.38 180.979 1175.16 180.979C1155.58 180.979 1149.33 181.539 1143.09 181.539C1140.76 181.539 1139.73 179.954 1139.73 178.369C1139.73 170.257 1162.67 181.259 1162.67 158.509V26.667Z" fill="#ECECEC"/>
<path d="M1401.83 158.695C1401.83 181.446 1424.76 170.443 1424.76 178.555C1424.76 180.14 1423.74 181.725 1421.41 181.725C1415.16 181.725 1408.91 181.166 1389.33 181.166C1369.75 181.166 1363.51 181.725 1357.26 181.725C1354.93 181.725 1353.9 180.14 1353.9 178.555C1353.9 170.443 1376.84 181.446 1376.84 158.695V26.667C1376.84 3.91644 1353.9 14.9188 1353.9 6.80688C1353.9 5.2218 1354.93 3.63672 1357.26 3.63672C1363.51 3.63672 1369.75 4.19616 1389.33 4.19616C1401.83 4.19616 1411.8 3.63672 1422.71 3.63672C1468.96 3.63672 1490.59 25.0819 1490.59 50.0703C1490.59 68.3453 1475.67 85.0353 1455.91 89.5108C1446.49 91.5621 1435.77 92.4013 1426.44 92.8675V93.4269C1453.86 95.7579 1464.86 101.539 1474.74 120.56L1493.76 157.39C1506.07 181.446 1523.79 172.308 1523.79 178.555C1523.79 180.606 1523.23 181.725 1520.62 181.725C1513.53 181.725 1503.37 181.166 1493.76 181.166H1478.66L1444.72 115.152C1436.89 99.7673 1425.88 95.012 1408.73 95.012H1401.92V158.695H1401.83ZM1401.83 90.35H1420.38C1448.54 90.35 1464.48 77.2964 1464.48 49.1379C1464.48 23.7766 1447.8 9.97705 1420.66 9.97705H1401.83V90.35Z" fill="#ECECEC"/>
<path d="M1549.52 92.6806C1549.52 34.965 1597.07 0 1639.03 0C1680.99 0 1728.54 34.965 1728.54 92.6806C1728.54 150.396 1680.99 185.361 1639.03 185.361C1597.07 185.361 1549.52 150.396 1549.52 92.6806ZM1639.03 179.114C1668.49 179.114 1699.82 158.788 1699.82 92.6806C1699.82 26.5734 1668.49 6.24709 1639.03 6.24709C1609.57 6.24709 1578.24 26.5734 1578.24 92.6806C1578.24 158.788 1609.57 179.114 1639.03 179.114Z" fill="#ECECEC"/>
<path d="M96 573.8V592.448L158.191 646.714L96 701.259V720L179.357 646.714L96 573.8Z" fill="#ECECEC"/>
</g>
<defs>
<clipPath id="clip0_1161_2705">
<rect width="1632.54" height="720" fill="white" transform="translate(96)"/>
</clipPath>
</defs>
</svg>
