<svg width="1825" height="720" viewBox="0 0 1825 720" fill="none" xmlns="http://www.w3.org/2000/svg">
<g clip-path="url(#clip0_855_4511)">
<path d="M453.116 79.52H308.117L242 642H348.501L359.603 535.965H403.517L413.617 642H522.773L453.116 79.52ZM365.466 442.019C363.5 442.019 380.215 226.596 380.215 226.596L397.269 442.019H365.466Z" fill="#ECECEC"/>
<path d="M1506.02 78L1361.79 79.52L1298.33 642H1408.63L1415.93 529.125L1459.85 528.74L1469.95 642L1581.01 641.24L1506.02 78ZM1421.41 437.459C1419.45 437.459 1434.26 222.796 1434.26 222.796L1453.59 437.074C1453.59 437.074 1423.37 437.459 1421.4 437.459H1421.41Z" fill="#ECECEC"/>
<path d="M706.913 642L658.655 390.454L660.934 642H539.765V79.52H657.511V296.74L692.201 79.52H807.283L749.737 330.824L822.764 642H706.913Z" fill="#ECECEC"/>
<path d="M969.694 79.52H850.062V642H969.694V79.52Z" fill="#ECECEC"/>
<path d="M1281.07 638.96C1277.76 626.979 1275.92 614.631 1275.67 602.202C1275.65 601.371 1275.64 600.548 1275.62 599.716L1272.13 430.627C1272.13 400.844 1253.02 375.173 1227.66 363.46C1253.09 351.756 1272.63 326.059 1272.63 296.23V153.491C1272.63 112.639 1237.62 79.5199 1196.78 79.5199L1004.45 79.1802V641.669H1124.07V417.367H1138.58C1148.7 417.367 1156.91 425.575 1156.91 435.706V603.534C1156.91 615.936 1161.16 627.962 1168.96 637.601C1170.11 639.022 1171.84 639.845 1173.68 639.845H1173.7L1281.09 639.022L1281.07 638.96ZM1154.64 295.551C1154.64 304.886 1147.07 312.459 1137.74 312.459H1124.07V170.793H1137.74C1147.07 170.793 1154.64 178.366 1154.64 187.701V295.551Z" fill="#ECECEC"/>
</g>
<defs>
<clipPath id="clip0_855_4511">
<rect width="1339" height="564" fill="white" transform="translate(242 78)"/>
</clipPath>
</defs>
</svg>
