<svg width="1825" height="720" viewBox="0 0 1825 720" fill="none" xmlns="http://www.w3.org/2000/svg">
<g clip-path="url(#clip0_716_2514)">
<path d="M355.159 659.49L352.734 640.973C335.971 655.006 317.099 662.814 297.858 662.814C270.131 662.814 253.947 646.354 253.947 621.243C253.947 602.99 261.854 588.376 280.146 578.511C296.013 570.123 323.425 563.582 352.365 557.884C354.79 530.662 344.141 521.694 320.947 521.694C302.339 521.694 290.478 528.552 279.514 545.012L260.642 533.353C274.98 510.352 295.064 501.067 321.896 501.067C360.588 501.067 377.984 517.526 377.984 551.606V635.328L380.409 659.543H355.106L355.159 659.49ZM351.838 576.401C322.898 582.099 306.134 586.583 294.221 593.124C284.785 598.505 280.199 607.79 280.199 618.816C280.199 633.165 289.055 642.134 304.869 642.134C320.684 642.134 340.504 633.482 351.785 620.029V576.401H351.838Z" fill="#ECECEC"/>
<path d="M512.458 659.49V553.664C512.458 532.72 504.551 523.488 486.259 523.488C472.237 523.488 459.427 529.185 441.452 547.386V659.49H415.569V504.602H440.239V526.126C457.635 509.086 474.082 501.014 493.902 501.014C510.666 501.014 522.843 506.395 529.854 517.157C535.968 524.912 538.393 536.571 538.393 553.927V659.437H512.511L512.458 659.49Z" fill="#ECECEC"/>
<path d="M630.432 608.529C620.997 608.529 612.141 607.315 604.813 604.941C598.435 607.948 592.953 612.433 592.953 617.497C592.953 643.189 706.341 608.212 706.341 670.727C706.341 702.696 673.447 715.885 631.065 715.885C588.683 715.885 562.167 704.226 562.167 678.535C562.167 662.972 571.287 653.74 587.787 647.726V647.145C574.661 643.875 568.915 636.383 568.915 625.621C568.915 614.859 577.138 605.311 589.948 597.503C576.822 588.218 569.811 573.869 569.811 555.352C569.811 524.859 592.953 502.439 630.485 502.439C647.564 502.439 661.903 507.239 672.235 515.311C680.458 506.342 691.739 499.748 705.445 499.748V523.066C697.221 523.066 690.21 524.859 683.832 528.447C688.734 536.202 691.159 545.487 691.159 555.352C691.159 587.954 668.281 608.582 630.485 608.582L630.432 608.529ZM620.364 651.577C602.968 653.951 586.521 661.126 586.521 675.211C586.521 689.297 605.13 697.052 632.225 697.052C659.32 697.052 681.302 689.877 681.302 674.05C681.302 655.217 658.74 652.526 620.364 651.63V651.577ZM630.432 522.116C607.291 522.116 593.849 535.569 593.849 556.512C593.849 577.456 607.871 590.012 630.432 590.012C652.994 590.012 667.016 577.773 667.016 556.512C667.016 535.252 653.627 522.116 630.432 522.116Z" fill="#ECECEC"/>
<path d="M798.485 522.222C776.556 522.222 760.057 542.585 750.937 563.529V659.49H725.054V504.602H749.725V533.88C763.114 510.563 778.349 501.014 797.853 501.014V522.855" fill="#ECECEC"/>
<path d="M832.381 720C824.157 720 817.462 719.419 811.031 718.206V696.998C817.41 698.212 823.525 698.792 828.427 698.792C845.506 698.792 853.15 684.496 860.477 663.552L863.535 654.9L807.447 503.335H836.071L875.975 619.343H876.608L915.3 503.335H942.448L890.314 653.423C874.447 699.478 862.849 720.052 832.381 720.052V720Z" fill="#ECECEC"/>
<path d="M1240.55 659.49V550.973C1240.55 529.133 1228.69 523.488 1216.46 523.488C1203.07 523.488 1189.63 530.662 1175.29 546.489V659.49H1149.4V553.664C1149.4 534.514 1142.08 523.488 1126.26 523.488C1112.56 523.488 1097.64 532.14 1083.88 547.702V659.49H1058V504.602H1082.67V526.126C1097.32 510.299 1115.56 501.014 1132.06 501.014C1153.09 501.014 1165.59 509.086 1171.7 527.022C1189.68 508.769 1203.7 501.014 1223.52 501.014C1252.46 501.014 1266.48 517.157 1266.48 549.443V659.437H1240.6L1240.55 659.49Z" fill="#ECECEC"/>
<path d="M1362.05 663.077C1319.67 663.077 1295.32 631.688 1295.32 582.046C1295.32 532.403 1323.04 501.014 1362.37 501.014C1405.02 501.014 1422.52 530.926 1422.52 576.348C1422.52 578.722 1422.52 581.729 1422.2 585.633H1320.88C1322.41 620.029 1334.27 641.237 1363.85 641.237C1382.14 641.237 1392.15 635.592 1402.85 615.545L1422.67 626.307C1407.44 654.426 1388.57 663.077 1362.05 663.077ZM1321.52 566.852H1396.9C1396.58 539.631 1387.3 521.694 1362.32 521.694C1337.33 521.694 1324.52 542.005 1321.46 566.852H1321.52Z" fill="#ECECEC"/>
<path d="M1545.29 659.49V553.664C1545.29 532.72 1537.38 523.488 1519.09 523.488C1505.07 523.488 1492.26 529.185 1474.28 547.386V659.49H1448.4V504.602H1473.07V526.126C1490.47 509.086 1506.91 501.014 1526.73 501.014C1543.5 501.014 1555.67 506.395 1562.68 517.157C1568.8 524.912 1571.22 536.571 1571.22 553.927V659.437H1545.34L1545.29 659.49Z" fill="#ECECEC"/>
<path d="M1167.22 349.238V317.216H1206.12L1209.81 46.8992L1168.12 48.5873V24.5311L1224.52 2.53223H1247.87L1243.92 317.268H1283.14V349.291H1167.27L1167.22 349.238Z" fill="#ECECEC"/>
<path d="M1325.05 349.238V331.934C1325.05 301.653 1345.87 271.794 1363.53 242.462C1396.37 190.498 1449.45 139.59 1449.45 89.5779C1449.45 59.2966 1439.6 28.9097 1411.66 28.9097C1387.15 28.9097 1364.85 54.8652 1362.84 99.1266H1331C1332.95 32.286 1375.5 0.0527344 1408.18 0.0527344C1462.63 0.0527344 1484.24 37.1395 1484.24 87.6788C1484.24 145.868 1420.72 207.855 1388.36 259.818C1375.6 279.549 1361 300.914 1360.05 317.321H1481.77V349.343H1325.1L1325.05 349.238Z" fill="#ECECEC"/>
</g>
<defs>
<clipPath id="clip0_716_2514">
<rect width="1317.17" height="720" fill="white" transform="translate(254)"/>
</clipPath>
</defs>
</svg>
