<svg width="1826" height="720" viewBox="0 0 1826 720" fill="none" xmlns="http://www.w3.org/2000/svg">
<g clip-path="url(#clip0_963_22327)">
<path d="M126.633 338.918C147.413 328.773 163.031 313.377 163.031 286.234C163.031 250.192 134.999 227.499 86.8979 227.499H0.619385V228.7C19.1744 236.398 16.6381 265.988 16.6381 284.187V436.944C16.6381 455.588 18.8184 485.178 0.619385 492.876V494.077H60.734C88.0548 494.077 116.844 495.278 142.296 481.529C166.68 468.581 185.991 441.838 185.991 410.646C185.991 370.955 159.427 346.616 126.633 338.918ZM53.7926 255.443C124.898 246.01 123.34 292.731 123.34 292.731C123.34 325.97 89.4787 334.869 65.8066 334.869H53.7926V255.443ZM86.453 462.44L53.7926 461.684V361.611L79.2891 360.009C111.326 357.963 145.589 375.005 145.589 414.295C145.589 453.585 111.148 463.819 86.453 462.44Z" fill="#ECECEC"/>
<path d="M1109.69 338.918C1129.89 328.773 1145.11 313.377 1145.11 286.234C1145.11 250.192 1117.84 227.499 1071.03 227.499H987.016V228.7C1005.08 236.398 1002.59 265.988 1002.59 284.187V436.944C1002.59 455.588 1004.73 485.178 987.016 492.876V494.077H1045.48C1072.05 494.077 1100.08 495.278 1124.87 481.529C1148.63 468.581 1167.4 441.838 1167.4 410.646C1167.4 370.955 1141.55 346.616 1109.65 338.918H1109.69ZM1038.85 255.443C1108.05 246.01 1106.53 292.731 1106.53 292.731C1106.53 325.97 1073.56 334.869 1050.56 334.869H1038.85V255.443ZM1070.58 462.44L1038.81 461.684V361.611L1063.59 360.009C1094.79 357.963 1128.11 375.005 1128.11 414.295C1128.11 453.585 1094.61 463.819 1070.58 462.44Z" fill="#ECECEC"/>
<path d="M333.453 220.602C256.963 218.555 196.849 282.986 196.849 359.964C196.849 443.039 257.675 500.573 329.804 500.573C401.933 500.573 463.827 440.592 463.827 357.962C463.827 285.032 409.897 220.201 333.453 220.602ZM331.628 471.428C274.45 471.428 238.408 413.093 238.408 356.36C238.408 295.178 274.45 249.791 330.916 249.791C387.382 249.791 422.356 306.925 422.356 366.06C422.356 425.196 387.026 471.383 331.673 471.383L331.628 471.428Z" fill="#ECECEC"/>
<path d="M563.232 227.499H474.017V228.7C492.572 234.796 490.036 264.342 490.036 282.986V435.742C490.036 459.637 492.216 479.082 474.017 492.876V494.077H561.452C643.059 494.077 698.012 438.145 698.012 358.363C698.012 278.581 646.262 227.499 563.232 227.499ZM553.754 464.932C544.633 464.932 535.911 464.131 527.19 462.084V261.138C538.136 258.291 549.038 256.689 559.984 256.689C620.811 256.689 656.497 292.33 656.497 363.258C656.497 434.185 608.04 464.932 553.799 464.932H553.754Z" fill="#ECECEC"/>
<path d="M887.299 227.499H823.58V228.7C843.96 239.647 835.594 259.091 829.409 269.192L786.159 341.365L727.78 238.846C723.063 230.347 712.117 227.499 700.459 227.499H667.665C685.152 238.045 692.45 251.394 702.283 269.237L760.529 371.801V437.389C760.529 456.433 763.065 482.775 745.222 492.92V494.122H816.239V492.92C797.684 477.925 797.684 465.777 797.684 441.482V377.452L887.299 227.499Z" fill="#ECECEC"/>
<path d="M1377.92 433.873L1304.05 228.433H1247.94V229.635C1264.99 235.642 1258.27 252.461 1253.28 266.878L1193.97 433.873C1186.14 456.7 1180.13 479.126 1159.53 490.74V491.941H1224.89V490.74C1207.85 483.531 1210.34 471.917 1217.77 449.491L1236.24 393.025H1325.77L1344.95 449.491C1354.51 477.524 1357.36 481.929 1339.96 490.74V491.941H1412.76V490.74C1392.51 479.126 1386.1 456.7 1377.96 433.873H1377.92ZM1245.45 363.435L1280.6 262.517L1315.4 363.435H1245.41H1245.45Z" fill="#ECECEC"/>
<path d="M1568.32 357.384C1584.11 364.681 1584.47 384.482 1584.47 403.126V461.416C1568.67 466.667 1551.76 469.114 1535.61 469.114C1480.08 469.114 1435.09 419.723 1435.09 354.581C1435.09 289.438 1476.92 248.145 1531.74 248.145C1553.19 248.145 1579.89 253.796 1594.3 272.44H1595.37V225.897C1577.08 221.447 1558.79 219 1540.2 219C1455.12 219 1395 273.241 1395 360.232C1395 441.571 1443.06 494.611 1532.94 498.393C1581.84 500.484 1620.29 484.243 1620.29 484.243V374.782C1620.29 368.73 1620.29 362.234 1622.02 357.384V356.182H1568.23V357.384H1568.32Z" fill="#ECECEC"/>
<path d="M1701.41 285.522C1701.41 266.745 1712.93 256.51 1726.68 251.749C1737.45 248.012 1749.2 248.145 1760.19 251.215C1773 254.775 1792.8 262.117 1804.5 275.555L1804.37 227.988C1787.11 221.848 1768.73 219 1750.75 219C1706.83 219 1660.38 238.578 1660.38 290.016C1660.38 360.721 1743.1 366.016 1773.31 400.323C1786.22 414.962 1785.73 437.655 1771.84 451.36C1765.3 457.812 1755.38 463.819 1740.38 466.623C1690.5 473.43 1652.5 438.456 1652.5 438.456L1664.38 488.337C1684.9 496.925 1706.88 500.573 1728.82 500.573C1784.97 500.573 1825.28 459.77 1825.28 416.075C1825.28 340.564 1701.45 341.41 1701.45 285.478L1701.41 285.522Z" fill="#ECECEC"/>
</g>
<defs>
<clipPath id="clip0_963_22327">
<rect width="1824.62" height="281.573" fill="white" transform="translate(0.619385 219)"/>
</clipPath>
</defs>
</svg>
