<svg width="1825" height="720" viewBox="0 0 1825 720" fill="none" xmlns="http://www.w3.org/2000/svg">
<g clip-path="url(#clip0_1162_2779)">
<path d="M133.108 305.484C133.108 307.677 132.669 312.501 136.247 312.501C138.486 312.501 145.665 305.484 157.346 298.905C169.026 291.888 184.723 285.309 204.482 285.309C252.058 285.309 292.477 324.343 292.477 382.214C292.477 457.189 235.022 515.521 157.807 515.521C101.253 515.521 74.7526 487.013 67.5736 487.013C60.3946 487.013 53.2156 493.592 38.396 493.592C32.1172 493.592 24.9382 491.838 24.9382 484.82C24.9382 477.803 33.9177 463.768 33.9177 406.775V290.133C33.9177 264.695 0.23877 283.67 0.23877 252.091C0.23877 222.706 87.3332 202 124.59 202C136.709 202 136.27 211.21 135.809 220.859L133.108 305.484ZM156.007 352.851C136.247 352.851 134.008 368.641 134.008 383.553C134.008 468.616 138.948 475.633 156.907 475.633C186.523 475.633 191.463 442.739 191.463 420.394C191.463 399.78 185.623 352.874 156.007 352.874V352.851Z" fill="#ECECEC"/>
<path d="M509.14 406.544C509.14 483.713 535.825 441.631 535.825 465.292C535.825 490.291 501.153 517.461 468.698 517.461C433.564 517.461 432.687 495.093 421.561 495.093C416.228 495.093 410.434 500.794 400.67 506.058C390.883 511.759 377.563 517.461 357.088 517.461C320.178 517.461 283.29 498.163 283.29 454.766C283.29 423.626 313.53 385.053 391.76 385.053C405.541 385.053 411.773 385.93 411.773 370.141C411.773 355.668 411.335 327.367 390.883 327.367C364.198 327.367 368.492 373.327 324.887 372.75C310.667 372.565 299.979 362.662 299.979 348.627C299.979 311.347 372.208 287.248 414.428 287.248C439.774 287.248 510.109 296.897 510.109 362.662L509.117 406.521L509.14 406.544ZM376.663 445.14C376.663 456.543 382.942 468.824 395.961 468.824C413.02 468.824 414.359 450.842 414.359 437.684C414.359 428.035 414.797 417.07 402.24 417.07C386.982 417.07 376.663 431.105 376.663 445.14Z" fill="#ECECEC"/>
<path d="M655.882 436.16C655.882 478.703 670.817 471.247 670.817 487.891C670.817 515.083 612.416 514.206 594.41 514.206C576.405 514.206 533.978 514.206 533.978 487.891C533.978 466.838 552.26 485.698 553.576 442.716L555.33 376.951C556.207 344.495 529.43 352.09 529.43 328.845C529.43 305.599 633.376 283.67 642.147 283.67C651.796 283.67 657.96 292.003 657.96 300.775C657.96 303.406 657.521 306.038 657.521 308.669C657.521 313.933 656.782 323.004 663.361 323.004C670.379 323.004 674.349 313.794 683.121 304.584C691.893 295.812 705.073 286.602 730.096 286.602C832.564 286.602 805.625 375.612 810.011 442.254C812.204 476.903 830.209 469.008 830.209 487.867C830.209 495.762 831.964 514.183 749.417 514.183C733.605 514.183 691.454 515.06 691.454 490.499C691.454 474.71 705.95 482.166 708.143 453.658C710.336 422.518 717.054 355.737 681.366 355.321C657.913 355.321 655.905 382.629 655.905 402.366V436.137L655.882 436.16Z" fill="#ECECEC"/>
<path d="M1052.5 406.544C1052.5 483.713 1079.19 441.631 1079.19 465.292C1079.19 490.291 1044.52 517.461 1012.06 517.461C976.929 517.461 976.052 495.093 964.926 495.093C959.593 495.093 953.799 500.794 944.035 506.058C934.247 511.759 920.928 517.461 900.453 517.461C863.542 517.461 826.655 498.163 826.655 454.766C826.655 423.626 856.894 385.053 935.125 385.053C948.906 385.053 955.138 385.93 955.138 370.141C955.138 355.668 954.699 327.367 934.247 327.367C907.563 327.367 911.856 373.327 868.251 372.75C854.032 372.565 843.344 362.662 843.344 348.627C843.344 311.347 915.573 287.248 957.793 287.248C983.138 287.248 1053.47 296.897 1053.47 362.662L1052.48 406.521L1052.5 406.544ZM920.028 445.14C920.028 456.543 926.307 468.824 939.326 468.824C956.385 468.824 957.723 450.842 957.723 437.684C957.723 428.035 958.162 417.07 945.605 417.07C930.346 417.07 920.028 431.105 920.028 445.14Z" fill="#ECECEC"/>
<path d="M1594.07 406.544C1594.07 483.713 1620.59 441.631 1620.59 465.292C1620.59 490.291 1586.13 517.461 1553.88 517.461C1518.98 517.461 1518.08 495.093 1507.04 495.093C1501.73 495.093 1495.99 500.794 1486.27 506.058C1476.55 511.759 1463.3 517.461 1442.96 517.461C1406.28 517.461 1369.63 498.163 1369.63 454.766C1369.63 423.626 1399.68 385.053 1477.43 385.053C1491.12 385.053 1497.3 385.93 1497.3 370.141C1497.3 355.668 1496.86 327.367 1476.53 327.367C1450.03 327.367 1454.27 373.327 1410.95 372.75C1396.82 372.565 1386.2 362.662 1386.2 348.627C1386.2 311.347 1457.97 287.248 1499.96 287.248C1525.14 287.248 1595.04 296.897 1595.04 362.662L1594.07 406.521V406.544ZM1462.42 445.14C1462.42 456.543 1468.68 468.824 1481.61 468.824C1498.57 468.824 1499.89 450.842 1499.89 437.684C1499.89 428.035 1500.33 417.07 1487.84 417.07C1472.67 417.07 1462.4 431.105 1462.4 445.14H1462.42Z" fill="#ECECEC"/>
<path d="M1199.22 436.16C1199.22 478.703 1214.16 471.247 1214.16 487.891C1214.16 515.083 1155.76 514.206 1137.75 514.206C1119.75 514.206 1077.32 514.206 1077.32 487.891C1077.32 466.838 1095.6 485.698 1096.92 442.716L1098.67 376.951C1099.55 344.495 1072.77 352.09 1072.77 328.845C1072.77 305.599 1176.72 283.67 1185.49 283.67C1195.14 283.67 1201.3 292.003 1201.3 300.775C1201.3 303.406 1200.86 306.038 1200.86 308.669C1200.86 313.933 1200.12 323.004 1206.7 323.004C1213.72 323.004 1217.69 313.794 1226.46 304.584C1235.23 295.812 1248.42 286.602 1273.44 286.602C1375.91 286.602 1348.97 375.612 1353.35 442.254C1355.55 476.903 1373.55 469.008 1373.55 487.867C1373.55 495.762 1375.31 514.183 1292.76 514.183C1276.95 514.183 1234.8 515.06 1234.8 490.499C1234.8 474.71 1249.29 482.166 1251.49 453.658C1253.68 422.518 1260.4 355.737 1224.71 355.321C1201.26 355.321 1199.25 382.629 1199.25 402.366V436.137L1199.22 436.16Z" fill="#ECECEC"/>
<path d="M1761.52 283.462C1765.76 280.784 1769.6 280.784 1773.64 280.784C1794.3 280.784 1814.91 322.496 1814.91 340.755C1814.91 352.782 1804.59 361.692 1792.91 361.692C1759.07 360.099 1754.85 329.121 1738.87 329.052C1730.79 329.052 1726.06 335.354 1726.06 343.802C1726.06 372.311 1824.81 377.643 1824.81 446.663C1824.81 488.514 1783.95 517.46 1737.28 517.46C1728.3 517.46 1715.28 516.121 1704.06 514.344C1692.84 513.005 1682.96 511.666 1680.26 511.666C1677.12 511.666 1674.42 512.105 1671.28 512.567C1668.58 513.005 1665.91 513.467 1662.74 513.467C1653.76 513.467 1649.29 512.128 1642.98 504.995C1631.76 492.53 1620.55 467.138 1620.55 450.218C1620.55 438.63 1624.59 429.281 1637.6 429.281C1657.36 429.281 1675.3 473.371 1700.46 473.371C1709.44 473.371 1717.96 468.916 1717.96 459.128C1717.96 432.859 1626.18 433.782 1626.18 360.307C1626.18 315.779 1666.78 283.67 1713.02 283.67C1722 283.67 1731.42 284.57 1739.96 286.347C1739.96 286.347 1751.89 289.487 1761.47 283.462H1761.52Z" fill="#ECECEC"/>
</g>
<defs>
<clipPath id="clip0_1162_2779">
<rect width="1824.62" height="315.484" fill="white" transform="translate(0.23877 202)"/>
</clipPath>
</defs>
</svg>
