<svg width="1825" height="720" viewBox="0 0 1825 720" fill="none" xmlns="http://www.w3.org/2000/svg">
<g clip-path="url(#clip0_1215_2634)">
<path d="M726.19 275.602V318.513H632.159V7.58789H670.697V275.602H726.19Z" fill="#ECECEC"/>
<path d="M466.485 403.43H427.948V717.955H466.485V403.43Z" fill="#ECECEC"/>
<path d="M712.916 717.884L674.369 718.037L673.138 403.501L711.686 403.358L712.916 717.884Z" fill="#ECECEC"/>
<path d="M1014.88 714.304V714.141L1014.72 672.918L1013.65 400.246L1052.2 400.104L1053.26 672.766L1104.91 672.573L1105.08 713.958L1014.88 714.304Z" fill="#ECECEC"/>
<path d="M1191.84 713.999L1111.9 714.315L1111.74 672.929H1111.75L1110.69 400.247L1188.68 399.941L1188.83 437.706L1149.38 437.859L1149.68 512.666L1189.15 512.513L1189.3 551.824L1149.83 551.976L1150.3 672.777L1191.67 672.614L1191.84 713.999Z" fill="#ECECEC"/>
<path d="M1528.98 713.979L1442.83 714.314L1442.68 672.918H1442.69L1439.9 400.246H1439.91L1439.9 396.93L1525.53 396.595L1525.68 434.359L1480.3 434.532L1480.6 509.634L1527.55 509.451L1527.7 548.762L1480.75 548.945L1481.24 672.766L1528.82 672.583L1528.98 713.979Z" fill="#ECECEC"/>
<path d="M1276.57 435.275L1277.65 711.802L1239.1 711.955L1238.02 435.427L1200.2 435.58L1200.04 397.927L1310.14 397.5L1310.3 435.143L1276.57 435.275Z" fill="#ECECEC"/>
<path d="M882.761 400.786L844.214 400.928L845.367 715.451L883.914 715.31L882.761 400.786Z" fill="#ECECEC"/>
<path d="M1392.73 433.078L1393.82 711.527L1355.28 711.67L1354.19 433.23L1316.52 433.383L1316.38 397.927L1426.48 397.5L1426.62 432.946L1392.73 433.078Z" fill="#ECECEC"/>
<path d="M1188.15 0.0136881L1149.62 0.551758L1153.96 311.437L1192.49 310.898L1188.15 0.0136881Z" fill="#ECECEC"/>
<path d="M1114.85 157.548C1126.27 152.869 1134.42 140.837 1134.42 127.95V40.3991C1134.42 18.6943 1116.82 1.09863 1095.13 1.09863H1023.79V311.993H1061.67V180.758H1075.86C1085.67 180.758 1095.13 189.19 1095.13 205.951V311.993H1134.85V195.526C1134.85 178.978 1126.74 164.973 1114.85 157.548ZM1094.97 121.573C1094.97 130.107 1088.04 137.033 1079.51 137.033H1061.5V36.3612H1077.19C1087 36.3612 1094.97 44.3251 1094.97 54.14V121.573Z" fill="#ECECEC"/>
<path d="M643.113 546.128C652.277 541.409 658.583 531.838 658.583 520.873V440.126C658.583 419.856 642.147 403.43 621.887 403.43H550.548V717.955H618.062C640.347 717.955 659.875 699.719 659.875 677.434V575.217C659.875 563.368 652.939 552.83 643.113 546.128ZM588.262 442.15H602.104C609.956 442.15 616.323 448.517 616.323 456.369V510.163C616.323 516.734 611.004 522.063 604.433 522.063H588.262V442.15ZM617.188 664.385C617.188 670.956 611.868 676.285 605.298 676.285H589.126V566.266H599.328C609.193 566.266 617.188 574.261 617.188 584.126V664.385Z" fill="#ECECEC"/>
<path d="M960.914 4.12988H888.914V315.045H949.757C982.355 315.045 1008.77 288.631 1008.77 256.043V51.9841C1008.77 25.56 987.349 4.12988 960.914 4.12988ZM967.586 245.171C967.586 274.046 950.55 269.764 929.527 269.764V39.484H936.718C953.764 39.484 967.586 41.6708 967.586 68.0948V245.171Z" fill="#ECECEC"/>
<path d="M363.189 405.881H296V720H352.042C391.83 720 411.043 708.141 411.043 660.988V453.745C411.043 427.311 389.623 405.881 363.189 405.881ZM372.984 653.594C372.984 682.398 356.7 678.126 336.613 678.126V448.314H343.488C359.782 448.314 372.984 450.501 372.984 476.874V653.594Z" fill="#ECECEC"/>
<path d="M814.921 7.58789H790.094L734.245 315.716H771.725L785.13 251.792H821.125L835.405 315.716H875.123L814.921 7.58789ZM790.928 212.491L802.512 148.364L814.524 212.491H790.928Z" fill="#ECECEC"/>
<path d="M836.005 617.843V673.671C836.005 698.133 816.172 717.956 791.721 717.956H775.163C748.901 717.956 727.603 696.668 727.603 670.407V442.903C727.603 419.663 746.44 400.826 769.68 400.826H794.03C817.209 400.826 834.276 419.612 834.276 442.802V484.584H794.375L793.572 447.734C793.48 443.605 789.676 440.31 785.557 440.31H777.339C772.549 440.31 768.673 444.195 768.673 448.986V666.359C768.673 671.841 773.108 676.285 778.59 676.285H788.771C793.826 676.285 797.915 672.197 797.915 667.142L798.139 617.843H836.005Z" fill="#ECECEC"/>
<path d="M936.575 448.121V663.328C936.575 668.81 941.01 673.254 946.492 673.254H958.839C963.894 673.254 967.983 669.166 967.983 664.111L968.197 615.677H1002.6V671.505C1002.6 695.966 982.883 714.06 961.789 714.06H945.231C918.969 714.06 897.671 696.668 897.671 670.407V442.903C897.671 419.663 916.508 400.826 939.749 400.826H964.098C987.277 400.826 1002.6 419.612 1002.6 442.802V483.282H964.006L963.813 446.87C963.813 441.357 957.578 439.445 953.459 439.445H945.241C940.45 439.445 936.575 443.33 936.575 448.121Z" fill="#ECECEC"/>
</g>
<defs>
<clipPath id="clip0_1215_2634">
<rect width="1232.98" height="720" fill="white" transform="translate(296)"/>
</clipPath>
</defs>
</svg>
