<svg width="1825" height="720" viewBox="0 0 1825 720" fill="none" xmlns="http://www.w3.org/2000/svg">
<g clip-path="url(#clip0_647_2441)">
<path d="M135.665 197.728C133.26 194.714 129.636 186.857 129.636 186.857L124.81 177.813L112.736 165.739L84.9636 159.694L63.8299 156.07L43.3055 154.867L22.7811 152.446L2.86599 148.822L0.380615 164.216L2.86599 180.828V194.714C2.86599 200.133 5.2712 222.47 5.88052 227.312C6.48983 232.139 7.69244 236.356 9.50436 242.401C11.3163 248.43 13.1282 252.054 14.3308 256.287C15.5334 260.504 17.9546 265.94 17.9546 267.752V277.404C17.9546 285.261 16.1427 295.524 17.9546 299.148C19.7666 302.755 22.1878 314.236 22.1878 314.236V333.382C22.1878 333.382 21.5785 343.804 22.1878 345.616C22.7811 347.428 29.4194 370.374 29.4194 370.374L36.6671 374.591C36.6671 374.591 49.3506 359.502 51.1625 357.097C52.9744 354.676 62.018 348.647 63.8299 346.225C65.6418 343.804 75.2947 338.032 78.3253 333.382C81.3398 328.715 87.3688 322.077 88.5875 319.672C89.7901 317.251 100.662 307.598 102.474 305.177C104.285 302.755 106.081 297.336 107.3 295.524C108.503 293.712 118.765 278.014 118.765 278.014L130.23 240.589L135.665 221.876C135.665 221.876 135.072 215.238 135.665 212.207C136.275 209.193 138.087 200.743 135.665 197.728ZM88.2828 259.301V279.216C88.2828 281.028 82.847 288.885 81.9491 289.783C81.0351 290.697 71.3822 305.481 71.3822 305.481L68.6243 302.162L64.4392 282.231L55.9889 266.549V255.677L50.5532 247.227L44.5081 226.093L32.45 179.016V171.768L53.5677 175.087L68.6243 176.899L83.1517 182.03L83.4564 191.394C83.4564 191.394 86.1662 208.295 86.1662 209.193C86.1662 210.091 87.0802 240.589 88.2828 241.487C89.4854 242.401 88.2828 256.88 88.2828 259.301Z" fill="#ECECEC"/>
<path d="M237.694 261.707C237.694 261.707 236.475 252.358 236.171 251.156C235.882 249.937 234.664 240.284 234.07 238.617C233.461 236.965 228.939 228.515 228.025 227.007C227.127 225.5 224.097 220.658 224.401 219.15C224.706 217.643 225.62 210.7 225.62 210.7C225.62 210.7 223.808 203.757 223.503 202.25C223.199 200.743 222.589 195.916 221.691 191.683C220.777 187.466 217.763 179.016 217.458 177.813C217.17 176.594 214.748 170.87 214.444 169.956C214.139 169.058 212.039 164.52 211.429 162.708C210.82 160.896 207.501 152.751 207.501 152.751C207.501 152.751 203.877 142.489 204.182 141.286C204.486 140.083 205.096 134.038 205.096 134.038L204.486 130.414L194.833 128.907L181.252 131.328L172.786 131.024L166.452 131.922L162.235 131.184L156.799 182.639V220.658L153.785 229.717C153.785 229.717 154.378 239.386 153.785 241.182C153.175 242.994 148.942 283.45 148.942 283.45L144.116 316.641V328.122L153.175 333.382H159.814L162.235 312.424L165.859 299.741L178.221 317.555V325.701L185.469 327.513L194.224 325.396L200.253 320.57C200.253 320.57 206.298 308.8 207.196 307.886C208.11 306.989 212.937 302.755 212.937 302.755L216.865 302.467C216.865 302.467 219.88 306.684 220.489 308.191C221.082 309.698 223.199 313.627 224.401 316.353C225.62 319.063 229.228 323.969 230.446 326.374C231.649 328.796 233.766 330.896 233.766 330.896H237.389L241.302 325.701C241.302 325.701 243.114 317.251 243.114 316.353C243.114 315.455 247.956 303.06 247.956 303.06V295.219L237.694 261.707ZM186.672 275.897L171.888 288.581L162.828 278.623L167.655 253.866L171.888 212.817L188.788 238.617L199.05 261.707L186.672 275.897Z" fill="#ECECEC"/>
<path d="M255.942 125.523L247.94 148.838L239.634 179.176C239.634 179.176 247.78 195.932 247.78 198.642C247.78 201.352 269.058 220.834 269.058 220.834L282.639 241.214L294.858 245.287C294.858 245.287 299.845 258.724 300.294 261.738C300.742 264.753 304.366 275.624 304.366 278.334C304.366 281.044 303.468 289.206 304.366 290.553C305.264 291.899 304.366 295.539 304.366 295.539L293.495 285.582L293.944 280.146C293.944 280.146 293.046 273.812 292.132 272C291.218 270.188 272.185 248.012 272.185 248.012L265.418 255.709L262.243 268.842C262.243 268.842 260.88 280.611 260.88 281.974C260.88 283.337 260.431 288.612 260.431 288.612L294.842 315.021L298.915 319.094L316.12 321.355L326.526 313.21L331.048 305.513L339.194 286.047V266.132C339.194 263.422 340.557 252.101 341.006 250.738C341.455 249.375 345.078 241.23 345.078 241.23L334.207 222.886L310.668 204.093L292.324 184.178L276.258 167.422L264.488 160.174L265.851 146.593L269.924 145.695L277.62 155.653L289.839 169.234L299.796 162.9L307.044 148.87L307.942 142.536L255.877 125.556L255.942 125.523Z" fill="#ECECEC"/>
<path d="M505.377 101.985L497.264 96.7737C497.264 96.7737 486.392 91.3379 484.131 91.3379C481.87 91.3379 459.678 96.7737 458.332 97.6716C456.985 98.5695 446.562 114.428 446.562 114.428C446.562 114.428 424.835 140.228 422.574 190.031C420.313 239.835 437.07 276.956 493.656 292.798C493.656 292.798 512.224 296.871 528.964 285.999L534.4 274.679C534.4 274.679 537.575 261.097 538.922 260.183C540.269 259.269 553.866 236.195 553.866 236.195C553.866 236.195 558.853 227.825 558.853 223.4C558.853 218.974 552.054 216.264 538.473 221.251C538.473 221.251 490.481 238.007 467.391 175.969C467.391 175.969 455.75 144.91 488.413 115.775C493.399 111.333 498.675 109.521 503.469 114.139C503.533 114.203 503.614 114.268 503.678 114.348C508.953 119.559 517.339 110.724 505.377 101.937V101.985Z" fill="#ECECEC"/>
<path d="M686.056 251.156L674.287 214.933C674.287 214.933 673.822 206.788 670.663 202.25C667.488 197.728 663.415 195.21 661.154 188.54C658.893 181.886 647.573 152.911 647.124 148.822C646.659 144.749 640.325 121.659 640.325 121.659L636.252 108.078C636.252 108.078 629.919 88.1628 624.034 85.453C618.149 82.7271 605.915 83.6411 602.756 85.453C599.581 87.2489 586.449 85.453 586.449 85.453C586.449 85.453 576.491 85.453 576.042 94.0476C575.577 102.642 576.042 137.053 576.042 138.416C576.042 139.779 575.641 148.373 575.834 153.809C576.042 159.245 574.615 162.42 575.786 168.753C576.94 175.087 577.854 180.074 577.854 183.698C577.854 187.321 578.303 197.279 578.303 202.699C578.303 208.118 577.854 196.365 578.303 217.194C578.752 238.023 578.752 239.386 578.752 242.545C578.752 245.704 578.752 250.242 578.303 253.416C577.854 256.575 577.854 261.113 577.854 266.084C577.854 271.055 578.752 285.101 584.188 289.639C589.624 294.161 594.145 289.639 594.145 289.639V284.203C594.145 284.203 594.594 284.203 594.145 279.216C593.696 274.245 595.46 273.78 594.354 268.361C593.247 262.925 596.647 262.011 594.723 259.301L592.782 256.575L599.132 256.126L603.654 263.823C603.654 263.823 619.945 286.464 628.107 288.276C628.107 288.276 638.962 285.566 643.949 278.767C648.936 271.969 651.197 271.52 652.095 269.708C653.009 267.896 655.27 264.272 655.27 264.272C655.27 264.272 659.342 267.896 660.24 269.259C661.154 270.622 663.415 280.579 664.778 281.477C666.125 282.391 680.62 291.643 680.62 291.643C680.62 291.643 687.419 283.289 691.027 273.331C691.027 273.331 691.492 268.361 686.056 251.156ZM630.368 235.297C629.005 237.109 626.295 239.835 624.483 243.459C622.671 247.083 614.06 258.852 614.06 258.852L609.988 255.677C609.988 255.677 605.017 252.502 602.291 250.691C599.581 248.879 596.855 244.806 595.508 243.459C594.145 242.096 594.145 240.284 592.542 238.023C590.922 235.762 591.885 233.485 592.333 232.138C592.782 230.775 592.333 228.515 592.333 223.415C592.333 218.316 591.435 209.497 591.435 205.425C591.435 201.352 590.522 192.436 590.522 192.436L592.333 174.638C592.333 174.638 600.479 186.407 601.393 187.69C602.291 188.973 608.176 193.206 611.126 195.467C614.06 197.728 614.525 200.438 616.337 203.613C618.149 206.788 623.12 211.309 626.295 216.745C629.454 222.181 631.731 228.964 631.731 233.485C631.731 238.007 631.731 233.485 630.368 235.297Z" fill="#ECECEC"/>
<path d="M821.052 149.239C813.227 140.933 801.634 134.455 781.302 142.168C782.04 141.59 807.471 121.322 803.013 98.7295C803.013 98.7295 797.578 74.2766 769.517 73.972C769.517 73.972 716.089 71.2621 700.391 73.972C700.391 73.972 684.084 74.453 685.607 83.7371L705.522 206.178L715.175 267.751V274.39L721.22 286.464C721.22 286.464 808.577 241.839 828.348 190.464C833.768 176.386 831.411 160.223 821.052 149.239ZM740.398 155.893L739.323 156.679L734.192 154.258C734.192 154.258 732.685 147.619 732.076 145.807C731.482 143.995 730.264 141.59 729.366 139.778C728.468 137.966 726.656 132.226 724.844 130.719C723.032 129.211 724.844 127.4 724.844 126.502C724.844 125.604 719.104 114.427 718.206 112.006C717.292 109.585 716.682 104.759 716.682 103.556C716.682 102.353 713.973 96.9176 713.973 96.9176L711.263 89.3653C711.263 89.3653 714.871 87.2487 715.785 86.7676C716.682 86.2706 721.525 87.2487 725.437 86.8478C729.366 86.447 729.671 87.5533 733.599 86.9921C737.512 86.4149 738.426 87.858 740.831 87.2487C743.252 86.6554 746.571 87.2487 747.774 87.2487H756.833C758.341 87.2487 765.123 89.3653 765.123 89.3653C765.123 89.3653 764.979 92.3798 764.979 93.9031C764.979 95.4264 765.284 98.1202 764.979 100.846C764.674 103.556 763.776 105.368 762.862 108.078C761.964 110.804 761.66 110.804 760.457 112.904C759.255 115.021 759.255 116.239 758.341 119.254C757.427 122.268 755.631 123.166 754.123 126.502C752.6 129.821 752.312 129.821 751.702 131.921C751.093 134.038 748.688 138.271 747.18 141.286C745.657 144.3 745.962 144.3 743.861 147.026C743.06 148.036 742.867 149.191 742.931 150.217C743.06 152.43 742.194 154.578 740.398 155.893ZM790.939 171.158C789.737 172.97 789.432 174.782 789.432 177.813V185.654C789.432 186.552 783.996 198.032 783.996 198.032C783.996 198.032 782.794 201.352 782.184 202.25C781.575 203.163 780.068 207.99 779.474 209.193C778.865 210.395 777.358 212.816 775.85 214.933C774.343 217.05 767.336 225.195 767.512 227.312C767.705 229.412 765.123 232.731 765.123 232.731C765.123 232.731 758.934 220.657 758.341 219.455C757.731 218.252 754.123 208.888 753.209 206.483C752.312 204.061 750.195 193.495 749.586 191.683C748.992 189.871 743.557 181.725 743.557 181.725C743.557 181.725 752.905 172.377 754.412 171.158C755.919 169.956 763.135 165.739 765.123 164.825C767.096 163.927 771.922 162.419 773.429 161.505C774.936 160.607 778.56 159.389 780.068 158.796C781.575 158.186 783.691 156.07 785.199 156.679C786.706 157.288 788.823 156.679 788.823 156.679L790.939 164.825C790.939 164.825 792.142 169.346 790.939 171.158Z" fill="#ECECEC"/>
<path d="M849.049 75.9444V207.236C849.049 207.236 849.947 223.993 849.049 228.964C848.151 233.934 850.716 237.558 847.991 242.994C845.265 248.43 844.976 258.531 844.976 260.808C844.976 263.085 847.991 268.649 847.991 268.649L852.977 270.317L858.108 265.635L866.254 258.836C866.254 258.836 871.69 253.4 876.661 250.691C881.631 247.981 888.43 244.357 890.242 242.096C892.054 239.835 897.49 236.66 897.49 236.66C897.49 236.66 899.302 234.399 896.592 229.412C893.882 224.426 894.331 223.977 893.417 216.729C892.503 209.481 892.054 207.22 891.605 203.597C891.156 199.973 890.707 192.581 889.793 187.674C888.879 182.768 888.895 183.217 887.083 177.332C885.271 171.447 884.373 170.084 883.908 165.562C883.443 161.041 883.01 165.194 883.01 156.551C883.01 147.908 882.561 145.647 882.561 140.66C882.561 135.674 882.561 137.486 882.112 133.413C881.663 129.34 881.214 128.426 881.214 126.165V121.627C881.214 117.121 880.316 115.759 879.851 113.049C879.386 110.339 878.954 108.976 878.954 107.164C878.954 105.352 878.505 103.989 878.505 99.0183C878.505 94.0476 877.607 82.7271 877.607 81.3641C877.607 80.0012 875.346 72.7695 875.346 72.7695L849.081 75.9444H849.049Z" fill="#ECECEC"/>
<path d="M925.246 69.7549L916.491 68.2477L910.766 75.8C910.766 75.8 913.476 83.9456 914.07 84.8596C914.663 85.7736 916.779 92.7006 916.779 95.4265V109.922C916.779 111.734 916.17 117.17 916.475 118.677C916.779 120.184 917.084 127.127 917.982 128.939C918.88 130.751 917.084 136.491 917.982 139.506C918.88 142.52 923.706 233.533 922.359 243.026C921.013 252.518 921.462 270.349 921.462 270.349L925.23 276.987L959.031 237.606L956.77 223.111C956.77 223.111 955.872 206.82 955.872 204.543C955.872 202.266 945.466 154.29 947.277 150.666C949.089 147.042 970.816 175.568 970.816 175.568C970.816 175.568 981.223 191.603 983.035 194.681C984.847 197.76 989.834 207.268 994.355 212.239C998.877 217.21 1029.66 246.201 1040.09 257.97H1044.61L1049.13 239.402C1049.13 239.402 1053.65 215.863 1054.12 214.5C1054.58 213.137 1059.1 187.706 1059.1 187.706C1059.1 187.706 1076.76 130.703 1078.57 121.659L1084.45 99.0343L1091.25 83.7372L1096.69 72.7695V61L1077.67 64.1749L1059.57 65.5378L1042.36 67.3497L1038.29 88.6278C1038.29 88.6278 1037.84 109.457 1037.84 113.53C1037.84 117.602 1038.29 156.695 1038.29 156.695L1035.58 194.665L1033.77 218.108L1020.19 190.945L991.661 133.894L982.153 109.441L971.281 86.6234L964.034 68.2477L947.277 67.3497L935.957 70.9736L925.246 69.771V69.7549Z" fill="#ECECEC"/>
<path d="M1117.07 61.0004L1106.2 133.445L1103.49 152.013L1087.65 247.083L1083.57 257.955V268.826L1090.82 271.536L1117.08 268.826C1117.08 268.826 1146.06 263.39 1147.42 263.839C1148.79 264.288 1186.35 258.404 1186.35 258.404L1226.2 259.301L1228.91 190.481L1138.36 239.835L1135.65 168.978H1197.68L1199.49 152.446L1209.89 137.053L1208.08 132.066L1136.55 148.822L1139.26 83.6254L1216.68 109.425L1220.75 103.54L1213.5 73.6518L1146.49 63.2453L1117.07 60.9844V61.0004Z" fill="#ECECEC"/>
<path d="M1256.06 82.2782V89.5258L1298.16 114.428L1288.21 166.268C1288.21 166.268 1264.67 242.096 1263.75 243.459C1262.84 244.822 1243.37 290.088 1243.37 290.088L1246.08 296.422L1265.1 285.55L1275.51 284.187L1308.11 258.836L1323.95 124.818L1350.66 130.254L1385.52 105.801L1393.22 102.626V95.8275L1256.04 82.2461L1256.06 82.2782Z" fill="#ECECEC"/>
<path d="M1578.87 142.488L1571.17 135.24L1533.59 111.701L1521.14 102.193L1505.53 97.6709L1479.71 195.001C1479.71 195.001 1477 209.946 1476.55 211.309C1476.09 212.672 1458.43 268.809 1458.43 268.809L1452.1 284.202V296.421H1458.88C1458.88 296.421 1475.19 281.477 1478.81 279.665C1482.44 277.869 1533.59 251.604 1533.59 251.604L1575 203.147L1587.46 175.535L1590.19 166.267L1578.87 142.488ZM1546.27 172.377C1545.36 174.637 1543.09 184.146 1541.73 185.509C1540.37 186.872 1540.38 190.48 1539.47 194.104C1538.57 197.727 1533.14 208.599 1533.14 208.599C1533.14 208.599 1527.7 221.266 1527.25 224.441C1526.8 227.6 1524.08 234.848 1523.63 237.109C1523.18 239.386 1517.29 243.907 1517.29 243.907C1517.29 243.907 1508.24 248.878 1505.06 248.878C1501.89 248.878 1505.06 243.458 1505.06 243.458V235.762C1505.06 235.762 1509.13 215.831 1508.68 213.121C1508.24 210.395 1511.86 197.054 1511.86 197.054L1508.68 182.334L1521.14 130.269L1534.5 140.676L1540.38 148.822L1550.34 157.432C1550.34 157.432 1547.17 170.116 1546.27 172.377Z" fill="#ECECEC"/>
<path d="M1616.89 118.067L1600.59 170.116L1584.75 235.762L1573.43 271.535L1567.1 286.48L1558.5 299.612L1563.94 310.484H1573.45L1587.7 308.223C1587.7 308.223 1602.87 306.411 1604.23 306.411C1605.6 306.411 1654.04 301.424 1654.04 301.424L1669.43 278.783L1679.39 268.377L1675.77 257.97L1656.75 265.218L1634.56 272.465L1615.09 278.799L1610.1 276.987L1615.54 261.594L1618.94 232.619L1621.89 207.268L1632.76 212.015L1667.62 230.358L1695.23 205.456L1702.03 201.384V197.086L1684.83 189.614L1667.62 192.324L1630.28 186.439L1641.82 139.81L1647.7 140.708L1678.49 169.683L1696.15 164.696L1712.9 147.94L1660.39 125.748L1641.37 121.9L1616.92 118.067H1616.89Z" fill="#ECECEC"/>
<path d="M1704.13 275.448L1700.35 290.087V299.452L1733.84 330.847H1740.18L1752.56 325.412C1752.56 325.412 1761.62 318.469 1762.21 317.571C1762.8 316.673 1780.7 294.176 1780.7 294.176C1780.7 294.176 1777.01 262.043 1777.01 261.129C1777.01 260.215 1774.3 252.374 1772.78 248.91C1771.25 245.447 1768.85 239.097 1767.04 234.88C1765.22 230.663 1762.8 216.328 1762.51 214.291C1762.22 212.255 1760.7 196.845 1760.7 195.338C1760.7 193.831 1758.28 175.118 1758.28 175.118H1760.99L1775.49 185.685C1775.49 185.685 1788.17 198.657 1789.07 199.267C1789.96 199.876 1801.45 212.543 1801.45 212.543L1807.78 214.291L1821.67 197.086L1824.98 189.614L1818.04 177.844L1806.27 169.394L1791.78 164.263L1760.09 150.377L1749.83 153.696L1741.07 166.38L1729.61 186.295L1720.25 200.79L1721.14 222.212L1729.9 265.073L1734.73 280.771L1738.65 291.338C1738.65 291.338 1741.97 304.021 1738.96 307.629C1735.94 311.237 1733.52 314.572 1728.09 304.919C1722.65 295.266 1719.94 282.583 1719.94 282.583C1719.94 282.583 1716.94 276.346 1713.09 272.738C1710.1 269.916 1705.13 271.503 1704.1 275.48L1704.13 275.448Z" fill="#ECECEC"/>
<path d="M362.636 444.63L315.559 436.164H273.307L264.857 450.05L269.074 466.357L273.307 507.406L277.524 541.207L282.351 587.083C282.351 587.083 287.786 602.781 287.786 604.593V639.003L292.388 656.513L300.47 659.527L314.356 645.032C314.356 645.032 332.459 622.696 333.662 620.884C334.88 619.072 362.043 594.94 362.043 594.94L390.409 533.96L397.656 503.782C397.656 503.782 405.353 475.257 405.353 464.994C405.353 454.732 362.636 444.63 362.636 444.63ZM349.215 488.838C349.664 493.825 349.215 495.637 349.215 498.796C349.215 501.954 349.215 505.145 350.835 509.218C352.47 513.291 349.664 511.928 350.466 516.001C351.268 520.074 350.578 522.8 350.21 529.133C349.857 535.467 351.027 534.569 350.113 540.005C349.215 545.441 350.578 546.787 350.113 550.86C349.664 554.933 349.215 555.847 347.403 560.369C345.592 564.907 348.301 565.805 347.403 568.065C346.489 570.326 347.403 573.501 347.403 576.227C347.403 578.953 345.143 581.198 345.143 582.561V590.257L338.793 597.04H335.105C335.105 597.04 334.271 591.155 335.105 589.344C335.939 587.532 332.459 582.561 331.561 580.749C330.647 578.937 332.01 575.762 331.561 573.501C331.096 571.24 328.835 565.356 327.937 563.544C327.023 561.732 325.676 557.659 325.211 555.847C324.762 554.035 320.69 547.236 319.792 545.44C318.878 543.629 316.617 538.642 315.703 537.279C314.805 535.932 313.442 527.77 312.993 523.697C312.544 519.625 310.732 512.377 310.732 509.218C310.732 506.059 305.296 490.65 304.847 488.389C304.398 486.128 301.673 476.171 301.673 476.171L295.339 456.688V448.543H309.369L323.351 451.718H335.105C338.2 454.428 351.364 461.226 351.364 461.226C351.364 461.226 348.301 469.821 348.301 476.171C348.301 482.52 348.766 483.867 349.215 488.838Z" fill="#ECECEC"/>
<path d="M528.05 592.518C527.585 591.155 518.093 576.676 518.093 576.676L506.307 565.355L498.162 544.975L490.593 537.278L484.58 529.133L480.058 522.799L477.798 518.261C477.798 518.261 499.076 496.983 501.786 492.461C504.495 487.94 510.396 481.59 510.396 481.59L515.367 474.567L518.093 464.85L505.409 453.978L476.435 444.918L465.339 441.295L439.763 439.034L431.153 438.44L425.268 448.542C425.268 448.542 433.43 544.526 405.353 608.809L394.032 631.001V641.408L399.468 644.582C399.468 644.582 407.165 640.959 409.426 639.596C411.687 638.249 418.084 632.813 422.366 631.001C426.631 629.189 433.43 624.667 437.502 620.595C441.575 616.506 448.823 609.723 451.533 606.548C454.243 603.389 458.78 597.04 458.315 597.04C457.85 597.04 451.982 545.889 451.982 545.889L465.114 531.394C465.114 531.394 472.811 531.859 472.362 535.017C471.913 538.192 472.378 544.526 472.378 544.526C472.378 544.526 486.392 572.603 487.306 583.009C488.204 593.416 490.593 607.911 490.593 607.911L497.264 618.783V627.826L499.525 635.523L508.119 633.711L535.506 608.809C535.506 608.809 528.499 593.881 528.05 592.518ZM477.044 465.748C477.044 467.255 475.232 472.995 475.232 472.995C475.232 472.995 473.26 478.431 472.811 481.141C472.362 483.867 469.187 492.012 467.375 496.085C465.563 500.158 466.012 501.97 464.777 504.68C463.527 507.406 460.592 514.653 459.678 516C458.78 517.363 456.68 522.799 456.68 522.799L450.619 525.509V516.465L445.648 497.448V472.995L442.922 459.863L445.648 452.166H452.591L459.983 454.587L469.187 456.095L477.044 459.718V465.748Z" fill="#ECECEC"/>
<path d="M555.806 578.792L550.371 600.07L541.006 614.854L536.773 630.857L540.397 639.002C540.397 639.002 546.731 641.424 548.543 640.814C550.355 640.205 567.255 626.928 567.255 626.928V613.347C567.255 613.347 570.879 606.099 571.777 604.592C572.675 603.085 576.299 594.939 576.299 594.939L575.096 590.417L566.951 582.865L562.124 578.792H555.79H555.806Z" fill="#ECECEC"/>
<path d="M763.857 540.357C764.787 541.127 765.524 542.105 765.973 543.227L767.176 546.242C767.897 548.038 767.849 550.058 767.031 551.822C764.947 556.36 760.97 565.002 760.762 565.676C760.457 566.574 745.978 588.317 745.978 588.317C728.163 610.348 711.567 607.943 711.567 607.943C629.774 590.738 634.906 497.175 634.906 497.175L636.717 477.549L647.284 452.198C656.039 424.121 679.883 397.568 700.103 395.147C713.556 393.543 720.547 401.464 723.706 406.948C725.053 409.273 723.93 412.224 721.397 413.106C710.525 416.826 683.876 430.359 684.116 473.637C684.405 526.647 715.448 547.476 758.036 538.914C760.104 538.497 762.253 539.058 763.873 540.389L763.857 540.357Z" fill="#ECECEC"/>
<path d="M886.618 548.599C886.618 548.599 878.473 513.74 878.024 511.03C877.559 508.304 870.327 490.201 868.964 485.679C867.601 481.141 851.31 431.337 850.396 429.077C849.498 426.816 848.584 394.217 845.425 389.23L833.656 386.521H819.609L809.652 390.144C809.652 390.144 806.477 389.695 803.767 390.144C801.057 390.593 794.707 392.854 792.895 392.854C791.083 392.854 783.852 394.907 783.852 394.907H780.116C777.262 394.907 774.936 397.232 774.936 400.086V427.12C774.936 431.947 773.734 437.383 774.936 442.209C776.155 447.035 778.56 459.11 778.56 459.11C778.56 459.11 777.967 472.996 778.56 475.417C779.17 477.822 778.56 541.512 778.56 541.512L778.833 587.692C778.833 587.692 784.301 601.578 792.142 602.476L796.07 597.345V588.59C796.07 587.387 794.563 582.256 794.563 578.937C794.563 575.618 793.649 553.586 793.649 552.672C793.649 551.758 806.028 565.355 806.332 566.253C806.637 567.167 818.711 581.951 819.914 582.561C821.116 583.154 837.119 593.128 837.119 593.128C837.119 593.128 849.193 574.704 849.498 571.384C849.802 568.065 854.02 571.385 855.832 576.227C857.643 581.053 862.47 587.387 863.384 588.894C864.282 590.402 869.413 598.259 872.139 600.969C874.849 603.678 885.72 610.028 885.72 610.028L896.88 603.085L899.59 586.489L886.618 548.599ZM822.335 538.786L808.754 547.541L790.634 528.828L793.649 507.999V476.315C795.461 482.055 807.84 493.825 809.203 495.027C810.566 496.23 816.29 506.797 816.899 507.711C817.493 508.609 827.755 531.859 827.755 531.859L822.335 538.786Z" fill="#ECECEC"/>
<path d="M900.52 388.107L910.766 457.297L919.81 560.529V583.955C919.81 585.976 920.564 587.916 921.926 589.407L927.779 595.837C930.216 598.515 934.129 599.252 937.384 597.649L986.835 573.196L994.067 562.854C996.905 558.797 995.397 553.169 990.908 551.084C990.619 550.94 990.282 550.94 989.978 551.084L962.975 563.543L953.916 511.927L941.232 439.194C941.232 439.194 937.304 389.39 936.406 383.954C935.508 378.519 930.97 375.2 924.332 376.402C920.211 377.156 911.648 379.064 905.764 380.411C902.268 381.213 899.975 384.564 900.504 388.107H900.52Z" fill="#ECECEC"/>
<path d="M1015.02 380.972L1012.78 394.922V443.427C1012.78 443.427 1013.98 467.575 1014.29 470.59C1014.59 473.604 1015.18 484.476 1015.79 489.912C1016.4 495.348 1015.79 497.32 1015.79 501.473C1015.79 505.626 1013.98 509.843 1012.78 520.698C1011.58 531.554 1012.78 543.644 1012.78 543.644L1009.16 567.792L1016.07 588.926H1021.84C1021.84 588.926 1030.9 581.085 1032.71 580.476C1034.52 579.866 1044.78 572.635 1047.8 569.604C1050.81 566.574 1059.26 562.357 1059.26 562.357C1059.26 562.357 1061.22 549.673 1059.26 547.573C1057.31 545.472 1057.31 535.947 1057.31 533.687C1057.31 531.426 1055.94 507.887 1055.5 506.075C1055.05 504.263 1053.68 494.305 1053.23 491.13C1052.79 487.956 1052.79 480.724 1052.34 478.447C1051.89 476.17 1052.34 473.46 1050.52 472.562C1048.71 471.664 1046 469.387 1046 469.387C1046 469.387 1045.11 464.866 1045.55 463.503C1046 462.14 1049.18 456.704 1049.18 456.704C1049.18 456.704 1049.63 453.08 1049.18 449.007C1048.73 444.934 1046.47 439.05 1046 436.324C1045.54 433.598 1044.64 431.802 1044.64 428.178C1044.64 424.554 1045.09 422.293 1045.09 419.584C1045.09 416.874 1045.54 417.772 1045.09 414.148C1044.64 410.524 1044.19 409.626 1043.28 406.451C1042.36 403.276 1042.38 402.827 1042.38 401.015C1042.38 399.204 1042.83 402.827 1042.38 399.204L1041.48 391.956L1041.03 384.259L1041.48 379.737C1041.48 379.737 1033.38 373.227 1021.25 374.911C1018.07 375.344 1015.55 377.813 1015.06 380.972H1015.02Z" fill="#ECECEC"/>
<path d="M1188.46 398.145C1188.46 398.145 1178.8 377.733 1175.18 376.162C1171.55 374.59 1163.1 366.749 1151.64 370.373C1140.17 373.997 1116.62 383.778 1116.62 383.778C1116.62 383.778 1089.15 418.958 1083.57 487.33C1083.57 487.33 1079.8 534.568 1100.33 559.919L1102.67 568.37C1102.67 568.37 1117.84 579.305 1123.87 587.756C1123.87 587.756 1125.07 602.78 1118.43 610.028C1118.43 610.028 1118.91 626.319 1135.88 610.028C1135.88 610.028 1153.45 591.924 1167.32 567.776C1167.32 567.776 1193.28 532.756 1198.11 530.961L1204.14 518.886L1190.86 511.943C1190.86 511.943 1154.04 523.713 1136.53 476.33C1136.53 476.33 1122.07 424.298 1138.75 391.571C1142.96 383.297 1154.27 381.485 1160.47 388.412C1162.43 390.593 1164.36 393.559 1166.12 397.552C1166.12 397.552 1167.02 405.393 1157.97 412.641L1157.08 417.467L1163.1 421.396L1188.46 398.161V398.145Z" fill="#ECECEC"/>
<path d="M1319.89 567.616C1318.99 565.355 1315.82 557.21 1315.82 553.586C1315.82 549.962 1314.01 548.15 1314.92 543.163C1315.82 538.193 1315.82 535.932 1315.82 531.394C1315.82 526.856 1316.27 521.436 1315.82 519.176C1315.37 516.915 1314.92 510.565 1314.46 509.218C1314.01 507.855 1307.67 456.239 1307.67 456.239C1307.67 456.239 1307.22 448.992 1306.31 445.833C1305.41 442.658 1304.95 441.295 1304.05 436.324C1303.14 431.337 1302.24 430.889 1302.24 427.265C1302.24 423.641 1302.69 423.192 1302.24 418.67C1301.79 414.132 1300.43 410.508 1299.53 405.538C1298.61 400.551 1299.06 386.969 1298.61 385.158C1298.16 383.346 1289.55 381.999 1289.55 381.999C1289.55 381.999 1282.77 379.273 1280.96 379.273C1279.15 379.273 1269.19 379.722 1266.02 379.722H1253.35L1245.19 378.15L1242.68 379.016C1241.72 379.353 1241.03 380.203 1240.89 381.213C1239.41 391.988 1231.12 452.295 1230.71 453.53C1230.26 454.892 1215.31 542.266 1213.05 550.411C1210.78 558.557 1205.64 577.574 1204.14 579.835C1202.63 582.112 1207.62 592.069 1207.62 592.069H1213.5C1217.57 586.634 1222.87 578.488 1222.48 575.762C1222.1 573.052 1223.91 564.906 1224.37 561.732C1224.82 558.557 1225.72 552.223 1225.72 549.962C1225.72 547.701 1226.17 544.975 1226.17 544.975L1230.71 547.701L1238.85 559.022C1238.85 559.022 1239.3 570.791 1243.37 577.574C1247.46 584.373 1251.98 583.01 1251.98 583.01L1261.04 576.676C1261.04 576.676 1267.83 575.313 1269.19 572.603C1270.55 569.877 1273.26 565.804 1273.71 564.441C1274.16 563.095 1276.44 560.369 1276.44 560.369L1280.96 563.993C1280.96 563.993 1280.51 569.428 1280.96 571.689C1281.41 573.95 1281.41 577.125 1283.67 581.198C1285.95 585.271 1286.4 585.72 1286.84 588.894C1287.29 592.069 1285.95 594.33 1286.84 596.142L1287.74 597.954L1291.83 602.476H1297.25C1297.25 602.476 1300.87 601.305 1301.79 598.499C1302.69 595.693 1303.6 593.416 1304.95 592.069C1306.31 590.706 1310.83 585.72 1312.64 583.459C1314.46 581.198 1319.89 578.023 1319.89 578.023C1319.89 578.023 1320.81 569.877 1319.89 567.616ZM1260.29 521.885C1259.38 522.799 1253.64 529.438 1253.04 530.64C1252.43 531.859 1244.29 540.903 1244.29 540.903L1240.66 534.874L1233.72 516.754C1233.72 516.754 1239.77 496.23 1239.77 494.723V486.882L1242.48 471.793L1249.42 431.947C1249.42 431.947 1256.36 457.602 1256.67 458.5C1256.96 459.414 1258.48 469.067 1258.77 469.981C1259.07 470.879 1259.99 482.055 1260.29 483.562C1260.58 485.07 1264.2 496.23 1264.51 498.042C1264.81 499.854 1266.02 516.161 1266.02 516.161L1260.29 521.885Z" fill="#ECECEC"/>
<path d="M1438.52 533.205L1435.34 523.697L1418.59 490.313C1418.59 490.313 1409.08 478.431 1406.37 477.517L1403.66 476.619C1403.66 476.619 1436.4 449.456 1436.85 427.264C1436.85 427.264 1440.78 384.708 1342.53 389.23L1344.79 450.803L1347.05 496.534C1347.05 496.534 1350.68 559.021 1337.55 584.372L1342.53 591.62L1351.13 594.779C1351.13 594.779 1372.87 578.022 1376.94 578.936L1382.83 578.022C1382.83 578.022 1381.46 534.568 1377.84 509.218L1374.68 493.343L1386.9 486.432C1386.9 486.432 1391.42 495.636 1390.52 503.782L1393.23 515.102C1393.23 515.102 1397.31 525.06 1398.67 530.945C1400.03 536.829 1402.74 557.209 1403.66 559.919C1404.55 562.629 1407.28 578.936 1408.18 580.299C1409.08 581.646 1416.32 598.852 1416.32 598.852V606.548H1435.79L1447.11 600.214L1467.04 584.821L1438.52 533.205ZM1397.92 414.132C1397.31 417.162 1396.41 418.67 1395.5 421.684C1394.6 424.699 1394.9 426.511 1393.99 430.134C1393.09 433.758 1392.18 435.875 1391.28 437.687C1390.36 439.499 1389.47 442.513 1388.55 444.63C1387.65 446.73 1387.04 451.557 1386.45 454.587C1385.84 457.602 1385.23 459.414 1384.64 462.124C1384.03 464.85 1379.2 469.981 1378.59 471.488C1378 472.995 1373.77 473.893 1373.77 473.893C1373.77 473.893 1373.46 471.488 1373.77 470.574C1374.07 469.676 1372.26 455.485 1372.26 455.485L1373.77 441.599L1372.26 409.61L1375.28 405.088C1378.29 403.87 1381.91 404.784 1386.45 405.088C1390.97 405.377 1397.92 407.493 1397.92 407.493C1397.92 407.493 1398.53 411.117 1397.92 414.132Z" fill="#ECECEC"/>
<path d="M1478.03 423.913C1477.08 422.454 1477.34 420.514 1478.64 419.36C1480.69 417.516 1483.49 414.998 1484.25 414.453C1485.45 413.555 1493.31 409.931 1494.81 409.017C1496.32 408.103 1508.4 401.769 1509.9 402.074C1511.41 402.379 1515.93 406.003 1515.93 406.003C1515.93 406.003 1515.63 414.758 1515.93 416.265C1516.24 417.772 1517.74 426.222 1518.05 428.644C1518.35 431.065 1520.16 436.18 1520.76 439.21C1521.35 442.241 1519.56 446.153 1520.76 451.285C1521.96 456.416 1522.57 461.242 1522.27 464.866C1521.96 468.49 1522.71 474.823 1522.35 477.838C1521.98 480.853 1523.18 484.476 1524.08 486.433C1524.98 488.389 1527.09 492.013 1527.7 493.231C1528.31 494.45 1529.21 496.551 1529.82 499.565C1530.43 502.58 1528.92 502.275 1529.82 506.813C1530.72 511.351 1528.9 510.741 1529.96 514.958C1531.02 519.175 1531.02 516.161 1531.02 519.191C1531.02 522.222 1533.14 525.525 1534.04 527.642C1534.93 529.758 1536.15 534.889 1535.85 536.092C1535.54 537.295 1522.87 555.109 1515.93 564.762C1508.99 574.415 1499.03 585.896 1499.03 585.896C1499.03 585.896 1496.91 593.448 1494.8 595.26C1492.68 597.072 1491.17 600.696 1489.06 602.508C1486.94 604.32 1481.51 608.537 1479.4 608.537H1471.85V594.041L1475.78 567.488C1475.78 567.488 1484.84 508.625 1484.23 493.536C1483.62 478.447 1484.84 440.413 1484.84 439.21C1484.84 438.008 1481.52 429.333 1481.52 429.333L1478.03 423.945V423.913Z" fill="#ECECEC"/>
<path d="M1568.75 545.135L1556.07 564.152C1556.07 564.152 1547.92 581.967 1547.01 582.865C1546.09 583.763 1539.76 593.127 1539.76 593.127L1548.21 599.156L1561.18 602.475L1578.69 610.621L1582.01 597.039C1582.01 597.039 1584.13 585.879 1583.82 584.661C1583.52 583.442 1580.2 574.094 1580.2 574.094C1580.2 574.094 1577.18 551.757 1577.18 550.86C1577.18 549.962 1575.07 546.931 1575.07 546.931L1568.73 545.119L1568.75 545.135Z" fill="#ECECEC"/>
</g>
<defs>
<clipPath id="clip0_647_2441">
<rect width="1824.62" height="598.527" fill="white" transform="translate(0.380615 61)"/>
</clipPath>
</defs>
</svg>
