<svg width="1825" height="720" viewBox="0 0 1825 720" fill="none" xmlns="http://www.w3.org/2000/svg">
<g clip-path="url(#clip0_1161_2501)">
<path d="M52.0516 285.546H0.23877V434.81H52.0516C98.9632 434.81 131.362 402.188 131.362 360.178V359.764C131.394 317.754 98.9632 285.546 52.0516 285.546ZM113.89 360.624C113.89 393.882 89.7973 419.279 52.0516 419.279H17.0748V301.141H52.0516C89.7973 301.141 113.89 327.143 113.89 360.21V360.624Z" fill="#ECECEC"/>
<path d="M306.437 330.325V329.911C306.437 317.977 302.395 307.951 294.916 300.472C285.527 291.084 271.047 285.546 252.492 285.546H188.299V434.81H205.135V376.823H247.782L291.065 434.81H311.752L265.891 373.831C289.347 369.789 306.405 355.054 306.405 330.325H306.437ZM205.167 361.674V301.141H251.219C275.311 301.141 289.378 312.025 289.378 330.58V330.994C289.378 350.185 273.179 361.706 250.996 361.706H205.135L205.167 361.674Z" fill="#ECECEC"/>
<path d="M390.649 285.546H373.813V434.81H390.649V285.546Z" fill="#ECECEC"/>
<path d="M521.168 414.155L468.082 285.546H449.305L513.498 435.892H528.424L592.586 285.546H574.477L521.168 414.155Z" fill="#ECECEC"/>
<path d="M668.713 367.243H750.188V351.871H668.713V300.918H759.768V285.546H651.877V434.842H760.85V419.47H668.713V367.243Z" fill="#ECECEC"/>
<path d="M968.547 367.021L914.156 285.546H897.097V434.842H913.519V314.126L967.878 393.882H968.738L1023.13 313.903V434.842H1039.96V285.546H1022.91L968.547 367.021Z" fill="#ECECEC"/>
<path d="M1163.23 360.178L1112.88 285.546H1092.41L1154.47 375.773V434.842H1171.53V375.55L1233.59 285.546H1213.96L1163.23 360.178Z" fill="#ECECEC"/>
<path d="M1397.34 421.825C1364.27 421.825 1339.54 394.741 1339.54 360.21V359.796C1339.54 325.456 1364.27 298.595 1397.34 298.595C1417.8 298.595 1431.46 307.124 1444.25 319.059L1455.77 306.679C1441.07 292.389 1424.65 283 1397.56 283C1353.83 283 1322.07 317.977 1322.07 360.178V360.592C1322.07 403.462 1353.83 437.356 1396.93 437.356C1423.79 437.356 1441.29 426.917 1456.63 411.132L1445.56 400.247C1431.27 413.901 1417.83 421.793 1397.37 421.793L1397.34 421.825Z" fill="#ECECEC"/>
<path d="M1562.58 284.496L1494.57 434.842H1511.85L1529.54 395.378H1610.8L1628.27 434.842H1646.41L1578.37 284.496H1562.58ZM1536.16 380.228L1570.28 304.1L1604.18 380.228H1536.16Z" fill="#ECECEC"/>
<path d="M1779.03 373.831C1802.48 369.789 1819.54 355.054 1819.54 330.325V329.911C1819.54 317.977 1815.5 307.951 1808.02 300.472C1798.63 291.084 1784.15 285.546 1765.6 285.546H1701.41V434.81H1718.24V376.823H1760.89L1804.17 434.81H1824.86L1779 373.831H1779.03ZM1718.24 361.674V301.141H1764.29C1788.39 301.141 1802.45 312.025 1802.45 330.58V330.994C1802.45 350.185 1786.25 361.706 1764.07 361.706H1718.21L1718.24 361.674Z" fill="#ECECEC"/>
</g>
<defs>
<clipPath id="clip0_1161_2501">
<rect width="1824.62" height="154.388" fill="white" transform="translate(0.23877 283)"/>
</clipPath>
</defs>
</svg>
