<svg width="1825" height="720" viewBox="0 0 1825 720" fill="none" xmlns="http://www.w3.org/2000/svg">
<g clip-path="url(#clip0_1153_2641)">
<path d="M164.086 505.265C66.6669 499.492 0 433.816 0 348.14C0 262.465 73.46 191 164.086 191C193.223 191 218.08 196.834 243.547 212.202C244.202 212.598 244.598 213.314 244.598 214.06V274.284C244.598 275.472 243.638 276.447 242.435 276.447H211.683C210.586 276.447 209.688 275.624 209.551 274.543C203.443 226.245 174.321 219.741 142.153 219.741C90.5037 219.741 48.6332 276.34 48.6332 346.145C48.6332 374.109 55.3501 399.972 66.7431 420.9C66.7735 420.96 66.804 421.006 66.8192 421.052C67.9768 423.839 103.557 506.072 240.135 488.237C242.709 487.902 243.608 491.542 241.155 492.41C222.741 498.914 192.796 506.956 164.086 505.25V505.265Z" fill="#ECECEC"/>
<path d="M453.28 232.993V419.666C453.28 420.854 454.24 421.829 455.443 421.829H470.644C471.832 421.829 472.807 422.788 472.807 423.992V438.278C472.807 439.467 471.847 440.441 470.644 440.441H387.131C385.943 440.441 384.968 439.482 384.968 438.278V423.992C384.968 422.804 385.928 421.829 387.131 421.829H402.317C403.505 421.829 404.48 420.869 404.48 419.666V339.337C404.48 338.149 403.52 337.174 402.317 337.174H333.38C332.192 337.174 331.218 338.133 331.218 339.337V419.666C331.218 420.854 332.177 421.829 333.38 421.829H348.901C350.089 421.829 351.064 422.788 351.064 423.992V438.278C351.064 439.467 350.104 440.441 348.901 440.441H265.388C264.2 440.441 263.226 439.482 263.226 438.278V423.992C263.226 422.804 264.185 421.829 265.388 421.829H280.285C281.473 421.829 282.447 420.869 282.447 419.666V232.993C282.447 231.804 281.488 230.83 280.285 230.83H265.388C264.2 230.83 263.226 229.87 263.226 228.667V214.395C263.226 213.207 264.185 212.232 265.388 212.232H348.901C350.089 212.232 351.064 213.192 351.064 214.395V228.667C351.064 229.855 350.104 230.83 348.901 230.83H333.38C332.192 230.83 331.218 231.789 331.218 232.993V312.24C331.218 313.428 332.177 314.403 333.38 314.403H402.317C403.505 314.403 404.48 313.444 404.48 312.24V232.993C404.48 231.804 403.52 230.83 402.317 230.83H387.131C385.943 230.83 384.968 229.87 384.968 228.667V214.395C384.968 213.207 385.928 212.232 387.131 212.232H470.644C471.832 212.232 472.807 213.192 472.807 214.395V228.667C472.807 229.855 471.847 230.83 470.644 230.83H455.443C454.255 230.83 453.28 231.789 453.28 232.993Z" fill="#ECECEC"/>
<path d="M1274.35 233.647V419.666C1274.35 420.854 1275.31 421.829 1276.51 421.829H1291.71C1292.9 421.829 1293.87 422.788 1293.87 423.992V438.278C1293.87 439.466 1292.91 440.441 1291.71 440.441H1208.2C1207.01 440.441 1206.04 439.482 1206.04 438.278V423.992C1206.04 422.804 1207 421.829 1208.2 421.829H1223.4C1224.59 421.829 1225.56 420.869 1225.56 419.666V233.647C1225.56 232.459 1224.6 231.485 1223.4 231.485H1208.2C1207.01 231.485 1206.04 230.525 1206.04 229.322V215.035C1206.04 213.847 1207 212.872 1208.2 212.872H1291.71C1292.9 212.872 1293.87 213.832 1293.87 215.035V229.322C1293.87 230.51 1292.91 231.485 1291.71 231.485H1276.51C1275.32 231.485 1274.35 232.444 1274.35 233.647Z" fill="#ECECEC"/>
<path d="M1384.41 297.298V419.651C1384.41 420.839 1385.37 421.813 1386.57 421.813H1402.15C1403.34 421.813 1404.32 422.773 1404.32 423.976V438.263C1404.32 439.451 1403.36 440.426 1402.15 440.426H1338.15C1336.96 440.426 1335.99 439.466 1335.99 438.263V423.976C1335.99 422.788 1336.95 421.813 1338.15 421.813H1353.35C1354.54 421.813 1355.51 420.854 1355.51 419.651V248.741C1355.51 248.3 1355.38 247.888 1355.13 247.523L1333.75 216.269C1332.77 214.837 1333.8 212.887 1335.53 212.887H1388.23C1388.93 212.887 1389.6 213.238 1390 213.816L1487.16 353.974C1488.36 355.71 1491.09 354.857 1491.09 352.74V235.17C1491.09 233.982 1490.13 233.008 1488.92 233.008H1474.35C1473.16 233.008 1472.19 232.048 1472.19 230.845V216.558C1472.19 215.37 1473.15 214.395 1474.35 214.395H1538.33C1539.52 214.395 1540.5 215.355 1540.5 216.558V230.845C1540.5 232.033 1539.54 233.008 1538.33 233.008H1524.69C1523.5 233.008 1522.52 233.967 1522.52 235.17V404.343C1522.52 404.785 1522.66 405.211 1522.91 405.577L1546.73 439.923C1547.72 441.355 1546.7 443.305 1544.96 443.305H1490.23C1489.52 443.305 1488.85 442.954 1488.45 442.36L1388.34 296.08C1387.13 294.328 1384.39 295.181 1384.39 297.298H1384.41Z" fill="#ECECEC"/>
<path d="M1796.81 219.756C1788.29 214.715 1728.09 181.191 1667.83 202.21C1667.75 202.241 1667.69 202.256 1667.62 202.271C1664.02 203.063 1563.68 226.032 1559.92 343.053C1559.92 343.053 1552.96 490.78 1725.74 507.55C1725.79 507.55 1725.83 507.55 1725.88 507.55C1728.13 507.626 1784.18 509.438 1823.34 491.968C1825.64 490.948 1824.59 487.475 1822.11 487.871C1775.74 495.258 1627.5 506.697 1606.25 356.197C1606.07 354.903 1607.09 353.73 1608.4 353.73H1718.87C1718.87 353.73 1719.02 353.73 1719.1 353.73L1732.43 355.131C1734.5 355.344 1736.16 353.471 1735.7 351.445L1732.23 337.554C1731.91 336.168 1730.69 335.194 1729.27 335.194L1608.6 333.929C1607.32 333.929 1606.33 332.802 1606.48 331.523C1608.26 316.749 1620.78 237.79 1686.15 225.164C1751.51 212.537 1767.08 265.785 1769.45 275.975C1769.68 276.95 1770.55 277.635 1771.55 277.635H1796.72C1797.92 277.635 1798.89 276.645 1798.88 275.442L1797.86 221.569C1797.86 220.823 1797.45 220.137 1796.81 219.756Z" fill="#ECECEC"/>
<path d="M918.974 421.143C921.304 425.423 914.633 428.637 911.19 425.195C890.415 404.313 863.517 406.46 863.517 406.46H863.349C814.472 410.542 811.7 458.46 811.7 458.46C811.045 474.407 814.655 490.217 821.326 504.717C856.16 580.431 938.089 552.055 938.089 552.055C938.089 552.055 999.12 532.224 1001.59 462.222C1004.07 392.204 910.825 366.189 910.825 366.189C845.773 347.912 841.127 302.675 841.127 302.675C828.12 229.885 891.314 212.263 891.314 212.263C954.112 194.518 982.183 226.9 986.021 231.82C986.311 232.2 986.478 232.657 986.478 233.145V274.299C986.478 275.503 985.503 276.462 984.315 276.462H962.093C960.875 276.462 959.9 275.472 959.93 274.269C960.143 265.084 958.971 230.144 929.102 229.885C900.909 229.626 890.385 257.758 890.385 257.758C871.361 304.32 927.777 327.624 950.137 334.843C963.723 339.245 976.883 345.079 988.611 353.227C988.611 353.227 1026.03 376.699 1038.01 421.829H1074.93C1076.11 421.829 1077.09 420.854 1077.09 419.666V233.647C1077.09 232.459 1076.11 231.484 1074.93 231.484H1066.87C1058.02 231.484 1049.4 236.846 1046.05 245.04L1035.61 272.152C1035.11 273.37 1033.94 274.162 1032.61 274.162H1012.49C1011.09 274.162 1010.06 272.822 1010.41 271.466L1025.39 213.862C1025.65 212.918 1026.51 212.247 1027.5 212.247H1178.71C1179.7 212.247 1180.55 212.918 1180.81 213.862L1195.8 271.466C1196.15 272.822 1195.11 274.162 1193.71 274.162H1176.76C1175.95 274.162 1175.22 273.721 1174.84 273.005L1153.91 232.642C1153.58 232.002 1152.71 231.484 1152 231.484H1128.04C1126.85 231.484 1125.87 232.459 1125.87 233.647V419.651C1125.87 420.839 1126.85 421.813 1128.04 421.813H1143.22C1144.41 421.813 1145.39 422.788 1145.39 423.976V438.248C1145.39 439.436 1144.41 440.411 1143.22 440.411H1041.23C1043.24 463.821 1038.08 491.801 1019.56 524.167C1019.56 524.167 984.239 582.396 904.946 583.325C830.572 584.208 793.728 542.749 777.156 513.779C769.129 499.751 764.255 480.118 763.219 463.989C762.732 456.373 763.037 449.747 763.844 444.005H671.756C671.117 444.005 670.492 443.716 670.081 443.213L603.627 361.513C602.546 360.188 603.368 358.238 605.059 358.01C637.334 353.821 660.637 320.115 660.211 294.008C660.211 261.855 636.054 235.262 604.602 230.86L604.16 230.83H568.793C567.605 230.83 566.631 231.804 566.631 232.992V419.651C566.631 420.839 567.605 421.813 568.793 421.813H584.634C585.822 421.813 586.797 422.788 586.797 423.976V438.248C586.797 439.436 585.822 440.411 584.634 440.411H501.136C499.948 440.411 498.974 439.436 498.974 438.248V423.976C498.974 422.788 499.948 421.813 501.136 421.813H515.667C516.855 421.813 517.83 420.839 517.83 419.651V232.992C517.83 231.804 516.855 230.83 515.667 230.83H503.071C501.883 230.83 500.908 229.855 500.908 228.667V214.41C500.908 213.222 501.883 212.247 503.071 212.247H606.46C609.126 212.247 611.761 212.278 614.365 212.369H629.49C643.959 212.369 658.307 215.583 671.132 222.285C690.689 232.52 712.012 253.052 712.012 294.008C712.012 319.901 700.041 340.433 680.727 354.461C676.554 357.477 671.543 360.203 666.593 362.61C665.359 363.204 665.009 364.818 665.862 365.884L709.819 421.006C710.23 421.509 710.855 421.813 711.51 421.813H748.293C749.481 421.813 750.456 420.839 750.456 419.651V232.992C750.456 231.804 749.481 230.83 748.293 230.83H733.107C731.919 230.83 730.945 229.855 730.945 228.667V214.41C730.945 213.222 731.919 212.247 733.107 212.247H816.605C817.793 212.247 818.768 213.222 818.768 214.41V228.667C818.768 229.855 817.793 230.83 816.605 230.83H801.404C800.216 230.83 799.241 231.804 799.241 232.992V390.97C808.304 385.243 818.311 382.426 827.343 380.567C827.343 380.567 888.618 365.565 918.974 421.143Z" fill="#ECECEC"/>
</g>
<defs>
<clipPath id="clip0_1153_2641">
<rect width="1824.62" height="392.34" fill="white" transform="translate(0 191)"/>
</clipPath>
</defs>
</svg>
