<svg width="1825" height="720" viewBox="0 0 1825 720" fill="none" xmlns="http://www.w3.org/2000/svg">
<g clip-path="url(#clip0_1162_2829)">
<path d="M544.639 664.377C526.639 688.295 502.18 701.983 475.049 701.983C430.443 701.983 391.213 662.229 391.213 617.623C391.213 573.016 430.443 532.442 474.771 532.442C501.639 532.442 528.508 545.869 543.836 568.721H566.131C550.279 535.656 511.852 514.442 475.049 514.442C417.803 514.442 371.328 559.033 371.328 617.344C371.328 675.655 418.623 720 475.311 720C512.934 720 547.59 699.033 566.934 664.377H544.639Z" fill="#ECECEC"/>
<path d="M674.623 514.164C616.311 514.164 569.557 560.918 569.557 618.148C569.557 675.377 620.344 720 674.623 720C732.393 720 779.951 673.246 779.951 617.082C779.951 560.918 732.393 514.164 674.623 514.164ZM674.623 701.984C628.41 701.984 589.443 663.033 589.443 618.148C589.443 573.262 627.328 532.164 674.361 532.164C721.393 532.164 760.066 571.394 760.066 617.344C760.066 663.295 722.18 701.984 674.623 701.984Z" fill="#ECECEC"/>
<path d="M967.18 517.655L894.623 686.95L822.344 517.655H791.705V716.508H811.59V539.426H812.131L886.016 716.508H902.951L977.377 539.426H977.918V716.508H997.803V517.655H967.18Z" fill="#ECECEC"/>
<path d="M1133.31 535.655V517.655H1024.48V716.508H1133.31V698.491H1044.36V625.147H1130.36V607.131H1044.36V535.655H1133.31Z" fill="#ECECEC"/>
<path d="M1273.34 535.131C1256.51 523.573 1233.54 517.655 1210.84 517.655H1154.93V716.508H1210.07C1241.97 716.508 1268.75 706.836 1287.13 686.672C1305.51 666.786 1314.44 642.868 1314.44 618.147C1314.44 584.573 1298.87 552.852 1273.34 535.131ZM1274.62 674.59C1260.85 689.901 1239.92 698.491 1208.52 698.491H1173.82V535.655H1207.77C1232.02 535.655 1252.16 541.836 1265.44 552.59C1285.34 568.721 1295.56 591.278 1295.56 617.082C1295.56 637.77 1288.92 658.459 1274.62 674.59Z" fill="#ECECEC"/>
<path d="M1429.46 517.655L1371.15 629.18L1314.46 517.655H1292.41L1361.48 650.131V716.508H1381.36V650.131L1451.23 517.655H1429.46Z" fill="#ECECEC"/>
<path d="M689.541 0V9.22951H702.787V69.0164H712.852V9.22951H726.098V0H689.541Z" fill="#ECECEC"/>
<path d="M771.672 0V29.7541H743.23V0H733.148V69.0164H743.23V38.9836H771.672V69.0164H781.754V0H771.672Z" fill="#ECECEC"/>
<path d="M828.623 9.22951V0H791.41V69.0164H828.623V59.7869H801.492V38.8033H828.623V29.5738H801.492V9.22951H828.623Z" fill="#ECECEC"/>
<path d="M1346.34 436.147C1346.34 426.18 1354.51 417.606 1364.66 417.606C1374.8 417.606 1383.15 426.065 1383.15 435.967C1383.15 445.869 1374.97 454.229 1364.7 454.229C1354.44 454.229 1346.34 445.82 1346.34 436.147Z" fill="#ECECEC"/>
<path d="M1306.75 346.328C1266.18 345.836 1268.43 304.787 1268.43 304.787C1269.69 260.738 1295.3 252.738 1295.3 252.738C1302.21 249.705 1309.9 248.984 1317.39 249.902C1349.3 253.803 1389.87 278.361 1389.87 278.361L1458.69 162.099C1417.26 125.689 1359.69 103.033 1295.97 102.738C1295.54 102.705 1295.13 102.705 1294.7 102.705C1234.48 102.853 1181.89 142.426 1153.54 201.197V112.639H1013.18V223.738L949.164 110.131H851.934V496.935H989.672V395.295L1047.69 499.459H1153.54V400.935C1181.87 459.738 1234.48 499.295 1294.7 499.459H1448.18V287.492H1307.31L1306.75 346.328ZM1395.38 413.771H1417.05V417.656H1399.66V433.18H1416.41V437.066H1399.66V456.656H1395.38V413.771ZM1364.7 413.721C1377.16 413.721 1387.43 423.689 1387.43 435.918C1387.43 448.148 1377.16 458.099 1364.7 458.099C1353 458.099 1342.05 448.607 1342.05 436.148C1342.05 423.689 1352.13 413.721 1364.7 413.721Z" fill="#ECECEC"/>
<path d="M563.246 109.804C563.246 109.804 563.262 121.886 563.262 128.082C563.262 186.427 535.803 231.246 505.377 235.082V110.132H366V496.935H505.377V357.951C541.967 365.951 564.656 420.328 564.656 478.673C564.656 484.869 564.656 496.935 564.656 496.935H844.852V109.804H563.246ZM699.689 398.361C691.246 362.23 673.852 330.066 650.016 303.984C675.459 277.607 691.771 242.427 699.689 200.574V398.361Z" fill="#ECECEC"/>
</g>
<defs>
<clipPath id="clip0_1162_2829">
<rect width="1092.69" height="720" fill="white" transform="translate(366)"/>
</clipPath>
</defs>
</svg>
