<svg width="1825" height="720" viewBox="0 0 1825 720" fill="none" xmlns="http://www.w3.org/2000/svg">
<g clip-path="url(#clip0_847_4395)">
<path d="M899.925 129.471H830.386V308.118H899.925V129.471Z" fill="#ECECEC"/>
<path d="M1371.86 402.209H1302.32V580.856H1371.86V402.209Z" fill="#ECECEC"/>
<path d="M1000.22 529.717C1001.59 529.827 1002.98 529.892 1004.36 529.903C1039.06 530.363 1068.12 502.473 1069.03 467.785C1069.98 431.741 1041.03 402.22 1005.2 402.22H912.896V580.867H981.001V528.896C998.12 557.312 1022.89 576.938 1048.26 583.308C1051.71 584.173 1055.3 582.476 1056.86 579.269C1058.85 575.164 1056.76 570.261 1052.42 568.816C1033.35 562.5 1014.94 548.829 1000.21 529.706L1000.22 529.717ZM981.012 417.128H1000.91C1028.05 417.128 1050.05 439.129 1050.05 466.264C1050.05 493.399 1028.05 515.411 1000.91 515.411H981.012V417.128Z" fill="#ECECEC"/>
<path d="M1701.14 400.162V412.925H1656.2V580.856H1586.66V412.925H1541.84V400.162H1701.14Z" fill="#ECECEC"/>
<path d="M1058.77 294.874V307.647H925.571V129H995.11V294.874H1058.77Z" fill="#ECECEC"/>
<path d="M652.362 414.993V477.319H685.211V490.093H652.362V580.856H582.834V402.209H707.551V414.993H652.362Z" fill="#ECECEC"/>
<path d="M160.499 560.442C160.499 561.646 160.225 562.806 159.733 563.868C159.229 564.919 158.496 565.871 157.555 566.615C140.95 579.969 119.857 587.971 96.8818 587.971C90.9601 587.971 85.1588 587.434 79.5326 586.427C34.3043 578.229 0 538.671 0 491.078C0 443.485 34.3043 403.916 79.5326 395.729C85.1588 394.722 90.9601 394.185 96.8818 394.185C119.857 394.185 140.95 402.187 157.555 415.541C159.426 417.04 160.499 419.317 160.499 421.714C160.499 426.432 156.613 429.683 152.509 429.683C150.845 429.683 149.137 429.146 147.638 427.942C133.758 416.756 116.103 410.068 96.8818 410.068C90.9273 410.068 85.126 410.714 79.5326 411.929V570.228C85.126 571.443 90.9273 572.088 96.8818 572.088C116.103 572.088 133.758 565.4 147.638 554.214C152.804 550.054 160.499 553.809 160.499 560.442Z" fill="#ECECEC"/>
<path d="M270.209 397.119C264.288 397.119 258.486 397.655 252.86 398.662C207.632 406.85 173.328 446.419 173.328 494.012C173.328 541.604 207.632 581.163 252.86 589.35C258.486 590.357 264.288 590.893 270.209 590.893C323.724 590.893 367.102 547.515 367.102 494.012C367.102 440.508 323.724 397.119 270.209 397.119ZM270.209 575.022C264.255 575.022 258.454 574.376 252.86 573.161V414.873C258.454 413.658 264.255 413.012 270.209 413.012C314.956 413.012 351.22 449.276 351.22 494.023C351.22 538.769 314.956 575.022 270.209 575.022Z" fill="#ECECEC"/>
<path d="M795.457 397.119C789.536 397.119 783.734 397.655 778.108 398.662C732.88 406.85 698.576 446.419 698.576 494.012C698.576 541.604 732.88 581.163 778.108 589.35C783.734 590.357 789.536 590.893 795.457 590.893C848.972 590.893 892.35 547.515 892.35 494.012C892.35 440.508 848.972 397.119 795.457 397.119ZM795.457 575.022C789.503 575.022 783.702 574.376 778.108 573.161V414.873C783.702 413.658 789.503 413.012 795.457 413.012C840.204 413.012 876.468 449.276 876.468 494.023C876.468 538.769 840.204 575.022 795.457 575.022Z" fill="#ECECEC"/>
<path d="M555.798 402.209V587.971H548.223L397.882 482.529V584.501H385.207V402.209H395.091L541.284 498.346V402.209H555.798Z" fill="#ECECEC"/>
<path d="M1277.24 580.856H1209.24L1200.6 507.114L1156.69 582.443C1154.39 586.384 1148.78 586.614 1146.17 582.859L1094.28 508.351L1089.15 575.23C1089.03 576.817 1088.3 578.229 1087.21 579.236C1086.12 580.243 1084.67 580.856 1083.07 580.856C1079.47 580.856 1076.66 577.747 1077.01 574.168L1093.78 402.296C1094.22 397.622 1100.28 396.057 1102.95 399.921L1180.82 512.685L1248.47 395.663C1250.91 391.438 1257.34 392.806 1257.85 397.666L1277.24 580.856Z" fill="#ECECEC"/>
<path d="M1534.99 530.571C1529.83 591.55 1440.11 600.044 1401.99 555.648C1395.24 549.409 1404.17 539.119 1409.52 548.117C1420.73 562.839 1446.99 573.927 1467.01 570.994C1480.7 568.98 1485.22 562.401 1483.44 553.251C1482.8 550 1481.66 548.872 1478.23 545.129L1476.09 543.443L1455.12 526.915L1415.37 495.577C1414.06 494.559 1412.83 493.475 1411.64 492.337C1398.79 480.11 1392.83 461.984 1396.78 444.482C1398.67 436.119 1402.24 428.041 1407.2 420.981C1414.66 411.699 1424.29 404.212 1435.31 399.286C1444.73 395.072 1455.18 392.729 1466.17 392.729C1484.42 392.729 1501.18 399.209 1514.26 409.98C1517.96 413.034 1518.28 418.584 1514.89 421.977C1513.32 423.542 1511.26 424.33 1509.2 424.33C1507.37 424.33 1505.52 423.706 1503.99 422.447C1493.7 413.975 1480.54 408.886 1466.17 408.886H1466.13C1453.12 409.904 1441.15 414.72 1442.87 426.344C1443.59 431.281 1446.7 435.55 1450.98 438.122C1488.67 460.769 1510.08 474.944 1521.85 489.513C1526.31 495.04 1529.39 500.623 1531.44 506.742C1533.79 513.736 1534.78 521.442 1534.99 530.571Z" fill="#ECECEC"/>
<path d="M1754.14 396.845C1752.57 392.762 1746.84 392.675 1745.15 396.692L1671.93 570.633C1669.88 575.493 1673.45 580.856 1678.71 580.856C1680.21 580.856 1681.65 580.396 1682.84 579.597C1684.03 578.787 1684.98 577.638 1685.54 576.237L1697.67 546.026H1741.04L1754.77 580.856H1824.62L1754.14 396.845ZM1702.79 533.263L1719.54 491.549L1735.99 533.263H1702.79Z" fill="#ECECEC"/>
</g>
<defs>
<clipPath id="clip0_847_4395">
<rect width="1824.62" height="461.904" fill="white" transform="translate(0 129)"/>
</clipPath>
</defs>
</svg>
