<svg width="1825" height="720" viewBox="0 0 1825 720" fill="none" xmlns="http://www.w3.org/2000/svg">
<g clip-path="url(#clip0_1214_2547)">
<path d="M82.717 417.409C51.8979 417.409 29.6203 391.685 29.6203 360.167V359.717C29.6203 328.249 51.8979 302.974 82.717 302.974C101.099 302.974 114.885 311.016 127.772 322.954L145.904 302.025C130.519 287.34 112.587 277 82.9168 277C34.2656 277 0 314.462 0 360.167V360.616C0 406.82 34.915 443.333 81.8179 443.333C111.938 443.333 130.319 432.294 147.102 414.862L128.971 396.48C115.184 409.367 102.547 417.409 82.767 417.409H82.717Z" fill="#ECECEC"/>
<path d="M276.872 277C227.472 277 192.557 314.912 192.557 360.167V360.616C192.557 405.871 227.022 443.333 276.423 443.333C325.823 443.333 360.738 405.421 360.738 360.167V359.717C360.738 314.462 326.273 277 276.872 277ZM331.118 360.666C331.118 391.935 308.84 417.409 276.872 417.409C244.904 417.409 222.177 391.435 222.177 360.167V359.717C222.177 328.448 244.455 302.974 276.423 302.974C308.391 302.974 331.118 328.948 331.118 360.217V360.666Z" fill="#ECECEC"/>
<path d="M480.568 347.329C449.799 339.986 442.406 334.442 442.406 322.054V321.605C442.406 311.016 452.047 302.524 468.63 302.524C483.315 302.524 497.801 308.268 512.286 319.057L527.471 297.679C511.137 284.592 492.506 277.449 469.08 277.449C437.162 277.449 414.135 296.53 414.135 324.102V324.552C414.135 354.172 433.415 364.312 467.681 372.604C497.551 379.497 503.995 385.691 503.995 397.179V397.629C503.995 409.816 492.956 417.858 475.473 417.858C455.493 417.858 440.109 410.266 424.674 396.929L407.691 417.159C426.972 434.392 450.199 442.883 474.774 442.883C508.54 442.883 532.216 424.951 532.216 394.831V394.382C532.216 367.709 514.534 355.571 480.518 347.279L480.568 347.329Z" fill="#ECECEC"/>
<path d="M672.026 355.821L623.075 279.747H592.955V440.636H620.777V325.701L671.127 401.075H672.026L722.825 325.251V440.636H751.047V279.747H720.977L672.026 355.821Z" fill="#ECECEC"/>
<path d="M895.652 277C846.251 277 811.336 314.912 811.336 360.167V360.616C811.336 405.871 845.802 443.333 895.202 443.333C944.603 443.333 979.518 405.421 979.518 360.167V359.717C979.518 314.462 945.052 277 895.652 277ZM949.897 360.666C949.897 391.935 927.62 417.409 895.652 417.409C863.684 417.409 840.957 391.435 840.957 360.167V359.717C840.957 328.448 863.234 302.974 895.202 302.974C927.17 302.974 949.897 328.948 949.897 360.217V360.666Z" fill="#ECECEC"/>
<path d="M1104.74 279.747H1041.31V440.586H1069.58V388.888H1101.5C1136.86 388.888 1165.83 370.057 1165.83 333.943V333.493C1165.83 301.076 1142.15 279.697 1104.69 279.697L1104.74 279.747ZM1137.16 334.692C1137.16 351.475 1123.82 363.413 1102.44 363.413H1069.58V305.521H1102.44C1123.57 305.521 1137.16 315.411 1137.16 334.243V334.692Z" fill="#ECECEC"/>
<path d="M1297.3 277C1247.9 277 1212.98 314.912 1212.98 360.167V360.616C1212.98 405.871 1247.45 443.333 1296.85 443.333C1346.25 443.333 1381.16 405.421 1381.16 360.167V359.717C1381.16 314.462 1346.7 277 1297.3 277ZM1351.49 360.666C1351.49 391.935 1329.22 417.409 1297.25 417.409C1265.28 417.409 1242.55 391.435 1242.55 360.167V359.717C1242.55 328.448 1264.83 302.974 1296.8 302.974C1328.77 302.974 1351.49 328.948 1351.49 360.217V360.666Z" fill="#ECECEC"/>
<path d="M1468.93 279.747H1440.66V440.636H1553.49V414.862H1468.93V279.747Z" fill="#ECECEC"/>
<path d="M1640.3 279.747H1612.03V440.586H1640.3V279.747Z" fill="#ECECEC"/>
<path d="M1772.87 347.329C1742.1 339.986 1734.71 334.442 1734.71 322.054V321.605C1734.71 311.016 1744.35 302.524 1760.93 302.524C1775.62 302.524 1790.1 308.268 1804.59 319.057L1819.77 297.679C1803.44 284.592 1784.86 277.449 1761.38 277.449C1729.47 277.449 1706.44 296.53 1706.44 324.102V324.552C1706.44 354.172 1725.72 364.312 1759.98 372.604C1789.85 379.497 1796.3 385.691 1796.3 397.179V397.629C1796.3 409.816 1785.26 417.858 1767.78 417.858C1747.8 417.858 1732.41 410.266 1716.98 396.929L1699.99 417.159C1719.28 434.392 1742.5 442.883 1767.08 442.883C1800.84 442.883 1824.52 424.951 1824.52 394.831V394.382C1824.52 367.709 1806.84 355.571 1772.82 347.279L1772.87 347.329Z" fill="#ECECEC"/>
</g>
<defs>
<clipPath id="clip0_1214_2547">
<rect width="1824.62" height="166.383" fill="white" transform="translate(0 277)"/>
</clipPath>
</defs>
</svg>
