<svg width="1825" height="721" viewBox="0 0 1825 721" fill="none" xmlns="http://www.w3.org/2000/svg">
<path d="M300.968 322.275C296.443 312.438 305.755 309.946 305.755 309.946C305.755 309.946 323.659 304.044 325.429 296.502C327.003 289.879 327.2 289.551 323.528 270.992C322.216 264.499 321.429 257.876 321.101 251.318C319.396 214.134 314.084 90.9754 316.642 67.3667C316.642 67.3667 318.412 85.7946 323.265 99.3696C323.265 99.3696 325.167 67.8913 318.347 56.8084C312.379 47.1026 296.509 30.3141 296.509 30.3141C296.509 30.3141 274.736 12.6732 317.953 10.7058C325.298 10.3779 326.085 19.8214 356.055 14.0504C358.023 13.6569 360.777 12.2797 363.466 10.837C368.712 8.01702 374.877 7.03333 380.582 8.86956C381.762 9.26304 382.746 9.65652 383.402 10.05C385.5 11.296 390.55 14.9029 393.042 17.9196C393.829 18.8377 393.895 20.2804 393.108 21.1986C386.681 29.0025 371.86 30.5765 363.859 37.3312C361.892 39.0362 360.646 41.3971 360.121 44.0203C357.891 55.8902 353.17 76.9413 352.448 88.3522C351.661 100.878 349.825 111.633 347.923 124.421C345.89 137.996 348.776 161.277 350.546 193.739C352.317 226.266 353.235 205.084 358.088 261.417C358.875 270.467 366.089 285.157 372.188 295.978C372.188 295.978 393.632 331.981 382.156 341.818C382.156 341.818 376.188 349.36 365.695 343.589C356.121 338.277 356.777 339.129 350.809 334.342C349.694 333.489 348.317 333.03 346.94 333.161C340.25 333.752 321.036 333.817 316.97 332.768C316.97 332.768 304.378 331.391 300.903 322.341L300.968 322.275ZM568.074 102.124C562.303 105.206 554.696 101.993 554.696 101.993C540.006 94.5167 527.743 100.944 527.743 100.944C518.037 103.108 512.069 107.633 508.856 107.633C505.839 107.633 503.282 107.829 502.167 105.337C502.167 105.337 501.118 100.747 494.953 98.1892C494.953 98.1892 492.855 96.3529 492.658 90.6475C492.592 87.762 486.821 81.0073 479.607 76.6134C472.328 72.2196 466.885 62.6449 460.589 58.8413C456.458 55.4968 446.227 49.2667 441.833 48.2174C437.44 47.2337 430.947 47.496 424.717 46.5779C420.651 45.9877 417.438 45.5942 414.946 45.3319C410.486 44.8728 405.83 45.004 401.633 46.7091C388.911 51.8243 388.124 46.5779 388.124 46.5779C382.746 31.888 404.912 24.6087 404.912 24.6087C413.044 22.379 415.667 13.8536 415.667 13.8536C423.733 -1.9511 435.079 6.37753 435.079 6.37753C452.851 23.5594 472.59 42.4464 492.461 52.4145C521.71 67.0388 526.759 69.5964 567.812 73.1377C570.042 73.3344 572.337 73.7279 574.501 74.4493C575.485 74.7772 576.665 75.1051 578.108 75.4986C581.453 76.3511 583.355 77.6627 583.945 79.4334C584.535 81.204 584.797 82.3845 584.797 83.0403C584.797 86.3192 578.436 99.9598 574.764 96.8776C570.763 93.5986 550.171 92.3526 550.171 92.3526L555.286 95.5004C556.991 96.5497 558.893 97.4022 560.795 97.9924C569.386 100.55 568.009 102.058 568.009 102.058L568.074 102.124ZM560.992 274.927C562.435 275.582 562.435 278.993 563.222 280.894C564.009 282.862 564.468 284.37 564.468 285.485C564.468 286.797 562.762 288.829 559.352 291.518C555.942 294.273 546.368 298.076 533.907 299.847C524.136 301.224 508.003 301.027 499.675 301.552C497.052 301.683 494.494 302.339 492.068 303.388C481.444 307.848 478.558 308.307 467.869 315.061C457.769 321.423 451.015 328.309 442.752 336.047C440.784 337.883 439.079 340.113 437.768 342.474C433.308 350.868 426.16 347.982 426.16 347.982C415.536 345.818 415.077 333.096 415.077 333.096C415.339 324.505 406.486 319.127 406.486 319.127C402.879 316.439 399.6 315.717 392.386 310.405C392.386 310.405 384.648 305.618 388.32 297.486C388.32 297.486 391.468 288.108 405.109 289.813C408.06 290.207 412.978 290.797 419.733 292.764C426.488 294.732 439.341 295.715 442.817 295.715C453.113 294.6 461.376 291.715 469.377 285.747C477.378 279.779 483.411 272.435 487.477 263.712C488.985 260.827 492.068 261.089 494.822 261.089C496.986 261.089 500.921 260.958 506.626 264.04C512.332 267.057 517.316 269.615 519.742 269.615L542.105 270.139C542.105 270.139 551.811 269.746 560.926 274.992L560.992 274.927ZM571.288 149.407C566.828 175.114 566.238 192.099 566.238 200.494C566.238 207.248 565.517 223.643 568.009 228.431C568.009 228.431 568.73 235.251 574.96 238.005C574.96 238.005 582.895 239.973 579.157 250.859C579.157 250.859 572.14 267.975 560.664 270.139C560.664 270.139 554.893 270.926 550.04 254.794C550.04 254.794 548.794 245.94 541.121 247.973C533.448 250.006 525.316 247.973 525.316 247.973C518.496 246.006 519.021 241.153 519.021 239.776C519.021 235.579 529.055 226.66 536.924 220.102C536.924 220.102 542.039 218.594 542.433 208.494C542.761 199.248 544.072 198.461 543.744 191.05C543.613 189.017 543.744 187.05 543.81 185.017L544.335 175.311C544.335 175.311 544.597 169.606 544.335 165.54C544.203 163.769 544.531 162.523 541.908 159.572C540.793 158.326 540.072 159.441 538.826 153.211C538.826 153.211 539.351 150.981 534.826 148.227C525.513 142.587 523.218 132.291 523.218 132.291C522.693 129.471 522.562 127.11 522.824 125.208C523.415 120.027 528.333 116.42 533.58 116.617C538.236 116.814 547.286 117.207 553.057 116.814C555.286 116.683 557.385 115.699 559.09 114.191C562.828 110.846 571.026 104.288 576.075 106.255C576.075 106.255 587.027 110.453 590.503 125.995C590.503 125.995 591.945 128.815 586.634 132.225C586.634 132.225 572.534 138.455 571.288 149.407Z" fill="#ECECEC"/>
<path d="M1243.87 317.357C1239.35 307.52 1248.66 305.028 1248.66 305.028C1248.66 305.028 1266.56 299.126 1268.33 291.584C1269.91 284.96 1270.11 284.633 1266.43 266.073C1265.12 259.581 1264.33 252.958 1264.01 246.4C1262.3 209.216 1261.19 60.8089 1261.19 60.8089C1261.19 60.8089 1263.61 84.7455 1266.17 94.4513C1266.17 94.4513 1266.3 65.006 1262.89 53.5295C1259.48 42.0531 1241.05 27.0353 1241.05 27.0353C1241.05 27.0353 1219.28 9.39438 1262.5 7.42698C1269.84 7.09908 1270.63 16.5426 1300.6 10.7716C1302.57 10.3781 1305.32 9.0009 1308.01 7.55814C1313.26 4.73821 1319.42 3.75452 1325.13 5.59075C1326.31 5.98423 1327.29 6.37771 1327.95 6.77119C1330.05 8.0172 1335.1 11.6241 1337.59 14.6408C1338.37 15.5589 1338.44 17.0016 1337.65 17.9197C1331.23 25.7237 1316.4 27.2976 1308.4 34.0524C1306.44 35.7574 1305.19 38.1183 1304.67 40.7415C1302.44 52.6114 1296.08 72.023 1295.35 83.4339C1294.57 95.9596 1292.73 106.715 1290.83 119.503C1288.8 133.078 1291.68 156.359 1293.45 188.821C1295.22 221.348 1296.14 200.166 1300.99 256.499C1301.78 265.549 1308.99 280.239 1315.09 291.059C1315.09 291.059 1336.54 327.063 1325.06 336.9C1325.06 336.9 1319.09 344.441 1308.6 338.67C1299.03 333.358 1299.68 334.211 1293.71 329.424C1292.6 328.571 1291.22 328.112 1289.85 328.243C1283.16 328.833 1263.94 328.899 1259.88 327.85C1259.88 327.85 1247.28 326.472 1243.81 317.422L1243.87 317.357ZM1480.68 88.4835L1504.42 97.2057C1498.65 100.288 1491.04 97.0745 1491.04 97.0745C1476.35 89.5984 1470.65 96.0252 1470.65 96.0252C1461.86 103.698 1454.97 104.354 1451.76 104.354C1448.74 104.354 1447.83 102.911 1446.71 100.419C1446.71 100.419 1445.66 95.8285 1439.5 93.2709C1439.5 93.2709 1437.4 91.4346 1437.2 85.7292C1437.14 82.8437 1431.37 76.089 1424.15 71.6951C1416.87 67.3013 1409.79 57.7266 1403.49 53.923C1399.36 50.5785 1390.77 44.3484 1386.38 43.2991C1381.98 42.3154 1375.49 42.5777 1369.26 41.6596C1365.2 41.0694 1361.98 40.6759 1359.49 40.4136C1355.03 39.9545 1350.38 41.7252 1346.18 43.4303C1333.46 48.5455 1332.67 43.2991 1332.67 43.2991C1327.29 28.6092 1349.46 21.3299 1349.46 21.3299C1357.59 19.1002 1360.21 10.5748 1360.21 10.5748C1368.28 -5.22991 1379.62 3.09872 1379.62 3.09872C1397.4 20.2806 1415.5 37.5281 1435.37 47.4962C1464.62 62.1205 1469.66 64.6781 1510.72 68.2194C1512.95 68.4161 1515.24 68.8096 1517.41 69.531C1518.39 69.8589 1519.57 70.1868 1521.01 70.5803C1524.36 71.4328 1526.26 72.7444 1526.85 74.5151C1527.44 76.2857 1527.7 77.4661 1527.7 78.1219C1527.7 86.3194 1517.47 97.5991 1514.39 95.2383C1510.65 92.4183 1480.62 88.3524 1480.62 88.3524L1480.68 88.4835ZM1504.49 276.37C1506.06 287.321 1489.34 293.158 1476.88 294.929C1467.11 296.306 1450.97 296.109 1442.65 296.634C1440.02 296.765 1437.46 297.421 1435.04 298.47C1424.41 302.929 1421.53 303.388 1410.84 310.143C1400.74 316.504 1393.99 323.39 1385.72 331.129C1383.76 332.965 1382.05 335.195 1380.74 337.555C1376.28 345.95 1369.13 343.064 1369.13 343.064C1358.51 340.9 1358.05 328.178 1358.05 328.178C1358.31 319.587 1349.46 314.209 1349.46 314.209C1345.85 311.52 1342.57 310.799 1335.36 305.487C1335.36 305.487 1327.62 300.7 1331.29 292.568C1331.29 292.568 1334.44 283.19 1348.08 284.895C1351.03 285.288 1355.95 285.879 1362.7 287.846C1369.46 289.813 1382.31 290.797 1385.79 290.797C1396.08 289.682 1404.35 286.797 1412.35 280.829C1420.35 274.861 1426.38 267.516 1430.45 258.794C1431.96 255.909 1435.04 256.171 1437.79 256.171C1439.96 256.171 1443.89 256.04 1449.6 259.122C1455.3 262.139 1460.29 264.696 1462.71 264.696L1485.08 265.221C1485.08 265.221 1503.5 265.221 1504.42 276.435M1514.19 144.489C1509.73 170.196 1509.14 187.181 1509.14 195.575C1509.14 202.33 1508.42 218.725 1510.91 223.512C1510.91 223.512 1511.64 230.333 1517.87 233.087C1517.87 233.087 1525.8 235.054 1522.06 245.941C1522.06 245.941 1515.05 263.057 1503.57 265.221C1503.57 265.221 1497.8 266.008 1492.95 249.875C1492.95 249.875 1491.7 241.022 1484.03 243.055C1476.35 245.088 1468.22 243.055 1468.22 243.055C1461.4 241.088 1461.93 236.235 1461.93 234.858C1461.93 230.66 1471.96 221.742 1479.83 215.184C1479.83 215.184 1484.09 212.626 1485.34 203.576C1486.58 194.526 1486.98 193.542 1486.65 186.132C1486.52 184.099 1486.65 182.131 1486.72 180.098L1487.24 170.393C1487.24 170.393 1487.96 164.622 1487.24 160.621C1484.55 145.538 1477.73 143.308 1477.73 143.308C1468.42 137.668 1466.12 127.372 1466.12 127.372C1465.6 124.552 1465.47 122.192 1465.73 120.29C1466.32 115.109 1471.24 111.502 1476.49 111.699C1481.14 111.896 1490.19 112.289 1495.96 111.896C1498.19 111.764 1500.29 110.781 1502 109.272C1505.73 105.928 1513.93 99.3698 1518.98 101.337C1518.98 101.337 1529.93 105.534 1533.41 121.077C1533.41 121.077 1534.85 123.897 1529.54 127.307C1529.54 127.307 1515.44 133.537 1514.19 144.489Z" fill="#ECECEC"/>
<path d="M669.264 233.48C670.969 233.48 673.395 234.792 673.395 234.792L674.248 242.924C674.248 242.924 677.002 239.71 678.248 239.907C684.347 241.088 693.004 247.908 693.004 247.908C698.185 252.695 700.021 263.254 699.234 266.598C698.053 271.779 686.774 282.862 679.363 284.96C674.51 287.125 670.313 284.96 670.313 284.96C663.69 281.419 660.148 269.156 660.148 269.156C657 262.139 645.393 266.139 645.393 266.139C638.9 268.041 636.408 264.172 636.408 264.172C631.359 257.155 636.08 247.908 636.08 247.908C636.671 243.711 637.261 236.89 637.261 236.89C636.343 226.594 637.982 196.69 637.982 196.69C640.278 169.475 638.441 150.391 638.441 150.391C639.097 144.357 637.982 87.631 637.982 87.631C636.015 84.8766 636.343 80.9419 636.343 80.9419C638.573 73.1379 635.228 64.219 635.228 64.219C634.966 55.8904 616.538 52.5458 616.538 52.5458C605.127 49.4636 606.242 43.8893 606.242 43.8893C610.963 26.6418 620.473 25.4614 620.473 25.4614C623.292 25.3958 632.474 25.7237 636.999 26.8386C644.147 28.6092 648.541 29.4618 650.18 29.4618C650.18 29.4618 655.689 30.6422 659.558 26.9042C659.558 26.9042 661.722 23.035 676.871 23.4284C678.773 23.4284 681.331 25.2647 682.511 26.7074C686.511 31.6259 687.692 31.7571 689.331 33.331C691.233 35.1672 692.348 37.6592 692.348 40.348C692.348 44.2172 691.036 49.8571 683.232 52.4803C683.232 52.4803 681.527 52.4803 680.871 60.5466C680.871 60.5466 677.789 71.3016 677.068 75.1709C675.494 83.3683 671.625 93.0741 671.625 93.0741C669.985 96.681 667.493 111.043 667.493 111.043C667.231 122.716 665.919 154.719 665.919 154.719C664.477 163.966 666.509 210.331 666.509 210.331C665.591 220.758 667.231 233.611 669.067 233.546L669.264 233.48ZM682.839 296.109C689.594 297.289 697.725 299.126 707.431 300.372C717.203 301.552 727.499 302.142 738.385 302.142C754.649 302.142 781.34 305.225 795.439 301.618C795.439 301.618 814.523 298.47 828.36 278.206C828.36 278.206 847.772 265.483 849.674 305.225C849.674 305.946 850.067 306.602 850.723 306.93C853.084 308.11 859.314 311.192 863.905 312.438C866.003 313.029 867.446 314.865 867.643 317.029C867.97 320.964 867.97 326.997 865.544 332.506C863.314 337.49 858.396 340.638 852.953 341.097C844.427 341.753 833.803 341.097 826.983 338.933C821.409 337.227 810.851 335.588 810.851 335.588L688.479 323.587C688.479 323.587 698.84 327.391 696.611 327.718C684.609 329.686 665.395 348.704 658.181 348.835C650.967 348.966 643.229 346.081 643.884 324.636C643.884 323.325 643.294 322.079 642.179 321.488C636.54 318.275 619.882 307.651 627.096 296.24C628.145 294.535 630.047 293.486 632.015 293.42C639.819 293.158 662.837 292.764 682.904 296.24L682.839 296.109ZM772.027 149.276C780.749 148.948 780.946 149.079 792.947 141.341C792.947 141.341 799.243 136.947 803.702 137.34C808.162 137.734 812.556 138.259 814.261 141.931C815.048 143.702 815.31 145.21 815.507 146.522C817.343 163.507 802.456 165.671 802.456 165.671C807.965 177.803 799.177 186.066 799.177 186.066C795.833 190.722 789.209 191.772 784.291 188.755C781.471 186.984 777.798 184.427 771.962 180.557C760.551 173.081 750.648 174.196 742.254 174.196C740.09 174.196 737.073 174.393 733.27 174.852C729.466 175.311 724.744 176.754 719.039 179.246C713.333 181.738 702.906 186.853 696.939 190.46C696.939 190.46 683.626 196.493 681.462 190.657C680.412 187.837 676.806 176.098 676.609 173.081C676.084 165.605 676.478 152.948 677.002 149.669C677.068 149.079 677.265 148.489 677.461 147.964C679.166 143.177 684.609 140.882 689.594 141.997C693.2 142.784 697.594 144.357 702.71 147.505C711.366 152.752 766.519 149.276 771.962 149.276M794.915 39.4299C804.948 36.8067 832.689 28.4125 845.411 19.8871C845.411 19.8871 852.887 16.2147 858.855 20.7397C858.855 20.7397 868.364 24.8056 863.183 45.7911C863.183 45.7911 860.429 54.9723 854.461 55.1034C852.69 55.1034 844.427 56.2183 853.018 61.9237C855.51 63.5632 857.15 69.9245 849.674 75.4987C849.674 75.4987 838.328 83.9585 831.049 74.7774C823.77 65.5962 817.605 62.6451 814.589 62.1861C811.31 61.5303 798.128 62.0549 796.489 61.9237C794.849 61.7926 773.47 62.0549 772.093 62.0549C765.601 62.0549 758.911 61.7926 753.796 65.006C749.074 68.0227 740.746 70.2524 736.68 71.2361C735.499 71.4984 734.319 72.0886 733.598 73.0723C730.843 76.548 723.236 79.0401 723.236 79.0401C712.284 80.7451 711.3 70.777 711.3 70.777C709.727 63.3665 709.989 53.6607 709.989 53.6607C697.463 50.3817 699.234 37.856 699.234 37.856C700.283 21.2643 714.645 27.4944 714.645 27.4944C721.662 30.9045 737.073 33.331 737.073 33.331C745.664 35.4951 798.062 34.7081 798.062 34.7081L794.783 39.4299H794.915Z" fill="#ECECEC"/>
<path d="M927.124 337.818C921.221 340.966 918.467 338.277 916.172 333.949C911.45 325.161 916.369 311.061 926.206 291.781C928.107 288.043 930.206 284.436 931.845 280.567C937.354 267.844 945.42 254.728 945.42 254.728C958.077 231.054 962.143 217.741 962.143 217.741C957.749 224.693 946.994 243.645 946.994 243.645C946.994 243.645 977.554 122.323 978.538 113.863C979.456 105.403 979.981 96.55 979.981 87.4345V71.433C979.981 59.3663 1009.3 56.2841 1009.3 56.2841C1012.11 56.2841 1013.49 59.1696 1012.97 61.3337C1011.85 63.7602 1011.33 65.662 1011.33 67.2359C1011.33 73.9906 1015.92 80.2207 1027.2 82.5816C1038.48 84.9424 1046.02 88.3526 1046.35 90.7134C1048.58 107.24 1034.22 101.141 1023.13 110.781C1011.98 120.487 1002.74 134.849 995.261 153.998C987.785 173.147 980.178 192.756 975.718 222.66C971.259 252.564 967.718 274.468 965.16 281.878C962.602 289.289 961.291 293.814 961.291 295.585C961.291 295.585 960.897 301.552 966.865 305.815C966.865 305.815 981.358 315.849 975.194 331.391C975.194 331.391 972.439 338.736 965.816 336.965C962.602 336.113 951.847 327.85 949.88 326.801C946.207 324.899 927.124 337.818 927.124 337.818ZM1134.29 297.814C1134.68 290.797 1134.81 283.715 1134.03 276.698C1132.58 263.451 1129.17 249.351 1123.8 234.399C1116.45 214.135 1105.7 193.739 1098.16 173.147C1090.55 152.555 1083.73 138.587 1080.84 131.176C1078.02 123.766 1072.12 113.994 1066.61 101.796C1061.04 89.5986 1055.53 78.5812 1050.15 68.8098C1044.71 59.0384 1037.23 54.2511 1031 51.1689C1024.77 48.1522 1015.53 48.4145 1006.61 45.4634C997.622 42.5123 998.54 37.3971 999.72 34.5116C1000.38 32.8721 1010.41 23.4942 1016.31 18.1822C1020.44 14.5098 1027 14.5098 1030.61 18.7725C1030.61 18.7725 1030.67 18.9036 1030.74 18.9692L1059.79 42.7091L1050.48 29.0685C1050.48 29.0685 1045.1 22.3138 1070.09 23.2975C1070.09 23.2975 1102.62 23.1663 1103.73 27.3634C1103.73 27.3634 1108.45 32.0852 1098.35 42.3156C1096.84 43.8239 1095.66 45.6602 1095.14 47.6931C1093.76 53.1363 1091.99 64.7439 1096.38 78.3189C1099.4 87.6312 1107.14 122.651 1120.98 160.031C1134.81 197.412 1192.07 309.291 1201.44 333.621C1201.44 333.621 1205.31 341.818 1201.44 343.392C1201.44 343.392 1195.93 345.622 1183.61 339.13C1183.61 339.13 1171.47 331.916 1160.06 334.342C1158.55 334.67 1157.18 335.26 1155.87 335.982C1154.42 336.703 1152.39 337.818 1150.42 338.998C1150.42 338.998 1139.21 344.31 1134.88 330.866C1132.26 322.866 1133.77 306.995 1134.29 297.814Z" fill="#ECECEC"/>
<path d="M441.047 562.494C441.047 586.496 450.621 632.205 452.458 647.617C453.376 655.355 456.13 662.306 458.294 666.897C460.917 672.406 462.032 678.57 460.655 684.472C456.524 701.654 438.751 703.491 438.751 703.491C434.423 704.409 428.849 708.868 428.849 708.868L429.767 688.407C428.455 690.834 423.668 706.114 423.668 706.114C423.668 706.179 423.668 706.245 423.668 706.31C422.225 711.229 417.176 712.54 412.126 711.819C408.978 711.36 405.306 710.639 403.076 709.524C399.207 707.688 397.305 704.868 397.305 701.195C397.305 698.572 399.797 694.113 404.847 687.817C409.831 681.521 413.175 679.226 414.749 671.16C416.323 663.093 417.11 646.633 417.11 628.336C417.11 617.843 416.323 600.53 414.749 576.331C413.175 552.132 412.388 536.656 412.388 529.901C412.388 516.195 410.027 502.62 405.306 489.176C405.306 489.176 398.354 471.6 398.026 460.452C397.895 455.665 401.699 451.664 406.486 451.927C413.438 452.255 425.308 454.615 433.636 465.829C435.997 469.043 437.374 472.912 437.768 476.912C438.096 480.585 438.292 485.438 437.571 490.028C437.571 490.028 436.718 498.554 444.391 496.586C444.391 496.586 459.409 490.225 464.655 498.882C464.655 498.882 470.951 507.145 457.245 520.261C457.245 520.261 454.097 524.523 450.884 529.18C444.063 538.885 440.456 550.69 441.178 562.56C440.916 561.576 441.243 564.002 441.178 562.56L441.047 562.494ZM601.979 679.029C615.62 685.718 614.571 691.096 614.571 691.096C614.767 695.293 611.948 700.343 609.062 703.359C607.488 704.999 605.258 705.786 602.963 705.523C598.635 704.933 592.536 703.425 592.536 703.425C577.125 695.359 561.976 703.95 561.976 703.95C560.795 704.933 561.058 704.802 560.533 705.13C555.352 708.606 548.401 704.868 547.024 698.769C545.45 691.621 546.04 682.243 546.04 682.243C546.04 679.16 547.679 676.931 547.679 675.357C547.679 672.734 546.368 670.766 543.81 659.683C541.253 648.6 536.924 635.615 530.957 620.794C524.923 605.973 515.414 584.857 502.429 557.51C489.379 530.163 474.82 506.095 468.525 491.93C462.229 477.765 452.064 464.059 441.309 450.877C430.554 437.696 417.176 429.236 401.174 419.006C401.174 419.006 397.305 416.645 396.584 412.513C395.469 405.496 401.502 398.938 408.585 398.938C408.585 398.938 418.225 396.971 428.455 406.742C428.455 406.742 435.472 414.349 440.063 406.283C440.063 406.283 451.08 394.085 453.507 392.97C453.507 392.97 464.524 387.79 468.459 396.315C468.459 396.315 470.754 413.694 469.836 416.186C469.836 416.186 470.099 427.072 472.722 431.99C472.722 431.99 491.543 480.716 496.789 488.52L514.43 517.703C525.71 539.869 542.499 565.773 554.762 595.481C567.091 625.188 576.6 649.387 583.551 668.012C585.125 672.275 601.979 678.964 601.979 678.964V679.029ZM698.71 697.654C686.249 702.376 678.249 701.457 674.052 700.08C671.625 699.293 669.92 697.326 669.461 694.768C666.641 678.177 678.38 662.503 678.38 662.503C682.249 655.421 685.528 644.862 688.282 630.763C690.971 616.728 692.348 601.711 692.348 585.775C692.348 575.282 691.299 557.444 689.135 532.131C687.364 511.08 685.921 494.357 684.348 485.044C683.626 480.847 682.97 476.716 682.577 472.519C680.872 454.353 677.396 410.415 683.495 402.807C684.741 401.233 685.594 399.66 687.364 398.676C697.136 393.233 721.662 387.986 725.794 387.986C729.926 387.986 734.254 389.101 738.254 391.265L749.009 400.119C751.304 402.217 750.321 403.791 750.321 405.365C750.321 408.382 747.566 411.923 742.189 415.792C738.91 418.153 736.352 420.12 734.647 421.629C733.073 422.94 731.893 424.645 731.106 426.547C726.581 437.433 723.892 446.877 721.662 459.075C719.236 472.256 717.99 485.7 717.99 499.406C717.99 510.752 718.842 527.934 720.548 551.018C722.253 574.102 723.105 587.742 723.105 591.874V608.203C723.105 628.467 724.614 645.452 727.63 659.159C730.647 672.865 737.598 685.85 748.485 698.047C749.337 700.671 748.944 703.031 747.173 705.261C745.468 707.425 743.041 709.393 739.894 711.163C738.779 711.36 735.828 714.049 709.793 699.556C708.415 698.769 706.907 698.113 705.53 697.654C703.3 696.801 700.874 696.998 698.644 697.785L698.71 697.654Z" fill="#ECECEC"/>
<path d="M1358.77 669.192C1368.41 672.537 1373.92 676.603 1376.67 679.292C1378.77 681.259 1379.69 684.341 1378.51 686.965C1376.54 691.358 1370.97 692.604 1370.97 692.604C1357.72 697.392 1335.75 696.802 1335.75 696.802C1322.5 708.081 1315.03 706.573 1311.22 706.179C1309.39 705.983 1307.81 704.933 1306.9 703.359C1300.01 691.817 1298.83 668.537 1298.63 660.339C1298.63 658.372 1298.04 656.47 1296.93 654.83C1289.78 643.551 1272.27 616.663 1256.01 588.398C1238.23 557.641 1229.45 548.657 1216.4 528.589C1203.35 508.522 1182.75 475.535 1171.01 462.485C1159.28 449.435 1145.11 442.287 1133.7 435.532C1123.73 429.695 1113.57 424.711 1103.01 420.973C1097.63 418.481 1097.96 415.727 1096.58 409.497C1096.58 409.497 1096.45 402.676 1106.16 403.201L1126.55 402.545C1128.26 402.545 1129.9 403.267 1130.95 404.644L1134.16 408.775C1134.16 408.775 1135.34 403.595 1137.83 403.398C1142.55 403.07 1156.91 403.201 1156.91 403.201C1160.65 403.201 1164.39 402.414 1167.67 400.709C1172.39 398.217 1176.59 394.676 1178.95 392.446C1180.52 391.003 1182.56 390.085 1184.66 390.413C1189.38 391.069 1192.92 394.544 1192.92 394.544C1192.92 394.544 1192.92 394.544 1192.98 394.544C1196.66 397.561 1197.38 403.004 1195.41 407.398C1193.12 412.513 1191.67 416.448 1191.67 420.514C1191.67 429.433 1196.66 440.122 1206.69 452.583C1216.72 464.977 1222.69 473.83 1224.72 479.077C1234.76 496.718 1246.43 520.261 1266.3 549.575C1286.17 578.889 1324.14 628.664 1332.67 643.551C1337.92 652.601 1343.42 658.7 1347.62 662.503C1350.83 665.389 1354.64 667.684 1358.77 669.061V669.192ZM1151.8 624.139C1151.08 637.714 1154.29 648.797 1157.64 656.667C1159.73 661.651 1162.75 666.11 1166.49 669.979C1168.59 672.209 1170.95 674.898 1174.16 679.554C1186.29 697.457 1170.69 707.032 1170.69 707.032C1166.36 709.852 1162.16 706.114 1156.91 702.507C1154.62 700.933 1152.39 699.294 1150.62 697.129C1148.06 693.982 1144.98 692.932 1142.42 692.736C1139.86 692.539 1137.11 693.785 1135.86 696.211C1132.45 702.9 1126.35 705.261 1126.35 705.261C1119.21 708.344 1104.84 687.161 1104.84 687.161C1094.29 674.177 1104.84 665.454 1104.84 665.454C1105.83 664.536 1106.68 663.421 1107.27 662.175C1112.19 652.207 1123.67 606.629 1124.32 595.284L1117.3 611.22L1116.06 521.704C1116.06 521.704 1118.55 508.063 1116.45 500.98C1116.45 500.98 1111.8 470.42 1114.35 462.026C1114.35 462.026 1117.24 445.041 1135.47 449.172C1135.47 449.172 1141.24 450.418 1142.49 463.272C1142.49 463.272 1143.34 474.486 1152.85 474.027C1152.85 474.027 1166.23 469.043 1167.74 481.897C1167.74 481.897 1171.8 493.963 1164.85 497.636C1164.85 497.636 1152.85 500.521 1153.24 517.507C1153.24 517.507 1149.9 537.836 1151.6 548.198C1151.6 548.198 1154.95 576.069 1153.24 584.923C1152.52 588.464 1152.46 592.071 1152.39 595.678C1152.32 604.531 1152.13 617.778 1151.8 624.008V624.139ZM1385.13 611.81C1389.79 622.762 1390.71 629.517 1390.64 633.255C1390.64 635.616 1389.53 637.845 1387.82 639.419C1379.23 647.42 1366.51 648.272 1366.51 648.272C1362.11 648.797 1362.31 634.96 1362.31 634.96C1361.98 628.271 1344.08 628.992 1344.08 628.992C1340.8 628.861 1337.98 629.976 1335.23 629.254C1330.18 627.877 1327.16 622.5 1328.8 617.581C1330.31 613.122 1333.59 609.318 1333.59 609.318C1356.67 580.857 1354.31 535.016 1353.13 514.359C1352.93 510.621 1353.13 506.883 1353.79 503.21C1356.47 489.635 1357.65 443.467 1357.65 443.467L1350.31 484.979L1346.11 442.811C1345.85 437.303 1343.23 432.056 1338.64 428.974C1334.31 426.088 1329.72 424.58 1329.72 424.58C1321.32 421.694 1321.32 411.267 1321.32 411.267C1321.32 404.316 1329.46 397.758 1335.95 393.626C1342.44 389.495 1350.11 389.495 1356.28 393.626C1356.41 393.692 1356.47 393.758 1356.47 393.758C1363.49 400.053 1370.51 394.479 1370.51 394.479C1383.17 386.085 1389.79 390.347 1389.79 390.347C1398.58 393.364 1389.79 413.759 1389.79 413.759C1386.12 422.219 1383.1 433.499 1381.46 440.319C1380.61 443.926 1379.95 447.467 1379.56 451.14C1378.44 461.501 1377.33 473.306 1376.21 486.618C1374.9 502.03 1374.25 515.277 1374.25 526.36C1374.25 546.558 1376.02 564.527 1377.92 580.529C1380.21 599.547 1385.2 611.745 1385.2 611.745L1385.13 611.81Z" fill="#ECECEC"/>
<path d="M1011 232.89C1011 232.89 1051.13 234.267 1068.51 236.891C1073.76 237.678 1079.14 237.218 1084.19 235.645C1090.29 233.743 1098.35 230.792 1105.57 226.463C1105.57 226.463 1111.86 224.562 1112.52 232.3C1112.52 232.3 1112.91 242.924 1107.01 246.203L1098.29 248.957L1109.3 253.023C1109.3 253.023 1112.45 254.466 1113.7 258.073C1114.75 261.155 1113.44 264.631 1110.55 266.205C1108.19 267.451 1104.39 268.5 1098.22 267.91C1093.24 267.451 1088.38 265.942 1083.79 263.844C1077.69 261.024 1066.94 256.564 1058.74 255.646C1046.61 254.269 1041.49 252.892 1014.93 258.138C1014.93 258.138 1011 258.532 1002.02 265.811C1002.02 265.811 991.129 271.123 987.719 262.795C987.719 262.795 986.407 256.564 990.211 251.318C990.211 251.318 991.588 246.006 986.145 244.826C986.145 244.826 978.341 241.94 982.407 233.48C982.407 233.48 988.178 220.496 992.9 220.561C992.9 220.561 1000.57 219.184 1003.72 226.922C1003.72 226.922 1005.82 231.054 1011 232.825V232.89Z" fill="#ECECEC"/>
<path d="M799.702 711.032C793.8 714.18 789.8 712.409 788.75 707.163C786.717 697.392 790.587 685.915 800.424 666.635C802.325 662.897 804.424 659.29 806.063 655.421C811.572 642.698 819.638 629.582 819.638 629.582C832.295 605.908 836.361 592.595 836.361 592.595C831.968 599.547 821.212 618.499 821.212 618.499C821.212 618.499 851.773 497.177 852.756 488.717C853.674 480.257 854.199 471.404 854.199 462.288V446.287C854.199 434.22 883.513 432.777 883.513 432.777C886.333 432.777 887.71 435.663 887.186 437.827C886.071 440.253 885.546 442.155 885.546 443.729C885.546 450.484 890.137 455.074 901.416 457.435C912.696 459.796 920.631 463.141 920.566 465.567C920.041 484.389 908.433 475.994 897.35 485.635C886.202 495.34 876.955 509.702 869.479 528.852C862.003 548.001 854.396 567.609 849.936 597.514C845.477 627.418 841.936 649.322 839.378 656.732C836.82 664.143 835.509 668.668 835.509 670.438C835.509 670.438 835.115 674.767 841.083 679.029C841.083 679.029 855.576 689.063 849.412 704.605C849.412 704.605 846.657 711.95 840.034 710.18C836.82 709.327 826.065 701.064 824.098 700.015C820.425 698.113 799.702 711.032 799.702 711.032ZM1057.76 713.393C1057.76 713.393 1047.27 703.622 1035.85 706.048C1034.41 706.376 1033.03 706.966 1031.72 707.622C1030.28 708.343 1028.25 709.458 1026.28 710.639C1026.28 710.639 1015.07 719.23 1010.74 705.786C1008.11 697.785 1007.98 681.915 1008.51 672.734C1008.9 665.717 1009.03 658.634 1008.25 651.617C1006.8 638.37 1003.39 624.27 998.015 609.318C990.67 589.054 979.915 568.659 972.374 548.067C964.766 527.475 957.946 513.506 955.061 506.095C952.241 498.685 946.339 488.914 940.83 476.716C935.256 464.518 929.747 453.501 924.369 443.729C918.926 433.958 911.45 430.81 905.22 427.728C898.99 424.711 890.202 421.826 880.824 422.022C866.528 422.285 871.906 411.726 873.939 409.431C878.726 404.119 884.956 399.791 891.055 394.282C895.121 390.61 901.351 391.134 904.827 395.331C904.827 395.331 905.023 395.528 905.154 395.659L934.01 419.268L924.697 405.627C924.697 405.627 919.32 398.873 944.306 399.856C944.306 399.856 976.833 399.725 977.948 403.922C977.948 403.922 983.194 409.169 970.931 420.383C970.078 421.17 969.423 422.153 969.16 423.268C967.849 428.974 966.34 440.188 970.603 453.238C973.62 462.551 981.358 497.57 995.195 534.951C1008.25 570.298 1070.87 685.456 1071.99 695.162C1071.99 695.162 1079.53 714.836 1071.99 720.345C1071.99 720.345 1067.2 724.083 1057.76 713.393Z" fill="#ECECEC"/>
<path d="M885.284 607.81C885.284 607.81 925.419 609.187 942.797 611.81C948.044 612.597 953.421 612.138 958.471 610.564C964.57 608.662 972.636 605.711 979.85 601.383C979.85 601.383 986.146 599.481 986.801 607.219C986.801 607.219 987.195 617.843 981.293 621.122L972.571 623.877L983.588 627.943C983.588 627.943 986.736 629.385 987.982 632.992C989.031 636.075 987.72 639.55 984.834 641.124C982.473 642.37 978.669 643.419 972.505 642.829C967.521 642.37 962.668 640.862 958.077 638.763C951.979 635.943 941.223 631.484 933.026 630.566C920.894 629.189 915.779 627.811 889.219 633.058C889.219 633.058 885.284 633.451 876.3 640.731C876.3 640.731 865.413 646.043 862.003 637.714C862.003 637.714 860.692 631.484 864.495 626.238C864.495 626.238 865.872 620.926 860.429 619.745C860.429 619.745 852.625 616.86 856.691 608.4C856.691 608.4 862.462 595.415 867.184 595.481C867.184 595.481 874.857 594.103 878.005 601.842C878.005 601.842 880.103 605.973 885.284 607.744V607.81Z" fill="#ECECEC"/>
<path d="M633.916 448.254C633.916 448.254 644.212 439.729 662.116 446.811C664.411 447.73 666.116 449.631 666.837 451.992C668.018 455.599 669.198 461.37 667.493 466.944C665.985 471.797 664.936 476.781 665.657 481.765C666.313 486.094 667.756 490.75 670.903 493.242C670.903 493.242 681.724 501.308 681.79 510.817C681.79 512.194 681.265 513.506 680.412 514.555C678.576 516.916 674.576 520.72 668.543 520.72C668.543 520.72 658.181 520.326 644.672 534.623C644.672 534.623 627.555 550.952 623.62 575.217C623.62 575.217 617.653 603.154 617.784 619.155C617.784 623.483 617.325 627.877 616.341 632.074C613.98 642.37 609.783 645.78 603.553 647.026C602.963 647.158 599.028 647.223 598.438 647.223C595.618 647.223 591.683 645.78 588.994 632.861C588.994 632.861 585.65 622.368 584.076 616.794C583.289 613.974 583.42 610.958 584.404 608.138L588.535 596.268L581.19 606.17C580.207 607.482 578.305 607.679 577.124 606.498C574.632 604.006 570.763 599.481 569.386 594.038C569.058 592.726 569.255 591.415 569.845 590.234C571.288 586.955 574.96 580.069 582.961 572.659C582.961 572.659 613.062 542.296 619.554 520.72C620.866 516.457 621.981 512.26 623.489 508.063C626.899 498.751 632.146 481.372 631.818 463.797C631.818 463.797 629.457 450.681 633.785 448.32L633.916 448.254Z" fill="#ECECEC"/>
</svg>
