<svg width="1825" height="1058" viewBox="0 0 1825 1058" fill="none" xmlns="http://www.w3.org/2000/svg">
<path d="M300.968 490.275C296.443 480.438 305.755 477.946 305.755 477.946C305.755 477.946 323.659 472.044 325.429 464.502C327.003 457.879 327.2 457.551 323.528 438.992C322.216 432.499 321.429 425.876 321.101 419.318C319.396 382.134 314.084 258.975 316.642 235.367C316.642 235.367 318.412 253.795 323.265 267.37C323.265 267.37 325.167 235.891 318.347 224.808C312.379 215.103 296.509 198.314 296.509 198.314C296.509 198.314 274.736 180.673 317.953 178.706C325.298 178.378 326.085 187.821 356.055 182.05C358.023 181.657 360.777 180.28 363.466 178.837C368.712 176.017 374.877 175.033 380.582 176.87C381.762 177.263 382.746 177.657 383.402 178.05C385.5 179.296 390.55 182.903 393.042 185.92C393.829 186.838 393.895 188.28 393.108 189.199C386.681 197.003 371.86 198.576 363.859 205.331C361.892 207.036 360.646 209.397 360.121 212.02C357.891 223.89 353.17 244.941 352.448 256.352C351.661 268.878 349.825 279.633 347.923 292.421C345.89 305.996 348.776 329.277 350.546 361.739C352.317 394.266 353.235 373.084 358.088 429.417C358.875 438.467 366.089 453.157 372.188 463.978C372.188 463.978 393.632 499.981 382.156 509.818C382.156 509.818 376.188 517.36 365.695 511.589C356.121 506.277 356.777 507.129 350.809 502.342C349.694 501.489 348.317 501.03 346.94 501.161C340.25 501.752 321.036 501.817 316.97 500.768C316.97 500.768 304.378 499.391 300.903 490.341L300.968 490.275ZM568.074 270.124C562.303 273.206 554.696 269.993 554.696 269.993C540.006 262.517 527.743 268.944 527.743 268.944C518.037 271.108 512.069 275.633 508.856 275.633C505.839 275.633 503.282 275.829 502.167 273.337C502.167 273.337 501.118 268.747 494.953 266.189C494.953 266.189 492.855 264.353 492.658 258.647C492.592 255.762 486.821 249.007 479.607 244.613C472.328 240.22 466.885 230.645 460.589 226.841C456.458 223.497 446.227 217.267 441.833 216.217C437.44 215.234 430.947 215.496 424.717 214.578C420.651 213.988 417.438 213.594 414.946 213.332C410.486 212.873 405.83 213.004 401.633 214.709C388.911 219.824 388.124 214.578 388.124 214.578C382.746 199.888 404.912 192.609 404.912 192.609C413.044 190.379 415.667 181.854 415.667 181.854C423.733 166.049 435.079 174.378 435.079 174.378C452.851 191.559 472.59 210.446 492.461 220.415C521.71 235.039 526.759 237.596 567.812 241.138C570.042 241.334 572.337 241.728 574.501 242.449C575.485 242.777 576.665 243.105 578.108 243.499C581.453 244.351 583.355 245.663 583.945 247.433C584.535 249.204 584.797 250.384 584.797 251.04C584.797 254.319 578.436 267.96 574.764 264.878C570.763 261.599 550.171 260.353 550.171 260.353L555.286 263.5C556.991 264.55 558.893 265.402 560.795 265.992C569.386 268.55 568.009 270.058 568.009 270.058L568.074 270.124ZM560.992 442.927C562.435 443.582 562.435 446.993 563.222 448.894C564.009 450.862 564.468 452.37 564.468 453.485C564.468 454.797 562.762 456.829 559.352 459.518C555.942 462.273 546.368 466.076 533.907 467.847C524.136 469.224 508.003 469.027 499.675 469.552C497.052 469.683 494.494 470.339 492.068 471.388C481.444 475.848 478.558 476.307 467.869 483.061C457.769 489.423 451.015 496.309 442.752 504.047C440.784 505.883 439.079 508.113 437.768 510.474C433.308 518.868 426.16 515.982 426.16 515.982C415.536 513.818 415.077 501.096 415.077 501.096C415.339 492.505 406.486 487.127 406.486 487.127C402.879 484.439 399.6 483.717 392.386 478.405C392.386 478.405 384.648 473.618 388.32 465.486C388.32 465.486 391.468 456.108 405.109 457.813C408.06 458.207 412.978 458.797 419.733 460.764C426.488 462.732 439.341 463.715 442.817 463.715C453.113 462.6 461.376 459.715 469.377 453.747C477.378 447.779 483.411 440.435 487.477 431.712C488.985 428.827 492.068 429.089 494.822 429.089C496.986 429.089 500.921 428.958 506.626 432.04C512.332 435.057 517.316 437.615 519.742 437.615L542.105 438.139C542.105 438.139 551.811 437.746 560.926 442.992L560.992 442.927ZM571.288 317.407C566.828 343.114 566.238 360.099 566.238 368.494C566.238 375.248 565.517 391.643 568.009 396.431C568.009 396.431 568.73 403.251 574.96 406.005C574.96 406.005 582.895 407.973 579.157 418.859C579.157 418.859 572.14 435.975 560.664 438.139C560.664 438.139 554.893 438.926 550.04 422.794C550.04 422.794 548.794 413.94 541.121 415.973C533.448 418.006 525.316 415.973 525.316 415.973C518.496 414.006 519.021 409.153 519.021 407.776C519.021 403.579 529.055 394.66 536.924 388.102C536.924 388.102 542.039 386.594 542.433 376.494C542.761 367.248 544.072 366.461 543.744 359.05C543.613 357.017 543.744 355.05 543.81 353.017L544.335 343.311C544.335 343.311 544.597 337.606 544.335 333.54C544.203 331.769 544.531 330.523 541.908 327.572C540.793 326.326 540.072 327.441 538.826 321.211C538.826 321.211 539.351 318.981 534.826 316.227C525.513 310.587 523.218 300.291 523.218 300.291C522.693 297.471 522.562 295.11 522.824 293.208C523.415 288.027 528.333 284.42 533.58 284.617C538.236 284.814 547.286 285.207 553.057 284.814C555.286 284.683 557.385 283.699 559.09 282.191C562.828 278.846 571.026 272.288 576.075 274.255C576.075 274.255 587.027 278.453 590.503 293.995C590.503 293.995 591.945 296.815 586.634 300.225C586.634 300.225 572.534 306.455 571.288 317.407Z" fill="#ECECEC"/>
<path d="M1243.87 485.357C1239.35 475.52 1248.66 473.028 1248.66 473.028C1248.66 473.028 1266.56 467.126 1268.33 459.584C1269.91 452.96 1270.11 452.633 1266.43 434.073C1265.12 427.581 1264.33 420.958 1264.01 414.4C1262.3 377.216 1261.19 228.809 1261.19 228.809C1261.19 228.809 1263.61 252.745 1266.17 262.451C1266.17 262.451 1266.3 233.006 1262.89 221.53C1259.48 210.053 1241.05 195.035 1241.05 195.035C1241.05 195.035 1219.28 177.394 1262.5 175.427C1269.84 175.099 1270.63 184.543 1300.6 178.772C1302.57 178.378 1305.32 177.001 1308.01 175.558C1313.26 172.738 1319.42 171.755 1325.13 173.591C1326.31 173.984 1327.29 174.378 1327.95 174.771C1330.05 176.017 1335.1 179.624 1337.59 182.641C1338.37 183.559 1338.44 185.002 1337.65 185.92C1331.23 193.724 1316.4 195.298 1308.4 202.052C1306.44 203.757 1305.19 206.118 1304.67 208.741C1302.44 220.611 1296.08 240.023 1295.35 251.434C1294.57 263.96 1292.73 274.715 1290.83 287.503C1288.8 301.078 1291.68 324.359 1293.45 356.821C1295.22 389.348 1296.14 368.166 1300.99 424.499C1301.78 433.549 1308.99 448.239 1315.09 459.059C1315.09 459.059 1336.54 495.063 1325.06 504.9C1325.06 504.9 1319.09 512.441 1308.6 506.67C1299.03 501.358 1299.68 502.211 1293.71 497.424C1292.6 496.571 1291.22 496.112 1289.85 496.243C1283.16 496.833 1263.94 496.899 1259.88 495.85C1259.88 495.85 1247.28 494.472 1243.81 485.422L1243.87 485.357ZM1480.68 256.484L1504.42 265.206C1498.65 268.288 1491.04 265.074 1491.04 265.074C1476.35 257.598 1470.65 264.025 1470.65 264.025C1461.86 271.698 1454.97 272.354 1451.76 272.354C1448.74 272.354 1447.83 270.911 1446.71 268.419C1446.71 268.419 1445.66 263.828 1439.5 261.271C1439.5 261.271 1437.4 259.435 1437.2 253.729C1437.14 250.844 1431.37 244.089 1424.15 239.695C1416.87 235.301 1409.79 225.727 1403.49 221.923C1399.36 218.578 1390.77 212.348 1386.38 211.299C1381.98 210.315 1375.49 210.578 1369.26 209.66C1365.2 209.069 1361.98 208.676 1359.49 208.414C1355.03 207.955 1350.38 209.725 1346.18 211.43C1333.46 216.545 1332.67 211.299 1332.67 211.299C1327.29 196.609 1349.46 189.33 1349.46 189.33C1357.59 187.1 1360.21 178.575 1360.21 178.575C1368.28 162.77 1379.62 171.099 1379.62 171.099C1397.4 188.281 1415.5 205.528 1435.37 215.496C1464.62 230.12 1469.66 232.678 1510.72 236.219C1512.95 236.416 1515.24 236.81 1517.41 237.531C1518.39 237.859 1519.57 238.187 1521.01 238.58C1524.36 239.433 1526.26 240.744 1526.85 242.515C1527.44 244.286 1527.7 245.466 1527.7 246.122C1527.7 254.319 1517.47 265.599 1514.39 263.238C1510.65 260.418 1480.62 256.352 1480.62 256.352L1480.68 256.484ZM1504.49 444.37C1506.06 455.321 1489.34 461.158 1476.88 462.929C1467.11 464.306 1450.97 464.109 1442.65 464.634C1440.02 464.765 1437.46 465.421 1435.04 466.47C1424.41 470.929 1421.53 471.388 1410.84 478.143C1400.74 484.504 1393.99 491.39 1385.72 499.129C1383.76 500.965 1382.05 503.195 1380.74 505.555C1376.28 513.95 1369.13 511.064 1369.13 511.064C1358.51 508.9 1358.05 496.178 1358.05 496.178C1358.31 487.587 1349.46 482.209 1349.46 482.209C1345.85 479.52 1342.57 478.799 1335.36 473.487C1335.36 473.487 1327.62 468.7 1331.29 460.568C1331.29 460.568 1334.44 451.19 1348.08 452.895C1351.03 453.288 1355.95 453.879 1362.7 455.846C1369.46 457.813 1382.31 458.797 1385.79 458.797C1396.08 457.682 1404.35 454.797 1412.35 448.829C1420.35 442.861 1426.38 435.516 1430.45 426.794C1431.96 423.909 1435.04 424.171 1437.79 424.171C1439.96 424.171 1443.89 424.04 1449.6 427.122C1455.3 430.139 1460.29 432.696 1462.71 432.696L1485.08 433.221C1485.08 433.221 1503.5 433.221 1504.42 444.435M1514.19 312.489C1509.73 338.196 1509.14 355.181 1509.14 363.575C1509.14 370.33 1508.42 386.725 1510.91 391.512C1510.91 391.512 1511.64 398.333 1517.87 401.087C1517.87 401.087 1525.8 403.054 1522.06 413.941C1522.06 413.941 1515.05 431.057 1503.57 433.221C1503.57 433.221 1497.8 434.008 1492.95 417.875C1492.95 417.875 1491.7 409.022 1484.03 411.055C1476.35 413.088 1468.22 411.055 1468.22 411.055C1461.4 409.088 1461.93 404.235 1461.93 402.858C1461.93 398.66 1471.96 389.742 1479.83 383.184C1479.83 383.184 1484.09 380.626 1485.34 371.576C1486.58 362.526 1486.98 361.542 1486.65 354.132C1486.52 352.099 1486.65 350.131 1486.72 348.098L1487.24 338.393C1487.24 338.393 1487.96 332.622 1487.24 328.621C1484.55 313.538 1477.73 311.308 1477.73 311.308C1468.42 305.668 1466.12 295.372 1466.12 295.372C1465.6 292.552 1465.47 290.192 1465.73 288.29C1466.32 283.109 1471.24 279.502 1476.49 279.699C1481.14 279.896 1490.19 280.289 1495.96 279.896C1498.19 279.764 1500.29 278.781 1502 277.272C1505.73 273.928 1513.93 267.37 1518.98 269.337C1518.98 269.337 1529.93 273.534 1533.41 289.077C1533.41 289.077 1534.85 291.897 1529.54 295.307C1529.54 295.307 1515.44 301.537 1514.19 312.489Z" fill="#ECECEC"/>
<path d="M669.264 401.48C670.969 401.48 673.395 402.792 673.395 402.792L674.248 410.924C674.248 410.924 677.002 407.71 678.248 407.907C684.347 409.088 693.004 415.908 693.004 415.908C698.185 420.695 700.021 431.254 699.234 434.598C698.053 439.779 686.774 450.862 679.363 452.96C674.51 455.125 670.313 452.96 670.313 452.96C663.69 449.419 660.148 437.156 660.148 437.156C657 430.139 645.393 434.139 645.393 434.139C638.9 436.041 636.408 432.172 636.408 432.172C631.359 425.155 636.08 415.908 636.08 415.908C636.671 411.711 637.261 404.89 637.261 404.89C636.343 394.594 637.982 364.69 637.982 364.69C640.278 337.475 638.441 318.391 638.441 318.391C639.097 312.357 637.982 255.631 637.982 255.631C636.015 252.877 636.343 248.942 636.343 248.942C638.573 241.138 635.228 232.219 635.228 232.219C634.966 223.89 616.538 220.546 616.538 220.546C605.127 217.464 606.242 211.889 606.242 211.889C610.963 194.642 620.473 193.461 620.473 193.461C623.292 193.396 632.474 193.724 636.999 194.839C644.147 196.609 648.541 197.462 650.18 197.462C650.18 197.462 655.689 198.642 659.558 194.904C659.558 194.904 661.722 191.035 676.871 191.428C678.773 191.428 681.331 193.265 682.511 194.707C686.511 199.626 687.692 199.757 689.331 201.331C691.233 203.167 692.348 205.659 692.348 208.348C692.348 212.217 691.036 217.857 683.232 220.48C683.232 220.48 681.527 220.48 680.871 228.547C680.871 228.547 677.789 239.302 677.068 243.171C675.494 251.368 671.625 261.074 671.625 261.074C669.985 264.681 667.493 279.043 667.493 279.043C667.231 290.716 665.919 322.719 665.919 322.719C664.477 331.966 666.509 378.331 666.509 378.331C665.591 388.758 667.231 401.611 669.067 401.546L669.264 401.48ZM682.839 464.109C689.594 465.289 697.725 467.126 707.431 468.372C717.203 469.552 727.499 470.142 738.385 470.142C754.649 470.142 781.34 473.225 795.439 469.618C795.439 469.618 814.523 466.47 828.36 446.206C828.36 446.206 847.772 433.483 849.674 473.225C849.674 473.946 850.067 474.602 850.723 474.93C853.084 476.11 859.314 479.192 863.905 480.438C866.003 481.029 867.446 482.865 867.643 485.029C867.97 488.964 867.97 494.997 865.544 500.506C863.314 505.49 858.396 508.638 852.953 509.097C844.427 509.753 833.803 509.097 826.983 506.933C821.409 505.227 810.851 503.588 810.851 503.588L688.479 491.587C688.479 491.587 698.84 495.391 696.611 495.718C684.609 497.686 665.395 516.704 658.181 516.835C650.967 516.966 643.229 514.081 643.884 492.636C643.884 491.325 643.294 490.079 642.179 489.488C636.54 486.275 619.882 475.651 627.096 464.24C628.145 462.535 630.047 461.486 632.015 461.42C639.819 461.158 662.837 460.764 682.904 464.24L682.839 464.109ZM772.027 317.276C780.749 316.948 780.946 317.079 792.947 309.341C792.947 309.341 799.243 304.947 803.702 305.34C808.162 305.734 812.556 306.259 814.261 309.931C815.048 311.702 815.31 313.21 815.507 314.522C817.343 331.507 802.456 333.671 802.456 333.671C807.965 345.803 799.177 354.066 799.177 354.066C795.833 358.722 789.209 359.772 784.291 356.755C781.471 354.984 777.798 352.427 771.962 348.557C760.551 341.081 750.648 342.196 742.254 342.196C740.09 342.196 737.073 342.393 733.27 342.852C729.466 343.311 724.744 344.754 719.039 347.246C713.333 349.738 702.906 354.853 696.939 358.46C696.939 358.46 683.626 364.493 681.462 358.657C680.412 355.837 676.806 344.098 676.609 341.081C676.084 333.605 676.478 320.948 677.002 317.669C677.068 317.079 677.265 316.489 677.461 315.964C679.166 311.177 684.609 308.882 689.594 309.997C693.2 310.784 697.594 312.357 702.71 315.505C711.366 320.752 766.519 317.276 771.962 317.276M794.915 207.43C804.948 204.807 832.689 196.412 845.411 187.887C845.411 187.887 852.887 184.215 858.855 188.74C858.855 188.74 868.364 192.806 863.183 213.791C863.183 213.791 860.429 222.972 854.461 223.103C852.69 223.103 844.427 224.218 853.018 229.924C855.51 231.563 857.15 237.924 849.674 243.499C849.674 243.499 838.328 251.959 831.049 242.777C823.77 233.596 817.605 230.645 814.589 230.186C811.31 229.53 798.128 230.055 796.489 229.924C794.849 229.793 773.47 230.055 772.093 230.055C765.601 230.055 758.911 229.793 753.796 233.006C749.074 236.023 740.746 238.252 736.68 239.236C735.499 239.498 734.319 240.089 733.598 241.072C730.843 244.548 723.236 247.04 723.236 247.04C712.284 248.745 711.3 238.777 711.3 238.777C709.727 231.366 709.989 221.661 709.989 221.661C697.463 218.382 699.234 205.856 699.234 205.856C700.283 189.264 714.645 195.494 714.645 195.494C721.662 198.905 737.073 201.331 737.073 201.331C745.664 203.495 798.062 202.708 798.062 202.708L794.783 207.43H794.915Z" fill="#ECECEC"/>
<path d="M927.124 505.818C921.221 508.966 918.467 506.277 916.172 501.949C911.45 493.161 916.369 479.061 926.206 459.781C928.107 456.043 930.206 452.436 931.845 448.567C937.354 435.844 945.42 422.728 945.42 422.728C958.077 399.054 962.143 385.741 962.143 385.741C957.749 392.693 946.994 411.645 946.994 411.645C946.994 411.645 977.554 290.323 978.538 281.863C979.456 273.403 979.981 264.55 979.981 255.434V239.433C979.981 227.366 1009.3 224.284 1009.3 224.284C1012.11 224.284 1013.49 227.17 1012.97 229.334C1011.85 231.76 1011.33 233.662 1011.33 235.236C1011.33 241.991 1015.92 248.221 1027.2 250.582C1038.48 252.942 1046.02 256.353 1046.35 258.713C1048.58 275.24 1034.22 269.141 1023.13 278.781C1011.98 288.487 1002.74 302.849 995.261 321.998C987.785 341.147 980.178 360.756 975.718 390.66C971.259 420.564 967.718 442.468 965.16 449.878C962.602 457.289 961.291 461.814 961.291 463.585C961.291 463.585 960.897 469.552 966.865 473.815C966.865 473.815 981.358 483.849 975.194 499.391C975.194 499.391 972.439 506.736 965.816 504.965C962.602 504.113 951.847 495.85 949.88 494.801C946.207 492.899 927.124 505.818 927.124 505.818ZM1134.29 465.814C1134.68 458.797 1134.81 451.715 1134.03 444.698C1132.58 431.451 1129.17 417.351 1123.8 402.399C1116.45 382.135 1105.7 361.739 1098.16 341.147C1090.55 320.555 1083.73 306.587 1080.84 299.176C1078.02 291.766 1072.12 281.994 1066.61 269.796C1061.04 257.599 1055.53 246.581 1050.15 236.81C1044.71 227.038 1037.23 222.251 1031 219.169C1024.77 216.152 1015.53 216.415 1006.61 213.463C997.622 210.512 998.54 205.397 999.72 202.512C1000.38 200.872 1010.41 191.494 1016.31 186.182C1020.44 182.51 1027 182.51 1030.61 186.772C1030.61 186.772 1030.67 186.904 1030.74 186.969L1059.79 210.709L1050.48 197.068C1050.48 197.068 1045.1 190.314 1070.09 191.297C1070.09 191.297 1102.62 191.166 1103.73 195.363C1103.73 195.363 1108.45 200.085 1098.35 210.316C1096.84 211.824 1095.66 213.66 1095.14 215.693C1093.76 221.136 1091.99 232.744 1096.38 246.319C1099.4 255.631 1107.14 290.651 1120.98 328.031C1134.81 365.412 1192.07 477.291 1201.44 501.621C1201.44 501.621 1205.31 509.818 1201.44 511.392C1201.44 511.392 1195.93 513.622 1183.61 507.13C1183.61 507.13 1171.47 499.916 1160.06 502.342C1158.55 502.67 1157.18 503.26 1155.87 503.982C1154.42 504.703 1152.39 505.818 1150.42 506.998C1150.42 506.998 1139.21 512.31 1134.88 498.866C1132.26 490.866 1133.77 474.995 1134.29 465.814Z" fill="#ECECEC"/>
<path d="M441.047 730.494C441.047 754.496 450.621 800.205 452.458 815.617C453.376 823.355 456.13 830.306 458.294 834.897C460.917 840.406 462.032 846.57 460.655 852.472C456.524 869.654 438.751 871.491 438.751 871.491C434.423 872.409 428.849 876.868 428.849 876.868L429.767 856.407C428.455 858.834 423.668 874.114 423.668 874.114C423.668 874.179 423.668 874.245 423.668 874.31C422.225 879.229 417.176 880.54 412.126 879.819C408.978 879.36 405.306 878.639 403.076 877.524C399.207 875.688 397.305 872.868 397.305 869.195C397.305 866.572 399.797 862.113 404.847 855.817C409.831 849.521 413.175 847.226 414.749 839.16C416.323 831.093 417.11 814.633 417.11 796.336C417.11 785.843 416.323 768.53 414.749 744.331C413.175 720.132 412.388 704.656 412.388 697.901C412.388 684.195 410.027 670.62 405.306 657.176C405.306 657.176 398.354 639.6 398.026 628.452C397.895 623.665 401.699 619.664 406.486 619.927C413.438 620.255 425.308 622.615 433.636 633.829C435.997 637.043 437.374 640.912 437.768 644.912C438.096 648.585 438.292 653.438 437.571 658.028C437.571 658.028 436.718 666.554 444.391 664.586C444.391 664.586 459.409 658.225 464.655 666.882C464.655 666.882 470.951 675.145 457.245 688.261C457.245 688.261 454.097 692.523 450.884 697.18C444.063 706.885 440.456 718.69 441.178 730.56C440.916 729.576 441.243 732.002 441.178 730.56L441.047 730.494ZM601.979 847.029C615.62 853.718 614.571 859.096 614.571 859.096C614.767 863.293 611.948 868.343 609.062 871.359C607.488 872.999 605.258 873.786 602.963 873.523C598.635 872.933 592.536 871.425 592.536 871.425C577.125 863.359 561.976 871.95 561.976 871.95C560.795 872.933 561.058 872.802 560.533 873.13C555.352 876.606 548.401 872.868 547.024 866.769C545.45 859.621 546.04 850.243 546.04 850.243C546.04 847.16 547.679 844.931 547.679 843.357C547.679 840.734 546.368 838.766 543.81 827.683C541.253 816.6 536.924 803.615 530.957 788.794C524.923 773.973 515.414 752.857 502.429 725.51C489.379 698.163 474.82 674.095 468.525 659.93C462.229 645.765 452.064 632.059 441.309 618.877C430.554 605.696 417.176 597.236 401.174 587.006C401.174 587.006 397.305 584.645 396.584 580.513C395.469 573.496 401.502 566.938 408.585 566.938C408.585 566.938 418.225 564.971 428.455 574.742C428.455 574.742 435.472 582.349 440.063 574.283C440.063 574.283 451.08 562.085 453.507 560.97C453.507 560.97 464.524 555.79 468.459 564.315C468.459 564.315 470.754 581.694 469.836 584.186C469.836 584.186 470.099 595.072 472.722 599.99C472.722 599.99 491.543 648.716 496.789 656.52L514.43 685.703C525.71 707.869 542.499 733.773 554.762 763.481C567.091 793.188 576.6 817.387 583.551 836.012C585.125 840.275 601.979 846.964 601.979 846.964V847.029ZM698.71 865.654C686.249 870.376 678.249 869.457 674.052 868.08C671.625 867.293 669.92 865.326 669.461 862.768C666.641 846.177 678.38 830.503 678.38 830.503C682.249 823.421 685.528 812.862 688.282 798.763C690.971 784.728 692.348 769.711 692.348 753.775C692.348 743.282 691.299 725.444 689.135 700.131C687.364 679.08 685.921 662.357 684.348 653.044C683.626 648.847 682.97 644.716 682.577 640.519C680.872 622.353 677.396 578.415 683.495 570.807C684.741 569.233 685.594 567.66 687.364 566.676C697.136 561.233 721.662 555.986 725.794 555.986C729.926 555.986 734.254 557.101 738.254 559.265L749.009 568.119C751.304 570.217 750.321 571.791 750.321 573.365C750.321 576.382 747.566 579.923 742.189 583.792C738.91 586.153 736.352 588.12 734.647 589.629C733.073 590.94 731.893 592.645 731.106 594.547C726.581 605.433 723.892 614.877 721.662 627.075C719.236 640.256 717.99 653.7 717.99 667.406C717.99 678.752 718.842 695.934 720.548 719.018C722.253 742.102 723.105 755.742 723.105 759.874V776.203C723.105 796.467 724.614 813.452 727.63 827.159C730.647 840.865 737.598 853.85 748.485 866.047C749.337 868.671 748.944 871.031 747.173 873.261C745.468 875.425 743.041 877.393 739.894 879.163C738.779 879.36 735.828 882.049 709.793 867.556C708.415 866.769 706.907 866.113 705.53 865.654C703.3 864.801 700.874 864.998 698.644 865.785L698.71 865.654Z" fill="#ECECEC"/>
<path d="M1358.77 837.192C1368.41 840.537 1373.92 844.603 1376.67 847.292C1378.77 849.259 1379.69 852.341 1378.51 854.965C1376.54 859.358 1370.97 860.604 1370.97 860.604C1357.72 865.392 1335.75 864.802 1335.75 864.802C1322.5 876.081 1315.03 874.573 1311.22 874.179C1309.39 873.983 1307.81 872.933 1306.9 871.359C1300.01 859.817 1298.83 836.537 1298.63 828.339C1298.63 826.372 1298.04 824.47 1296.93 822.83C1289.78 811.551 1272.27 784.663 1256.01 756.398C1238.23 725.641 1229.45 716.657 1216.4 696.589C1203.35 676.522 1182.75 643.535 1171.01 630.485C1159.28 617.435 1145.11 610.287 1133.7 603.532C1123.73 597.695 1113.57 592.711 1103.01 588.973C1097.63 586.481 1097.96 583.727 1096.58 577.497C1096.58 577.497 1096.45 570.676 1106.16 571.201L1126.55 570.545C1128.26 570.545 1129.9 571.267 1130.95 572.644L1134.16 576.775C1134.16 576.775 1135.34 571.595 1137.83 571.398C1142.55 571.07 1156.91 571.201 1156.91 571.201C1160.65 571.201 1164.39 570.414 1167.67 568.709C1172.39 566.217 1176.59 562.676 1178.95 560.446C1180.52 559.003 1182.56 558.085 1184.66 558.413C1189.38 559.069 1192.92 562.544 1192.92 562.544C1192.92 562.544 1192.92 562.544 1192.98 562.544C1196.66 565.561 1197.38 571.004 1195.41 575.398C1193.12 580.513 1191.67 584.448 1191.67 588.514C1191.67 597.433 1196.66 608.122 1206.69 620.583C1216.72 632.977 1222.69 641.83 1224.72 647.077C1234.76 664.718 1246.43 688.261 1266.3 717.575C1286.17 746.889 1324.14 796.664 1332.67 811.551C1337.92 820.601 1343.42 826.7 1347.62 830.503C1350.83 833.389 1354.64 835.684 1358.77 837.061V837.192ZM1151.8 792.139C1151.08 805.714 1154.29 816.797 1157.64 824.667C1159.73 829.651 1162.75 834.11 1166.49 837.979C1168.59 840.209 1170.95 842.898 1174.16 847.554C1186.29 865.457 1170.69 875.032 1170.69 875.032C1166.36 877.852 1162.16 874.114 1156.91 870.507C1154.62 868.933 1152.39 867.294 1150.62 865.129C1148.06 861.982 1144.98 860.932 1142.42 860.736C1139.86 860.539 1137.11 861.785 1135.86 864.211C1132.45 870.9 1126.35 873.261 1126.35 873.261C1119.21 876.344 1104.84 855.161 1104.84 855.161C1094.29 842.177 1104.84 833.454 1104.84 833.454C1105.83 832.536 1106.68 831.421 1107.27 830.175C1112.19 820.207 1123.67 774.629 1124.32 763.284L1117.3 779.22L1116.06 689.704C1116.06 689.704 1118.55 676.063 1116.45 668.98C1116.45 668.98 1111.8 638.42 1114.35 630.026C1114.35 630.026 1117.24 613.041 1135.47 617.172C1135.47 617.172 1141.24 618.418 1142.49 631.272C1142.49 631.272 1143.34 642.486 1152.85 642.027C1152.85 642.027 1166.23 637.043 1167.74 649.897C1167.74 649.897 1171.8 661.963 1164.85 665.636C1164.85 665.636 1152.85 668.521 1153.24 685.507C1153.24 685.507 1149.9 705.836 1151.6 716.198C1151.6 716.198 1154.95 744.069 1153.24 752.923C1152.52 756.464 1152.46 760.071 1152.39 763.678C1152.32 772.531 1152.13 785.778 1151.8 792.008V792.139ZM1385.13 779.81C1389.79 790.762 1390.71 797.517 1390.64 801.255C1390.64 803.616 1389.53 805.845 1387.82 807.419C1379.23 815.42 1366.51 816.272 1366.51 816.272C1362.11 816.797 1362.31 802.96 1362.31 802.96C1361.98 796.271 1344.08 796.992 1344.08 796.992C1340.8 796.861 1337.98 797.976 1335.23 797.254C1330.18 795.877 1327.16 790.5 1328.8 785.581C1330.31 781.122 1333.59 777.318 1333.59 777.318C1356.67 748.857 1354.31 703.016 1353.13 682.359C1352.93 678.621 1353.13 674.883 1353.79 671.21C1356.47 657.635 1357.65 611.467 1357.65 611.467L1350.31 652.979L1346.11 610.811C1345.85 605.303 1343.23 600.056 1338.64 596.974C1334.31 594.088 1329.72 592.58 1329.72 592.58C1321.32 589.694 1321.32 579.267 1321.32 579.267C1321.32 572.316 1329.46 565.758 1335.95 561.626C1342.44 557.495 1350.11 557.495 1356.28 561.626C1356.41 561.692 1356.47 561.758 1356.47 561.758C1363.49 568.053 1370.51 562.479 1370.51 562.479C1383.17 554.085 1389.79 558.347 1389.79 558.347C1398.58 561.364 1389.79 581.759 1389.79 581.759C1386.12 590.219 1383.1 601.499 1381.46 608.319C1380.61 611.926 1379.95 615.467 1379.56 619.14C1378.44 629.501 1377.33 641.306 1376.21 654.618C1374.9 670.03 1374.25 683.277 1374.25 694.36C1374.25 714.558 1376.02 732.527 1377.92 748.529C1380.21 767.547 1385.2 779.745 1385.2 779.745L1385.13 779.81Z" fill="#ECECEC"/>
<path d="M1011 400.89C1011 400.89 1051.13 402.267 1068.51 404.891C1073.76 405.678 1079.14 405.218 1084.19 403.645C1090.29 401.743 1098.35 398.792 1105.57 394.463C1105.57 394.463 1111.86 392.562 1112.52 400.3C1112.52 400.3 1112.91 410.924 1107.01 414.203L1098.29 416.957L1109.3 421.023C1109.3 421.023 1112.45 422.466 1113.7 426.073C1114.75 429.155 1113.44 432.631 1110.55 434.205C1108.19 435.451 1104.39 436.5 1098.22 435.91C1093.24 435.451 1088.38 433.942 1083.79 431.844C1077.69 429.024 1066.94 424.564 1058.74 423.646C1046.61 422.269 1041.49 420.892 1014.93 426.138C1014.93 426.138 1011 426.532 1002.02 433.811C1002.02 433.811 991.129 439.123 987.719 430.795C987.719 430.795 986.407 424.564 990.211 419.318C990.211 419.318 991.588 414.006 986.145 412.826C986.145 412.826 978.341 409.94 982.407 401.48C982.407 401.48 988.178 388.496 992.9 388.561C992.9 388.561 1000.57 387.184 1003.72 394.922C1003.72 394.922 1005.82 399.054 1011 400.825V400.89Z" fill="#ECECEC"/>
<path d="M799.702 879.032C793.8 882.18 789.8 880.409 788.75 875.163C786.717 865.392 790.587 853.915 800.424 834.635C802.325 830.897 804.424 827.29 806.063 823.421C811.572 810.698 819.638 797.582 819.638 797.582C832.295 773.908 836.361 760.595 836.361 760.595C831.968 767.547 821.212 786.499 821.212 786.499C821.212 786.499 851.773 665.177 852.756 656.717C853.674 648.257 854.199 639.404 854.199 630.288V614.287C854.199 602.22 883.513 600.777 883.513 600.777C886.333 600.777 887.71 603.663 887.186 605.827C886.071 608.253 885.546 610.155 885.546 611.729C885.546 618.484 890.137 623.074 901.416 625.435C912.696 627.796 920.631 631.141 920.566 633.567C920.041 652.389 908.433 643.994 897.35 653.635C886.202 663.34 876.955 677.702 869.479 696.852C862.003 716.001 854.396 735.609 849.936 765.514C845.477 795.418 841.936 817.322 839.378 824.732C836.82 832.143 835.509 836.668 835.509 838.438C835.509 838.438 835.115 842.767 841.083 847.029C841.083 847.029 855.576 857.063 849.412 872.605C849.412 872.605 846.657 879.95 840.034 878.18C836.82 877.327 826.065 869.064 824.098 868.015C820.425 866.113 799.702 879.032 799.702 879.032ZM1057.76 881.393C1057.76 881.393 1047.27 871.622 1035.85 874.048C1034.41 874.376 1033.03 874.966 1031.72 875.622C1030.28 876.343 1028.25 877.458 1026.28 878.639C1026.28 878.639 1015.07 887.23 1010.74 873.786C1008.11 865.785 1007.98 849.915 1008.51 840.734C1008.9 833.717 1009.03 826.634 1008.25 819.617C1006.8 806.37 1003.39 792.27 998.015 777.318C990.67 757.054 979.915 736.659 972.374 716.067C964.766 695.475 957.946 681.506 955.061 674.095C952.241 666.685 946.339 656.914 940.83 644.716C935.256 632.518 929.747 621.501 924.369 611.729C918.926 601.958 911.45 598.81 905.22 595.728C898.99 592.711 890.202 589.826 880.824 590.022C866.528 590.285 871.906 579.726 873.939 577.431C878.726 572.119 884.956 567.791 891.055 562.282C895.121 558.61 901.351 559.134 904.827 563.331C904.827 563.331 905.023 563.528 905.154 563.659L934.01 587.268L924.697 573.627C924.697 573.627 919.32 566.873 944.306 567.856C944.306 567.856 976.833 567.725 977.948 571.922C977.948 571.922 983.194 577.169 970.931 588.383C970.078 589.17 969.423 590.153 969.16 591.268C967.849 596.974 966.34 608.188 970.603 621.238C973.62 630.551 981.358 665.57 995.195 702.951C1008.25 738.298 1070.87 853.456 1071.99 863.162C1071.99 863.162 1079.53 882.836 1071.99 888.345C1071.99 888.345 1067.2 892.083 1057.76 881.393Z" fill="#ECECEC"/>
<path d="M885.284 775.81C885.284 775.81 925.419 777.187 942.797 779.81C948.044 780.597 953.421 780.138 958.471 778.564C964.57 776.662 972.636 773.711 979.85 769.383C979.85 769.383 986.146 767.481 986.801 775.219C986.801 775.219 987.195 785.843 981.293 789.122L972.571 791.877L983.588 795.943C983.588 795.943 986.736 797.385 987.982 800.992C989.031 804.075 987.72 807.55 984.834 809.124C982.473 810.37 978.669 811.419 972.505 810.829C967.521 810.37 962.668 808.862 958.077 806.763C951.979 803.943 941.223 799.484 933.026 798.566C920.894 797.189 915.779 795.811 889.219 801.058C889.219 801.058 885.284 801.451 876.3 808.731C876.3 808.731 865.413 814.043 862.003 805.714C862.003 805.714 860.692 799.484 864.495 794.238C864.495 794.238 865.872 788.926 860.429 787.745C860.429 787.745 852.625 784.86 856.691 776.4C856.691 776.4 862.462 763.415 867.184 763.481C867.184 763.481 874.857 762.103 878.005 769.842C878.005 769.842 880.103 773.973 885.284 775.744V775.81Z" fill="#ECECEC"/>
<path d="M633.916 616.254C633.916 616.254 644.212 607.729 662.116 614.811C664.411 615.73 666.116 617.631 666.837 619.992C668.018 623.599 669.198 629.37 667.493 634.944C665.985 639.797 664.936 644.781 665.657 649.765C666.313 654.094 667.756 658.75 670.903 661.242C670.903 661.242 681.724 669.308 681.79 678.817C681.79 680.194 681.265 681.506 680.412 682.555C678.576 684.916 674.576 688.72 668.543 688.72C668.543 688.72 658.181 688.326 644.672 702.623C644.672 702.623 627.555 718.952 623.62 743.217C623.62 743.217 617.653 771.154 617.784 787.155C617.784 791.483 617.325 795.877 616.341 800.074C613.98 810.37 609.783 813.78 603.553 815.026C602.963 815.158 599.028 815.223 598.438 815.223C595.618 815.223 591.683 813.78 588.994 800.861C588.994 800.861 585.65 790.368 584.076 784.794C583.289 781.974 583.42 778.958 584.404 776.138L588.535 764.268L581.19 774.17C580.207 775.482 578.305 775.679 577.124 774.498C574.632 772.006 570.763 767.481 569.386 762.038C569.058 760.726 569.255 759.415 569.845 758.234C571.288 754.955 574.96 748.069 582.961 740.659C582.961 740.659 613.062 710.296 619.554 688.72C620.866 684.457 621.981 680.26 623.489 676.063C626.899 666.751 632.146 649.372 631.818 631.797C631.818 631.797 629.457 618.681 633.785 616.32L633.916 616.254Z" fill="#ECECEC"/>
</svg>
