<svg width="1825" height="720" viewBox="0 0 1825 720" fill="none" xmlns="http://www.w3.org/2000/svg">
<g clip-path="url(#clip0_261_761)">
<path d="M385.138 139.346C333.178 136.559 283.392 139.346 283.392 139.346C283.392 139.346 369.05 181.635 283.392 239.388C283.392 239.388 358.723 235.836 368.289 231.41C368.289 231.41 343.668 214.691 345.244 203.163C345.244 203.163 441.99 200.322 448.349 181.198C454.708 162.075 437.044 142.132 385.138 139.346ZM404.65 172.893C404.161 180.051 399.976 182.783 394.269 187.755C388.616 192.727 376.007 192.454 372.583 191.47C369.104 190.487 361.712 186.498 361.712 186.498C351.82 178.084 354.81 173.112 355.788 169.888C356.766 166.665 367.909 162.458 375.029 159.999C382.203 157.486 387.366 159.999 387.366 159.999C408.618 164.206 405.139 165.681 404.65 172.893Z" fill="#ECECEC"/>
<path d="M445.739 134.428C445.739 134.428 485.198 161.146 472.806 185.241C460.414 209.336 415.791 230.863 415.791 230.863H562.595C562.595 230.863 568.791 191.196 564.66 187.044C564.66 187.044 515.037 229.771 494.982 200.813L492.916 186.279C492.916 186.279 513.298 188.137 522.864 192.071L521.831 165.517C521.831 165.517 499.003 178.466 490.959 178.247C488.568 166.937 488.568 156.447 504.547 149.726C520.527 143.006 572.378 162.184 572.378 162.184L585.259 162.457C585.259 162.457 580.857 148.47 585.259 133.39C585.259 133.39 521.288 140.383 445.685 134.428H445.739Z" fill="#ECECEC"/>
<path d="M706.083 208.462L709.996 197.535C709.996 197.535 748.966 184.913 754.836 172.893C754.836 172.893 755.38 160.873 754.293 159.998C753.151 159.179 747.607 145.192 730.595 141.531C713.638 137.925 718.638 130.33 604.445 135.357C604.445 135.357 637.328 148.798 630.099 183.82C622.87 218.789 585.313 234.743 585.313 234.743H648.742C648.742 234.743 641.241 231.41 642.872 219.663C644.557 207.861 651.242 197.535 651.242 197.535C651.242 197.535 681.298 201.468 698.854 244.851L758.151 230.864C758.151 230.864 704.724 228.022 706.083 208.462ZM670.537 153.879C686.407 145.465 701.463 148.962 701.463 148.962C723.421 150.382 723.421 171.472 723.421 171.472C719.127 172.073 703.474 169.833 703.474 169.833C673.58 164.916 670.537 153.879 670.537 153.879Z" fill="#ECECEC"/>
<path d="M858.431 132.188C858.431 132.188 898.053 137.051 893.216 168.741C888.379 200.431 918.327 213.38 918.327 213.38L921.805 217.97C921.805 217.97 928.382 212.178 929.904 212.233C931.425 212.287 937.241 217.15 937.241 217.15C937.241 217.15 1004.2 214.91 1006.32 181.417C1008.44 147.924 1002.63 145.793 1036.7 130.385L942.839 124.539C942.839 124.539 969.254 139.674 970.341 153.497C971.428 167.32 966.373 185.132 961.862 191.252C961.862 191.252 942.839 201.087 940.719 201.633C938.6 202.179 936.48 202.671 934.904 200.048C933.545 197.808 914.957 184.641 911.37 167.921C910.337 162.949 911.533 157.813 914.468 153.661C918.327 148.252 925.012 139.564 932.023 133.664L858.431 132.134V132.188Z" fill="#ECECEC"/>
<path d="M1046.11 116.725C1046.11 116.725 1070.4 136.122 1070.78 145.082C1071.16 154.043 1070.78 166.282 1070.78 166.282C1070.78 166.282 1064.37 189.284 1011.1 209.009H1121.55C1121.55 209.009 1097.96 192.836 1095.46 180.979C1092.96 169.123 1094.75 139.291 1094.75 139.291C1094.75 139.291 1125.84 151.147 1131.22 193.874L1190.9 196.005C1190.9 196.005 1173.4 181.253 1174.48 164.752C1175.57 148.251 1228.45 111.59 1228.45 111.59L1132.31 106.945C1132.31 106.945 1152.69 124.539 1154.48 138.198C1156.28 151.858 1150.57 165.845 1150.57 165.845L1143.78 166.555C1143.78 166.555 1136.27 147.159 1133.77 145.738C1131.27 144.318 1113.77 127.434 1109.1 127.762C1109.1 127.762 1078.72 119.512 1046.21 116.616L1046.11 116.725Z" fill="#ECECEC"/>
<path d="M500.58 263.592C492.373 260.15 478.73 254.631 430.738 247.583C425.901 246.873 421.009 246.49 416.117 246.436C390.464 246.326 302.305 246.272 258.281 250.206C258.281 250.206 305.512 256.216 320.133 279.109C320.133 279.109 336.927 299.817 336.927 303.641C336.927 307.466 340.188 337.407 322.85 347.789C322.85 347.789 309.317 361.994 289.75 373.96L401.388 371.501C401.388 371.501 405.41 371.173 404.867 368.387C404.867 368.387 378.071 361.557 374.756 335.987C374.756 335.987 374.267 326.753 375.462 323.092C375.462 323.092 436.662 317.956 441.391 317.137C446.12 316.372 506.939 308.012 508.515 282.223C508.515 282.223 509.167 267.143 500.58 263.592ZM439.815 294.244C439.163 295.828 437.804 294.517 436.662 298.997C435.575 303.477 429.325 304.789 429.325 304.789C429.325 304.789 415.248 306.373 407.693 304.789C400.084 303.259 387.148 295.609 387.365 288.452C387.583 281.24 397.638 277.197 399.432 276.104C400.573 275.394 407.91 273.973 412.856 273.099C416.117 272.498 419.542 272.662 422.694 273.59C443.565 279.928 440.413 292.823 439.815 294.244Z" fill="#ECECEC"/>
<path d="M529.059 252.445C529.059 252.445 547.919 273.317 546.832 277.524C545.745 281.731 548.735 293.096 542.702 307.138C536.669 321.18 524.548 369.042 558.572 380.024C558.572 380.024 586.889 381.554 605.423 377.73C623.957 373.905 638.632 373.195 652.274 361.775C665.917 350.356 674.45 345.603 676.787 321.507C676.787 321.507 674.069 289.927 678.146 273.044C679.233 268.618 682.657 265.176 687.059 264.028C692.603 262.608 700.973 260.75 707.55 260.532L609.119 254.576C609.119 254.576 644.665 268.946 641.187 292.768C639.719 305.717 642.708 330.796 601.075 356.475C601.075 356.475 598.195 359.972 594.227 356.475C590.259 352.979 573.41 350.52 567.051 332.326C567.051 332.326 562.214 313.53 576.454 291.675C576.454 291.675 593.303 271.514 598.031 266.924C598.031 266.924 544.115 253.92 529.168 252.391L529.059 252.445Z" fill="#ECECEC"/>
<path d="M864.516 244.851C864.516 244.851 775.488 242.283 731.953 272.826L719.017 284.846C716.626 287.086 714.886 289.927 714.017 293.042L708.092 314.132C707.712 315.607 707.495 317.082 707.495 318.612V335.714C707.495 340.795 709.832 345.603 713.799 348.717L737.225 367.021C739.997 369.207 743.312 370.518 746.791 370.9C764.455 372.758 821.089 378.003 845.765 371.556C876.419 366.802 903.16 350.247 903.16 350.247C903.16 350.247 906.313 349.865 907.237 347.625C908.161 345.384 910.389 334.02 910.389 334.02C910.389 334.02 908.269 313.094 888.485 297.904C888.485 297.904 862.723 286.922 860.44 286.704C858.157 286.485 818.263 280.967 793.751 287.687C793.751 287.687 767.988 296.429 765.977 300.144C763.966 303.86 751.193 328.174 789.946 336.697C790.272 336.752 790.598 336.315 790.272 336.096C786.141 332.818 773.64 321.562 782.826 312.11C782.826 312.11 790 299.161 821.524 298.177C821.524 298.177 838.156 297.904 839.895 297.194C841.634 296.484 847.124 297.249 849.352 300.363C851.689 305.991 857.016 312.165 857.016 312.165C857.016 312.165 858.755 329.594 855.548 332.381C852.342 335.167 842.395 348.608 806.686 354.072C770.977 359.536 769.51 356.039 769.51 356.039C769.51 356.039 739.019 340.522 737.768 309.761L746.682 289.982C746.682 289.982 773.967 266.324 830.981 267.799C830.981 267.799 849.57 269.766 856.744 276.541C856.744 276.541 860.114 271.787 864.516 244.906V244.851Z" fill="#ECECEC"/>
<path d="M900.499 247.036C900.499 247.036 929.849 266.542 934.36 273.208C938.871 279.874 950.448 300.636 947.567 328.064C947.567 328.064 942.241 351.176 895.118 374.725L1006.7 371.282C1006.7 371.282 973.656 352.596 965.775 319.759C962.895 301.783 967.406 274.464 967.406 274.464C967.406 274.464 995.234 272.825 1011.05 291.074C1026.87 309.323 1033.5 330.523 1030.18 355.875L1120.95 358.989C1120.95 358.989 1088.99 344.291 1096.44 302.548C1096.44 302.548 1108.61 274.41 1126.49 256.052L1032.68 254.686C1032.68 254.686 1075.57 273.372 1071.49 305.936C1071.49 305.936 1073.17 307.302 1071.82 312.383C1071.82 312.383 1065.73 326.753 1056.16 337.407C1056.16 337.407 1041.27 255.123 970.667 248.238C928.544 243.485 900.445 247.036 900.445 247.036H900.499Z" fill="#ECECEC"/>
<path d="M1389.17 263.537C1389.17 263.537 1360.75 244.414 1354.33 242.993C1347.97 241.573 1336.61 236.929 1333.41 236.601C1330.2 236.218 1274.17 234.087 1242.59 238.349C1211.06 242.666 1173.61 253.812 1173.61 253.812C1173.61 253.812 1158.12 262.608 1155.73 266.597C1153.34 270.585 1136.71 299.325 1135.89 305.28C1135.13 311.29 1131.55 334.02 1139.86 349.154C1148.23 364.344 1172.8 376.692 1181.17 377.894C1189.49 379.096 1254.54 388.275 1303.79 377.894C1352.97 367.513 1370.8 358.06 1370.8 358.06C1370.8 358.06 1388.14 345.439 1388.58 341.778C1388.58 341.778 1402.6 324.95 1403.47 318.284C1404.39 311.673 1408.96 280.803 1389.17 263.537ZM1318.19 337.79C1316.4 342.325 1294.49 357.132 1289.06 358.88C1286.12 359.863 1258.29 364.289 1258.29 364.289C1258.29 364.289 1231.66 364.016 1213.67 361.612C1195.68 359.208 1177.75 346.259 1177.75 346.259C1175.03 345.931 1172.91 339.32 1169.92 332.381C1166.93 325.442 1172.04 309.269 1172.04 309.269C1218.45 243.977 1302.92 291.457 1302.92 291.457C1316.89 297.85 1320.58 310.689 1322.7 319.541C1324.77 328.392 1319.98 333.31 1318.19 337.79Z" fill="#ECECEC"/>
<path d="M816.036 402.644C786.469 397.071 736.302 400.732 736.302 400.732C736.302 400.732 733.422 401.77 735.759 403.518C738.041 405.267 761.25 409.911 765.326 430.564C768.859 448.813 745.216 458.921 739.563 461.052C739.291 461.107 739.346 461.489 739.563 461.489C747.716 461.598 794.241 461.872 823.754 451.545C856.256 440.18 857.126 428.543 857.126 428.543C857.126 428.543 849.571 409.638 815.982 402.644H816.036ZM820.438 428.706C820.493 429.471 817.721 436.028 817.449 437.667C817.177 439.252 814.731 439.415 808.916 441C803.1 442.639 803.752 443.841 799.187 443.732C794.621 443.568 789.023 439.689 782.555 436.684C776.142 433.733 779.512 429.963 780.707 428.324C781.903 426.74 806.198 420.402 806.579 420.402C811.688 420.511 813.971 423.898 817.286 425.537C820.656 427.122 820.384 427.942 820.438 428.706Z" fill="#ECECEC"/>
<path d="M853.702 398.22C853.702 398.22 864.3 401.552 867.235 404.721C870.17 407.89 884.084 420.621 882.236 430.565C880.388 440.509 865.387 455.152 859.3 457.665L932.022 455.808C932.022 455.808 909.901 449.524 906.586 441.547C903.27 433.57 902.238 421.878 903.27 419.364C904.303 416.851 914.304 399.695 923.489 398.22C923.489 398.22 879.301 396.526 853.702 398.22Z" fill="#ECECEC"/>
<path d="M371.766 487.115C331.438 471.488 244.855 451.655 122.999 465.97C122.999 465.97 217.843 464.112 228.822 525.798L228.061 532.136C227.028 540.714 223.332 548.746 217.462 554.975C205.668 567.541 179.253 588.358 156.752 595.789C156.752 595.789 255.834 598.084 302.577 589.834C349.319 581.529 386.876 558.963 398.29 543.774C409.758 528.585 412.041 502.796 371.766 487.115ZM328.285 566.394C324.263 566.831 318.774 567.869 318.774 567.869C312.632 571.093 277.086 571.912 273.934 570C271.542 568.58 261.324 567.378 256.215 566.886C253.932 566.667 251.758 565.465 250.508 563.444C248.714 560.493 247.247 555.248 250.019 546.834C258.661 529.623 274.314 519.624 292.087 514.106C304.642 510.172 320.024 510.008 328.013 510.227C331.546 510.336 334.97 511.538 337.797 513.614C348.613 521.755 351.874 527.273 352.635 539.185C353.45 552.571 332.307 565.957 328.285 566.394Z" fill="#ECECEC"/>
<path d="M643.416 495.037C631.784 483.29 621.403 470.832 589.499 461.052C557.595 451.217 504.982 451.217 481.285 464.658C481.285 464.658 432.586 495.419 426.553 530.551C426.553 530.551 423.944 541.807 429.107 552.68C434.271 563.498 445.522 578.687 467.48 582.566C472.697 583.768 477.535 585.298 481.448 586.719C489.818 589.779 498.677 591.363 507.591 590.817C526.125 589.724 559.442 584.697 602.271 565.629C608.576 562.788 614.609 559.345 620.153 555.248C629.719 548.09 644.013 535.797 650.318 522.301C650.318 522.301 655.047 506.729 643.416 495.037ZM571.617 548.8C547.268 566.612 537.213 561.531 514.222 563.389C491.231 565.246 477.698 553.007 477.698 553.007C477.698 553.007 465.306 543.446 470.849 535.469C476.937 523.503 495.199 510.226 495.199 510.226C522.157 499.08 544.115 504.107 544.115 504.107C569.769 509.953 572.922 516.072 572.922 516.072C587.488 533.338 571.617 548.8 571.617 548.8Z" fill="#ECECEC"/>
<path d="M660.265 470.996C660.265 470.996 659.232 472.69 661.787 474.93C664.341 477.17 691.952 495.692 685.702 531.808C676.897 563.607 623.687 593.822 623.687 593.822C623.687 593.822 708.584 579.07 811.526 590.926C811.526 590.926 810.33 578.086 814.461 567.104C818.591 556.122 819.515 541.807 819.515 541.807C819.515 541.807 786.959 569.781 740.814 574.207C740.814 574.207 702.659 570.928 707.66 539.73C707.66 539.73 709.127 530.824 713.584 525.743C718.041 520.662 754.13 486.513 776.904 473.4L660.319 470.996H660.265Z" fill="#ECECEC"/>
<path d="M825.222 473.237C825.222 473.237 824.842 475.641 825.222 476.024C825.603 476.406 869.193 495.693 875.28 527.82C881.368 559.947 841.473 588.741 841.473 588.741H996.049C996.049 588.741 1008.98 564.482 1010.78 561.86C1012.57 559.237 1028.01 549.894 1026.38 548.419C1024.75 546.943 1002.73 556.778 973.385 569.126C973.385 569.126 933.925 580.491 910.337 565.903C910.337 565.903 901.912 558.308 900.988 547.818C900.825 546.069 900.88 544.212 901.043 542.354C901.967 531.863 906.804 522.193 913.924 514.489C927.403 499.9 953.927 472.254 962.297 470.942C962.297 470.942 894.303 475.095 825.168 473.183L825.222 473.237Z" fill="#ECECEC"/>
<path d="M1169.16 593.166L1254.38 592.401C1254.38 592.401 1223.78 581.474 1211.88 557.051C1200.63 533.884 1192.09 527.219 1201.61 490.885C1202.42 487.825 1203.51 484.82 1204.92 481.979C1206.77 478.209 1209.21 471.324 1206.82 464.494C1205.84 463.347 1208.24 460.67 1210.63 458.43L1065.02 459.468C1065.02 459.468 1063.44 463.948 1065.02 465.533C1066.6 467.117 1099.7 477.717 1096.49 510.554C1093.23 543.337 1056.16 576.174 1007.41 598.849L1094.86 600.488C1094.86 600.488 1072.3 589.943 1096.71 563.607C1096.71 563.607 1130.24 551.15 1134.16 551.314C1137.2 549.748 1140.08 549.693 1142.8 551.15C1142.8 551.15 1172.8 554.865 1180.79 570.874C1178.67 584.37 1169.16 593.166 1169.16 593.166ZM1135.51 533.72C1119.21 530.989 1114.59 522.137 1114.59 522.137C1114.59 522.137 1108.56 516.783 1116.27 508.696C1124.05 500.555 1142.42 494.709 1142.42 494.709C1149.1 493.507 1166.28 491.595 1174.05 496.567C1181.77 501.594 1183.67 502.959 1181.93 514.215C1180.25 525.47 1151.87 536.507 1135.51 533.72Z" fill="#ECECEC"/>
<path d="M1526.25 491.705C1524.94 479.684 1485.86 459.195 1440.32 456.737C1394.83 454.333 1264.71 462.911 1264.71 462.911C1264.71 462.911 1349.12 489.082 1350.58 521.592C1352 554.101 1359.71 553.118 1285.91 603.056L1383.63 601.964C1383.63 601.964 1375.37 593.768 1375.37 591.856C1375.37 589.943 1372.11 567.269 1373.3 564.865C1375.04 562.679 1376.4 562.624 1377.43 557.598C1377.43 557.598 1389.06 547.381 1389.55 546.069C1389.99 544.703 1416.51 548.856 1427.87 565.739C1448.91 593.932 1485.92 600.27 1485.92 600.27L1504.67 577.103C1504.67 577.103 1470.48 569.236 1454.61 547.982C1454.61 547.982 1506.84 530.006 1515.98 519.952C1522.06 515.363 1527.55 503.78 1526.25 491.705ZM1479.61 512.248C1478.47 515.472 1470.54 519.187 1470.54 519.187C1457.93 527.165 1427.11 528.312 1414.66 527.165C1402.22 525.963 1397.65 521.755 1395.53 517.822C1393.47 513.942 1393.63 502.632 1399.34 492.142C1405.04 481.651 1423.9 478.756 1423.9 478.756C1423.9 478.756 1430.32 477.39 1448.85 480.122C1467.33 482.799 1473.74 490.612 1475.43 492.47C1477.11 494.327 1480.81 509.025 1479.61 512.248Z" fill="#ECECEC"/>
<path d="M1526.41 450.016C1526.41 450.016 1587.39 469.248 1591.31 515.581C1591.31 515.581 1596.09 535.25 1580.44 564.973C1547.83 603.111 1536.96 607.809 1536.96 607.809L1663.43 613.055C1663.43 613.055 1631.26 588.14 1625.6 568.47C1619.95 548.801 1637.34 509.899 1637.34 509.899C1637.34 509.899 1646.04 488.043 1703 456.354L1526.41 450.016Z" fill="#ECECEC"/>
</g>
<defs>
<clipPath id="clip0_261_761">
<rect width="1580" height="506" fill="white" transform="translate(123 107)"/>
</clipPath>
</defs>
</svg>
