<svg width="1825" height="720" viewBox="0 0 1825 720" fill="none" xmlns="http://www.w3.org/2000/svg">
<g clip-path="url(#clip0_261_761)">
<path d="M302.961 105.313C242.956 102.098 185.462 105.313 185.462 105.313C185.462 105.313 284.382 154.097 185.462 220.718C185.462 220.718 272.457 216.621 283.504 211.516C283.504 211.516 255.07 192.229 256.891 178.93C256.891 178.93 368.615 175.653 375.958 153.593C383.302 131.533 362.903 108.527 302.961 105.313ZM325.494 144.012C324.929 152.269 320.096 155.42 313.506 161.156C306.978 166.892 292.416 166.576 288.462 165.442C284.445 164.307 275.909 159.706 275.909 159.706C264.485 150 267.937 144.264 269.067 140.546C270.197 136.827 283.064 131.974 291.287 129.138C299.572 126.238 305.535 129.138 305.535 129.138C330.076 133.991 326.059 135.693 325.494 144.012Z" fill="#121212"/>
<path d="M372.945 99.6404C372.945 99.6404 418.513 130.461 404.202 158.257C389.892 186.052 338.36 210.885 338.36 210.885H507.892C507.892 210.885 515.048 165.127 510.278 160.337C510.278 160.337 452.972 209.625 429.811 176.22L427.426 159.454C427.426 159.454 450.963 161.597 462.01 166.135L460.818 135.504C460.818 135.504 434.456 150.441 425.166 150.189C422.405 137.142 422.405 125.041 440.858 117.288C459.311 109.536 519.19 131.659 519.19 131.659L534.066 131.974C534.066 131.974 528.982 115.839 534.066 98.4429C534.066 98.4429 460.19 106.51 372.882 99.6404H372.945Z" fill="#121212"/>
<path d="M673.595 185.044L678.115 172.438C678.115 172.438 723.118 157.878 729.897 144.012C729.897 144.012 730.525 130.146 729.269 129.137C727.951 128.192 721.549 112.057 701.903 107.834C682.32 103.674 688.094 94.913 556.222 100.712C556.222 100.712 594.196 116.217 585.848 156.618C577.5 196.956 534.128 215.36 534.128 215.36H607.377C607.377 215.36 598.715 211.515 600.598 197.964C602.544 184.35 610.264 172.438 610.264 172.438C610.264 172.438 644.974 176.976 665.247 227.02L733.726 210.885C733.726 210.885 672.026 207.608 673.595 185.044ZM632.546 122.078C650.874 112.372 668.26 116.406 668.26 116.406C693.618 118.044 693.618 142.373 693.618 142.373C688.659 143.067 670.583 140.483 670.583 140.483C636.061 134.81 632.546 122.078 632.546 122.078Z" fill="#121212"/>
<path d="M849.531 97.0559C849.531 97.0559 895.288 102.665 889.702 139.222C884.116 175.778 918.7 190.716 918.7 190.716L922.717 196.01C922.717 196.01 930.312 189.329 932.069 189.392C933.827 189.455 940.543 195.065 940.543 195.065C940.543 195.065 1017.87 192.481 1020.32 153.844C1022.77 115.208 1016.05 112.75 1055.41 94.976L947.007 88.2319C947.007 88.2319 977.512 105.691 978.767 121.637C980.023 137.583 974.185 158.13 968.976 165.19C968.976 165.19 947.007 176.535 944.56 177.165C942.112 177.795 939.664 178.362 937.844 175.337C936.274 172.753 914.808 157.563 910.666 138.276C909.473 132.541 910.854 126.616 914.243 121.826C918.7 115.586 926.42 105.565 934.517 98.7577L849.531 96.9929V97.0559Z" fill="#121212"/>
<path d="M1066.26 79.2191C1066.26 79.2191 1094.32 101.594 1094.76 111.931C1095.2 122.267 1094.76 136.386 1094.76 136.386C1094.76 136.386 1087.35 162.921 1025.84 185.674H1153.38C1153.38 185.674 1126.14 167.018 1123.25 153.34C1120.37 139.663 1122.44 105.25 1122.44 105.25C1122.44 105.25 1158.34 118.927 1164.55 168.215L1233.47 170.673C1233.47 170.673 1213.26 153.656 1214.52 134.621C1215.77 115.586 1276.84 73.2944 1276.84 73.2944L1165.81 67.937C1165.81 67.937 1189.35 88.2321 1191.42 103.989C1193.49 119.746 1186.9 135.882 1186.9 135.882L1179.05 136.701C1179.05 136.701 1170.39 114.326 1167.5 112.687C1164.62 111.048 1144.41 91.5726 1139.01 91.9508C1139.01 91.9508 1103.92 82.4335 1066.39 79.093L1066.26 79.2191Z" fill="#121212"/>
<path d="M436.276 248.639C426.798 244.668 411.044 238.302 355.621 230.172C350.035 229.352 344.386 228.911 338.737 228.848C309.111 228.722 207.304 228.659 156.463 233.197C156.463 233.197 211.007 240.13 227.892 266.539C227.892 266.539 247.286 290.427 247.286 294.839C247.286 299.251 251.052 333.79 231.03 345.766C231.03 345.766 215.401 362.153 192.805 375.956L321.727 373.12C321.727 373.12 326.372 372.742 325.744 369.527C325.744 369.527 294.801 361.649 290.972 332.152C290.972 332.152 290.407 321.5 291.788 317.277C291.788 317.277 362.463 311.352 367.923 310.407C373.384 309.524 443.62 299.881 445.44 270.132C445.44 270.132 446.193 252.736 436.276 248.639ZM366.103 283.998C365.35 285.826 363.781 284.313 362.463 289.481C361.207 294.65 353.989 296.162 353.989 296.162C353.989 296.162 337.733 297.99 329.008 296.162C320.221 294.398 305.283 285.574 305.534 277.317C305.785 268.997 317.396 264.333 319.468 263.073C320.786 262.253 329.259 260.614 334.971 259.606C338.737 258.913 342.691 259.102 346.332 260.173C370.434 267.485 366.794 282.359 366.103 283.998Z" fill="#121212"/>
<path d="M469.165 235.781C469.165 235.781 490.945 259.858 489.689 264.711C488.434 269.564 491.886 282.674 484.919 298.873C477.952 315.071 463.955 370.284 503.247 382.952C503.247 382.952 535.948 384.717 557.351 380.305C578.755 375.893 595.702 375.074 611.456 361.901C627.21 348.728 637.065 343.245 639.764 315.449C639.764 315.449 636.625 279.019 641.333 259.543C642.588 254.438 646.542 250.467 651.627 249.143C658.029 247.505 667.695 245.362 675.29 245.109L561.62 238.239C561.62 238.239 602.669 254.816 598.652 282.296C596.957 297.234 600.409 326.164 552.33 355.787C552.33 355.787 549.003 359.821 544.421 355.787C539.84 351.753 520.382 348.917 513.038 327.929C513.038 327.929 507.452 306.247 523.897 281.036C523.897 281.036 543.354 257.778 548.815 252.484C548.815 252.484 486.551 237.483 469.29 235.718L469.165 235.781Z" fill="#121212"/>
<path d="M856.558 227.02C856.558 227.02 753.747 224.058 703.471 259.291L688.533 273.157C685.771 275.741 683.762 279.019 682.758 282.611L675.917 306.94C675.477 308.642 675.226 310.344 675.226 312.109V331.837C675.226 337.698 677.925 343.245 682.507 346.837L709.559 367.952C712.76 370.473 716.589 371.986 720.606 372.427C741.005 374.57 806.408 380.62 834.904 373.183C870.304 367.7 901.185 348.602 901.185 348.602C901.185 348.602 904.826 348.161 905.893 345.577C906.96 342.993 909.533 329.883 909.533 329.883C909.533 329.883 907.085 305.743 884.238 288.221C884.238 288.221 854.487 275.552 851.851 275.3C849.215 275.048 803.144 268.682 774.836 276.435C774.836 276.435 745.085 286.519 742.763 290.805C740.44 295.091 725.69 323.139 770.443 332.971C770.819 333.034 771.196 332.53 770.819 332.278C766.049 328.496 751.613 315.512 762.22 304.608C762.22 304.608 770.506 289.671 806.91 288.536C806.91 288.536 826.117 288.221 828.125 287.402C830.134 286.582 836.473 287.465 839.046 291.057C841.745 297.549 847.897 304.671 847.897 304.671C847.897 304.671 849.905 324.777 846.202 327.992C842.499 331.206 831.012 346.711 789.775 353.014C748.537 359.317 746.843 355.283 746.843 355.283C746.843 355.283 711.631 337.383 710.187 301.898L720.481 279.082C720.481 279.082 751.989 251.791 817.831 253.492C817.831 253.492 839.298 255.761 847.583 263.577C847.583 263.577 851.474 258.093 856.558 227.083V227.02Z" fill="#121212"/>
<path d="M898.111 229.542C898.111 229.542 932.005 252.043 937.215 259.732C942.424 267.422 955.794 291.372 952.467 323.013C952.467 323.013 946.316 349.674 891.897 376.839L1020.76 372.868C1020.76 372.868 982.595 351.312 973.494 313.432C970.167 292.696 975.377 261.182 975.377 261.182C975.377 261.182 1007.51 259.291 1025.78 280.342C1044.04 301.394 1051.7 325.849 1047.87 355.094L1152.69 358.687C1152.69 358.687 1115.79 341.732 1124.38 293.578C1124.38 293.578 1138.44 261.119 1159.09 239.941L1050.76 238.366C1050.76 238.366 1100.28 259.921 1095.57 297.486C1095.57 297.486 1097.52 299.062 1095.95 304.924C1095.95 304.924 1088.92 321.5 1077.87 333.79C1077.87 333.79 1060.68 238.87 979.143 230.928C930.499 225.445 898.049 229.542 898.049 229.542H898.111Z" fill="#121212"/>
<path d="M1462.44 248.576C1462.44 248.576 1429.62 226.516 1422.21 224.878C1414.87 223.239 1401.75 217.882 1398.05 217.503C1394.34 217.062 1329.63 214.604 1293.16 219.52C1256.76 224.5 1213.51 237.357 1213.51 237.357C1213.51 237.357 1195.62 247.505 1192.86 252.106C1190.1 256.707 1170.89 289.86 1169.95 296.73C1169.07 303.663 1164.93 329.883 1174.53 347.342C1184.2 364.864 1212.57 379.108 1222.24 380.495C1231.84 381.881 1306.97 392.47 1363.84 380.495C1420.64 368.519 1441.23 357.615 1441.23 357.615C1441.23 357.615 1461.25 343.056 1461.75 338.833C1461.75 338.833 1477.95 319.42 1478.95 311.731C1480.02 304.104 1485.29 268.493 1462.44 248.576ZM1380.47 334.232C1378.4 339.463 1353.1 356.544 1346.83 358.561C1343.44 359.695 1311.3 364.801 1311.3 364.801C1311.3 364.801 1280.55 364.485 1259.77 361.712C1239 358.939 1218.28 344.001 1218.28 344.001C1215.14 343.623 1212.7 335.997 1209.24 327.992C1205.79 319.987 1211.69 301.331 1211.69 301.331C1265.29 226.012 1362.83 280.784 1362.83 280.784C1378.96 288.158 1383.23 302.97 1385.68 313.18C1388.07 323.391 1382.54 329.064 1380.47 334.232Z" fill="#121212"/>
<path d="M800.572 409.046C766.427 402.618 708.494 406.84 708.494 406.84C708.494 406.84 705.167 408.038 707.866 410.055C710.502 412.072 737.303 417.429 742.011 441.254C746.091 462.305 718.787 473.966 712.26 476.424C711.946 476.487 712.009 476.928 712.26 476.928C721.675 477.054 775.403 477.369 809.485 465.457C847.019 452.347 848.023 438.922 848.023 438.922C848.023 438.922 839.299 417.114 800.509 409.046H800.572ZM805.656 439.111C805.719 439.993 802.518 447.557 802.204 449.448C801.89 451.275 799.066 451.465 792.35 453.292C785.634 455.183 786.387 456.57 781.114 456.444C775.842 456.255 769.377 451.78 761.908 448.313C754.501 444.91 758.393 440.561 759.774 438.67C761.155 436.842 789.211 429.531 789.651 429.531C795.551 429.657 798.187 433.564 802.016 435.455C805.907 437.283 805.593 438.229 805.656 439.111Z" fill="#121212"/>
<path d="M844.069 403.941C844.069 403.941 856.309 407.786 859.698 411.442C863.088 415.097 879.156 429.783 877.022 441.254C874.888 452.725 857.564 469.617 850.534 472.516L934.516 470.373C934.516 470.373 908.97 463.125 905.141 453.923C901.312 444.72 900.12 431.232 901.312 428.333C902.505 425.434 914.054 405.643 924.661 403.941C924.661 403.941 873.632 401.987 844.069 403.941Z" fill="#121212"/>
<path d="M287.519 506.488C240.947 488.462 140.96 465.583 0.237305 482.096C0.237305 482.096 109.765 479.953 122.444 551.112L121.565 558.424C120.372 568.319 116.104 577.584 109.325 584.769C95.705 599.266 65.2006 623.28 39.2153 631.852C39.2153 631.852 153.638 634.499 207.618 624.982C261.597 615.401 304.968 589.37 318.149 571.849C331.393 554.327 334.029 524.577 287.519 506.488ZM237.306 597.942C232.661 598.447 226.322 599.644 226.322 599.644C219.229 603.363 178.18 604.308 174.54 602.102C171.778 600.463 159.978 599.077 154.078 598.51C151.442 598.257 148.931 596.871 147.487 594.539C145.416 591.135 143.721 585.085 146.922 575.378C156.902 555.524 174.979 543.99 195.504 537.624C210.003 533.086 227.766 532.897 236.992 533.149C241.072 533.275 245.026 534.662 248.29 537.057C260.781 546.448 264.547 552.814 265.425 566.554C266.367 581.996 241.951 597.438 237.306 597.942Z" fill="#121212"/>
<path d="M601.226 515.627C587.794 502.076 575.806 487.706 538.962 476.424C502.118 465.078 441.36 465.078 413.994 480.583C413.994 480.583 357.755 516.068 350.788 556.596C350.788 556.596 347.775 569.579 353.738 582.122C359.701 594.602 372.693 612.124 398.051 616.599C404.077 617.985 409.663 619.75 414.182 621.389C423.848 624.918 434.079 626.746 444.373 626.116C465.776 624.855 504.252 619.057 553.712 597.06C560.993 593.782 567.96 589.811 574.362 585.084C585.409 576.828 601.916 562.646 609.197 547.078C609.197 547.078 614.658 529.115 601.226 515.627ZM518.312 577.647C490.192 598.194 478.58 592.333 452.03 594.476C425.48 596.619 409.851 582.5 409.851 582.5C409.851 582.5 395.54 571.47 401.943 562.268C408.972 548.465 430.062 533.149 430.062 533.149C461.194 520.291 486.552 526.09 486.552 526.09C516.178 532.834 519.818 539.893 519.818 539.893C536.639 559.81 518.312 577.647 518.312 577.647Z" fill="#121212"/>
<path d="M620.684 487.895C620.684 487.895 619.492 489.848 622.442 492.433C625.392 495.017 657.277 516.383 650.059 558.045C639.891 594.728 578.442 629.582 578.442 629.582C578.442 629.582 676.484 612.565 795.363 626.242C795.363 626.242 793.982 611.43 798.753 598.761C803.523 586.093 804.59 569.579 804.59 569.579C804.59 569.579 766.993 601.85 713.704 606.955C713.704 606.955 669.642 603.173 675.417 567.184C675.417 567.184 677.111 556.911 682.258 551.049C687.405 545.187 729.082 505.795 755.381 490.668L620.747 487.895H620.684Z" fill="#121212"/>
<path d="M811.181 490.479C811.181 490.479 810.741 493.252 811.181 493.694C811.62 494.135 861.959 516.384 868.989 553.445C876.018 590.505 829.948 623.721 829.948 623.721H1008.46C1008.46 623.721 1023.39 595.737 1025.47 592.711C1027.54 589.686 1045.36 578.908 1043.48 577.206C1041.6 575.504 1016.18 586.85 982.282 601.094C982.282 601.094 936.714 614.204 909.473 597.375C909.473 597.375 899.744 588.614 898.677 576.513C898.489 574.496 898.551 572.353 898.74 570.21C899.807 558.109 905.393 546.953 913.615 538.066C929.182 521.237 959.812 489.345 969.478 487.832C969.478 487.832 890.957 492.622 811.118 490.416L811.181 490.479Z" fill="#121212"/>
<path d="M1208.36 628.826L1306.78 627.944C1306.78 627.944 1271.44 615.338 1257.7 587.165C1244.71 560.441 1234.85 552.751 1245.84 510.837C1246.78 507.308 1248.03 503.841 1249.66 500.564C1251.8 496.215 1254.62 488.273 1251.86 480.395C1250.73 479.071 1253.49 475.983 1256.26 473.398L1088.1 474.596C1088.1 474.596 1086.28 479.764 1088.1 481.592C1089.92 483.42 1128.15 495.647 1124.45 533.527C1120.68 571.344 1077.87 609.224 1021.57 635.381L1122.56 637.272C1122.56 637.272 1096.51 625.108 1124.7 594.728C1124.7 594.728 1163.42 580.358 1167.94 580.547C1171.46 578.74 1174.78 578.677 1177.92 580.358C1177.92 580.358 1212.57 584.643 1221.8 603.111C1219.35 618.679 1208.36 628.826 1208.36 628.826ZM1169.51 560.251C1150.68 557.1 1145.35 546.89 1145.35 546.89C1145.35 546.89 1138.38 540.713 1147.29 531.384C1156.27 521.993 1177.48 515.249 1177.48 515.249C1185.2 513.863 1205.04 511.657 1214.01 517.392C1222.93 523.191 1225.12 524.767 1223.11 537.75C1221.17 550.734 1188.4 563.466 1169.51 560.251Z" fill="#121212"/>
<path d="M1620.74 511.783C1619.23 497.916 1574.11 474.281 1521.51 471.444C1468.97 468.671 1318.71 478.567 1318.71 478.567C1318.71 478.567 1416.18 508.757 1417.88 546.259C1419.51 583.761 1428.42 582.626 1343.19 640.234L1456.04 638.974C1456.04 638.974 1446.5 629.519 1446.5 627.313C1446.5 625.107 1442.73 598.951 1444.12 596.178C1446.12 593.656 1447.69 593.593 1448.89 587.795C1448.89 587.795 1462.32 576.008 1462.88 574.496C1463.39 572.92 1494.02 577.71 1507.13 597.186C1531.42 629.709 1574.17 637.02 1574.17 637.02L1595.82 610.296C1595.82 610.296 1556.34 601.22 1538.01 576.702C1538.01 576.702 1598.33 555.965 1608.88 544.368C1615.91 539.074 1622.25 525.712 1620.74 511.783ZM1566.89 535.481C1565.57 539.2 1556.4 543.486 1556.4 543.486C1541.84 552.688 1506.25 554.012 1491.88 552.688C1477.51 551.301 1472.24 546.448 1469.79 541.91C1467.4 537.435 1467.59 524.388 1474.18 512.287C1480.77 500.185 1502.55 496.845 1502.55 496.845C1502.55 496.845 1509.96 495.269 1531.36 498.421C1552.7 501.509 1560.11 510.522 1562.05 512.665C1564 514.808 1568.27 531.763 1566.89 535.481Z" fill="#121212"/>
<path d="M1620.93 463.692C1620.93 463.692 1691.35 485.878 1695.87 539.326C1695.87 539.326 1701.4 562.016 1683.32 596.304C1645.66 640.297 1633.11 645.718 1633.11 645.718L1779.16 651.768C1779.16 651.768 1742.01 623.028 1735.48 600.337C1728.95 577.647 1749.04 532.771 1749.04 532.771C1749.04 532.771 1759.08 507.56 1824.86 471.003L1620.93 463.692Z" fill="#121212"/>
</g>
<defs>
<clipPath id="clip0_261_761">
<rect width="1824.62" height="583.705" fill="white" transform="translate(0.238281 68)"/>
</clipPath>
</defs>
</svg>
