<svg width="1833" height="720" viewBox="0 0 1833 720" fill="none" xmlns="http://www.w3.org/2000/svg">
<g clip-path="url(#clip0_1240_2463)">
<path d="M14.71 348.839H37.7V362.219H14.71V394.139H0V320.779H52.47V333.909H14.71V348.839Z" fill="#ECECEC"/>
<path d="M455.17 376.889H430.49L423.28 394.139H406.32L437.2 320.779H448.45L479.07 394.139H462.36L455.16 376.889H455.17ZM435.18 363.769H451.74L443.46 343.889L435.18 363.769Z" fill="#ECECEC"/>
<path d="M917.33 367.971L932.38 394.151H914.74L900.78 369.141H886.06V394.151H871.23V320.781H905.91C905.91 320.781 932.39 319.671 932.39 342.041C932.39 342.041 934.66 362.161 917.34 367.961L917.33 367.971ZM886.05 336.461V353.821H906.13C912.24 353.821 916.15 350.311 916.15 345.261C916.15 339.871 912.23 336.461 906.12 336.461H886.05Z" fill="#ECECEC"/>
<path d="M1376.13 368.8C1376.13 385.19 1366.57 398.33 1345.79 398.33C1323.37 398.33 1314.11 378.46 1314.11 358.6C1314.11 335.24 1326.73 320 1345.78 320C1359.47 320 1370.57 327.67 1375.93 339.49L1361.98 344.31C1359.03 337.86 1352.49 334.96 1345.78 334.96C1335.04 334.96 1328.64 343.57 1328.64 358.61C1328.64 370.93 1331.54 383.37 1345.78 383.37C1353.3 383.37 1360 379.11 1361.89 372.13H1349.27V358.03H1376.12V368.81L1376.13 368.8Z" fill="#ECECEC"/>
<path d="M1766.38 359.45C1766.38 335.07 1779.03 320.07 1799.66 320.07C1819.13 320.07 1832.12 335.76 1832.12 359.19C1832.12 382.62 1819.57 399.1 1799.66 399.1C1776.56 399.1 1766.38 378.61 1766.38 359.45ZM1781.39 359.46C1781.39 374.32 1787.89 383.09 1798.65 383.09C1812.16 383.09 1815.41 370.17 1815.41 359.46C1815.41 344.71 1809.21 336.06 1798.65 336.06C1788.09 336.06 1781.39 344.84 1781.39 359.46Z" fill="#ECECEC"/>
</g>
<defs>
<clipPath id="clip0_1240_2463">
<rect width="1832.12" height="79.11" fill="white" transform="translate(0 320)"/>
</clipPath>
</defs>
</svg>
