<svg width="1825" height="720" viewBox="0 0 1825 720" fill="none" xmlns="http://www.w3.org/2000/svg">
<g clip-path="url(#clip0_261_746)">
<path d="M203.45 181.78H225.936C227.14 181.78 228.124 182.762 228.124 184.017L226.921 254.814C226.921 256.068 225.881 256.996 224.623 256.941L212.587 256.396C211.328 256.341 210.289 257.323 210.289 258.577V295.231C210.289 296.485 211.328 297.467 212.587 297.412L270.635 294.849C271.729 294.849 272.604 293.976 272.714 292.885L275.559 263.759C275.668 262.559 274.793 261.468 273.534 261.359L254.659 259.941C252.033 259.723 250.063 257.432 250.282 254.814L251.376 241.56C251.486 240.414 252.471 239.542 253.62 239.542L294.598 240.796C295.747 240.796 296.786 239.924 296.841 238.778L298.482 215.706C298.592 214.397 297.497 213.306 296.184 213.361L257.121 215.597C255.808 215.652 254.714 214.561 254.823 213.197L257.559 184.671C257.668 183.526 258.653 182.653 259.802 182.708L306.579 184.18C307.728 184.18 308.658 185.162 308.713 186.307L309.37 208.616C309.37 209.816 310.409 210.797 311.613 210.743L327.534 210.197C329.613 210.143 331.199 208.397 331.145 206.325C330.816 194.762 331.145 180.744 331.363 172.999C331.473 169.344 331.692 165.635 332.075 161.981L333.552 146.6C333.825 144.036 331.637 141.855 329.066 142.073C309.041 143.818 293.668 145.127 272.549 145.891C249.188 146.654 228.398 146.327 204.161 145.727C202.903 145.727 201.918 146.763 201.973 148.018C202.793 160.236 202.301 163.999 201.371 179.489C201.316 180.744 202.301 181.78 203.505 181.78H203.45Z" fill="#ECECEC"/>
<path d="M492.65 177.689L516.668 178.508C517.817 178.562 518.747 179.598 518.693 180.798L515.41 251.159C515.355 252.468 514.261 253.396 513.003 253.232L502.991 251.487C501.185 251.214 499.653 252.687 499.817 254.541C500.474 262.123 500.912 270.577 501.24 277.667C501.404 284.431 501.404 288.576 501.24 295.503V298.449L532.534 297.194C536.2 297.03 539.866 296.976 543.586 296.921C584.728 296.049 631.396 295.067 635.719 242.487C637.032 224.651 620.181 214.943 605.354 212.052L603.549 211.724L605.081 211.015C623.737 201.852 633.476 188.053 633.311 171.09C633.257 162.963 630.521 156.254 625.159 151.29C608.692 135.964 570.941 139.673 540.632 142.727L497.957 147.091C497.027 147.2 496.316 147.909 496.097 148.836L490.626 175.071C490.352 176.38 491.282 177.635 492.65 177.689ZM545.884 181.398C546.048 180.307 547.033 179.489 548.127 179.544L555.185 180.035C558.248 180.307 561.695 180.58 565.306 180.798C577.78 181.671 594.959 182.816 598.242 187.616C598.57 188.107 598.898 188.762 598.57 189.962C595.287 202.452 571.707 209.325 551.683 207.743L544.352 207.088C543.148 206.979 542.273 205.779 542.437 204.579L545.884 181.398ZM539.92 230.815C540.03 229.56 541.069 228.688 542.273 228.797L552.175 229.887C557.537 230.378 563.501 230.651 569.245 230.924C588.066 231.796 609.403 232.778 610.716 242.651C611.099 245.378 610.497 247.505 608.746 249.414C604.205 254.541 589.816 259.886 547.361 256.832L539.92 256.232C538.771 256.123 537.896 255.087 537.951 253.887L539.92 230.815Z" fill="#ECECEC"/>
<path d="M647.317 177.689L671.718 178.508C672.922 178.562 673.852 179.598 673.797 180.798L670.46 251.159C670.405 252.468 669.256 253.396 667.998 253.232L657.822 251.487C656.016 251.214 654.43 252.687 654.594 254.541C655.305 262.123 655.743 270.577 656.071 277.667C656.235 284.431 656.235 288.576 656.071 295.503L655.961 298.449L687.858 297.194C691.578 297.03 695.298 296.976 699.073 296.921C740.927 296.049 788.307 295.067 792.738 242.487C794.051 224.651 776.927 214.943 761.881 212.052L760.021 211.724L761.553 211.015C780.538 201.852 790.44 188.053 790.276 171.09C790.221 162.963 787.431 156.254 782.015 151.29C765.219 135.964 726.921 139.673 696.119 142.727L652.734 147.091C651.803 147.2 651.037 147.909 650.819 148.836L645.238 175.071C644.965 176.38 645.949 177.635 647.317 177.689ZM701.426 181.398C701.59 180.307 702.575 179.489 703.669 179.544L710.836 180.035C714.009 180.307 717.511 180.58 721.122 180.798C733.869 181.671 751.267 182.816 754.66 187.616C754.988 188.107 755.261 188.762 754.933 189.962C751.65 202.452 727.687 209.325 707.335 207.743L699.839 207.088C698.636 206.979 697.706 205.779 697.925 204.579L701.426 181.398ZM695.353 230.815C695.463 229.56 696.502 228.688 697.651 228.797L707.499 229.887C712.806 230.378 718.715 230.651 724.459 230.924C743.17 231.796 764.343 232.778 765.656 242.651C766.039 245.378 765.437 247.505 763.687 249.414C759.146 254.541 744.921 259.886 702.684 256.832L695.298 256.232C694.149 256.123 693.274 255.087 693.384 253.887L695.353 230.815Z" fill="#ECECEC"/>
<path d="M811.613 180.962L822.938 179.98L819.328 257.977L809.863 256.177C808.112 255.795 806.471 257.159 806.471 258.959V293.758C806.471 296.267 808.604 298.285 811.176 298.067L859.485 294.358C862.549 294.085 865.011 291.849 865.503 288.849C867.145 278.322 869.169 268.94 870.208 264.25C870.591 262.504 869.388 260.868 867.637 260.759L846.847 259.177L849.309 236.76L852.099 237.196C855.054 237.578 857.899 237.796 860.579 237.96C867.09 238.396 872.78 238.832 877.704 241.778C886.458 247.014 888.646 254.268 891.655 264.304L901.065 294.303C902.324 298.23 906.208 300.739 910.311 300.303L943.575 296.812C948.007 296.376 951.509 292.776 951.892 288.303C952.767 277.176 954.025 267.959 954.736 263.104C955.01 261.25 953.423 259.668 951.563 259.941L943.74 260.868C942.262 260.977 940.895 261.086 939.527 261.141C933.728 261.577 929.515 261.904 924.372 259.286C919.831 256.886 917.697 252.796 915.29 247.996C912.883 243.36 910.202 238.123 904.895 234.087L903.637 233.16L905.333 232.396C937.338 218.215 952.822 199.616 952.657 175.453C952.603 166.508 949.43 159.199 943.302 153.745C924.317 136.945 880.056 141.254 847.722 144.418L815.553 147.636C812.872 147.909 810.683 149.927 810.191 152.545L805.978 174.744C805.322 178.18 808.112 181.289 811.613 180.962ZM853.467 181.889C853.467 181.889 916.548 180.58 916.111 196.561C916.001 199.398 915.181 201.797 913.047 203.925C906.044 210.852 887.497 214.342 857.953 214.342H851.607L853.467 181.889Z" fill="#ECECEC"/>
<path d="M1228.78 182.708L1251.1 182.544C1252.64 182.544 1253.89 183.799 1253.84 185.326L1252.47 253.887C1252.42 255.523 1251 256.778 1249.41 256.56L1240.55 255.414C1238.9 255.196 1237.48 256.396 1237.43 258.032L1236.39 296.104C1236.39 297.576 1237.48 298.831 1238.96 298.94L1256.47 299.976C1258.6 300.085 1260.73 300.194 1262.98 300.249C1306.03 301.449 1371.91 290.104 1378.47 211.398C1380.11 191.435 1374.7 175.345 1362.33 163.618C1345.7 147.8 1316.76 141.037 1280.7 144.582L1233.93 149.655C1232.78 149.764 1231.79 150.636 1231.57 151.836L1226.1 179.49C1225.72 181.181 1227.03 182.708 1228.78 182.708ZM1283.17 182.872L1292.25 183.09C1310.25 183.69 1352.16 188.49 1352.37 220.507C1352.43 231.633 1348.93 240.469 1342.03 246.796C1328.25 259.396 1303.85 260.214 1285.85 258.687L1277.97 257.923L1283.17 182.872Z" fill="#ECECEC"/>
<path d="M1388.92 298.994L1442.43 297.576C1443.9 297.522 1445.11 296.267 1445.05 294.795C1445 289.231 1444.94 276.195 1446.15 264.741C1446.31 263.159 1445.16 261.796 1443.58 261.687L1431.16 261.141C1428.86 261.032 1427.55 258.578 1428.7 256.614L1434 247.669C1435.1 245.76 1437.12 244.56 1439.36 244.506L1489.1 243.306C1491.83 243.251 1494.35 244.942 1495.28 247.56L1498.45 256.723C1499.27 259.014 1497.47 261.36 1495.06 261.196L1478.32 259.614C1476.18 259.451 1474.38 261.196 1474.49 263.323L1476.02 291.795C1476.24 295.776 1479.69 298.722 1483.62 298.449L1537.35 294.413C1540.8 294.14 1543.59 291.358 1543.86 287.922L1545.45 267.087C1545.61 265.014 1543.86 263.214 1541.78 263.323L1533.79 263.759C1529.42 263.487 1525.59 260.541 1524.17 256.396C1518.15 238.124 1513.88 224.27 1507.86 202.18L1492.65 149.764C1491.94 147.2 1489.42 145.564 1486.74 145.891C1478.1 147.037 1471.59 147.473 1461.63 148.455C1442.54 150.418 1430.61 149.873 1425.85 149.491C1424.48 149.382 1423.28 150.309 1423.01 151.673L1417.04 180.69C1416.71 182.381 1418.03 183.962 1419.72 183.962H1435.42C1438.11 183.908 1439.8 186.744 1438.6 189.09C1437.61 191.053 1436.68 192.908 1435.75 194.762C1432.09 202.016 1428.64 208.78 1423.83 217.779L1403.8 255.033C1402.43 257.541 1399.75 259.014 1396.91 258.796L1386.46 257.978C1384.98 257.869 1383.67 259.014 1383.56 260.541L1381.21 290.868C1380.88 295.34 1384.49 299.104 1388.92 298.994ZM1451.4 217.343L1468.03 190.017C1468.74 188.871 1470.44 189.035 1470.99 190.235L1483.24 218.543C1483.73 219.634 1482.91 220.834 1481.71 220.779L1452.77 219.797C1451.51 219.743 1450.74 218.379 1451.4 217.343Z" fill="#ECECEC"/>
<path d="M689.28 510.35L681.293 510.786C676.916 510.513 673.086 507.568 671.718 503.423C665.645 485.151 661.378 473.588 655.36 451.497L640.205 399.136C639.439 396.572 636.922 394.936 634.241 395.263C625.597 396.409 619.087 396.845 609.129 397.827C590.035 399.79 578.108 399.245 573.403 398.863C571.981 398.754 570.832 399.681 570.504 401.045L564.54 430.062C564.212 431.753 565.525 433.335 567.276 433.335H582.923C585.604 433.28 587.3 436.062 586.096 438.407C585.111 440.371 584.181 442.225 583.251 444.08C579.586 451.334 576.193 458.097 571.324 467.097L551.3 504.35C549.932 506.859 549.112 507.295 546.267 507.077L533.957 507.295C532.48 507.186 531.167 508.277 531.057 509.804L528.705 540.131C528.376 544.603 531.987 548.367 536.473 548.257L589.926 546.839C591.403 546.785 592.607 545.53 592.607 544.058C592.497 538.494 592.443 525.458 593.646 514.004C593.81 512.422 592.661 511.059 591.075 511.004L578.655 510.459C576.358 510.35 575.045 507.841 576.193 505.932L581.5 496.932C582.649 495.078 584.674 493.878 586.862 493.823L636.594 492.623C639.384 492.514 641.846 494.26 642.776 496.878L645.95 503.75C646.77 506.041 644.965 508.332 642.557 508.223L625.816 507.895C623.682 507.732 621.877 509.477 621.986 511.604L623.573 541.058C623.792 545.039 627.184 547.985 631.123 547.712L684.849 543.676C688.35 543.403 691.086 540.621 691.359 537.185L692.946 514.113C693.11 511.986 691.414 510.241 689.28 510.35ZM628.935 470.097L600.54 469.115C599.172 469.115 598.351 467.642 599.008 466.442L615.366 439.662C616.132 438.407 618.047 438.516 618.594 439.88L630.685 467.642C631.178 468.842 630.302 470.151 628.935 470.097Z" fill="#ECECEC"/>
<path d="M1013.71 510.35L1005.78 510.786C1001.35 510.513 997.521 507.568 996.153 503.423C990.135 485.151 985.867 473.588 979.794 451.497L964.64 399.136C963.874 396.572 961.357 394.936 958.731 395.263C950.087 396.409 943.521 396.845 933.619 397.827C914.525 399.79 902.598 399.245 897.838 398.863C896.47 398.754 895.266 399.681 894.993 401.045L889.029 430.062C888.701 431.753 889.959 433.335 891.71 433.335H907.412C910.038 433.28 911.734 436.062 910.585 438.407C909.546 440.371 908.616 442.225 907.686 444.08C904.02 451.334 900.628 458.097 895.759 467.097L875.735 504.35C874.422 506.859 873.601 507.295 870.756 507.077L858.446 507.295C856.914 507.186 855.601 508.277 855.492 509.804L853.194 540.131C852.811 544.603 856.422 548.367 860.908 548.257L914.36 546.839C915.892 546.785 917.096 545.53 917.041 544.058C916.932 538.494 916.877 525.458 918.135 514.004C918.3 512.422 917.096 511.059 915.509 511.004L903.09 510.459C900.847 510.35 899.479 507.841 900.628 505.932L905.99 496.932C907.084 495.078 909.108 493.878 911.297 493.823L961.029 492.623C963.819 492.514 966.336 494.26 967.211 496.878L970.439 503.75C971.205 506.041 969.454 508.332 967.047 508.223L950.305 507.895C948.172 507.732 946.311 509.477 946.476 511.604L948.007 541.058C948.226 545.039 951.673 547.985 955.612 547.712L1009.28 543.676C1012.78 543.403 1015.58 540.621 1015.79 537.185L1017.44 514.113C1017.6 511.986 1015.85 510.241 1013.71 510.35ZM953.424 470.097L924.974 469.115C923.607 469.115 922.786 467.642 923.497 466.442L939.856 439.662C940.622 438.407 942.482 438.516 943.084 439.88L955.12 467.642C955.667 468.842 954.737 470.151 953.424 470.097Z" fill="#ECECEC"/>
<path d="M1612.58 592.71C1637.64 575.092 1631.29 553.384 1631.29 553.384C1606.83 589.219 1580.79 581.638 1580.79 581.638C1583.47 581.856 1583.47 579.129 1583.47 579.129C1559.4 568.547 1559.78 530.967 1558.85 522.131C1557.92 513.349 1553.71 510.677 1553.71 510.677C1553.71 510.677 1560.71 450.788 1523.02 422.534C1492.1 399.299 1453.04 416.098 1440.08 422.862C1437.23 418.553 1433.95 414.626 1430.06 411.135C1415.56 398.099 1394.77 391.608 1371.41 392.481C1347.83 393.517 1329.94 401.535 1317.85 416.48C1305.76 431.425 1299.47 453.297 1299.03 481.932C1298.81 523.167 1327.21 550.766 1371.41 552.239C1372.51 552.239 1373.55 552.293 1374.59 552.293C1395.27 552.293 1413.05 545.748 1426.01 533.312C1443.08 516.949 1451.73 491.041 1450.96 458.315C1450.85 456.351 1450.69 454.442 1450.52 452.533C1458.62 448.552 1473.12 444.734 1480.94 462.788C1483.02 467.587 1483.9 472.878 1484.23 478.114C1487.18 527.64 1506.66 557.038 1511.53 572.365C1516.56 588.237 1523.07 589.71 1523.07 589.71C1537.57 622.163 1585 627.836 1580.35 623.854C1575.76 619.873 1575.43 613.545 1575.43 613.545C1601.69 623.8 1619.36 603.564 1620.62 594.346C1611.59 596.146 1612.58 592.71 1612.58 592.71ZM1378.58 510.568H1377.7C1361.51 511.44 1346.3 506.64 1336.12 497.532C1326.99 489.35 1322.01 477.896 1321.68 464.424C1321.57 458.151 1323.43 453.133 1327.48 449.097C1335.36 441.243 1351.33 437.37 1376.34 437.207C1377.38 437.207 1378.42 437.207 1379.51 437.207C1393.3 437.207 1409.27 438.679 1418.3 447.352C1423.83 452.697 1426.45 460.224 1426.29 470.478C1425.96 507.459 1404.02 508.931 1378.58 510.622V510.568Z" fill="#ECECEC"/>
<path d="M466.608 506.477C464.201 506.586 462.56 508.877 463.161 511.222C464.42 515.695 465.788 522.567 464.037 526.549C461.301 532.876 448.663 547.548 410.694 549.021C387.278 549.893 352.974 549.73 326.987 534.73C287.431 511.877 282.562 455.697 319.546 428.916C332.075 419.807 350.348 412.28 376.773 408.899C439.581 407.59 462.231 425.589 462.231 425.589L459.824 441.025C459.66 442.17 460.481 443.206 461.63 443.206L514.754 444.952L521.866 391.826C521.866 391.826 397.18 309.739 280.975 358.664C231.188 379.609 195.736 425.534 193.164 478.878C191.906 505.604 198.526 536.203 222.544 566.638C316.427 667.271 492.651 580.274 520.608 565.493C522.906 564.293 524.219 561.838 524 559.275C523.07 549.075 520.772 522.512 521.264 506.368C521.319 503.913 519.24 501.95 516.778 502.168L466.663 506.477H466.608ZM380.986 365.373C399.205 364.664 405.004 370.009 405.004 370.009L401.284 391.445L380.986 390.027V365.373ZM314.841 375.627C319.984 374.209 332.129 370.936 334.865 371.373C334.865 371.373 340.938 388.39 340.664 391.445C340.391 394.499 323.868 397.935 323.868 397.935C323.868 397.935 318.78 396.354 313.254 378.627C312.871 377.372 313.582 376.009 314.841 375.627ZM236.44 492.459V471.951C236.44 470.26 237.918 468.896 239.778 468.896H259.2C261.006 468.896 262.483 470.26 262.483 471.951V492.459C262.483 494.15 261.006 495.514 259.2 495.514H239.778C237.918 495.514 236.44 494.15 236.44 492.459ZM282.78 543.784L273.206 555.566C271.948 557.093 269.65 557.202 268.282 555.784L254.112 541.003C252.635 539.475 253.018 536.912 254.878 535.876L268.61 528.24C269.923 527.476 271.565 527.749 272.604 528.84L282.616 539.475C283.765 540.675 283.82 542.475 282.78 543.784ZM273.261 429.134C272.714 427.934 262.264 420.353 258.325 417.571C257.613 417.026 257.613 416.044 258.27 415.444C262.537 411.626 272.385 399.244 272.385 399.244C277.856 400.772 289.236 414.189 289.236 414.189C289.236 414.189 273.917 430.661 273.261 429.134ZM330.488 582.292C330.324 584.147 328.464 585.346 326.713 584.747L309.917 578.638C308.33 578.092 307.619 576.238 308.385 574.765L314.075 563.202C314.841 561.729 316.646 561.129 318.014 562.002C322.336 564.62 326.604 565.602 329.23 565.929C330.707 566.147 331.746 567.511 331.637 568.983L330.488 582.292ZM388.919 586.601C388.919 588.619 387.387 590.201 385.527 590.201H371.193C369.333 590.201 367.801 588.619 367.801 586.601V574.329C367.801 572.311 369.333 570.729 371.193 570.729H385.527C387.387 570.729 388.919 572.311 388.919 574.329V586.601Z" fill="#ECECEC"/>
<path d="M348.871 181.672L365.229 179.926C366.87 179.763 368.293 181.072 368.238 182.763L365.721 250.451C365.667 251.924 364.463 253.069 362.986 253.069H352.974C351.497 253.069 350.293 254.269 350.238 255.742L349.363 295.613C349.363 297.195 350.621 298.449 352.208 298.395L476.346 293.704C477.988 293.649 479.191 292.122 478.918 290.486C474.815 266.596 477.769 240.688 479.027 231.906C479.246 230.27 477.988 228.852 476.292 228.852H457.581C456.213 228.852 455.009 229.888 454.845 231.252L452.164 254.051C452 255.469 450.797 256.505 449.374 256.451L394.937 254.869C393.405 254.869 392.201 253.56 392.311 252.033L393.077 234.688C393.132 233.215 394.39 232.07 395.867 232.07L437.557 232.942C439.088 232.942 440.347 231.743 440.347 230.215C440.347 225.034 440.237 214.07 440.347 208.562C440.347 206.925 438.87 205.671 437.283 205.889C420.87 207.907 407.411 208.78 398.001 208.18C396.469 208.071 395.375 206.762 395.484 205.234L397.344 182.053C397.454 180.635 398.657 179.544 400.08 179.544H447.186C448.718 179.544 449.976 180.799 449.921 182.326L449.538 203.107C449.538 204.689 450.797 205.943 452.383 205.889L468.851 205.343C470.383 205.343 471.532 204.034 471.477 202.507C471.149 193.017 470.383 161.109 473.666 147.146C474.103 145.4 472.79 143.709 470.93 143.764L350.621 146.655C349.418 146.655 348.378 147.527 348.05 148.673L341.43 172.945C340.172 177.635 344.001 182.163 348.871 181.617V181.672Z" fill="#ECECEC"/>
<path d="M970.493 181.672L986.852 179.926C988.493 179.763 989.916 181.072 989.861 182.763L987.344 250.451C987.29 251.924 986.086 253.069 984.609 253.069H974.597C973.119 253.069 971.916 254.269 971.861 255.742L970.986 295.613C970.986 297.195 972.244 298.449 973.831 298.395L1097.97 293.704C1099.61 293.649 1100.81 292.122 1100.54 290.486C1096.44 266.596 1099.39 240.688 1100.65 231.906C1100.87 230.27 1099.61 228.852 1097.91 228.852H1079.2C1077.84 228.852 1076.63 229.888 1076.47 231.252L1073.79 254.051C1073.62 255.469 1072.42 256.505 1071 256.451L1016.56 254.869C1015.03 254.869 1013.82 253.56 1013.93 252.033L1014.7 234.688C1014.75 233.215 1016.01 232.07 1017.49 232.07L1059.18 232.942C1060.71 232.942 1061.97 231.743 1061.97 230.215C1061.97 225.034 1061.86 214.07 1061.91 208.562C1061.91 206.925 1060.44 205.671 1058.85 205.889C1042.44 207.907 1028.98 208.78 1019.57 208.18C1018.04 208.071 1016.94 206.762 1017.05 205.234L1018.91 182.053C1019.02 180.635 1020.23 179.544 1021.65 179.544H1068.75C1070.29 179.544 1071.54 180.799 1071.49 182.326L1071.11 203.107C1071.11 204.689 1072.36 205.943 1073.95 205.889L1090.42 205.343C1091.95 205.343 1093.1 204.034 1093.05 202.507C1092.72 193.017 1091.95 161.109 1095.23 147.146C1095.67 145.4 1094.36 143.709 1092.5 143.764L972.189 146.655C970.986 146.655 969.946 147.527 969.618 148.673L962.998 172.945C961.74 177.635 965.569 182.163 970.439 181.617L970.493 181.672Z" fill="#ECECEC"/>
<path d="M857.352 398.426C857.571 396.736 856.258 395.263 854.562 395.372C842.799 395.808 802.258 397.281 792.027 397.39C790.66 397.39 789.565 398.372 789.401 399.681C788.526 405.462 786.447 420.407 786.447 426.625C786.447 428.153 787.651 429.352 789.182 429.352H797.334C799.304 429.352 800.672 431.425 799.851 433.225L768.228 502.659C768.228 502.659 751.541 459.624 745.852 437.152C745.414 435.352 746.782 433.716 748.642 433.825C752.307 434.043 758.107 434.37 763.14 434.425C764.617 434.425 765.821 433.225 765.821 431.752C765.93 425.534 766.368 409.717 768.666 398.699C769.049 397.008 767.626 395.426 765.876 395.481C751.76 396.136 706.679 396.735 695.791 396.845C694.424 396.845 693.275 397.881 693.165 399.299L689.992 428.862C689.828 430.498 691.086 431.861 692.727 431.861H709.414C710.508 431.861 711.493 432.516 711.931 433.552L740.49 501.404C741.256 503.204 739.943 505.168 737.973 505.168H728.071C726.648 505.168 725.499 506.204 725.335 507.568C724.569 514.931 722.6 536.967 725.937 546.294C726.375 547.439 727.469 548.203 728.727 548.093C738.684 547.166 785.845 542.912 799.304 544.275C800.836 544.439 802.149 543.294 802.204 541.766C802.477 534.621 803.407 516.84 805.322 509.64C805.596 508.604 804.884 507.622 803.845 507.513L797.17 506.859C795.201 506.64 794.052 504.513 795.091 502.768L836.398 432.025C836.89 431.152 837.82 430.662 838.86 430.662L850.841 430.989C852.264 430.989 853.467 430.007 853.632 428.589L857.571 398.426H857.352Z" fill="#ECECEC"/>
<path d="M1151.42 477.733L1137.2 477.515C1135.99 477.515 1134.9 478.279 1134.57 479.424C1134.57 479.424 1130.69 487.224 1127.68 506.15C1127.68 506.15 1112.58 508.277 1079.64 505.932C1078.11 505.823 1076.85 504.514 1077.01 502.987L1082.38 436.771C1082.49 435.408 1083.58 434.317 1084.95 434.262C1089.49 434.098 1099.28 433.717 1104.15 433.826C1105.63 433.826 1106.83 432.789 1106.94 431.317C1107.38 425.099 1108.69 409.39 1110.44 399.954C1111.1 396.354 1108.09 393.136 1104.42 393.518C1092.39 394.827 1068.21 396.682 1035.76 395.318C1034.56 395.318 1033.47 395.973 1033.08 397.118C1031.17 402.681 1025.92 419.317 1026.95 430.008C1027.06 431.371 1028.32 432.353 1029.69 432.353H1049.99C1051.52 432.353 1052.78 433.662 1052.72 435.189L1049.77 500.914C1049.71 502.496 1048.29 503.696 1046.76 503.478L1035.05 502.223C1033.36 502.06 1031.88 503.423 1032.04 505.169C1032.86 513.841 1034.94 537.131 1035.16 545.476C1035.16 547.003 1036.47 548.203 1038.01 548.094C1053.93 547.331 1131.12 543.622 1146.55 543.894C1148.03 543.894 1149.23 542.803 1149.29 541.331C1149.83 530.695 1152.02 492.351 1154.1 480.897C1154.38 479.26 1153.12 477.733 1151.48 477.733H1151.42Z" fill="#ECECEC"/>
<path d="M1285.57 477.733L1271.35 477.515C1270.14 477.515 1269.05 478.279 1268.72 479.424C1268.72 479.424 1264.84 487.224 1261.83 506.15C1261.83 506.15 1246.73 508.277 1213.79 505.932C1212.26 505.823 1211 504.514 1211.17 502.987L1216.53 436.771C1216.64 435.408 1217.73 434.317 1219.1 434.262C1223.64 434.098 1233.43 433.717 1238.3 433.826C1239.78 433.826 1240.98 432.789 1241.09 431.317C1241.53 425.099 1242.84 409.39 1244.59 399.954C1245.25 396.354 1242.24 393.136 1238.58 393.518C1226.54 394.827 1202.36 396.682 1169.91 395.318C1168.71 395.318 1167.62 395.973 1167.23 397.118C1165.37 402.681 1160.07 419.317 1161.11 430.008C1161.21 431.371 1162.47 432.353 1163.84 432.353H1184.14C1185.67 432.353 1186.93 433.662 1186.87 435.189L1183.92 500.914C1183.86 502.496 1182.44 503.696 1180.91 503.478L1169.2 502.223C1167.51 502.06 1166.03 503.423 1166.19 505.169C1166.96 513.841 1169.09 537.131 1169.31 545.476C1169.31 547.003 1170.63 548.203 1172.16 548.094C1188.08 547.331 1265.27 543.622 1280.7 543.894C1282.18 543.894 1283.38 542.803 1283.44 541.331C1283.99 530.695 1286.17 492.351 1288.25 480.897C1288.53 479.26 1287.27 477.733 1285.63 477.733H1285.57Z" fill="#ECECEC"/>
</g>
<defs>
<clipPath id="clip0_261_746">
<rect width="1439" height="485" fill="white" transform="translate(193 140)"/>
</clipPath>
</defs>
</svg>
