<svg width="1825" height="720" viewBox="0 0 1825 720" fill="none" xmlns="http://www.w3.org/2000/svg">
<g clip-path="url(#clip0_261_746)">
<path d="M13.4885 105.95H42.0004C43.5265 105.95 44.7752 107.194 44.7752 108.784L43.2491 198.508C43.2491 200.098 41.931 201.273 40.3354 201.204L25.0736 200.513C23.4781 200.443 22.16 201.688 22.16 203.278V249.73C22.16 251.319 23.4781 252.564 25.0736 252.495L98.6772 249.246C100.065 249.246 101.175 248.14 101.313 246.757L104.921 209.844C105.059 208.324 103.949 206.941 102.354 206.803L78.4206 205.006C75.0908 204.729 72.5934 201.826 72.8709 198.508L74.2583 181.711C74.3971 180.259 75.6457 179.153 77.1026 179.153L129.062 180.743C130.519 180.743 131.837 179.637 131.906 178.185L133.988 148.945C134.126 147.286 132.739 145.904 131.074 145.973L81.5424 148.807C79.8774 148.876 78.49 147.494 78.6287 145.766L82.0973 109.613C82.2361 108.162 83.4848 107.056 84.9416 107.125L144.255 108.991C145.711 108.991 146.891 110.235 146.96 111.687L147.793 139.959C147.793 141.48 149.111 142.724 150.637 142.655L170.824 141.964C173.46 141.895 175.472 139.683 175.403 137.056C174.986 122.401 175.403 104.636 175.68 94.8204C175.819 90.189 176.096 85.4885 176.582 80.8572L178.455 61.3639C178.802 58.115 176.027 55.35 172.766 55.6265C147.376 57.8385 127.883 59.4975 101.105 60.4653C71.4834 61.433 45.1221 61.0183 14.3903 60.2579C12.7948 60.2579 11.5461 61.5713 11.6155 63.1611C12.656 78.6452 12.0317 83.4148 10.8524 103.046C10.783 104.636 12.0317 105.95 13.5579 105.95H13.4885Z" fill="#121212"/>
<path d="M380.188 100.765L410.643 101.802C412.1 101.871 413.279 103.185 413.209 104.705L409.047 193.877C408.978 195.536 407.59 196.711 405.995 196.503L393.3 194.291C391.01 193.946 389.068 195.812 389.276 198.162C390.109 207.771 390.664 218.485 391.08 227.471C391.288 236.043 391.288 241.296 391.08 250.075V253.808L430.761 252.218C435.408 252.011 440.056 251.942 444.774 251.873C496.941 250.767 556.116 249.522 561.596 182.886C563.261 160.282 541.894 147.978 523.095 144.314L520.805 143.899L522.748 143.001C546.404 131.388 558.752 113.899 558.544 92.4011C558.474 82.1015 555.006 73.5991 548.207 67.3087C527.326 47.8846 479.46 52.5851 441.028 56.4561L386.918 61.9861C385.738 62.1243 384.836 63.023 384.559 64.1981L377.622 97.4472C377.275 99.1062 378.454 100.696 380.188 100.765ZM447.687 105.466C447.895 104.083 449.144 103.046 450.532 103.115L459.481 103.738C463.365 104.083 467.736 104.429 472.314 104.705C488.131 105.811 509.914 107.263 514.076 113.346C514.492 113.968 514.909 114.798 514.492 116.318C510.33 132.148 480.431 140.858 455.041 138.853L445.745 138.024C444.219 137.885 443.109 136.365 443.317 134.844L447.687 105.466ZM440.126 168.093C440.265 166.503 441.583 165.397 443.109 165.535L455.665 166.918C462.464 167.54 470.025 167.886 477.309 168.231C501.173 169.337 528.228 170.582 529.893 183.093C530.379 186.549 529.616 189.245 527.396 191.665C521.638 198.162 503.393 204.937 449.56 201.066L440.126 200.305C438.669 200.167 437.559 198.854 437.628 197.333L440.126 168.093Z" fill="#121212"/>
<path d="M576.303 100.765L607.242 101.802C608.769 101.871 609.948 103.185 609.879 104.705L605.647 193.877C605.577 195.536 604.121 196.711 602.525 196.503L589.622 194.291C587.333 193.946 585.321 195.812 585.529 198.162C586.431 207.771 586.986 218.485 587.402 227.471C587.61 236.043 587.61 241.296 587.402 250.075L587.263 253.808L627.707 252.218C632.424 252.011 637.142 251.942 641.928 251.873C694.998 250.767 755.074 249.522 760.693 182.886C762.358 160.282 740.645 147.978 721.567 144.314L719.209 143.899L721.151 143.001C745.223 131.388 757.779 113.899 757.571 92.4011C757.502 82.1015 753.964 73.5991 747.096 67.3087C725.799 47.8846 677.239 52.5851 638.182 56.4561L583.17 61.9861C581.991 62.1243 581.02 63.023 580.742 64.1981L573.666 97.4472C573.32 99.1062 574.568 100.696 576.303 100.765ZM644.911 105.466C645.12 104.083 646.368 103.046 647.756 103.115L656.843 103.738C660.867 104.083 665.307 104.429 669.885 104.705C686.049 105.811 708.109 107.263 712.41 113.346C712.827 113.968 713.173 114.798 712.757 116.318C708.595 132.148 678.21 140.858 652.404 138.853L642.9 138.024C641.373 137.885 640.194 136.365 640.472 134.844L644.911 105.466ZM637.211 168.093C637.35 166.503 638.668 165.397 640.125 165.535L652.612 166.918C659.341 167.54 666.833 167.886 674.117 168.231C697.842 169.337 724.689 170.582 726.354 183.093C726.84 186.549 726.077 189.245 723.857 191.665C718.099 198.162 700.062 204.937 646.507 201.066L637.142 200.305C635.685 200.167 634.575 198.854 634.714 197.333L637.211 168.093Z" fill="#121212"/>
<path d="M784.627 104.913L798.987 103.669L794.408 202.518L782.407 200.236C780.187 199.753 778.106 201.481 778.106 203.762V247.864C778.106 251.043 780.811 253.601 784.072 253.324L845.327 248.624C849.212 248.278 852.334 245.444 852.958 241.642C855.039 228.301 857.606 216.412 858.924 210.467C859.41 208.255 857.883 206.181 855.664 206.043L829.302 204.038L832.424 175.628L835.962 176.181C839.708 176.665 843.315 176.941 846.715 177.149C854.97 177.702 862.185 178.255 868.428 181.987C879.528 188.623 882.302 197.817 886.118 210.536L898.05 248.555C899.645 253.532 904.571 256.712 909.774 256.159L951.952 251.735C957.571 251.182 962.011 246.619 962.496 240.951C963.606 226.85 965.202 215.167 966.104 209.015C966.451 206.665 964.439 204.66 962.08 205.006L952.16 206.181C950.287 206.319 948.553 206.458 946.818 206.527C939.465 207.08 934.123 207.495 927.602 204.177C921.844 201.135 919.139 195.951 916.087 189.868C913.034 183.992 909.635 177.356 902.906 172.241L901.31 171.066L903.461 170.098C944.043 152.125 963.676 128.554 963.468 97.9313C963.398 86.5948 959.375 77.3321 951.605 70.4196C927.533 49.1291 871.411 54.5899 830.412 58.5992L789.622 62.6776C786.222 63.0232 783.447 65.5808 782.823 68.8988L777.481 97.0327C776.649 101.388 780.187 105.328 784.627 104.913ZM837.696 106.088C837.696 106.088 917.682 104.429 917.127 124.683C916.988 128.277 915.948 131.319 913.242 134.015C904.363 142.793 880.846 147.217 843.385 147.217H835.338L837.696 106.088Z" fill="#121212"/>
<path d="M1313.59 107.125L1341.89 106.917C1343.83 106.917 1345.43 108.507 1345.36 110.443L1343.63 197.333C1343.56 199.407 1341.75 200.997 1339.74 200.72L1328.5 199.268C1326.42 198.992 1324.62 200.513 1324.55 202.586L1323.23 250.836C1323.23 252.702 1324.62 254.292 1326.49 254.43L1348.69 255.744C1351.4 255.882 1354.1 256.02 1356.94 256.089C1411.54 257.61 1495.06 243.232 1503.39 143.484C1505.47 118.185 1498.6 97.7928 1482.92 82.931C1461.84 62.8847 1425.14 54.3132 1379.42 58.8063L1320.11 65.2349C1318.65 65.3732 1317.4 66.4792 1317.13 67.9999L1310.19 103.046C1309.7 105.189 1311.37 107.125 1313.59 107.125ZM1382.54 107.332L1394.06 107.609C1416.88 108.369 1470.02 114.452 1470.3 155.028C1470.37 169.13 1465.93 180.328 1457.19 188.347C1439.71 204.315 1408.77 205.351 1385.94 203.416L1375.95 202.448L1382.54 107.332Z" fill="#121212"/>
<path d="M1516.64 254.5L1584.48 252.702C1586.36 252.633 1587.88 251.043 1587.81 249.177C1587.75 242.126 1587.68 225.605 1589.2 211.089C1589.41 209.085 1587.95 207.356 1585.94 207.218L1570.19 206.527C1567.28 206.389 1565.62 203.278 1567.07 200.79L1573.8 189.453C1575.19 187.034 1577.76 185.513 1580.6 185.444L1643.66 183.923C1647.13 183.854 1650.32 185.997 1651.5 189.315L1655.52 200.928C1656.56 203.831 1654.27 206.803 1651.22 206.596L1629.99 204.591C1627.29 204.384 1625 206.596 1625.14 209.292L1627.08 245.375C1627.36 250.421 1631.73 254.154 1636.72 253.808L1704.84 248.693C1709.22 248.348 1712.75 244.822 1713.1 240.467L1715.11 214.062C1715.32 211.435 1713.1 209.154 1710.46 209.292L1700.34 209.845C1694.79 209.499 1689.93 205.767 1688.13 200.513C1680.5 177.356 1675.08 159.798 1667.45 131.803L1648.17 65.3736C1647.27 62.1247 1644.08 60.051 1640.68 60.4657C1629.72 61.9173 1621.46 62.4703 1608.83 63.7146C1584.62 66.2031 1569.5 65.5118 1563.46 65.028C1561.73 64.8897 1560.2 66.0648 1559.86 67.793L1552.3 104.567C1551.88 106.71 1553.54 108.715 1555.7 108.715H1575.6C1579 108.646 1581.15 112.24 1579.63 115.213C1578.38 117.701 1577.2 120.051 1576.02 122.402C1571.37 131.595 1567 140.167 1560.9 151.573L1535.51 198.785C1533.77 201.965 1530.37 203.831 1526.77 203.555L1513.52 202.518C1511.64 202.379 1509.98 203.831 1509.84 205.767L1506.86 244.2C1506.44 249.868 1511.02 254.638 1516.64 254.5ZM1595.86 151.02L1616.95 116.388C1617.85 114.936 1620 115.144 1620.7 116.664L1636.24 152.54C1636.86 153.923 1635.82 155.444 1634.29 155.374L1597.6 154.13C1596 154.061 1595.03 152.333 1595.86 151.02Z" fill="#121212"/>
<path d="M629.511 522.359L619.382 522.912C613.833 522.566 608.977 518.834 607.242 513.58C599.542 490.423 594.131 475.769 586.5 447.773L567.284 381.413C566.313 378.164 563.122 376.091 559.723 376.505C548.762 377.957 540.507 378.51 527.881 379.754C503.67 382.243 488.547 381.551 482.581 381.068C480.777 380.929 479.321 382.104 478.904 383.833L471.343 420.607C470.927 422.75 472.592 424.755 474.811 424.755H494.652C498.051 424.685 500.202 428.211 498.675 431.183C497.427 433.672 496.247 436.022 495.068 438.372C490.42 447.566 486.119 456.137 479.945 467.543L454.555 514.755C452.821 517.935 451.78 518.488 448.173 518.212L432.564 518.488C430.691 518.35 429.026 519.732 428.887 521.668L425.904 560.101C425.488 565.77 430.067 570.539 435.755 570.401L503.531 568.604C505.404 568.535 506.931 566.945 506.931 565.078C506.792 558.028 506.723 541.507 508.249 526.99C508.457 524.986 507 523.258 504.988 523.189L489.241 522.497C486.327 522.359 484.662 519.179 486.119 516.76L492.848 505.354C494.305 503.004 496.872 501.483 499.647 501.414L562.706 499.893C566.244 499.755 569.365 501.967 570.545 505.285L574.568 513.995C575.609 516.898 573.32 519.801 570.267 519.663L549.039 519.248C546.334 519.041 544.045 521.253 544.183 523.949L546.195 561.276C546.473 566.323 550.774 570.055 555.768 569.71L623.892 564.595C628.331 564.249 631.8 560.723 632.147 556.369L634.159 527.129C634.367 524.433 632.216 522.221 629.511 522.359ZM552.994 471.345L516.99 470.101C515.255 470.101 514.215 468.234 515.047 466.713L535.789 432.773C536.761 431.183 539.189 431.321 539.882 433.05L555.213 468.234C555.838 469.755 554.728 471.414 552.994 471.345Z" fill="#121212"/>
<path d="M1040.89 522.359L1030.83 522.912C1025.21 522.566 1020.35 518.834 1018.62 513.58C1010.99 490.423 1005.58 475.769 997.876 447.773L978.66 381.413C977.689 378.164 974.498 376.091 971.168 376.505C960.207 377.957 951.882 378.51 939.326 379.754C915.115 382.243 899.992 381.551 893.957 381.068C892.223 380.929 890.696 382.104 890.349 383.833L882.788 420.607C882.372 422.75 883.967 424.755 886.187 424.755H906.097C909.427 424.685 911.577 428.211 910.121 431.183C908.802 433.672 907.623 436.022 906.444 438.372C901.796 447.566 897.495 456.137 891.321 467.543L865.931 514.755C864.266 517.935 863.225 518.488 859.618 518.212L844.009 518.488C842.067 518.35 840.402 519.732 840.263 521.668L837.349 560.101C836.864 565.77 841.442 570.539 847.131 570.401L914.907 568.604C916.85 568.535 918.376 566.945 918.306 565.078C918.168 558.028 918.098 541.507 919.694 526.99C919.902 524.986 918.376 523.258 916.364 523.189L900.616 522.497C897.772 522.359 896.038 519.179 897.495 516.76L904.293 505.354C905.681 503.004 908.247 501.483 911.022 501.414L974.081 499.893C977.619 499.755 980.81 501.967 981.92 505.285L986.013 513.995C986.985 516.898 984.765 519.801 981.712 519.663L960.484 519.248C957.779 519.041 955.42 521.253 955.628 523.949L957.571 561.276C957.848 566.323 962.219 570.055 967.214 569.71L1035.27 564.595C1039.71 564.249 1043.25 560.723 1043.52 556.369L1045.6 527.129C1045.81 524.433 1043.59 522.221 1040.89 522.359ZM964.439 471.345L928.365 470.101C926.631 470.101 925.59 468.234 926.492 466.713L947.234 432.773C948.206 431.183 950.564 431.321 951.327 433.05L966.589 468.234C967.283 469.755 966.104 471.414 964.439 471.345Z" fill="#121212"/>
<path d="M1800.23 626.738C1832 604.41 1823.96 576.899 1823.96 576.899C1792.95 622.314 1759.93 612.705 1759.93 612.705C1763.33 612.982 1763.33 609.526 1763.33 609.526C1732.8 596.115 1733.29 548.488 1732.11 537.29C1730.93 526.161 1725.59 522.774 1725.59 522.774C1725.59 522.774 1734.47 446.875 1686.67 411.068C1647.47 381.62 1597.94 402.911 1581.5 411.483C1577.89 406.022 1573.73 401.045 1568.81 396.621C1550.42 380.1 1524.06 371.874 1494.44 372.98C1464.54 374.293 1441.86 384.455 1426.52 403.395C1411.19 422.335 1403.22 450.054 1402.66 486.345C1402.38 538.603 1438.39 573.581 1494.44 575.447C1495.83 575.447 1497.15 575.516 1498.46 575.516C1524.69 575.516 1547.23 567.221 1563.67 551.461C1585.32 530.723 1596.28 497.889 1595.31 456.414C1595.17 453.925 1594.96 451.506 1594.75 449.087C1605.02 444.04 1623.4 439.202 1633.32 462.082C1635.96 468.165 1637.07 474.87 1637.48 481.506C1641.23 544.272 1665.93 581.53 1672.1 600.954C1678.48 621.07 1686.74 622.936 1686.74 622.936C1705.12 664.065 1765.27 671.254 1759.37 666.208C1753.54 661.162 1753.13 653.144 1753.13 653.144C1786.43 666.139 1808.83 640.494 1810.43 628.812C1798.98 631.093 1800.23 626.738 1800.23 626.738ZM1503.53 522.636H1502.42C1481.88 523.742 1462.6 517.659 1449.69 506.115C1438.11 495.746 1431.8 481.23 1431.38 464.156C1431.24 456.206 1433.6 449.847 1438.73 444.732C1448.72 434.778 1468.98 429.87 1500.68 429.662C1502 429.662 1503.32 429.662 1504.71 429.662C1522.19 429.662 1542.45 431.529 1553.89 442.52C1560.9 449.294 1564.23 458.833 1564.02 471.829C1563.6 518.695 1535.79 520.562 1503.53 522.705V522.636Z" fill="#121212"/>
<path d="M347.167 517.451C344.115 517.589 342.034 520.492 342.797 523.465C344.393 529.133 346.127 537.843 343.907 542.889C340.438 550.908 324.413 569.502 276.269 571.368C246.578 572.474 203.082 572.267 170.13 553.258C119.974 524.294 113.8 453.096 160.696 419.155C176.582 407.611 199.752 398.072 233.259 393.786C312.898 392.127 341.618 414.939 341.618 414.939L338.565 434.501C338.357 435.953 339.398 437.266 340.855 437.266L408.215 439.478L417.233 372.15C417.233 372.15 259.134 268.117 111.789 330.122C48.6601 356.666 3.7071 414.869 0.446623 482.474C-1.14893 516.345 7.24507 555.124 37.6993 593.696C156.742 721.232 380.188 610.977 415.638 592.244C418.551 590.724 420.216 587.613 419.939 584.364C418.759 571.438 415.846 537.774 416.47 517.313C416.539 514.202 413.903 511.714 410.781 511.99L347.237 517.451H347.167ZM238.6 338.625C261.701 337.726 269.055 344.5 269.055 344.5L264.337 371.666L238.6 369.869V338.625ZM154.73 351.62C161.251 349.823 176.651 345.675 180.12 346.228C180.12 346.228 187.82 367.795 187.473 371.666C187.126 375.537 166.176 379.892 166.176 379.892C166.176 379.892 159.725 377.888 152.718 355.422C152.232 353.832 153.134 352.104 154.73 351.62ZM55.3198 499.686V473.695C55.3198 471.552 57.1928 469.824 59.5515 469.824H84.1785C86.4678 469.824 88.3408 471.552 88.3408 473.695V499.686C88.3408 501.829 86.4678 503.557 84.1785 503.557H59.5515C57.1928 503.557 55.3198 501.829 55.3198 499.686ZM114.078 564.732L101.938 579.664C100.342 581.599 97.4286 581.737 95.6943 579.94L77.7269 561.207C75.8539 559.272 76.3395 556.023 78.6981 554.709L96.1105 545.032C97.7754 544.064 99.8566 544.41 101.175 545.792L113.87 559.272C115.327 560.792 115.396 563.073 114.078 564.732ZM102.007 419.432C101.313 417.911 88.0633 408.303 83.0686 404.777C82.1667 404.086 82.1667 402.842 82.9992 402.081C88.4102 397.243 100.897 381.551 100.897 381.551C107.834 383.487 122.264 400.491 122.264 400.491C122.264 400.491 102.84 421.367 102.007 419.432ZM174.57 613.535C174.362 615.885 172.003 617.406 169.783 616.645L148.486 608.903C146.475 608.212 145.573 605.862 146.544 603.996L153.759 589.341C154.73 587.475 157.019 586.714 158.753 587.82C164.234 591.138 169.645 592.382 172.975 592.797C174.848 593.074 176.166 594.802 176.027 596.668L174.57 613.535ZM248.659 618.996C248.659 621.553 246.717 623.558 244.358 623.558H226.183C223.824 623.558 221.882 621.553 221.882 618.996V603.443C221.882 600.885 223.824 598.88 226.183 598.88H244.358C246.717 598.88 248.659 600.885 248.659 603.443V618.996Z" fill="#121212"/>
<path d="M197.879 105.812L218.621 103.6C220.702 103.392 222.506 105.051 222.436 107.194L219.245 192.978C219.176 194.845 217.65 196.296 215.777 196.296H203.082C201.209 196.296 199.682 197.817 199.613 199.683L198.503 250.214C198.503 252.218 200.099 253.808 202.11 253.739L359.515 247.794C361.596 247.725 363.123 245.79 362.776 243.716C357.573 213.439 361.319 180.605 362.915 169.476C363.192 167.402 361.596 165.605 359.446 165.605H335.721C333.986 165.605 332.46 166.918 332.252 168.646L328.853 197.541C328.645 199.338 327.119 200.651 325.315 200.582L256.29 198.577C254.347 198.577 252.821 196.918 252.96 194.983L253.931 173.001C254.001 171.135 255.596 169.683 257.469 169.683L310.331 170.789C312.273 170.789 313.869 169.268 313.869 167.333C313.869 160.766 313.73 146.872 313.869 139.89C313.869 137.816 311.996 136.227 309.984 136.503C289.172 139.061 272.107 140.167 260.175 139.406C258.232 139.268 256.845 137.609 256.984 135.674L259.342 106.295C259.481 104.498 261.007 103.116 262.811 103.116H322.54C324.482 103.116 326.078 104.706 326.009 106.641L325.523 132.978C325.523 134.982 327.119 136.572 329.13 136.503L350.011 135.812C351.954 135.812 353.411 134.153 353.341 132.217C352.925 120.19 351.954 79.7515 356.116 62.0554C356.671 59.8434 355.006 57.7006 352.647 57.7697L200.099 61.4333C198.572 61.4333 197.254 62.5393 196.838 63.9909L188.444 94.7516C186.849 100.696 191.705 106.434 197.879 105.742V105.812Z" fill="#121212"/>
<path d="M986.083 105.812L1006.83 103.6C1008.91 103.392 1010.71 105.051 1010.64 107.194L1007.45 192.978C1007.38 194.845 1005.85 196.296 1003.98 196.296H991.286C989.413 196.296 987.886 197.817 987.817 199.683L986.707 250.214C986.707 252.218 988.303 253.808 990.315 253.739L1147.72 247.794C1149.8 247.725 1151.33 245.79 1150.98 243.716C1145.78 213.439 1149.52 180.605 1151.12 169.476C1151.4 167.402 1149.8 165.605 1147.65 165.605H1123.92C1122.19 165.605 1120.66 166.918 1120.46 168.646L1117.06 197.541C1116.85 199.338 1115.32 200.651 1113.52 200.582L1044.49 198.577C1042.55 198.577 1041.03 196.918 1041.16 194.983L1042.14 173.001C1042.2 171.135 1043.8 169.683 1045.67 169.683L1098.53 170.789C1100.48 170.789 1102.07 169.268 1102.07 167.333C1102.07 160.766 1101.93 146.872 1102 139.89C1102 137.816 1100.13 136.227 1098.12 136.503C1077.31 139.061 1060.24 140.167 1048.31 139.406C1046.37 139.268 1044.98 137.609 1045.12 135.674L1047.48 106.295C1047.62 104.498 1049.14 103.116 1050.95 103.116H1110.67C1112.62 103.116 1114.21 104.706 1114.14 106.641L1113.66 132.978C1113.66 134.982 1115.25 136.572 1117.27 136.503L1138.15 135.812C1140.09 135.812 1141.55 134.153 1141.48 132.217C1141.06 120.19 1140.09 79.7515 1144.25 62.0554C1144.81 59.8434 1143.14 57.7006 1140.78 57.7697L988.233 61.4333C986.707 61.4333 985.389 62.5393 984.973 63.9909L976.579 94.7516C974.983 100.696 979.839 106.434 986.013 105.742L986.083 105.812Z" fill="#121212"/>
<path d="M842.622 380.514C842.899 378.372 841.234 376.505 839.084 376.643C824.169 377.196 772.764 379.063 759.791 379.201C758.057 379.201 756.67 380.445 756.462 382.104C755.352 389.432 752.716 408.372 752.716 416.252C752.716 418.188 754.242 419.708 756.184 419.708H766.521C769.018 419.708 770.752 422.335 769.712 424.616L729.615 512.612C729.615 512.612 708.456 458.073 701.242 429.593C700.687 427.312 702.421 425.238 704.78 425.377C709.427 425.653 716.781 426.068 723.163 426.137C725.036 426.137 726.562 424.616 726.562 422.75C726.701 414.87 727.256 394.823 730.17 380.86C730.655 378.717 728.852 376.713 726.632 376.782C708.734 377.611 651.571 378.372 637.766 378.51C636.032 378.51 634.575 379.823 634.436 381.62L630.413 419.086C630.205 421.16 631.8 422.888 633.881 422.888H655.04C656.427 422.888 657.676 423.718 658.231 425.031L694.443 511.023C695.414 513.304 693.749 515.792 691.252 515.792H678.696C676.892 515.792 675.435 517.106 675.227 518.834C674.256 528.166 671.759 556.092 675.99 567.912C676.545 569.364 677.933 570.332 679.528 570.194C692.154 569.018 751.952 563.627 769.018 565.355C770.96 565.562 772.625 564.111 772.695 562.175C773.041 553.12 774.221 530.585 776.649 521.46C776.996 520.147 776.094 518.903 774.776 518.765L766.312 517.935C763.815 517.659 762.358 514.963 763.676 512.751L816.052 423.095C816.676 421.989 817.856 421.367 819.174 421.367L834.366 421.782C836.17 421.782 837.696 420.538 837.904 418.741L842.899 380.514H842.622Z" fill="#121212"/>
<path d="M1215.5 481.022L1197.46 480.746C1195.93 480.746 1194.55 481.713 1194.13 483.165C1194.13 483.165 1189.2 493.05 1185.39 517.036C1185.39 517.036 1166.24 519.732 1124.48 516.76C1122.54 516.621 1120.94 514.962 1121.15 513.027L1127.95 429.109C1128.09 427.381 1129.47 425.999 1131.21 425.929C1136.97 425.722 1149.38 425.238 1155.56 425.376C1157.43 425.376 1158.96 424.063 1159.1 422.197C1159.65 414.316 1161.32 394.408 1163.54 382.45C1164.37 377.888 1160.55 373.809 1155.91 374.293C1140.64 375.952 1109.98 378.302 1068.84 376.574C1067.32 376.574 1065.93 377.404 1065.44 378.855C1063.02 385.906 1056.36 406.989 1057.67 420.538C1057.81 422.266 1059.41 423.51 1061.14 423.51H1086.88C1088.82 423.51 1090.42 425.169 1090.35 427.105L1086.6 510.4C1086.53 512.405 1084.73 513.926 1082.79 513.649L1067.94 512.059C1065.79 511.852 1063.92 513.58 1064.13 515.792C1065.17 526.783 1067.8 556.299 1068.08 566.875C1068.08 568.811 1069.75 570.332 1071.69 570.193C1091.87 569.226 1189.76 564.525 1209.32 564.871C1211.19 564.871 1212.72 563.488 1212.79 561.622C1213.48 548.143 1216.26 499.548 1218.89 485.031C1219.24 482.958 1217.65 481.022 1215.56 481.022H1215.5Z" fill="#121212"/>
<path d="M1385.6 481.022L1367.56 480.746C1366.03 480.746 1364.64 481.713 1364.23 483.165C1364.23 483.165 1359.3 493.05 1355.49 517.036C1355.49 517.036 1336.34 519.732 1294.58 516.76C1292.64 516.621 1291.04 514.962 1291.25 513.027L1298.05 429.109C1298.19 427.381 1299.57 425.999 1301.31 425.929C1307.07 425.722 1319.48 425.238 1325.66 425.376C1327.53 425.376 1329.06 424.063 1329.2 422.197C1329.75 414.316 1331.42 394.408 1333.64 382.45C1334.47 377.888 1330.65 373.809 1326 374.293C1310.74 375.952 1280.08 378.302 1238.94 376.574C1237.42 376.574 1236.03 377.404 1235.54 378.855C1233.19 385.906 1226.46 406.989 1227.77 420.538C1227.91 422.266 1229.51 423.51 1231.24 423.51H1256.98C1258.92 423.51 1260.52 425.169 1260.45 427.105L1256.7 510.4C1256.63 512.405 1254.83 513.926 1252.89 513.649L1238.04 512.059C1235.89 511.852 1234.02 513.58 1234.23 515.792C1235.2 526.783 1237.9 556.299 1238.18 566.875C1238.18 568.811 1239.84 570.332 1241.79 570.193C1261.97 569.226 1359.86 564.525 1379.42 564.871C1381.29 564.871 1382.82 563.488 1382.89 561.622C1383.58 548.143 1386.36 499.548 1388.99 485.031C1389.34 482.958 1387.75 481.022 1385.66 481.022H1385.6Z" fill="#121212"/>
</g>
<defs>
<clipPath id="clip0_261_746">
<rect width="1824.62" height="614.66" fill="white" transform="translate(0.238281 53)"/>
</clipPath>
</defs>
</svg>
