<svg width="1825" height="720" viewBox="0 0 1825 720" fill="none" xmlns="http://www.w3.org/2000/svg">
<g clip-path="url(#clip0_1230_2519)">
<path d="M346.118 223.395V302.935H298.258V494.808L208.874 499.827V302.935H150L167.57 223.395H346.118Z" fill="#ECECEC"/>
<path d="M600.431 218V494.808L508.257 499.827V393.144H464.823V494.808L375.433 499.827V223.793L464.823 218V316.788H508.257V223.793L600.431 218Z" fill="#ECECEC"/>
<path d="M812.067 414.481L794.206 494.045H633.257V223.459H788.631L805.861 298.57H724.188V318.604H777.427V392.298H724.188V414.481H812.067Z" fill="#ECECEC"/>
<path d="M1060.59 332.286H1112.19V404.259H1060.59V494.51L970.666 500.702V223.924H1114.28L1133.3 300.511H1060.59V332.286Z" fill="#ECECEC"/>
<path d="M1282.12 218.791C1202.09 218.791 1137.21 274.856 1137.21 359.749C1137.21 437.593 1197.61 500.701 1282.12 500.701C1366.62 500.701 1427.03 437.593 1427.03 359.749C1427.03 272.737 1362.15 218.791 1282.12 218.791ZM1282.1 413.927C1252.9 413.927 1229.23 391.065 1229.23 359.124C1229.23 328.862 1252.9 304.327 1282.1 304.327C1311.3 304.327 1334.81 328.862 1334.81 359.124C1334.81 389.386 1311.31 413.927 1282.1 413.927Z" fill="#ECECEC"/>
<path d="M1610.31 311.419C1621.98 316.64 1629.7 322.993 1629.7 322.993L1675 257.134C1655.65 231.95 1617.13 218.209 1581.8 218.209C1501.19 218.209 1436.24 278.174 1436.24 363.674C1436.24 424.835 1476 482.74 1543.18 498.91C1559.57 502.858 1576.51 503.858 1593.28 502.298C1594.47 502.197 1595.65 502.072 1596.84 501.935C1630.64 498.065 1656.04 490.468 1675.01 479.609V333.941H1567.31L1552.45 398.151H1589.83V413.928C1589.83 413.928 1569.93 422.555 1549.55 407.57C1531.93 394.615 1523.74 372.164 1528.82 350.885C1528.92 350.457 1529.03 350.034 1529.14 349.6C1538.3 314.479 1577.19 296.618 1610.31 311.425L1610.31 311.419Z" fill="#ECECEC"/>
</g>
<defs>
<clipPath id="clip0_1230_2519">
<rect width="1525" height="285" fill="white" transform="translate(150 218)"/>
</clipPath>
</defs>
</svg>
