<svg width="1825" height="720" viewBox="0 0 1825 720" fill="none" xmlns="http://www.w3.org/2000/svg">
<path d="M674.363 512.726C678.357 506.332 682.032 500.578 685.387 494.504C698.968 470.688 707.116 444.954 711.749 417.942C717.661 382.618 717.98 347.134 712.548 311.809C706.796 275.047 694.175 241.001 668.931 212.71C667.014 210.632 665.096 208.554 663.179 206.476C663.179 206.476 663.179 205.996 663.179 205.357C664.457 205.357 665.736 205.197 667.014 205.197C734.437 205.197 801.859 205.197 869.122 205.197C872.637 205.197 874.395 206.476 875.992 209.353C891.49 238.444 889.733 266.415 871.199 293.428C870.401 294.547 869.602 295.506 868.004 297.584C867.525 294.707 867.045 292.629 866.726 290.711C863.85 274.727 857.938 260.022 847.074 247.554C837.808 237.005 826.464 231.571 812.244 231.89C796.747 232.21 782.687 235.726 771.823 247.714C764.154 256.186 760 266.575 758.242 277.764C754.568 301.739 755.047 325.715 761.757 349.211C767.669 369.671 781.728 381.179 803.137 383.577C814.481 384.855 823.109 378.622 826.144 366.953C830.298 351.289 823.588 337.703 809.209 332.908C799.782 329.711 792.433 333.387 789.238 342.818C788.918 343.617 788.598 344.576 788.119 346.015C783.805 339.941 781.569 333.867 780.929 327.154C778.054 298.703 803.457 278.243 831.417 285.596C848.352 290.071 860.175 300.141 866.886 315.805C876.632 338.183 877.43 360.72 864.329 382.138C854.903 397.642 842.121 409.79 823.908 414.266C800.741 420.02 780.131 413.786 761.917 398.921C760.958 398.122 759.84 397.323 758.721 396.364C758.402 397.163 758.082 397.483 758.082 397.802C758.242 416.503 759.68 434.885 764.793 452.946C770.225 472.127 783.166 482.197 802.498 485.393C836.529 491.148 868.643 475.643 884.94 445.274C886.697 441.918 888.135 438.401 889.413 434.725C890.532 431.368 891.33 427.852 893.248 424.175C894.686 429.77 896.443 435.204 897.561 440.799C902.674 466.373 898.52 489.869 881.425 510.328C880.306 511.767 877.91 512.886 876.152 512.886C810.008 512.886 743.863 512.886 677.718 512.886C676.76 512.886 675.801 512.886 674.363 512.726Z" fill="#ECECEC"/>
<path d="M1457.08 512.725H1342.36C1342.52 511.606 1342.68 510.487 1343 509.688C1355.3 476.442 1355.94 442.556 1349.39 408.191C1345.24 386.293 1340.12 364.715 1331.5 344.096C1328.14 336.104 1323.51 328.431 1318.71 321.079C1315.2 315.644 1309.93 311.968 1303.22 310.689C1300.18 310.05 1299.22 311.009 1298.9 314.206C1295.39 359.92 1297.78 405.314 1306.25 450.388C1309.13 465.732 1312.8 480.917 1319.51 495.143C1322.23 501.057 1325.9 506.651 1329.26 512.725H1215.02C1215.82 511.606 1216.3 510.647 1216.94 509.688C1237.23 483.634 1248.9 453.745 1254.97 421.617C1261.68 385.813 1262.64 349.85 1258 313.886C1254.17 284.636 1247.3 256.185 1232.6 230.291C1227.81 221.66 1221.57 213.987 1215.98 205.676H1329.26C1325.11 213.987 1320.47 222.139 1316.96 230.77C1313.6 238.762 1310.73 247.074 1308.81 255.385C1307.53 260.66 1307.69 266.414 1308.33 271.849C1309.45 281.599 1317.12 286.714 1326.54 283.996C1330.7 282.878 1335.17 280.8 1338.05 277.603C1351.15 263.697 1359.3 247.553 1355.94 227.893C1354.66 220.221 1350.67 213.028 1347.95 205.676H1453.08C1447.81 208.873 1442.54 211.75 1437.58 215.266C1424.48 224.217 1414.74 236.205 1405.31 248.832C1396.84 260.34 1388.53 271.849 1378.95 282.558C1368.4 294.386 1354.66 301.579 1339.16 305.095C1338.37 305.255 1337.73 305.575 1336.29 305.894C1337.73 306.853 1338.69 307.653 1339.64 308.292C1367.12 324.595 1385.98 348.411 1396.68 378.141C1402.11 393.326 1405.95 409.31 1409.46 425.134C1415.85 452.786 1429.12 476.601 1446.69 498.499C1450.2 502.815 1453.4 507.29 1456.76 511.766C1456.76 511.926 1456.76 512.245 1457.08 513.044V512.725Z" fill="#ECECEC"/>
<path d="M993.423 374.465C991.506 408.831 993.423 442.556 1006.05 474.844C1011.96 489.709 1020.26 502.815 1034.8 512.566H905.87C905.87 512.566 905.87 511.766 906.189 511.607C923.604 497.381 933.51 478.2 941.179 457.581C949.167 436.163 953.162 413.626 958.274 391.408C964.984 361.998 971.056 332.588 978.245 303.337C983.678 281.28 994.382 261.3 1007.8 243.078C1019.79 226.615 1034.64 213.349 1052.22 202.959C1054.93 201.361 1056.69 201.68 1059.09 203.279C1086.89 222.939 1107.66 248.513 1123.48 278.243C1142.17 313.088 1153.99 350.33 1161.02 389.171C1165.02 411.388 1168.21 433.605 1171.09 455.983C1173.96 478.84 1184.99 496.422 1203.04 510.168C1203.68 510.647 1204.32 511.447 1205.44 512.406H1076.34C1080.02 507.93 1083.69 503.934 1086.89 499.619C1099.67 482.356 1107.02 462.536 1111.97 441.757C1117.56 417.782 1119.16 393.486 1118.36 369.031C1118.36 368.232 1118.2 367.433 1117.88 365.674C1116.45 367.433 1115.49 368.551 1114.53 369.51C1106.86 377.342 1099.83 385.974 1091.52 393.007C1070.11 411.068 1047.75 412.827 1023.94 398.121C1014.35 392.207 1006.05 384.056 997.258 377.023C996.299 376.224 995.5 375.424 994.542 374.465C994.542 374.465 994.063 374.465 993.423 374.465ZM1096.47 305.575C1096 301.739 1095.84 297.743 1095.04 293.907C1091.52 278.083 1082.42 266.894 1066.28 263.058C1050.14 259.222 1036.08 263.538 1025.86 276.644C1012.12 293.747 1012.12 313.088 1020.26 332.428C1031.77 359.76 1067.4 358.801 1082.26 342.817C1092 332.268 1096.47 319.961 1096.63 305.735L1096.47 305.575Z" fill="#ECECEC"/>
<path d="M509.481 305.096C510.439 305.096 511.398 305.096 512.197 305.096C520.345 306.374 527.694 304.297 533.925 299.022C547.027 287.993 554.695 274.087 553.737 256.505C553.098 243.398 541.754 233.009 529.292 233.648C522.102 233.968 517.15 237.964 513.155 243.398C506.605 251.87 503.25 261.78 500.693 271.849C495.74 292.309 494.622 313.088 494.462 334.026C494.143 376.703 498.457 418.901 509.96 459.979C513.475 472.766 518.907 484.914 524.179 497.061C526.576 502.496 530.57 506.971 534.085 512.246H419.53C420.169 510.807 420.808 509.369 421.607 507.93C439.981 472.127 450.366 434.085 454.999 394.126C458.195 366.474 458.993 338.662 456.916 310.85C454.52 281.12 449.407 252.189 434.389 225.816C430.874 219.582 426.241 213.988 422.087 208.234C421.448 207.435 420.808 206.635 419.85 205.357C421.448 205.357 422.406 205.037 423.525 205.037C461.07 205.037 498.457 205.037 536.002 205.037C559.968 205.037 578.98 215.107 592.561 234.447C607.419 255.866 608.378 289.911 582.016 313.407C569.714 324.436 555.335 331.309 539.038 334.506C537.76 334.826 536.482 335.145 534.724 335.625C537.44 342.018 539.837 348.092 542.553 353.846C552.299 375.265 563.802 395.404 581.697 411.388C602.467 429.929 626.272 436.003 653.114 428.491C654.392 428.171 655.67 427.851 657.747 427.532C657.747 443.356 655.67 458.54 650.078 473.086C643.687 489.549 633.302 502.656 618.763 512.406C536.961 459.659 506.285 380.699 509.8 304.776L509.481 305.096Z" fill="#ECECEC"/>
<path d="M311.846 369.191C303.218 355.925 299.703 342.498 303.378 327.793C309.289 304.297 332.456 289.752 357.22 293.428C377.671 296.465 392.849 307.174 401.636 325.875C412.66 349.052 412.501 373.027 400.997 395.724C388.056 421.298 365.528 431.528 337.728 431.528C312.165 431.528 290.117 422.257 270.625 405.954C268.868 404.515 267.11 403.077 264.234 400.679C264.554 405.474 264.714 408.991 265.193 412.507C268.548 442.717 277.974 470.848 297.147 494.824C302.1 500.898 308.81 505.533 314.722 510.968C315.361 511.447 316 511.927 317.118 512.886H181.793C182.911 510.808 183.87 508.73 184.988 506.812C201.285 477.082 214.226 445.913 221.736 412.827C235.635 351.769 227.487 293.748 197.291 238.763C191.859 228.534 185.468 219.103 179.397 209.353C178.757 208.234 177.959 207.115 177 205.517C178.598 205.517 179.716 205.197 180.834 205.197C248.737 205.197 316.639 205.197 384.701 205.197C387.417 205.197 388.855 205.996 390.133 208.394C398.121 223.738 403.873 239.403 400.997 257.145C398.92 270.411 393.168 282.079 384.541 293.588C383.742 289.911 383.263 287.194 382.624 284.477C378.789 268.173 372.079 253.309 358.658 242.44C338.687 226.136 306.254 228.853 288.2 248.034C275.258 261.62 268.708 278.243 265.672 296.305C262.956 312.768 261.838 329.551 266.471 345.535C274.619 373.187 291.076 394.446 318.876 404.835C333.734 410.429 347.155 405.315 356.421 392.368C360.735 386.294 364.41 380.06 365.049 372.388C366.487 357.363 354.344 345.695 338.048 346.174C324.308 346.654 316.479 352.888 312.964 366.154C312.804 366.794 312.485 367.433 311.846 369.031V369.191Z" fill="#ECECEC"/>
<path d="M1535.2 386.452C1534.24 388.051 1533.76 389.01 1533.13 389.809C1516.83 410.588 1517.63 432.326 1529.29 454.543C1535.68 466.851 1544.63 476.921 1558.37 481.556C1588.41 491.786 1607.26 467.33 1604.38 443.195C1601.99 422.096 1589.52 407.231 1572.91 395.883C1557.73 385.653 1541.75 376.702 1526.26 366.952C1515.55 360.239 1504.05 354.485 1494.62 345.694C1458.19 311.968 1461.07 259.701 1493.98 226.774C1510.28 210.311 1529.77 201.2 1553.1 202.319C1575.94 203.598 1594 214.147 1605.66 233.807C1620.04 258.422 1606.62 290.39 1579.62 296.304C1568.27 298.861 1557.73 296.463 1548.46 289.271C1538.88 281.758 1536 270.09 1540.63 258.102C1541.75 255.065 1543.51 252.028 1545.11 248.512C1545.91 249.791 1546.23 250.43 1546.55 250.91C1549.26 255.545 1554.22 257.942 1558.37 256.504C1563.32 254.906 1566.2 250.27 1565.72 244.676C1565.08 236.205 1557.73 228.532 1549.26 227.413C1541.43 226.454 1534.72 228.852 1529.45 234.766C1516.19 249.791 1512.36 272.328 1529.29 289.431C1535.36 295.664 1542.55 300.939 1550.06 305.734C1567.8 316.923 1586.01 327.632 1604.06 338.501C1627.39 352.567 1641.45 373.346 1646.24 399.879C1650.88 425.613 1647.68 450.547 1633.46 473.085C1617.8 498.019 1595.6 513.364 1565.88 516.88C1542.23 519.757 1519.86 515.921 1499.57 502.655C1470.5 483.474 1457.87 445.113 1471.29 414.744C1479.76 395.563 1494.94 385.653 1515.87 384.374C1519.86 384.055 1524.02 384.374 1528.01 384.534C1530.25 384.694 1532.65 385.493 1535.36 386.293L1535.2 386.452Z" fill="#ECECEC"/>
</svg>
