<svg width="1825" height="720" viewBox="0 0 1825 720" fill="none" xmlns="http://www.w3.org/2000/svg">
<g clip-path="url(#clip0_1238_2523)">
<path d="M472.551 136.14H402.769V173.245H466.21V222.385H402.769V309.971H345V87H472.551V136.14Z" fill="#ECECEC"/>
<path d="M568.223 88.3105V222.453C568.223 231.811 568.561 246.189 579.702 256.888C586.455 263.237 597.258 267.587 607.385 267.587C617.512 267.587 627.977 263.576 634.392 257.891C647.892 246.189 647.561 229.811 647.561 217.438V88.3105H705.963V218.441C705.963 241.845 704.949 266.246 680.645 290.653C661.743 309.707 638.11 318.4 606.377 318.4C570.933 318.4 545.609 306.366 531.771 291.656C512.193 270.596 509.827 242.177 509.827 218.441V88.3105H568.229H568.223Z" fill="#ECECEC"/>
<path d="M747.675 311.288V88.3105H805.438L914.566 229.94V88.3105H969.718V311.288H911.955L802.826 167.567V311.288H747.675Z" fill="#ECECEC"/>
<path d="M1013.79 311.288V88.3105H1071.55L1180.68 229.94V88.3105H1236.1V311.288H1178.07L1068.94 167.567V311.288H1013.79Z" fill="#ECECEC"/>
<path d="M1338.33 202.482L1257.86 88.3105H1324.89L1367.74 149.152L1409.45 88.3105H1478.01L1395.13 204.051V311.288H1338.34V202.482H1338.33Z" fill="#ECECEC"/>
<path d="M467.027 501.184H581.785C581.785 546.497 572.573 578.767 545.277 604.164C521.392 626.479 494.102 633.001 465.098 633.001C424.154 633.001 396.175 617.896 377.753 599.014C360.694 581.855 345 554.046 345 516.288C345 478.531 359.33 450.039 379.117 430.468C397.884 411.586 427.226 396.826 467.482 396.826C488.633 396.826 511.492 401.631 528.895 412.275C546.635 423.257 561.31 439.881 569.495 457.736L513.201 481.601C509.108 470.957 502.625 460.793 496.824 455.988C486.931 447.75 476.355 444.662 465.091 444.662C451.105 444.662 436.775 449.811 426.194 460.455C412.89 473.843 406.407 498.791 406.407 516.639C406.407 537.576 413.916 557.356 424.492 568.689C435.411 580.36 448.715 586.199 466.118 586.199C476.355 586.199 488.295 584.482 498.87 575.555C504.327 571.095 512.641 560.235 514.688 547.537H467.021V501.196L467.027 501.184Z" fill="#ECECEC"/>
<path d="M749.801 587.379H669L653.976 624.823H592.87L678.347 401.846H741.456L825.261 624.823H763.492L749.801 587.379ZM734.438 543.254L709.398 471.042L685.02 543.254H734.438Z" fill="#ECECEC"/>
<path d="M834.958 624.823L872.688 401.846H929.787L976.17 526.353L1025.48 401.846H1081.16L1114.55 624.823H1058.62L1041.47 496.452L985.885 624.823H962.847L911.426 496.452L892.395 624.823H834.964H834.958Z" fill="#ECECEC"/>
<path d="M1272.32 450.986H1202.5V488.614H1268.91V537.754H1202.5V578.292H1272.32V624.817H1144.73V401.84H1272.32V450.98V450.986Z" fill="#ECECEC"/>
<path d="M1327.28 560.752C1339.63 572.577 1358.33 583.731 1378.36 583.731C1390.05 583.731 1397.06 580.015 1400.73 575.961C1404.07 572.583 1406.41 567.514 1406.41 561.767C1406.41 557.374 1404.74 552.305 1400.07 548.25C1394.39 543.181 1385.19 539.772 1370.83 535.379L1355.81 530.648C1346.46 527.609 1332.77 522.539 1323.75 512.4C1312.4 499.898 1311.07 484.012 1311.07 472.526C1311.07 444.815 1321.75 427.92 1331.44 418.12C1342.79 406.633 1361.48 396.832 1388.54 396.832C1410.57 396.832 1436.28 403.926 1457.32 415.08L1435.13 458.763C1416.41 444.907 1405.24 445.498 1396.21 445.498C1390.53 445.498 1382.86 446.852 1377.18 452.253C1373.84 455.631 1371.5 459.347 1371.5 464.417C1371.5 468.471 1372.17 471.511 1374.51 474.556C1376.18 476.586 1380.18 480.641 1393.88 484.695L1411.57 490.103C1425.6 494.496 1440.29 499.566 1451.98 512.406C1463.33 524.569 1466.33 537.071 1466.33 552.618C1466.33 573.229 1461.32 593.169 1445.3 609.387C1426.27 628.651 1403.23 632.367 1379.52 632.367C1365.5 632.367 1352.14 631.013 1335.78 624.934C1332.11 623.581 1318.08 618.179 1302.06 607.025L1327.29 560.764L1327.28 560.752Z" fill="#ECECEC"/>
</g>
<defs>
<clipPath id="clip0_1238_2523">
<rect width="1133" height="546" fill="white" transform="translate(345 87)"/>
</clipPath>
</defs>
</svg>
