<svg width="1825" height="720" viewBox="0 0 1825 720" fill="none" xmlns="http://www.w3.org/2000/svg">
<g clip-path="url(#clip0_1163_2935)">
<path d="M3.12242 285.997H37.0944C38.843 285.997 40.2168 287.496 40.2168 289.244V423.134C40.2168 424.883 38.843 426.381 37.0944 426.381H3.12242C1.37387 426.381 0 424.883 0 423.134V289.244C0 287.496 1.37387 285.997 3.12242 285.997Z" fill="#ECECEC"/>
<path d="M248.295 289.869H282.267C284.016 289.869 285.39 291.368 285.39 293.116V427.006C285.39 428.755 284.016 430.253 282.267 430.253H248.295C246.547 430.253 245.173 428.755 245.173 427.006V293.116C245.173 291.368 246.547 289.869 248.295 289.869Z" fill="#ECECEC"/>
<path d="M757.5 291.118H791.472C793.221 291.118 794.595 292.617 794.595 294.365V428.255C794.595 430.004 793.221 431.502 791.472 431.502H757.5C755.752 431.502 754.378 430.004 754.378 428.255V294.365C754.378 292.617 755.752 291.118 757.5 291.118Z" fill="#ECECEC"/>
<path d="M1781.91 290.619H1821C1823 290.619 1824.62 292.118 1824.62 293.866V426.882C1824.62 428.63 1823 430.129 1821 430.129H1781.91C1779.91 430.129 1778.28 428.63 1778.28 426.882V293.866C1778.28 292.118 1779.91 290.619 1781.91 290.619Z" fill="#ECECEC"/>
<path d="M180.226 334.208H232.933C232.933 334.208 226.938 295.99 178.228 286.248C163.365 283.25 147.753 283.875 133.64 289.495C118.527 295.615 101.167 308.479 94.4221 335.832C90.8001 350.445 91.5495 365.932 95.796 380.295C102.416 402.527 119.402 433.501 162.241 431.503C162.241 431.503 232.558 434.251 232.933 362.81H150.626V376.673H184.348C184.348 376.673 190.343 413.643 162.241 414.017C162.241 414.017 136.388 419.513 135.638 357.814C135.638 357.814 134.514 300.736 162.241 303.733C162.241 303.733 180.601 305.607 180.226 334.208Z" fill="#ECECEC"/>
<path d="M380.311 283.624C339.595 283.624 306.622 315.972 306.622 357.938C306.622 399.903 339.595 433.875 380.311 433.875C421.028 433.875 454.001 399.778 454.001 357.938C454.001 316.097 421.028 283.624 380.311 283.624ZM380.311 413.142C380.311 413.142 352.959 417.638 352.334 357.938C352.334 357.938 352.334 303.608 380.311 305.356C380.311 305.356 407.539 303.608 407.414 358.812C407.414 358.812 411.411 412.518 380.311 413.267V413.142Z" fill="#ECECEC"/>
<path d="M1125.32 283C1083.61 283 1049.88 315.223 1049.88 356.814C1049.88 398.405 1083.61 432.377 1125.32 432.377C1167.04 432.377 1200.88 398.53 1200.88 356.814C1200.88 315.099 1167.04 283 1125.32 283ZM1125.32 411.644C1125.32 411.644 1097.34 416.14 1096.6 356.814C1096.6 356.814 1096.6 302.859 1125.32 304.607C1125.32 304.607 1153.3 302.859 1153.05 357.688C1153.05 357.688 1157.3 411.019 1125.32 411.644Z" fill="#ECECEC"/>
<path d="M986.811 406.898C989.809 402.777 992.556 396.657 994.055 387.164C994.555 384.417 996.928 382.418 999.675 382.418H1036.52C1041.27 382.418 1044.39 387.289 1042.39 391.536C1035.15 407.523 1015.54 437.873 974.196 437.373C924.987 436.748 899.883 404.65 900.382 362.435C900.882 320.22 939.225 284.999 982.315 288.496C1025.4 291.993 1040.52 322.593 1044.51 336.706C1045.51 340.328 1042.89 343.95 1039.14 344.075L998.676 345.449C995.929 345.449 993.68 343.45 993.431 340.703C991.682 312.351 972.698 312.851 972.698 312.851C972.698 312.851 951.715 308.854 948.967 345.074C948.967 345.074 947.094 363.809 948.468 380.42C948.967 387.164 950.591 395.657 953.588 401.777C955.712 406.274 957.335 408.022 960.708 410.645C966.328 415.141 981.316 414.267 986.936 406.648L986.811 406.898Z" fill="#ECECEC"/>
<path d="M635.726 431.752C636.975 431.752 637.974 430.753 637.974 429.504L637.724 346.573C637.724 346.573 638.473 345.698 638.848 346.198L702.92 431.877C702.92 431.877 704.044 432.752 704.669 432.752H728.524C730.897 432.752 732.896 430.753 732.896 428.255V293.367C732.896 292.118 731.896 291.118 730.647 291.118H713.412C712.163 291.118 711.163 292.118 711.163 293.367V362.31C711.163 362.31 710.539 363.059 710.164 362.684L657.957 289.994C657.957 289.994 656.833 289.12 656.209 289.12H616.492C613.994 289.12 611.995 291.243 611.995 293.866L614.993 428.505C614.993 430.379 616.616 432.002 618.365 432.002H635.601L635.726 431.752Z" fill="#ECECEC"/>
<path d="M1238.98 432.377C1240.35 432.377 1241.48 431.378 1241.48 430.129L1240.85 353.817C1240.85 353.817 1241.73 352.943 1242.1 353.442L1316.41 432.252C1316.41 432.252 1317.66 433.126 1318.41 433.126H1345.64C1348.39 433.126 1350.64 431.128 1350.64 428.63V292.617C1350.64 291.368 1349.51 290.369 1348.14 290.369H1328.53C1327.16 290.369 1326.03 291.368 1326.03 292.617L1325.53 363.309C1325.53 363.309 1324.78 364.058 1324.41 363.684L1256.46 291.368C1256.46 291.368 1255.21 290.494 1254.47 290.494L1218 290.994C1215.12 290.994 1212.75 293.117 1212.75 295.615L1216.25 428.755C1216.25 430.628 1218 432.127 1220.12 432.127L1238.85 432.377H1238.98Z" fill="#ECECEC"/>
<path d="M1367.5 290.868H1496.89C1499.39 290.868 1501.39 292.867 1501.39 295.364V309.603C1501.39 312.101 1499.39 314.099 1496.89 314.099H1457.3C1455.67 314.099 1454.43 315.348 1454.43 316.972L1454.05 430.503C1454.05 431.752 1453.05 432.751 1451.8 432.751H1411.46C1408.59 432.751 1406.34 430.378 1406.34 427.63V315.348C1406.34 313.724 1404.97 312.35 1403.34 312.35H1367.5C1366.25 312.35 1365.25 311.351 1365.25 310.102V293.116C1365.25 291.867 1366.25 290.868 1367.5 290.868Z" fill="#ECECEC"/>
<path d="M1625.91 288.995H1755.3C1757.8 288.995 1759.8 290.993 1759.8 293.491V307.73C1759.8 310.228 1757.8 312.226 1755.3 312.226H1715.71C1714.09 312.226 1712.84 313.475 1712.84 315.099L1712.46 428.63C1712.46 429.879 1711.46 430.878 1710.21 430.878H1669.87C1667 430.878 1664.75 428.505 1664.75 425.757V313.475C1664.75 311.851 1663.38 310.477 1661.75 310.477H1625.91C1624.66 310.477 1623.66 309.478 1623.66 308.229V291.243C1623.66 289.994 1624.66 288.995 1625.91 288.995Z" fill="#ECECEC"/>
<path d="M1646.39 426.631L1581.7 290.744C1581.2 289.619 1580.07 288.87 1578.82 288.87H1537.11C1535.48 288.87 1533.86 289.869 1533.24 291.368L1478.78 425.383C1477.78 427.88 1479.65 430.628 1482.28 430.628H1499.39C1502.51 430.628 1505.38 428.63 1506.38 425.632L1517 396.531L1575.95 396.157L1593.56 429.379C1594.06 430.129 1594.81 430.628 1595.68 430.628H1643.77C1645.77 430.628 1647.14 428.505 1646.27 426.631H1646.39ZM1525.24 373.925L1543.48 323.092L1566.08 373.925H1525.24Z" fill="#ECECEC"/>
<path d="M596.758 340.952C597.632 334.957 596.758 322.342 596.758 322.342C593.011 289.494 564.035 290.368 564.035 290.368H468.114V431.002C468.114 431.877 468.863 432.626 469.738 432.626L511.203 432.376C512.078 432.376 512.702 431.627 512.702 430.753V376.048H520.696L540.429 430.503C540.929 431.752 542.053 432.626 543.302 432.626H587.016C590.138 432.626 592.262 429.379 591.137 426.256L570.405 370.802C595.134 362.559 596.633 340.827 596.633 340.827L596.758 340.952ZM515.325 357.313C513.701 357.188 512.203 355.69 512.203 353.816V310.102H533.685C550.671 311.976 551.295 333.583 551.295 333.583C553.918 358.562 524.942 358.188 515.325 357.313Z" fill="#ECECEC"/>
</g>
<defs>
<clipPath id="clip0_1163_2935">
<rect width="1824.62" height="154.498" fill="white" transform="translate(0 283)"/>
</clipPath>
</defs>
</svg>
