<svg width="1825" height="720" viewBox="0 0 1825 720" fill="none" xmlns="http://www.w3.org/2000/svg">
<g clip-path="url(#clip0_1214_2486)">
<path d="M562.237 244.085L556.605 244.407L555.352 239.705L553.478 240.337L553.633 235.636L553.156 230.624H548.621L547.058 225.934L494.3 160.969L489.455 156.899H481.782L478.644 160.658L473.011 161.911L470.982 163.94L469.574 157.21L460.703 157.055L457.355 161.024L454.228 156.434L450.258 157.055L448.806 159.35L444.836 156.223H436.908V163.319L434.192 156.223L428.138 155.38L426.474 157.886L424.168 155.181L405.385 154.549L401.837 156.844L399.752 157.476L399.541 162.277L396.836 165.193L393.698 163.53V156.012L385.038 156.533L381.279 154.449L356.032 154.028H348.725C348.725 154.028 347.472 156.744 347.261 157.365C347.05 157.997 346.429 163.208 346.429 163.208L344.134 156.955L341.839 153.817C338.912 153.407 331.194 155.28 331.194 155.28L331.394 160.082L332.857 162.166L333.49 167.178L333.068 170.726L329.52 177.612L327.846 170.937L329.099 167.389L328.688 162.166L325.761 159.039L323.255 156.955L322.424 152.885L314.906 151.111H310.315L309.694 159.039L311.158 163.63L313.864 165.304L311.99 168.22L308.652 174.895L308.02 168.22L307.399 162.377L305.104 161.756L304.893 156.744V152.154L299.261 151.577L298.163 156.689L294.138 152.098L284.591 151.943L284.28 155.702L284.746 157.576L279.59 163.84V167.599L283.493 174.951L283.804 178.554L282.717 183.089L279.59 186.538L279.113 195.774L276.996 193.623C276.607 193.235 276.352 192.725 276.275 192.182L275.355 185.762L279.113 181.071L279.424 176.525L279.745 172.301L277.86 169.019L277.705 164.007L274.423 163.22L275.044 159.782L277.084 158.374L277.55 153.207L268.779 152.73L264.555 155.391L262.991 154.138L260.02 154.305L257.514 157.276L255.474 154.926L255.008 153.362L251.249 152.897H232V293.571L234.706 297.319V304.005H258.09L267.693 308.174H279.79L282.296 304.005L286.055 299.415L290.235 300.668L295.236 304.005L298.784 302.021L302.543 304.837L308.497 306.4H313.187L318.199 303.274L322.268 305.147L326.648 304.216L330.717 298.894V303.894L345.121 304.526L353.26 299.204L357.961 304.526L366.721 303.274L371.422 302.331L376.112 303.894L383.94 302.963L386.757 298.894L393.022 303.274L401.792 302.641L408.988 304.216H412.747L414.311 297.319L431.531 306.09L436.542 303.274L440.922 308.174V312.355L435.6 310.159V317.677L440.922 319.861V323.52L434.979 325.605L435.389 337.924L436.432 340.219L434.558 343.557L434.979 347.936L436.853 349.611L436.542 356.075L435.5 361.087L436.542 364.214L435.7 366.72L432.994 370.689L433.405 374.027L434.657 377.575L434.247 381.334L433.205 385.292L433.405 390.093V395.316L432.784 399.906L433.205 403.244L432.784 407.635L432.573 414.099L433.826 419.943L432.362 423.491V427.46L434.458 430.798L432.784 433.304L432.362 445.201C432.362 445.201 402.934 446.665 402.103 446.244C401.271 445.822 395.428 445.201 394.796 445.201C394.796 445.201 379.35 446.066 378.718 445.856C378.097 445.656 372.874 445.856 372.254 445.856C371.633 445.856 366.399 446.488 366.399 446.488L362.851 446.909L357.85 444.813L353.67 445.856C353.67 445.856 345.321 445.656 343.868 445.656C342.415 445.656 334.465 445.445 333.634 445.235C332.802 445.024 330.917 445.445 330.917 445.445L326.748 446.909L324.042 444.78H316.314L259.133 442.906L247.446 442.274L247.18 450.89L248.433 532.287L249.375 543.874L249.065 577.993H308.541L312.611 575.808L315.749 577.993L319.186 576.895L321.847 577.993H338.124L340.63 576.429L345.021 577.061L348.935 575.653L352.373 577.993H368.029L372.198 571.417L372.52 568.756L372.364 566.417V564.066L374.238 562.658L375.647 563.755L375.802 565.164L374.704 567.038L375.491 574.234L376.744 577.993H395.217L398.499 575.964L401.005 577.993H432.473C432.473 577.993 440.612 578.469 440.922 577.993C441.233 577.527 464.817 578.203 464.817 578.203L466.491 572.515L467.634 574.189L468.576 578.88H504.734L507.085 577.627L512.252 577.316L515.379 576.374L517.419 570.431L519.77 570.275C519.77 570.275 519.448 577.948 519.77 577.948C520.091 577.948 551.227 577.316 551.227 577.316L552.69 560.307L553.788 552.789L552.07 547.944L552.535 545.593L553.788 541.679L558.478 485.795L563.18 436.641V389.051L565.686 387.488L568.502 339.587C568.502 339.587 571.629 317.045 571.629 316.114C571.629 315.182 573.192 286.996 573.192 286.996L574.767 262.891L562.237 244.096V244.085ZM252.369 171.026L250.096 169.451V167.732H254.642C254.642 167.732 256.361 169.928 256.671 171.026C256.982 172.112 252.369 171.026 252.369 171.026ZM283.127 547.29L284.17 550.206L283.127 552.091C283.127 552.091 282.817 550.838 282.495 550.516C282.185 550.206 283.127 547.6 283.127 547.29ZM283.549 561.737L282.506 559.342C282.462 559.243 282.451 559.132 282.473 559.021L283.016 556.471C283.116 555.994 283.759 555.894 283.992 556.315L285.212 558.466C285.278 558.588 285.301 558.733 285.267 558.866L284.547 561.66C284.425 562.148 283.748 562.203 283.549 561.737ZM310.881 567.293V568.368C310.881 568.679 309.739 569.721 309.007 569.832C308.275 569.932 309.007 569.832 307.754 569.41L307.022 568.368V566.594L308.486 564.709H310.471C310.781 564.709 310.57 565.441 310.881 566.284C311.202 567.115 310.881 566.284 310.881 567.293ZM313.708 455.347L313.176 456.489L310.992 457.221L309.839 455.657L310.992 453.462L313.708 454.305V455.347ZM346.052 455.347L344.389 453.462V451.067L346.884 453.207L346.052 455.347ZM442.652 416.417L441.044 418.379L440.268 415.873V413.523L441.044 411.649L442.652 412.503V416.417ZM445.036 390.038L443.861 394.817L440.811 396.38L440.268 392.156L442.375 389.572L445.036 388.796V390.038ZM486.838 323.798H481.616L485.164 321.092H486.838V323.798Z" fill="#ECECEC"/>
<path d="M582.717 141.985L579.169 159.516L576.663 178.088L572.283 203.547V212.107L570.82 225.468C570.82 225.468 582.506 228.805 582.717 228.805C582.928 228.805 610.681 232.353 610.681 232.353C610.681 232.353 629.886 233.606 631.549 234.028C633.212 234.449 638.025 236.112 638.025 236.112H647.838V224.004L650.133 223.793L652.007 216.908L649.712 213.149L652.007 203.336L649.29 201.462L652.007 194.787L654.934 192.492L656.808 169.329L658.482 167.455V156.389L654.934 152.22L650.344 151.122L645.964 149.093L618.41 145.755L617.157 143.881L606.302 143.671L596.489 143.249L582.717 141.996V141.985Z" fill="#ECECEC"/>
<path d="M748.64 170.216L746.766 183.832L744.26 184.775L742.541 184.93L740.19 185.861L739.725 189.044L740.656 191.028V194C740.656 194.632 742.064 195.419 742.064 195.419L743.317 202.305V208.248L740.656 217.95V228.44L739.403 234.86L736.742 236.9L735.811 239.084L733.981 237.366H729.601L727.151 239.262L728.348 241.069C728.348 241.069 729.856 241.18 730.167 241.346C730.488 241.513 734.968 240.759 735.966 241.28C736.121 242.067 736.742 242.688 736.742 242.688L736.587 243.154C736.432 243.63 736.908 244.407 736.587 246.602L735.811 248.642L731.109 247.389L729.18 243.52L726.729 243.42L724.224 248.642L699.597 245.294L685.814 241.335H680.603L667.663 238.829L666.41 236.113V214.402L669.748 207.516V203.758L672.675 196.872C672.675 196.872 671.832 192.281 671.832 191.66C671.832 191.039 676.633 155.968 676.633 155.968C676.633 155.968 706.061 158.629 706.538 158.629C707.015 158.629 742.541 162.853 742.541 162.853C742.541 162.853 745.668 164.417 745.978 164.894C746.3 165.359 746.921 167.865 747.076 168.486C747.231 169.118 748.64 170.216 748.64 170.216Z" fill="#ECECEC"/>
<path d="M996.115 194.576H983.452C983.452 194.576 980.315 193.013 979.849 192.702C979.383 192.392 978.751 191.76 978.285 191.605C977.82 191.449 975.779 191.294 974.992 190.817C974.216 190.352 973.584 190.196 973.118 189.886C972.653 189.564 972.808 189.886 972.331 188.788C971.865 187.691 970.923 185.972 970.923 185.972L968.106 185.661C968.106 185.661 967.175 184.242 966.543 184.242C965.911 184.242 962.163 183.776 962.163 183.776L960.123 183C958.56 182.368 957.307 182.058 956.841 181.903C956.364 181.747 955.278 182.058 954.956 181.581C954.646 181.115 952.14 179.397 952.14 179.397C952.14 179.397 941.029 179.397 940.397 179.086C939.776 178.765 936.328 176.58 936.328 176.58C936.328 176.58 935.862 175.172 935.397 175.017C934.92 174.851 933.512 174.54 933.046 174.54C932.58 174.54 929.753 175.948 929.753 175.948L927.413 170.471C927.413 170.471 924.907 170.16 924.275 169.85C923.654 169.528 917.545 168.442 917.545 168.442L917.7 172.189L914.884 169.373L913.165 167.344L911.601 165.78L908.785 164.051L906.9 163.74L905.193 162.177L903.463 162.332L900.957 160.924H899.238L896.732 161.079L895.79 159.205L893.916 158.573L893.129 156.854H889.836C889.37 156.854 884.879 156.699 884.879 156.699C884.879 156.699 882.95 155.757 882.329 155.446C881.697 155.136 880.921 153.561 879.512 153.728C878.104 153.883 874.966 152.319 874.966 152.319L873.558 151.222C873.558 151.222 873.092 151.067 871.995 151.067C870.897 151.067 866.052 150.745 866.052 150.745L865.575 148.716C865.575 148.716 861.982 147.773 861.35 147.773C860.718 147.773 858.378 147.463 858.378 147.463C858.378 147.463 857.281 146.055 856.815 145.899C856.338 145.744 854.464 145.267 854.464 145.267L853.056 145.112L849.453 144.17L847.257 143.394L845.228 141.83L842.567 141.985L839.906 141.353L836.613 141.198L835.681 138.071L833.641 136.508H828.74L804.324 176.891L799.933 184.408L796.174 189.043L793.99 194.731L778.023 223.538L773.632 229.171V232.775L775.672 234.183C777.713 233.717 779.431 232.775 779.431 232.775C779.431 232.775 780.529 231.677 781.616 231.988C782.713 232.309 783.19 232.143 783.811 232.775C784.443 233.396 785.064 234.183 785.064 234.183C785.064 234.183 785.374 235.125 786.162 235.591C786.938 236.057 787.57 236.844 788.512 236.844C789.455 236.844 789.444 236.534 790.386 236.844C791.329 237.155 792.737 237.787 792.737 237.787C792.737 237.787 795.553 239.04 796.019 239.04H797.904C797.904 239.04 799.002 240.603 799.467 240.603C799.933 240.603 800.088 240.293 801.186 240.603C802.284 240.913 804.324 241.856 804.324 241.856L805.732 243.109H807.296L809.801 245.449H811.054L813.871 246.868H815.745C815.745 246.868 819.038 247.799 819.969 247.799H823.107L825.613 248.642L826.389 249.995L827.798 251.092L830.614 252.024L833.275 250.616L834.683 250.46H836.258L838.132 252.024L840.638 253.277H853.788L854.886 255.938V257.823C854.886 257.823 856.294 259.386 857.225 259.542C858.168 259.697 860.042 259.542 860.042 259.542L863.18 259.608H865.054L866.939 261.582C866.939 261.582 869.278 263.456 869.755 263.456C870.232 263.456 870.221 263.3 871.008 263.456C871.784 263.611 874.922 263.456 874.922 263.456L875.698 260.95L878.359 261.892L880.078 262.358L882.118 265.33C882.118 265.33 881.176 267.525 882.118 267.68C883.061 267.835 883.682 267.37 884.935 267.68C886.187 267.991 888.693 267.713 888.693 267.713C890.412 267.059 890.723 266.427 891.51 266.117C892.297 265.806 892.918 265.651 892.918 265.651L894.481 267.835C894.481 267.835 893.228 269.244 894.481 269.244C895.734 269.244 896.211 269.088 896.987 269.244C897.775 269.399 898.872 269.244 898.872 269.244C900.28 268.312 901.367 267.991 901.367 267.991L903.407 268.623L904.195 272.382C904.195 272.382 906.689 274.411 907.166 274.255C907.632 274.1 907.166 275.531 908.73 274.255L910.293 272.991L911.236 273.302V276.129C913.109 277.538 914.362 278.003 914.839 278.158C915.305 278.314 916.403 278.158 916.403 278.158C916.403 278.158 917.966 277.848 918.587 277.538L919.219 277.216C919.219 277.216 920.317 278.147 920.782 278.225C921.248 278.314 923.754 279.567 923.754 279.567V281.452H927.979L930.329 282.693L932.048 283.946L933.622 285.521L935.496 287.395H937.215L940.198 286.452L941.606 286.142L943.325 287.395H948.957L951.929 285.044L956.364 277.693C956.364 277.693 958.249 273.934 958.715 273.302C959.192 272.681 963.095 264.853 963.095 264.853L966.388 260.783C966.388 260.783 967.175 260.318 967.33 258.91C967.486 257.501 969.515 254.84 969.515 254.84C969.515 254.84 969.67 254.995 970.457 253.11C971.244 251.237 970.923 252.179 972.021 250.294C973.118 248.42 972.021 250.139 973.118 248.42C974.216 246.69 973.274 248.575 974.216 246.69C975.159 244.817 974.371 245.914 975.159 244.817C975.292 244.628 975.369 244.517 975.414 244.462H975.425V244.44C975.425 244.44 975.425 244.44 975.425 244.428C975.436 244.417 975.447 244.406 975.447 244.406C975.502 244.318 975.635 244.118 975.924 243.719C977.021 242.155 977.177 242.155 977.487 241.534C977.701 241.113 977.964 240.536 978.274 239.805C978.74 238.707 979.05 237.776 979.05 237.776L981.401 234.638C981.401 234.638 980.935 233.385 981.401 232.764C981.878 232.132 982.344 232.132 982.809 230.89C983.286 229.637 983.597 229.947 984.062 228.384C984.539 226.809 984.85 226.499 985.315 225.246C985.792 223.993 986.102 223.217 986.723 222.43C987.355 221.653 987.976 221.021 988.287 220.079C988.608 219.148 989.385 218.36 989.385 218.36L991.735 211.94C991.735 211.94 992.356 210.222 993.143 209.279C993.931 208.348 994.241 207.871 994.707 207.095C995.184 206.307 995.649 205.52 995.96 204.899C996.27 204.278 995.96 200.519 995.96 200.519L996.104 197.071V194.565L996.115 194.576ZM890.567 172.145C890.678 172.666 890.567 173.287 890.567 173.287L889.636 174.961L889.314 174.54C889.004 174.13 888.793 173.708 888.427 172.766C888.061 171.835 888.061 171.513 888.061 170.992C888.061 170.471 888.693 168.386 888.793 167.965C888.793 167.965 890.046 168.807 890.623 169.329C891.188 169.85 890.468 171.624 890.567 172.145ZM958.194 267.004C957.772 267.215 956.32 267.425 955.799 267.946C955.278 268.467 954.435 268.989 954.025 268.878C953.603 268.778 952.251 268.9 952.251 268.9L950.576 267.946C950.576 267.946 952.04 266.904 952.772 266.483C953.503 266.061 953.603 266.061 954.335 265.751C955.067 265.44 956.32 265.13 956.941 265.23C957.573 265.33 958.194 265.751 958.194 265.751C958.194 265.751 958.615 266.793 958.194 267.004Z" fill="#ECECEC"/>
<path d="M943.192 296.543L939.909 297.784L937.559 296.066H933.489L927.857 295.29L926.282 294.192L920.805 293.56L917.833 292.152L878.548 291.686C878.548 291.686 875.41 292.629 874.944 292.462C874.478 292.307 869.932 291.531 869.932 291.531L858.19 290.899C858.19 290.899 846.769 291.376 845.827 291.22C844.884 291.054 835.493 290.588 835.493 290.588C835.493 290.588 832.676 291.376 829.86 290.744C827.043 290.123 826.101 289.646 826.101 289.646C826.101 289.646 823.917 289.335 822.032 289.18C820.158 289.025 816.088 288.87 816.088 288.87C816.088 288.87 813.427 288.559 812.95 288.559C812.474 288.559 808.626 287.883 808.626 287.883L804.867 305.613V322.311C804.446 327.745 802.151 339.01 802.151 339.01C802.151 339.01 801.319 342.769 801.108 345.486C800.898 348.191 800.687 351.118 800.066 353.624C799.445 356.13 797.139 363.227 797.139 363.847C797.139 364.468 795.897 389.106 795.897 389.727V393.907L798.192 394.95C798.192 394.95 801.74 394.318 802.262 394.118C802.783 393.907 801.94 394.118 802.783 393.907C803.614 393.697 804.657 395.16 805.699 394.95C806.741 394.739 806.542 395.571 807.584 395.992C808.626 396.413 811.753 397.866 811.753 397.866C811.753 397.866 812.795 397.245 814.47 397.866C816.133 398.498 816.765 399.329 818.639 399.329C820.513 399.329 826.367 398.908 829.283 399.329C832.211 399.751 837.012 399.119 838.475 399.329C839.928 399.54 843.066 399.474 843.066 399.474L844.518 395.781L845.361 399.485C845.361 399.485 850.162 399.019 850.783 399.485C851.415 399.961 855.374 399.485 855.374 399.485C855.374 399.485 858.301 399.851 859.133 399.695C859.964 399.54 863.102 400.139 863.723 399.729C864.355 399.329 866.861 395.781 866.861 395.781L867.693 399.873H872.072C872.072 399.873 873.536 397.034 873.536 396.203V393.065L869.566 389.938L871.03 387.643L873.536 388.064L874.944 386.079V384.826C874.944 384.826 876.718 384.405 877.029 384.616C877.339 384.826 878.492 385.769 878.492 385.769V388.064L877.239 389.838L877.029 391.612L877.239 393.275L877.761 394.839C877.761 394.839 878.592 396.203 878.492 396.613C878.393 397.034 878.492 398.287 878.492 398.287L878.903 399.873H885.578L886.365 396.724C886.365 396.724 886.199 394.684 886.365 393.907C886.52 393.12 885.422 392.178 886.365 391.712C887.296 391.246 888.239 390.148 888.704 389.683C889.181 389.206 890.434 387.022 890.434 387.022V392.654L889.647 395.936C889.647 395.936 889.492 396.879 889.492 397.345C889.492 397.81 889.181 399.873 889.181 399.873C889.181 399.873 894.504 399.74 894.969 399.873C895.435 400.006 897.941 399.906 898.573 399.873C899.194 399.851 900.602 398.598 900.602 398.598V399.939H910.626L911.557 397.034L912.5 394.684L913.908 395.471V399.939H920.96L922.523 397.821L923.455 399.939H928.466L930.351 397.189L930.972 399.939H936.45C936.45 399.939 935.829 397.189 936.45 396.568C937.082 395.936 937.237 393.586 937.392 392.81C937.548 392.022 938.801 389.516 938.801 389.516C938.801 389.516 940.83 354.145 940.83 353.669C940.83 353.192 941.462 342.714 941.772 342.093C942.083 341.461 943.968 331.293 943.968 331.293L945.875 308.473L948.359 299.115V297.396L943.192 296.532V296.543ZM821.821 391.379C821.189 392.211 821.821 391.379 821.71 391.812C821.61 392.255 820.978 392 820.668 391.79C820.357 391.579 819.736 391.9 819.204 391.79C818.683 391.69 818.162 390.858 818.162 390.858L818.583 386.877L818.683 385.846C818.683 385.846 819.836 386.157 820.513 386.877C821.189 387.609 821.189 387.51 821.51 388.142C821.821 388.762 822.863 389.472 822.863 389.472C822.863 389.472 822.442 390.537 821.821 391.379ZM890.279 380.258C890.279 380.579 889.547 381.511 889.547 381.511C889.547 381.511 889.126 380.158 888.926 379.326C888.716 378.484 889.547 375.568 889.547 375.568C889.547 375.568 890.379 377.441 890.279 378.539C890.168 379.637 890.279 379.947 890.279 380.258Z" fill="#ECECEC"/>
<path d="M1085.04 160.192V146.421L1080.5 145.012H1052.63C1052.63 145.012 1047.15 144.38 1046.69 145.012C1046.21 145.633 1027.58 146.421 1026.96 146.421C1026.34 146.421 1018.11 147.175 1018.11 147.175V184.331L1019.37 189.964V227.12L1021.35 229.459C1021.35 229.459 1025.27 228.994 1026.05 229.459C1026.83 229.936 1030.28 229.459 1030.28 229.459C1030.28 229.459 1031.53 227.741 1031.53 226.954C1031.53 226.166 1030.9 225.39 1031.53 224.459L1032.15 223.516V220.545C1033.72 219.757 1035.29 220.068 1035.29 220.068V223.827L1034.5 225.701V228.206C1034.5 228.206 1034.35 230.036 1035.29 229.67C1036.22 229.304 1049.06 229.714 1049.06 229.714H1051.09L1052.34 226.488C1052.34 226.488 1052.03 225.701 1052.34 225.08C1052.66 224.459 1053.44 223.827 1053.44 223.827L1055.37 222.263L1056.23 220.301L1055.77 229.714C1055.77 229.714 1058.34 229.304 1058.59 229.304C1058.83 229.304 1062.73 229.714 1062.73 229.714C1062.73 229.714 1064.06 229.382 1064.3 229.382C1064.53 229.382 1065.86 229.537 1066.17 229.382C1066.49 229.227 1067.11 229.227 1067.42 229.227C1067.73 229.227 1068.44 229.382 1068.75 229.149C1069.08 228.916 1070.64 227.663 1070.64 227.663L1071.49 227.43L1072.67 228.129C1072.67 228.129 1073.45 229.149 1073.69 229.227C1073.92 229.304 1076.43 229.714 1076.43 229.714L1078.47 229.382C1078.47 229.382 1080.03 226.177 1080.26 226.177C1080.5 226.177 1082.06 225.468 1082.06 225.468L1083.47 222.496L1084.25 204.334V197.925C1084.25 197.293 1084.1 195.108 1084.25 194.166C1084.41 193.223 1084.25 188.999 1084.25 188.444C1084.25 187.89 1083.31 186.027 1083.47 185.24C1083.62 184.464 1083.47 182.734 1083.47 181.636C1083.47 180.539 1084.32 176.791 1084.32 176.791C1084.32 176.791 1085.04 160.669 1085.04 160.192ZM1071.91 195.519L1071.49 193.645L1072.33 191.35C1072.33 191.35 1073.17 193.334 1073.07 193.855C1072.96 194.377 1071.91 195.519 1071.91 195.519Z" fill="#ECECEC"/>
<path d="M1164.79 156.854C1163.38 155.291 1161.35 153.251 1161.35 153.251L1156.03 151.532L1151.02 151.222L1124.25 149.969L1113.92 148.815H1104.21L1102.13 177.622L1101.29 193.434L1098.37 196.406L1097.12 210.188C1097.12 210.188 1096.91 214.147 1097.12 214.779C1097.33 215.4 1097.03 222.762 1097.03 222.762V224.791L1100.62 225.889H1102.17C1102.65 225.889 1104.06 226.51 1104.21 225.889C1104.37 225.257 1107.18 224.946 1107.18 224.946C1107.18 224.946 1109.22 225.102 1109.85 225.423C1110.48 225.734 1111.41 226.831 1112.04 226.831C1112.67 226.831 1113.6 227.608 1114.55 227.608C1115.49 227.608 1118.62 227.142 1119.87 227.608C1121.12 228.084 1123.15 228.55 1125.19 228.55H1137.4C1138.18 228.55 1143.34 228.861 1143.97 228.55C1144.6 228.24 1152.11 227.918 1152.11 227.918L1156.34 226.831C1156.34 226.831 1158.06 222.13 1158.22 221.664C1158.38 221.188 1160.88 212.428 1160.88 211.641C1160.88 210.853 1161.51 207.106 1161.51 204.445C1161.51 201.783 1161.19 196.927 1161.51 195.519C1161.82 194.11 1160.88 188.322 1161.51 187.225C1162.13 186.127 1163.22 181.437 1163.22 181.437C1163.22 181.437 1163.86 178.609 1164.01 177.201C1164.17 175.793 1163.22 173.287 1164.01 172.511C1164.79 171.723 1164.79 170.471 1165.26 169.384C1165.73 168.286 1166.98 166.246 1166.98 165.625V159.826L1164.79 156.854ZM1106.53 204.943L1105.18 207.339V206.396L1104.35 203.58L1105.18 200.663L1106.53 202.227V204.943ZM1132.75 221.997H1122.34L1120.78 219.58L1120.39 217.54C1120.39 217.54 1124.69 217.151 1125.08 217.151C1125.47 217.151 1128.37 217.617 1128.76 217.54C1129.15 217.462 1131.19 218.404 1131.19 218.404L1133.3 220.988L1132.75 221.997ZM1144 178.332L1141.08 174.673V172.378H1142.53C1142.53 172.378 1144 174.884 1144 175.349V178.332Z" fill="#ECECEC"/>
<path d="M1116.94 428.48L1117.1 427.072L1119.91 426.606L1120.22 423.945L1120.38 421.439H1126.33V419.876L1128.36 419.244L1129 416.749L1131.18 416.904L1133.37 413.766L1135.4 412.513L1137.29 410.484C1137.29 410.484 1138.7 410.174 1140.73 408.921C1140.73 408.921 1141.51 407.512 1141.98 407.191C1142.46 406.88 1144.96 405.938 1144.96 405.938L1146.21 404.685C1146.21 404.685 1148.88 402.19 1149.5 401.713C1150.12 401.248 1153.1 400.305 1153.1 400.305L1155.92 398.121L1156.69 396.081L1159.04 392.798L1162.96 391.379V389.04C1162.96 389.04 1160.61 387.476 1160.14 387.155C1159.68 386.844 1159.35 384.493 1159.35 384.493V380.114L1157.17 378.861L1153.88 378.24V372.596L1151.37 369.624L1147.62 366.342L1143.71 362.739L1140.89 359.445V355.853L1139.95 353.657C1139.95 353.657 1133.69 346.927 1133.22 345.984C1132.74 345.053 1129 339.409 1128.67 338.633C1128.36 337.846 1125.24 334.564 1125.24 334.564L1121.94 332.058L1120.53 330.018L1119.28 327.046L1115.21 321.413L1109.42 312.798L1101.44 302.785L1098.78 300.124H1095.65L1094.23 302.319L1092.36 303.883L1090.16 305.912L1086.25 308.263V309.671L1082.5 310.613L1079.69 313.895L1077.8 316.246L1075.14 318.12L1072.17 320.005L1070.61 322.356H1067.31V324.074L1063.87 324.851L1061.52 327.201H1059.48L1056.05 330.494L1053.7 334.408H1050.25L1046.65 335.029L1043.99 336.282L1041.8 339.254L1039.45 340.507L1038.04 345.053L1036.32 343.911L1034.6 343.168C1034.6 343.168 1032.41 345.208 1032.25 345.674C1032.1 346.14 1032.25 349.743 1032.25 349.743L1030.06 350.841L1028.96 347.393C1028.96 347.393 1027.08 348.967 1026.3 349.588C1025.52 350.22 1023.33 351.628 1023.01 352.249C1022.7 352.881 1020.2 354.445 1020.2 354.445L1019.41 356.951L1018.79 363.992L1016.59 365.4V358.88H1013.78L1009.4 360.233L1007.67 369.469L1005.33 370.412L1003.44 374.481L1000.63 375.568L999.53 371.82V369.469H997.346L993.898 371.343L992.024 375.568L990.139 380.114H982.31L979.494 381.511L974.959 382.93L972.143 386.999L967.286 390.137L963.849 392.011L959.935 393.575C959.935 393.575 957.894 395.77 957.584 396.391C957.274 397.023 953.67 397.799 953.67 397.799C953.67 397.799 951.164 400.15 950.854 400.616C950.543 401.092 947.716 403.277 947.716 403.277L942.97 405.472L941.406 407.878H937.548L936.506 409.652L934.099 410.584L933.368 413.722L931.704 414.132L928.156 415.806L926.271 417.68L923.244 418.201L920.428 420.397L916.78 422.382L915.216 424.366L912.921 424.887L907.909 429.888L903.208 432.084C903.208 432.084 900.081 433.958 899.771 434.9C899.449 435.843 895.701 437.716 895.701 437.716L889.592 439.601H884.879L881.298 444.924C881.298 444.924 873.47 451.177 872.128 452.12C870.786 453.062 867.515 452.12 867.515 452.12V455.568L835.903 475.915V478.155L837.156 480.195L837.311 481.914L838.719 482.546L839.34 485.362L841.536 487.868L842.789 489.276L844.197 490.84L845.139 492.869L847.013 494.598L849.209 496.628L849.674 498.513L851.393 500.542C851.393 500.542 852.491 502.105 852.801 502.582C853.123 503.048 853.744 504.301 854.21 504.766C854.686 505.243 856.094 506.496 856.094 506.496L857.658 508.215L859.532 509.933L860.319 511.341L860.474 513.382L861.883 514.003L862.515 515.732L863.923 517.451L866.739 520.888L868.303 523.084L871.119 524.492L871.429 526.843L872.682 528.717V530.912L875.033 530.446L877.539 532.32L878.005 534.981L879.413 536.079L880.821 538.895L883.327 540.148L883.482 542.499L884.901 543.597L886.465 544.839L886.931 546.413L889.536 547.245L890.168 550.061L892.197 551.78L893.606 552.257L893.927 555.228L899.715 554.763L900.968 556.171L901.589 559.608L901.279 564.62L902.842 566.183L904.25 567.747L906.601 568.689L907.699 570.729V572.603C907.699 572.603 908.796 574.167 909.739 575.264C909.927 575.497 910.049 575.63 910.116 575.697C910.06 575.619 910.005 575.531 910.205 575.73C910.67 576.207 911.613 576.983 911.613 576.983H914.119C914.584 576.983 917.09 574.799 917.09 574.799L918.654 573.546L920.062 572.448L920.694 571.04L923.045 568.844L923.51 567.126L923.045 565.241C923.045 565.241 922.102 564.62 920.539 563.367L920.217 561.493L920.849 559.453L922.568 558.51H924.453C924.918 558.51 925.384 560.24 925.384 560.24L926.016 561.803L926.482 563.367H928.522C929.143 563.367 931.028 562.269 931.028 562.269C931.028 562.269 932.591 562.424 933.212 562.269C933.844 562.114 934.776 561.493 935.253 561.327C935.718 561.171 936.661 559.919 936.661 559.919C936.661 559.919 938.379 558.666 938.845 558.666C939.311 558.666 943.546 556.016 943.546 556.016L943.702 553.975V552.257L944.955 549.44H950.277L950.743 549.119C951.219 548.808 952.783 547.71 954.191 546.779C954.191 546.779 956.065 545.205 956.697 544.739C957.318 544.273 961.077 543.175 961.077 543.175L964.048 540.514L964.37 538.008L964.048 532.841L965.457 530.646L966.089 532.376L967.962 536.134H970.945C971.411 536.134 976.101 532.686 976.101 532.686L976.888 531.123L975.014 526.743L972.509 525.168L972.819 521.254L974.383 522.829L976.423 525.324L977.986 525.956L979.705 526.743L981.423 528.151L983.464 526.421L983.774 519.846L985.338 511.863L986.435 518.283L987.378 522.829H990.349L993.953 519.225L996.925 516.564L997.235 513.748L999.431 511.086L1000.21 506.54L1001.3 502.316L1003.19 500.287L1006.16 497.936L1006.63 501.373L1006.01 504.822L1006.32 507.793H1009.92L1013.2 505.609L1013.99 502.471L1013.36 499.655L1013.68 496.528L1015.09 495.43L1018.21 494.643L1018.68 496.528L1019.78 499.655L1022.23 498.978L1023.59 497.304C1023.59 497.304 1024.63 496.162 1024.94 496.051C1025.25 495.951 1026.1 494.698 1026.1 494.698L1027.55 493.656L1028.39 491.671H1031.31L1034.03 489.686L1034.24 487.912L1033.5 485.939L1032.25 483.532L1030.48 482.801L1027.03 480.927L1027.66 479.153L1031.73 479.463L1032.98 477.9L1033.81 475.704L1035.69 475.394L1036.01 477.068C1036.01 477.068 1036.74 481.027 1036.94 481.548C1037.15 482.069 1036.79 484.841 1036.79 484.841H1040.86C1040.86 484.841 1041.64 483.588 1041.95 483.111C1042.26 482.645 1044.3 481.548 1044.3 481.548L1046.97 479.674L1047.28 476.702L1046.5 474.352L1045.4 470.748L1045.56 467.932L1047.43 464.96L1050.09 465.736L1050.41 467.776L1052.6 470.748L1053.39 472.943L1056.36 471.846L1058.23 470.748L1059.96 469.029L1062.14 466.834L1063.55 465.581L1065.59 463.707L1067.16 462.764L1069.35 461.667L1071.07 459.638L1074.2 458.85L1075.93 455.879L1077.34 456.034L1079.84 453.683L1081.25 453.062L1082.03 451.022L1084.22 449.148L1086.1 448.683L1087.5 447.74L1088.6 446.021L1091.26 445.079L1097.06 440.854L1102.69 437.095L1106.3 435.532L1110.05 434.434L1110.2 431.928L1109.81 428.303L1110.54 425.176L1111.8 428.413L1113.47 427.892L1115.04 429.245L1116.94 428.48ZM878.57 463.208C878.038 464.295 876.863 464.982 875.654 464.96C874.767 464.96 874.412 463.907 874.955 463.275C875.066 463.141 875.177 463.008 875.299 462.886C875.21 462.509 875.321 462.11 875.732 461.855C876.497 461.378 877.461 461.378 878.215 461.844C878.703 462.144 878.814 462.72 878.57 463.208ZM896.278 450.268C895.89 451.044 895.657 451.876 895.535 452.752C895.457 453.284 894.781 453.561 894.315 453.439C893.75 453.284 893.55 452.752 893.628 452.22C893.772 451.177 894.093 450.202 894.57 449.27C895.136 448.128 896.843 449.126 896.278 450.268ZM930.618 431.252C930.485 431.673 930.341 432.084 930.207 432.505C930.03 433.026 929.531 433.326 928.988 433.192C928.489 433.082 928.134 432.472 928.3 431.973C928.433 431.562 928.578 431.141 928.711 430.731C928.888 430.199 929.387 429.91 929.93 430.032C930.429 430.143 930.784 430.764 930.618 431.252ZM982.399 506.684C982.399 506.795 982.388 506.906 982.355 507.006C982.233 507.649 981.867 508.181 981.324 508.592C981.013 508.824 980.503 508.736 980.226 508.514C979.938 508.292 979.738 507.849 979.871 507.472C980.015 507.073 980.226 506.729 980.47 506.396C980.559 505.919 980.936 505.576 981.435 505.553C981.956 505.531 982.432 506.03 982.421 506.54C982.421 506.596 982.41 506.64 982.399 506.684ZM990.516 500.109C990.105 500.519 989.529 500.453 989.119 500.109C988.564 499.666 988.043 499.145 987.866 498.424C987.688 497.736 987.866 496.883 988.442 496.428C988.597 496.317 988.764 496.239 988.941 496.195C989.119 496.051 989.329 495.951 989.573 495.951C990.105 495.951 990.56 496.406 990.56 496.938V498.612C990.56 498.612 990.538 498.69 990.538 498.734C990.926 499.078 990.859 499.765 990.516 500.109ZM1003.38 473.653C1003.38 473.653 1003.3 473.775 1003.29 473.775C1003.27 473.919 1003.29 474.096 1003.29 474.252C1003.31 474.618 1003.33 474.984 1003.26 475.338C1003.07 476.137 1002.39 476.713 1001.57 476.691C1000.71 476.68 999.941 476.004 999.896 475.128C999.874 474.629 1000.07 474.185 1000.4 473.864C1000.68 473.043 1001.35 472.367 1002.25 472.2C1002.66 472.123 1003.02 472.223 1003.29 472.555C1003.51 472.832 1003.6 473.343 1003.37 473.653H1003.38ZM1003.85 394.561C1003.85 395.548 1002.69 395.77 1002.15 395.249C1001.97 395.659 1001.56 395.837 1001.15 395.781C1001.15 396.003 1001.13 396.214 1001.12 396.435C1001.07 397.722 999.209 397.711 999.142 396.435C999.087 395.338 999.142 394.251 999.275 393.187C999.309 392.388 999.342 391.601 999.375 390.803C999.397 390.359 999.663 390.071 999.985 389.938C1000.08 389.616 1000.17 389.284 1000.3 388.962C1000.53 388.33 1001.19 388.141 1001.68 388.352C1001.78 387.886 1001.88 387.421 1001.99 386.944C1002.24 385.835 1003.94 386.112 1003.93 387.21C1003.91 389.661 1003.89 392.111 1003.85 394.561ZM1011.14 481.359C1011.14 481.359 1011.11 481.404 1011.08 481.415C1010.95 482.368 1010.63 483.289 1010.09 484.098C1009.51 484.974 1008.45 486.249 1007.26 485.673C1005.15 484.63 1007.86 481.781 1009.22 480.45C1009.34 479.951 1009.79 479.696 1010.23 479.707C1011.06 479.552 1011.89 480.616 1011.14 481.359ZM1011.8 378.584C1011.64 379.337 1011.63 380.091 1011.77 380.845C1011.94 381.71 1011.08 382.209 1010.46 382.043C1010.45 382.065 1010.44 382.098 1010.43 382.121C1010.25 382.586 1009.86 382.897 1009.34 382.83C1008.91 382.775 1008.42 382.342 1008.49 381.855C1008.59 380.979 1008.7 380.103 1008.81 379.227C1008.88 378.705 1009.21 378.24 1009.8 378.24C1009.8 378.24 1009.8 378.251 1009.82 378.251C1009.84 378.184 1009.88 378.118 1009.9 378.051C1010.35 376.876 1012.08 377.319 1011.8 378.584ZM1019.87 485.717C1019.7 486.914 1019.52 489.021 1017.97 489.221C1016.61 489.387 1015.74 488.023 1015.94 486.803C1016.1 485.872 1016.69 485.052 1016.96 484.153C1017.33 482.967 1017.35 481.747 1017.12 480.528C1017.03 480.051 1017.25 479.685 1017.58 479.474C1017.87 478.698 1019.19 478.521 1019.44 479.53C1019.98 481.559 1020.14 483.621 1019.87 485.717ZM1019.17 378.118C1018.9 379.26 1017.3 378.905 1017.23 377.852C1016.82 377.763 1016.46 377.475 1016.45 376.931C1016.4 373.694 1017.17 370.622 1018.73 367.773C1019.22 366.886 1020.55 367.329 1020.59 368.272C1020.7 371.709 1019.94 374.791 1019.17 378.118ZM1063.5 459.76C1062.31 461.733 1060.58 463.319 1058.47 464.261C1057.91 464.505 1057.19 464.339 1057.02 463.663C1056.56 461.866 1057.06 460.004 1058.4 458.706C1058.59 458.529 1058.79 458.451 1059 458.44C1059.08 458.052 1059.37 457.719 1059.91 457.73C1060.64 457.764 1061.36 457.875 1062.07 458.041C1062.43 458.107 1062.8 458.207 1063.14 458.407C1063.61 458.662 1063.76 459.305 1063.5 459.76ZM1069.86 330.749C1069.82 330.905 1069.75 331.049 1069.61 331.182C1069.31 331.459 1069.32 332.002 1069.17 332.379C1068.99 332.845 1068.7 333.277 1068.24 333.521C1067.73 333.788 1067.18 333.754 1066.72 333.51C1066.4 333.732 1066.1 333.976 1065.77 334.187C1064.78 334.83 1063.85 333.433 1064.57 332.634C1065.05 332.113 1065.56 331.636 1066.1 331.193C1066.16 331.049 1066.23 330.916 1066.33 330.794C1066.96 330.018 1067.84 329.474 1068.81 329.219C1069.8 328.964 1070.31 330.106 1069.86 330.749ZM1082.96 376.543C1082.69 377.652 1082.01 378.561 1081.08 379.204C1080.45 379.637 1079.6 379.06 1079.6 378.351C1079.6 378.284 1079.61 378.24 1079.61 378.173C1079.22 377.918 1079 377.43 1079.32 376.92C1079.93 375.945 1080.87 375.401 1082 375.29C1082.67 375.224 1083.09 375.978 1082.96 376.543ZM1098.72 377.231C1098.16 377.63 1097.46 377.186 1097.26 376.643C1097.07 376.111 1097.16 375.501 1097.46 375.035C1097.49 374.98 1097.55 374.947 1097.58 374.902C1097.58 374.292 1097.87 373.694 1098.37 373.306C1099.28 372.585 1100.45 372.807 1101.31 373.483C1101.75 373.838 1101.62 374.514 1101.31 374.88C1100.54 375.778 1099.68 376.543 1098.72 377.231ZM1103.91 420.874C1103.4 421.384 1102.62 421.151 1102.34 420.574C1101.56 421.384 1100.24 420.552 1100.75 419.454C1101.18 418.523 1101.74 417.691 1102.41 416.915C1102.87 416.15 1103.5 415.529 1104.3 415.074C1104.99 414.686 1105.73 415.196 1105.79 415.928C1105.92 417.78 1105.23 419.565 1103.91 420.874ZM1129.34 369.103C1129 368.97 1128.71 368.593 1128.73 368.205C1128.77 367.451 1129.04 366.819 1129.54 366.265C1129.73 366.065 1129.94 365.987 1130.14 365.976C1130.56 365.588 1131.05 365.289 1131.59 365.056C1131.99 364.901 1132.51 365.167 1132.71 365.511C1132.95 365.932 1132.83 366.364 1132.55 366.708C1132.53 366.752 1132.49 366.786 1132.47 366.819C1132.5 366.919 1132.53 367.03 1132.53 367.141C1132.53 367.706 1132.08 368.094 1131.55 368.127C1131.42 368.139 1131.31 368.172 1131.19 368.194C1130.94 368.438 1130.69 368.682 1130.41 368.904C1130.09 369.17 1129.73 369.27 1129.34 369.103ZM1134.04 401.658C1134.05 402.035 1134.04 402.401 1134.02 402.767C1133.97 403.221 1133.73 403.576 1133.29 403.72C1133.04 403.798 1132.8 403.82 1132.57 403.787C1132.19 404.031 1131.78 404.241 1131.29 404.352C1130.54 404.519 1129.89 403.887 1130.07 403.133C1130.19 402.578 1130.39 402.057 1130.64 401.569C1130.78 400.505 1131.28 399.518 1132.09 398.775C1132.38 398.52 1132.78 398.453 1133.12 398.564C1133.4 398.575 1133.65 398.72 1133.8 399.052C1134.18 399.917 1134.25 400.826 1134.04 401.658Z" fill="#ECECEC"/>
<path d="M1309.54 245.238L1310.59 248.154H1340.84L1342.94 245.859H1346.49V248.154H1357.75L1360.26 246.28L1366.94 246.901V248.576H1380.41L1383.96 245.97L1385.2 243.564L1388.55 243.353V245.438L1396.05 245.648L1398.98 243.353L1404.82 243.142L1409.41 245.238L1432.79 244.395L1444.9 243.774L1451.78 244.196L1456.37 241.479L1460.76 243.774C1460.76 243.774 1492.7 241.268 1493.32 241.268C1493.94 241.268 1506.26 240.016 1506.26 240.016C1506.26 240.016 1520.66 237.099 1521.7 237.099C1522.75 237.099 1529.43 235.636 1529.43 235.636L1531.93 235.846L1540.08 236.467V230.624L1541.12 228.118V225.823L1543.2 224.359H1545.92L1547.17 227.497L1545.08 228.75L1543.41 230.624C1543.41 230.624 1542.57 232.298 1542.16 232.919C1541.74 233.551 1541.95 235.425 1541.95 235.425L1555.72 234.172L1556.97 231.666L1558.86 234.172H1561.15L1563.24 232.919V140.045L1556.56 138.792L1552.8 137.329H1547.79L1543.62 138.792L1539.87 139.413L1537.98 137.329L1532.56 135.033L1528.18 136.076L1527.55 139.834L1526.5 141.708H1523.17L1522.12 138.16L1519.41 138.371L1517.32 140.455L1512.1 139.202H1508.76L1506.68 141.498L1503.13 142.34H1498.74L1496.03 141.919L1493.53 136.497L1488.31 136.286L1485.8 140.245L1482.05 140.455C1482.05 140.455 1481.84 136.076 1481.21 136.076C1480.58 136.076 1472.86 135.976 1472.86 135.976L1471.2 138.16L1468.06 136.076L1461.13 136.475L1456.12 136.94L1451.43 136.153L1448.45 136.785L1443.44 137.096L1439.84 135C1439.84 135 1432.32 135.377 1431.55 135.033C1430.76 134.69 1429.51 137.883 1429.51 137.883L1425.28 138.659L1423.3 136.475H1410.67L1407.44 139.391L1406.71 136.575L1392.93 136.885C1392.93 136.885 1390.01 139.912 1389.7 139.701C1389.38 139.502 1383.17 136.685 1383.17 136.685C1383.17 136.685 1377.07 135.898 1376.6 135.898C1376.14 135.898 1371.12 136.053 1370.65 136.053C1370.18 136.053 1368.93 137.462 1368.93 137.462L1367.05 136.053L1355.47 136.685L1353.27 137.927L1350.15 136.519L1346.39 136.053L1336.37 136.209L1334.34 138.715L1333.7 136.674L1329 136.441L1322.88 138.559L1320.78 137.85L1315.36 138.094L1310.9 139.502L1308.78 138.094H1305.48L1301.02 139.735L1297.96 139.025H1292.56L1288.32 139.502L1285.03 139.967L1282.44 139.269L1278.91 139.502L1276.56 138.792L1273.97 139.269L1271.62 137.85L1266.96 138.792V169.262L1269.47 213.925V246.07L1276.15 248.154L1279.9 245.238L1284.24 244.584H1288.41L1290.24 246.668L1291.49 248.564H1297.6L1300.11 246.036L1302.82 244.783L1309.55 245.227L1309.54 245.238ZM1378.58 152.175C1378.73 152.652 1378.73 153.118 1378.58 154.681C1378.42 156.245 1378.58 154.681 1377.96 156.245C1377.32 157.808 1376.55 156.245 1376.55 156.245L1376.39 155.779C1376.24 155.313 1375.76 154.216 1375.76 154.216L1376.39 152.175C1376.39 152.175 1377.49 151.233 1378.42 151.71C1379.36 152.175 1378.42 151.71 1378.58 152.175ZM1405.82 160.569C1405.67 161.456 1405.82 161.257 1405.82 162.199C1405.82 163.142 1404.45 165.115 1404.57 165.614C1404.52 165.492 1404.47 165.337 1404.41 165.171C1404.26 164.705 1404.1 164.073 1403.87 163.452C1403.65 162.82 1403.94 160.469 1403.94 160.469C1403.94 160.469 1403.78 158.751 1403.94 158.13C1404.1 157.498 1405.03 155.313 1405.03 155.313L1406.13 157.343L1405.82 158.596C1405.51 159.848 1405.98 159.693 1405.82 160.569ZM1418.03 149.304L1417.3 153.063C1417.3 153.063 1416.78 152.331 1415.98 151.577C1415.19 150.823 1415.73 150.557 1415.52 150.146C1415.31 149.725 1416.47 147.119 1416.47 147.119C1416.47 147.119 1417.93 147.53 1418.03 147.851C1418.13 148.162 1418.24 148.372 1418.03 149.304ZM1449.29 158.174C1448.45 159.638 1449.29 158.174 1448.65 159.017C1448.03 159.848 1445.11 159.017 1445.11 159.017V156.3L1449.5 154.216C1449.5 154.216 1450.12 156.722 1449.29 158.174ZM1479.81 223.561C1479.81 223.561 1478.71 225.59 1478.25 226.222C1477.77 226.843 1475.11 229.038 1475.11 229.038V223.561L1478.25 219.957L1479.81 220.9V223.561ZM1512.06 152.02C1512.06 152.486 1511.59 153.118 1511.27 154.216C1510.96 155.313 1509.01 155.779 1509.01 155.779L1507.83 153.428C1507.83 153.428 1509.71 150.457 1510.18 150.302L1512.06 149.359V152.02ZM1524.19 155.779C1524.11 156.167 1522.86 156.722 1521.53 156.954C1521.53 156.954 1520.9 156.245 1519.81 155.313C1518.71 154.371 1519.81 155.313 1519.65 154.681C1519.5 154.06 1521.06 152.564 1521.06 152.564L1522.55 151.865L1524.03 152.253L1524.82 153.04C1524.82 153.04 1524.26 155.391 1524.19 155.779ZM1529.64 229.715C1529.53 230.546 1528.7 231.067 1528.08 231.067C1527.46 231.067 1527.56 230.546 1527.24 230.136C1526.93 229.715 1526.71 229.094 1526.52 227.941C1526.3 226.798 1527.24 226.166 1527.24 226.166C1527.24 226.166 1528.6 225.024 1529.01 225.124C1529.43 225.224 1529.53 225.546 1529.66 226.166C1529.79 226.798 1529.85 227.419 1529.64 228.151C1529.43 228.883 1529.74 228.883 1529.64 229.715ZM1547.9 201.684C1547.69 202.87 1547.8 202.161 1546.96 204.456C1546.13 206.762 1546.13 204.456 1545.4 204.456C1544.67 204.456 1545.3 203.835 1545.03 202.682C1544.77 201.54 1544.78 200.708 1544.67 200.076C1544.57 199.455 1545.4 197.892 1545.4 197.892H1547.07C1547.07 197.892 1548.11 198.513 1547.9 199.766C1547.69 201.019 1548.11 200.497 1547.9 201.684Z" fill="#ECECEC"/>
<path d="M1591.72 373.783C1591.72 373.783 1570.22 344.355 1570.01 343.734C1569.81 343.102 1567.72 336.638 1567.72 336.638L1563.97 328.698L1536.21 284.036L1536 281.951L1518.68 256.271L1498.43 254.818L1495.3 256.692H1487.36L1484.03 254.818L1482.56 257.324L1478.81 256.482L1475.11 257.524L1471.09 258.577L1438.74 260.662L1429.76 262.957L1371.33 264.62L1367.57 266.084L1351.49 266.716L1260.28 269.421L1244.99 269.787V277.094L1246.24 280.432V287.118L1247.9 288.16V292.329C1247.9 292.329 1248.74 294.625 1247.9 295.467C1247.07 296.299 1246.82 297.552 1246.63 298.173C1246.44 298.805 1246.63 301.1 1246.63 301.1V302.974L1248.28 303.817V312.166L1246.63 315.714V319.052L1248.28 322.811V334.076L1246.63 337.203V343.257L1248.28 346.395V351.607L1249.99 393.143V395.438L1252.28 397.323H1255.58L1258.39 394.03L1259.8 393.564V397.323L1258.55 401.237L1260.43 402.8H1265.28L1266.53 399.984L1268.57 402.8H1279.99L1286.72 401.703L1301.29 401.448L1303.12 398.509L1304.53 401.337L1333.13 400.294L1335.84 398.62L1337.3 400.705L1365.47 397.367L1447.08 388.186L1436.24 405.295L1434.56 410.939L1421.41 430.133L1417.86 436.608L1409.3 443.915L1408.47 449.337L1398.87 458.108L1375.28 488.578L1371.33 494.632L1363.6 511.331L1361.09 515.09L1385.52 533.241L1389.69 534.705L1406.81 546.391L1428.51 561.216H1431.22L1458.36 582.916L1461.69 585L1472.55 579.157L1494.67 545.56L1498.22 542.843V537.21L1505.95 526.355C1505.95 526.355 1520.14 500.897 1520.97 499.855C1521.8 498.801 1524.52 493.168 1524.52 493.168V487.746L1527.86 488.157L1535.78 477.312V472.711L1537.67 472.09L1558.96 435.144L1562.92 431.186L1566.47 428.259L1567.93 423.247V412.192L1570.65 409.686L1574.19 405.506L1586.92 386.102L1587.97 383.596L1592.98 378.373L1591.72 373.783ZM1253.14 313.563C1252.93 313.707 1252.82 314.661 1252.2 315.082C1251.57 315.504 1252.29 315.603 1252.2 316.025C1252.1 316.435 1251.04 315.293 1251.04 315.293V313.829L1252.2 311.013L1253.14 312.266C1253.14 312.266 1253.35 313.408 1253.14 313.563ZM1261.89 342.148L1260.39 344.177C1260.06 344.643 1259.35 344.543 1259.14 344.011L1258.4 342.093C1258.3 341.849 1258.35 341.572 1258.53 341.372L1260.15 339.443C1260.51 339.01 1261.2 339.143 1261.38 339.676L1261.99 341.494C1262.06 341.716 1262.03 341.96 1261.89 342.148ZM1302.21 281.297L1301.16 281.718L1300.02 281.086L1299.5 279.057C1299.5 279.057 1300.12 277.959 1300.54 277.959H1300.96L1302.21 278.503L1302.83 280.277L1302.21 281.297ZM1338.24 362.251C1338.24 362.251 1337.2 364.136 1336.89 362.883C1336.56 361.63 1337.41 359.435 1337.41 359.435L1338.33 358.636L1338.8 360.2L1338.24 362.251ZM1355.3 280.277C1354.99 281.031 1353.74 282.494 1352.95 283.282C1352.17 284.058 1351.54 279.988 1351.54 279.988C1351.54 279.988 1353.9 277.172 1354.36 277.172H1355.92C1355.92 277.172 1355.61 279.523 1355.3 280.277ZM1375.94 283.381C1375.78 284.08 1374.84 284.169 1373.51 284.557C1373.51 284.557 1373.12 282.439 1373.12 282.206C1373.12 281.973 1374.76 280.277 1374.76 280.277H1375.86L1376.4 281.718C1376.4 281.718 1376.09 282.683 1375.94 283.381ZM1380.4 273.258C1380.4 273.258 1379.93 274.666 1379.7 274.899C1379.46 275.143 1378.44 275.609 1378.21 275.531C1377.98 275.453 1377.04 274.2 1377.04 274.2V272.715L1378.21 271.694H1379.39L1380.4 272.559V273.258ZM1397.94 278.27C1397.77 278.891 1395.9 280.31 1395.43 280.277C1394.95 280.243 1392.45 281.718 1392.45 281.718L1393.39 278.735L1396.36 276.396H1398.71C1398.71 276.396 1398.09 277.649 1397.94 278.27ZM1443.19 274.09C1442.67 274.544 1442.13 274.644 1442.13 274.644C1442.13 274.644 1441.82 273.968 1441.71 273.058C1441.68 272.792 1441.67 272.681 1441.67 272.648C1441.7 272.692 1441.76 272.914 1441.82 272.726C1441.92 272.382 1441.82 271.694 1441.82 271.362C1441.82 271.029 1443.82 269.876 1443.82 269.876L1444.34 271.85C1444.34 271.85 1443.72 273.635 1443.19 274.09ZM1400.65 466.169C1400.65 466.169 1400.49 467.189 1400.64 467.965C1400.8 468.752 1399.54 469.85 1399.54 469.85C1399.54 469.85 1398.46 471.569 1397.67 472.19C1396.88 472.822 1397.21 472.977 1396.42 474.075C1395.63 475.172 1395.95 474.851 1395.32 475.793C1394.7 476.736 1394.22 476.891 1393.83 477.678C1393.45 478.455 1392.81 478.299 1392.04 479.707C1391.78 480.151 1391.69 480.317 1391.68 480.351C1391.68 480.284 1391.83 479.985 1391.56 480.34C1391.1 480.96 1390.94 481.271 1390.15 482.213C1389.38 483.156 1389.53 483.311 1388.75 485.03L1387.03 486.748V484.087L1388.9 481.271L1390.47 477.834L1394.07 474.23L1396.26 470.937L1396.88 470.005C1397.07 469.728 1397.15 469.606 1397.18 469.573C1397.18 469.595 1397.07 469.817 1397.36 469.529C1397.83 469.063 1398.46 467.499 1398.46 467.499V465.149L1400.64 462.953L1401.59 464.284L1400.65 466.169ZM1417.73 510.909C1417.65 511.298 1417.19 511.619 1416.88 511.93C1416.57 512.24 1416.17 512.395 1415.78 512.395C1415.39 512.395 1415.78 512.395 1415.23 511.298C1414.68 510.211 1414.91 510.211 1414.91 510.211C1414.91 510.211 1416.72 508.304 1417.34 508.093L1417.73 509.579C1417.73 509.579 1417.81 510.521 1417.73 510.909ZM1442.39 547.411C1442.39 547.622 1441.97 548.664 1440.93 549.707C1440.93 549.707 1440.19 548.975 1439.88 548.454C1439.57 547.933 1439.88 546.58 1439.88 546.58L1440.4 545.116L1442.39 546.369V547.411ZM1453.05 527.896L1449.44 531.611V528.207L1450.96 525.579L1453.81 524.182L1453.05 527.896ZM1474.5 314.905L1473.96 316.235C1473.96 316.235 1473.25 316.391 1472.24 316.235C1471.22 316.069 1471.61 315.448 1471.37 315.215C1471.14 314.982 1471.3 313.885 1471.45 313.486C1471.61 313.097 1471.22 312.942 1471.45 312.709C1471.68 312.477 1472.24 311.456 1472.24 311.456H1472.88C1472.88 311.456 1473.96 312.077 1474.19 312.399C1474.42 312.709 1474.5 313.874 1474.5 313.874V314.905ZM1496.75 309.294C1496.65 309.705 1496.75 309.815 1495.4 310.647L1494.67 308.562L1495.4 306.156L1496.78 306.999C1496.78 306.999 1497.08 307.93 1496.75 308.407C1496.44 308.873 1496.87 308.873 1496.75 309.294ZM1504.17 504.811C1504.02 505.51 1503.23 506.607 1503.23 506.607L1501.36 504.412L1502.29 503.004L1502.8 501.44L1504.17 503.004C1504.17 503.004 1504.33 504.101 1504.17 504.811ZM1513.58 298.273L1514.94 296.765L1517.05 296.31C1517.05 296.31 1517.19 297.519 1517.05 298.273C1516.89 299.027 1516.44 299.326 1515.84 300.535C1515.24 301.732 1513.58 300.535 1513.58 300.535V298.273ZM1516.9 490.851C1516.9 491.006 1515.03 492.88 1515.03 492.88C1515.03 492.88 1514.71 492.148 1514.4 491.838C1514.09 491.527 1514.4 490.696 1514.4 490.696L1515.03 488.811L1516.9 489.654V490.851ZM1519.27 346.805L1518.81 348.291C1518.81 348.291 1518.25 349.078 1518.02 349.078C1517.79 349.078 1518.08 349.855 1517.11 349.466C1516.15 349.078 1515.35 348.291 1515.35 348.291C1515.35 348.291 1515.48 346.262 1515.35 345.785C1515.21 345.32 1517.11 344.455 1517.11 344.455C1518.02 344.222 1518.41 344.455 1518.73 344.776C1519.04 345.087 1519.27 345.863 1519.27 345.863V346.805ZM1523.37 287.351L1524.42 290.067C1524.42 290.067 1522.75 291.52 1522.12 290.067C1521.49 288.604 1523.37 287.351 1523.37 287.351ZM1521.99 325.904L1523.2 324.496L1524.42 323.72C1524.42 323.72 1524.75 324.818 1524.42 326.847C1524.42 326.847 1523.65 327.789 1521.99 327.944V325.904ZM1524.31 481.459C1524 482.502 1524.42 482.502 1524.31 483.234C1524.21 483.965 1524.21 484.065 1523.9 484.897C1523.58 485.739 1523.9 484.897 1523.37 485.318C1522.84 485.739 1522.53 485.529 1521.8 485.318C1521.07 485.107 1521.7 484.797 1521.39 484.376C1521.07 483.965 1520.97 482.08 1520.97 482.08L1521.8 479.364L1522.83 478.843C1523.85 478.321 1523.69 479.053 1524.33 479.364C1524.97 479.685 1524.62 480.417 1524.31 481.459ZM1549.72 433.603L1547.37 437.052C1547.37 437.052 1546.27 441.276 1545.65 441.587C1545.02 441.908 1544.87 442.684 1544.4 443.472C1543.93 444.248 1543.93 444.414 1543.15 445.656C1542.36 446.909 1542.36 447.23 1542.36 447.23L1541.43 448.639C1540.49 450.047 1540.02 450.512 1539.87 450.978C1539.7 451.455 1538.61 452.708 1538.61 452.708C1538.61 452.708 1537.98 453.806 1536.73 455.214L1535.78 456.932L1534.54 459.283C1534.54 459.283 1534.28 461.135 1534.18 461.29C1534.07 461.445 1534.22 462.543 1534.22 462.909V465.26C1534.22 465.57 1534.01 466.036 1533.97 466.346C1533.91 466.668 1533.97 466.668 1533.91 467.233C1533.86 467.81 1533.18 468.021 1533.18 468.021L1532.77 469.041C1532.77 469.041 1532.45 469.118 1532.29 469.007C1532.14 468.908 1531.98 469.118 1531.72 469.007C1531.46 468.908 1531.04 468.231 1531.04 468.231L1530.23 466.945L1529.64 466.014C1529.29 465.437 1529.28 464.705 1529.62 464.107L1530.78 462.1L1531.4 459.283L1532.19 457.088L1533.29 455.68L1534.07 453.961L1535.16 452.397C1535.16 452.397 1536.11 451.61 1536.42 451.145C1536.73 450.668 1537.67 449.26 1537.67 449.26L1538.45 448.007L1539.78 447.075L1540.95 445.035C1540.95 445.035 1541.43 444.248 1542.2 442.84L1542.99 441.276L1543.46 439.868C1543.46 439.868 1543.93 438.77 1544.4 437.839C1544.57 437.495 1544.61 437.406 1544.63 437.406C1544.63 437.44 1544.63 437.528 1544.87 437.207C1545.34 436.586 1545.96 435.178 1545.96 435.178L1546.43 433.769L1547.68 431.574L1548 430.011L1549.72 428.758L1550.5 431.264L1549.72 433.603ZM1568.82 385.913C1568.82 386.7 1567.56 386.8 1566.94 387.321C1566.31 387.842 1566.31 388.474 1566.31 388.474C1566.31 388.474 1565.58 390.138 1565.58 390.98C1565.58 391.823 1564.44 391.391 1563.39 391.601C1563.39 391.601 1562.97 391.08 1562.76 390.459C1562.56 389.827 1562.66 389.206 1562.76 388.885C1562.87 388.574 1563.39 387.532 1563.66 387.222C1563.93 386.911 1564.13 385.758 1564.62 385.447C1565.12 385.137 1563.7 384.505 1563.7 384.505C1563.7 384.505 1563.6 382.631 1563.7 382.11C1563.8 381.589 1565.58 380.225 1565.58 380.225H1567.77C1567.77 380.225 1568.3 382.321 1568.3 382.731C1568.3 383.141 1568.61 383.463 1568.82 383.984C1569.03 384.505 1568.82 385.137 1568.82 385.913ZM1577.61 370.002C1577.4 370.623 1577.61 372.086 1577.61 372.086L1575.52 373.55V366.032L1577.61 367.074C1577.61 367.074 1577.82 369.37 1577.61 370.002Z" fill="#ECECEC"/>
</g>
<defs>
<clipPath id="clip0_1214_2486">
<rect width="1360.98" height="450" fill="white" transform="translate(232 135)"/>
</clipPath>
</defs>
</svg>
