<svg width="1825" height="720" viewBox="0 0 1825 720" fill="none" xmlns="http://www.w3.org/2000/svg">
<g clip-path="url(#clip0_932_5075)">
<path d="M59.7083 260.032C59.7083 284.543 61.2792 286.369 73.2661 288.449L80.5687 289.751C82.6491 291.322 82.3943 297.309 80.314 298.879C66.2325 298.356 53.453 298.101 41.1972 298.101C28.9413 298.101 15.6382 298.356 1.55674 298.879C-0.523635 297.309 -0.523635 291.322 1.55674 289.751L8.8593 288.449C20.8604 286.369 22.4171 284.543 22.4171 260.032V164.065C22.4171 139.554 20.8462 137.728 8.8593 135.648L1.55674 134.346C-0.523635 132.775 -0.523635 126.774 1.5709 125.217C15.6524 125.741 28.6866 125.996 41.2113 125.996C53.7361 125.996 66.5014 125.741 80.5828 125.217C82.6632 126.788 82.6632 132.775 80.5828 134.346L73.2803 135.648C61.2792 137.728 59.7224 139.554 59.7224 164.065V260.017L59.7083 260.032Z" fill="#ECECEC"/>
<path d="M1172.15 553.209C1172.15 577.721 1173.72 579.547 1185.7 581.627L1193.01 582.929C1195.09 584.5 1194.83 590.486 1192.75 592.057C1178.67 591.534 1165.89 591.279 1153.63 591.279C1141.38 591.279 1128.08 591.534 1113.99 592.057C1111.91 590.486 1111.91 584.5 1113.99 582.929L1121.3 581.627C1133.3 579.547 1134.85 577.721 1134.85 553.209V457.257C1134.85 432.746 1133.28 430.92 1121.3 428.84L1113.99 427.538C1111.91 425.967 1111.91 419.98 1113.99 418.409C1128.08 418.933 1141.11 419.188 1153.63 419.188C1166.16 419.188 1178.92 418.933 1193.01 418.409C1195.09 419.98 1195.09 425.967 1193.01 427.538L1185.7 428.84C1173.7 430.92 1172.15 432.746 1172.15 457.257V553.209Z" fill="#ECECEC"/>
<path d="M234.333 295.115C234.262 297.195 232.55 298.823 230.469 298.752C216.091 298.313 192.952 298.101 173.379 298.101H138.437C126.436 298.101 113.402 298.356 97.24 298.879C94.8908 297.309 94.3671 291.322 96.4617 289.751L106.368 288.449C118.1 286.878 119.671 284.798 119.671 260.555V163.542C119.671 139.299 118.1 136.95 106.368 135.379L98.8109 134.331C96.2069 132.76 96.2069 126.774 99.3346 125.203C112.892 125.727 125.927 125.982 138.451 125.982C150.976 125.982 164.01 125.727 177.045 125.203C179.125 126.774 179.125 132.76 177.045 134.331L170.266 135.379C158.533 137.204 156.962 139.285 156.962 163.542V254.809C156.962 267.065 158.01 275.415 161.392 279.576C164.789 284.005 169.473 286.1 188.508 286.1C188.508 286.1 215.171 288.93 228.389 243.714C229.068 241.393 231.177 239.794 233.597 239.794H234.375C237.913 239.794 240.588 243.021 239.923 246.488L237.715 258.135C235.96 267.377 234.927 276.745 234.63 286.157L234.347 295.101L234.333 295.115Z" fill="#ECECEC"/>
<path d="M1347.26 530.339C1350.36 530.042 1352.84 532.901 1352.26 535.958L1349.8 548.921C1348.04 558.163 1345.2 569.937 1344.92 579.349L1344.63 588.293C1344.56 590.373 1342.85 592.001 1340.77 591.93C1326.39 591.491 1303.25 591.279 1283.68 591.279H1248.74C1236.74 591.279 1223.7 591.534 1207.54 592.057C1205.19 590.486 1204.67 584.5 1206.76 582.929L1216.67 581.627C1228.4 580.056 1229.97 577.976 1229.97 553.733V456.734C1229.97 432.491 1228.4 430.142 1216.67 428.571L1209.11 427.523C1206.51 425.952 1206.51 419.966 1209.63 418.395C1223.19 418.919 1236.23 419.174 1248.75 419.174C1261.28 419.174 1278.51 418.919 1291.56 418.395C1293.64 419.966 1293.64 425.952 1291.56 427.523L1284.78 428.571C1273.05 430.396 1267.28 432.477 1267.28 456.734V548.001C1267.28 560.257 1268.32 568.607 1271.71 572.768C1275.1 577.197 1279.79 579.292 1298.82 579.292C1298.82 579.292 1326.21 579.688 1339.74 537.048C1340.5 534.656 1342.06 532.547 1344.25 531.33C1345.28 530.75 1346.3 530.438 1347.29 530.354L1347.26 530.339Z" fill="#ECECEC"/>
<path d="M1501.82 530.339C1504.92 530.042 1507.4 532.901 1506.82 535.958L1504.35 548.921C1502.6 558.163 1499.76 569.937 1499.47 579.349L1499.19 588.293C1499.12 590.373 1497.41 592.001 1495.33 591.93C1480.95 591.491 1457.81 591.279 1438.24 591.279H1403.29C1391.29 591.279 1378.26 591.534 1362.1 592.057C1359.75 590.486 1359.22 584.5 1361.32 582.929L1371.22 581.627C1382.96 580.056 1384.53 577.976 1384.53 553.733V456.734C1384.53 432.491 1382.96 430.142 1371.22 428.571L1363.67 427.523C1361.06 425.952 1361.06 419.966 1364.19 418.395C1377.75 418.919 1390.78 419.174 1403.31 419.174C1415.83 419.174 1433.07 418.919 1446.12 418.395C1448.2 419.966 1448.2 425.952 1446.12 427.523L1439.34 428.571C1427.61 430.396 1421.83 432.477 1421.83 456.734V548.001C1421.83 560.257 1422.88 568.607 1426.26 572.768C1429.66 577.197 1434.34 579.292 1453.38 579.292C1453.38 579.292 1480.76 579.688 1494.29 537.048C1495.06 534.656 1496.61 532.547 1498.81 531.33C1499.84 530.75 1500.86 530.438 1501.85 530.354L1501.82 530.339Z" fill="#ECECEC"/>
<path d="M411.491 150.875C412.495 135.888 400.098 137.218 389.484 135.393L383.639 134.346C381.516 132.265 381.516 125.996 384.431 125.217C393.461 125.741 404.867 125.996 417.873 125.996C417.873 125.996 446.079 125.84 456.608 125.43C458.419 125.359 459.863 126.916 459.665 128.713C459.382 131.133 459.24 134.317 459.962 136.638C461.236 140.7 490.814 220.292 494.366 238.421C494.493 239.086 495.385 239.199 495.682 238.591C502.461 224.665 541.606 142.158 546.574 127.326C546.984 126.081 548.145 125.246 549.461 125.274C556.197 125.472 575.034 125.996 577.921 125.982C586.681 125.953 598.894 125.727 608.447 125.203C611.363 126.774 611.363 131.727 609.24 134.331L601.541 135.633C590.658 137.459 585.351 140.587 585.351 154.413C585.351 208.135 585.889 236.284 587.474 269.146C587.997 281.147 592.682 287.402 603.027 288.704L611.518 289.751C613.641 291.832 613.641 297.832 610.98 298.879C598.767 298.356 583.752 298.101 570.746 298.101C558.801 298.101 538.181 298.356 525.444 298.879C522.26 297.577 521.991 291.577 524.652 289.751L538.634 288.704C550.848 287.133 550.848 284.005 550.848 268.098L550.31 200.295L549.744 162.961H549.22C529.577 204.682 503.395 256.748 485.889 300.818C484.559 301.866 482.705 302.644 480.582 302.644C478.19 302.644 476.478 302.12 474.878 301.073C464.533 268.735 439.399 189.426 424.525 155.531H424.001C422.94 172.486 422.671 183.949 422.402 197.507C422.133 214.461 421.199 254.158 421.199 269.811C421.199 282.845 428.162 286.595 438.776 288.152L449.121 289.723C451.244 291.549 450.721 297.549 448.598 298.851C438.776 298.328 419.472 298.073 409.382 298.073C400.89 298.073 390.8 298.328 380.186 298.851C376.733 297.804 376.733 291.025 379.124 289.723L383.908 288.945C397.437 286.595 399.037 285.039 400.622 268.863C400.622 268.863 410.896 159.664 411.491 150.847V150.875Z" fill="#ECECEC"/>
<path d="M689.724 142.639L666.754 223.321L700.861 153.692C702.574 150.196 703.352 146.318 703.112 142.426L702.56 133.185C717.745 123.08 729.59 121.241 734.954 121C737.572 120.887 740.12 122.175 741.379 124.467C741.634 124.92 741.818 125.387 741.917 125.868C742.922 130.708 743.658 135.605 745.073 140.332L780.539 258.829C786.355 278.09 788.846 285.463 799.092 287.402L809.607 289.327C811.263 290.926 811.829 298.639 809.324 300.564C796.035 299.927 781.076 299.601 766.683 299.601C752.291 299.601 742.044 299.927 729.307 300.564C726.265 298.639 725.713 291.902 728.755 289.327L737.615 287.728C743.983 286.44 745.087 284.204 745.087 282.265C745.087 280.015 743.148 272.316 739.823 260.442L732.35 232.831C730.963 227.694 728.755 227.057 719.061 227.057H691.096C688.039 227.057 685.28 228.84 684.02 231.614C678.77 243.247 665.495 273.703 666.245 282.576C666.245 282.576 666.174 290.204 691.719 289.313C693.375 291.563 693.941 298.95 691.167 300.549C681.473 299.913 663.683 299.913 652.05 299.587C642.639 299.587 636.271 300.549 623.534 300.549C620.491 298.625 620.76 291.888 622.699 289.313C622.699 289.313 632.619 292.072 643.021 273.49L666.754 223.292L689.724 142.639ZM694.974 207.612C693.474 213.301 694.309 213.938 698.484 213.938H720.278C724.128 213.938 724.963 213.301 723.618 207.824L719.273 190.742C716.938 181.671 713.924 170.292 712.424 165.863L694.974 207.598V207.612Z" fill="#ECECEC"/>
<path d="M932.307 216.075C949.516 251.017 959.762 272.542 972.273 283.241C976.646 287.572 988.166 289.964 988.166 289.964C989.157 292.766 989.157 295.738 988.166 298.894H934.741C932.802 298.894 931.104 297.648 930.467 295.823C925.684 281.925 901.13 232.237 896.658 226.901C891.704 221.028 889.044 222.755 889.044 222.755C879.916 222.755 879.392 223.278 879.392 228.486V260.555C879.392 284.543 880.963 286.369 892.695 288.449L899.729 289.751C901.554 291.053 901.554 297.309 899.729 298.879C885.902 298.356 870.306 298.101 857.781 298.101C845.257 298.101 833.27 298.356 819.712 298.879C817.632 297.309 817.632 291.053 819.712 289.751L826.746 288.449C838.478 286.369 840.049 284.543 840.049 260.555V168.24C840.049 142.172 839.525 137.487 828.571 135.931L821.538 134.883C818.934 133.581 818.934 128.869 822.061 127.567C841.62 126.265 861.956 125.217 886.723 125.217H918.693C918.693 125.217 959.72 125.217 967.971 161.461C967.971 161.461 977.297 204.611 932.279 216.075H932.307ZM877.793 197.705C877.793 206.069 878.614 206.791 894.79 206.791C904.654 206.791 910.414 204.64 915.622 200.097C920.278 196.035 925.486 188.393 925.486 174.283C925.486 152.772 910.951 138.903 889.567 138.903C878.331 138.903 877.779 139.624 877.779 151.088V197.691L877.793 197.705Z" fill="#ECECEC"/>
<path d="M1045.48 509.677C1062.69 544.619 1072.94 566.145 1085.45 576.844C1089.82 581.174 1101.34 583.566 1101.34 583.566C1102.33 586.368 1102.33 589.34 1101.34 592.496H1047.92C1045.98 592.496 1044.28 591.251 1043.64 589.425C1038.86 575.527 1014.31 525.839 1009.83 520.504C1004.88 514.63 1002.22 516.357 1002.22 516.357C993.091 516.357 992.567 516.881 992.567 522.089V554.158C992.567 578.146 994.138 579.971 1005.87 582.052L1012.9 583.354C1014.73 584.656 1014.73 590.911 1012.9 592.482C999.077 591.958 983.482 591.703 970.957 591.703C958.432 591.703 946.445 591.958 932.887 592.482C930.807 590.911 930.807 584.656 932.887 583.354L939.921 582.052C951.653 579.971 953.224 578.146 953.224 554.158V461.857C953.224 435.788 952.701 431.104 941.747 429.547L934.713 428.5C932.109 427.198 932.109 422.485 935.237 421.183C954.795 419.881 975.132 418.834 999.898 418.834H1031.87C1031.87 418.834 1072.9 418.834 1081.15 455.078C1081.15 455.078 1090.47 498.228 1045.45 509.691L1045.48 509.677ZM990.968 491.322C990.968 499.686 991.789 500.407 1007.97 500.407C1017.83 500.407 1023.59 498.256 1028.8 493.713C1033.45 489.652 1038.66 482.009 1038.66 467.9C1038.66 446.388 1024.13 432.519 1002.74 432.519C991.506 432.519 990.954 433.241 990.954 444.704V491.307L990.968 491.322Z" fill="#ECECEC"/>
<path d="M1151 137.501C1150.49 149.842 1149.73 171.184 1151.47 182.336C1150.42 185.463 1143.39 186.511 1141.56 184.161C1134.53 159.904 1129.72 130.567 1095.54 133.822C1066.6 133.822 1035.56 158.588 1035.56 210.485C1035.56 262.381 1065.55 290.275 1096.84 290.275C1133.17 290.657 1142.99 254.314 1150.04 236.581C1152.12 234.501 1158.39 235.279 1159.95 238.407C1158.12 257.696 1153.69 286.624 1150.04 292.624C1135.96 296.53 1117.45 302.276 1097.11 302.276C1071.55 302.276 1045.48 296.275 1026.97 282.463C1008.19 268.127 993.855 246.474 993.855 214.15C993.855 181.826 1007.41 159.919 1025.4 145.045C1043.91 129.661 1070.52 121.835 1097.63 121.835C1117.28 121.835 1132.94 125.246 1142.95 127.241C1147.8 128.203 1151.23 132.562 1151.02 137.501H1151Z" fill="#ECECEC"/>
<path d="M1239.44 215.438C1228.75 215.438 1228.49 215.693 1228.49 222.995V260.541C1228.49 284.798 1230.06 287.133 1241.79 288.704L1250.14 289.751C1252.22 291.322 1252.22 297.309 1250.14 298.879C1235.28 298.356 1222.24 298.101 1210.5 298.101C1197.99 298.101 1184.94 298.356 1171.65 298.879C1169.57 297.309 1169.57 291.322 1171.65 289.751L1177.91 288.973C1189.91 287.402 1191.21 284.798 1191.21 260.555V163.542C1191.21 139.299 1189.91 136.681 1177.91 135.124L1171.65 134.346C1169.57 132.775 1169.57 126.788 1171.65 125.217C1184.43 125.741 1197.99 125.996 1210.5 125.996C1222.23 125.996 1240.09 125.741 1251.55 125.217C1253.63 126.788 1253.63 132.775 1251.55 134.346L1246.08 135.124C1234.87 136.695 1228.49 139.299 1228.49 163.542V193.785C1228.49 201.342 1228.74 201.611 1239.44 201.611H1296.44C1307.4 201.611 1307.4 201.356 1307.4 193.785V163.542C1307.4 139.299 1306.1 137.204 1294.09 135.379L1287.06 134.331C1284.98 132.76 1284.98 126.774 1287.06 125.203C1301.4 125.727 1314.18 125.982 1326.7 125.982C1339.23 125.982 1351.47 125.727 1363.47 125.203C1365.55 126.774 1365.55 132.76 1363.47 134.331L1358.26 135.11C1346.26 136.935 1344.7 139.285 1344.7 163.527V260.527C1344.7 284.784 1346.27 286.595 1358.26 288.69L1364.52 289.737C1366.6 291.308 1366.6 297.294 1364.52 298.865C1351.48 298.342 1338.7 298.087 1326.7 298.087C1313.67 298.087 1296.67 298.342 1284.16 298.865C1282.08 297.294 1282.08 291.308 1284.16 289.737L1289.89 288.959C1301.89 287.388 1307.4 284.784 1307.4 260.541V222.995C1307.4 215.693 1307.4 215.438 1296.44 215.438H1239.44Z" fill="#ECECEC"/>
<path d="M1439.51 196.205C1439.51 203.508 1439.76 204.031 1446.81 204.031H1474.44C1487.99 204.031 1486.92 197.394 1489.52 184.869L1490.83 178.345C1492.65 176.264 1499.18 176.264 1500.48 178.6C1499.95 186.949 1499.7 201.144 1499.7 211.051C1499.7 220.957 1499.95 238.166 1500.48 246.516C1499.18 248.865 1492.65 249.12 1490.83 246.771L1489.52 240.247C1486.92 227.736 1487.99 217.815 1474.44 217.815H1446.81C1439.78 217.815 1439.51 218.07 1439.51 225.896V256.324C1439.51 268.325 1440.56 276.66 1443.68 281.09C1447.08 285.789 1452.03 287.869 1471.07 287.869C1498.89 287.841 1508.95 275.967 1516.96 248.597C1519.04 245.724 1525.57 246.771 1526.62 249.899C1522.03 273.519 1521.13 291.803 1517.47 298.837C1503.65 298.313 1476.81 298.059 1455.43 298.059H1421.54C1409.03 298.059 1399.25 298.922 1379.7 299.446C1377.62 297.875 1377.62 291.619 1379.7 290.317L1391.96 288.492C1403.69 286.666 1402.25 284.501 1402.25 260.513V163.287C1402.25 139.554 1398.27 137.997 1386.54 135.648L1380.01 134.346C1377.66 132.775 1377.93 126.788 1380.54 125.217C1392.79 125.741 1407.98 125.996 1420.49 125.996H1475.77C1492.45 125.996 1513.34 125.741 1516.72 125.217C1516.98 129.392 1518.8 157.187 1520.12 174.665C1519.07 177.538 1510.67 176.845 1508.06 174.51C1505.19 165.381 1503.55 154.258 1500.15 150.606C1495.2 145.653 1481.77 139.808 1468.99 139.808H1448.13C1439.52 139.808 1439.52 140.332 1439.52 149.984V196.219L1439.51 196.205Z" fill="#ECECEC"/>
<path d="M354.74 490.685C354.74 497.987 354.995 498.511 362.043 498.511H389.668C403.226 498.511 402.15 491.874 404.754 479.349L406.056 472.825C407.882 470.744 414.406 470.744 415.708 473.079C415.184 481.429 414.93 495.624 414.93 505.53C414.93 515.437 415.184 532.646 415.708 540.996C414.406 543.345 407.882 543.6 406.056 541.251L404.754 534.727C402.15 522.216 403.226 512.295 389.668 512.295H362.043C355.009 512.295 354.74 512.55 354.74 520.376V550.803C354.74 562.805 355.787 571.14 358.915 575.57C362.312 580.268 367.265 582.349 386.3 582.349C414.123 582.32 424.185 570.447 432.195 543.076C434.276 540.203 440.8 541.251 441.847 544.378C437.262 567.998 436.356 586.283 432.705 593.317C418.878 592.793 392.045 592.538 370.661 592.538H336.767C324.256 592.538 314.477 593.402 294.933 593.925C292.852 592.354 292.852 586.099 294.933 584.797L307.189 582.971C318.921 581.146 317.477 578.981 317.477 554.993V457.738C317.477 434.005 313.5 432.448 301.768 430.099L295.244 428.797C292.895 427.226 293.164 421.24 295.768 419.669C308.024 420.192 323.209 420.447 335.719 420.447H390.998C407.684 420.447 428.572 420.192 431.955 419.669C432.209 423.844 434.035 451.639 435.351 469.117C434.304 471.99 425.898 471.296 423.294 468.961C420.421 459.833 418.779 448.709 415.382 445.058C410.429 440.105 396.999 434.26 384.219 434.26H363.359C354.754 434.26 354.754 434.783 354.754 444.435V490.671L354.74 490.685Z" fill="#ECECEC"/>
<path d="M539.752 430.241C509.778 431.033 512.453 449.36 512.453 449.36V550.846C512.453 562.847 513.5 571.183 516.628 575.612C520.024 580.311 524.977 582.391 544.012 582.391C571.835 582.363 581.898 570.489 589.908 543.119C591.988 540.246 598.512 541.293 599.56 544.421C594.974 568.041 594.069 586.326 590.417 593.359C576.591 592.836 549.758 592.581 528.374 592.581H494.479C481.969 592.581 472.189 593.444 452.645 593.968C450.565 592.397 450.565 586.142 452.645 584.84L464.901 583.014C476.633 581.188 475.19 579.023 475.19 555.035V457.781C475.19 434.047 471.213 432.491 459.481 430.141L452.957 428.839C450.607 427.269 450.876 421.282 453.48 419.711C465.736 420.235 480.921 420.49 493.432 420.49C493.432 420.49 529.294 419.853 537.658 418.933C538.719 418.82 539.766 419.357 540.219 420.306C541.734 423.433 541.394 426.773 539.766 430.241H539.752Z" fill="#ECECEC"/>
<path d="M1737.54 196.205C1737.54 203.508 1737.8 204.031 1744.84 204.031H1772.47C1786.03 204.031 1784.95 197.394 1787.56 184.869L1788.86 178.345C1790.68 176.264 1797.21 176.264 1798.51 178.6C1797.99 186.949 1797.73 201.144 1797.73 211.051C1797.73 220.957 1797.99 238.166 1798.51 246.516C1797.21 248.865 1790.68 249.12 1788.86 246.771L1787.56 240.247C1784.95 227.736 1786.03 217.815 1772.47 217.815H1744.84C1737.81 217.815 1737.54 218.07 1737.54 225.896V256.324C1737.54 268.325 1738.59 276.66 1741.72 281.09C1745.11 285.789 1750.07 287.869 1769.1 287.869C1796.92 287.841 1806.99 275.967 1815 248.597C1817.08 245.724 1823.6 246.771 1824.65 249.899C1820.06 273.519 1819.16 291.803 1815.51 298.837C1801.68 298.313 1774.85 298.059 1753.46 298.059H1719.57C1707.06 298.059 1697.28 298.922 1677.73 299.446C1675.65 297.875 1675.65 291.619 1677.73 290.317L1689.99 288.492C1701.72 286.666 1700.28 284.501 1700.28 260.513V163.287C1700.28 139.554 1696.3 137.997 1684.57 135.648L1678.05 134.346C1675.7 132.775 1675.96 126.788 1678.57 125.217C1690.82 125.741 1706.01 125.996 1718.52 125.996H1773.8C1790.48 125.996 1811.37 125.741 1814.76 125.217C1815.01 129.392 1816.84 157.187 1818.15 174.665C1817.1 177.538 1808.7 176.845 1806.09 174.51C1803.22 165.381 1801.58 154.258 1798.18 150.606C1793.23 145.653 1779.8 139.808 1767.02 139.808H1746.16C1737.56 139.808 1737.56 140.332 1737.56 149.984V196.219L1737.54 196.205Z" fill="#ECECEC"/>
<path d="M1630.13 271.806C1632.87 264.447 1631.84 256.083 1626.96 249.927C1617.2 237.643 1596.16 228.345 1584.41 222.486C1565.63 213.103 1545.04 202.262 1545.04 176.448C1544.79 146.983 1574.25 121.835 1612.05 121.835C1620.66 121.835 1631.34 122.882 1641.77 126.01C1645.17 127.057 1647.5 127.581 1650.63 128.09C1652.71 133.822 1654.13 158.617 1654.13 176.095C1652.83 179.222 1645.2 179.491 1642.85 176.873C1638.42 163.57 1642.55 133.737 1610.74 133.822C1593.53 133.822 1579.43 145.03 1579.43 158.065C1579.43 170.066 1588.32 181.005 1601.35 187.784L1618.56 196.304C1634.73 204.909 1664.15 212.027 1664.13 249.587C1664.13 281.656 1628.99 302.248 1589.62 302.248C1565.63 302.248 1550.77 295.469 1545.3 292.341C1540.34 286.609 1541.16 255.8 1541.16 238.067C1542.99 234.685 1552.6 234.416 1554.68 237.289C1554.68 237.289 1558.66 283.836 1581.56 288.718C1581.56 288.718 1619.95 298.964 1630.11 271.792L1630.13 271.806Z" fill="#ECECEC"/>
<path d="M120.775 462.635C120.775 437.869 116.048 434.118 104.047 432.802L99.094 432.279C96.49 430.977 96.49 423.419 99.6176 423.15C121.525 421.848 146.065 419.598 173.719 419.598C195.103 419.598 216.487 421.679 234.474 428.203C268.638 440.459 288.012 471.226 288.012 503.818C288.012 538.76 270.718 566.923 240.73 581.783C222.997 590.642 201.613 594.039 174.752 594.039C162.496 594.039 149.462 592.468 140.065 592.468C127.554 592.468 114.251 592.722 99.3912 593.246C97.3108 591.675 97.3108 585.42 99.3912 584.118L107.472 582.816C119.204 580.99 120.775 578.91 120.775 554.922V462.621V462.635ZM162.524 542.864C162.524 556.903 163.02 566.088 167.478 571.452C171.936 576.561 179.111 578.853 188.013 578.853C220.86 578.853 245.414 539.553 245.414 504.837C245.414 466.739 213.671 431.599 177.115 431.599C170.435 431.599 165.737 432.873 164.251 434.911C162.765 436.949 162.524 441.803 162.524 449.714V542.864Z" fill="#ECECEC"/>
<path d="M907.243 576.023C843.841 616.781 784.883 589.17 784.883 589.17C751.668 574.424 728.458 545.426 728.458 507.215C728.458 474.042 744.493 444.846 778.868 427.056C798.342 417.235 821.538 412.989 845.879 412.989C877.665 412.989 893.417 423.575 902.587 423.575C903.451 431.543 901.922 462.154 904.795 478.344C903.649 481.259 895.922 481.528 893.912 478.868C884.741 453.917 878.741 426.037 841.874 425.202C796.332 425.202 774.283 460.229 774.283 502.176C774.283 502.176 772.387 580.764 826.972 586.694C826.972 586.694 861.631 587.698 865.919 564.291V547.563C865.919 533.226 864.206 531.641 850.451 529.773L837.855 528.174C834.699 526.575 834.699 520.475 837.855 518.89C858.192 519.414 872.217 519.683 886.256 519.683C900.295 519.683 914.037 519.414 923.773 518.89C926.066 520.489 926.066 526.589 923.773 528.174L917.193 529.235C908.602 530.566 906.875 533.212 906.875 547.548V562.408L907.243 576.009V576.023Z" fill="#ECECEC"/>
<path d="M1717.61 505.658C1717.61 562.507 1676.77 596.657 1616.61 596.657C1560.37 596.657 1519.53 562.238 1519.53 507.738C1519.53 456.111 1560.94 416.216 1619.41 416.216C1677.89 416.216 1717.61 452.714 1717.61 505.658ZM1617.09 428.217C1581.07 428.217 1561.74 467.164 1561.74 502.615C1561.74 534.797 1574.34 586.51 1622.06 586.51C1661.77 584.91 1675.36 542.553 1675.36 510.003C1675.36 464.885 1653.39 428.217 1617.08 428.217H1617.09Z" fill="#ECECEC"/>
</g>
<defs>
<clipPath id="clip0_932_5075">
<rect width="1824.62" height="477.313" fill="white" transform="translate(0 121)"/>
</clipPath>
</defs>
</svg>
