<svg width="1825" height="720" viewBox="0 0 1825 720" fill="none" xmlns="http://www.w3.org/2000/svg">
<g clip-path="url(#clip0_1215_2604)">
<path d="M70.9773 223.729V496.683H0V223.729H70.9773Z" fill="#ECECEC"/>
<path d="M94.5681 387.129C94.5681 357.137 135.46 351.445 135.46 351.445C97.069 347.357 97.8529 316.133 97.8529 316.133V264.902C97.8529 262.606 97.9648 260.311 98.3381 258.034C104.478 221.789 157.091 223.73 157.091 223.73H255.41V496.684H184.433V370.444C174.653 370.444 167.822 372.18 165.508 375.67C163.213 379.16 162.839 388.212 162.839 402.807V496.684H94.5308V424.699V387.148L94.5681 387.129ZM167.505 273.506C164.407 276.081 162.877 281.494 162.877 289.743V304.058C162.877 315.517 164.482 322.311 167.673 324.382C170.883 326.473 176.464 327.518 184.452 327.518V269.642C176.24 269.642 170.603 270.93 167.505 273.506Z" fill="#ECECEC"/>
<path d="M277.806 387.129C277.806 357.137 318.698 351.444 318.698 351.444C280.307 347.357 281.091 316.133 281.091 316.133V264.901C281.091 262.606 281.203 260.31 281.576 258.033C287.717 221.751 340.348 223.711 340.348 223.711H438.667V496.665H367.69V370.425C357.91 370.425 351.079 372.161 348.765 375.651C346.469 379.141 346.096 388.193 346.096 402.787V496.665H277.788V424.68V387.129H277.806ZM350.743 273.505C347.645 276.081 346.115 281.493 346.115 289.743V304.057C346.115 315.517 347.72 322.31 350.911 324.382C354.121 326.472 359.702 327.517 367.69 327.517V269.642C359.478 269.642 353.841 270.93 350.743 273.505Z" fill="#ECECEC"/>
<path d="M930.47 387.129C930.47 357.137 971.362 351.444 971.362 351.444C932.971 347.357 933.755 316.133 933.755 316.133V264.901C933.755 262.606 933.867 260.31 934.24 258.033C940.38 221.751 993.011 223.711 993.011 223.711H1091.33V496.665H1020.35V370.425C1010.57 370.425 1003.74 372.161 1001.43 375.651C999.133 379.141 998.76 388.193 998.76 402.787V496.665H930.451V424.68V387.129H930.47ZM1003.41 273.505C1000.31 276.081 998.778 281.493 998.778 289.743V304.057C998.778 315.517 1000.38 322.31 1003.57 324.382C1006.78 326.472 1012.37 327.517 1020.35 327.517V269.642C1012.14 269.642 1006.5 270.93 1003.41 273.505Z" fill="#ECECEC"/>
<path d="M584.149 496.683H461.082V442.055H513.172V381.25H468.827V329.328H513.172V279.16H465.804V223.729H584.149V496.683Z" fill="#ECECEC"/>
<path d="M910.22 496.683H787.152V442.055H839.242V381.25H794.898V329.328H839.242V279.16H791.874V223.729H910.22V496.683Z" fill="#ECECEC"/>
<path d="M1824.62 496.683H1701.55V442.055H1753.64V381.25H1709.3V329.328H1753.64V279.16H1706.27V223.729H1824.62V496.683Z" fill="#ECECEC"/>
<path d="M769.31 223.73L733.196 496.684H633.888L598.185 223.73H668.509C677.206 298.925 681.76 386.625 685.492 438.659C689.151 386.065 693.91 315.274 698.034 274.476L702.962 223.711H769.31V223.73Z" fill="#ECECEC"/>
<path d="M1112.87 452.582L1112.2 416.766V398.103H1178.12V432.108C1178.12 442.335 1179.05 448.905 1180.9 451.835C1182.74 454.765 1186.03 456.221 1190.75 456.221C1195.47 456.221 1198.98 454.373 1201.3 450.659C1203.59 446.945 1203.97 441.439 1203.97 434.142C1203.97 418.073 1201.91 407.789 1197.53 402.843C1193.03 397.898 1182.61 389.406 1164.96 377.834C1147.3 366.151 1135.62 357.659 1129.89 352.377C1124.16 347.095 1119.4 339.798 1115.65 330.466C1111.88 321.134 1109.99 309.227 1109.99 294.726C1109.99 273.822 1112.66 258.537 1118 248.869C1123.34 239.202 1131.96 231.643 1143.89 226.193C1155.79 220.743 1170.18 218.019 1187.04 218.019C1205.48 218.019 1221.17 221.005 1234.16 226.958C1247.15 232.912 1255.74 240.415 1259.96 249.467C1264.17 258.518 1266.28 273.878 1266.28 295.584V306.372H1200.36V286.14C1200.36 276.697 1199.52 270.687 1197.84 268.093C1196.16 265.517 1193.35 264.211 1189.41 264.211C1185.13 264.211 1181.9 265.946 1179.72 269.437C1177.54 272.927 1176.44 278.208 1176.44 285.301C1176.44 294.408 1177.67 301.276 1180.13 305.886C1182.48 310.496 1189.16 316.058 1200.19 322.572C1231.79 341.328 1251.69 356.707 1259.9 368.745C1268.11 380.764 1272.2 400.156 1272.2 426.901C1272.2 446.348 1269.92 460.682 1265.37 469.883C1260.81 479.102 1252.02 486.829 1238.98 493.063C1225.93 499.296 1210.76 501.797 1193.46 502.413C1112.91 505.287 1112.87 452.582 1112.87 452.582Z" fill="#ECECEC"/>
<path d="M1362.42 223.729V496.683H1291.44V223.729H1362.42Z" fill="#ECECEC"/>
<path d="M1539.74 365.349C1545.26 374.158 1548.51 387.148 1548.51 404.915V430.223C1548.51 448.663 1546.4 462.324 1542.19 471.208C1537.97 480.092 1531.25 486.158 1522.05 489.424C1512.83 492.69 1493.94 496.702 1465.4 496.702H1383.3V223.73H1488.14C1488.14 223.73 1541.66 220.202 1541.66 267.72V310.926C1541.66 310.926 1540.9 346.61 1501.42 346.61C1501.42 346.61 1529.14 348.383 1539.76 365.33L1539.74 365.349ZM1454.26 269.642V328.414C1457.21 328.302 1459.49 328.246 1461.11 328.246C1467.85 328.246 1472.16 326.584 1474.01 323.262C1475.86 319.94 1476.79 310.441 1476.79 294.782C1476.79 286.514 1476.02 280.71 1474.49 277.387C1472.96 274.065 1470.98 271.975 1468.54 271.098C1466.09 270.221 1461.33 269.735 1454.26 269.623V269.642ZM1454.26 373.617V449.988C1464.27 449.652 1470.65 448.084 1473.39 445.266C1476.15 442.466 1477.52 435.542 1477.52 424.531V399.074C1477.52 387.39 1476.28 380.298 1473.8 377.835C1471.32 375.371 1464.81 373.952 1454.24 373.617H1454.26Z" fill="#ECECEC"/>
<path d="M1639.57 223.729V442.055H1685.11V496.683H1568.59V223.729H1639.57Z" fill="#ECECEC"/>
</g>
<defs>
<clipPath id="clip0_1215_2604">
<rect width="1824.62" height="284.525" fill="white" transform="translate(0 218)"/>
</clipPath>
</defs>
</svg>
