<svg width="1825" height="720" viewBox="0 0 1825 720" fill="none" xmlns="http://www.w3.org/2000/svg">
<g clip-path="url(#clip0_1214_2526)">
<path d="M568.615 271.18L579.818 256.085L627.617 334.57H712.902L622.895 187.522L696.553 78H616.859L569.038 157.778V82.3037H504V334.57H568.615V271.18Z" fill="#ECECEC"/>
<path d="M814.134 83.1729H738.761V334.57H814.134V83.1729Z" fill="#ECECEC"/>
<path d="M1058.36 331.983V78H987.287V175.459L930.869 83.173H864.962V331.983H933.029V215.126L1017.45 331.983H1058.36Z" fill="#ECECEC"/>
<path d="M1245.64 192.589V261.788H1186.51V156.039H1303.46V78H1143.86L1108 120.465V292.19L1162.28 335.206H1319.93V192.589H1245.64Z" fill="#ECECEC"/>
<path d="M691.809 385.006H611.691L574.206 444.94V385.006H506.16V640.282H576.79V576.023L591.868 547.148L642.696 640.282H727.134L631.938 475.554L691.809 385.006Z" fill="#ECECEC"/>
<path d="M859.35 385.006H762.015L715.062 427.28V591.563L766.314 640.282H863.225L911.046 586.815L907.17 432.008L859.35 385.006ZM843.847 571.296H781.816V452.275H843.847V571.296Z" fill="#ECECEC"/>
<path d="M1055.78 479.455L992.899 380.278H941.627V640.283H1010.12V532.054L1083.35 640.283H1121.68V380.278H1055.78V479.455Z" fill="#ECECEC"/>
<path d="M1252.21 482.889V571.296H1213.98L1212.58 452.276H1312.94L1312.08 380.278H1184.14L1141.93 435.888V590.27L1197.06 642L1319.93 638.12L1318.11 482.889H1252.21Z" fill="#ECECEC"/>
</g>
<defs>
<clipPath id="clip0_1214_2526">
<rect width="815.934" height="564" fill="white" transform="translate(504 78)"/>
</clipPath>
</defs>
</svg>
