<svg width="1825" height="720" viewBox="0 0 1825 720" fill="none" xmlns="http://www.w3.org/2000/svg">
<g clip-path="url(#clip0_1238_2480)">
<path d="M683.532 156.059H732.619L720.764 140.684C719.097 138.462 717.985 136.054 717.43 133.46C712.984 113.27 693.349 23.5246 692.145 17.0414C690.756 9.72472 698.999 0 698.999 0H639.261C643.614 3.61204 646.207 8.79856 647.319 12.0401C647.967 13.7072 648.152 15.5596 647.875 17.5045L639.91 67.4248C614.255 59.9228 605.271 70.8516 601.937 79.3723C599.899 84.744 600.177 91.0419 602.77 96.3211C605.827 102.619 610.643 104.008 614.718 103.73C620.645 103.453 625.924 99.3774 628.055 93.8204C631.667 84.3736 624.072 75.9455 624.072 75.9455C631.018 68.6288 637.502 82.8917 637.502 82.8917L627.777 140.406C627.406 142.537 626.48 144.482 624.998 146.056L616.292 156.059H661.304L654.08 144.852C653.061 143.185 652.598 141.147 652.968 139.202L656.951 114.567C671.121 127.255 684.921 118.086 684.921 118.086L687.792 133.923C688.718 137.813 689.089 141.24 689.089 143.463C689.089 145.315 688.626 147.075 687.792 148.649L683.532 156.059ZM663.342 86.4111L668.806 50.0129L679.827 89.6527C679.827 89.6527 670.751 95.1171 663.342 86.4111Z" fill="#ECECEC"/>
<path d="M1431.59 717.406H1479.76L1468.09 703.513C1466.51 701.383 1465.31 698.975 1464.84 696.382C1460.49 676.192 1441.23 586.354 1440.02 579.963C1438.63 572.646 1446.78 564.496 1446.78 564.496H1391.4C1395.66 568.108 1398.16 573.295 1399.27 576.536C1399.92 578.203 1400.1 578.481 1399.83 580.333L1388.9 630.346C1363.71 622.844 1356.39 629.05 1353.24 637.57C1351.2 642.942 1351.48 649.24 1354.07 654.519C1357.04 660.725 1361.76 662.206 1365.74 661.929C1371.58 661.558 1376.77 657.483 1378.8 652.019C1382.32 642.572 1374.91 635.718 1374.91 635.718C1381.77 628.401 1388.06 642.664 1388.06 642.664L1376.95 703.328C1376.67 705.458 1375.75 707.403 1374.26 708.978L1365.74 717.406H1409.83L1402.79 707.681C1401.77 706.014 1401.31 704.069 1401.68 702.124L1405.57 677.395C1419.46 690.177 1432.98 681.008 1432.98 681.008L1435.76 696.752C1436.69 700.735 1436.97 704.162 1436.97 706.384C1437.15 708.237 1436.6 709.996 1435.76 711.571L1431.59 717.406ZM1411.77 646.184L1417.24 612.934L1427.98 649.425C1427.98 649.425 1419.09 654.797 1411.77 646.184Z" fill="#ECECEC"/>
<path d="M360.023 188.752H409.665C409.665 188.752 405.868 192.271 402.904 195.976C400.589 198.847 399.385 202.459 399.477 206.164L400.681 315.173H431.245L444.026 305.356V339.068C444.026 339.068 443.377 344.533 438.839 344.718H362.894L370.118 334.252C370.766 333.326 371.137 332.122 371.137 331.011V204.219C371.137 202.644 370.581 201.163 369.562 200.051L360.023 188.845V188.752Z" fill="#ECECEC"/>
<path d="M1096.14 185.604H1145.78C1145.78 185.604 1141.98 189.123 1139.02 192.828C1136.7 195.699 1135.5 199.311 1135.59 203.015L1136.8 312.025H1167.36L1180.14 302.208V335.92C1180.14 335.92 1179.49 341.384 1174.95 341.57H1098.82L1106.05 331.104C1106.7 330.178 1107.07 328.974 1107.07 327.862V201.07C1107.07 199.496 1106.51 198.014 1105.49 196.903L1095.95 185.696L1096.14 185.604Z" fill="#ECECEC"/>
<path d="M1194.96 374.264H1244.6C1244.6 374.264 1240.8 377.783 1237.84 381.488C1235.53 384.359 1234.32 387.971 1234.41 391.676L1235.62 500.685H1266.18L1278.96 490.868V524.58C1278.96 524.58 1278.31 530.044 1273.78 530.23H1197.65L1204.87 519.764C1205.52 518.838 1205.89 517.634 1205.89 516.522V389.731C1205.89 388.156 1205.33 386.674 1204.31 385.563L1194.77 374.356L1194.96 374.264Z" fill="#ECECEC"/>
<path d="M1289.34 374.264H1338.98C1338.98 374.264 1335.18 377.783 1332.22 381.488C1329.9 384.359 1328.7 387.971 1328.79 391.676L1329.99 500.685H1357.41L1370.19 490.868V524.58C1370.19 524.58 1369.54 530.044 1365 530.23H1292.02L1299.25 519.764C1299.89 518.838 1300.26 517.634 1300.26 516.522V389.731C1300.26 388.156 1299.71 386.674 1298.69 385.563L1289.15 374.356L1289.34 374.264Z" fill="#ECECEC"/>
<path d="M741.417 375.838H789.485C789.485 375.838 785.317 379.635 782.354 383.618C780.316 386.211 779.297 389.453 779.297 392.694L780.501 500.685H806.341L819.122 490.867V524.58C819.122 524.58 818.474 530.044 813.936 530.229H744.103L751.327 519.764C751.975 518.838 752.346 517.634 752.346 516.522V392.324C752.346 389.638 751.327 387.137 749.567 385.1L741.232 375.838H741.417Z" fill="#ECECEC"/>
<path d="M761.144 566.997L805.878 566.627C805.878 566.627 797.82 577 797.82 580.427V705.274C797.82 706.57 798.283 707.867 799.117 708.886L805.6 717.036H762.07C762.07 717.036 768.554 710.831 768.739 702.125C768.924 693.419 768.739 579.871 768.739 579.871C768.739 579.871 769.109 575.24 761.144 566.905V566.997Z" fill="#ECECEC"/>
<path d="M813.102 269.977C818.381 266.643 819.678 271.829 819.678 271.829L850.89 356.018H889.974C882.75 355.369 877.656 340.551 877.656 340.551L844.129 251.639C860.892 248.768 861.448 236.08 861.448 236.08C862.837 232.282 861.633 197.644 861.633 197.644C860.337 183.473 846.074 185.418 846.074 185.418H766.424C772.629 190.697 773.092 200.237 773.092 200.237C773.092 200.237 775.037 318.138 772.629 325.547C770.313 333.049 761.052 341.477 761.052 341.477H806.897L799.025 326.288L799.302 300.17C811.713 303.875 816.622 297.114 816.622 297.114C827.272 284.888 813.102 274.608 813.102 274.608C809.675 272.385 813.102 269.977 813.102 269.977ZM799.765 267.384V215.797H819.215C827.458 215.426 828.291 225.058 828.291 225.058C832.181 246.267 817.27 255.529 817.27 255.529C814.399 257.474 799.765 267.384 799.765 267.384Z" fill="#ECECEC"/>
<path d="M737.62 578.945C739.009 585.984 741.232 597.098 743.825 614.602C743.825 614.602 753.272 680.545 749.012 694.067C749.012 694.067 745.214 711.016 729.099 717.962C725.765 719.444 722.06 719.999 718.355 719.999H643.336L648.986 711.294C649.541 710.367 649.912 709.349 649.912 708.33L651.301 583.298C651.301 576.444 648.43 569.868 643.336 565.33H675.659C676.493 565.33 677.234 566.071 677.234 566.905V688.139C677.234 689.807 678.53 691.103 680.198 691.103H708.353C711.872 691.103 715.392 690.084 717.985 687.676C720.949 684.99 722.801 677.211 722.338 669.153C722.338 669.153 720.856 616.084 714.466 600.246C713.262 597.283 710.113 595.708 707.056 596.634C702.889 597.838 697.146 601.265 696.683 610.527C696.683 610.527 707.519 614.046 710.39 622.845C712.243 628.402 710.02 634.792 705.019 637.756C701.407 639.979 694.183 641.183 689.922 634.329C689.922 634.329 682.976 615.065 689.459 594.134C689.459 594.134 698.813 560.884 721.968 566.719C721.968 566.719 735.582 569.22 737.62 579.13V578.945Z" fill="#ECECEC"/>
<path d="M983.053 577.185C984.443 584.224 986.665 595.338 989.259 612.842C989.259 612.842 998.705 678.785 994.445 692.307C994.445 692.307 990.648 709.256 974.533 716.202C971.198 717.684 967.494 718.24 963.789 718.24H888.77L894.419 709.534C894.975 708.608 895.346 707.589 895.346 706.57L896.735 581.538C896.735 574.684 893.864 568.109 888.77 563.57H921.093C921.926 563.57 922.667 564.311 922.667 565.145V686.38C922.667 688.047 923.964 689.343 925.631 689.343H953.786C957.306 689.343 960.825 688.325 963.419 685.917C966.382 683.231 968.235 675.451 967.772 667.393C967.772 667.393 966.29 613.768 959.714 598.209C958.51 595.43 955.639 593.949 952.675 594.782C948.507 595.893 942.487 599.228 942.024 608.767C942.024 608.767 952.86 612.287 955.731 621.085C957.584 626.642 955.361 633.033 950.36 635.996C946.748 638.219 939.524 639.423 935.263 632.57C935.263 632.57 928.317 613.305 934.8 592.374C934.8 592.374 944.154 559.125 967.309 564.96C967.309 564.96 980.923 567.46 982.961 577.37L983.053 577.185Z" fill="#ECECEC"/>
<path d="M648.06 530.6H673.437C674.641 530.6 675.659 529.581 675.659 528.377L675.474 388.248C675.474 387.044 675.845 385.933 676.493 384.914L683.069 375.189H637.594C637.594 375.189 644.911 382.506 644.54 389.267V445.763L615.181 375.189H576.097L583.599 389.36L582.858 516.429C582.858 517.541 582.58 518.652 582.117 519.671L576.375 530.97H619.071L612.588 516.337C612.124 515.318 611.847 514.114 611.847 513.003V438.076L648.06 530.6Z" fill="#ECECEC"/>
<path d="M1317.86 718.426H1343.24C1344.44 718.426 1345.46 717.407 1345.46 716.203L1345.28 576.075C1345.28 574.871 1345.65 573.759 1346.29 572.74L1352.87 563.016H1307.4C1307.4 563.016 1314.71 570.332 1314.34 577.093V633.589L1284.98 563.016H1245.9L1253.4 577.186L1252.66 704.256C1252.66 705.367 1252.38 706.478 1251.92 707.497L1246.18 718.796H1288.87L1282.39 704.163C1281.93 703.144 1281.65 701.94 1281.65 700.829V625.902L1317.86 718.426Z" fill="#ECECEC"/>
<path d="M594.991 12.4105C594.991 11.2065 595.361 10.0025 596.009 9.07634L602.863 1.11133H555.629C555.629 1.11133 568.039 16.1152 567.669 22.8762V79.3722L534.142 1.11133H494.965L503.486 14.5407L503.671 15.189L501.911 142.814L501.541 144.482L496.91 154.947H538.124L531.548 142.537L530.53 138.739L530.807 77.8903L562.297 154.855H602.956L596.009 143.648C595.268 142.444 594.898 141.055 594.898 139.665L595.083 12.4105H594.991Z" fill="#ECECEC"/>
<path d="M1227.84 575.332C1227.84 574.128 1228.21 572.924 1228.86 571.998L1235.71 564.033H1188.48C1188.48 564.033 1197.74 579.037 1197.37 585.798V642.294L1166.99 564.033H1127.81L1136.33 577.463L1136.52 578.111L1134.76 705.736L1134.39 707.403L1129.76 717.869H1170.97L1164.4 705.458L1163.38 701.661L1163.66 640.812L1195.14 717.776H1235.8L1228.86 706.57C1228.12 705.366 1227.75 703.977 1227.75 702.587L1227.93 575.332H1227.84Z" fill="#ECECEC"/>
<path d="M894.234 529.582H939.431L928.224 511.058C928.224 511.058 927.761 510.225 927.669 509.762L901.643 388.99C901.643 388.99 902.477 380.006 906.459 374.912H851.631L859.503 387.137C860.059 387.971 860.244 388.99 860.059 389.916L850.89 442.707C830.884 424.647 815.51 437.058 815.51 437.058C804.396 444.652 808.008 458.267 811.898 463.176C813.936 465.861 817.177 467.436 820.511 467.806C836.997 469.566 839.776 450.858 839.776 450.858C845.147 452.432 848.204 459.471 848.204 459.471L839.776 517.264L828.754 529.582H870.895L865.523 521.431C864.875 520.505 864.689 519.301 864.782 518.282L868.672 492.905C876.452 508.28 896.92 498.092 896.92 498.092C899.421 501.334 900.069 512.54 900.161 516.615C900.254 517.541 899.976 518.468 899.606 519.301L894.234 529.582ZM875.155 462.064L882.379 421.961L890.529 465.676C886.639 470.77 875.155 462.064 875.155 462.064Z" fill="#ECECEC"/>
<path d="M1045.48 311.746C1049.18 311.746 1052.52 309.338 1053.53 305.819C1058.17 289.611 1054.28 245.34 1054.28 245.34C1053.44 222.927 1043.53 219.407 1043.53 219.407C1031.95 218.666 1031.4 239.968 1031.4 239.968C1053.35 240.802 1043.53 260.529 1043.53 260.529C1038.35 270.532 1031.58 270.717 1026.21 268.309C1019.36 265.345 1015.1 258.214 1015.1 250.712C1015.1 229.04 1031.12 201.347 1031.12 201.347C1040.75 185.51 1052.52 187.455 1060.3 188.659C1068.91 189.955 1075.67 198.383 1077.99 206.812C1086.51 237.282 1084.19 311.746 1084.19 311.746C1084.19 347.311 1058.54 345.551 1058.54 345.551H1006.02C985.183 345.273 980.738 320.267 980.738 320.267C974.162 299.984 988.981 212.739 988.981 212.739C994.075 183.287 1021.58 188.103 1021.58 188.103L1020.29 217.555C1020.29 217.555 1009.91 215.888 1009.45 226.261C1009.45 226.261 1002.32 288.314 1004.82 306.93C1005.19 309.894 1007.87 311.931 1010.84 311.931H1045.29L1045.48 311.746Z" fill="#ECECEC"/>
<path d="M1079.28 686.009C1082.99 686.009 1086.32 683.601 1087.34 680.082C1091.97 663.874 1086.51 619.604 1086.51 619.604C1085.67 597.19 1077.34 595.245 1077.34 595.245C1065.76 594.504 1063.63 614.232 1063.63 614.232C1085.58 615.065 1075.76 634.793 1075.76 634.793C1070.58 644.795 1063.81 644.98 1058.44 642.572C1051.59 639.609 1047.33 632.477 1047.33 624.975C1047.33 603.303 1063.35 575.611 1063.35 575.611C1072.98 559.773 1084.75 561.718 1092.53 562.922C1101.14 564.219 1107.9 572.647 1110.22 581.075C1118.74 611.546 1119.57 689.158 1119.57 689.158C1119.57 718.888 1098.64 716.665 1098.64 716.665H1038.25C1016.4 716.665 1012.97 700.736 1012.97 700.736C1006.39 680.453 1020.01 590.892 1020.01 590.892C1025.01 566.997 1053.81 562.367 1053.81 562.367L1052.52 591.819C1052.52 591.819 1042.14 590.151 1041.68 600.524C1041.68 600.524 1037.7 662.578 1040.2 681.193C1040.57 684.157 1043.25 686.195 1046.22 686.195H1079.1L1079.28 686.009Z" fill="#ECECEC"/>
<path d="M528.492 497.35C532.197 497.35 535.531 494.941 536.55 491.422C541.18 475.214 537.29 430.944 537.29 430.944C536.457 408.53 526.547 405.011 526.547 405.011C514.97 404.27 514.414 425.572 514.414 425.572C536.364 426.405 526.547 446.133 526.547 446.133C521.36 456.135 514.599 456.32 509.228 453.912C502.374 450.949 498.114 443.817 498.114 436.315C498.114 414.643 514.136 386.951 514.136 386.951C523.768 371.113 535.531 373.058 543.311 374.262C551.924 375.559 558.685 383.987 561 392.415C569.521 422.886 567.206 497.35 567.206 497.35C567.206 532.914 541.551 531.154 541.551 531.154H489.037C468.199 530.877 463.753 505.87 463.753 505.87C457.177 485.587 471.996 398.343 471.996 398.343C477.09 368.891 504.597 373.707 504.597 373.707L503.3 403.159C503.3 403.159 492.927 401.492 492.464 411.865C492.464 411.865 485.333 473.918 487.833 492.533C488.204 495.497 490.89 497.535 493.853 497.535H528.307L528.492 497.35Z" fill="#ECECEC"/>
<path d="M1258.77 341.568H1300.91L1293.87 327.954C1293.5 327.028 1293.04 326.009 1292.86 324.99L1264.33 200.977C1263.96 199.31 1264.14 197.457 1264.98 196.068L1270.44 185.51H1213.48C1216.54 189.122 1219.13 193.475 1220.52 196.161C1221.36 197.643 1221.54 199.31 1221.36 200.977L1211.91 257.195C1190.98 241.543 1178.38 257.936 1178.38 257.936C1174.03 263.215 1172.73 269.513 1173.1 273.125C1174.86 287.666 1197.37 288.962 1201.54 274.792C1203.11 269.513 1202.37 262.752 1202.37 262.752C1204.41 258.584 1210.52 268.587 1210.52 268.587L1200.24 324.434C1200.05 326.009 1199.31 327.583 1198.11 328.787L1188.11 341.383H1232.28L1228.58 330.64C1227.75 328.602 1227.38 326.379 1227.84 324.249L1231.64 301.002C1242.29 313.506 1260.44 302.021 1260.44 302.021L1265.16 325.824C1265.53 327.769 1265.26 329.806 1264.24 331.658L1258.77 341.568ZM1237.01 268.401L1244.05 229.225L1252.2 268.401C1252.2 268.401 1245.25 278.219 1237.01 268.401Z" fill="#ECECEC"/>
<path d="M439.951 109.658C440.043 117.993 434.764 125.866 426.706 127.903C419.482 129.756 414.018 126.884 410.128 123.365C405.682 119.29 403.83 113.085 404.664 107.157L418.093 14.6333C418.464 12.1327 419.204 9.63204 420.316 7.40924L423.465 1.11133H374.378C343.444 1.11133 344 32.3231 344 32.3231C344 58.163 369.562 46.9565 369.562 46.9565C386.603 34.3606 365.394 19.0789 365.394 19.0789C363.357 11.4844 370.21 9.44681 370.21 9.44681C381.232 6.02 388.826 19.0789 388.826 19.0789L375.026 110.954C374.286 116.882 373.822 121.791 373.637 125.866C373.081 136.517 378.453 146.89 387.715 152.076C418.186 169.117 441.71 142.722 441.71 142.722L444.026 155.873H479.313L471.718 146.149V1.11133H437.172L441.432 8.89111L439.765 109.658H439.951Z" fill="#ECECEC"/>
<path d="M530.344 298.225V194.68L526.362 188.289H559.981V333.512L567.576 343.236H532.289L529.974 330.085C529.974 330.085 506.356 356.48 475.978 339.439C466.717 334.253 461.345 323.879 461.901 313.229C462.086 309.246 462.549 304.337 463.29 298.317L477.09 206.442C477.09 206.442 472.644 193.29 461.623 196.81C461.623 196.81 454.677 198.847 456.807 206.442C456.807 206.442 478.016 221.724 460.974 234.319C460.974 234.319 435.412 245.526 435.412 219.593C435.412 219.593 434.857 188.382 465.79 188.474H510.154L507.005 194.772C505.893 197.088 505.152 199.496 504.782 201.996L491.445 294.52C490.612 300.448 492.464 306.653 496.91 310.728C500.707 314.247 507.838 317.118 515.062 315.266C515.062 315.266 528.677 312.858 530.529 298.41L530.344 298.225Z" fill="#ECECEC"/>
<path d="M636.853 240.709L666.675 188.381H606.104C606.104 188.381 584.617 191.993 584.617 213.017L579.523 322.675C579.523 322.675 580.542 342.68 596.472 342.68H662.6V306.837L652.876 312.95L605.734 313.506L609.346 227.465C609.346 227.465 617.589 210.516 638.057 215.888C638.057 215.888 623.979 232.003 622.405 250.434C621.757 258.491 625.554 266.642 632.5 270.809C636.39 273.125 641.299 274.607 646.948 272.754C653.339 270.717 658.155 265.067 659.729 258.584C661.674 250.712 658.618 234.967 636.946 240.802L636.853 240.709Z" fill="#ECECEC"/>
<path d="M425.502 428.257L449.027 379.078H394.754C394.754 379.078 373.267 382.69 373.267 403.714L368.173 513.372C368.173 513.372 369.192 533.377 385.122 533.377H448.101V497.535L438.376 503.647L394.383 504.203L397.995 418.162C397.995 418.162 406.238 398.065 426.706 403.436C426.706 403.436 412.629 419.552 411.054 437.982C410.406 446.04 414.203 454.19 421.149 458.358C425.039 460.673 429.948 462.155 435.598 460.303C441.988 458.265 446.804 452.616 448.379 446.132C450.324 438.26 447.267 422.515 425.595 428.35L425.502 428.257Z" fill="#ECECEC"/>
<path d="M753.92 185.326H675.104L683.069 196.996V327.029L675.104 342.589H753.92V306.654L741.417 313.229H709.928L709.279 275.812H726.321L736.138 282.388L736.786 241.544L728.266 250.158H708.631V215.797H741.417L753.92 224.596V185.326Z" fill="#ECECEC"/>
<path d="M1177.08 373.615H1092.99L1101.42 385.378V515.318L1092.99 530.878H1177.08V494.943L1163.75 501.519H1130.13L1129.39 459.378H1147.63L1158.1 465.954L1158.84 425.203L1149.67 433.816H1128.65V404.086H1163.75L1177.08 412.977V373.615Z" fill="#ECECEC"/>
<path d="M1461.97 373.615H1377.88L1386.31 385.378V515.318L1377.88 530.878H1461.97V494.943L1448.73 501.519H1415.02L1414.37 459.378H1432.52L1443.08 465.954L1443.73 425.203L1434.65 433.816H1413.63V404.086H1448.73L1461.97 412.977V373.615Z" fill="#ECECEC"/>
<path d="M875.155 185.326L970.18 185.604V224.04L956.38 215.797H935.634V331.753L941.469 341.57H903.403L908.219 330.827L908.682 215.797H886.64L875.155 223.577V185.326Z" fill="#ECECEC"/>
<path d="M1073.17 374.912H995.557L1004.63 387.045C1006.3 389.268 1007.23 392.046 1007.23 394.825L1006.86 513.744C1006.86 516.615 1005.74 519.394 1003.71 521.431L995.557 529.582H1040.11L1034.09 521.617C1032.7 519.672 1031.86 517.264 1031.86 514.856V482.162C1034.55 484.848 1037.23 486.608 1039.92 487.626C1053.72 493.276 1067.24 478.365 1058.35 466.417C1056.22 463.639 1053.16 461.601 1049.27 460.86C1046.31 460.304 1044.09 460.397 1044.09 460.397L1070.02 446.782C1079 442.059 1084.56 432.797 1084.56 422.61V392.324C1084.56 375.19 1073.17 374.912 1073.17 374.912ZM1059.83 427.426C1059.83 430.852 1058.35 434.094 1055.76 436.317L1031.86 456.044V408.347C1031.86 404.364 1035.1 401.123 1039.09 401.123H1050.76C1055.85 401.123 1059.83 405.198 1059.83 410.292V427.426Z" fill="#ECECEC"/>
</g>
<defs>
<clipPath id="clip0_1238_2480">
<rect width="1135.76" height="720" fill="white" transform="translate(344)"/>
</clipPath>
</defs>
</svg>
