<svg width="1825" height="720" viewBox="0 0 1825 720" fill="none" xmlns="http://www.w3.org/2000/svg">
<g clip-path="url(#clip0_648_2484)">
<path d="M799.777 368.002L833.221 373.658L866.098 378.106L883.917 379.152V384.012H889.249L890.201 375.055L892.489 361.333L897.639 315.976L900.123 308.504L901.763 287.769L911.678 288.154V290.948L923.49 291.583L924.253 286.372L934.803 287.263L935.052 296.915L933.912 300.222V307.336L934.29 309.874L934.674 315.341L941.404 324.615L980.443 372.861L1004.26 402.404L1010.46 410.409L1004.26 412.887L1001.88 413.076L995.495 417.652L984.156 403.64L982.947 404.45L1000.29 427.965L999.342 430.193L988.921 438.042L987.112 438.42L966.438 411.172V409.93L925.839 356.568L920.696 391.065H924.32L925.839 392.969V416.032L859.328 409.552L922.856 490.163L919.933 494.354L917.395 494.86L915.235 492.194L891.605 464.399L889.85 465.641L910.787 491.816L907.102 495.502L905.833 495.117L899.921 500.26L903.16 504.836L900.879 506.935L899.165 508.076L897.194 510.742L885.76 497.783L884.248 494.496L812.594 406.515L785.576 403.64L785.771 398.685L788.053 395.257V376.958H781.195V373.847L782.086 372.51L781.701 366.159L799.777 368.002Z" fill="#ECECEC"/>
<path d="M1029.71 171.899L1021.33 193.241L1015.99 222.21L1054.49 267.19L1066.3 269.093L1078.89 262.236L1085.37 260.332L1098.7 249.276L1101.18 250.228L1091.46 260.325L1085.93 264.139C1085.93 264.139 1075.84 271.759 1075.26 271.759C1074.69 271.759 1068.97 273.474 1068.97 273.474H1056.59L1053.72 279.575L1060.2 281.863H1075.64L1082.69 279.002L1089.55 273.285L1094.89 267.946L1108.23 255.175L1119.28 246.03L1121.76 244.693L1120.23 240.502L1114.13 237.073C1114.13 237.073 1088.98 223.54 1088.79 222.973C1088.6 222.406 1084.6 218.019 1084.6 218.019L1058.49 204.486L1056.77 198.384L1057.15 169.226H1053.72L1029.71 171.892V171.899Z" fill="#ECECEC"/>
<path d="M946.743 311.528H959.958L967.329 313.31L1021.7 318.392L1038.98 320.424L1040.51 324.487L1035.43 325.756L1022.72 330.332L1019.42 332.87L1008.75 335.158L986.133 342.016L979.397 344.047C979.397 344.047 974.315 345.829 973.937 345.829C973.559 345.829 971.905 345.958 971.52 345.829C971.136 345.701 967.707 341.51 967.707 341.51L972.405 340.619L1005.94 328.706L1013.82 325.628L1003.28 324.737L997.689 322.955L982.569 321.301L977.993 320.795L966.431 319.776L963.002 318.635L957.92 317.366L947.249 316.988L946.743 311.528Z" fill="#ECECEC"/>
<path d="M785.515 17.9134L784.752 31.5071L794.026 52.0867C794.026 52.0867 804.954 56.6629 806.223 57.1691C807.492 57.6753 819.945 57.1691 819.945 57.1691L823.245 59.707L811.555 68.6029L830.359 86.3881L848.657 73.9351L865.936 57.6753V54.3748L859.835 48.7861L853.99 43.1974L846.369 42.941L838.493 46.7545L830.11 54.125L826.296 49.2991L828.584 47.2674L831.378 33.289L830.359 14.2282L827.308 10.6711C827.308 10.6711 823.495 8.88922 821.463 7.87678C819.432 6.86434 805.21 0 805.21 0L797.077 6.10164L792.757 11.4406L785.515 17.9202V17.9134Z" fill="#ECECEC"/>
<path d="M841.287 105.962L849.164 100.623L865.936 89.6956L872.544 86.395L881.44 97.5724L885.503 96.1752L890.08 104.18L878.646 111.551L884.235 119.934C884.235 119.934 895.925 112.313 896.688 112.313C897.45 112.313 899.988 116.377 899.988 116.377L885.247 128.83L889.31 135.944L907.608 125.779L916.504 137.975L875.089 161.862L861.873 146.615L847.388 124.125L841.287 105.955V105.962Z" fill="#ECECEC"/>
<path d="M878.896 172.79L901.257 160.593L924.125 150.934L933.277 148.14L935.558 150.172L940.135 158.049L936.578 162.368L931.623 164.656L920.19 166.688L896.175 176.981L893.38 179.776L882.709 183.461L881.312 182.698L878.896 172.79Z" fill="#ECECEC"/>
<path d="M880.678 271.125C880.678 271.125 891.099 262.991 891.855 262.485C892.611 261.979 913.454 251.051 914.216 250.289C914.979 249.526 919.805 246.475 919.805 246.475L923.868 249.269V251.558L907.858 260.703L895.817 267.561L885.24 277.22L880.664 271.118L880.678 271.125Z" fill="#ECECEC"/>
<path d="M801.903 334.909L815.625 321.443L819.182 319.661C819.182 319.661 846.626 295.774 847.638 295.012C848.651 294.249 852.214 290.692 852.214 290.692H855.771L859.072 296.794L850.939 304.927L841.28 310.266L823.745 324.494L818.156 327.288L806.466 340.247L801.889 334.909H801.903Z" fill="#ECECEC"/>
<path d="M794.789 228.946L790.469 241.143L800.634 253.596L804.191 247.433L816.644 235.804L830.487 225.895V221.576L825.284 214.205L819.688 220.05L809.017 227.927L799.109 235.554L794.789 228.946Z" fill="#ECECEC"/>
<path d="M753.117 166.756C753.117 166.756 777.004 170.245 790.469 160.593L801.903 173.296L821.915 204.459L797.583 225.383C797.583 225.383 795.045 207.341 793.77 205.309L795.423 203.149L794.917 201.624C794.917 201.624 766.333 206.835 759.725 212.167L760.103 217.249C760.103 217.249 775.6 209.751 776.747 209.879C777.895 210.007 786.149 211.91 787.04 215.852C787.931 219.794 788.566 229.952 786.406 235.291C786.406 235.291 786.912 242.533 783.355 245.584C779.798 248.635 768.87 255.364 766.582 253.589C766.582 253.589 745.935 248.318 739.645 231.356L737.741 229.068L733.55 228.69C733.55 228.69 730.499 228.312 729.736 227.738C728.973 227.165 728.4 226.213 726.496 226.024C724.593 225.835 721.731 225.646 721.731 225.646L717.155 221.265V223.743L721.535 231.559L728.015 238.612L728.778 241.852H731.64L735.257 239.564L738.308 239.375L742.311 246.489L744.977 248.142L744.403 250.046L740.023 251.949C740.023 251.949 733.354 253.933 732.018 253.893C730.681 253.852 724.397 255.567 724.397 255.567L719.821 254.615C717.918 253.663 712.005 252.712 712.005 252.712L699.808 248.136L697.331 246.482L702.097 233.901L708.002 218.019L712.768 208.077L712.39 204.675L713.341 199.721L736.783 198.195L751.456 210.966C751.456 210.966 754.318 210.014 755.074 209.44C755.83 208.866 759.137 205.438 759.137 205.438L790.456 195.144V192.856L787.088 192.283L759.137 180.66L753.103 166.749L753.117 166.756Z" fill="#ECECEC"/>
<path d="M819.945 102.148L802.922 105.449L791.995 106.468L781.067 115.364C781.067 115.364 773.953 114.095 772.427 113.582C770.902 113.069 766.076 112.82 763.788 112.057C761.5 111.294 761.311 110.025 759.63 109.769C757.95 109.512 755.655 108.243 754.899 108.75C754.143 109.256 750.073 111.8 748.797 112.307C747.521 112.813 745.24 114.844 743.715 115.357C742.189 115.87 739.651 117.646 739.651 117.646L741.433 120.183C741.433 120.183 745.247 124.503 746.009 126.285C746.772 128.067 759.637 145.852 759.637 145.852L770.146 151.191C770.146 151.191 779.548 155.254 779.805 155.511C780.061 155.767 783.618 154.748 784.887 155.511C786.156 156.273 793.27 158.562 793.27 158.562C793.27 158.562 798.609 157.036 800.384 156.273C802.159 155.511 808.005 149.159 809.024 145.346C810.043 141.532 811.818 139.757 812.075 138.232C812.331 136.706 812.581 134.675 812.837 132.643C813.094 130.612 813.094 128.58 813.094 126.541C813.094 124.503 813.6 122.222 813.094 121.203C812.588 120.183 808.268 117.139 808.268 117.139L804.711 116.633L784.131 126.541L775.748 119.427L777.112 118.725L782.255 121.108L790.543 117.295L795.498 113.677L807.694 111.679L819.951 106.725V102.148H819.945Z" fill="#ECECEC"/>
<path d="M726.692 294.762L737.363 281.802L747.785 273.419L753.373 271.388L757.187 268.337L767.095 279.265L764.301 283.078L760.744 283.335L755.405 288.673L750.579 290.705L748.041 292.993L746.9 297.569L743.978 299.601C743.978 299.601 734.069 301.633 726.699 294.775L726.692 294.762Z" fill="#ECECEC"/>
<path d="M753.623 311.022V306.958C753.623 306.958 751.335 307.215 750.066 306.958C748.797 306.702 745.24 306.452 744.221 306.958C743.202 307.465 726.685 317.38 726.685 317.38C726.685 317.38 716.777 328.307 716.014 327.801C715.252 327.295 708.137 323.988 708.137 323.988C708.137 323.988 704.837 321.699 703.818 321.193C702.799 320.687 698.479 318.122 697.338 317.245C696.197 316.367 694.416 315.861 693.653 315.476C692.89 315.092 669.003 322.462 669.003 322.462L653 380.644L658.082 385.726L656.557 390.552L716.271 440.607L720.084 437.307L730.506 453.317L739.908 478.979L755.155 487.618L757.443 497.02L858.066 626.869L912.441 654.057L931.245 703.099L962.246 720H1046.35L968.854 617.467L956.401 625.344L952.588 616.704L975.455 598.156L983.589 612.641L1012.3 652.538L1036.69 687.858L1044.57 698.28L1060.32 720.014H1073.03L1075.06 681.001L1063.12 668.042L1046.86 641.867L1041.52 636.278L1024.75 615.186L1040.5 583.165L1044.06 572.238L1035.42 565.124L1032.88 568.175V571.988L1028.3 575.039L1008.49 599.432L1004.93 594.606C1004.93 594.606 1015.35 576.564 1015.6 575.545C1015.85 574.526 1018.65 570.206 1018.65 570.206L1026.79 558.516L1027.04 554.068L1023.86 552.671L1021.58 550.005L1018.78 546.826H1016.75L1015.1 550.889L993.875 592.433L988.664 587.35C988.664 587.35 989.684 579.089 989.933 578.711C990.183 578.333 1020.68 525.092 1020.68 525.092L1053.58 537.16L1055.24 532.84L1057.14 531.126L1055.61 526.935L1056.38 523.506L1056.75 520.455C1056.75 520.455 959.938 492.059 946.986 492.822L944.697 498.728L952.318 501.968C952.318 501.968 932.69 545.989 924.874 581.627L913.44 582.005L913.629 571.907L851.695 571.529L852.073 562.761C852.073 562.761 895.142 563.902 895.81 564.098C896.478 564.294 915.728 564.861 915.728 564.861L918.016 558.759L876.088 555.708L837.973 556.282L838.735 547.325L855.697 548.662L856.271 544.47L848.455 540.467L796.618 472.81L794.424 475.955C794.424 475.955 787.661 482.914 787.277 482.812C786.892 482.711 778.988 480.619 778.988 480.619L783.848 471.757L804.049 448.983L811.575 441.262L811.481 436.024L809.577 433.925L803.671 438.596L793.189 451.555L788.424 455.463L785.947 460.134L782.613 462.8L779.184 462.321L772.61 471.757L767.75 470.515L768.796 465.371C768.796 465.371 793.668 434.971 797.765 431.731L803.003 426.204L802.814 423.726L800.432 422.39L799.001 419.629L797.954 418.104L793.473 418.678L787.756 426.298L786.325 428.681L771.077 444.306L760.69 455.645L752.968 447.64L765.354 432.487L778.03 418.765L779.933 418.286V416.187L774.594 411.375L773.021 408.945L767.318 411.611L762.364 407.797L759.826 407.419L751.564 398.523L721.704 373.746C721.704 373.746 714.462 384.545 714.847 386.199C715.231 387.852 713.449 390.39 713.449 390.39C713.449 390.39 700.112 396.742 699.599 396.998C699.086 397.254 695.914 398.139 695.408 398.523C694.902 398.908 690.069 399.543 688.55 399.286C687.031 399.03 679.782 399.792 678.513 398.523C677.245 397.254 676.988 396.998 676.225 396.62C675.463 396.242 673.431 395.351 673.431 395.351L672.034 394.332V393.063L673.559 393.319L678.136 394.845C678.136 394.845 679.661 397.005 679.85 397.005C680.039 397.005 688.807 396.688 689.063 396.688C689.32 396.688 706.086 390.269 707.483 387.792C707.483 387.792 715.103 379.598 717.904 374.387L718.923 371.849L715.873 369.433L711.809 370.83C711.809 370.83 693.133 382.392 684.75 372.733C684.75 372.733 676.873 364.6 676.617 364.222C676.36 363.844 674.585 363.081 674.329 362.697C674.072 362.312 672.425 360.28 672.425 360.28C672.425 360.28 671.156 359.518 671.028 359.14C670.9 358.762 669.246 354.82 669.246 354.82L672.297 353.166C672.297 353.166 676.489 356.089 678.271 360.408C680.052 364.728 695.678 367.145 698.85 365.363L703.932 361.299C703.932 361.299 706.221 359.646 706.599 359.646C706.977 359.646 712.444 359.902 714.475 362.184C716.507 364.465 744.207 358.755 748.271 348.846C748.271 348.846 752.334 338.175 752.334 337.413C752.334 336.65 752.077 326.741 752.077 326.741L746.867 323.691L742.419 321.659L730.222 329.03L724.121 333.093L720.307 334.875L721.326 327.761L724.66 327.092C724.66 327.092 729.709 322.611 730.094 322.422C730.479 322.233 737.147 316.988 737.431 316.988C737.714 316.988 741.528 315.429 741.528 315.429L747.629 312.318L751.247 311.649L753.596 310.981L753.623 311.022Z" fill="#ECECEC"/>
<path d="M738.254 358.795L734.063 362.224L735.588 366.416C735.588 366.416 739.273 367.813 740.671 369.467C742.068 371.12 752.361 379.503 752.361 379.503L757.187 380.266L765.32 372.133C765.698 371.755 766.974 369.466 766.974 369.527C766.974 369.588 766.083 366.544 765.833 366.159C765.583 365.774 756.174 355.488 756.174 355.488L752.995 348.374H751.726L748.676 352.437L743.721 357.014L738.261 358.795H738.254Z" fill="#ECECEC"/>
<path d="M1167.3 631.189C1167.3 631.189 1161.2 659.396 1160.44 660.536C1159.69 661.677 1147.48 705.893 1147.48 705.893L1144.43 720H1154.34L1159.68 705.131C1159.68 705.131 1162.73 680.353 1163.11 679.212C1163.49 678.072 1169.59 663.965 1170.35 662.062C1171.11 660.158 1172.25 646.436 1172.25 646.436L1170.54 631.189H1167.3Z" fill="#ECECEC"/>
<path d="M954.977 475.172L953.452 483.049L958.278 484.318L991.31 491.175L1033.49 504.641L1047.72 508.454L1063.21 514.806C1063.21 514.806 1064.74 511.505 1065 510.742C1065.25 509.98 1066.26 505.66 1066.26 505.66C1066.26 505.66 1045.68 498.04 1043.14 497.277C1040.6 496.514 1008.58 487.368 1007.56 487.112C1006.54 486.855 983.427 482.286 982.664 482.029C981.901 481.773 954.964 475.172 954.964 475.172H954.977Z" fill="#ECECEC"/>
<path d="M968.692 455.604L965.135 466.782C965.135 466.782 972.756 468.307 973.518 468.307C974.281 468.307 986.221 471.358 986.221 471.358L1003.24 475.172L1014.68 478.222C1014.68 478.222 1031.19 483.305 1032.46 483.811C1033.73 484.317 1059.91 492.707 1059.91 492.707L1069.81 497.789L1073.63 498.809C1073.63 498.809 1077.19 492.201 1077.44 491.188C1077.7 490.176 1077.44 486.869 1077.44 486.869L1071.09 484.331L1060.16 480.268L1033.48 471.885L1028.14 469.596L992.822 462.739L968.685 455.625L968.692 455.604Z" fill="#ECECEC"/>
</g>
<defs>
<clipPath id="clip0_648_2484">
<rect width="519.26" height="720" fill="white" transform="translate(653)"/>
</clipPath>
</defs>
</svg>
