<svg width="1825" height="720" viewBox="0 0 1825 720" fill="none" xmlns="http://www.w3.org/2000/svg">
<g clip-path="url(#clip0_1240_2482)">
<path d="M11.1555 135.982H78.6218L107.04 217.526H107.574L119.525 173.438H120.059V221.778L86.329 334.663H78.629L23.1073 170.252C21.7778 166.271 20.4482 162.282 18.3295 158.834C15.9405 154.852 14.874 151.66 10.3592 151.397C7.17394 151.134 0 150.6 0 144.223C0 135.982 7.97026 135.982 11.1555 135.982ZM22.311 203.186H22.8443L37.7183 247.011V292.7C41.97 325.903 58.9699 315.544 58.9699 326.963C58.9699 335.196 48.0775 334.663 45.1553 334.663H14.874C11.9518 334.663 1.05938 335.196 1.05938 326.963C1.05938 315.544 18.0593 325.903 22.311 292.7V203.186ZM132.01 135.982H202.136C203.195 135.982 211.962 136.516 211.962 144.216C211.962 147.934 209.573 150.323 206.118 151.39C196.818 154.312 197.088 155.905 197.088 165.73V304.915C197.088 314.741 196.825 316.333 206.118 319.256C209.573 320.315 211.962 322.711 211.962 326.43C211.962 334.13 203.195 334.663 202.136 334.663H126.97C125.91 334.663 117.144 334.13 117.144 326.43C117.144 322.711 119.533 320.322 122.988 319.256C132.288 316.333 132.018 314.741 132.018 304.915V135.982H132.01Z" fill="#ECECEC"/>
<path d="M328.131 304.915C328.131 314.741 327.868 316.333 337.161 319.256C340.617 320.315 343.005 322.711 343.005 326.43C343.005 334.13 334.239 334.663 333.179 334.663H258.013C256.954 334.663 248.187 334.13 248.187 326.43C248.187 322.711 250.576 320.322 254.032 319.256C263.331 316.333 263.061 314.741 263.061 304.915V165.73C263.061 155.905 263.324 154.312 254.032 151.39C250.576 150.33 248.187 147.934 248.187 144.216C248.187 136.516 256.954 135.982 258.013 135.982H333.179C334.239 135.982 343.005 136.516 343.005 144.216C343.005 147.934 340.617 150.323 337.161 151.39C327.861 154.312 328.131 155.905 328.131 165.73V304.915Z" fill="#ECECEC"/>
<path d="M467.643 334.663H397.517C396.458 334.663 387.692 334.13 387.692 326.43C387.692 322.711 390.08 320.322 393.536 319.256C402.836 316.333 402.566 314.741 402.566 304.915V165.73C402.566 155.905 402.829 154.312 393.536 151.39C390.08 150.33 387.692 147.934 387.692 144.216C387.692 136.516 396.458 135.982 397.517 135.982H472.684C473.743 135.982 482.51 136.516 482.51 144.216C482.51 147.934 480.121 150.323 476.665 151.39C467.366 154.312 467.636 155.905 467.636 165.73V334.663H467.643ZM479.602 319.263C501.117 316.341 513.331 297.748 518.913 273.048C520.242 267.204 523.428 265.611 529.009 265.611C535.116 265.611 535.65 270.659 535.65 275.707V334.677H479.602V319.27V319.263Z" fill="#ECECEC"/>
<path d="M624.872 203.184L599.902 294.021C595.65 310.225 599.369 314.74 608.399 318.721C612.65 320.584 616.369 322.177 616.369 327.488C616.369 334.925 607.872 334.662 602.554 334.662H572.01C566.699 334.662 557.136 334.399 557.136 326.691C557.136 320.314 561.651 320.584 567.495 317.662C573.076 314.74 580.243 308.632 585.291 289.769L617.165 173.166H617.962L624.865 203.177L624.872 203.184ZM653.291 283.136H614.513L618.232 267.729H650.639L623.813 150.329L627.268 135.988H685.968L725.812 303.854C727.405 311.291 727.675 316.339 735.112 319.525C738.831 321.117 741.753 322.98 741.753 327.758C741.753 334.932 732.19 334.662 727.142 334.662H661.005C655.694 334.662 647.987 334.128 647.987 327.225C647.987 322.973 649.579 321.643 653.035 319.788C659.939 315.806 661.005 313.943 658.616 303.584L653.305 283.129L653.291 283.136Z" fill="#ECECEC"/>
<path d="M790.776 185.923H791.309L806.183 212.486V292.7C810.435 325.903 827.435 315.544 827.435 326.963C827.435 335.196 816.543 334.663 813.62 334.663H783.339C780.417 334.663 769.524 335.196 769.524 326.963C769.524 315.544 786.524 325.903 790.776 292.7V185.923ZM929.164 270.389V334.67H889.59L792.376 167.067C788.124 159.63 786.795 155.649 778.035 152.726C773.52 151.134 770.065 150.067 770.065 144.23C770.065 136.26 778.035 136.26 783.609 135.997H851.872L929.164 270.396V270.389ZM913.757 184.06C913.757 146.079 891.979 156.168 891.979 143.953C891.979 136.516 900.746 135.982 903.398 135.982H939.523C942.183 135.982 950.942 136.516 950.942 143.953C950.942 156.168 929.164 146.079 929.164 184.06V248.604H928.631L913.757 221.778V184.06Z" fill="#ECECEC"/>
<path d="M1060.76 147.407C1048.28 151.922 1047.22 159.892 1047.22 166.533V304.118C1047.22 310.758 1048.28 318.729 1060.76 323.243V338.651C1004.45 333.603 978.159 288.184 978.159 235.329C978.159 182.474 1004.45 137.048 1060.76 132V147.407ZM1072.71 323.243C1085.2 318.729 1086.26 310.758 1086.26 304.118V166.533C1086.26 159.892 1085.2 151.922 1072.71 147.407V132C1129.02 137.048 1155.32 182.466 1155.32 235.322C1155.32 288.177 1129.02 333.603 1072.71 338.644V323.236V323.243Z" fill="#ECECEC"/>
<path d="M431.652 582.914C373.18 581.848 345.537 537.46 345.537 482.977C345.537 421.575 380.091 377.984 431.652 376.128V391.543C418.897 394.202 414.638 405.101 414.638 416.264V542.252C414.638 553.415 418.89 564.314 431.652 567.5V582.914ZM443.611 376.121C453.444 376.384 473.914 386.75 480.825 386.75C484.814 386.75 486.406 385.158 487.999 381.702C489.591 378.247 491.454 376.121 495.173 376.121C503.676 376.121 503.676 384.362 503.676 385.691V447.356C503.676 448.685 503.676 456.926 495.173 456.926C489.591 456.926 486.399 452.404 485.34 447.356C480.818 425.827 468.326 398.183 443.611 391.535V376.121ZM495.976 521.249C501.024 521.249 503.953 525.501 503.953 530.286C503.42 552.078 471.262 583.981 443.618 582.914V567.5C464.088 562.978 481.365 549.426 487.21 529.753C488.802 525.238 490.402 521.249 495.983 521.249H495.976Z" fill="#ECECEC"/>
<path d="M575.401 447.355L550.417 538.256C546.165 554.467 549.884 558.989 558.92 562.977C563.172 564.84 566.898 566.433 566.898 571.751C566.898 579.195 558.394 578.925 553.076 578.925H522.51C517.192 578.925 507.622 578.662 507.622 570.948C507.622 564.57 512.144 564.833 517.988 561.911C523.57 558.989 530.744 552.874 535.799 534.004L567.694 417.316H568.49L575.401 447.348V447.355ZM603.841 527.364H565.035L568.754 511.949H601.182L574.335 394.464L577.79 380.109H636.533L676.405 548.096C677.998 555.54 678.268 560.588 685.705 563.781C689.424 565.373 692.353 567.236 692.353 572.021C692.353 579.195 682.783 578.932 677.735 578.932H611.548C606.23 578.932 598.523 578.399 598.523 571.488C598.523 567.236 600.116 565.907 603.571 564.044C610.482 560.055 611.548 558.199 609.152 547.833L603.834 527.364H603.841Z" fill="#ECECEC"/>
<path d="M791.117 579.528H720.949C719.883 579.528 711.116 578.995 711.116 571.288C711.116 567.57 713.505 565.173 716.96 564.114C726.26 561.192 725.997 559.592 725.997 549.759V410.482C725.997 400.649 726.26 399.057 716.96 396.127C713.505 395.061 711.116 392.672 711.116 388.953C711.116 381.246 719.89 380.713 720.949 380.713H796.173C797.239 380.713 806.006 381.246 806.006 388.953C806.006 392.672 803.617 395.068 800.161 396.127C790.861 399.049 791.124 400.642 791.124 410.482V579.528H791.117ZM803.076 564.114C824.605 561.192 836.834 542.585 842.416 517.864C843.745 512.02 846.938 510.42 852.519 510.42C858.633 510.42 859.167 515.468 859.167 520.523V579.528H803.083V564.114H803.076Z" fill="#ECECEC"/>
<path d="M948.951 550.365C948.951 560.198 948.688 561.797 957.988 564.72C961.443 565.786 963.832 568.175 963.832 571.894C963.832 579.601 955.059 580.134 953.999 580.134H878.776C877.709 580.134 868.943 579.601 868.943 571.894C868.943 568.175 871.332 565.779 874.787 564.72C884.087 561.797 883.824 560.198 883.824 550.365V411.088C883.824 401.255 884.087 399.662 874.787 396.733C871.332 395.666 868.943 393.277 868.943 389.559C868.943 381.852 877.717 381.318 878.776 381.318H953.999C955.066 381.318 963.832 381.852 963.832 389.559C963.832 393.277 961.443 395.673 957.988 396.733C948.688 399.655 948.951 401.248 948.951 411.088V550.365Z" fill="#ECECEC"/>
<path d="M1066.7 581.954H995.201C993.339 581.954 986.698 581.42 986.698 573.713C986.698 569.995 989.087 567.599 992.542 566.539C1001.84 563.617 1001.58 562.017 1001.58 552.184V412.907C1001.58 403.074 1001.84 401.482 992.542 398.552C989.087 397.486 986.698 395.097 986.698 391.378C986.698 383.671 993.346 383.138 995.201 383.138H1066.7V581.954ZM1078.67 383.131H1086.91C1103.65 383.131 1120.66 383.394 1136.08 390.838C1152.56 399.078 1162.13 412.9 1162.13 431.77C1162.13 461.006 1137.68 474.565 1111.89 478.554V479.087C1141.4 483.872 1164.78 496.897 1164.78 530.122C1164.78 548.992 1156.54 563.88 1139.8 573.18C1122.78 582.75 1106.04 581.954 1087.17 581.954H1078.67V566.539C1096.48 565.743 1098.6 555.64 1098.6 546.07V511.778C1098.6 499.549 1095.68 488.124 1078.67 486.794V471.38C1098.07 469.787 1098.6 458.354 1098.6 448.521V421.944C1098.6 410.781 1094.61 400.145 1078.67 398.552V383.138V383.131Z" fill="#ECECEC"/>
<path d="M1199.27 413.504C1199.27 403.671 1199.53 402.078 1190.23 399.149C1186.78 398.082 1184.39 395.693 1184.39 391.975C1184.39 384.268 1193.16 383.734 1194.22 383.734H1264.39V552.781C1264.39 562.614 1264.13 564.213 1273.43 567.136C1276.88 568.202 1279.27 570.591 1279.27 574.31C1279.27 582.017 1270.5 582.55 1269.44 582.55H1194.22C1193.15 582.55 1184.38 582.017 1184.38 574.31C1184.38 570.591 1186.77 568.195 1190.23 567.136C1199.53 564.213 1199.26 562.614 1199.26 552.781V413.504H1199.27ZM1276.36 383.734H1277.69C1294.96 383.734 1313.04 383.201 1328.99 390.908C1346.8 399.682 1355.83 414.3 1356.1 434.499C1356.63 465.065 1336.43 478.354 1309.31 484.738V485.272C1332.97 488.727 1355.56 495.638 1356.1 523.815V547.206C1356.1 549.595 1355.3 554.914 1358.75 554.914C1363.01 554.914 1363.8 547.206 1370.19 547.206C1373.64 547.206 1377.89 551.195 1377.89 554.914C1377.89 562.621 1369.12 572.454 1363.28 576.976C1354.24 584.42 1344.67 586.546 1333.24 586.546C1321.82 586.546 1311.45 583.624 1303.21 575.383C1293.91 565.813 1292.58 554.117 1292.58 541.625V523.552C1292.58 511.323 1292.32 496.441 1276.37 494.849V479.164C1290.73 477.835 1292.58 469.061 1292.58 456.043V423.884C1292.58 410.596 1289.66 404.218 1276.37 399.433V383.749L1276.36 383.734Z" fill="#ECECEC"/>
<path d="M1473.03 394.862C1460.53 399.384 1459.47 407.354 1459.47 414.002V551.686C1459.47 558.334 1460.53 566.304 1473.03 570.826V586.24C1416.68 581.192 1390.37 535.738 1390.37 482.847C1390.37 429.956 1416.68 384.502 1473.03 379.454V394.869V394.862ZM1484.98 570.826C1497.48 566.304 1498.54 558.334 1498.54 551.686V414.002C1498.54 407.354 1497.48 399.384 1484.98 394.862V379.447C1541.33 384.495 1567.65 429.949 1567.65 482.84C1567.65 535.731 1541.33 581.185 1484.98 586.233V570.819V570.826Z" fill="#ECECEC"/>
<path d="M1743.45 509.787L1741.29 489.538V509.282C1664.94 517.956 1662.22 443.721 1662.22 443.721C1662.22 404.09 1691.32 371.669 1734.55 373.333V389.686C1724.85 391.627 1724.3 397.997 1724.3 399.384V465.314C1724.3 474.657 1726.32 489.538 1741.29 489.538M1728.8 588.928C1703.9 588.658 1670.43 572.561 1670.43 544.747C1670.43 527.292 1683.71 515.567 1700.86 515.567C1714.14 515.567 1723.84 526.204 1724.12 539.571C1724.4 554.295 1719.07 554.203 1719.07 561.839C1719.07 567.292 1723.82 571.487 1728.81 571.487V588.935L1728.8 588.928ZM1744 373.333C1780.86 373.887 1823.23 411.577 1824.62 481.134C1823.23 550.691 1780.86 588.38 1744 588.935V572.582C1756.75 570.364 1759.52 560.111 1759.52 548.195V413.788C1759.52 401.872 1756.75 391.62 1744 389.401V373.326V373.333Z" fill="#ECECEC"/>
</g>
<defs>
<clipPath id="clip0_1240_2482">
<rect width="1824.62" height="456.928" fill="white" transform="translate(0 132)"/>
</clipPath>
</defs>
</svg>
