<svg width="1825" height="720" viewBox="0 0 1825 720" fill="none" xmlns="http://www.w3.org/2000/svg">
<path d="M324.354 466.224C324.354 466.224 324.644 466.079 324.935 465.934C324.935 465.934 324.644 466.079 324.354 466.224ZM324.354 466.224C324.354 466.224 324.644 466.079 324.935 465.934C324.935 465.934 324.644 466.079 324.354 466.224ZM324.354 466.224C324.354 466.224 324.644 466.079 324.935 465.934C324.935 465.934 324.644 466.079 324.354 466.224ZM324.354 466.224C324.354 466.224 324.644 466.079 324.935 465.934C324.935 465.934 324.644 466.079 324.354 466.224ZM324.354 466.224C324.354 466.224 324.644 466.079 324.935 465.934C324.935 465.934 324.644 466.079 324.354 466.224ZM324.354 466.224C324.354 466.224 324.644 466.079 324.935 465.934C324.935 465.934 324.644 466.079 324.354 466.224ZM324.354 466.224C324.354 466.224 324.644 466.079 324.935 465.934C324.935 465.934 324.644 466.079 324.354 466.224ZM324.354 466.224C324.354 466.224 324.644 466.079 324.935 465.934C324.935 465.934 324.644 466.079 324.354 466.224ZM324.354 466.224C324.354 466.224 324.644 466.079 324.935 465.934C324.935 465.934 324.644 466.079 324.354 466.224ZM324.354 466.224C324.354 466.224 324.644 466.079 324.935 465.934C324.935 465.934 324.644 466.079 324.354 466.224ZM324.354 466.224C324.354 466.224 324.644 466.079 324.935 465.934C324.935 465.934 324.644 466.079 324.354 466.224ZM324.354 466.224C324.354 466.224 324.644 466.079 324.935 465.934C324.935 465.934 324.644 466.079 324.354 466.224ZM324.354 466.224C324.354 466.224 324.644 466.079 324.935 465.934C324.935 465.934 324.644 466.079 324.354 466.224ZM324.354 466.224C324.354 466.224 324.644 466.079 324.935 465.934C324.935 465.934 324.644 466.079 324.354 466.224ZM324.354 466.224C324.354 466.224 324.644 466.079 324.935 465.934C324.935 465.934 324.644 466.079 324.354 466.224ZM324.354 466.224C324.354 466.224 324.644 466.079 324.935 465.934C324.935 465.934 324.644 466.079 324.354 466.224ZM324.354 466.224C324.354 466.224 324.644 466.079 324.935 465.934C324.935 465.934 324.644 466.079 324.354 466.224ZM324.354 466.224C324.354 466.224 324.644 466.079 324.935 465.934C324.935 465.934 324.644 466.079 324.354 466.224ZM324.354 466.224C324.354 466.224 324.644 466.079 324.935 465.934C324.935 465.934 324.644 466.079 324.354 466.224ZM324.354 466.224C324.354 466.224 324.644 466.079 324.935 465.934C324.935 465.934 324.644 466.079 324.354 466.224ZM324.354 466.224C324.354 466.224 324.644 466.079 324.935 465.934C324.935 465.934 324.644 466.079 324.354 466.224ZM324.354 466.224C324.354 466.224 324.644 466.079 324.935 465.934C324.935 465.934 324.644 466.079 324.354 466.224ZM324.354 466.224C324.354 466.224 324.644 466.079 324.935 465.934C324.935 465.934 324.644 466.079 324.354 466.224ZM324.354 466.224C324.354 466.224 324.644 466.079 324.935 465.934C324.935 465.934 324.644 466.079 324.354 466.224ZM324.354 466.224C324.354 466.224 324.644 466.079 324.935 465.934C324.935 465.934 324.644 466.079 324.354 466.224ZM324.354 466.224C324.354 466.224 324.644 466.079 324.935 465.934C324.935 465.934 324.644 466.079 324.354 466.224ZM324.354 466.224C324.354 466.224 324.644 466.079 324.935 465.934C324.935 465.934 324.644 466.079 324.354 466.224ZM324.354 466.224C324.354 466.224 324.644 466.079 324.935 465.934C324.935 465.934 324.644 466.079 324.354 466.224ZM324.354 466.224C324.354 466.224 324.644 466.079 324.935 465.934C324.935 465.934 324.644 466.079 324.354 466.224ZM324.354 466.224C324.354 466.224 324.644 466.079 324.935 465.934C324.935 465.934 324.644 466.079 324.354 466.224ZM324.354 466.224C324.354 466.224 324.644 466.079 324.935 465.934C324.935 465.934 324.644 466.079 324.354 466.224ZM324.354 466.224C324.354 466.224 324.644 466.079 324.935 465.934C324.935 465.934 324.644 466.079 324.354 466.224ZM324.354 466.224C324.354 466.224 324.644 466.079 324.935 465.934C324.935 465.934 324.644 466.079 324.354 466.224ZM324.354 466.224C324.354 466.224 324.644 466.079 324.935 465.934C324.935 465.934 324.644 466.079 324.354 466.224ZM324.354 466.224C324.354 466.224 324.644 466.079 324.935 465.934C324.935 465.934 324.644 466.079 324.354 466.224ZM324.354 466.224C324.354 466.224 324.644 466.079 324.935 465.934C324.935 465.934 324.644 466.079 324.354 466.224ZM324.354 466.224C324.354 466.224 324.644 466.079 324.935 465.934C324.935 465.934 324.644 466.079 324.354 466.224ZM324.354 466.224C324.354 466.224 324.644 466.079 324.935 465.934C324.935 465.934 324.644 466.079 324.354 466.224ZM324.354 466.224C324.354 466.224 324.644 466.079 324.935 465.934C324.935 465.934 324.644 466.079 324.354 466.224ZM324.354 466.224C324.354 466.224 324.644 466.079 324.935 465.934C324.935 465.934 324.644 466.079 324.354 466.224ZM324.354 466.224C324.354 466.224 324.644 466.079 324.935 465.934C324.935 465.934 324.644 466.079 324.354 466.224ZM324.354 466.224C324.354 466.224 324.644 466.079 324.935 465.934C324.935 465.934 324.644 466.079 324.354 466.224ZM324.354 466.224C324.354 466.224 324.644 466.079 324.935 465.934C324.935 465.934 324.644 466.079 324.354 466.224ZM324.354 466.224C324.354 466.224 324.644 466.079 324.935 465.934C324.935 465.934 324.644 466.079 324.354 466.224ZM324.354 466.224C324.354 466.224 324.644 466.079 324.935 465.934C324.935 465.934 324.644 466.079 324.354 466.224ZM324.354 466.224C324.354 466.224 324.644 466.079 324.935 465.934C324.935 465.934 324.644 466.079 324.354 466.224ZM324.354 466.224C324.354 466.224 324.644 466.079 324.935 465.934C324.935 465.934 324.644 466.079 324.354 466.224ZM324.354 466.224C324.354 466.224 324.644 466.079 324.935 465.934C324.935 465.934 324.644 466.079 324.354 466.224ZM324.354 466.224C324.354 466.224 324.644 466.079 324.935 465.934C324.935 465.934 324.644 466.079 324.354 466.224ZM324.354 466.224C324.354 466.224 324.644 466.079 324.935 465.934C324.935 465.934 324.644 466.079 324.354 466.224ZM324.354 466.224C324.354 466.224 324.644 466.079 324.935 465.934C324.935 465.934 324.644 466.079 324.354 466.224ZM324.354 466.224C324.354 466.224 324.644 466.079 324.935 465.934C324.935 465.934 324.644 466.079 324.354 466.224ZM324.354 466.224C324.354 466.224 324.644 466.079 324.935 465.934C324.935 465.934 324.644 466.079 324.354 466.224ZM324.354 466.224C324.354 466.224 324.644 466.079 324.935 465.934C324.935 465.934 324.644 466.079 324.354 466.224ZM324.354 466.224C324.354 466.224 324.644 466.079 324.935 465.934C324.935 465.934 324.644 466.079 324.354 466.224ZM324.354 466.224C324.354 466.224 324.644 466.079 324.935 465.934C324.935 465.934 324.644 466.079 324.354 466.224ZM324.354 466.224C324.354 466.224 324.644 466.079 324.935 465.934C324.935 465.934 324.644 466.079 324.354 466.224ZM324.354 466.224C324.354 466.224 324.644 466.079 324.935 465.934C324.935 465.934 324.644 466.079 324.354 466.224ZM324.354 466.224C324.354 466.224 324.644 466.079 324.935 465.934C324.935 465.934 324.644 466.079 324.354 466.224ZM324.354 466.224C324.354 466.224 324.644 466.079 324.935 465.934C324.935 465.934 324.644 466.079 324.354 466.224ZM324.354 466.224C324.354 466.224 324.644 466.079 324.935 465.934C324.935 465.934 324.644 466.079 324.354 466.224ZM324.354 466.224C324.354 466.224 324.644 466.079 324.935 465.934C324.935 465.934 324.644 466.079 324.354 466.224ZM505.713 237.366C508.762 235.043 510.94 231.558 511.666 227.637C511.666 227.637 516.893 216.31 514.135 214.858C501.357 208.178 442.549 206.871 442.549 206.871C438.629 206.436 434.854 208.904 433.837 212.68L418.881 264.086L412.347 271.782L404.651 286.158L401.312 303.003L387.808 319.122L382.58 359.637L370.964 382.581L368.931 404.653C368.931 404.653 362.688 413.512 348.167 409.736H348.603C333.211 406.541 335.244 391.439 330.307 381.71C328.129 377.208 325.806 372.706 324.063 367.914L314.335 339.452L312.012 325.221L306.349 324.059L293.135 309.248L291.538 296.614L282.971 281.802L269.322 259.584C263.078 251.743 260.61 243.03 259.593 237.947C259.158 236.205 259.158 233.155 259.448 231.267C260.61 223.716 263.514 216.601 262.352 211.809C261.336 206.871 236.941 207.597 236.941 207.597C203.254 208.178 118.601 194.528 186.701 239.254L189.605 256.68L199.189 272.653L195.413 299.083L191.783 308.667L199.479 324.35L195.849 331.756L197.156 392.601L199.189 400.442L195.123 410.607L192.074 430.647L192.8 461.723L191.783 472.178L186.265 482.053C185.539 486.409 179.15 490.185 179.15 490.185C167.244 493.67 167.97 500.785 167.97 500.785C168.986 506.158 174.068 507.756 174.068 507.756L237.232 507.32C237.232 507.32 236.361 506.885 236.07 506.449C235.925 506.304 235.925 506.013 235.78 505.868C235.489 506.304 235.199 506.739 234.618 507.03C233.747 507.175 232.731 506.739 232.585 505.723C232.15 504.125 232.44 501.947 234.473 501.512C236.361 500.931 238.393 503.109 239.119 504.706C239.41 505.578 239.119 506.594 238.393 507.03C238.103 507.175 237.958 507.32 237.667 507.32H250.736C250.736 507.32 254.221 496.284 247.106 490.185C247.106 490.185 229.391 469.129 226.777 468.403L227.068 454.462L232.15 442.845L224.164 405.234V378.515L221.405 346.713L223.728 333.644V305.762C220.388 299.373 224.599 291.822 224.599 291.822C225.035 292.838 234.909 306.634 235.199 307.505C235.199 309.248 237.377 310.99 238.393 312.442C248.703 328.706 259.593 352.957 259.593 352.957L269.467 368.931L271.645 386.647L280.212 399.281L285.875 408.719L296.765 416.852L300.105 431.809L310.995 429.921L308.381 437.762L314.625 443.426L311.286 455.043L338.293 506.304L354.992 473.049L359.493 466.951V459.545L371.545 438.924L405.522 362.396L407.991 351.215L412.783 334.37L424.399 322.752V304.31L428.755 298.502L433.692 281.076L442.404 279.188L441.823 307.941C438.629 334.224 435.58 368.059 438.919 393.908C437.177 397.538 437.612 405.38 436.886 410.607C433.837 431.228 432.676 444.587 436.596 461.723C436.596 461.723 437.032 477.696 428.755 478.568C428.755 478.568 414.816 484.957 417.72 499.479C417.72 499.479 420.043 510.079 440.371 507.175L474.785 504.271L484.513 498.898L504.842 499.479C504.842 499.479 517.619 493.38 504.842 484.376L490.757 470.726L492.645 456.495L486.836 431.809L488.143 395.505L493.951 386.502L490.176 369.076C490.176 369.076 486.836 347.584 487.562 344.97C488.143 342.502 491.338 307.505 491.338 307.505L494.677 291.967L493.371 259.584L496.565 244.627L505.713 237.366ZM219.953 482.488C218.936 483.215 217.629 483.215 216.468 482.924C216.032 482.634 215.597 482.488 215.161 482.198C214.144 481.617 213.999 481.617 213.273 482.634C212.402 483.505 211.676 484.231 210.514 484.231C209.208 484.231 208.336 483.36 207.901 482.198C207.756 481.762 207.901 481.327 208.046 481.036C207.901 478.713 207.756 475.518 210.95 475.954C212.402 476.099 213.854 476.97 215.161 477.406C216.758 478.132 218.355 478.713 219.953 479.584C221.114 480.165 220.824 481.762 219.953 482.488ZM221.84 462.594C223.002 462.594 224.018 462.594 225.18 462.739C226.632 462.884 226.632 464.191 226.051 465.063C226.196 465.498 226.196 465.934 226.196 466.37C225.616 470.145 221.84 471.597 218.501 470.436C217.049 470 215.597 468.838 214.725 467.531C213.854 466.515 213.564 465.063 213.128 463.756C211.386 465.644 209.208 467.677 207.32 465.353C205.287 463.03 207.756 459.98 209.643 458.528C211.531 457.076 215.887 455.043 218.21 456.64C219.372 457.657 219.081 458.964 219.227 460.271C219.517 462.594 219.807 462.739 221.84 462.594ZM228.81 252.904C227.939 251.452 227.358 250 227.068 248.548V247.677C227.068 247.677 225.47 247.967 225.035 248.112C224.309 248.257 223.728 247.822 223.438 247.386C221.985 247.096 221.114 245.208 222.711 244.337C224.454 243.611 226.196 242.739 227.939 242.013C228.955 241.578 230.262 241.578 230.988 242.449C232.005 243.465 231.714 245.353 231.859 246.66C231.859 248.403 231.859 250.145 231.859 252.033C231.859 253.776 229.536 254.211 228.665 252.904H228.81ZM271.645 330.158C271.355 331.756 269.031 332.191 268.451 330.304C268.015 328.997 267.87 327.399 268.015 325.947C268.16 325.076 268.741 324.205 269.757 324.205C270.629 324.205 271.5 325.076 271.5 325.947C271.5 326.964 271.645 327.835 271.935 328.851C272.081 329.287 271.935 329.868 271.645 330.158ZM272.226 318.541C272.226 318.541 271.935 318.832 271.79 318.977C271.209 320.429 269.031 320.865 268.596 318.977C268.16 316.944 267.579 312.152 270.919 312.152C272.371 312.152 273.387 313.314 273.387 314.766C273.387 316.073 272.807 317.38 272.226 318.541ZM284.859 330.594C285.294 332.917 281.954 333.789 281.519 331.611C281.374 330.884 281.228 330.158 281.228 329.432C280.067 327.545 279.196 325.512 278.76 323.333C278.47 321.446 277.744 318.686 279.341 317.38C279.922 316.944 280.793 316.653 281.519 317.089C283.261 318.106 283.116 320.574 283.406 322.317C283.697 324.205 284.133 326.238 284.423 328.125C284.568 328.416 284.713 328.706 284.859 328.997C285.294 329.723 285.149 330.158 284.859 330.594ZM293.571 323.188C292.554 323.188 291.973 322.462 291.828 321.446V321.01C291.828 321.01 291.683 320.574 291.538 320.429C291.538 320.139 291.247 319.703 291.102 319.413C290.521 318.541 290.957 317.525 291.683 317.089C292.554 316.508 293.571 316.799 294.006 317.67C294.732 318.832 295.168 320.139 295.313 321.446C295.458 322.462 294.442 323.188 293.571 323.188ZM319.853 438.053C319.853 438.053 319.853 437.762 320.143 437.472C320.143 437.327 319.998 437.182 320.143 437.036C320.288 436.165 321.305 435.584 322.176 435.875C323.773 436.31 324.935 437.327 325.661 438.779C326.387 440.086 326.822 442.119 325.806 443.281C324.354 444.878 322.321 443.716 321.159 442.409C320.288 441.248 319.707 439.65 319.853 438.053ZM324.644 467.241C323.483 467.531 322.176 466.951 321.885 465.644C321.885 465.208 321.885 464.627 322.031 464.191C321.885 463.901 321.885 463.32 322.176 462.885C322.611 462.158 323.047 461.432 323.483 460.851C324.354 459.399 326.822 459.835 326.677 461.723C326.532 463.611 326.822 466.515 324.644 467.241ZM333.792 443.135C331.469 445.749 328.855 441.248 327.839 439.65C327.548 439.505 327.694 439.215 327.694 438.779C327.113 438.053 327.258 436.891 328.129 436.455V436.31C328.71 435.729 329.872 435.729 330.452 436.31C331.469 437.327 332.485 438.343 333.211 439.36C334.082 440.521 334.663 441.974 333.647 443.135H333.792ZM334.373 434.858C334.373 434.858 334.228 433.696 334.373 433.261C334.373 433.116 334.082 433.116 333.937 432.825C332.485 432.244 331.324 431.083 331.033 429.34C330.743 427.307 331.033 423.822 333.356 422.951C335.68 421.934 337.713 424.257 338.874 426.145C340.617 429.195 338.293 432.389 340.181 435.294C341.052 436.601 339.6 438.198 338.148 437.762C336.551 437.472 335.244 436.455 334.228 434.858H334.373ZM341.052 467.241C340.762 468.838 338.584 468.838 337.858 467.677C337.713 467.386 337.422 467.096 337.277 466.66C336.841 466.079 336.987 465.498 337.277 465.063C335.97 463.465 336.115 461.142 338.003 459.98C339.019 459.399 340.181 459.98 340.617 460.997C341.343 463.03 341.343 465.208 341.052 467.241ZM488.724 221.828C489.595 221.393 490.612 221.538 491.047 222.409C491.483 223.135 491.338 224.297 490.466 224.733C489.595 225.168 489.305 225.894 489.014 226.766C489.014 227.056 489.014 227.347 488.724 227.637C488.724 227.782 488.724 227.927 488.579 228.073C488.434 229.089 487.998 229.96 486.836 230.396C486.11 230.541 485.53 230.251 485.094 229.815C484.368 229.38 483.932 228.799 484.078 227.782C484.658 225.314 486.401 222.99 488.724 221.828ZM449.664 229.525C449.229 228.218 450.971 226.766 452.278 227.637C454.601 229.38 457.215 230.541 460.264 230.832C461.426 230.832 461.861 231.848 461.861 232.719C462.007 233.446 461.861 234.026 461.135 234.462C456.489 236.35 451.407 234.172 449.664 229.525ZM457.505 350.198C457.07 351.069 456.344 351.65 455.327 351.505C454.746 351.36 454.166 350.488 454.166 349.762C453.44 349.327 452.714 348.746 452.568 347.729C452.568 346.568 453.44 345.551 454.456 345.261C455.763 344.97 457.07 345.406 457.651 346.568C458.231 347.729 457.941 349.036 457.505 350.198ZM458.231 342.647C457.796 341.63 457.941 340.323 459.248 340.178C460.7 339.743 462.007 340.033 463.459 340.614C463.894 340.904 464.185 341.34 464.185 341.776C464.62 341.776 465.056 342.066 465.346 342.502C465.782 343.228 465.637 344.535 464.765 344.825C462.297 345.987 459.248 345.116 458.231 342.647ZM462.297 350.924C462.297 349.762 463.313 348.891 464.475 349.182C466.072 349.617 467.089 350.924 467.379 352.521C467.815 354.409 466.944 356.007 466.072 357.604C465.201 359.201 463.168 358.33 463.023 356.878C462.587 356.733 462.152 356.297 462.152 355.571C462.152 353.974 462.297 352.376 462.297 350.924ZM468.25 468.548C468.976 467.241 469.702 465.789 471.009 465.063C472.752 464.191 474.639 465.353 475.22 466.951C475.801 468.548 474.93 470.29 473.623 471.162C472.026 472.178 470.138 472.033 468.396 471.743C467.524 471.597 466.944 470.436 467.234 469.564C467.379 468.983 467.815 468.693 468.25 468.548ZM466.798 489.459C465.637 490.766 463.604 489.894 463.894 488.007C464.039 487.716 463.459 486.845 463.313 486.554C463.023 485.974 462.733 485.393 462.733 484.667C462.733 483.36 463.604 482.053 464.911 481.617C468.25 480.891 468.831 485.538 468.686 487.861C468.686 488.878 467.67 489.459 466.798 489.459ZM474.204 480.455C472.606 480.891 471.154 480.891 469.702 480.746C468.831 480.601 468.541 479.729 468.541 479.003V478.568C468.541 478.568 468.686 477.696 468.976 477.551C470.719 476.099 473.042 476.099 474.93 477.551C475.946 478.422 475.365 480.02 474.204 480.455ZM477.108 242.449C474.639 240.851 472.171 239.254 469.702 237.512C468.105 236.495 466.508 235.333 465.927 233.446C464.62 229.38 468.105 227.492 471.59 227.637C471.88 227.492 472.026 227.201 472.316 227.201C478.124 226.185 479.721 237.076 479.721 240.851C479.867 242.158 478.269 243.175 477.108 242.449ZM480.012 477.696C479.576 476.099 479.867 474.356 480.883 472.904C481.609 472.033 483.206 471.597 483.932 472.904C484.804 474.937 484.804 476.97 483.787 479.003C482.916 480.455 481.028 479.729 480.738 478.422C480.447 478.422 480.157 478.132 480.012 477.696ZM485.384 492.799C484.658 494.977 481.319 493.96 482.045 491.927H481.899C480.447 489.459 480.593 486.554 482.045 484.231C482.916 483.069 484.804 483.215 485.239 484.667C486.11 487.426 486.11 490.185 485.384 492.799ZM490.031 240.125C488.288 239.69 487.417 238.238 487.127 236.64C486.691 236.059 486.256 235.479 485.82 234.898C485.384 234.026 485.675 232.865 486.546 232.429C487.417 231.993 488.288 232.429 488.869 233.155C489.886 234.607 490.902 236.059 491.918 237.512C492.935 238.818 491.338 240.271 490.031 240.125ZM324.935 465.934C324.935 465.934 324.644 466.079 324.354 466.224C324.499 466.224 324.644 466.079 324.935 465.934ZM324.354 466.224C324.354 466.224 324.644 466.079 324.935 465.934C324.935 465.934 324.644 466.079 324.354 466.224ZM324.354 466.224C324.354 466.224 324.644 466.079 324.935 465.934C324.935 465.934 324.644 466.079 324.354 466.224ZM324.354 466.224C324.354 466.224 324.644 466.079 324.935 465.934C324.935 465.934 324.644 466.079 324.354 466.224ZM324.354 466.224C324.354 466.224 324.644 466.079 324.935 465.934C324.935 465.934 324.644 466.079 324.354 466.224ZM324.354 466.224C324.354 466.224 324.644 466.079 324.935 465.934C324.935 465.934 324.644 466.079 324.354 466.224ZM324.354 466.224C324.354 466.224 324.644 466.079 324.935 465.934C324.935 465.934 324.644 466.079 324.354 466.224ZM324.354 466.224C324.354 466.224 324.644 466.079 324.935 465.934C324.935 465.934 324.644 466.079 324.354 466.224ZM324.354 466.224C324.354 466.224 324.644 466.079 324.935 465.934C324.935 465.934 324.644 466.079 324.354 466.224ZM324.354 466.224C324.354 466.224 324.644 466.079 324.935 465.934C324.935 465.934 324.644 466.079 324.354 466.224ZM324.354 466.224C324.354 466.224 324.644 466.079 324.935 465.934C324.935 465.934 324.644 466.079 324.354 466.224ZM324.354 466.224C324.354 466.224 324.644 466.079 324.935 465.934C324.935 465.934 324.644 466.079 324.354 466.224ZM324.354 466.224C324.354 466.224 324.644 466.079 324.935 465.934C324.935 465.934 324.644 466.079 324.354 466.224ZM324.354 466.224C324.354 466.224 324.644 466.079 324.935 465.934C324.935 465.934 324.644 466.079 324.354 466.224ZM324.354 466.224C324.354 466.224 324.644 466.079 324.935 465.934C324.935 465.934 324.644 466.079 324.354 466.224ZM324.354 466.224C324.354 466.224 324.644 466.079 324.935 465.934C324.935 465.934 324.644 466.079 324.354 466.224ZM324.354 466.224C324.354 466.224 324.644 466.079 324.935 465.934C324.935 465.934 324.644 466.079 324.354 466.224ZM324.354 466.224C324.354 466.224 324.644 466.079 324.935 465.934C324.935 465.934 324.644 466.079 324.354 466.224ZM324.354 466.224C324.354 466.224 324.644 466.079 324.935 465.934C324.935 465.934 324.644 466.079 324.354 466.224ZM324.354 466.224C324.354 466.224 324.644 466.079 324.935 465.934C324.935 465.934 324.644 466.079 324.354 466.224ZM324.354 466.224C324.354 466.224 324.644 466.079 324.935 465.934C324.935 465.934 324.644 466.079 324.354 466.224ZM324.354 466.224C324.354 466.224 324.644 466.079 324.935 465.934C324.935 465.934 324.644 466.079 324.354 466.224ZM324.354 466.224C324.354 466.224 324.644 466.079 324.935 465.934C324.935 465.934 324.644 466.079 324.354 466.224ZM324.354 466.224C324.354 466.224 324.644 466.079 324.935 465.934C324.935 465.934 324.644 466.079 324.354 466.224ZM324.354 466.224C324.354 466.224 324.644 466.079 324.935 465.934C324.935 465.934 324.644 466.079 324.354 466.224ZM324.354 466.224C324.354 466.224 324.644 466.079 324.935 465.934C324.935 465.934 324.644 466.079 324.354 466.224ZM324.354 466.224C324.354 466.224 324.644 466.079 324.935 465.934C324.935 465.934 324.644 466.079 324.354 466.224ZM324.354 466.224C324.354 466.224 324.644 466.079 324.935 465.934C324.935 465.934 324.644 466.079 324.354 466.224ZM324.354 466.224C324.354 466.224 324.644 466.079 324.935 465.934C324.935 465.934 324.644 466.079 324.354 466.224ZM324.354 466.224C324.354 466.224 324.644 466.079 324.935 465.934C324.935 465.934 324.644 466.079 324.354 466.224ZM324.354 466.224C324.354 466.224 324.644 466.079 324.935 465.934C324.935 465.934 324.644 466.079 324.354 466.224ZM324.354 466.224C324.354 466.224 324.644 466.079 324.935 465.934C324.935 465.934 324.644 466.079 324.354 466.224ZM324.354 466.224C324.354 466.224 324.644 466.079 324.935 465.934C324.935 465.934 324.644 466.079 324.354 466.224ZM324.354 466.224C324.354 466.224 324.644 466.079 324.935 465.934C324.935 465.934 324.644 466.079 324.354 466.224ZM324.354 466.224C324.354 466.224 324.644 466.079 324.935 465.934C324.935 465.934 324.644 466.079 324.354 466.224ZM324.354 466.224C324.354 466.224 324.644 466.079 324.935 465.934C324.935 465.934 324.644 466.079 324.354 466.224ZM324.354 466.224C324.354 466.224 324.644 466.079 324.935 465.934C324.935 465.934 324.644 466.079 324.354 466.224ZM324.354 466.224C324.354 466.224 324.644 466.079 324.935 465.934C324.935 465.934 324.644 466.079 324.354 466.224ZM324.354 466.224C324.354 466.224 324.644 466.079 324.935 465.934C324.935 465.934 324.644 466.079 324.354 466.224ZM324.354 466.224C324.354 466.224 324.644 466.079 324.935 465.934C324.935 465.934 324.644 466.079 324.354 466.224ZM324.354 466.224C324.354 466.224 324.644 466.079 324.935 465.934C324.935 465.934 324.644 466.079 324.354 466.224ZM324.354 466.224C324.354 466.224 324.644 466.079 324.935 465.934C324.935 465.934 324.644 466.079 324.354 466.224ZM324.354 466.224C324.354 466.224 324.644 466.079 324.935 465.934C324.935 465.934 324.644 466.079 324.354 466.224ZM324.354 466.224C324.354 466.224 324.644 466.079 324.935 465.934C324.935 465.934 324.644 466.079 324.354 466.224ZM324.354 466.224C324.354 466.224 324.644 466.079 324.935 465.934C324.935 465.934 324.644 466.079 324.354 466.224ZM324.354 466.224C324.354 466.224 324.644 466.079 324.935 465.934C324.935 465.934 324.644 466.079 324.354 466.224ZM324.354 466.224C324.354 466.224 324.644 466.079 324.935 465.934C324.935 465.934 324.644 466.079 324.354 466.224ZM324.354 466.224C324.354 466.224 324.644 466.079 324.935 465.934C324.935 465.934 324.644 466.079 324.354 466.224ZM324.354 466.224C324.354 466.224 324.644 466.079 324.935 465.934C324.935 465.934 324.644 466.079 324.354 466.224ZM324.354 466.224C324.354 466.224 324.644 466.079 324.935 465.934C324.935 465.934 324.644 466.079 324.354 466.224ZM324.354 466.224C324.354 466.224 324.644 466.079 324.935 465.934C324.935 465.934 324.644 466.079 324.354 466.224ZM324.354 466.224C324.354 466.224 324.644 466.079 324.935 465.934C324.935 465.934 324.644 466.079 324.354 466.224ZM324.354 466.224C324.354 466.224 324.644 466.079 324.935 465.934C324.935 465.934 324.644 466.079 324.354 466.224ZM324.354 466.224C324.354 466.224 324.644 466.079 324.935 465.934C324.935 465.934 324.644 466.079 324.354 466.224ZM324.354 466.224C324.354 466.224 324.644 466.079 324.935 465.934C324.935 465.934 324.644 466.079 324.354 466.224ZM324.354 466.224C324.354 466.224 324.644 466.079 324.935 465.934C324.935 465.934 324.644 466.079 324.354 466.224ZM324.354 466.224C324.354 466.224 324.644 466.079 324.935 465.934C324.935 465.934 324.644 466.079 324.354 466.224ZM324.354 466.224C324.354 466.224 324.644 466.079 324.935 465.934C324.935 465.934 324.644 466.079 324.354 466.224ZM324.354 466.224C324.354 466.224 324.644 466.079 324.935 465.934C324.935 465.934 324.644 466.079 324.354 466.224ZM324.354 466.224C324.354 466.224 324.644 466.079 324.935 465.934C324.935 465.934 324.644 466.079 324.354 466.224ZM324.354 466.224C324.354 466.224 324.644 466.079 324.935 465.934C324.935 465.934 324.644 466.079 324.354 466.224ZM324.354 466.224C324.354 466.224 324.644 466.079 324.935 465.934C324.935 465.934 324.644 466.079 324.354 466.224ZM324.354 466.224C324.354 466.224 324.644 466.079 324.935 465.934C324.935 465.934 324.644 466.079 324.354 466.224Z" fill="#ECECEC"/>
<path d="M653.82 495.268C642.494 489.169 643.22 480.165 643.22 480.165L642.785 458.674C642.785 458.674 642.204 441.974 641.478 417.433C641.478 418.304 641.188 419.175 640.897 419.901C642.059 422.225 641.042 425.129 638.719 426.436C636.105 428.033 632.911 426.872 630.733 424.984C628.845 423.387 626.958 419.901 629.862 418.304C631.314 417.433 632.621 418.304 633.927 418.885C635.379 419.756 637.993 419.611 637.993 417.433C637.848 415.255 641.042 415.109 641.478 417.142C640.316 368.35 639.155 289.063 643.801 251.162C644.527 245.063 647.577 239.545 651.933 235.189C690.847 197.578 608.662 209.776 578.169 207.162C558.131 207.888 553.34 223.426 569.893 232.284C569.893 232.284 582.38 239.835 582.09 244.482C582.09 244.482 590.366 263.941 588.334 280.786C587.753 285.433 587.317 290.08 587.608 294.726C588.769 307.796 585.865 331.466 586.736 350.198L587.462 351.215C586.736 357.314 584.558 369.512 586.736 375.466C589.786 395.651 588.043 397.393 586.301 416.416C584.994 432.245 587.753 450.251 584.703 466.37C583.251 473.921 578.46 480.311 572.361 485.248C536.932 513.855 614.906 510.225 636.396 509.644C641.914 509.499 656.724 506.159 656.724 506.159C665.001 501.657 653.82 495.268 653.82 495.268ZM629.426 239.981C632.04 239.545 635.379 240.126 635.815 243.175C636.105 244.482 635.525 245.644 634.653 246.515C633.492 247.532 632.911 248.258 632.621 249.71C632.185 251.888 628.845 251.017 629.281 248.839C629.426 247.677 630.152 246.66 630.878 245.644C630.733 245.499 630.588 245.499 630.588 245.354C630.297 244.337 629.862 243.756 628.99 243.175C627.829 242.449 627.829 240.271 629.426 239.981ZM621.73 231.849C622.602 230.832 624.344 231.558 624.634 232.72C625.506 234.898 624.925 237.512 623.182 239.255C621.876 240.561 619.988 238.964 620.569 237.367C620.278 237.076 620.133 236.931 620.133 236.495C620.133 234.753 620.714 233.301 621.73 231.849ZM616.648 288.047C616.648 288.047 616.503 288.047 616.503 288.192C616.358 288.627 616.358 289.208 615.922 289.644C615.196 290.225 614.18 290.225 613.454 289.644C612.873 289.063 612.873 288.337 613.309 287.611C612.873 286.449 612.728 285.142 613.454 283.981C613.889 282.964 615.487 282.819 616.067 283.545C617.229 284.852 617.229 286.449 616.648 288.047ZM620.278 427.017C620.278 427.017 620.278 426.436 620.133 426.146H619.988C618.1 423.677 618.536 420.337 620.569 418.014C621.73 416.707 623.763 418.159 623.328 419.756C623.037 421.934 623.037 423.967 623.618 426.146C624.199 428.324 620.859 429.195 620.278 427.017ZM623.182 286.304V285.868C623.182 285.868 622.166 285.578 621.73 285.288C619.843 283.835 619.697 281.802 618.971 279.769C618.536 278.027 617.374 276.575 618.1 274.687C618.536 273.235 619.988 272.218 621.585 272.654C623.618 273.09 625.07 275.558 626.086 277.301C627.248 279.043 628.555 281.367 628.845 283.545C629.281 286.885 625.36 289.354 623.182 286.304ZM631.895 435.439C631.895 435.439 630.588 435.73 630.007 436.02C628.555 436.311 627.829 435.149 627.974 433.987C627.684 433.406 627.684 432.68 627.684 431.954C627.684 431.809 627.684 431.809 627.684 431.809C627.684 431.809 627.393 431.083 627.684 430.792C627.974 430.066 628.555 429.631 629.426 429.631C630.152 429.631 630.733 430.066 631.023 430.792C631.023 430.938 631.314 431.519 631.459 431.664C631.459 431.664 631.604 431.664 631.749 431.954C632.04 431.954 632.185 432.245 632.475 432.245C633.782 432.971 633.347 435.004 632.04 435.439H631.895Z" fill="#ECECEC"/>
<path d="M1025.69 229.38L1038.46 226.185H1048.77L1059.95 234.027L1067.36 235.188C1067.36 235.188 1079.41 230.106 1083.48 230.832C1086.38 231.413 1092.62 237.657 1092.62 237.657C1103.81 241.578 1121.37 245.644 1127.18 255.954C1136.77 281.802 1160 277.591 1152.88 244.337C1152.88 244.337 1150.71 222.119 1146.06 216.891C1143.88 214.423 1133.72 212.245 1133.72 212.245L1117.89 209.921L1102.35 212.535L1084.49 209.921L1066.34 207.598H1038.9L1034.69 211.518L1006.23 207.598L1000.57 214.568L989.675 210.938L955.407 207.598C918.381 211.373 946.695 230.251 961.216 241.287C964.265 243.466 966.007 246.806 966.443 250.581L968.911 277.301L973.558 288.047L965.862 298.938L963.829 347.584L969.202 360.218L964.846 371.545L963.394 447.347C962.958 470 958.747 475.954 940.887 490.766C907.49 518.357 993.16 505.287 1007.68 509.208C1034.83 509.499 1067.65 510.37 1093.79 508.482C1098.87 508.047 1103.81 508.627 1108.74 509.789C1134.44 516.033 1144.61 511.822 1141.99 483.505C1142.43 475.954 1146.35 407.848 1117.31 445.459V445.023L1110.48 456.641L1108.6 468.984L1100.32 476.245C1095.67 480.311 1090.01 482.779 1084.06 483.505L1072.01 484.957L1060.24 489.604L1035.41 488.007C1035.41 488.007 1023.51 482.779 1022.78 473.195L1021.18 464.627C1020.31 460.707 1020.02 456.786 1020.02 452.865C1020.02 449.67 1020.17 446.476 1020.75 443.281C1021.62 438.489 1020.46 433.551 1017.55 429.631L1012.33 422.66H1020.6L1022.93 404.073C1023.8 397.683 1023.22 391.149 1021.04 385.05L1018.72 378.515C1018.72 378.515 1017.12 363.703 1026.85 364.865L1031.78 366.172C1038.17 367.769 1044.13 370.528 1049.5 374.449L1055.16 378.515H1067.94L1077.96 395.796C1082.46 403.637 1092.48 399.136 1092.48 399.136C1098.29 394.779 1094.66 382.146 1095.09 370.964C1095.96 358.911 1094.37 348.02 1094.22 339.452C1093.21 291.241 1075.49 321.155 1058.94 335.822L1049.64 339.743L1036.14 342.792L1024.52 336.258L1023.65 323.624C1023.51 320.72 1023.36 317.815 1023.36 314.766V299.518L1019.15 289.934C1019.15 289.934 1023.8 273.67 1024.52 272.799C1025.25 271.782 1022.64 255.228 1022.64 255.228V242.014L1025.69 229.38ZM1127.91 230.106C1129.65 227.637 1134.01 227.056 1135.46 230.106C1137.06 233.155 1133.43 236.786 1130.38 235.188C1129.51 234.753 1129.51 233.881 1129.65 233.301C1129.36 233.01 1128.93 232.72 1128.64 232.429C1127.91 231.994 1127.47 230.977 1127.91 230.106ZM1119.92 228.799C1121.37 229.525 1122.97 231.122 1123.12 232.865C1123.12 234.462 1122.25 236.205 1120.65 236.495C1119.63 236.641 1118.76 236.35 1118.47 235.334V235.043C1116.87 234.027 1115.28 232.575 1115.86 230.687C1116.29 228.799 1118.18 227.782 1119.92 228.799ZM1126.75 465.499C1127.62 464.482 1129.8 464.773 1129.8 466.515C1131.83 469.274 1132.12 473.195 1130.09 475.954C1129.07 477.406 1127.04 476.971 1126.89 475.083C1126.89 472.614 1126.6 470.146 1126.46 467.532C1125.88 466.806 1126.17 465.934 1126.75 465.499ZM1123.12 476.68C1125.15 477.406 1126.31 479.73 1125.44 481.763C1124.42 483.505 1122.1 484.086 1120.36 483.215C1119.49 482.779 1119.49 481.617 1119.78 480.891C1120.07 480.165 1120.94 479.875 1121.52 479.439C1121.08 479.004 1120.79 478.568 1120.94 477.987C1121.23 477.116 1122.25 476.39 1123.12 476.68ZM1118.18 462.74C1120.94 464.918 1122.54 468.403 1122.25 471.888C1122.25 474.066 1118.76 474.066 1118.76 471.888C1118.91 471.743 1118.76 471.598 1118.76 471.452C1116.58 469.565 1115.13 466.951 1115.28 463.901C1115.28 462.304 1117.02 461.723 1118.18 462.74ZM1027.72 491.347L1028.01 491.492C1028.44 490.911 1029.17 490.476 1029.75 490.766C1031.06 491.202 1032.37 491.783 1032.95 493.089C1033.67 494.396 1033.53 496.139 1032.22 497.155C1031.06 498.027 1029.32 497.736 1028.15 496.865C1027.14 495.994 1026.7 494.687 1026.56 493.525C1026.27 492.654 1026.7 491.637 1027.72 491.347ZM988.078 239.254C985.755 240.561 980.382 242.594 979.076 238.819C977.624 234.608 984.884 234.898 987.062 234.608C988.659 234.462 988.95 236.06 988.514 237.076C988.804 237.947 988.949 238.819 988.078 239.254ZM982.706 230.687C980.818 229.67 980.092 227.782 980.963 225.749C981.254 225.314 981.835 224.878 982.415 224.878C985.174 225.169 987.788 225.314 990.547 225.459C992.434 225.749 992.58 228.363 990.982 228.799C990.692 229.525 990.402 230.106 989.53 230.106C987.062 230.396 985.174 231.994 982.706 230.687ZM990.402 460.852C990.402 460.852 989.385 459.69 989.675 458.819C989.675 458.093 990.111 457.221 990.256 456.495C990.111 456.06 990.256 455.479 990.402 455.043C990.982 454.317 991.999 454.027 992.725 454.462C994.467 455.334 995.629 457.367 994.903 459.254C994.177 460.852 991.999 461.868 990.402 460.852ZM995.338 235.188C995.338 233.591 996.355 232.284 997.807 231.703C999.259 231.268 1000.86 231.703 1001.73 232.865C1002.45 233.591 1002.31 234.608 1002.31 235.624C1002.31 236.495 1002.31 237.367 1002.31 238.238C1002.45 240.126 1000.13 240.416 999.259 239.109C998.678 239.4 997.952 239.4 997.371 238.964C996.21 237.947 995.048 236.786 995.193 235.188H995.338ZM1010.44 463.611C1009.71 461.868 1009.57 460.126 1009.71 458.238V457.802C1009.71 457.802 1009.71 457.221 1009.71 456.931C1009.86 456.786 1009.71 456.495 1009.86 456.35C1010.15 454.172 1013.49 455.188 1013.2 457.367C1013.05 457.367 1013.2 457.657 1013.05 457.802C1013.34 459.4 1013.63 461.142 1013.78 462.74C1014.21 464.918 1011.31 465.644 1010.44 463.611ZM1011.75 447.782C1010 448.944 1007.83 449.235 1006.23 450.396C1004.05 451.994 1002.31 454.172 1000.57 456.06C999.114 457.802 996.645 455.334 998.097 453.736C999.259 452.284 1000.42 451.122 1001.58 450.106C1001.58 449.815 1001.58 449.525 1001.58 449.089C1001.87 447.637 1002.02 446.476 1001.58 445.023C1001.58 444.733 1001.73 444.588 1001.73 444.297C1000.13 442.119 998.678 439.36 1001.44 438.053C1004.49 436.601 1009.86 437.327 1012.04 439.941C1013.92 442.119 1014.36 445.895 1011.75 447.782ZM1081.44 339.307C1082.9 338.872 1084.35 339.888 1085.07 341.05C1085.36 341.631 1085.51 342.357 1085.51 343.083C1085.51 343.954 1085.22 344.825 1085.51 345.697C1085.65 346.132 1085.51 346.423 1085.36 346.713C1085.65 348.311 1083.33 349.617 1082.17 348.02C1080.86 345.987 1077.52 340.614 1081.44 339.307Z" fill="#ECECEC"/>
<path d="M1392.32 472.614C1367.49 473.631 1367.64 449.089 1366.91 431.228C1366.04 409.155 1360.67 374.74 1339.76 363.268C1368.66 347.584 1392.76 321.736 1392.76 293.419C1392.76 284.416 1390.29 274.977 1384.77 265.683C1381.29 257.261 1379.26 252.614 1375.48 247.096L1365.17 248.258L1354.86 231.558C1354.86 231.558 1342.52 219.215 1318.85 215.439L1282.7 209.195L1244.51 207.598L1201.38 209.34C1184.39 207.888 1174.96 222.41 1194.12 233.591C1194.12 233.591 1202.83 241.433 1201.82 255.373L1203.12 330.159L1204.29 390.568C1203.27 406.106 1201.09 439.215 1202.69 455.334C1207.34 500.641 1153.61 501.076 1193.54 511.677C1204.29 512.984 1221.42 506.159 1230.28 507.756C1266.87 511.967 1330.03 518.212 1263.96 479.875L1264.55 475.809L1260.77 458.674C1260.33 456.35 1260.04 453.881 1260.04 451.558L1260.33 437.617L1252.35 436.891L1259.32 426.726L1260.92 409.591C1261.35 405.961 1260.77 402.33 1259.61 398.99L1257 384.759C1257 384.759 1252.49 371.254 1270.64 371.98L1280.81 371.254C1280.81 371.254 1293.59 371.254 1297.22 384.469L1302.3 391.294C1304.91 394.924 1306.94 398.99 1308.11 403.347L1309.12 407.558C1309.99 410.608 1310.28 413.657 1310.28 416.707L1309.99 427.017L1312.9 439.796L1315.08 453.591C1315.37 455.479 1315.66 457.221 1316.38 458.964C1320.01 469.565 1333.81 507.32 1348.18 510.515C1348.18 510.515 1368.37 519.809 1379.98 506.885C1379.98 506.885 1397.99 493.38 1397.12 479.149C1396.68 472.614 1392.32 472.614 1392.32 472.614ZM1370.98 317.089C1371.85 316.218 1373.3 316.509 1373.74 317.38C1374.03 317.961 1374.46 318.542 1374.75 319.122H1374.9C1375.77 319.413 1376.79 320.429 1376.93 321.301C1377.22 321.881 1377.08 322.462 1376.93 323.043C1377.08 323.043 1377.08 323.043 1377.22 323.334C1378.09 325.076 1376.06 326.383 1374.75 325.512C1373.01 326.238 1370.83 325.512 1369.82 323.769C1368.51 321.446 1369.38 318.832 1370.98 317.089ZM1357.33 253.05C1358.93 251.598 1361.69 250.872 1363.72 252.179C1364.74 252.905 1365.46 254.066 1365.03 255.228C1364.74 256.099 1363.86 256.68 1362.99 256.825C1360.96 257.551 1358.78 256.825 1357.33 255.518C1356.6 254.938 1356.6 253.776 1357.33 253.05ZM1221.57 212.825C1222 211.518 1223.89 211.083 1224.76 212.39C1226.36 215.294 1227.37 218.489 1227.66 221.829C1227.81 223.136 1226.65 223.571 1225.63 223.281C1225.05 223.281 1224.47 223.281 1223.89 222.99C1221.13 220.377 1220.11 216.311 1221.57 212.825ZM1215.18 226.766C1215.18 226.766 1213.29 227.492 1212.71 226.476C1211.4 224.297 1206.75 218.779 1210.68 216.891C1215.03 214.858 1215.9 222.264 1216.48 224.733C1216.77 225.895 1216.05 226.621 1215.18 226.766ZM1229.41 324.06C1229.41 324.06 1228.97 324.495 1228.83 324.641C1228.54 325.367 1228.1 325.802 1227.23 325.947C1224.18 326.093 1221.13 324.786 1219.24 322.317C1217.64 320.429 1216.05 316.654 1218.95 315.202C1224.47 312.588 1232.89 317.815 1229.41 324.06ZM1240.15 333.789C1238.41 333.789 1238.12 331.901 1238.99 330.885C1238.84 330.74 1238.7 330.449 1238.55 330.304C1237.97 329.578 1237.83 328.561 1238.55 327.835C1239.43 326.964 1240.44 326.093 1241.6 325.367C1242.18 324.931 1243.2 325.076 1243.64 325.657C1246.25 328.707 1244.07 333.644 1240.15 333.789ZM1235.65 308.522C1240.44 307.505 1244.65 311.716 1243.93 316.363C1243.93 317.38 1242.62 317.815 1241.89 317.67C1241.17 317.38 1240.88 316.799 1240.73 316.218C1240.3 316.509 1239.86 316.799 1239.28 316.509C1236.52 315.492 1234.78 313.169 1234.34 310.119C1234.34 309.538 1235.07 308.667 1235.65 308.522ZM1230.71 333.208C1230.71 333.208 1230.42 332.047 1230.71 331.466C1230.13 330.594 1230.13 329.433 1231 328.561C1232.89 326.383 1236.23 328.271 1236.81 330.74C1237.39 333.063 1235.8 336.113 1233.04 335.532C1232.02 335.241 1231 334.37 1230.71 333.208ZM1233.76 477.842C1234.2 472.759 1239.72 471.307 1243.93 472.324C1245.38 472.614 1245.38 474.066 1244.65 475.083C1245.09 475.954 1245.38 476.971 1245.52 477.842C1245.81 479.004 1246.25 480.165 1246.25 481.327C1246.25 483.796 1244.07 484.377 1242.18 484.231C1238.26 484.231 1233.33 482.634 1233.76 477.842ZM1249.3 491.202C1249.01 492.073 1248.43 492.654 1247.7 493.235C1246.4 494.106 1244.65 494.251 1243.2 493.525C1242.18 492.944 1242.18 491.637 1242.91 490.766C1243.93 489.749 1245.09 489.169 1246.4 488.733C1246.54 488.297 1246.83 487.862 1247.41 487.716C1247.99 487.571 1248.72 487.862 1249.15 488.443C1249.73 488.878 1250.17 489.314 1250.17 489.895C1250.17 490.621 1249.73 490.911 1249.3 491.202ZM1334.53 308.667L1331.34 317.235L1325.24 326.383C1323.79 328.707 1321.9 330.74 1319.87 332.482L1319.58 332.773C1314.06 337.71 1306.8 340.324 1299.39 340.324H1276.6C1276.6 340.324 1262.66 341.485 1262.08 334.951V295.888L1251.91 286.74L1255.83 278.317L1260.77 255.518C1260.77 255.518 1262.8 238.383 1269.77 237.076C1269.77 237.076 1281.1 232.72 1291.84 234.608C1302.59 238.238 1312.03 244.627 1319.29 253.34L1323.93 258.858C1327.27 263.07 1329.45 268.152 1330.03 273.525L1331.05 281.657C1331.19 283.254 1331.63 284.852 1332.21 286.304L1334.39 291.677C1336.57 297.195 1336.57 303.149 1334.53 308.667ZM1347.46 470.436C1345.71 470.291 1344.26 469.419 1343.39 467.822C1342.37 465.934 1342.67 463.756 1342.96 461.723L1343.39 461.287C1343.39 461.287 1343.68 460.707 1343.83 460.707C1344.55 459.98 1345.86 459.69 1346.44 460.852C1347.75 463.175 1348.62 465.644 1349.2 468.258C1349.34 469.274 1348.76 470.436 1347.46 470.436Z" fill="#ECECEC"/>
<path d="M897.326 387.083C895.439 384.614 893.987 382.581 893.842 381.855C893.261 380.112 884.258 367.043 884.258 367.043L875.401 359.637L859.574 346.132C855.508 342.792 850.716 340.469 845.489 339.597L820.804 335.677L813.689 323.188H802.509C800.621 323.188 794.813 316.653 794.813 316.653L783.487 307.795L767.515 302.422L760.4 290.515L760.109 289.498C755.318 262.779 774.484 237.657 801.492 234.752C813.98 233.3 823.854 234.026 831.259 235.333C840.842 236.931 849.409 242.013 856.089 249.129L860.009 253.195L879.612 263.795V272.799L889.631 284.561C889.631 284.561 899.214 288.627 901.828 287.03C905.458 284.561 906.765 274.106 907.2 266.99C907.491 262.779 906.474 258.713 904.296 255.083L898.488 245.498L900.521 226.475L897.472 214.132L882.661 211.083C882.661 211.083 876.127 210.647 864.365 208.178C857.686 206.726 850.716 206 843.892 206H805.994C795.103 206 784.358 208.469 774.339 212.97L773.613 213.261C769.983 215.003 766.063 216.165 761.997 217.036L757.35 217.908C752.268 218.779 747.622 221.102 743.847 224.587L742.975 225.314C736.441 231.122 731.214 238.238 727.584 246.224L724.825 252.614L720.033 259.584C716.984 264.376 714.951 269.749 714.37 275.413L712.337 292.983C711.611 300.389 712.483 307.795 714.951 314.766L716.548 319.267C716.839 320.284 717.274 321.3 717.71 322.172L725.987 339.743L727.148 349.908L734.263 350.488L748.493 360.218C755.027 364.719 762.868 367.043 770.854 366.752L788.86 366.462L792.925 375.32L803.09 383.017L817.9 391.875C820.659 393.472 823.273 395.36 825.886 397.248L838.664 406.832C840.262 407.993 841.859 409.155 843.601 410.172L852.023 415.254C854.491 416.706 855.944 419.03 856.234 421.789L857.105 431.083C857.396 434.713 857.541 438.198 857.541 441.828L856.96 457.802L850.571 462.594L841.568 477.987L827.919 479.149C801.928 486.554 781.164 481.182 772.016 477.842C768.676 476.535 766.063 474.502 764.03 471.597L759.964 465.934C757.931 462.884 755.318 460.271 752.268 458.092L742.54 451.122C739.345 448.944 736.586 446.185 734.118 443.135L731.214 439.65C728.455 436.31 726.277 432.68 724.389 428.759C724.389 428.759 722.502 421.644 720.614 420.482C716.839 418.158 703.335 416.561 702.754 421.063C700.866 438.488 702.754 488.587 702.754 488.587C706.384 497.591 718.872 499.914 718.872 499.914H730.488C733.828 499.914 737.022 500.35 740.071 501.366L760.835 507.465C760.835 507.465 761.852 507.756 762.287 507.901L775.646 512.984C778.841 514.145 782.325 514.29 785.665 513.564L809.914 508.337C811.656 507.901 813.399 507.756 815.141 507.756H838.084L844.327 505.432C880.919 492.508 874.239 497.446 896.891 467.822C899.795 464.046 900.957 462.013 900.957 462.013C907.345 451.848 910.25 441.683 910.976 432.535C912.282 416.416 906.765 400.297 897.326 387.083ZM871.916 241.142C872.497 239.545 873.368 238.092 874.53 236.931C875.256 236.205 876.272 236.35 876.998 236.931C880.047 239.399 877.724 244.627 874.094 244.772C872.932 244.772 872.351 243.756 872.497 242.884C871.916 242.449 871.625 242.013 871.916 241.142ZM871.48 249.564C871.48 249.564 871.625 248.984 871.771 248.838C872.497 248.112 873.658 248.112 874.239 248.838C874.53 249.129 874.82 249.419 875.11 249.71C876.272 250.871 875.401 252.614 873.949 252.759H871.916C871.045 252.904 870.319 252.033 870.319 251.017C870.173 250.29 870.754 249.71 871.48 249.564ZM736.877 278.172C742.104 277.01 748.493 281.512 746.751 287.175C746.17 289.063 743.556 288.482 743.556 286.594C742.83 286.449 742.249 286.013 742.249 285.142C742.249 284.416 738.91 284.851 738.474 284.851C737.167 284.706 736.151 284.271 735.425 283.109C734.118 281.366 734.554 278.752 736.877 278.172ZM741.668 326.528C739.781 324.35 739.2 320.574 738.764 317.96C738.038 314.33 737.603 310.554 737.603 306.779C737.603 304.601 741.088 304.601 741.088 306.779C741.088 309.683 741.378 312.442 741.814 315.347C742.104 315.056 742.394 314.911 742.83 314.766C747.041 313.749 751.397 319.267 750.962 322.898C750.526 327.254 744.863 330.158 741.668 326.528ZM767.224 343.373C766.498 343.663 765.482 343.228 765.191 342.502C764.756 341.63 764.756 340.759 765.337 339.888C765.482 339.597 765.772 339.743 765.917 339.597C765.772 338.726 766.208 337.71 767.079 337.564C767.95 337.419 768.676 337.564 769.402 338.29C769.983 338.726 770.128 339.597 770.128 340.323C770.128 342.066 768.531 342.937 767.224 343.373ZM721.34 463.175C721.34 463.175 723.373 462.449 723.954 463.465C724.389 464.337 724.825 465.208 725.115 466.079C725.26 467.096 724.68 467.967 723.808 468.257C722.937 468.548 721.921 467.967 721.776 467.096C721.776 466.951 721.63 466.951 721.63 466.951C721.485 466.805 721.34 466.951 721.195 466.805C720.324 465.789 720.178 464.046 721.34 463.175ZM733.537 477.551C730.923 481.036 726.858 482.634 722.502 481.762C720.324 481.327 721.195 478.132 723.228 478.422C723.373 478.422 723.228 478.422 723.373 478.132C725.696 475.809 728.745 474.647 732.085 474.937C733.247 474.937 734.408 476.389 733.537 477.551ZM734.989 473.34C733.827 474.066 732.811 473.195 732.521 472.178C732.23 472.033 731.94 471.743 731.94 471.452C730.923 468.693 730.197 464.918 731.214 462.158C732.085 459.98 734.844 458.673 736.877 460.416C738.619 461.868 738.474 465.498 738.329 467.531C738.038 470 737.022 472.033 734.989 473.34ZM744.427 474.647C744.137 476.099 741.814 476.389 741.233 475.083C740.652 473.921 740.362 472.759 740.652 471.452C740.797 470.871 741.233 470.581 741.668 470.436C741.959 469.564 742.975 468.983 743.847 469.274C744.718 469.564 745.153 470.436 745.008 471.452C744.718 472.469 744.573 473.63 744.427 474.647ZM874.239 404.653C874.239 404.653 873.658 405.089 873.223 405.234C872.932 405.525 872.642 405.67 872.352 405.815C871.48 406.251 870.464 405.96 869.883 405.089C869.738 404.799 869.738 404.508 869.738 404.218C869.593 403.782 869.302 403.201 869.302 402.766C869.302 401.168 870.464 400.007 871.916 399.716C873.368 399.571 874.965 400.587 875.401 402.04C875.401 402.33 875.546 402.62 875.546 402.911C875.401 403.782 874.965 404.363 874.239 404.653ZM878.305 394.488C876.708 394.198 875.256 393.762 874.239 392.455C873.513 391.294 873.368 389.842 874.094 388.68C874.82 387.228 876.562 386.792 878.014 387.518C879.176 388.244 879.757 389.551 880.047 390.713C880.192 391.149 880.047 391.439 880.047 391.729C880.338 392.165 880.483 392.746 880.338 393.182C880.047 394.198 879.176 394.634 878.305 394.488ZM887.888 412.205C887.888 413.947 885.71 414.238 884.839 413.076C884.403 413.076 884.113 412.785 883.968 412.35C882.661 409.446 877.724 400.733 883.968 399.861C886.146 399.426 887.598 401.314 887.743 403.201C888.179 406.106 887.888 409.3 887.888 412.205Z" fill="#ECECEC"/>
<path d="M1656.74 216.02C1654.13 213.406 1640.48 214.713 1640.48 214.713L1627.26 215.149C1627.26 215.149 1624.5 208.904 1623.2 207.598C1621.89 206.145 1602.14 207.598 1602.14 207.598C1602.14 207.598 1583.7 206.581 1575.14 207.598C1569.04 208.324 1574.26 222.7 1574.26 222.7L1586.17 234.172C1595.03 241.287 1593.72 249.129 1593.72 249.129C1593.29 259.294 1589.8 263.215 1589.8 263.215L1572.96 283.545V292.838L1567.29 298.066L1551.32 316.654C1549.58 319.703 1544.79 321.881 1544.79 321.881C1538.54 323.188 1533.32 312.152 1533.32 312.152V303.875L1511.25 296.324L1504.13 281.367L1499.34 271.637L1492.37 262.343V250L1486.13 243.32V230.977L1492.37 226.185L1491.79 217.327C1494.4 208.904 1487.87 207.017 1487.87 207.017L1461.88 207.598H1435.3C1432.4 207.598 1429.5 207.598 1426.59 207.888L1400.02 209.776C1400.02 209.776 1389.57 210.066 1386.81 214.713C1380.71 225.169 1395.23 229.961 1395.23 229.961L1402.92 234.753L1407.86 244.918L1414.25 250.436L1420.78 255.664C1426.3 260.02 1431.38 264.957 1435.74 270.475L1439.95 275.703L1449.97 285.287L1452.73 296.178L1464.64 315.202C1466.52 318.396 1469.14 321.301 1472.19 323.479L1481.19 330.013L1482.06 343.228L1495.71 353.538C1504.28 359.492 1505.15 375.32 1505.15 375.32L1503.55 406.396C1503.41 409.446 1503.55 412.64 1503.99 415.835L1506.02 431.518L1501.52 445.459L1503.84 463.175C1506.02 467.677 1503.84 481.182 1503.84 481.182C1503.84 481.182 1490.92 495.848 1482.64 500.06C1482.64 500.06 1471.17 509.934 1487.14 509.644L1511.54 507.466L1522.86 506.594L1538.25 511.532H1584.43C1594.3 511.532 1590.67 500.786 1590.67 500.786C1587.19 489.895 1580.8 488.007 1580.8 488.007C1571.65 483.36 1569.04 475.373 1569.04 475.373L1565.84 455.043L1561.34 435.149C1561.34 435.149 1560.32 425.565 1559.89 423.822C1559.45 421.934 1561.34 406.541 1561.34 406.541C1561.34 406.541 1560.32 401.604 1559.02 399.281C1557.71 397.102 1563.52 393.908 1563.52 393.908L1563.95 385.34L1562.65 367.188L1564.1 354.99L1572.09 345.261L1574.26 332.918L1582.25 327.254L1587.48 322.027L1592.41 310.845L1598.51 302.858V295.452L1603.45 295.888L1609.11 287.466L1620.15 274.251L1630.31 261.472L1637.86 250L1644.83 240.271L1650.21 236.786C1655.87 235.043 1659.35 232.284 1662.98 227.928C1666.47 223.571 1659.35 218.634 1656.74 216.02ZM1521.41 333.789C1521.27 334.66 1520.54 335.386 1519.38 335.096C1517.78 334.66 1516.04 333.934 1515.31 332.337C1514.59 330.594 1515.31 328.852 1516.91 327.98C1518.51 326.964 1520.54 327.4 1521.7 328.997C1522.57 330.304 1522.57 332.337 1521.56 333.644C1521.56 333.644 1521.51 333.692 1521.41 333.789ZM1526.64 436.891C1526.2 438.198 1524.31 438.924 1523.44 437.472C1522.57 435.73 1521.99 433.842 1521.99 431.954C1522.14 430.792 1523.15 429.921 1524.31 430.211C1526.64 430.937 1528.09 433.406 1527.51 435.875C1527.36 436.456 1526.93 436.746 1526.64 436.891ZM1536.08 429.631C1535.79 431.373 1533.61 431.083 1533.03 429.776C1532.3 429.921 1531.43 429.631 1531.28 428.614C1530.7 426.581 1528.53 420.627 1532.59 420.627C1534.48 420.627 1535.35 422.515 1535.79 424.112C1536.37 425.855 1536.37 427.743 1536.08 429.631ZM1592.85 299.083C1592.85 299.083 1592.41 300.39 1591.54 300.825C1590.82 301.116 1590.09 301.406 1589.22 301.697C1588.35 301.987 1587.33 301.261 1587.19 300.39C1587.04 299.954 1587.19 299.664 1587.33 299.373C1586.61 298.937 1585.74 298.211 1586.17 297.195C1586.75 295.888 1587.62 294.726 1589.08 294.145C1590.24 293.855 1591.69 294.145 1592.56 295.017C1593.72 296.178 1593.58 297.921 1592.85 299.083ZM1626.97 230.251V230.541C1626.97 230.541 1626.54 231.558 1626.25 231.848C1626.1 231.848 1626.1 231.994 1626.1 231.994C1623.78 233.591 1620.73 231.994 1620 229.525C1619.28 226.766 1621.46 223.716 1624.21 223.426C1626.83 223.135 1627.12 225.604 1627.12 227.782C1627.41 228.799 1627.26 229.38 1626.97 230.251Z" fill="#ECECEC"/>
</svg>
