<svg width="1825" height="720" viewBox="0 0 1825 720" fill="none" xmlns="http://www.w3.org/2000/svg">
<g clip-path="url(#clip0_1218_2456)">
<path d="M502.115 225.533H402.901V268.31L341.463 279.818V225.431H285.192V268.31L223.76 279.818V225.431H143.613V197.318H223.76V151.701H285.192V197.318H341.463V151.701H402.901V197.318H423.412L455.624 167.248L502.115 225.533Z" fill="#ECECEC"/>
<path d="M1681.65 221.77H1581.42V264.412L1520.73 275.433V221.77H1463.01V263.931L1401.57 275.433V221.77H1319.74V193.658H1401.57V147.316H1463.01V193.658H1520.73V147.316H1581.42V193.658H1602.84L1635.16 163.486L1681.65 221.77Z" fill="#ECECEC"/>
<path d="M254.476 366.927H281.351V571.716L218.321 582.578V419.645C218.321 419.645 171.026 484.181 131 504.628L222.213 279.817L285.674 311.709C275.69 331.93 265.395 350.136 254.476 366.927Z" fill="#ECECEC"/>
<path d="M497.015 549.635C497.015 565.583 484.629 578.641 468.934 579.733C468.225 579.79 467.512 579.812 466.792 579.812H314.628V283.886L377.029 288.197V373.265L497.015 295.139L377.749 473.902V518.705H438.937L494.375 440.358L479.433 522.224C489.813 526.999 497.015 537.476 497.015 549.635Z" fill="#ECECEC"/>
<path d="M905.696 367.861L859.778 309.107H882.493L838.02 251.28H901.696L855.619 191.214L825.543 223.485H805.066C805.066 223.485 861.376 189.137 874.816 158.948L820.744 141.534L788.849 223.485H747.413C747.413 223.485 765.278 215.547 769.12 204.475C769.12 204.475 776.588 188.289 762.292 175.508C762.292 175.508 729.015 148.459 673.13 141.534L734.562 222.579H671.849L648.171 191.055L625.563 215.123V152.08L565.83 151.701V223.032H522.105V250.296H557.512L511.135 519.966C510.999 520.763 512.104 521.114 512.45 520.39C533.012 485.347 551.285 449.89 565.83 410.598V582.578L626.203 571.993V364.28L640.81 421.246C640.81 421.246 672.167 408.324 670.036 367.861H905.696ZM799.252 251.303H836.768L807.57 281.232H799.252V251.303ZM799.252 309.107L857.171 309.09L829.572 339.669H799.252V309.107ZM625.347 276.757V250.239H735.418V281.232H667.583V309.667C667.583 311.262 735.418 309.667 735.418 309.667V340.014H666.625C656.704 295.127 625.347 276.757 625.347 276.757Z" fill="#ECECEC"/>
<path d="M822.535 464.459C867.971 441.031 880.771 408.234 880.771 408.234L840.241 376.71L803.547 447.424L800.136 443.164V376.71H693.908L693.692 402.644H750.223V431.317L712.521 405.145L701.585 430.067H646.55V455.837H690.066L638.873 571.275C664.466 567.02 688.576 538.076 688.576 538.076L754.275 568.933L754.411 568.899C758.502 576.463 766.514 581.606 775.727 581.606C789.087 581.606 799.921 570.788 799.921 557.448V481.5C813.146 531.66 861.784 581.606 861.784 581.606L897.832 534.749L822.535 464.459ZM750.308 532.701H694.208C733.673 495.621 750.308 458.536 750.308 458.536V532.701Z" fill="#ECECEC"/>
<path d="M1219.55 435.962H1149.96V333.406H1253.16L1207.08 273.979L1176.84 306.086H1149.96V226.053H1295.39L1250.27 165.676L1219.55 198.739H1027.57C1027.57 198.739 1042.45 170.468 1046.29 157.048L983.9 135L912.388 349.219C912.388 349.219 956.063 330.527 1015.1 225.578H1085.65V306.086H980.54V435.962H916.224V463.277H1085.65V585L1149.96 572.542V462.796H1294.43L1250.27 403.374L1219.55 435.962ZM1085.65 435.373H1042.13V333.457H1085.65V435.373Z" fill="#ECECEC"/>
<path d="M1589.77 487.531H1529.58V454.604H1693L1646.61 395.165L1620.42 420.149V378.831H1692.9L1647.42 320.552L1620.42 346.312V307.223H1674.89L1628.39 247.654L1596.11 278.454H1327.58V307.223H1371.29V350.855H1302.34V378.594H1371.29V426.282H1302.34V454.604H1464.39V487.531H1338.9V516.3H1464.39V583.897L1529.58 571.914V516.3H1667.8L1621.75 456.731L1589.77 487.531ZM1529.58 307.223H1558.88V350.855H1529.58V307.223ZM1529.58 378.594H1558.88V426.282H1529.58V378.594ZM1464.39 426.282H1432.75V378.594H1464.39V426.282ZM1464.39 350.855H1432.75V307.223H1464.39V350.855Z" fill="#ECECEC"/>
</g>
<defs>
<clipPath id="clip0_1218_2456">
<rect width="1562" height="450" fill="white" transform="translate(131 135)"/>
</clipPath>
</defs>
</svg>
