<svg width="1825" height="720" viewBox="0 0 1825 720" fill="none" xmlns="http://www.w3.org/2000/svg">
<g clip-path="url(#clip0_1214_2576)">
<path d="M127.511 220.852H2.76891C1.26713 220.852 0 222.072 0 223.62V252.483C0 253.891 1.26713 254.923 2.67505 254.642C10.9349 252.811 36.6529 247.602 55.2375 249.855C55.2375 249.855 9.43308 327.994 55.0028 437.39C55.1436 437.718 55.4252 437.906 55.8006 437.906H90.9048C92.2189 437.906 93.0167 436.404 92.2189 435.325C82.3634 422.372 41.4868 360.189 68.5658 252.201C69.129 249.902 71.1939 248.259 73.5874 248.259C83.6775 248.165 111.46 249.245 127.135 251.31C128.731 251.497 130.139 250.465 130.28 248.869C130.843 243.05 130.984 228.783 129.529 222.447C129.341 221.556 128.543 220.898 127.605 220.898L127.511 220.852Z" fill="#ECECEC"/>
<path d="M349.634 386.47C348.836 385.719 347.475 385.907 347.006 386.94C343.298 394.636 329.078 421.246 308.053 423.17C283.462 425.376 286.09 410.687 286.09 410.687C286.09 410.687 286.606 396.795 308.523 397.124C308.523 397.124 320.021 397.124 322.273 396.185C324.526 395.246 320.818 377.788 317.956 377.178C315.093 376.568 294.631 385.813 288.389 376.709C285.855 369.528 292.801 365.539 299.371 363.474C304.44 361.879 309.743 361.316 315.093 361.456C319.833 361.597 326.122 362.77 331.19 363.662C333.912 364.131 336.399 362.019 336.399 359.204L336.869 330.294C336.869 328.98 337.948 327.901 339.262 327.901H359.02C361.273 327.901 363.056 326.071 363.056 323.865V312.695C363.056 310.443 361.226 308.659 359.02 308.659H183.922C183.922 308.659 179.275 308.19 179.275 301.62C179.275 295.049 181.481 250.653 157.593 224.653C155.904 222.776 153.417 221.837 150.882 221.79L135.114 221.509C133.659 221.462 132.767 223.011 133.612 224.231C140.323 233.852 161.817 266.187 160.268 302.652C160.128 305.515 157.828 307.861 154.965 307.861C153.417 307.861 152.196 309.129 152.196 310.63V324.616C152.196 326.164 153.417 327.385 154.965 327.385H155.482C158.297 327.385 160.644 329.543 160.785 332.359C161.629 348.597 163.413 398.297 164.023 413.596C164.164 417.116 165.712 420.354 168.294 422.701C171.485 425.564 176.272 428.896 181.622 429.506C183.077 429.647 184.391 428.567 184.391 427.065V386.142C184.391 386.142 186.08 364.507 202.6 353.056C208.889 348.691 217.383 347.987 223.625 352.399C241.881 365.305 224.517 404.586 220.058 413.925C219.401 415.286 219.073 416.741 219.026 418.242C218.932 421.387 220.246 424.39 222.546 426.455L229.491 432.697C230.852 433.917 233.058 433.917 234.372 432.697C240.989 426.408 257.368 405.994 243.195 366.478C241.459 361.644 237.61 354.182 234.419 350.146C210.297 319.359 182.185 352.305 182.185 352.305V327.901H314.107C315.421 327.901 316.501 328.98 316.501 330.294V341.698C316.501 343.013 315.375 344.092 314.06 343.951C305.378 343.247 276 342.262 268.96 360.893C263.704 376.193 277.83 383.232 277.83 383.232C277.83 383.232 260.325 388.676 264.314 407.214C268.35 425.751 295.945 436.217 318.707 433.213C339.685 430.444 360.006 414.113 363.807 403.225C364.323 401.723 363.901 400.08 362.728 399.001L349.587 386.47H349.634Z" fill="#ECECEC"/>
<path d="M592.547 214.14C592.547 214.14 592.454 213.906 592.407 214C588.23 218.927 550.732 265.06 542.191 332.547H474.376C474.376 332.547 480.336 277.497 451.427 226.342C450.3 224.324 448.095 223.104 445.795 223.151L406.045 223.761C404.778 223.761 404.074 225.263 404.918 226.249C417.355 240.938 478.083 321.8 429.041 451.563C429.041 451.563 450.535 440.816 472.029 351.554L537.873 352.023C539.469 352.023 540.736 353.337 540.689 354.886C540.407 366.665 540.313 412.094 555.05 438.141C555.66 439.267 556.88 439.924 558.147 439.924L596.208 440.394C596.208 440.394 533.837 360.377 592.641 214.187L592.547 214.14Z" fill="#ECECEC"/>
<path d="M676.647 309.598H595.504C592.705 309.598 590.436 311.867 590.436 314.666V323.958C590.436 326.758 592.705 329.027 595.504 329.027H676.647C679.447 329.027 681.716 326.758 681.716 323.958V314.666C681.716 311.867 679.447 309.598 676.647 309.598Z" fill="#ECECEC"/>
<path d="M643.937 343.294C636.287 340.995 628.027 341.042 620.706 344.28C611.977 348.128 601.183 356.717 596.161 375.864C596.161 375.864 588.652 399.471 613.432 421.481C638.258 443.492 659.564 432.369 659.564 432.369C659.564 432.369 680.777 418.243 681.763 393.698C682.607 371.969 668.763 350.803 643.937 343.294ZM658.391 398.767C646.987 418.665 634.926 421.106 627.276 420.026C621.926 419.228 617.608 415.333 615.778 410.265C613.15 402.85 611.46 389.709 621.316 372.861C631.359 355.731 643.092 353.76 650.272 354.558C654.871 355.074 658.767 357.843 660.972 361.879C664.586 368.543 668.012 381.074 658.391 398.767Z" fill="#ECECEC"/>
<path d="M693.965 223.48L676.647 224.841C674.911 224.982 674.019 227 675.099 228.361C682.467 237.7 702.694 266.657 702.412 303.263C702.131 342.731 703.632 408.012 704.008 423.03C704.055 425.048 704.993 426.878 706.542 428.145L718.744 438.048C721.372 440.16 725.221 438.282 725.174 434.903L723.578 303.263C723.578 303.263 721.888 246.711 693.965 223.48Z" fill="#ECECEC"/>
<path d="M839.638 309.598H748.592C746.762 309.598 745.26 311.099 745.26 312.93V324.005C745.26 325.883 746.433 327.478 748.217 328.088C750.047 328.699 752.065 329.966 752.3 332.781C752.675 336.864 753.708 375.958 754.13 392.571C754.365 401.91 757.65 411.109 764.126 417.82C769.289 423.217 777.032 427.863 788.389 428.426C805.66 430.257 815.421 420.213 815.421 420.213V463.061C815.421 469.115 813.497 474.982 809.884 479.769C803.736 487.981 792.613 498.212 776.797 494.552C760.7 490.797 756.007 483.945 754.693 479.487C753.989 477.047 754.458 474.512 755.866 472.447C758.729 468.224 766.285 460.433 783.556 458.65C785.996 458.415 787.31 455.646 785.949 453.628L776.844 440.394C775.718 438.704 773.7 437.859 771.729 438.235C763.281 439.784 741.506 446.072 740.051 470.007C738.22 499.761 782.992 506.378 786.418 506.378C789.328 506.378 816.97 508.396 830.252 486.902C833.959 480.942 835.508 473.855 835.508 466.863V348.738C835.508 347.33 834.381 346.204 832.974 346.204H817.299C815.75 346.204 814.577 347.518 814.764 349.02C816.266 360.564 820.396 404.163 799.512 417.491C794.49 420.683 788.014 421.246 782.898 418.195C781.819 417.585 780.88 416.881 780.083 416.13C776.047 412.564 773.982 407.308 773.841 401.91L771.964 331.702C771.964 330.247 773.09 329.027 774.592 329.027H839.685C841.515 329.027 843.017 327.525 843.017 325.695V312.883C843.017 311.053 841.515 309.551 839.685 309.551L839.638 309.598Z" fill="#ECECEC"/>
<path d="M1146.8 228.501C1136.66 222.635 1124.88 220.288 1113.24 221.321C1099.73 222.541 1080.63 227.093 1064.2 241.923C1064.2 241.923 1027.36 204.097 972.358 227.14C946.358 238.028 925.286 258.912 915.619 285.381C890.37 354.557 949.502 426.69 1026.23 448.278C1028.58 448.935 1030.13 445.837 1028.16 444.383C1007.74 429.036 959.874 389.051 947.203 342.543C937.77 307.861 954.383 270.598 986.39 254.266C1002.39 246.1 1023.47 243.378 1048.62 257.88C1048.62 257.88 1016.1 292.937 1015.49 329.872C1015.49 331.186 1016.19 332.406 1017.32 333.063L1048.06 351.037C1050.03 352.164 1052.47 350.85 1052.52 348.55C1052.89 330.622 1057.4 270.551 1099.96 252.342C1109.35 248.306 1119.91 247.18 1129.95 249.151C1166.18 256.331 1169.94 295.424 1169.37 315.98C1169.09 325.178 1166.93 334.189 1162.9 342.496C1154.36 360.142 1133.85 390.881 1089.07 410.733C1087.29 411.531 1086.77 413.878 1088.14 415.285L1116.15 444.476C1116.15 444.476 1191.9 399.235 1191.9 314.948C1191.24 262.901 1164.68 238.826 1146.71 228.501H1146.8Z" fill="#ECECEC"/>
<path d="M1432.14 353.525V347.846C1432.14 346.344 1430.92 345.077 1429.37 345.077H1414.12C1412.62 345.077 1411.35 346.297 1411.35 347.846V419.228C1411.35 421.246 1412.33 423.17 1413.98 424.343L1425.29 432.322C1427.96 434.246 1431.72 432.322 1431.72 428.989V399.188C1431.72 385.485 1436.27 371.969 1445.47 361.785C1450.39 356.294 1456.73 351.835 1464.38 351.038C1474.47 351.507 1478.27 361.503 1479.54 371.359C1481.09 383.42 1478.65 395.622 1473.25 406.51C1470.95 411.156 1468.09 416.037 1464.8 419.838C1463.72 421.058 1463.82 422.935 1464.94 424.156L1476.58 436.639C1478.98 439.22 1483.2 438.704 1484.84 435.607C1492.96 420.448 1509.9 386.423 1485.31 353.196C1460.91 323.63 1432.14 353.572 1432.14 353.572V353.525Z" fill="#ECECEC"/>
<path d="M1756.62 355.121V349.442C1756.62 347.94 1755.4 346.673 1753.85 346.673H1742.96C1739.02 346.673 1735.83 349.864 1735.83 353.807V420.824C1735.83 422.842 1736.81 424.766 1738.46 425.939L1749.77 433.917C1752.44 435.841 1756.2 433.917 1756.2 430.585V400.784C1756.2 387.08 1760.75 373.564 1769.95 363.38C1772.9 360.095 1776.56 356.857 1780.55 354.839C1785.1 352.492 1790.5 352.821 1794.73 355.731C1806.41 363.709 1805.28 382.012 1802.56 394.542C1801.53 399.189 1799.89 403.694 1797.78 408.012C1795.48 412.705 1791.58 417.632 1788.2 421.434C1787.12 422.654 1787.22 424.531 1788.34 425.704C1791.16 428.708 1797.26 434.152 1801.06 438.235C1803.45 440.816 1807.63 440.253 1809.27 437.156C1817.39 421.997 1834.38 387.972 1809.79 354.745C1785.39 325.179 1756.62 355.121 1756.62 355.121Z" fill="#ECECEC"/>
<path d="M1572.98 310.115H1542.24C1540.27 310.115 1538.67 308.519 1538.67 306.548V286.086C1538.67 284.49 1537.97 282.989 1536.79 281.956L1523.56 270.458C1521.87 269.003 1519.24 270.177 1519.24 272.429L1519.05 306.689C1519.05 308.566 1517.51 310.115 1515.63 310.115H1510.37C1509.25 310.115 1508.35 311.006 1508.35 312.133V326.775C1508.35 327.901 1509.25 328.793 1510.37 328.793H1515.63C1517.51 328.793 1519.05 330.342 1519.05 332.219V408.528C1519.05 408.528 1519.48 431.337 1541.02 433.214C1560.92 434.903 1573.02 417.304 1576.12 405.712C1576.54 404.117 1576.03 402.427 1574.71 401.395L1560.35 390.038C1558.05 388.207 1554.63 389.897 1554.77 392.853C1555.14 402.287 1554.49 417.492 1547.07 421.81C1537.92 424.391 1538.95 412.94 1538.95 412.94V332.313C1538.95 330.67 1540.31 329.309 1541.96 329.309H1573.12C1575.14 329.309 1576.78 327.667 1576.78 325.649V313.681C1576.78 311.663 1575.14 310.021 1573.12 310.021L1572.98 310.115Z" fill="#ECECEC"/>
<path d="M1708.28 345.077H1697.3C1694.34 345.077 1691.95 347.471 1691.95 350.427V416.975C1691.95 419.744 1693.17 422.372 1695.28 424.155L1705.84 433.213C1708.89 435.841 1713.63 433.682 1713.63 429.646V350.427C1713.63 347.471 1711.24 345.077 1708.28 345.077Z" fill="#ECECEC"/>
<path d="M1680.96 276.23C1681.9 278.905 1684.3 280.782 1687.07 281.158L1690.77 281.674C1693.78 282.049 1696.31 284.02 1697.44 286.836L1702.79 299.93C1704.34 303.778 1708.09 306.265 1712.27 306.265C1714.43 306.265 1715.93 304.201 1715.27 302.136L1705.32 270.974C1703.4 264.356 1698.47 259.053 1691.99 256.66L1680.17 254.125C1676.79 253.421 1673.88 256.707 1675.1 259.945L1680.96 276.23Z" fill="#ECECEC"/>
<path d="M1496.43 309.738H1199.31C1196.83 309.738 1194.86 311.756 1194.86 314.197V326.727C1194.86 329.215 1196.87 331.186 1199.31 331.186H1253.14V347.471C1250.99 346.485 1248.69 345.64 1246.34 344.936C1238.74 342.637 1230.43 342.637 1223.16 345.875C1214.43 349.723 1203.59 358.359 1198.56 377.459C1198.56 377.459 1191.1 401.065 1215.88 423.076C1240.66 445.087 1261.97 433.964 1261.97 433.964C1261.97 433.964 1283.18 419.838 1284.17 395.293C1284.59 384.546 1281.4 373.986 1275.06 365.117V331.186H1304.06V388.3C1304.06 395.293 1305.14 402.286 1307.72 408.762C1311.67 418.571 1319.69 429.975 1336.12 432.181C1352.07 434.949 1361.51 427.112 1364.93 423.545C1365.83 422.607 1367.23 422.419 1368.31 423.17L1382.2 432.744C1384.69 434.433 1388.07 432.697 1388.07 429.693V349.817C1388.07 347.987 1386.57 346.485 1384.74 346.485H1370.47C1368.55 346.485 1367 348.081 1367.14 350.005C1367.94 363.756 1370 409.138 1350.06 422.044C1345.74 424.812 1340.34 425.516 1335.88 422.935C1324.24 416.271 1324.71 394.871 1324.71 394.871V331.186H1496.53C1499.01 331.186 1500.99 329.168 1500.99 326.727V314.197C1500.99 311.709 1498.97 309.738 1496.53 309.738H1496.43ZM1260.79 400.455C1249.39 420.307 1237.38 422.794 1229.73 421.668C1224.38 420.87 1220.01 417.022 1218.18 411.906C1215.55 404.491 1213.86 391.351 1223.77 374.503C1233.76 357.373 1245.49 355.402 1252.68 356.2C1257.27 356.716 1261.22 359.485 1263.38 363.521C1266.99 370.185 1270.41 382.716 1260.79 400.455Z" fill="#ECECEC"/>
<path d="M1821.05 309.738H1586.35C1584.38 309.738 1582.83 311.756 1582.83 314.197V326.727C1582.83 329.215 1584.43 331.186 1586.35 331.186H1591.23V369.857C1591.23 373.142 1594.8 375.066 1597.52 373.329C1608.6 366.243 1631.55 353.619 1645.86 360.799C1648.07 361.925 1649.33 364.319 1649.33 366.806V373.893C1649.33 373.893 1612.77 352.586 1589.87 395.668C1589.07 397.123 1588.7 398.813 1588.7 400.455V412.141C1588.7 413.878 1589.12 415.614 1590.01 417.116C1593.06 422.701 1602.07 434.949 1620.8 433.354C1644.83 431.289 1649.33 424.249 1649.33 424.249C1649.33 427.722 1651.07 430.913 1653.93 432.838L1663.08 439.361C1665.43 440.91 1668.62 439.267 1668.62 436.404V363.943C1668.62 356.528 1665.34 349.254 1659.28 344.936C1650.88 339.07 1635.91 335.222 1610.24 346.344V331.186H1821.1C1823.07 331.186 1824.62 329.168 1824.62 326.727V314.197C1824.62 311.709 1823.02 309.738 1821.1 309.738H1821.05ZM1647.69 397.217C1638.87 415.567 1616.81 419.556 1606.35 418.805C1595.46 418.054 1598.84 411.484 1598.84 411.484C1618.92 376.99 1640.65 389.286 1646.8 393.838C1647.88 394.636 1648.25 396.044 1647.69 397.217Z" fill="#ECECEC"/>
</g>
<defs>
<clipPath id="clip0_1214_2576">
<rect width="1824.62" height="292.425" fill="white" transform="translate(0 214)"/>
</clipPath>
</defs>
</svg>
