<svg width="1825" height="720" viewBox="0 0 1825 720" fill="none" xmlns="http://www.w3.org/2000/svg">
<g clip-path="url(#clip0_221_2234)">
<path d="M272.331 386.474V95.8066H373.191L440.872 205.633C451.795 223.064 458.778 234.391 468.376 257.062H471.434C467.068 238.765 462.261 209.566 462.261 188.202V95.8066H563.562V386.49H462.261L389.788 271.881C383.247 261.419 375.382 246.175 369.708 233.967H366.65C369.708 249.652 373.191 274.493 373.191 287.566V386.49H272.331V386.474Z" fill="#ECECEC"/>
<path d="M272.331 715.12V424.437H377.998V621.419H467.068V715.12H272.331Z" fill="#ECECEC"/>
<path d="M677.421 715.12V424.437H778.281L845.962 534.263C856.885 551.694 863.867 563.021 873.466 585.691H876.524C872.158 567.395 867.35 538.196 867.35 516.832V424.437H968.651V715.12H867.35L794.878 600.511C788.337 590.049 780.472 574.805 774.798 562.597H771.74C774.798 578.282 778.281 603.123 778.281 616.196V715.12H677.421Z" fill="#ECECEC"/>
<path d="M1240.11 706.894C1209.47 718.547 1173.48 720 1158.4 720C1116.08 720 1070.85 704.952 1038.74 672.913C1008.09 642.816 991.561 599.108 991.561 553.473C991.561 503.465 1010.53 460.735 1040.21 430.639C1063.07 407.821 1101.99 381.609 1162.78 381.609C1187.1 381.609 1214.34 385.494 1240.13 394.226L1243.53 517.55C1229.91 503.954 1204.61 485.511 1174.95 485.511C1156.47 485.511 1139.43 492.79 1127.77 505.423C1116.59 517.566 1110.75 534.557 1110.75 551.547C1110.75 568.538 1117.08 586.018 1129.72 598.161C1139.45 607.383 1154.53 616.604 1177.88 616.604C1210.96 616.604 1233.82 596.692 1243.55 586.018L1240.14 706.91L1240.11 706.894Z" fill="#ECECEC"/>
<path d="M1316.38 536.613H1467.34V419.932H1512.24V712.72H1467.34V571.965H1316.38V712.72H1266.77V419.932H1316.38V536.613Z" fill="#ECECEC"/>
<path d="M655.166 549.817C655.166 571.1 652.419 597.345 629.706 619.966C607.679 641.902 582.219 645.232 558.133 645.232C534.046 645.232 508.586 641.902 486.56 619.966C463.847 597.361 461.1 571.1 461.1 549.817V424.437H514.097V548.479C514.097 558.125 514.783 574.413 526.148 585.708C535.436 595.354 548.174 597.345 558.149 597.345C568.124 597.345 580.862 595.354 590.15 585.708C601.498 574.413 602.202 558.108 602.202 548.479V424.437H655.199V549.817H655.166Z" fill="#ECECEC"/>
<path d="M700.2 388.888L689.652 336.268H633.974L623.427 388.888H586.733L647.889 97.0791H677.83L737.711 388.888H700.167H700.2ZM681.591 284.824C674.118 235.827 667.299 203.396 662.23 153.959C657.586 203.837 649.868 235.827 642.035 284.824H681.591Z" fill="#ECECEC"/>
<path d="M759.23 386.474V95.8066H860.531V186.015C860.531 199.088 860.09 209.55 858.357 222.624H860.531C866.647 206.057 870.572 199.529 875.821 189.932L926.038 95.8066H1040.44L949.618 238.308L1050.04 386.474H927.787L874.512 293.213C869.28 284.498 864.472 274.036 860.548 265.32H858.373C860.123 275.341 860.548 283.192 860.548 292.773V386.474H759.247H759.23Z" fill="#ECECEC"/>
<path d="M1268.09 386.474V95.8066H1380.3C1404.74 95.8066 1466.75 97.9774 1509.1 139.825C1527.88 158.562 1548.4 191.254 1548.4 244.853C1548.4 274.917 1542.72 313.713 1510.85 345.523C1493.39 363.395 1459.33 386.49 1406.49 386.49H1268.09V386.474ZM1372.87 297.571H1380.74C1392.97 297.571 1410.86 297.13 1425.71 284.057C1435.75 275.341 1442.73 260.522 1442.73 242.225C1442.73 223.929 1435.31 207.804 1425.71 198.647C1413.05 186.88 1396.45 184.709 1384.22 184.709H1372.87V297.587V297.571Z" fill="#ECECEC"/>
<path d="M1059.47 327.178V96.2959H1239.36V159.639H1153.56V181.102H1232.51V241.686H1153.56V263.835H1241.53V327.178H1059.49H1059.47Z" fill="#ECECEC"/>
<path d="M732.168 0H712.872V169.971H732.168V0Z" fill="#ECECEC"/>
<path d="M649.181 681.514H497.025V715.119H649.181V681.514Z" fill="#ECECEC"/>
<path d="M1431.92 605.587H1346.96V635.21H1431.92V605.587Z" fill="#ECECEC"/>
</g>
<defs>
<clipPath id="clip0_221_2234">
<rect width="1276.07" height="720" fill="white" transform="translate(272.331)"/>
</clipPath>
</defs>
</svg>
