<svg width="328" height="185" viewBox="0 0 328 185" fill="none" xmlns="http://www.w3.org/2000/svg">
<g clip-path="url(#clip0_221_2266)">
<path d="M0 99.3024V24.6172H25.9249L43.3217 52.8365C46.1294 57.3153 47.9241 60.2257 50.3914 66.0507H51.1774C50.0551 61.3496 48.8194 53.8471 48.8194 48.3576V24.6172H74.8578V99.3066H48.8194L30.1911 69.8586C28.5099 67.1705 26.4882 63.2536 25.0297 60.1167H24.2437C25.0297 64.1468 25.9249 70.5296 25.9249 73.8887V99.3066H0V99.3024Z" fill="#121212"/>
<path d="M0 183.746V109.057H27.1607V159.67H50.0551V183.746H0Z" fill="#121212"/>
<path d="M104.124 183.746V109.057H130.049L147.446 137.276C150.254 141.755 152.048 144.665 154.516 150.49H155.302C154.179 145.789 152.944 138.287 152.944 132.797V109.057H178.982V183.746H152.944L134.315 154.298C132.634 151.61 130.612 147.693 129.154 144.556H128.368C129.154 148.586 130.049 154.969 130.049 158.328V183.746H104.124Z" fill="#121212"/>
<path d="M248.758 181.633C240.882 184.627 231.631 185 227.755 185C216.878 185 205.252 181.134 196.997 172.902C189.12 165.168 184.871 153.938 184.871 142.212C184.871 129.363 189.746 118.384 197.375 110.651C203.251 104.788 213.254 98.0527 228.882 98.0527C235.132 98.0527 242.134 99.0508 248.763 101.294L249.637 132.982C246.136 129.489 239.633 124.75 232.009 124.75C227.259 124.75 222.88 126.62 219.883 129.866C217.008 132.986 215.507 137.352 215.507 141.717C215.507 146.083 217.134 150.574 220.383 153.694C222.884 156.064 226.759 158.433 232.761 158.433C241.264 158.433 247.14 153.317 249.641 150.574L248.767 181.637L248.758 181.633Z" fill="#121212"/>
<path d="M268.362 137.88H307.165V107.899H318.707V183.13H307.165V146.964H268.362V183.13H255.609V107.899H268.362V137.88Z" fill="#121212"/>
<path d="M98.4038 141.272C98.4038 146.741 97.6977 153.484 91.8595 159.297C86.1979 164.933 79.6536 165.789 73.4624 165.789C67.2712 165.789 60.7269 164.933 55.0653 159.297C49.2271 153.489 48.521 146.741 48.521 141.272V109.057H62.1434V140.929C62.1434 143.407 62.3199 147.592 65.2411 150.494C67.6284 152.973 70.9027 153.484 73.4666 153.484C76.0305 153.484 79.3048 152.973 81.6921 150.494C84.6091 147.592 84.7898 143.403 84.7898 140.929V109.057H98.4122V141.272H98.4038Z" fill="#121212"/>
<path d="M109.979 99.9231L107.268 86.4027H92.9565L90.2455 99.9231H80.8137L96.5334 24.9443H104.229L119.621 99.9231H109.971H109.979ZM105.196 73.1842C103.275 60.5948 101.523 52.262 100.22 39.5593C99.0258 52.3752 97.042 60.5948 95.0287 73.1842H105.196Z" fill="#121212"/>
<path d="M125.153 99.3024V24.6172H151.191V47.7957C151.191 51.1548 151.077 53.8429 150.632 57.2021H151.191C152.763 52.9455 153.772 51.268 155.121 48.8021L168.029 24.6172H197.434L174.09 61.2322L199.901 99.3024H168.478L154.785 75.3397C153.44 73.1003 152.204 70.4122 151.195 68.1728H150.636C151.086 70.7477 151.195 72.7648 151.195 75.2265V99.3024H125.157H125.153Z" fill="#121212"/>
<path d="M255.95 99.3024V24.6172H284.792C291.075 24.6172 307.014 25.1749 317.9 35.9275C322.725 40.7419 328 49.1418 328 62.9139C328 70.6386 326.542 80.607 318.35 88.7805C313.861 93.3726 305.106 99.3066 291.525 99.3066H255.95V99.3024ZM282.884 76.4595H284.905C288.049 76.4595 292.647 76.3462 296.464 72.9871C299.045 70.7477 300.839 66.9398 300.839 62.2387C300.839 57.5376 298.931 53.3942 296.464 51.0416C293.211 48.0179 288.944 47.4602 285.801 47.4602H282.884V76.4636V76.4595Z" fill="#121212"/>
<path d="M202.326 84.067V24.7432H248.565V41.0188H226.511V46.5335H246.804V62.1005H226.511V67.7913H249.124V84.067H202.331H202.326Z" fill="#121212"/>
<path d="M118.196 0H113.237V43.673H118.196V0Z" fill="#121212"/>
<path d="M96.8654 175.111H57.7552V183.746H96.8654V175.111Z" fill="#121212"/>
<path d="M298.061 155.603H276.222V163.214H298.061V155.603Z" fill="#121212"/>
</g>
<defs>
<clipPath id="clip0_221_2266">
<rect width="328" height="185" fill="white"/>
</clipPath>
</defs>
</svg>
