<svg width="1825" height="720" viewBox="0 0 1825 720" fill="none" xmlns="http://www.w3.org/2000/svg">
<g clip-path="url(#clip0_1161_2456)">
<path d="M518.375 360.085H533.955C574.556 360.085 607.446 327.194 607.446 286.593C607.446 245.992 574.556 213.102 533.955 213.102H456.686C453.46 213.102 450.785 215.777 450.785 219.003V484.957C450.785 488.183 453.46 490.859 456.686 490.859H476.357C479.583 490.859 482.259 488.183 482.259 484.957V360.635L586.359 486.688C588.562 489.364 591.788 490.859 595.25 490.859H613.82C618.777 490.859 621.531 485.036 618.383 481.18L518.375 360.085ZM533.876 228.839C565.743 228.839 591.63 254.726 591.63 286.593C591.63 318.46 565.743 344.348 533.876 344.348H482.18V228.839H533.876Z" fill="#ECECEC"/>
<path d="M366.513 472.289L246.441 477.954V361.894L324.417 363.311C329.61 363.311 333.859 359.062 333.859 353.869C333.859 348.675 329.61 344.426 324.417 344.426L246.441 345.843V226.793L362.028 231.593C367.143 231.593 371.313 227.422 371.313 222.308C371.313 217.193 367.143 213.023 362.028 213.023H220.868C217.642 213.023 214.967 215.698 214.967 218.924V484.879C214.967 487.633 216.855 489.836 219.373 490.465V490.78H366.435C371.549 490.78 375.72 486.61 375.72 481.495C375.72 476.381 371.549 472.21 366.435 472.21L366.513 472.289Z" fill="#ECECEC"/>
<path d="M75.2226 213.102H31.4739V212.551H5.90135C2.67528 212.551 0 215.147 0 218.452V484.406C0 487.633 2.67528 490.308 5.90135 490.308H25.5725C28.7986 490.308 31.4739 487.633 31.4739 484.406V360.085H75.2226C115.824 360.085 148.714 327.194 148.714 286.593C148.714 245.992 115.824 213.102 75.2226 213.102ZM75.2226 344.348H31.4739V228.839H75.2226C107.09 228.839 132.977 254.726 132.977 286.593C132.977 318.46 107.09 344.348 75.2226 344.348Z" fill="#ECECEC"/>
<path d="M1060.91 212.472C980.805 212.472 915.89 277.387 915.89 357.488C915.89 437.589 980.805 502.504 1060.91 502.504C1141.01 502.504 1205.92 437.589 1205.92 357.488C1205.92 277.387 1141.01 212.472 1060.91 212.472ZM1070.66 486.216C1003.31 486.216 948.702 428.619 948.702 357.488C948.702 286.357 1003.31 228.839 1070.66 228.839C1138.02 228.839 1192.62 286.436 1192.62 357.488C1192.62 428.54 1138.02 486.216 1070.66 486.216Z" fill="#ECECEC"/>
<path d="M1512.71 222.15C1507.68 222.15 1503.67 222.78 1503.67 227.816L1504.53 454.664L1293.34 216.642C1287.68 210.269 1277.05 214.282 1277.05 222.859V493.062C1277.05 498.019 1281.07 498.648 1286.02 498.648C1290.98 498.648 1295.07 497.94 1294.99 492.905L1291.53 265.82L1502.72 504.235C1508.39 510.687 1519.01 506.596 1519.01 498.098V471.109L1518.77 470.873L1521.61 227.894C1521.61 222.937 1517.67 222.229 1512.71 222.15Z" fill="#ECECEC"/>
<path d="M1824.07 494.793L1701.79 221.127C1699.67 216.564 1693.14 216.564 1691.09 221.127L1570.07 493.455C1565.98 503.055 1569.05 503.055 1579.52 503.055C1583.77 503.055 1589.98 503.999 1592.89 498.648C1593.68 496.76 1641.13 380.385 1641.13 380.385H1740.27L1793.22 499.514C1794.17 501.638 1796.29 503.055 1798.65 503.055H1818.8C1823.13 503.055 1825.96 498.57 1824.15 494.714L1824.07 494.793ZM1645.53 368.897L1690.46 265.584L1732.72 368.897H1645.53Z" fill="#ECECEC"/>
<path d="M823.75 357.331C798.178 335.614 763.635 329.948 736.882 310.12C712.018 292.416 708.713 259.368 729.958 240.326C756.081 217.587 794.558 227.973 821.154 244.261C825.009 246.464 829.966 250.319 833.193 245.126C837.127 238.989 836.104 233.796 832.091 229.547C820.131 216.721 781.418 212 769.93 212C733.184 212.866 696.281 230.491 688.334 269.361C681.331 300.599 695.573 323.418 720.359 341.2C746.089 359.062 778.585 363.862 802.82 383.926C824.773 402.024 832.17 433.497 818.478 458.519C792.591 505.573 733.42 488.892 700.845 458.047C698.012 455.529 694.707 451.752 690.144 454.192C688.098 455.293 687.232 457.496 686.839 460.014C685.816 466.545 688.019 473.469 693.134 477.718C693.684 478.112 694.157 478.505 694.786 478.899C719.965 494.399 746.718 504.707 777.012 502.819C851.762 497.075 887.957 405.092 823.75 357.409V357.331Z" fill="#ECECEC"/>
</g>
<defs>
<clipPath id="clip0_1161_2456">
<rect width="1824.62" height="295.382" fill="white" transform="translate(0 212)"/>
</clipPath>
</defs>
</svg>
