<svg width="1825" height="720" viewBox="0 0 1825 720" fill="none" xmlns="http://www.w3.org/2000/svg">
<g clip-path="url(#clip0_845_4334)">
<path d="M18.7198 430.339H0V321.385H39.1649C52.1049 321.385 61.7667 322.248 68.8406 326.82C78.1573 332.858 82.902 342.348 82.902 355.546C82.902 380.046 67.5466 393.676 40.0276 393.676H18.7198V430.339ZM18.7198 377.113H39.3375C55.9006 377.113 63.8371 371.074 63.8371 357.617C63.8371 344.159 56.0731 339.328 39.51 339.328H18.7198V377.199V377.113Z" fill="#ECECEC"/>
<path d="M128.882 321.385H147.602V430.339H128.882V321.385Z" fill="#ECECEC"/>
<path d="M200.138 321.385H270.445V339.415H218.858V368.141H270.445V384.446H218.858V413.949H270.445V430.339H200.138V321.385Z" fill="#ECECEC"/>
<path d="M410.973 350.888C410.973 372.023 398.551 382.375 373.102 382.72L412.785 430.339H389.406L346.359 377.544V430.339H327.64V321.385H369.393C397.429 321.385 410.973 330.357 410.973 350.888ZM346.273 370.384H371.722C385.266 370.384 392.167 364.95 392.167 354.943C392.167 343.642 384.921 339.587 369.565 339.587H346.187V370.384H346.273Z" fill="#ECECEC"/>
<path d="M550.034 350.888C550.034 372.023 537.612 382.375 512.163 382.72L551.846 430.339H528.468L485.421 377.544V430.339H466.701V321.385H508.454C536.491 321.385 550.034 330.357 550.034 350.888ZM485.335 370.384H510.783C524.327 370.384 531.228 364.95 531.228 354.943C531.228 343.642 523.982 339.587 508.627 339.587H485.248V370.384H485.335Z" fill="#ECECEC"/>
<path d="M590.666 373.317C590.666 337.258 606.108 319.315 637.595 319.315C669.082 319.315 684.696 337.086 684.696 373.145C684.696 411.706 667.788 432.41 637.767 432.41C607.747 432.41 590.666 412.051 590.666 373.317ZM666.753 374.957C666.753 350.284 656.918 338.035 637.422 338.035C617.926 338.035 608.523 350.629 608.523 376.596C608.523 402.562 619.306 415.415 637.854 415.415C656.401 415.415 666.753 401.354 666.753 374.957Z" fill="#ECECEC"/>
<path d="M757.333 339.415H726.363V321.385H807.022V339.415H776.052V430.339H757.333V339.415Z" fill="#ECECEC"/>
<path d="M1028.12 321.385H1047.36V413.776H1091.96V430.339H1028.12V321.385Z" fill="#ECECEC"/>
<path d="M1155.19 321.385H1227.48V339.415H1174.43V368.141H1227.48V384.446H1174.43V413.949H1227.48V430.339H1155.19V321.385Z" fill="#ECECEC"/>
<path d="M1470.5 321.385H1543.22V339.415H1489.04V368.141H1543.22V385.308H1489.04V430.339H1470.5V321.385Z" fill="#ECECEC"/>
<path d="M1590.84 373.317C1590.84 337.258 1606.19 319.315 1637.42 319.315C1668.65 319.315 1684.18 337.086 1684.18 373.145C1684.18 411.706 1667.36 432.41 1637.59 432.41C1607.83 432.41 1590.84 412.051 1590.84 373.317ZM1666.49 374.957C1666.49 350.284 1656.75 338.035 1637.34 338.035C1617.93 338.035 1608.7 350.629 1608.7 376.596C1608.7 402.562 1619.39 415.415 1637.85 415.415C1656.31 415.415 1666.49 401.354 1666.49 374.957Z" fill="#ECECEC"/>
<path d="M1758.28 391.088C1758.28 407.824 1766.48 416.192 1782.44 416.192C1798.39 416.192 1806.5 407.824 1806.5 391.088V321.385H1824.62V391.002C1824.62 418.607 1810.64 432.324 1782.52 432.324C1754.4 432.324 1740.25 418.521 1740.25 391.002V321.385H1758.37V391.002L1758.28 391.088Z" fill="#ECECEC"/>
<path d="M135.783 303.442C145.704 303.442 145.704 288 135.783 288C125.863 288 125.863 303.442 135.783 303.442Z" fill="#ECECEC"/>
</g>
<defs>
<clipPath id="clip0_845_4334">
<rect width="1824.62" height="144.41" fill="white" transform="translate(0 288)"/>
</clipPath>
</defs>
</svg>
