<svg width="1825" height="720" viewBox="0 0 1825 720" fill="none" xmlns="http://www.w3.org/2000/svg">
<g clip-path="url(#clip0_590_1524)">
<path d="M95.5813 348.145V366.884C95.5813 369.469 93.4911 371.559 90.9058 371.559H85.4236C82.8383 371.559 80.7481 373.649 80.7481 376.235V455.699C80.7481 458.284 78.6579 460.374 76.0727 460.374H19.5088C16.9236 460.374 14.8334 458.284 14.8334 455.699V376.235C14.8334 373.649 12.7432 371.559 10.1579 371.559H4.6757C2.09045 371.559 0.000244141 369.469 0.000244141 366.884V348.145C0.000244141 345.56 2.09045 343.47 4.6757 343.47H90.9058C93.4911 343.47 95.5813 345.56 95.5813 348.145Z" fill="#ECECEC"/>
<path d="M258.47 379.444C258.47 383.386 261.661 386.576 265.603 386.576H286.56C289.145 386.576 291.235 388.666 291.235 391.251V410.723C291.235 413.309 289.145 415.399 286.56 415.399H265.603C261.661 415.399 258.47 418.589 258.47 422.531V425.116C258.47 429.059 261.661 432.249 265.603 432.249H286.56C289.145 432.249 291.235 434.339 291.235 436.924V455.736C291.235 458.321 289.145 460.412 286.56 460.412H204.51C201.925 460.412 199.835 458.321 199.835 455.736V348.182C199.835 345.597 201.925 343.507 204.51 343.507H286.56C289.145 343.507 291.235 345.597 291.235 348.182V367.673C291.235 370.258 289.145 372.348 286.56 372.348H265.603C261.661 372.348 258.47 375.538 258.47 379.48V379.444Z" fill="#ECECEC"/>
<path d="M1433 323.741C1433 330.305 1438.32 335.604 1444.86 335.604H1482.17C1485.35 335.604 1487.91 338.171 1487.91 341.343V377.94C1487.91 381.112 1485.35 383.679 1482.17 383.679H1444.86C1438.3 383.679 1433 388.996 1433 395.541V399.868C1433 406.432 1438.32 411.731 1444.86 411.731H1482.17C1485.35 411.731 1487.91 414.298 1487.91 417.47V452.949C1487.91 456.121 1485.35 458.688 1482.17 458.688H1340.39C1337.22 458.688 1334.65 456.121 1334.65 452.949V269.524C1334.65 266.352 1337.22 263.785 1340.39 263.785H1482.17C1485.35 263.785 1487.91 266.352 1487.91 269.524V306.121C1487.91 309.293 1485.35 311.86 1482.17 311.86H1444.86C1438.3 311.86 1433 317.177 1433 323.723V323.741Z" fill="#ECECEC"/>
<path d="M190.667 348.145V455.699C190.667 458.284 188.577 460.374 185.992 460.374H154.034C151.448 460.374 149.358 458.284 149.358 455.699V419.505C149.358 415.985 146.498 413.125 142.978 413.125C139.457 413.125 136.597 415.985 136.597 419.505V455.699C136.597 458.284 134.507 460.374 131.921 460.374H99.9633C97.378 460.374 95.2878 458.284 95.2878 455.699V348.145C95.2878 345.56 97.378 343.47 99.9633 343.47H131.921C134.507 343.47 136.597 345.56 136.597 348.145V377.17C136.597 380.69 139.457 383.55 142.978 383.55C146.498 383.55 149.358 380.69 149.358 377.17V348.145C149.358 345.56 151.448 343.47 154.034 343.47H185.992C188.577 343.47 190.667 345.56 190.667 348.145Z" fill="#ECECEC"/>
<path d="M457.095 263.785H348.496C345.324 263.785 342.757 266.352 342.757 269.524V452.967C342.757 456.139 345.324 458.706 348.496 458.706H436.028C439.2 458.706 441.767 456.139 441.767 452.967V370.111C441.767 366.939 444.334 364.372 447.506 364.372H457.095C479.115 364.372 496.955 341.856 496.955 314.078C496.955 286.301 479.115 263.785 457.095 263.785ZM457.095 333.935C448.624 333.935 441.767 324.474 441.767 312.813C441.767 301.152 448.624 291.673 457.095 291.673C465.566 291.673 472.441 301.134 472.441 312.813C472.441 324.493 465.584 333.935 457.095 333.935Z" fill="#ECECEC"/>
<path d="M658.818 314.078C658.818 286.301 640.978 263.785 618.976 263.785H510.359C507.187 263.785 504.62 266.352 504.62 269.524V452.967C504.62 456.139 507.187 458.706 510.359 458.706H596.149C598.532 458.706 600.659 457.239 601.521 455.002L605.298 434.852C606.16 432.615 609.313 432.615 610.175 434.852L620.424 454.984C621.268 457.221 623.413 458.688 625.796 458.688H654.308C656.489 458.688 657.993 456.506 657.223 454.452L654.143 446.33L650.457 436.667L624.366 368.057C624.366 368.057 658.836 354.892 658.836 314.06L658.818 314.078ZM598.239 314.812C598.239 302.032 606.398 291.673 616.464 291.673C626.53 291.673 634.689 302.032 634.689 314.812C634.689 327.591 626.53 337.951 616.464 337.951C606.398 337.951 598.239 327.591 598.239 314.812Z" fill="#ECECEC"/>
<path d="M1660.19 314.078C1660.19 286.301 1642.35 263.785 1620.35 263.785H1511.73C1508.56 263.785 1505.99 266.352 1505.99 269.524V452.967C1505.99 456.139 1508.56 458.706 1511.73 458.706H1600.11C1602.49 458.706 1604.62 457.239 1605.48 455.002L1607.95 433.55C1608.82 431.313 1611.97 431.313 1612.83 433.55L1621.78 454.984C1622.62 457.221 1624.77 458.688 1627.15 458.688H1655.66C1657.84 458.688 1659.35 456.506 1658.58 454.452L1655.5 446.33L1651.81 436.667L1625.72 368.057C1625.72 368.057 1660.19 354.892 1660.19 314.06V314.078ZM1599.61 314.812C1599.61 302.032 1607.77 291.673 1617.84 291.673C1627.9 291.673 1636.06 302.032 1636.06 314.812C1636.06 327.591 1627.9 337.951 1617.84 337.951C1607.77 337.951 1599.61 327.591 1599.61 314.812Z" fill="#ECECEC"/>
<path d="M741.583 259C697.212 259 661.275 304.086 661.275 359.733C661.275 415.38 697.212 460.375 741.583 460.375C785.954 460.375 822.001 415.307 822.001 359.733C822.001 304.159 786.082 259 741.583 259ZM772.697 390.848C759.826 390.848 749.412 377.775 749.412 361.658C749.412 345.542 759.826 332.469 772.697 332.469C785.569 332.469 796.001 345.542 796.001 361.658C796.001 377.775 785.587 390.848 772.697 390.848Z" fill="#ECECEC"/>
<path d="M1320.61 370.698C1324.11 370.698 1326.82 373.796 1326.31 377.262C1319.27 423.961 1286.63 460.375 1247.28 460.375C1202.91 460.375 1166.98 415.307 1166.98 359.733C1166.98 304.159 1202.91 259 1247.28 259C1284.93 259 1316.46 291.306 1325.26 334.962C1325.98 338.501 1323.23 341.801 1319.62 341.801H1279C1271.03 341.801 1264.56 348.274 1264.56 356.25C1264.56 364.225 1271.03 370.698 1279 370.698H1320.61Z" fill="#ECECEC"/>
<path d="M915.069 263.785H838.777C835.605 263.785 833.038 266.352 833.038 269.524V452.967C833.038 456.139 835.605 458.706 838.777 458.706H918.81C962.356 458.706 989.785 415.068 989.785 361.291C989.785 307.514 954.343 263.785 915.069 263.785ZM941.985 394.753C928.271 394.753 917.16 380.8 917.16 363.62C917.16 346.44 928.271 332.469 941.985 332.469C955.7 332.469 966.866 346.403 966.866 363.62C966.866 380.837 955.755 394.753 941.985 394.753Z" fill="#ECECEC"/>
<path d="M1155.99 269.524V452.967C1155.99 456.139 1153.43 458.706 1150.25 458.706H1006.78C1003.61 458.706 1001.04 456.139 1001.04 452.967V269.524C1001.04 266.352 1003.61 263.785 1006.78 263.785H1062.43C1065.6 263.785 1068.17 266.352 1068.17 269.524V325.538C1068.17 331.258 1072.81 335.897 1078.53 335.897C1084.25 335.897 1088.89 331.258 1088.89 325.538V269.524C1088.89 266.352 1091.45 263.785 1094.63 263.785H1150.27C1153.44 263.785 1156.01 266.352 1156.01 269.524H1155.99Z" fill="#ECECEC"/>
<path d="M1766.75 321.559C1766.75 329.462 1773.15 335.842 1781.04 335.842H1818.86C1822.04 335.842 1824.6 338.409 1824.6 341.581V452.949C1824.6 456.121 1822.04 458.688 1818.86 458.688H1678.78C1675.61 458.688 1673.04 456.121 1673.04 452.949V419.047C1673.04 415.875 1675.61 413.308 1678.78 413.308H1714C1721.91 413.308 1728.29 406.909 1728.29 399.025C1728.29 391.123 1721.89 384.742 1714 384.742H1678.78C1675.61 384.742 1673.04 382.175 1673.04 379.003V269.524C1673.04 266.352 1675.61 263.785 1678.78 263.785H1818.86C1822.04 263.785 1824.6 266.352 1824.6 269.524V301.537C1824.6 304.709 1822.04 307.276 1818.86 307.276H1781.04C1773.14 307.276 1766.75 313.675 1766.75 321.559Z" fill="#ECECEC"/>
</g>
<defs>
<clipPath id="clip0_590_1524">
<rect width="1824.62" height="201.375" fill="white" transform="translate(0.000244141 259)"/>
</clipPath>
</defs>
</svg>
