<svg width="16" height="16" viewBox="0 0 16 16" fill="none" xmlns="http://www.w3.org/2000/svg">
<g clip-path="url(#clip0_1087_9719)">
<path d="M7.70152 12.0595C7.68773 11.2656 7.73602 10.5439 7.84641 9.89442C7.97059 9.24489 8.30174 8.62424 8.83987 8.03245C9.14343 7.70047 9.46078 7.3757 9.79194 7.05816C10.1231 6.74061 10.4267 6.42306 10.7026 6.10552C10.9786 5.77354 11.2062 5.43434 11.3856 5.08793C11.5788 4.74151 11.6754 4.36623 11.6754 3.96208C11.6754 3.57236 11.5995 3.21152 11.4477 2.87954C11.3097 2.53312 11.1028 2.23723 10.8268 1.99185C10.5508 1.73204 10.2128 1.52997 9.81264 1.38563C9.41249 1.24129 8.95715 1.16912 8.44662 1.16912C7.93609 1.16912 7.48075 1.26294 7.08061 1.45058C6.68046 1.63822 6.34241 1.89803 6.06645 2.23001C5.80428 2.56199 5.60421 2.95171 5.46623 3.39916C5.32825 3.83218 5.26616 4.30849 5.27996 4.82812H4.01743C3.96224 4.10642 4.03813 3.44968 4.2451 2.85788C4.45207 2.26609 4.75563 1.76091 5.15577 1.34232C5.56972 0.909306 6.05955 0.577326 6.62527 0.346383C7.19099 0.115441 7.81191 -3.05176e-05 8.48802 -3.05176e-05C9.19172 -3.05176e-05 9.81953 0.101007 10.3715 0.303082C10.9372 0.490723 11.4132 0.764967 11.7996 1.12581C12.1859 1.47223 12.4826 1.89803 12.6895 2.40322C12.8965 2.9084 13 3.46411 13 4.07034C13 4.70543 12.862 5.25392 12.5861 5.7158C12.3239 6.16325 11.9996 6.58184 11.6133 6.97155C11.2269 7.36127 10.8268 7.7582 10.4129 8.16235C9.99891 8.55207 9.64016 8.9923 9.3366 9.48306C9.10203 9.85834 8.97095 10.2769 8.94336 10.7388C8.91576 11.1863 8.90196 11.6265 8.90196 12.0595H7.70152ZM7.57734 16V14.0947H9.08823V16H7.57734Z" fill="#ECECEC"/>
</g>
<defs>
<clipPath id="clip0_1087_9719">
<rect width="16" height="16" fill="white"/>
</clipPath>
</defs>
</svg>
