<svg width="1825" height="720" viewBox="0 0 1825 720" fill="none" xmlns="http://www.w3.org/2000/svg">
<g clip-path="url(#clip0_1161_2644)">
<path d="M161.874 419.504C163.771 412.812 166.559 404.389 170.352 394.183C174.145 383.976 178.328 373.211 182.957 361.889C187.475 361.722 191.881 361.666 196.232 361.554C200.582 361.499 204.988 361.443 209.506 361.443C214.303 361.443 219.099 361.443 223.84 361.554C228.637 361.61 233.322 361.722 238.007 361.889C239.903 366.686 241.911 371.705 244.086 377.004C246.262 382.303 248.381 387.545 250.501 392.677C252.62 397.808 254.516 402.772 256.245 407.457C257.974 412.198 259.369 416.214 260.373 419.56C262.381 419.281 264.333 419.114 266.117 419.114H277.663C279.503 419.114 281.4 419.281 283.408 419.56C281.511 416.102 279.113 411.027 276.101 404.334C273.145 397.641 269.799 390.111 266.117 381.578C262.436 373.1 258.476 363.897 254.293 354.081C250.11 344.208 245.871 334.28 241.688 324.297C237.505 314.313 233.322 304.385 229.306 294.625C225.29 284.864 221.498 275.717 217.984 267.351H213.856C202.534 293.286 191.323 318.831 180.168 343.93C169.013 369.028 157.524 394.238 145.811 419.616C148.265 419.337 150.942 419.17 153.843 419.17C156.743 419.17 159.42 419.337 161.874 419.616V419.504ZM210.845 296.632L234.995 351.905C230.924 352.073 226.852 352.184 222.836 352.24C218.82 352.296 214.693 352.352 210.677 352.352C206.885 352.352 202.98 352.296 198.909 352.128C194.837 351.961 190.933 351.905 187.14 351.905L210.845 296.632Z" fill="#ECECEC"/>
<path d="M307.949 392.118C307.558 401.377 307.168 410.524 306.777 419.504C310.124 419.225 313.638 419.058 317.43 419.058C321.223 419.058 324.737 419.225 328.083 419.504C327.637 410.524 327.247 401.377 326.912 392.118C326.578 382.86 326.354 373.434 326.354 363.841V326.416C326.354 316.822 326.522 307.452 326.912 298.249C327.303 289.046 327.693 279.676 328.083 270.083C326.187 270.362 324.402 270.641 322.673 270.864C320.944 271.087 319.215 271.199 317.43 271.199C315.646 271.199 313.972 271.087 312.188 270.864C310.459 270.641 308.618 270.418 306.722 270.083C307.168 279.676 307.558 289.046 307.893 298.249C308.228 307.452 308.451 316.822 308.451 326.416V363.841C308.451 373.434 308.283 382.86 307.893 392.118H307.949Z" fill="#ECECEC"/>
<path d="M382.911 419.505C382.743 418.334 382.632 416.158 382.464 412.868C382.297 409.633 382.185 405.784 382.018 401.434C381.851 397.083 381.739 392.398 381.572 387.267C381.405 382.191 381.293 377.172 381.237 372.263C381.181 367.355 381.07 362.614 381.014 358.097C380.958 353.579 380.903 349.842 380.903 346.774C380.903 335.006 380.958 325.747 381.126 318.943C381.293 312.138 381.405 306.672 381.572 302.656C400.424 322.68 419.276 342.814 438.128 363.005C456.98 383.251 474.772 402.995 491.448 422.294H494.516V415.099C494.516 411.641 494.516 407.513 494.405 402.828C494.349 398.143 494.237 393.068 494.181 387.602C494.126 382.191 494.014 376.781 493.958 371.371C493.903 366.017 493.847 360.885 493.847 355.921V342.87C493.847 338.687 494.014 333.11 494.293 326.138C494.572 319.166 494.907 312.082 495.297 304.832C495.632 297.581 496.022 290.776 496.357 284.362C496.691 278.004 497.026 273.207 497.361 270.028C494.46 270.753 492.118 271.144 490.389 271.144C488.381 271.144 485.871 270.753 482.971 270.028C483.696 282.801 484.142 296.41 484.365 310.8C484.588 325.189 484.7 340.081 484.7 355.308V384.869C478.007 378.176 470.254 370.088 461.33 360.607C452.406 351.125 442.98 341.03 433.052 330.377C423.124 319.724 413.085 308.903 403.045 297.971C392.95 287.039 383.524 276.777 374.656 267.184H371.198C371.477 272.092 371.644 279.566 371.756 289.605C371.811 299.589 371.867 311.58 371.867 325.524C371.867 330.321 371.811 335.731 371.644 341.81C371.477 347.89 371.309 354.137 371.086 360.495C370.863 366.853 370.584 373.267 370.194 379.626C369.859 385.984 369.525 391.896 369.246 397.362C368.967 402.828 368.632 407.457 368.242 411.417C367.851 415.322 367.572 417.999 367.238 419.449C369.692 419.17 372.369 419.003 375.269 419.003C378.002 419.003 380.568 419.17 382.911 419.449V419.505Z" fill="#ECECEC"/>
<path d="M537.686 392.118C537.295 401.377 536.905 410.524 536.514 419.504C539.861 419.225 543.375 419.058 547.167 419.058C550.96 419.058 554.474 419.225 557.82 419.504C557.374 410.524 556.984 401.377 556.649 392.118C556.314 382.86 556.091 373.434 556.091 363.841V326.416C556.091 316.822 556.259 307.452 556.649 298.249C557.039 289.046 557.43 279.676 557.82 270.083C555.924 270.362 554.139 270.641 552.41 270.864C550.681 271.087 548.952 271.199 547.167 271.199C545.382 271.199 543.709 271.087 541.924 270.864C540.195 270.641 538.355 270.418 536.458 270.083C536.905 279.676 537.295 289.046 537.63 298.249C537.964 307.452 538.188 316.822 538.188 326.416V363.841C538.188 373.434 538.02 382.86 537.63 392.118H537.686Z" fill="#ECECEC"/>
<path d="M612.591 419.505C612.424 418.334 612.312 416.158 612.145 412.868C611.978 409.633 611.866 405.784 611.699 401.434C611.531 397.083 611.42 392.398 611.253 387.267C611.085 382.191 610.974 377.172 610.918 372.263C610.862 367.355 610.751 362.614 610.695 358.097C610.639 353.579 610.583 349.842 610.583 346.774C610.583 335.006 610.639 325.747 610.806 318.943C610.974 312.138 611.085 306.672 611.253 302.656C630.105 322.68 648.956 342.814 667.808 363.005C686.66 383.251 704.452 402.995 721.129 422.294H724.197V415.099C724.197 411.641 724.197 407.513 724.085 402.828C724.029 398.143 723.918 393.068 723.862 387.602C723.806 382.191 723.695 376.781 723.639 371.371C723.583 366.017 723.527 360.885 723.527 355.921V342.87C723.527 338.687 723.695 333.11 723.974 326.138C724.253 319.166 724.587 312.082 724.978 304.832C725.312 297.581 725.703 290.776 726.037 284.362C726.372 278.004 726.707 273.207 727.041 270.028C724.141 270.753 721.798 271.144 720.069 271.144C718.062 271.144 715.552 270.753 712.651 270.028C713.376 282.801 713.823 296.41 714.046 310.8C714.269 325.189 714.38 340.081 714.38 355.308V384.869C707.687 378.176 699.935 370.088 691.011 360.607C682.087 351.125 672.661 341.03 662.733 330.377C652.805 319.724 642.765 308.903 632.726 297.971C622.631 287.039 613.205 276.777 604.336 267.184H600.878C601.157 272.092 601.325 279.566 601.436 289.605C601.492 299.589 601.548 311.58 601.548 325.524C601.548 330.321 601.492 335.731 601.325 341.81C601.157 347.89 600.99 354.137 600.767 360.495C600.544 366.853 600.265 373.267 599.875 379.626C599.54 385.984 599.205 391.896 598.926 397.362C598.647 402.828 598.313 407.457 597.922 411.417C597.532 415.322 597.253 417.999 596.918 419.449C599.373 419.17 602.05 419.003 604.95 419.003C607.683 419.003 610.249 419.17 612.591 419.449V419.505Z" fill="#ECECEC"/>
<path d="M782.259 403.219C789.51 409.744 798.322 414.541 808.696 417.664C819.07 420.788 830.727 422.349 843.611 422.349C847.794 422.349 852.479 422.015 857.666 421.345C862.798 420.676 867.985 419.951 873.116 419.17C878.247 418.389 883.1 417.33 887.673 416.103C892.247 414.876 896.04 413.648 899.107 412.533C899.107 409.633 899.107 406.677 898.996 403.721C898.94 400.764 898.884 397.808 898.884 394.908C898.884 383.14 898.94 373.714 899.107 366.519C899.274 359.324 899.442 354.081 899.776 350.734C898.326 351.181 896.82 351.459 895.203 351.627C893.585 351.794 892.024 351.85 890.406 351.85C887.06 351.85 883.602 351.515 879.976 350.734C880.255 355.364 880.534 360.216 880.757 365.292C880.98 370.367 881.092 375.443 881.092 380.518C881.092 385.036 881.092 389.442 880.98 393.793C880.925 398.143 880.813 402.493 880.646 406.844C878.749 408.015 876.463 409.019 873.785 409.912C871.108 410.804 868.208 411.529 865.084 412.087C861.961 412.645 858.726 413.091 855.38 413.37C852.033 413.648 848.854 413.816 845.786 413.816C835.635 413.816 826.544 412.198 818.512 409.019C810.481 405.84 803.62 401.322 798.043 395.41C792.465 389.554 788.227 382.303 785.326 373.769C782.426 365.236 780.976 355.643 780.976 345.045C780.976 332.998 782.593 322.624 785.884 313.811C789.175 304.999 793.637 297.804 799.382 292.059C805.126 286.314 811.875 282.075 819.628 279.343C827.381 276.61 835.747 275.215 844.727 275.215C850.248 275.215 855.435 275.829 860.288 277.056C865.14 278.283 869.546 279.9 873.562 281.852C877.522 283.805 881.148 286.091 884.438 288.713C887.673 291.334 890.406 293.956 892.581 296.521H895.203C895.482 293.788 896.095 290.776 897.043 287.597C897.992 284.418 899.051 281.797 900.223 279.789C897.601 278.506 894.645 277.112 891.299 275.661C887.952 274.211 884.104 272.817 879.642 271.534C875.235 270.251 870.16 269.191 864.415 268.355C858.67 267.574 852.145 267.184 844.727 267.184C831.954 267.184 820.297 268.913 809.811 272.426C799.326 275.94 790.346 280.96 782.928 287.653C775.51 294.346 769.821 302.489 765.749 312.138C761.678 321.787 759.67 332.775 759.67 345.101C759.67 357.427 761.622 369.084 765.526 378.789C769.431 388.494 775.008 396.637 782.259 403.163V403.219Z" fill="#ECECEC"/>
<path d="M115.916 428.875C111.119 422.907 106.155 416.66 101.024 410.078C95.8927 403.553 90.873 397.306 86.1321 391.282C81.3355 385.314 77.0408 379.848 73.1366 374.829C69.2881 369.865 66.2205 366.016 64.0452 363.228C69.3996 362.502 75.3118 360.997 81.8374 358.654C88.3631 356.367 94.4984 353.132 100.187 349.005C105.876 344.878 110.729 339.635 114.689 333.276C118.649 326.918 120.601 319.333 120.601 310.52C120.601 302.266 119.095 295.349 116.027 289.828C113.016 284.306 108.833 279.844 103.59 276.442C98.3468 273.04 92.2116 270.585 85.2397 269.135C78.2679 267.685 70.9056 266.904 63.1529 266.904C57.7985 266.904 52.5556 267.127 47.4243 267.574C42.293 268.02 36.9944 268.243 31.6958 268.243C26.3972 268.243 21.0986 268.131 15.9673 267.852C10.836 267.574 5.59316 267.239 0.23877 266.904C0.796519 279.063 1.29849 290.943 1.74469 302.656C2.19089 314.369 2.41399 326.249 2.41399 338.408V385.872C2.41399 398.031 2.19089 409.967 1.74469 421.791C1.29849 433.56 0.796519 445.161 0.23877 456.595C4.47766 456.204 8.99543 456.037 13.7921 456.037C18.5887 456.037 23.1065 456.204 27.2896 456.595C26.7318 445.217 26.2299 433.615 25.7837 421.791C25.3375 410.023 25.1144 398.031 25.1144 385.872V365.737H35.6001C41.5122 371.817 47.9821 379.235 55.0655 387.936C62.1489 396.692 69.1208 405.449 75.9253 414.317C82.7298 423.186 88.9209 431.44 94.5541 439.193C100.187 446.946 104.371 452.746 107.103 456.595C109.669 456.204 112.346 456.037 115.135 456.037H131.421C134.21 456.037 136.943 456.204 139.676 456.595C137.11 454.029 133.708 450.236 129.469 445.272C125.23 440.308 120.713 434.842 115.916 428.819V428.875ZM43.5759 355.586C39.8947 355.586 36.5482 355.475 33.4806 355.308C30.4688 355.14 27.6242 354.75 25.0586 354.192V338.463C25.0586 328.536 25.2259 318.608 25.6164 308.624C26.0068 298.696 26.3414 288.657 26.7318 278.505C29.6879 278.115 33.2575 277.836 37.4964 277.557C41.7353 277.278 47.0339 277.167 53.5038 277.167C58.3004 277.167 63.1529 277.669 68.1168 278.673C73.0808 279.677 77.7101 281.573 81.949 284.306C86.1879 287.095 89.6459 290.776 92.3231 295.461C95.0003 300.146 96.3389 306.114 96.3389 313.253C96.3389 321.564 94.6657 328.368 91.2076 333.834C87.8054 339.244 83.5107 343.595 78.3794 346.83C73.2481 350.065 67.5591 352.296 61.4238 353.578C55.2328 354.861 49.3207 355.531 43.6316 355.531L43.5759 355.586Z" fill="#ECECEC"/>
<path d="M1113.73 397.194C1113.73 387.155 1111.55 379.179 1107.26 373.155C1102.91 367.132 1097.55 362.224 1091.08 358.375C1084.61 354.527 1077.7 351.292 1070.22 348.67C1062.75 346.049 1055.83 343.037 1049.36 339.635C1042.89 336.288 1037.54 332.105 1033.19 327.197C1028.84 322.289 1026.72 315.54 1026.72 306.951C1026.72 302.042 1027.61 297.469 1029.34 293.286C1031.07 289.103 1033.58 285.477 1036.82 282.465C1040.05 279.454 1043.79 277.111 1048.14 275.494C1052.43 273.876 1057.17 273.039 1062.36 273.039C1067.55 273.039 1071.95 273.932 1075.63 275.661C1079.32 277.39 1082.49 279.509 1085.17 282.075C1087.85 284.641 1089.97 287.429 1091.53 290.385C1093.09 293.397 1094.32 296.186 1095.27 298.752H1098.56C1099.67 293.453 1100.79 289.103 1101.85 285.645C1102.96 282.187 1104.36 278.896 1105.98 275.828C1100.45 271.478 1094.49 268.243 1088.02 266.123C1081.55 264.004 1073.96 263 1065.09 263C1056.22 263 1047.58 264.283 1040.22 266.848C1032.86 269.414 1026.55 272.984 1021.31 277.501C1016.07 282.075 1012.05 287.485 1009.32 293.788C1006.53 300.09 1005.19 307.062 1005.19 314.703C1005.19 325.468 1007.37 334.001 1011.66 340.416C1015.96 346.774 1021.37 352.017 1027.84 356.144C1034.31 360.271 1041.22 363.674 1048.7 366.407C1056.17 369.14 1063.09 372.151 1069.56 375.442C1075.97 378.733 1081.38 382.804 1085.73 387.768C1090.08 392.677 1092.2 399.37 1092.2 407.736C1092.2 413.202 1091.25 418.333 1089.41 423.185C1087.57 428.038 1084.95 432.221 1081.55 435.735C1078.14 439.304 1074.02 442.093 1069.11 444.213C1064.2 446.332 1058.73 447.336 1052.66 447.336C1046.58 447.336 1041.44 446.444 1036.65 444.715C1031.85 442.986 1027.67 440.755 1024.1 438.022C1020.53 435.289 1017.46 432.221 1015.01 428.875C1012.55 425.528 1010.55 422.182 1009.1 418.891H1005.8C1005.25 424.189 1004.63 428.484 1004.02 431.886C1003.35 435.233 1002.23 439.026 1000.56 443.209C1005.36 447.057 1011.27 450.459 1018.35 453.471C1025.44 456.483 1034.7 457.989 1046.07 457.989C1056.73 457.989 1066.26 456.483 1074.63 453.471C1083 450.459 1090.08 446.165 1095.88 440.643C1101.68 435.066 1106.09 428.596 1109.16 421.122C1112.17 413.648 1113.73 405.728 1113.73 397.362V397.194Z" fill="#ECECEC"/>
<path d="M1154.89 282.688C1158.74 282.409 1162.7 282.13 1166.83 281.907C1170.95 281.684 1175.08 281.573 1179.21 281.461C1183.34 281.405 1187.3 281.35 1191.03 281.35C1191.48 296.297 1191.7 311.301 1191.7 326.36V363.785C1191.7 373.378 1191.53 382.804 1191.14 392.063C1190.75 401.321 1190.36 410.468 1189.97 419.448C1193.32 419.169 1196.89 419.002 1200.63 419.002C1204.36 419.002 1207.93 419.169 1211.28 419.448C1210.83 410.468 1210.44 401.321 1210.11 392.063C1209.77 382.804 1209.55 373.378 1209.55 363.785V326.36C1209.55 311.301 1209.77 296.297 1210.22 281.35C1214.01 281.35 1217.92 281.35 1222.1 281.461C1226.23 281.517 1230.35 281.684 1234.48 281.907C1238.61 282.13 1242.62 282.353 1246.47 282.688C1250.32 282.967 1253.78 283.357 1256.79 283.804C1256.07 281.182 1255.68 278.951 1255.68 277.055C1255.68 275.326 1256.01 272.983 1256.79 270.083C1247.2 270.362 1237.88 270.641 1228.74 270.864C1219.59 271.087 1210.22 271.199 1200.68 271.199C1191.14 271.199 1181.77 271.087 1172.63 270.864C1163.48 270.641 1154.17 270.418 1144.57 270.083C1145.3 272.983 1145.63 275.214 1145.63 276.832C1145.63 278.84 1145.3 281.182 1144.57 283.804C1147.64 283.357 1151.04 283.023 1154.89 282.688Z" fill="#ECECEC"/>
<path d="M1284.29 402.549C1291.48 409.242 1300.07 414.206 1310.06 417.441C1320.04 420.732 1331.03 422.349 1342.91 422.349C1354.79 422.349 1365.94 420.732 1375.98 417.441C1385.97 414.206 1394.56 409.242 1401.75 402.549C1408.95 395.856 1414.52 387.713 1418.48 378.064C1422.44 368.415 1424.45 357.427 1424.45 345.101C1424.45 332.775 1422.44 321.787 1418.48 312.138C1414.52 302.489 1408.89 294.346 1401.75 287.653C1394.61 280.96 1385.97 275.884 1375.98 272.426C1366 268.968 1354.96 267.184 1342.91 267.184C1330.86 267.184 1320.1 268.913 1310.06 272.426C1300.02 275.94 1291.48 280.96 1284.29 287.653C1277.09 294.346 1271.52 302.489 1267.56 312.138C1263.54 321.787 1261.59 332.775 1261.59 345.101C1261.59 357.427 1263.6 368.415 1267.56 378.064C1271.52 387.713 1277.15 395.856 1284.29 402.549ZM1287.47 313.923C1290.54 305.166 1294.77 297.916 1300.18 292.171C1305.59 286.426 1312.01 282.187 1319.31 279.454C1326.62 276.721 1334.49 275.327 1342.91 275.327C1351.33 275.327 1359.42 276.721 1366.72 279.454C1374.03 282.187 1380.44 286.426 1385.85 292.171C1391.26 297.916 1395.56 305.166 1398.57 313.923C1401.58 322.68 1403.14 333.11 1403.14 345.157C1403.14 357.204 1401.64 367.578 1398.57 376.391C1395.5 385.203 1391.26 392.398 1385.85 398.143C1380.39 403.888 1374.03 408.127 1366.72 410.86C1359.42 413.593 1351.44 414.987 1342.91 414.987C1334.37 414.987 1326.62 413.593 1319.31 410.86C1312.01 408.127 1305.59 403.888 1300.18 398.143C1294.77 392.398 1290.48 385.147 1287.47 376.391C1284.46 367.634 1282.89 357.204 1282.89 345.157C1282.89 333.11 1284.4 322.735 1287.47 313.923Z" fill="#ECECEC"/>
<path d="M1468.85 419.505C1468.68 418.334 1468.57 416.158 1468.4 412.868C1468.23 409.633 1468.12 405.784 1467.96 401.434C1467.79 397.083 1467.68 392.398 1467.51 387.267C1467.34 382.191 1467.23 377.172 1467.17 372.263C1467.12 367.355 1467.01 362.614 1466.95 358.097C1466.9 353.579 1466.84 349.842 1466.84 346.774C1466.84 335.006 1466.9 325.747 1467.06 318.943C1467.23 312.138 1467.34 306.672 1467.51 302.656C1486.36 322.68 1505.21 342.814 1524.06 363.005C1542.92 383.251 1560.71 402.995 1577.39 422.294H1580.45V415.099C1580.45 411.641 1580.45 407.513 1580.34 402.828C1580.29 398.143 1580.17 393.068 1580.12 387.602C1580.06 382.191 1579.95 376.781 1579.9 371.371C1579.84 366.017 1579.78 360.885 1579.78 355.921V342.87C1579.78 338.687 1579.95 333.11 1580.23 326.138C1580.51 319.166 1580.84 312.082 1581.23 304.832C1581.57 297.581 1581.96 290.776 1582.29 284.362C1582.63 278.004 1582.96 273.207 1583.3 270.028C1580.4 270.753 1578.05 271.144 1576.33 271.144C1574.32 271.144 1571.81 270.753 1568.91 270.028C1569.63 282.801 1570.08 296.41 1570.3 310.8C1570.53 325.189 1570.64 340.081 1570.64 355.308V384.869C1563.94 378.176 1556.19 370.088 1547.27 360.607C1538.34 351.125 1528.92 341.03 1518.99 330.377C1509.06 319.724 1499.02 308.903 1488.98 297.971C1478.89 287.039 1469.46 276.777 1460.59 267.184H1457.13C1457.41 272.092 1457.58 279.566 1457.69 289.605C1457.75 299.589 1457.8 311.58 1457.8 325.524C1457.8 330.321 1457.75 335.731 1457.58 341.81C1457.41 347.89 1457.25 354.137 1457.02 360.495C1456.8 366.853 1456.52 373.267 1456.13 379.626C1455.8 385.984 1455.46 391.896 1455.18 397.362C1454.9 402.828 1454.57 407.457 1454.18 411.417C1453.79 415.322 1453.51 417.999 1453.17 419.449C1455.63 419.17 1458.31 419.003 1461.21 419.003C1463.94 419.003 1466.5 419.17 1468.85 419.449V419.505Z" fill="#ECECEC"/>
<path d="M1623.62 391.784C1623.23 400.987 1622.84 410.246 1622.45 419.504C1629.14 419.225 1635.73 419.058 1642.25 419.058H1681.74C1688.21 419.058 1694.68 419.225 1701.21 419.504C1700.76 418.054 1700.54 416.158 1700.54 413.871C1700.54 412.867 1700.54 411.752 1700.65 410.525C1700.76 409.297 1700.87 408.182 1701.21 407.178C1697.75 407.903 1693.62 408.461 1688.94 408.795C1684.19 409.186 1679.23 409.465 1673.93 409.688C1668.63 409.911 1663.22 410.023 1657.7 410.023H1642.47C1642.31 407.29 1642.25 403.218 1642.14 397.864C1642.08 392.509 1642.03 385.705 1642.03 377.394V355.865C1642.03 353.523 1642.03 351.626 1642.14 350.12C1642.2 348.614 1642.25 347.164 1642.25 345.881C1644.87 345.881 1648.39 345.881 1652.79 345.993C1657.2 346.049 1661.94 346.16 1666.96 346.216C1671.98 346.272 1676.94 346.495 1681.96 346.774C1686.98 347.053 1691.33 347.443 1695.13 347.889C1694.68 345.714 1694.46 343.539 1694.46 341.364C1694.46 339.021 1694.68 336.79 1695.13 334.615C1691.95 334.894 1688.54 335.173 1685.03 335.396C1681.46 335.619 1677.61 335.842 1673.37 336.065C1669.19 336.288 1664.51 336.455 1659.43 336.623C1654.35 336.79 1648.61 336.846 1642.25 336.846C1642.25 334.113 1642.25 330.041 1642.14 324.687C1642.08 319.333 1642.03 313.811 1642.03 308.178C1642.03 302.544 1642.14 298.027 1642.36 293.843C1642.59 289.66 1642.75 285.198 1642.92 280.569C1650 280.569 1656.14 280.681 1661.22 280.904C1666.29 281.127 1670.98 281.35 1675.27 281.684C1679.57 281.963 1683.58 282.242 1687.43 282.577C1691.28 282.856 1695.52 283.135 1700.15 283.469C1699.7 281.294 1699.48 279.119 1699.48 276.944C1699.48 274.768 1699.7 272.593 1700.15 270.418C1693.62 270.697 1687.15 270.976 1680.79 271.199C1674.43 271.422 1667.96 271.533 1661.44 271.533C1654.91 271.533 1648.44 271.422 1641.97 271.199C1635.5 270.976 1629.03 270.753 1622.51 270.418C1622.95 279.677 1623.34 288.991 1623.68 298.25C1624.01 307.508 1624.24 316.934 1624.24 326.528V363.952C1624.24 373.546 1624.07 382.916 1623.68 392.119L1623.62 391.784Z" fill="#ECECEC"/>
<path d="M1757.32 422.349C1765.74 422.349 1773.21 421.178 1779.85 418.779C1786.43 416.381 1792.01 412.979 1796.58 408.573C1801.15 404.166 1804.61 398.979 1807.01 393.011C1809.41 387.043 1810.58 380.741 1810.58 374.104C1810.58 366.128 1808.85 359.769 1805.45 354.973C1802.05 350.176 1797.81 346.272 1792.73 343.204C1787.66 340.137 1782.19 337.571 1776.33 335.507C1770.48 333.444 1764.96 330.99 1759.94 328.312C1754.86 325.635 1750.62 322.345 1747.22 318.44C1743.82 314.536 1742.09 309.182 1742.09 302.321C1742.09 298.417 1742.76 294.792 1744.15 291.445C1745.55 288.099 1747.5 285.254 1750.01 282.856C1752.52 280.458 1755.53 278.617 1758.93 277.334C1762.34 276.051 1766.07 275.382 1770.14 275.382C1774.22 275.382 1777.67 276.051 1780.57 277.446C1783.47 278.84 1785.98 280.513 1788.1 282.577C1790.22 284.585 1791.9 286.816 1793.12 289.214C1794.35 291.613 1795.35 293.844 1796.08 295.851H1798.7C1799.59 291.668 1800.43 288.155 1801.32 285.422C1802.21 282.689 1803.27 280.067 1804.56 277.613C1800.21 274.155 1795.47 271.534 1790.39 269.916C1785.31 268.243 1779.29 267.406 1772.32 267.406C1765.35 267.406 1758.54 268.41 1752.74 270.474C1746.94 272.482 1741.98 275.326 1737.85 278.952C1733.72 282.577 1730.54 286.872 1728.37 291.891C1726.19 296.911 1725.13 302.433 1725.13 308.512C1725.13 317.046 1726.86 323.906 1730.26 328.982C1733.67 334.057 1737.91 338.24 1742.98 341.475C1748.06 344.71 1753.52 347.443 1759.38 349.618C1765.24 351.794 1770.7 354.192 1775.78 356.813C1780.85 359.435 1785.09 362.67 1788.49 366.574C1791.9 370.478 1793.62 375.777 1793.62 382.47C1793.62 386.82 1792.9 390.892 1791.45 394.74C1790 398.589 1787.94 401.935 1785.26 404.724C1782.58 407.513 1779.29 409.8 1775.5 411.473C1771.65 413.146 1767.35 413.983 1762.56 413.983C1757.76 413.983 1753.69 413.313 1749.95 411.919C1746.16 410.525 1742.87 408.74 1740.08 406.565C1737.24 404.389 1734.84 401.935 1732.89 399.258C1730.93 396.581 1729.37 393.904 1728.2 391.338H1725.58C1725.13 395.521 1724.69 398.979 1724.19 401.656C1723.68 404.334 1722.79 407.345 1721.45 410.692C1725.24 413.76 1729.87 416.437 1735.51 418.835C1741.14 421.233 1748.39 422.405 1757.37 422.405L1757.32 422.349Z" fill="#ECECEC"/>
<path d="M905.688 446.667H150.385V456.093H905.688V446.667Z" fill="#ECECEC"/>
<path d="M1824.86 446.667H1108.76V456.093H1824.86V446.667Z" fill="#ECECEC"/>
</g>
<defs>
<clipPath id="clip0_1161_2644">
<rect width="1824.62" height="194.877" fill="white" transform="translate(0.23877 263)"/>
</clipPath>
</defs>
</svg>
