<svg width="1825" height="720" viewBox="0 0 1825 720" fill="none" xmlns="http://www.w3.org/2000/svg">
<g clip-path="url(#clip0_1238_2613)">
<path d="M-1.42977e-05 272.498C1.10315 268.919 1.19303 264.351 3.52193 261.965C8.74356 256.613 14.7251 251.791 21.0336 247.747C31.2317 241.217 42.9334 238.341 54.6432 235.53C68.9925 232.082 83.4316 232.212 97.8463 233.977C119.632 236.641 141.074 241.087 161.707 248.793C182.471 256.547 195.701 271.501 200.073 292.829C203.48 309.458 201.944 326.251 191.509 340.747C187.644 346.124 182.79 350.839 178.075 355.538C175.877 357.728 176.081 359.051 178.017 361.119C188.33 372.126 195.022 385.274 198.896 399.631C200.971 407.313 201.323 415.492 202.107 423.484C202.924 431.819 202.982 440.228 204.003 448.53C205.008 456.669 201.184 461.359 194.647 465.282C176.784 475.995 157.441 481.249 136.825 479.116C121.07 477.49 111.926 468.501 109.082 452.616C106.835 440.072 105.511 427.374 103.648 414.757C103.403 413.098 102.39 411.554 101.728 409.96C101.213 410.05 100.706 410.132 100.192 410.222C100.192 411.693 100.273 413.172 100.175 414.634C99.6277 423.133 98.9413 431.623 98.5 440.121C97.9116 451.374 90.8514 457.862 81.9036 463.01C72.5389 468.403 62.4062 470.699 51.6279 471.672C41.2909 472.603 31.6076 471.639 22.3901 466.908C10.574 460.845 4.60058 451.112 4.39629 437.874C4.33909 434.075 4.45349 430.283 4.37177 426.483C4.11028 414.561 3.7589 402.647 3.51376 390.733C3.1869 374.872 2.94992 359.011 2.61489 343.15C2.37791 331.816 2.17362 320.473 1.68333 309.148C1.44635 303.632 0.571995 298.149 -0.0163574 292.649C-0.0163574 285.932 -0.0163574 279.207 -0.0163574 272.49L-1.42977e-05 272.498ZM96.3999 323.914L97.642 324.339C99.9218 322.435 102.398 320.719 104.433 318.586C107.423 315.432 108.51 308.984 106.386 306.23C103.746 302.798 99.9219 302.864 96.3999 303.428V323.922V323.914Z" fill="#ECECEC"/>
<path d="M726.893 495.141C723.812 494.847 720.732 494.537 717.643 494.267C700.033 492.723 683.045 489.143 667.764 479.664C649.566 468.379 638.975 451.775 634.775 431.24C632.659 420.87 631.694 410.173 631.221 399.575C630.444 382.415 630.224 365.222 630.273 348.037C630.354 315.808 630.845 283.58 631.024 251.351C631.041 247.976 632.536 247.069 635.429 247.069C652.712 247.077 670.003 247.11 687.286 247.044C690.93 247.028 691.813 248.654 691.804 252.111C691.698 300.609 691.6 349.107 691.862 397.606C691.911 406.276 692.908 415.035 696.944 423.109C702.566 434.353 711.285 441.372 723.592 444.453C736.021 447.566 747.535 446.185 758.215 439.076C767.718 432.751 772.466 423.117 774.149 412.461C775.963 400.956 776.797 389.197 776.879 377.536C777.189 335.763 777.058 293.982 776.911 252.201C776.895 248.041 778.48 246.995 782.231 247.02C798.051 247.126 813.871 247.053 829.691 247.069C834.676 247.069 835.877 248.246 835.877 253.173C835.894 298.754 836.253 344.335 835.706 389.9C835.493 407.648 834.12 425.462 828.09 442.565C822.337 458.9 811.959 471.158 797.111 479.844C783.383 487.877 768.405 491.848 752.666 493.384C747.584 493.883 742.517 494.537 737.443 495.117H726.893V495.141Z" fill="#ECECEC"/>
<path d="M1604.97 280.409C1604.97 278.358 1605.08 276.601 1604.95 274.861C1603.6 256.491 1617.25 242.518 1633.99 238.219C1645.06 235.376 1656.22 234.011 1667.51 234.926C1678.35 235.8 1689.54 236.078 1699.39 241.284C1705.68 244.609 1711.29 249.235 1717.13 253.369C1719 254.693 1720.64 256.36 1722.44 257.782C1725.36 260.078 1727.65 259.555 1730.27 256.793C1736.92 249.774 1745.72 247.159 1755.04 246.268C1761.1 245.688 1767.27 244.993 1773.3 245.467C1785.13 246.391 1797.38 246.374 1808.04 252.47C1818.16 258.256 1824.37 267.326 1824.56 279.134C1824.82 294.701 1824.15 310.276 1823.79 325.851C1823.6 334.268 1823.22 342.685 1822.94 351.093C1822.63 359.943 1822.36 368.801 1822.05 377.651C1821.77 386.067 1821.55 394.484 1821.16 402.893C1820.65 413.883 1820.06 424.866 1819.34 435.84C1819.23 437.663 1818.7 439.714 1817.67 441.193C1812.32 448.915 1806.54 456.098 1796.97 459.227C1785.43 462.994 1773.9 465.691 1761.64 463.624C1753.28 462.21 1744.85 461.229 1736.47 459.938C1723.42 457.936 1714.22 449.413 1704.89 441.176C1700.63 437.417 1696.51 433.503 1691.86 429.238C1690.76 434.19 1689.53 439.419 1688.46 444.682C1686.6 453.752 1682.39 460.543 1672.89 463.64C1660.83 467.571 1648.61 469.605 1636.17 467.064C1620.04 463.763 1604.54 451.889 1603.13 433.601C1603.01 431.959 1602.31 430.357 1601.87 428.674C1596.31 434.762 1591.15 441.103 1585.27 446.7C1568.94 462.259 1549.74 472.874 1527.56 477.507C1518.72 479.354 1509.6 481.045 1500.64 480.882C1484.68 480.596 1469.03 477.859 1454.03 471.648C1436.22 464.269 1420.78 453.63 1408.08 439.346C1392.89 422.259 1382.26 402.607 1378.22 379.89C1376.63 371.007 1374.6 361.937 1374.96 353.038C1375.42 341.23 1377.33 329.349 1379.86 317.769C1384.12 298.231 1394.01 281.218 1407.04 266.289C1420.39 251 1436.7 239.453 1455.85 232.197C1468.3 227.482 1481.07 224.834 1494.46 224.181C1524.42 222.701 1551 231.314 1574.89 249.079C1586.26 257.537 1595.73 267.735 1603.6 279.461C1603.81 279.78 1604.24 279.943 1604.93 280.425L1604.97 280.409ZM1529.77 349.867C1529.35 344.531 1528.99 339.187 1528.5 333.859C1527.02 317.9 1522.63 302.938 1512.66 290.076C1501.69 275.907 1485.81 275.441 1474.53 289.283C1462.88 303.567 1458.75 320.94 1457.47 338.86C1456.82 348.086 1457.53 357.459 1458.26 366.709C1459.54 382.84 1464.26 398.014 1474.48 410.778C1482.48 420.788 1493.12 423.934 1503.99 417.912C1510.35 414.39 1514.57 408.645 1517.92 402.329C1526.62 385.928 1529.91 368.319 1529.78 349.867H1529.77Z" fill="#ECECEC"/>
<path d="M291.831 297.031C291.831 307.646 291.717 317.828 291.896 328.009C291.954 331.221 294.421 332.144 297.388 332.12C305.175 332.062 312.979 332.34 320.758 332.046C335.336 331.507 349.678 333.738 363.741 336.769C377.224 339.67 381.359 348.324 380.296 361.905C379.34 374.138 371.937 380.079 361.191 384.221C354.294 386.877 347.479 388.046 340.272 388.185C327.304 388.446 314.335 388.757 301.367 389.059C300.37 389.084 299.382 389.19 298.793 389.231C298.793 400.842 298.826 412.119 298.777 423.404C298.76 426.264 300.632 426.656 302.781 426.754C315.994 427.359 329.224 427.686 342.421 428.593C354.507 429.418 366.576 430.603 378.597 432.099C388.01 433.275 390.315 439.764 391.107 447.143C392.603 460.912 385.943 470.333 374.388 476.65C368.537 479.845 362.36 482.599 356.076 484.83C352.505 486.096 348.411 486.333 344.554 486.309C309.016 486.129 273.478 485.81 237.94 485.484C227.913 485.394 214.397 473.079 213.629 463.134C212.828 452.756 212.265 442.362 211.856 431.968C211.398 420.054 211.235 408.123 210.933 396.209C210.647 384.875 210.344 373.533 210.058 362.199C209.756 350.13 209.478 338.06 209.176 325.999C208.898 314.804 208.628 303.617 208.285 292.43C208.056 285.035 207.664 277.648 207.435 270.253C207.288 265.448 208.881 261.844 212.845 258.371C217.568 254.22 221.449 249.17 227.537 246.71C234.222 244.014 240.873 241.669 248.317 241.767C266.916 241.995 285.523 241.726 304.121 241.873C321.053 242.004 338.008 242.069 354.915 242.845C365.841 243.352 376.219 246.972 382.282 256.614C387.365 264.688 387.512 274.24 384.096 283.18C383.075 285.852 379.773 288.377 376.938 289.505C366.781 293.517 356.493 296.925 345.15 296.336C336.162 295.871 327.108 296.867 318.086 297.023C309.465 297.17 300.844 297.055 291.815 297.055L291.831 297.031Z" fill="#ECECEC"/>
<path d="M1063.9 405.041H1130.08C1132.12 411.922 1133.15 418.9 1136.2 424.841C1140.82 433.846 1149.65 438.038 1159.31 439.77C1169.2 441.543 1179.12 441.364 1188.83 438.169C1205.66 432.636 1209.24 417.143 1203.96 404.624C1200.75 397.008 1193.31 394.541 1185.96 392.612C1162.45 386.434 1138.86 380.616 1115.45 374.12C1103.26 370.737 1092.27 364.69 1083.61 355.17C1074.5 345.168 1069.88 333.352 1068.66 319.853C1067.79 310.235 1068.63 300.919 1071.56 291.898C1077.13 274.746 1088.47 262.178 1104.19 253.532C1117.71 246.104 1132.34 242.296 1147.66 240.94C1154.42 240.343 1161.24 238.962 1167.94 239.363C1181.01 240.139 1194.08 241.569 1207.06 243.391C1218.68 245.017 1229.53 249.324 1239.26 255.894C1254.02 265.871 1262.46 279.935 1264.78 297.552C1265.4 302.259 1265.62 307.023 1265.95 311.771C1266.17 315.023 1263.93 315.44 1261.44 315.448C1253.82 315.456 1246.2 315.448 1238.59 315.448C1227.16 315.448 1215.74 315.464 1204.32 315.448C1198.78 315.44 1198.27 314.655 1197.97 309.197C1197.08 293.132 1187.79 283.8 1171.56 282.999C1162.41 282.549 1153.7 283.555 1146.05 289.177C1138.6 294.651 1136.35 302.333 1137.46 310.978C1138.45 318.815 1143.54 324.404 1150.7 326.643C1165.69 331.325 1180.95 335.117 1196.16 339.097C1212.35 343.329 1228.79 346.639 1243.82 354.492C1260.33 363.121 1270.39 376.318 1273.64 394.712C1276.37 410.206 1275.21 425.331 1268.79 439.705C1263.37 451.84 1254.31 460.984 1242.99 467.962C1231.12 475.276 1218.2 479.86 1204.49 481.911C1195.23 483.3 1185.84 483.938 1176.48 484.608C1155.01 486.136 1134 483.652 1113.55 476.796C1102.9 473.233 1093.22 467.848 1085.22 460.085C1075 450.165 1068.47 437.981 1066.19 423.795C1065.22 417.732 1064.67 411.595 1063.88 405.057L1063.9 405.041Z" fill="#ECECEC"/>
<path d="M415.745 441.161C415.745 435.613 415.794 430.064 415.736 424.516C415.467 400.042 415.173 375.56 414.862 351.086C414.584 329.096 414.331 307.098 413.963 285.109C413.824 276.986 413.244 268.872 413.146 260.749C413.032 250.453 423.017 239.209 434.613 239.201C445.301 239.193 455.989 239.086 466.678 239.225C478.633 239.389 490.58 239.781 502.527 240.075C514.62 240.369 526.78 240.01 538.8 241.121C552.504 242.396 565.366 247.127 576.455 255.438C587.208 263.495 595.838 273.66 601.623 285.787C611.159 305.783 610.375 326.032 601.631 346.15C597.276 356.185 591.262 365.141 583.09 372.422C570.637 383.502 556.214 390.906 539.601 393.39C532.475 394.452 525.235 394.934 518.028 395.147C508.222 395.441 498.408 395.319 488.602 395.163C485.407 395.114 484.263 396.062 484.239 399.38C484.083 418.452 483.814 437.525 483.381 456.597C483.209 464.139 481.395 471.412 474.8 475.947C468.901 480.009 462.241 482.991 454.976 483.669C448.039 484.315 441.044 484.568 434.073 484.577C421.857 484.585 416.627 477.394 415.875 466.566C415.287 458.142 415.761 449.635 415.761 441.169L415.745 441.161ZM484.304 331.548C484.598 331.548 484.892 331.548 485.186 331.556C485.186 333.746 485.358 335.952 485.146 338.118C484.811 341.517 485.995 342.914 489.575 342.669C496.529 342.203 503.499 341.983 510.469 341.754C524.859 341.272 539.29 332.757 538.032 314.518C537.403 305.366 530.179 295.004 521.035 293.689C510.347 292.144 499.487 291.842 488.708 290.878C485.137 290.559 484.198 292.005 484.247 295.405C484.418 307.45 484.312 319.503 484.312 331.556L484.304 331.548Z" fill="#ECECEC"/>
<path d="M885.985 446.806C885.985 419.546 886.092 392.294 885.953 365.033C885.846 345.658 885.43 326.292 885.103 306.925C884.85 292.086 884.727 277.23 884.171 262.398C883.689 249.43 892.858 241.929 903.857 242.566C910.5 242.95 917.209 241.855 923.893 241.912C928.616 241.953 933.519 242.141 937.997 243.44C946.422 245.884 949.92 252.642 950.083 260.846C950.573 286.055 950.753 311.273 951.023 336.482C951.088 342.472 950.982 348.461 951.039 354.451C951.309 380.102 951.652 405.752 951.873 431.403C951.905 434.933 952.821 436.551 956.849 436.485C983.3 436.028 1009.76 435.873 1036.21 435.497C1045.36 435.366 1055.94 442.467 1054.79 454.128C1054.25 459.586 1054.62 465.143 1053.84 470.553C1052.43 480.26 1044.78 484.256 1036.88 484.526C1019.52 485.114 1002.14 485.188 984.763 485.498C970.03 485.768 955.288 486.054 940.555 486.381C929.188 486.634 917.814 486.798 906.455 487.296C895.701 487.77 887.064 479.893 886.884 467.848C886.778 460.837 886.868 453.825 886.868 446.814C886.574 446.814 886.28 446.814 885.985 446.814V446.806Z" fill="#ECECEC"/>
<path d="M1294.69 357.827C1294.69 327.012 1294.59 296.197 1294.77 265.382C1294.81 257.995 1296.3 250.796 1302.14 245.354C1305.63 242.11 1309.81 240.59 1314.49 240.034C1318.62 239.544 1322.71 238.22 1326.82 238.179C1338.45 238.073 1350.11 238.195 1359.36 247.102C1364.59 252.152 1366.26 258.673 1366.64 265.415C1367.12 273.595 1366.76 281.831 1366.76 290.036C1366.76 344.654 1366.82 399.281 1366.69 453.9C1366.67 461.867 1365.37 469.745 1358.78 475.465C1352.28 481.111 1344.75 483.024 1336.23 481.741C1333.74 481.365 1331.14 481.724 1328.59 481.741C1320.61 481.781 1312.85 481.209 1306.31 475.685C1301.74 471.829 1297.42 467.833 1296.08 461.81C1295.23 458.043 1294.76 454.121 1294.74 450.272C1294.64 419.457 1294.69 388.642 1294.69 357.827H1294.69Z" fill="#ECECEC"/>
</g>
<defs>
<clipPath id="clip0_1238_2613">
<rect width="1824.62" height="271.141" fill="white" transform="translate(0 224)"/>
</clipPath>
</defs>
</svg>
