<svg width="1825" height="720" viewBox="0 0 1825 720" fill="none" xmlns="http://www.w3.org/2000/svg">
<g clip-path="url(#clip0_687_2651)">
<path d="M0.887732 108.8H83.4704C146.44 108.8 182.387 132.958 182.387 178.493C182.387 219.861 144.073 236.243 124.46 240.966L162.479 282.89H177.629V298.443H119.702C116.731 290.667 109.605 281.506 101.58 271.788L80.7836 246.801H59.0993V282.89H77.8126V298.443H0V282.89H17.2338V124.342H0.887732V108.8ZM59.1111 231.236H76.0372C116.731 231.236 137.231 215.967 137.231 179.038C137.231 146.002 119.998 124.342 84.3582 124.342H59.1111V231.236Z" fill="#ECECEC"/>
<path d="M282.311 298.432H201.811V282.879H221.116V124.342H201.811V108.8H281.719V124.353H263.005V282.89H282.311V298.443V298.432Z" fill="#ECECEC"/>
<path d="M438.812 163.473L428.419 153.199C431.982 149.873 434.065 143.481 434.065 138.486C434.065 123.773 422.489 116.553 401.704 116.553C360.739 116.553 339.362 151.542 339.362 192.91C339.362 238.445 362.822 275.374 408.238 275.374C439.415 275.374 460.484 259.821 470.876 249.003L481.861 260.105C466.722 279.541 439.699 299.532 396.354 299.532C336.083 299.532 294.23 256.495 294.23 199.017C294.23 145.706 339.35 101 402.888 101C432.574 101 453.654 111.83 465.23 121.548L474.439 113.499L484.832 124.046L438.812 163.473Z" fill="#ECECEC"/>
<path d="M611.896 102.681C676.807 102.681 722.483 142.936 722.483 203.74C722.483 264.544 669.894 301.201 606.782 301.201C533.456 301.201 497.698 244.836 497.698 197.917C497.698 135.728 550.287 102.681 611.896 102.681ZM617.553 282.831C660.094 282.831 679.351 256.897 679.351 212.949C679.351 157.803 652.341 118.222 604.202 118.222C562.905 118.222 541.481 147.706 541.481 187.015C541.481 247.073 579.05 282.831 617.553 282.831Z" fill="#ECECEC"/>
<path d="M1714.03 102.681C1778.94 102.681 1824.62 142.936 1824.62 203.74C1824.62 264.544 1772.03 301.201 1708.92 301.201C1635.59 301.201 1599.83 244.836 1599.83 197.917C1599.83 135.728 1652.42 102.681 1714.03 102.681ZM1719.69 282.831C1762.23 282.831 1781.49 256.897 1781.49 212.949C1781.49 157.803 1754.48 118.222 1706.34 118.222C1665.04 118.222 1643.62 147.706 1643.62 187.015C1643.62 247.073 1681.19 282.831 1719.69 282.831Z" fill="#ECECEC"/>
<path d="M851.358 298.432H820.927L783.05 169.604H782.447L763.662 282.89H784.27V298.443H723.371V282.89H741.848L768.207 124.353H750.642V108.8H808.203L846.079 237.912H846.683L900.006 108.8H954.241V124.353H934.545L950.299 282.89H969.687V298.443H886.075V282.89H909.7L898.491 169.604L851.358 298.432Z" fill="#ECECEC"/>
<path d="M1064.77 298.432H984.27V282.879H1003.57V124.342H984.27V108.8H1064.18V124.353H1045.46V282.89H1064.77V298.443V298.432Z" fill="#ECECEC"/>
<path d="M1111.74 124.342H1093.56V108.8H1147.34L1243.29 232.159V124.342H1223.26V108.8H1284.56V124.353H1266.38V298.443H1239.89C1233.72 288.169 1223.26 275.682 1214.63 264.568L1135.46 161.555H1134.84V282.89H1153.94V298.443H1093.57V282.89H1111.75V124.342H1111.74Z" fill="#ECECEC"/>
<path d="M1439.91 166.822L1429.52 156.548C1433.08 153.222 1435.17 146.83 1435.17 141.835C1435.17 127.123 1423.58 119.903 1402.78 119.903C1361.79 119.903 1340.4 154.891 1340.4 196.259C1340.4 241.794 1363.88 278.724 1409.32 278.724C1440.5 278.724 1461.6 263.171 1471.99 252.352L1482.99 263.455C1467.83 282.89 1440.8 302.882 1397.43 302.882C1337.13 302.882 1295.25 259.845 1295.25 202.367C1295.25 149.056 1340.4 104.361 1403.97 104.361C1433.67 104.361 1454.77 115.192 1466.34 124.909L1475.55 116.861L1485.94 127.407L1439.9 166.834L1439.91 166.822Z" fill="#ECECEC"/>
<path d="M1592.21 298.432H1511.71V282.879H1531.02V124.342H1511.71V108.8H1591.62V124.353H1572.91V282.89H1592.21V298.443V298.432Z" fill="#ECECEC"/>
<path d="M360.881 424.785H454.625C520.803 424.785 560.632 466.153 560.632 521.69C560.632 566.952 535.207 614.428 443.298 614.428H360.277V598.875H378.967V440.338H360.892V424.785H360.881ZM422.158 598.863H442.067C490.785 598.863 514.068 571.379 514.068 520.566C514.068 455.868 471.48 440.326 443.605 440.326H422.158V598.863Z" fill="#ECECEC"/>
<path d="M675.954 426.454C676.854 432.005 677.458 437.284 679.257 442.007L738.723 600.544H753.436V616.097H681.66V600.544H696.372L682.251 563.342H604.167L590.353 600.544H610.771V616.097H550.701V600.544H566.917L611.671 483.648C618.879 464.769 627.283 446.162 631.793 426.454H675.943H675.954ZM611.683 545.292H675.659L644.422 460.614H643.819L611.683 545.292Z" fill="#ECECEC"/>
<path d="M1035.25 616.938H951.483V601.385H972.279V442.848H966.041C933.669 442.848 926.532 465.065 925.052 473.67H910.493L921.193 420.643H935.752L933.965 427.306H1052.48L1050.7 420.643H1065.25L1075.95 473.67H1061.4C1059.92 465.065 1052.78 442.848 1020.41 442.848H1014.17V601.385H1035.26V616.938H1035.25Z" fill="#ECECEC"/>
<path d="M1097.63 426.454H1181.1C1244.75 426.454 1281.09 450.612 1281.09 496.147C1281.09 537.515 1242.36 553.897 1222.54 558.62L1260.97 600.544H1276.29V616.097H1217.73C1214.72 608.321 1207.52 599.159 1199.41 589.442L1178.39 561.934H1156.47V600.544H1175.38V616.097H1096.72V600.544H1114.13V442.007H1097.61V426.454H1097.63ZM1156.48 548.902H1173.59C1199.72 548.902 1235.45 533.633 1235.45 496.703C1235.45 463.668 1218.04 442.007 1182 442.007H1156.48V548.902Z" fill="#ECECEC"/>
<path d="M1297.15 427.295H1401.5C1412.55 427.295 1423.6 427.023 1434.65 426.182L1453.06 462.271L1441.4 468.663C1429.75 455.619 1414.39 442.836 1388.61 442.836H1358.23V497.532H1422.68V480.878H1439.87V533.349H1422.68V515.583H1358.23V601.373H1384.01C1421.14 601.373 1435.57 581.938 1446.92 565.556L1460.43 570.551L1435.26 619.139C1433.12 618.583 1430.04 618.027 1426.05 617.471C1422.06 617.198 1416.54 616.914 1409.17 616.914H1297.15V601.361H1314.96V442.824H1297.15V427.271V427.295Z" fill="#ECECEC"/>
</g>
<defs>
<clipPath id="clip0_687_2651">
<rect width="1824.62" height="518.151" fill="white" transform="translate(0 101)"/>
</clipPath>
</defs>
</svg>
