<svg width="1826" height="720" viewBox="0 0 1826 720" fill="none" xmlns="http://www.w3.org/2000/svg">
<path d="M108.596 448.504C121.512 448.504 131.991 447.164 140.034 444.361C155.265 439 162.942 429.13 162.942 414.629C162.942 406.222 159.164 399.641 151.61 395.011C144.055 390.503 132.113 386.481 115.907 383.07L88.2462 376.977C60.9512 371.006 42.1859 364.426 31.7066 357.359C14.038 345.539 5.26462 327.139 5.26462 301.916C5.26462 279.007 13.7943 259.998 30.8537 244.767C47.913 229.657 73.0146 221.98 106.037 221.98C133.575 221.98 157.215 229.17 176.589 243.427C196.086 257.683 206.321 278.52 207.174 305.693H154.656C153.681 290.34 146.857 279.373 134.063 272.915C125.533 268.65 114.932 266.457 102.259 266.457C88.1244 266.457 76.9139 269.259 68.5061 274.743C60.0983 280.348 55.8334 288.025 55.8334 298.016C55.8334 307.155 59.9764 313.979 68.2624 318.488C73.6239 321.534 84.9562 325.068 102.381 329.089L147.467 339.69C167.207 344.32 182.194 350.535 192.186 358.212C207.784 370.275 215.582 387.7 215.582 410.486C215.582 433.273 206.443 453.257 188.165 468.732C169.887 484.207 144.055 491.884 110.667 491.884C77.2795 491.884 49.7408 484.329 30.2444 469.097C10.748 453.866 0.87793 432.907 0.87793 406.343H53.1527C54.8586 418.041 58.0268 426.815 62.9009 432.542C71.7961 443.021 87.0277 448.382 108.596 448.382V448.504Z" fill="#ECECEC"/>
<path d="M482.317 432.908H385.81L367.654 485.549H310.505L403.966 229.658H465.745L558.475 485.549H499.133L482.317 432.908ZM467.086 388.798L434.429 288.147L400.676 388.798H467.086Z" fill="#ECECEC"/>
<path d="M642.675 229.658H697.387V439.61H827.038V485.67H642.675V229.658Z" fill="#ECECEC"/>
<path d="M1060.75 492.616C1023.34 492.616 994.707 482.624 974.967 462.762C948.403 438.391 935.122 403.176 935.122 357.238C935.122 311.299 948.403 275.231 974.967 251.713C994.707 231.851 1023.34 221.859 1060.75 221.859C1098.16 221.859 1126.8 231.851 1146.54 251.713C1172.98 275.231 1186.14 310.446 1186.14 357.238C1186.14 404.029 1172.98 438.391 1146.54 462.762C1126.8 482.624 1098.16 492.616 1060.75 492.616ZM1112.42 423.891C1125.09 408.294 1131.43 385.995 1131.43 357.238C1131.43 328.48 1125.09 306.303 1112.3 290.706C1099.62 274.987 1082.32 267.189 1060.75 267.189C1039.18 267.189 1021.76 274.987 1008.84 290.584C995.926 306.181 989.468 328.48 989.468 357.238C989.468 385.995 995.926 408.294 1008.84 423.891C1021.76 439.488 1039.06 447.287 1060.75 447.287C1082.44 447.287 1099.62 439.488 1112.42 423.891Z" fill="#ECECEC"/>
<path d="M1328.95 485.549H1278.01V229.658H1357.58L1405.23 430.837L1452.51 229.658H1531.22V485.549H1480.29V312.396C1480.29 307.4 1480.29 300.455 1480.41 291.437C1480.41 282.42 1480.53 275.597 1480.53 270.723L1430.94 485.549H1377.81L1328.58 270.723C1328.58 275.597 1328.58 282.542 1328.71 291.437C1328.71 300.455 1328.83 307.4 1328.83 312.396V485.549H1328.95Z" fill="#ECECEC"/>
<path d="M1807.83 373.688H1680.61V439.488H1825.62V485.549H1627.24V229.658H1819.28V274.987H1680.74V329.334H1807.95V373.81L1807.83 373.688Z" fill="#ECECEC"/>
<path d="M1748.12 189.203H1776.15L1818.8 139H1759.7L1748.12 189.203Z" fill="#ECECEC"/>
</svg>
