<svg width="1825" height="720" viewBox="0 0 1825 720" fill="none" xmlns="http://www.w3.org/2000/svg">
<g clip-path="url(#clip0_993_5856)">
<path d="M0 321.278V398.898C0 401.282 1.87319 403.245 4.24915 403.358L87.4724 406.626C89.224 406.691 90.8539 405.718 91.6081 404.128L97.852 391.089C98.7684 389.183 97.3736 386.97 95.2571 386.97H28.7061C25.8355 386.97 23.5082 384.642 23.5082 381.772V314.677C23.5082 312.366 21.3593 310.663 19.1049 311.191L5.47362 314.377C2.26243 315.123 0 317.986 0 321.278Z" fill="#ECECEC"/>
<path d="M117.484 306.876L119.714 406.585C119.795 410.105 122.625 412.951 126.144 413.04L218.563 415.473C221.685 415.554 224.264 413.048 224.264 409.918V401.955C224.264 399.117 221.994 396.79 219.155 396.733L145.412 395.111C143.028 395.062 141.106 393.141 141.049 390.756L140.554 370.151C140.506 368.084 142.152 366.381 144.22 366.364L206.335 365.764C209.27 365.74 211.622 363.315 211.549 360.38L211.355 351.857C211.273 348.257 208.289 345.411 204.689 345.508L143.538 347.073C141.462 347.13 139.743 345.475 139.703 343.4L139.419 326.646C139.362 323.184 142.111 320.313 145.582 320.24L214.29 318.699C218.053 318.618 221.061 315.545 221.061 311.782V306.268C221.061 302.481 217.907 299.465 214.12 299.627L120.379 303.795C118.733 303.868 117.452 305.238 117.484 306.893V306.876Z" fill="#ECECEC"/>
<path d="M375.093 408.742L390.346 397.463C392.365 395.971 395.065 395.809 397.247 397.057C409.451 404.055 452.396 425.171 504.886 410.51C504.886 410.51 537.363 397.674 522.986 383.88C519.969 380.985 515.98 379.339 511.812 379.063C481.857 377.117 432.383 372.819 416.968 371.433C416.968 371.433 350.109 365.935 380.331 315.869C380.331 315.869 397.733 282.898 476.188 286.563C476.188 286.563 524.786 291.931 543.972 311.369C545.213 312.626 545.237 314.645 544.021 315.926L534.436 326.03C531.784 328.828 527.422 329.079 524.445 326.622C516.482 320.054 497.848 309.058 462.152 308.847C462.152 308.847 412.078 306.649 403.872 329.93C402.623 333.474 403.856 337.391 406.994 339.467C411.673 342.556 421.72 345.922 443.225 346.708C443.225 346.708 526.87 347.933 543.056 361.053C559.241 374.174 559.542 400.196 540.007 415.578C540.007 415.578 512.225 439.508 459.719 437.676C415.476 436.135 384.021 417.898 375.214 412.197C373.982 411.394 373.917 409.61 375.101 408.734L375.093 408.742Z" fill="#ECECEC"/>
<path d="M752.107 416.86L674.958 287.982C673.523 285.582 670.936 284.114 668.138 284.114H658.651C656.12 284.114 653.745 285.323 652.252 287.358L559.988 412.797C558.731 414.5 558.787 416.843 560.125 418.49L569.702 430.28C571.778 432.826 575.679 432.818 577.738 430.264L606.444 394.665C609.891 390.392 615.081 387.91 620.562 387.91H692.636C700.25 387.91 707.24 392.111 710.816 398.825L729.491 433.872C731.883 438.349 738.111 438.835 741.16 434.781L751.645 422.471C752.983 420.898 753.17 418.644 752.107 416.86ZM686.813 365.837L630.374 364.467C629.352 364.443 628.785 363.267 629.401 362.448L658.975 323.289C659.51 322.584 660.54 322.494 661.181 323.103C661.181 323.103 663.256 325.527 664.903 326.849C666.022 327.749 666.97 328.844 667.546 330.158C667.554 330.174 667.562 330.198 667.57 330.214C668.252 331.796 669.03 333.336 669.987 334.763L688.646 362.569C689.57 364.005 688.516 365.878 686.813 365.837Z" fill="#ECECEC"/>
<path d="M868.829 388.648L923.265 285.939C924.539 283.539 927.417 282.493 929.931 283.522L938.243 286.912C941.17 288.104 943.352 290.634 944.106 293.699L976.258 424.661C976.858 427.093 975.869 429.64 973.785 431.026L958.418 441.317C955.458 443.295 951.436 441.698 950.65 438.227L927.223 335.501C926.833 333.774 924.506 333.474 923.679 335.039L873.476 430.386C872.195 432.843 869.9 434.278 867.143 434.027L860.639 433.435C858.141 433.208 855.976 431.634 854.979 429.339L813.412 332.444C812.844 331.131 810.914 331.366 810.679 332.777L794.883 427.166C794.242 431.002 791.728 434.254 788.185 435.851L777.586 440.611C772.964 442.687 767.888 438.803 768.682 433.799L791.144 292.167C791.818 287.909 794.923 283.749 799.083 282.614L813.039 280.157C815.18 279.776 817.304 280.903 818.188 282.89L865.213 388.543C865.894 390.075 868.043 390.148 868.829 388.664V388.648Z" fill="#ECECEC"/>
<path d="M1186.49 305.611C1153.32 279.144 1109.21 283.385 1109.21 283.385C1109.21 283.385 1027.35 280.563 1003.72 349.717C1003.72 349.717 989.598 393.822 1031.94 424.166C1031.94 424.166 1064.4 446.077 1119.45 442.176C1119.45 442.176 1205.89 442.176 1217.18 367.711C1221.42 327.838 1186.49 305.611 1186.49 305.611ZM1106.39 413.584C1013.2 412.902 1019.24 367.005 1019.24 367.005C1026.65 309.496 1113.45 310.907 1113.45 310.907C1199.13 309.48 1198.48 359.415 1198.48 359.415C1201.71 419.317 1106.39 413.584 1106.39 413.584Z" fill="#ECECEC"/>
<path d="M1243.32 305.871L1241.98 389.313C1241.85 397.73 1244.25 406.034 1249.06 412.943C1257.07 424.425 1273.62 437.675 1307.2 436.8C1307.2 436.8 1353.36 440.165 1368.87 411.256C1371.71 405.969 1373.11 400.033 1373.24 394.032L1375.18 305.96C1375.23 303.892 1373.47 302.23 1371.41 302.4L1352.33 303.924C1350.17 304.095 1348.5 305.911 1348.51 308.084L1349.02 390.7C1349.02 390.7 1350.25 414.783 1315.44 413.729C1284.26 412.789 1273.54 409.261 1269.9 393.497C1269.18 390.416 1268.89 387.261 1268.89 384.099L1269.03 302.749C1269.03 299.716 1266.21 297.478 1263.26 298.159L1247.46 301.005C1245.1 301.427 1243.37 303.462 1243.33 305.863L1243.32 305.871Z" fill="#ECECEC"/>
<path d="M1533.42 309.56L1437.29 303.292C1435.98 303.203 1434.76 303.941 1434.23 305.133L1432.98 307.955C1432.78 308.409 1432.66 308.895 1432.62 309.39L1424.35 429.242C1424.11 432.834 1427.65 435.478 1431.02 434.221L1446.28 428.512C1447.1 428.204 1447.68 427.442 1447.75 426.566L1451.82 377.49C1451.87 376.898 1452.39 376.444 1452.99 376.484L1481.82 378.374C1483.56 378.487 1485.17 379.371 1486.2 380.782L1529.42 440.181C1530.78 442.046 1533.41 442.435 1535.25 441.049L1549.02 430.702C1550.49 429.591 1551.21 427.734 1550.86 425.917C1550.44 423.784 1549.78 421.709 1548.89 419.738C1548 417.776 1546.88 415.911 1545.55 414.191L1519.99 381.22C1519.31 380.312 1519.88 379.006 1521.01 378.885C1526.6 378.252 1539.72 376.687 1542.58 375.495C1546.24 373.971 1561.51 366.34 1563.34 349.854C1565.17 333.368 1561.51 313.217 1533.42 309.56ZM1532.2 346.302C1529.3 362.788 1509.61 361.264 1509.61 361.264L1455.76 357.323C1454.39 357.225 1453.37 356.033 1453.48 354.663L1455.68 326.119C1455.79 324.692 1457.01 323.613 1458.44 323.678L1512.18 326.07C1514.04 326.151 1515.91 326.33 1517.74 326.695C1537.26 330.579 1532.2 346.302 1532.2 346.302Z" fill="#ECECEC"/>
<path d="M1755.98 416.657L1670.51 309.107C1669.79 308.206 1668.72 307.688 1667.57 307.688H1661.18C1660.55 307.688 1659.93 307.842 1659.38 308.15C1658.83 308.45 1658.21 308.604 1657.59 308.604H1653.2C1651.96 308.604 1650.8 309.22 1650.11 310.242L1576.1 418.895C1573.93 422.082 1576.92 426.242 1580.63 425.196L1589.03 422.828C1590.6 422.39 1592.19 422.041 1593.8 421.79L1601.22 420.614C1602.35 420.436 1603.36 419.82 1604.03 418.895L1620.42 396.149C1621.35 394.86 1622.87 394.106 1624.46 394.146L1705.51 396.482C1707.7 396.53 1709.76 397.536 1711.17 399.223L1725.1 416.057C1726.07 417.233 1727.48 417.971 1729.01 418.1L1755.49 420.371C1756.22 420.436 1756.84 419.86 1756.84 419.13C1756.84 418.23 1756.54 417.363 1755.98 416.657ZM1692.82 375.82L1637.45 374.23C1636.16 374.19 1635.4 372.738 1636.12 371.66L1661.25 334.464L1691.91 372.43C1692.49 373.168 1692.82 374.084 1692.82 375.033V375.82Z" fill="#ECECEC"/>
<path d="M1799.57 321.367C1799.61 319.47 1798.1 317.913 1796.2 317.913H1777.32C1775.19 317.913 1773.46 319.656 1773.48 321.789L1774.62 414.662C1774.62 414.662 1773.93 419.47 1779.31 419.584C1782.31 419.649 1784.2 420.03 1785.29 420.354C1787.08 420.89 1788.93 421.254 1790.8 421.287C1793.56 421.336 1796.85 420.857 1797.97 418.554L1798.65 345.792C1798.65 345.159 1798.82 344.535 1799.12 343.983C1799.42 343.416 1799.58 342.775 1799.58 342.134V321.375L1799.57 321.367Z" fill="#ECECEC"/>
<path d="M1769.44 278.332C1768.65 278.486 1767.92 278.827 1767.3 279.338C1764.88 281.341 1758.19 286.96 1757.95 288.087C1757.64 289.458 1757.95 300.608 1757.95 301.062C1757.95 301.516 1762.53 310.833 1771.23 311.287C1771.23 311.287 1780.24 313.274 1787.25 300.3C1787.25 300.3 1789.24 294.039 1787.25 287.325C1785.27 280.611 1777.68 276.759 1769.44 278.34V278.332Z" fill="#ECECEC"/>
<path d="M1808.62 281.333C1808.62 281.333 1798.2 283.506 1795.69 292.556C1795.69 292.556 1794.81 298.451 1795.69 300.681C1796.25 302.133 1802.44 308.239 1804.96 308.352C1807.49 308.466 1814.47 308.409 1816.19 307.696C1817.91 306.982 1816.76 307.671 1817.91 306.982C1819.05 306.293 1823.52 302.514 1824.2 300.227C1824.88 297.94 1824.54 297.94 1824.54 297.94C1824.54 297.94 1824.65 290.042 1824.19 289.353C1823.73 288.664 1818.35 281.568 1814.12 281.341C1809.89 281.114 1808.62 281.341 1808.62 281.341V281.333Z" fill="#ECECEC"/>
</g>
<defs>
<clipPath id="clip0_993_5856">
<rect width="1824.62" height="164.646" fill="white" transform="translate(0 278)"/>
</clipPath>
</defs>
</svg>
