<svg width="1825" height="720" viewBox="0 0 1825 720" fill="none" xmlns="http://www.w3.org/2000/svg">
<g clip-path="url(#clip0_908_4728)">
<path d="M118.725 483.404C114.648 487.467 108.887 489.505 101.427 489.505H23.3996C15.9395 489.505 10.1639 487.453 6.10118 483.333C2.02429 479.214 0 473.283 0 465.511V403.678H38.6738V456.593H86.1667V405.787L8.47936 332.29C5.30845 329.36 3.10013 326.416 1.86857 323.485C0.622858 320.555 0 316.606 0 311.623V254.051C0 246.378 2.03844 240.504 6.10118 236.441C10.1781 232.378 15.9395 230.34 23.3996 230.34H101.413C108.873 230.34 114.648 232.392 118.711 236.512C122.788 240.631 124.812 246.449 124.812 253.994V312.09H86.1384V263.238H38.6738V309.981L116.361 383.138C119.532 386.309 121.726 389.353 122.972 392.283C124.218 395.213 124.841 399.163 124.841 404.131V465.78C124.841 473.453 122.802 479.327 118.739 483.39L118.725 483.404Z" fill="#ECECEC"/>
<path d="M238.512 489.505V373.158H185.937V489.505H147.263V230.34H185.937V337.188H238.512V230.34H277.526V489.505H238.512Z" fill="#ECECEC"/>
<path d="M403.994 489.505H321.565C305.965 489.505 298.165 481.592 298.165 465.766V230.34H336.839V456.593H389.074V230.34H427.748V465.752C427.748 481.578 419.835 489.491 404.008 489.491L403.994 489.505Z" fill="#ECECEC"/>
<path d="M524.616 264.597V489.491H485.942V264.597H443.546V230.34H567.353V264.597H524.616Z" fill="#ECECEC"/>
<path d="M657.512 264.597V489.491H618.838V264.597H576.441V230.34H700.248V264.597H657.512Z" fill="#ECECEC"/>
<path d="M716.343 489.505V230.34H822.852V264.597H755.003V340.246H813.353V373.824H755.003V455.234H823.857V489.491H716.329L716.343 489.505Z" fill="#ECECEC"/>
<path d="M935.349 489.505L892.612 368.897V345.455H930.607V263.238H881.755V489.491H843.081V230.34H945.867C961.466 230.34 969.266 238.253 969.266 254.079V348.385C969.266 363.773 961.58 371.686 946.206 372.125H932.971L975.707 488.132V489.491H935.335L935.349 489.505Z" fill="#ECECEC"/>
<path d="M1062.19 489.505V230.34H1100.86V489.505H1062.19Z" fill="#ECECEC"/>
<path d="M1242.36 483.404C1238.28 487.467 1232.52 489.505 1225.06 489.505H1147.05C1139.59 489.505 1133.81 487.453 1129.75 483.333C1125.67 479.214 1123.65 473.283 1123.65 465.511V403.678H1162.32V456.593H1209.82V405.787L1132.13 332.29C1128.96 329.36 1126.75 326.416 1125.52 323.485C1124.27 320.555 1123.65 316.606 1123.65 311.623V254.051C1123.65 246.378 1125.69 240.504 1129.75 236.441C1133.83 232.378 1139.59 230.34 1147.05 230.34H1225.06C1232.52 230.34 1238.3 232.392 1242.36 236.512C1246.44 240.631 1248.46 246.449 1248.46 253.994V312.09H1209.79V263.238H1162.3V309.981L1239.98 383.138C1243.15 386.309 1245.35 389.353 1246.59 392.283C1247.84 395.213 1248.46 399.163 1248.46 404.131V465.78C1248.46 473.453 1246.42 479.327 1242.36 483.39V483.404Z" fill="#ECECEC"/>
<path d="M1268.75 489.505V230.34H1307.42V454.894H1370.51V489.491H1268.75V489.505Z" fill="#ECECEC"/>
<path d="M1486.51 489.505L1478.71 440.314H1430.2L1422.4 489.505H1384.06V488.826L1434.26 230H1474.97L1524.84 488.826V489.505H1486.51ZM1454.27 290.375L1435.28 407.401H1473.27L1454.27 290.375Z" fill="#ECECEC"/>
<path d="M1638.34 489.505L1576.48 326.345C1576.71 328.61 1577.05 330.875 1577.5 333.125C1577.95 334.937 1578.29 336.919 1578.52 339.057C1578.75 341.208 1578.86 343.19 1578.86 344.988V489.491H1540.87V230.34H1574.67L1636.53 390.117C1636.08 387.852 1635.63 385.601 1635.17 383.336C1634.72 381.524 1634.44 379.557 1634.32 377.405C1634.21 375.253 1634.15 373.286 1634.15 371.474V230.34H1672.15V489.505H1638.34Z" fill="#ECECEC"/>
<path d="M1811.21 476.27C1802.28 485.089 1790.01 489.505 1774.41 489.505H1695.38V230.34H1774.41C1790.24 230.34 1802.57 234.813 1811.38 243.745C1820.2 252.678 1824.62 264.611 1824.62 279.531V440.653C1824.62 455.574 1820.15 467.45 1811.21 476.27ZM1785.61 285.024C1785.61 277.988 1783.57 272.595 1779.51 268.858C1775.43 265.121 1769.89 263.238 1762.89 263.238H1734.05V456.593H1761.87C1769.78 456.593 1775.71 454.611 1779.68 450.633C1783.62 446.67 1785.61 441.276 1785.61 434.467V285.024Z" fill="#ECECEC"/>
</g>
<defs>
<clipPath id="clip0_908_4728">
<rect width="1824.62" height="259.505" fill="white" transform="translate(0 230)"/>
</clipPath>
</defs>
</svg>
