<svg width="1825" height="720" viewBox="0 0 1825 720" fill="none" xmlns="http://www.w3.org/2000/svg">
<g clip-path="url(#clip0_925_5358)">
<path d="M53.2933 378.808H98.5498V336.911H53.2933V322.089H103.095V278.282H0V437.964H104.544V394.157H53.2933V378.808Z" fill="#ECECEC"/>
<path d="M338.798 378.808H384.054V336.911H338.798V322.089H388.6V278.282H285.504V437.964H389.983V394.157H338.798V378.808Z" fill="#ECECEC"/>
<path d="M1120.02 378.808H1165.27V336.911H1120.02V322.089H1169.82V278.282H1066.72V437.964H1171.2V394.157H1120.02V378.808Z" fill="#ECECEC"/>
<path d="M197.363 304.566C195.255 309.375 193.806 314.382 192.159 319.388H190.512L172.989 278.348H108.365L163.174 367.741V438.03H219.036V367.741L272.79 278.282H208.628L197.363 304.566Z" fill="#ECECEC"/>
<path d="M484.778 337.372L471.8 334.342C467.387 333.288 460.272 332.366 460.272 326.371C460.272 319.652 467.584 317.741 472.657 317.741C485.041 317.741 496.108 323.143 505.99 330.06L521.471 288.295C505.99 278.545 489.389 274 471.405 274C437.084 274 402.895 295.607 402.895 334.342C402.895 359.836 421.735 373.472 444.133 377.622L455.661 379.796C460.865 380.85 468.441 381.509 468.441 388.887C468.441 396.265 459.416 398.636 453.751 398.636C440.575 398.636 428.191 391.917 417.914 383.683L414.95 381.311L397.361 427.358C415.147 436.647 438.204 442.312 458.098 442.312C492.222 442.312 526.609 423.076 526.609 384.144C526.609 356.476 509.02 343.038 484.712 337.438L484.778 337.372Z" fill="#ECECEC"/>
<path d="M1334.31 338.229L1321.33 335.198C1316.92 334.144 1309.8 333.222 1309.8 327.227C1309.8 320.508 1317.12 318.598 1322.19 318.598C1334.57 318.598 1345.64 324 1355.52 330.916L1371 289.151C1355.52 279.402 1338.92 274.856 1320.94 274.856C1286.61 274.856 1252.43 296.464 1252.43 335.198C1252.43 360.692 1271.27 374.328 1293.66 378.479L1305.19 380.652C1310.4 381.706 1317.97 382.365 1317.97 389.743C1317.97 397.121 1308.95 399.493 1303.28 399.493C1290.11 399.493 1277.72 392.774 1267.44 384.539L1264.48 382.168L1246.89 428.215C1264.68 437.503 1287.73 443.168 1307.63 443.168C1341.75 443.168 1376.14 423.933 1376.14 385C1376.14 357.333 1358.55 343.894 1334.24 338.295L1334.31 338.229Z" fill="#ECECEC"/>
<path d="M958.225 280.258H901.77V439.94H971.993C1016.72 439.94 1048.74 409.835 1048.74 362.405C1048.74 303.71 1009.48 280.258 958.225 280.258ZM960.663 392.049H957.237V330.192H960.663C980.886 330.192 993.271 339.744 993.271 362.141C993.271 383.09 979.108 391.983 960.663 391.983V392.049Z" fill="#ECECEC"/>
<path d="M876.737 280.258H819.689V439.94H876.737V280.258Z" fill="#ECECEC"/>
<path d="M1794.32 280.258H1739.9H1709.67V334.605H1739.9V439.94H1794.32V334.605H1824.62V280.258H1794.32Z" fill="#ECECEC"/>
<path d="M1473.7 334.737H1442.67V280.258H1387.6V334.737V385.395V439.94H1442.67V385.395H1473.7V439.94H1528.77V280.258H1473.7V334.737Z" fill="#ECECEC"/>
<path d="M739.716 373.34L720.678 278.414H702.299H683.854L664.816 373.34L648.347 278.414L594.395 280.258L637.675 439.94H685.171L702.299 361.68L719.361 439.94H766.857L810.137 280.258L756.185 278.414L739.716 373.34Z" fill="#ECECEC"/>
<path d="M1639.91 375.448C1639.91 386.845 1639.51 396.858 1625.15 396.858C1610.79 396.858 1610.39 386.845 1610.39 375.448V280.258H1556.51V384.934C1556.51 427.358 1583.65 446.594 1625.15 446.594C1666.65 446.594 1693.79 427.292 1693.79 384.934V280.258H1639.91V375.448Z" fill="#ECECEC"/>
</g>
<defs>
<clipPath id="clip0_925_5358">
<rect width="1824.62" height="172.594" fill="white" transform="translate(0 274)"/>
</clipPath>
</defs>
</svg>
