<svg width="1825" height="720" viewBox="0 0 1825 720" fill="none" xmlns="http://www.w3.org/2000/svg">
<g clip-path="url(#clip0_875_14396)">
<path d="M4.25429 157H66.6888V318.778H4.25429V157Z" fill="#ECECEC"/>
<path d="M117.51 157H179.944V277.155H291.246V318.778H117.51V157Z" fill="#ECECEC"/>
<path d="M127.283 440.886C126.823 439.506 125.673 438.126 123.949 436.517C122.224 434.907 120.154 433.527 117.625 432.147C115.095 430.883 112.336 429.733 109.116 428.928C105.897 428.123 102.562 427.663 99.1129 427.663C92.3291 427.663 86.695 428.238 82.3258 429.503C77.9565 430.768 75.7719 433.297 75.7719 437.322C75.7719 440.426 77.7266 442.841 81.5209 444.565C85.3153 446.175 90.3744 447.555 96.6983 448.705C103.022 449.739 110.151 450.774 118.2 451.579C126.248 452.384 134.412 453.419 142.575 454.684C150.854 455.948 159.018 457.673 166.951 459.743C175 461.927 182.129 464.802 188.452 468.596C194.776 472.276 199.835 476.99 203.63 482.739C207.424 488.488 209.379 495.501 209.379 503.895C209.379 509.989 208.114 516.543 205.699 523.327C203.17 530.226 198.456 536.549 191.327 542.413C184.198 548.277 174.195 553.222 161.432 557.016C148.669 560.925 131.997 562.88 111.416 562.88C90.8343 562.88 74.8521 561.385 60.8245 558.396C46.7969 555.406 35.2989 551.267 26.3305 545.978C17.362 540.689 10.8081 534.365 6.66885 527.006C2.52956 519.647 0.34494 511.599 0.34494 502.86L82.9007 505.85C83.5906 507.229 84.6254 508.609 86.1201 510.334C87.6149 511.944 89.5695 513.553 92.0991 515.048C94.6287 516.543 97.6181 517.808 101.298 518.727C104.977 519.762 109.231 520.222 114.175 520.222C120.499 520.222 125.558 519.187 129.353 517.003C133.147 514.818 135.102 512.289 135.102 509.299C135.102 506.77 133.147 504.815 129.353 503.205C125.558 501.595 120.499 500.216 114.175 498.951C107.851 497.686 100.723 496.536 92.789 495.501C84.8553 494.467 76.6917 493.087 68.4132 491.477C60.1346 489.867 51.971 487.913 44.0374 485.613C36.1038 483.314 28.975 480.324 22.6511 476.76C16.3272 473.195 11.2681 468.941 7.47371 463.882C3.67936 458.823 1.7247 452.729 1.7247 445.37C1.7247 434.447 4.71419 425.249 10.5782 417.89C16.4422 410.416 24.0309 404.437 33.1143 399.953C42.3127 395.354 52.5459 392.134 63.929 390.295C75.197 388.34 86.3501 387.42 97.2732 387.42C113.37 387.42 127.513 388.34 139.931 390.295C152.349 392.249 162.927 395.354 171.78 399.608C180.634 403.862 187.763 409.496 193.167 416.51C198.571 423.409 202.135 432.032 203.975 442.266L127.628 440.771L127.283 440.886Z" fill="#ECECEC"/>
<path d="M228.925 475.15C228.925 446.52 238.469 424.789 257.556 409.726C276.642 394.779 304.352 387.305 340.801 387.305C357.128 387.305 372.191 389.26 385.988 393.054C399.671 396.849 411.514 402.483 421.402 409.956C431.291 417.43 439.109 426.628 444.628 437.437C450.147 448.36 452.907 460.892 452.907 475.15C452.907 490.672 450.147 504.01 444.628 515.048C439.109 526.086 431.406 535.17 421.402 542.298C411.514 549.427 399.671 554.601 385.988 557.936C372.306 561.27 357.243 562.88 340.801 562.88C324.359 562.88 309.182 561.27 295.384 557.936C281.701 554.601 269.858 549.427 260.085 542.298C250.197 535.17 242.608 526.086 237.089 515.048C231.685 504.01 228.925 490.672 228.925 475.15ZM297.454 474.92C297.454 488.948 301.133 499.986 308.607 507.919C316.08 515.853 326.774 519.877 340.801 519.877C354.829 519.877 364.717 516.083 372.536 508.379C380.354 500.676 384.149 489.523 384.149 475.035C384.149 468.711 383.229 462.962 381.389 457.558C379.549 452.154 376.905 447.555 373.341 443.53C369.776 439.506 365.292 436.402 359.773 434.102C354.369 431.802 347.93 430.653 340.686 430.653C327.233 430.653 316.655 434.332 308.952 441.691C301.133 449.05 297.339 460.203 297.339 475.035L297.454 474.92Z" fill="#ECECEC"/>
<path d="M583.869 496.536H547.651V559.2H480.617V388.455H620.778C635.15 388.455 647.223 389.835 656.997 392.594C666.77 395.354 674.704 399.148 680.683 403.977C686.661 408.806 691.031 414.67 693.675 421.339C696.32 428.008 697.585 435.252 697.585 443.071C697.585 448.59 696.895 453.764 695.4 458.708C693.905 463.652 691.376 468.136 687.811 472.161C684.247 476.185 679.648 479.519 673.899 482.509C668.15 485.383 661.136 487.568 652.742 488.833L697.93 559.43H624.227L583.754 496.766L583.869 496.536ZM550.525 453.074H610.89C613.879 453.074 616.179 452.154 617.788 450.429C619.513 448.705 620.318 446.635 620.318 444.22C620.318 442.151 619.398 440.196 617.558 438.471C615.719 436.747 613.419 435.827 610.66 435.827H550.525V453.074Z" fill="#ECECEC"/>
<path d="M784.854 496.536V559.2H717.821V388.455H855.222C860.511 388.455 875.919 389.835 885.692 392.594C895.465 395.354 903.399 399.148 909.378 403.977C915.357 408.806 919.726 414.67 922.371 421.339C925.015 428.008 926.28 435.482 926.28 443.53C926.28 451.579 924.9 458.938 922.371 465.492C919.726 472.046 915.472 477.565 909.493 482.279C903.514 486.878 895.58 490.442 885.807 492.972C876.034 495.501 869.595 496.651 855.222 496.651H784.739L784.854 496.536ZM784.854 453.304H841.885C844.759 453.304 847.059 452.499 848.783 450.774C850.508 449.049 851.313 447.095 851.313 444.68C851.313 442.611 850.393 440.656 848.553 438.816C846.714 436.977 844.414 436.057 841.655 436.057H784.854V453.189V453.304Z" fill="#ECECEC"/>
<path d="M992.509 388.34H1070.12L1137.15 559.085H1068.17L1059.43 538.044H994.348L985.955 559.085H919.841L992.394 388.34H992.509ZM1026.08 453.304L1009.64 494.467H1042.64L1026.08 453.304Z" fill="#ECECEC"/>
<path d="M1269.84 440.886C1269.38 439.506 1268.23 438.126 1266.51 436.517C1264.78 434.907 1262.71 433.527 1260.18 432.147C1257.65 430.883 1254.89 429.733 1251.67 428.928C1248.45 428.123 1245.12 427.663 1241.67 427.663C1234.89 427.663 1229.25 428.238 1224.88 429.503C1220.51 430.768 1218.33 433.297 1218.33 437.322C1218.33 440.426 1220.28 442.841 1224.08 444.565C1227.87 446.175 1232.93 447.555 1239.26 448.705C1245.58 449.739 1252.71 450.774 1260.76 451.579C1268.81 452.384 1276.97 453.419 1285.13 454.684C1293.41 455.948 1301.58 457.673 1309.51 459.743C1317.56 461.927 1324.69 464.802 1331.01 468.596C1337.33 472.276 1342.39 476.99 1346.19 482.739C1349.98 488.488 1351.94 495.501 1351.94 503.895C1351.94 509.989 1350.67 516.543 1348.26 523.327C1345.73 530.226 1341.01 536.549 1333.88 542.413C1326.76 548.277 1316.75 553.222 1303.99 557.016C1291.23 560.925 1274.56 562.88 1253.97 562.88C1233.39 562.88 1217.41 561.385 1203.38 558.396C1189.35 555.406 1177.86 551.267 1168.89 545.978C1159.92 540.689 1153.37 534.365 1149.23 527.006C1145.09 519.647 1142.9 511.599 1142.9 502.86L1225.46 505.85C1226.15 507.229 1227.18 508.609 1228.68 510.334C1230.17 511.944 1232.13 513.553 1234.66 515.048C1237.19 516.543 1240.18 517.808 1243.86 518.727C1247.53 519.762 1251.79 520.222 1256.73 520.222C1263.06 520.222 1268.12 519.187 1271.91 517.003C1275.7 514.818 1277.66 512.289 1277.66 509.299C1277.66 506.77 1275.7 504.815 1271.91 503.205C1268.12 501.595 1263.06 500.216 1256.73 498.951C1250.41 497.686 1243.28 496.536 1235.35 495.501C1227.41 494.467 1219.25 493.087 1210.97 491.477C1202.69 489.867 1194.53 487.913 1186.6 485.613C1178.66 483.314 1171.53 480.324 1165.21 476.76C1158.89 473.195 1153.83 468.941 1150.03 463.882C1146.24 458.823 1144.28 452.729 1144.28 445.37C1144.28 434.447 1147.27 425.249 1153.14 417.89C1159 410.416 1166.59 404.437 1175.67 399.953C1184.87 395.354 1195.1 392.134 1206.49 390.295C1217.75 388.34 1228.91 387.42 1239.83 387.42C1255.93 387.42 1270.07 388.34 1282.49 390.295C1294.91 392.249 1305.48 395.354 1314.34 399.608C1323.19 403.862 1330.32 409.496 1335.72 416.51C1341.13 423.409 1344.69 432.032 1346.53 442.266L1270.19 440.771L1269.84 440.886Z" fill="#ECECEC"/>
<path d="M1498.88 440.886C1498.42 439.506 1497.27 438.126 1495.55 436.517C1493.82 434.907 1491.75 433.527 1489.22 432.147C1486.69 430.883 1483.93 429.733 1480.71 428.928C1477.49 428.123 1474.16 427.663 1470.71 427.663C1463.93 427.663 1458.29 428.238 1453.92 429.503C1449.55 430.768 1447.37 433.297 1447.37 437.322C1447.37 440.426 1449.32 442.841 1453.12 444.565C1456.91 446.175 1461.97 447.555 1468.3 448.705C1474.62 449.739 1481.75 450.774 1489.8 451.579C1497.85 452.384 1506.01 453.419 1514.17 454.684C1522.45 455.948 1530.62 457.673 1538.55 459.743C1546.6 461.927 1553.73 464.802 1560.05 468.596C1566.37 472.276 1571.43 476.99 1575.23 482.739C1579.02 488.488 1580.98 495.501 1580.98 503.895C1580.98 509.989 1579.71 516.543 1577.3 523.327C1574.77 530.226 1570.05 536.549 1562.93 542.413C1555.8 548.277 1545.79 553.222 1533.03 557.016C1520.27 560.925 1503.6 562.88 1483.01 562.88C1462.43 562.88 1446.45 561.385 1432.42 558.396C1418.4 555.406 1406.9 551.267 1397.93 545.978C1388.96 540.689 1382.41 534.365 1378.27 527.006C1374.13 519.647 1371.94 511.599 1371.94 502.86L1454.5 505.85C1455.19 507.229 1456.22 508.609 1457.72 510.334C1459.21 511.944 1461.17 513.553 1463.7 515.048C1466.23 516.543 1469.22 517.808 1472.9 518.727C1476.58 519.762 1480.83 520.222 1485.77 520.222C1492.1 520.222 1497.16 519.187 1500.95 517.003C1504.75 514.818 1506.7 512.289 1506.7 509.299C1506.7 506.77 1504.75 504.815 1500.95 503.205C1497.16 501.595 1492.1 500.216 1485.77 498.951C1479.45 497.686 1472.32 496.536 1464.39 495.501C1456.45 494.467 1448.29 493.087 1440.01 491.477C1431.73 489.867 1423.57 487.913 1415.64 485.613C1407.7 483.314 1400.57 480.324 1394.25 476.76C1387.93 473.195 1382.87 468.941 1379.07 463.882C1375.28 458.823 1373.32 452.729 1373.32 445.37C1373.32 434.447 1376.31 425.249 1382.18 417.89C1388.04 410.416 1395.63 404.437 1404.71 399.953C1413.91 395.354 1424.14 392.134 1435.53 390.295C1446.8 388.34 1457.95 387.42 1468.87 387.42C1484.97 387.42 1499.11 388.34 1511.53 390.295C1523.95 392.249 1534.52 395.354 1543.38 399.608C1552.23 403.862 1559.36 409.496 1564.76 416.51C1570.17 423.409 1573.73 432.032 1575.57 442.266L1499.23 440.771L1498.88 440.886Z" fill="#ECECEC"/>
<path d="M1600.52 475.15C1600.52 446.52 1610.07 424.789 1629.15 409.726C1648.24 394.779 1675.95 387.305 1712.4 387.305C1728.73 387.305 1743.79 389.26 1757.59 393.054C1771.27 396.849 1783.11 402.483 1793 409.956C1802.89 417.43 1810.71 426.628 1816.23 437.437C1821.75 448.36 1824.5 460.892 1824.5 475.15C1824.5 490.672 1821.75 504.01 1816.23 515.048C1810.71 526.086 1803 535.17 1793 542.298C1783.11 549.427 1771.27 554.601 1757.59 557.936C1743.9 561.27 1728.84 562.88 1712.4 562.88C1695.96 562.88 1680.78 561.27 1666.98 557.936C1653.3 554.601 1641.46 549.427 1631.68 542.298C1621.8 535.17 1614.21 526.086 1608.69 515.048C1603.28 504.01 1600.52 490.672 1600.52 475.15ZM1669.05 474.92C1669.05 488.948 1672.73 499.986 1680.21 507.919C1687.68 515.853 1698.37 519.877 1712.4 519.877C1726.43 519.877 1736.32 516.083 1744.13 508.379C1751.95 500.676 1755.75 489.523 1755.75 475.035C1755.75 468.711 1754.83 462.962 1752.99 457.558C1751.15 452.154 1748.5 447.555 1744.94 443.53C1741.37 439.506 1736.89 436.402 1731.37 434.102C1725.97 431.802 1719.53 430.653 1712.28 430.653C1698.83 430.653 1688.25 434.332 1680.55 441.691C1672.73 449.05 1668.94 460.203 1668.94 475.035L1669.05 474.92Z" fill="#ECECEC"/>
</g>
<defs>
<clipPath id="clip0_875_14396">
<rect width="1824.62" height="405.995" fill="white" transform="translate(0 157)"/>
</clipPath>
</defs>
</svg>
