<svg width="1826" height="720" viewBox="0 0 1826 720" fill="none" xmlns="http://www.w3.org/2000/svg">
<g clip-path="url(#clip0_261_575)">
<path d="M176.828 265.785H147.794C142.179 265.785 133.291 266.041 133.291 273.583C133.291 285.166 151.377 281.637 151.377 295.753C151.377 308.987 136.508 358.536 111.847 410.162C110.408 413.207 106.147 413.264 104.595 410.276C74.658 352.275 64.4156 307.706 64.4156 292.224C64.4156 281.153 79.1726 284.17 79.1726 274.095C79.1726 266.041 69.2405 265.785 63.3716 265.785H16.9279C11.059 265.785 0.619019 266.269 0.619019 274.352C0.619019 282.434 10.0432 279.389 13.0905 292.993C29.3994 362.008 45.934 398.522 70.877 438.821C79.0315 451.912 80.8091 453.933 96.5819 453.933H103.749C108.63 453.933 113.173 451.628 116.136 447.729C127.027 433.357 153.268 391.919 176.885 302.043C179.678 292.224 180.355 287.443 185.716 282.918C188.764 280.414 190.795 278.137 190.795 274.095C190.795 266.525 182.387 265.785 176.8 265.785H176.828Z" fill="#ECECEC"/>
<path d="M277.928 281.381C280.411 280.385 283.43 278.877 283.43 274.323C283.43 267.521 276.01 265.757 269.943 265.757H217.631C211.564 265.757 204.143 267.521 204.143 274.323C204.143 278.848 205.808 281.125 212.411 282.89C218.731 284.398 218.731 287.927 218.731 297.746V418.131C218.731 426.953 218.195 430.966 211.028 433.755C207.162 435.52 204.143 437.028 204.143 441.553C204.143 448.355 211.564 450.12 217.631 450.12H269.943C276.01 450.12 283.43 448.355 283.43 441.553C283.43 437.028 280.411 435.52 274.627 432.731C268.843 429.97 268.843 425.929 268.843 418.131V297.774C268.843 288.952 269.379 285.423 277.928 281.41V281.381Z" fill="#ECECEC"/>
<path d="M461.331 287.557C439.859 270.424 415.875 267.663 389.662 267.663H317.486C311.984 267.663 305.24 269.428 305.24 276.229C305.24 280.755 306.735 283.031 312.745 284.796C318.501 286.304 318.501 289.833 318.501 299.652V420.037C318.501 428.86 317.994 432.872 311.504 435.661C308.005 437.426 305.268 438.934 305.268 443.459C305.268 450.261 312.012 452.026 317.514 452.026H398.184C424.396 452.026 449.875 445.736 468.865 426.583C486.359 408.71 494.09 383.523 494.09 358.564C494.09 330.36 483.848 305.173 461.388 287.528L461.331 287.557ZM383.173 434.153C364.183 434.153 363.958 427.351 363.958 409.735V307.222C363.958 291.342 363.958 285.564 381.677 285.564C424.622 285.564 445.361 321.594 445.361 361.381C445.361 401.168 424.876 434.182 383.173 434.182V434.153Z" fill="#ECECEC"/>
<path d="M1025.68 287.557C1004.21 270.424 980.225 267.663 954.012 267.663H881.836C876.333 267.663 869.59 269.428 869.59 276.229C869.59 280.755 871.085 283.031 877.095 284.796C882.851 286.304 882.851 289.833 882.851 299.652V420.037C882.851 428.86 882.344 432.872 875.854 435.661C872.355 437.426 869.618 438.934 869.618 443.459C869.618 450.261 876.362 452.026 881.864 452.026H962.534C988.746 452.026 1014.23 445.736 1033.21 426.583C1050.71 408.71 1058.44 383.523 1058.44 358.564C1058.44 330.36 1048.2 305.173 1025.74 287.528L1025.68 287.557ZM947.523 434.153C928.533 434.153 928.307 427.351 928.307 409.735V307.222C928.307 291.342 928.307 285.564 946.027 285.564C988.972 285.564 1009.71 321.594 1009.71 361.381C1009.71 401.168 989.226 434.182 947.523 434.182V434.153Z" fill="#ECECEC"/>
<path d="M654.611 407.316C648.121 407.316 642.365 414.858 638.387 419.411C627.637 431.251 617.902 431.991 602.919 431.991C568.947 431.734 565.956 429.97 565.956 404.043V360.471H603.653C620.639 360.471 618.636 369.294 627.129 369.294C637.117 369.294 635.876 354.95 635.876 348.148C635.876 341.858 635.876 330.759 627.129 330.759C618.382 330.759 621.373 340.065 603.653 340.065H565.956V293.989C565.956 288.951 567.198 283.658 592.931 283.658C618.664 283.658 624.138 285.422 633.647 296.01C636.891 299.795 639.628 306.17 645.13 306.17C651.62 306.17 654.131 301.132 654.131 295.326C654.131 290.033 653.144 272.815 649.899 268.802C647.896 266.297 643.663 265.785 636.158 265.785H519.541C514.039 265.785 507.295 267.55 507.295 274.352C507.295 278.877 508.79 281.153 514.772 282.918C520.528 284.426 520.528 287.955 520.528 297.774V418.159C520.528 426.982 520.02 430.995 513.531 433.784C510.032 435.548 507.295 437.056 507.295 441.582C507.295 448.383 514.039 450.148 519.541 450.148H643.607C654.837 450.148 657.094 449.209 660.085 438.565C663.612 425.957 663.612 415.655 663.612 415.655C663.612 410.873 659.126 407.344 654.611 407.344V407.316Z" fill="#ECECEC"/>
<path d="M1816.24 407.316C1809.75 407.316 1803.99 414.858 1800.01 419.411C1789.26 431.251 1779.53 431.991 1764.55 431.991C1730.57 431.734 1727.58 429.97 1727.58 404.043V360.471H1765.28C1782.27 360.471 1780.26 369.294 1788.76 369.294C1798.74 369.294 1797.5 354.95 1797.5 348.148C1797.5 341.858 1797.5 330.759 1788.76 330.759C1780.01 330.759 1783 340.065 1765.28 340.065H1727.58V293.989C1727.58 288.951 1728.83 283.658 1754.56 283.658C1780.29 283.658 1785.77 285.422 1795.27 296.01C1798.52 299.795 1801.26 306.17 1806.76 306.17C1813.25 306.17 1815.76 301.132 1815.76 295.326C1815.76 290.033 1814.77 272.815 1811.53 268.802C1809.52 266.297 1805.29 265.785 1797.79 265.785H1681.17C1675.67 265.785 1668.92 267.55 1668.92 274.352C1668.92 278.877 1670.42 281.153 1676.4 282.918C1682.16 284.426 1682.16 287.955 1682.16 297.774V418.159C1682.16 426.982 1681.65 430.995 1675.16 433.784C1671.66 435.548 1668.92 437.056 1668.92 441.582C1668.92 448.383 1675.67 450.148 1681.17 450.148H1805.23C1816.46 450.148 1818.72 449.209 1821.71 438.565C1825.24 425.957 1825.24 415.655 1825.24 415.655C1825.24 410.873 1820.75 407.344 1816.24 407.344V407.316Z" fill="#ECECEC"/>
<path d="M765.812 262C713.528 262 671.317 302.214 671.317 359.105C671.317 423.14 719.764 457.234 765.079 457.234C817.363 457.234 861.719 416.508 861.719 359.105C861.719 301.701 818.576 262 765.812 262ZM766.066 437.739C728.426 437.739 718.099 390.098 718.099 358.337C718.099 316.074 735.593 281.495 766.292 281.495C804.412 281.495 814.965 327.6 814.965 360.13C814.965 392.659 804.412 437.739 766.038 437.739H766.066Z" fill="#ECECEC"/>
<path d="M1340.34 262C1288.06 262 1245.85 302.214 1245.85 359.105C1245.85 423.14 1294.3 457.234 1339.61 457.234C1391.89 457.234 1436.25 416.508 1436.25 359.105C1436.25 301.701 1393.08 262 1340.34 262ZM1340.57 437.739C1302.93 437.739 1292.6 390.098 1292.6 358.337C1292.6 316.074 1310.1 281.495 1340.8 281.495C1378.92 281.495 1389.47 327.6 1389.47 360.13C1389.47 392.659 1378.92 437.739 1340.54 437.739H1340.57Z" fill="#ECECEC"/>
<path d="M1236.96 432.474C1233.46 424.989 1232.95 423.993 1232.98 424.079C1232.84 423.737 1232.53 423.026 1231.88 421.546C1223.28 399.376 1213.15 377.718 1196.7 360.101C1216.96 350.795 1235.18 334.914 1235.18 311.235C1235.18 295.355 1225.82 281.267 1211.65 274.209C1199.24 267.92 1183.29 267.407 1169.64 267.407H1079.77C1074.21 267.407 1067.35 269.172 1067.35 275.974C1067.35 280.499 1068.88 282.776 1074.94 284.54C1080.76 286.048 1080.76 289.577 1080.76 299.396V419.781C1080.76 428.604 1080.25 432.617 1073.67 435.406C1070.12 437.17 1067.35 438.679 1067.35 443.204C1067.35 450.006 1074.18 451.77 1079.77 451.77H1127.88C1133.44 451.77 1140.29 450.006 1140.29 443.204C1140.29 438.679 1137.5 437.17 1132.19 434.381C1126.89 431.592 1126.89 427.579 1126.89 419.781V374.957C1137.27 373.705 1146.13 372.452 1151.95 370.916C1161.82 381.987 1183.1 416.764 1183.1 429.6C1183.1 436.658 1172.2 435.889 1172.2 443.46C1172.2 452.026 1181.32 451.77 1187.39 451.77H1232.02C1236.82 451.77 1245.17 451.258 1245.17 444.456C1245.17 439.931 1243.93 435.434 1237.02 432.446L1236.96 432.474ZM1126.58 349.201V305.003C1126.58 292.395 1128.1 285.308 1149.12 285.308C1170.15 285.308 1185.83 293.562 1185.83 313.484C1185.83 340.264 1150.39 348.745 1126.61 349.201H1126.58Z" fill="#ECECEC"/>
<path d="M1638.7 267.407H1595C1583.77 267.407 1582.75 270.168 1579.51 278.734L1546.72 355.633C1533.49 325.921 1529.59 317.013 1517.85 282.491C1515.37 275.177 1514.1 267.379 1502.11 267.379H1453.41C1446.92 267.379 1439.19 267.635 1439.19 275.945C1439.19 281.979 1443.93 283.259 1448.67 284.768C1454.65 286.532 1457.98 290.09 1457.98 294.387C1457.98 300.933 1455.67 383.239 1455.41 416.195C1455.41 418.415 1455.04 420.578 1454.51 422.542C1453.27 426.953 1449.82 430.226 1445.68 432.104C1441.84 433.84 1439.19 437.512 1439.19 441.724C1439.19 447.644 1444.38 452.425 1450.78 452.425C1450.78 452.425 1463.51 453.762 1488.54 452.425C1494.94 452.083 1500.13 447.644 1500.13 441.724C1500.13 437.512 1497.48 433.84 1493.64 432.104C1487.61 429.372 1483.15 423.88 1482.89 417.22C1482.89 416.565 1482.87 415.854 1482.89 415.142L1483.94 313.228C1498.16 351.022 1508.4 383.751 1524.4 416.992L1527.22 422.684C1530.97 430.226 1541.67 430.226 1545.42 422.684L1546.77 419.952C1562.01 385.203 1574.48 352.445 1587.97 316.927L1586.19 416.082C1586.16 419.724 1585.88 422.713 1585.54 425.103C1585.01 428.718 1581.62 431.592 1578.38 433.186C1574.91 434.865 1572.54 438.451 1572.54 442.606C1572.54 448.383 1577.16 452.909 1582.89 453.051C1626.26 454.218 1635.74 453.051 1635.74 453.051C1641.47 453.051 1646.1 448.383 1646.1 442.606C1646.1 438.479 1644.8 434.552 1642 432.645C1637.01 429.23 1633.48 423.936 1633.17 417.875C1633.17 417.818 1633.17 417.732 1633.17 417.675C1633.09 374.103 1634.05 325.864 1634.05 299.425C1634.05 290.602 1634.56 287.073 1646.04 283.06C1648.3 282.292 1651.03 280.556 1651.03 276.002C1651.03 269.2 1644.29 267.436 1638.79 267.436L1638.7 267.407Z" fill="#ECECEC"/>
</g>
<defs>
<clipPath id="clip0_261_575">
<rect width="1824.62" height="195.206" fill="white" transform="translate(0.619141 262)"/>
</clipPath>
</defs>
</svg>
