<svg width="1825" height="720" viewBox="0 0 1825 720" fill="none" xmlns="http://www.w3.org/2000/svg">
<g clip-path="url(#clip0_984_6047)">
<path d="M614.689 78.3408C614.689 78.3408 599.755 78.1158 596.854 80.1232C593.952 82.1305 589.049 111.779 605.771 116.907C605.771 116.907 626.781 115.066 629.125 113.396C629.125 113.396 646.179 113.727 654.203 109.381C662.226 105.035 668.918 109.049 667.579 115.066C666.241 121.082 668.58 147.503 654.203 163.888C639.825 180.272 631.796 207.357 642.502 220.402C653.208 233.447 671.594 225.418 671.594 225.418C671.594 225.418 691.993 216.387 692.325 191.31C692.657 166.233 697.34 107.38 697.34 107.38C697.34 107.38 717.071 103.702 718.741 107.048C720.41 110.394 718.906 120.59 723.424 121.425C727.942 122.26 729.944 118.08 730.11 115.237C730.11 115.237 731.525 138.976 725.005 145.999C725.005 145.999 722.998 151.684 726.509 162.721C730.021 173.759 711.38 200.506 712.387 208.53C713.299 215.837 713.66 229.302 728.594 229.261C730.98 229.255 733.325 228.544 735.285 227.182C736.167 226.566 737.286 226.045 738.471 226.146C741.147 226.371 746.719 230.38 750.065 227.484C753.411 224.589 758.758 218.229 756.975 198.836C755.193 179.443 754.34 167.624 757.331 167.405C760.321 167.186 773.697 167.18 775.699 165.398C775.699 165.398 791.083 169.632 795.761 167.849C800.439 166.067 800.237 172.172 799.995 179.218C799.716 187.414 792.859 194.821 794.197 203.295C795.536 211.769 794.642 217.341 795.761 220.461C796.88 223.582 818.943 231.161 826.973 219.567C835.002 207.973 833.214 182.564 832.326 168.738C831.437 154.911 831.058 127.945 833.143 125.937C835.227 123.93 839.236 119.471 838.567 115.906C837.898 112.342 834.552 111.223 834.333 108.327C834.114 105.431 833.439 93.1681 827.648 93.1681C821.857 93.1681 809.143 98.071 803.346 111.003C803.346 111.003 800.225 126.831 801.12 130.846C801.12 130.846 770.358 130.177 767.456 132.629C767.456 132.629 765.674 125.493 767.231 122.154C768.789 118.814 768.794 110.784 766.562 105.881C764.33 100.978 763.441 93.399 763.441 93.399C763.441 93.399 752.966 92.5049 750.29 93.174C747.613 93.8431 746.056 88.7152 746.056 88.7152C746.056 88.7152 749.846 89.1593 751.409 86.7078C752.972 84.2563 754.974 82.474 756.093 82.474C757.212 82.474 760.108 82.699 763.897 82.0299C767.687 81.3607 781.733 80.0225 784.628 79.8034C787.524 79.5843 793.321 74.9004 795.103 74.4504C796.886 74.0004 792.877 66.871 792.652 62.8562C792.427 58.8415 798.005 51.262 791.758 47.9224C785.511 44.5827 782.615 49.0356 780.389 49.9297C778.162 50.8239 762.109 53.7194 759.658 57.2842C757.206 60.8489 750.296 61.743 748.733 59.0665C747.169 56.39 746.838 50.6521 741.657 50.3146C740.301 50.2258 699.466 59.2856 692.781 65.0827C692.781 65.0827 682.081 71.3239 680.518 71.0989C678.954 70.8739 650.644 73.3253 647.748 71.543C644.853 69.7606 640.613 69.9797 639.725 69.9797C638.837 69.9797 621.67 71.9871 619.438 74.6636C617.206 77.3401 614.701 78.3408 614.701 78.3408H614.689Z" fill="#ECECEC"/>
<path d="M942.003 58.5983C941.991 51.3801 939.652 47.6318 941.659 45.2869C943.661 42.948 945.336 41.6097 947.344 39.2708C949.345 36.9318 951.69 35.5935 953.028 32.9171C954.361 30.2406 955.367 29.909 955.699 26.2258C956.036 22.5486 956.036 22.217 955.699 19.5405C955.367 16.864 954.361 15.8633 953.028 13.1868C951.69 10.5103 952.691 9.50959 950.352 7.83975C948.013 6.16398 947.675 6.8331 945.336 4.49413C942.991 2.15516 945.668 3.15589 942.991 2.15516L938.444 0.449788C937.858 0.224773 937.242 0.0885803 936.614 0.0412088C935.856 -0.0180056 934.867 -0.0416914 934.299 0.147795C933.493 0.41426 928.389 1.75843 926.4 2.27951C925.867 2.41571 925.363 2.62296 924.884 2.8835L922.616 4.11516C922.195 4.3461 921.757 4.52966 921.295 4.66585C918.222 5.56591 904.828 10.3327 902.341 25.2902C902.228 25.9534 902.033 26.593 901.725 27.191C900.345 29.8616 896.147 37.139 891.499 36.5943C885.814 35.9251 876.115 23.2177 868.76 30.5781C861.933 37.4055 853.951 42.2137 856.047 53.0322C856.349 54.5836 857.184 55.9811 858.41 56.9818C861.666 59.6346 868.506 65.7041 868.76 70.0327C869.092 75.7172 858.729 121.194 859.398 123.87C860.068 126.547 845.353 163.994 843.014 167.34C840.675 170.685 840.337 185.063 843.014 189.409C845.69 193.755 854.045 199.777 860.737 199.44C867.422 199.108 869.429 202.116 872.775 202.448C872.775 202.448 875.671 204.734 880.354 203.395C885.032 202.063 897.071 199.606 900.641 199.831C904.206 200.056 907.883 199.529 907.883 199.529C918.376 195.591 925.008 192.944 928.348 191.582C929.905 190.943 931.64 190.925 933.221 191.505C934.542 191.985 936.117 192.352 936.975 191.837C938.645 190.836 956.036 184.393 961.383 183.055C966.736 181.717 981.451 182.724 982.452 161.324C982.452 161.324 984.767 149.404 965.694 133.807C965.499 133.647 965.309 133.475 965.132 133.291L957.019 124.918C955.746 123.604 953.999 122.864 952.176 122.864H950.743C949.138 122.864 947.586 123.432 946.373 124.474C943.299 127.109 937.609 132.545 936.644 137.466C935.305 144.27 936.306 151.956 932.629 153.963C928.952 155.971 919.59 158.647 918.583 158.647C917.577 158.647 914.349 156.64 910.613 156.302C906.882 155.971 908.221 159.985 899.522 154.632C890.829 149.285 888.822 142.932 888.49 140.924C888.153 138.917 887.152 131.894 888.49 130.893C889.829 129.887 893.168 129.721 895.176 129.721C897.183 129.721 898.521 129.389 900.191 129.052C901.867 128.72 902.199 129.389 906.213 126.713C910.222 124.036 912.567 122.366 915.238 122.035C917.914 121.697 918.583 121.028 920.591 121.028C922.598 121.028 924.937 121.697 925.938 121.366C926.944 121.028 926.607 121.194 929.283 120.193C931.96 119.187 933.967 117.848 935.305 116.848C936.644 115.847 939.983 112.833 940.99 112.501C941.991 112.164 937.307 111.495 941.991 112.164C942.974 112.306 943.939 112.371 944.857 112.389C948.528 112.46 951.554 109.529 951.672 105.863V105.81C951.69 105.39 951.66 104.981 951.595 104.566M896.964 69.1444C896.964 69.1444 907.113 69.1444 910.619 67.3562C914.13 65.5738 924.611 60.0017 924.611 60.0017L928.845 55.987C928.845 55.987 931.741 60.2267 932.635 64.0165C933.523 67.8062 932.635 74.7165 932.635 74.7165C932.635 74.7165 927.732 73.5974 926.838 74.7165C925.944 75.8297 915.344 76.943 911.839 79.3944C908.333 81.8459 899.641 84.5224 899.641 84.5224C899.641 84.5224 896.076 87.4239 896.964 69.1444ZM951.601 104.566C952.264 96.3298 948.007 80.1524 945.082 77.2213C942.157 74.2902 942.008 58.5924 942.008 58.5924C941.997 51.3742 939.658 47.6259 941.665 45.281" fill="#ECECEC"/>
<path d="M734.817 441.473C734.817 441.473 732.235 433.284 730.897 430.441C729.559 427.599 729.393 427.765 727.889 424.757C726.385 421.749 726.551 422.246 724.206 418.906C721.867 415.561 720.363 414.223 719.694 413.05C719.025 411.884 715.679 409.207 715.679 409.207C715.679 409.207 705.986 398.341 705.482 397.838C704.979 397.335 706.151 398.507 703.309 396.168C700.467 393.823 702.137 395.831 698.963 392.988C695.783 390.146 695.451 390.312 693.782 388.808C692.106 387.304 690.939 386.8 689.264 385.131C687.594 383.461 685.924 382.626 685.421 381.785C684.917 380.95 681.074 377.273 681.074 377.273L671.209 376.438C671.209 376.438 669.367 375.934 668.029 375.265C666.697 374.596 664.352 373.092 664.352 373.092C662.682 371.422 659.337 368.539 658.667 368.811C657.998 369.077 655.328 369.374 654.321 368.811C653.32 368.243 646.132 367.911 646.132 367.911C646.132 367.911 644.622 367.911 643.455 368.077C642.283 368.243 638.274 368.035 637.605 368.811C636.936 369.581 634.259 370.25 633.756 370.587C633.253 370.919 629.913 372.761 629.244 373.258C628.575 373.761 625.898 375.769 625.229 376.438C624.56 377.107 619.213 380.447 617.709 380.95C616.199 381.453 616.371 381.619 614.529 382.288C612.693 382.957 606.002 384.296 606.002 384.296C606.002 384.296 598.648 390.146 597.475 390.483C596.303 390.815 592.626 393.154 591.956 393.326C591.287 393.492 588.445 394.83 586.609 395.831C584.768 396.831 583.098 398.341 581.76 399.176C580.422 400.011 578.083 401.012 577.248 402.516C576.407 404.026 574.571 407.2 573.902 408.2C573.233 409.207 571.391 412.553 571.391 412.553C571.391 412.553 570.894 411.214 570.894 408.372C570.894 405.53 570.722 405.53 571.06 403.522C571.391 401.515 571.391 400.68 571.729 398.839C572.06 397.003 572.232 395.327 573.067 393.154C573.902 390.981 573.902 389.643 574.903 386.8C575.909 383.958 576.407 383.123 576.579 380.784C576.744 378.445 577.248 378.777 576.744 376.604C576.241 374.43 575.909 373.596 575.909 372.589C575.909 371.582 575.406 371.547 575.406 368.811C575.406 366.075 575.074 365.738 575.24 364.062C575.406 362.392 574.18 346.398 574.512 344.059C574.849 341.714 574.849 339.375 575.181 335.361C575.519 331.352 576.188 329.676 576.188 323.322C576.188 316.969 575.181 319.314 576.188 312.291C577.188 305.268 576.857 305.6 578.195 299.915C579.533 294.23 579.196 295.237 579.865 291.56C580.534 287.883 579.196 292.898 580.534 287.883C581.872 282.861 581.203 285.206 581.203 276.845V262.13C581.203 255.777 580.197 254.438 580.534 248.754C580.866 243.069 580.197 240.061 580.534 238.391C580.866 236.721 585.218 217.992 586.888 210.969C588.558 203.946 590.565 201.276 589.564 198.931C588.558 196.592 589.227 200.269 588.558 196.592C587.888 192.915 586.219 192.577 587.888 189.906C589.564 187.23 590.565 184.222 590.565 184.222C590.565 184.222 589.896 169.839 588.226 168.838C586.55 167.837 584.211 165.492 584.211 165.492L577.526 161.146C577.526 161.146 575.519 161.484 574.18 160.814C572.842 160.145 571.504 159.476 571.504 159.476C571.504 159.476 570.166 157.806 567.495 156.468C564.819 155.13 562.811 154.792 562.811 154.792L556.457 152.939L550.773 151.453H543.75C539.741 153.454 537.734 155.13 537.734 155.13C537.734 155.13 528.035 155.799 525.026 158.807C522.018 161.815 518.673 161.815 517.334 162.153C515.996 162.484 515.327 163.153 513.657 163.491C511.987 163.823 509.98 164.823 506.634 164.823C503.289 164.823 497.604 165.161 497.604 165.161C493.595 165.83 489.705 166.831 489.705 166.831C489.705 166.831 488.242 171.177 487.242 172.515C486.235 173.853 487.573 170.508 486.235 173.853C484.897 177.199 484.565 179.876 483.896 180.876C483.227 181.877 480.55 185.56 480.55 185.56L479.881 190.238C479.881 190.238 477.542 194.253 477.211 195.591C476.873 196.929 475.535 199.937 475.203 200.938C474.866 201.945 472.361 208.968 472.361 208.968C472.361 208.968 472.693 211.141 472.859 211.638C473.03 212.141 473.528 213.48 472.859 214.818C472.195 216.156 471.526 220.165 471.526 220.165C471.526 220.165 470.354 223.007 470.354 223.511C470.354 224.014 470.52 227.691 470.52 227.691C470.52 227.691 471.526 231.534 470.857 231.7C470.188 231.872 468.512 233.038 469.016 233.21L469.519 233.376C469.519 233.376 469.353 236.218 469.353 236.721C469.353 237.225 459.097 232.091 459.097 232.091H454.413C453.525 232.091 455.526 234.542 453.525 232.091C451.518 229.639 451.293 229.42 450.179 227.857C449.066 226.3 448.172 225.406 447.947 224.736C447.728 224.067 448.397 223.398 446.39 222.285C444.382 221.172 444.826 220.503 442.375 220.503C439.923 220.503 435.69 221.172 433.238 221.391C430.787 221.616 426.772 223.173 425.878 223.173C424.984 223.173 422.757 224.511 419.862 224.292C416.96 224.067 416.516 223.623 413.84 223.842C411.169 224.067 406.71 226.075 406.041 226.3C405.372 226.519 403.139 229.764 402.026 229.254C400.913 228.751 396.679 230.533 394.672 231.422C392.664 232.316 388.65 236.55 388.206 237.219C387.761 237.888 383.522 241.234 382.408 242.572C381.295 243.91 378.619 253.272 378.619 253.272C378.619 253.272 376.167 259.513 375.498 262.634C374.829 265.754 375.723 276.454 375.723 276.454C375.723 276.454 375.054 278.462 377.281 281.357C379.513 284.259 383.078 290.275 383.747 290.944C384.416 291.613 385.085 294.734 386.867 296.966C388.65 299.193 398.462 317.253 399.131 319.479C399.8 321.706 400.688 328.622 400.688 330.405C400.688 332.187 400.688 337.534 401.138 339.766C401.582 341.993 404.703 349.128 404.703 349.128C404.703 349.128 409.162 381.009 408.048 386.581C406.929 392.153 404.703 405.08 404.703 405.08C404.703 405.08 404.034 411.771 404.259 412.659C404.478 413.553 404.259 415.117 404.259 419.35C404.259 423.584 402.92 432.502 402.92 432.502L401.357 435.398L400.913 444.096V447.886C400.913 448.999 400.688 453.233 400.688 453.233C400.688 453.233 398.681 461.257 398.681 462.151C398.681 463.045 395.785 449.668 395.341 447.661C394.891 445.654 395.56 446.098 394.003 440.976C392.439 435.848 391.995 435.179 390.432 431.389C388.875 427.599 388.206 427.202 387.981 424.84C387.761 422.471 387.536 416.23 387.761 412.884C387.981 409.539 385.529 394.161 385.529 394.161C385.529 394.161 384.416 390.371 384.641 388.364C384.86 386.356 384.641 384.799 384.641 381.897C384.641 378.996 385.085 378.333 384.191 377.664C383.303 376.994 381.964 376.325 381.739 375.656C381.52 374.987 379.069 373.43 379.069 373.43C377.731 369.19 377.281 365.85 376.836 364.731C376.392 363.618 375.723 362.505 375.279 360.497C374.829 358.49 375.054 357.152 373.716 353.812C372.378 350.466 373.047 352.693 371.489 347.571C369.926 342.443 370.37 343.112 368.813 339.097C367.25 335.082 367.25 335.977 366.361 332.187C365.467 328.397 365.242 328.397 364.798 325.946C364.354 323.494 364.354 322.6 364.354 320.818C364.354 319.035 364.129 318.81 363.685 317.472C363.241 316.134 361.233 313.463 361.233 313.463C361.233 313.463 359.895 304.546 358.782 302.982C357.663 301.425 356.775 300.531 356.105 297.854C355.436 295.178 354.767 296.741 354.767 292.726C354.767 288.712 355.211 290.056 354.767 286.71C354.323 283.365 354.542 284.478 353.873 280.913C353.204 277.348 353.204 278.237 353.204 276.229C353.204 274.222 356.33 274.897 353.204 272.22C350.083 269.544 348.526 270.657 346.963 266.648C345.405 262.634 344.292 261.739 344.511 259.957C344.736 258.175 344.511 257.062 344.736 255.948C344.961 254.829 343.398 256.392 344.961 254.829C346.519 253.272 345.624 253.941 347.632 252.378C349.639 250.82 350.752 249.482 350.752 249.482L352.091 245.467C352.091 245.467 348.97 243.685 347.632 242.572C346.294 241.459 345.624 241.903 345.624 239.895C345.624 237.888 345.85 237.219 345.405 234.542C344.961 231.872 344.736 231.422 344.736 227.857C344.736 224.292 345.624 215.819 345.18 214.93C344.736 214.036 344.511 212.698 343.842 210.691C343.173 208.683 340.277 206.682 340.052 204.23C339.833 201.773 339.833 201.329 339.164 198.433C338.495 195.532 337.826 193.975 337.826 192.636C337.826 191.298 334.924 183.944 334.924 183.049C334.924 182.155 334.924 181.711 333.367 179.485C331.804 177.252 326.457 174.801 325.788 173.244C325.119 171.68 325.563 170.342 322.886 168.56C320.216 166.777 318.877 167.221 317.983 166.108C317.095 164.995 315.976 163.657 315.307 162.988C314.644 162.318 314.644 162.093 313.08 161.649C311.517 161.205 310.854 161.424 307.952 159.867C305.057 158.304 303.938 158.085 302.155 157.191C300.373 156.296 294.801 154.07 294.801 154.07L289.543 152.939L279.139 160.945C271.139 163.349 265.537 162.543 263.133 164.148C260.735 165.747 258.331 168.95 254.328 172.953C250.331 176.95 243.924 187.354 243.924 187.354C243.924 187.354 244.723 194.561 243.924 196.959C243.124 199.363 242.325 197.871 243.924 203.816C245.528 209.767 243.924 209.767 246.328 215.369C248.726 220.97 250.331 221.77 251.13 224.174C251.93 226.572 253.528 231.374 255.133 235.377C256.732 239.38 257.531 244.182 258.331 246.581C259.13 248.985 262.333 256.185 262.333 256.185C262.333 256.185 262.487 262.142 264.951 266.145C267.414 270.148 273.815 271.747 273.815 274.95C273.815 278.154 279.18 286.171 279.18 286.171L283.183 294.177L283.141 301.804L285.184 309.561C285.184 309.561 286.86 310.23 286.694 311.568C286.523 312.901 286.025 313.907 286.523 314.577C287.026 315.246 288.027 316.412 288.198 317.75C288.364 319.089 288.198 319.089 288.198 320.427C288.198 321.765 288.53 322.6 288.696 324.27C288.867 325.946 289.199 328.622 289.199 328.622C289.199 328.622 290.372 331.962 290.537 332.631C290.703 333.3 291.041 335.307 291.041 335.307V338.985C291.041 338.985 291.538 341.324 292.041 342.165C292.545 342.999 293.214 344.669 293.214 345.173C293.214 345.676 293.545 348.684 293.545 348.684L296.725 355.873L298.395 357.708L297.394 360.551C297.394 360.551 298.063 362.061 298.561 363.393C299.064 364.731 299.568 367.573 299.733 368.077C299.899 368.58 300.568 372.761 300.568 372.761L300.065 375.769C300.065 375.769 300.065 378.777 300.237 379.28C300.402 379.783 300.402 382.122 300.568 382.792C300.734 383.461 302.072 386.303 302.072 386.303L302.238 389.477C302.238 389.477 301.906 390.483 301.741 391.816C301.569 393.154 301.569 396.334 301.569 396.334L303.245 399.176C303.245 399.176 303.079 400.846 302.576 401.349C302.072 401.853 300.906 404.523 300.906 404.523L303.245 406.365C303.245 406.365 305.08 406.531 304.08 407.869C303.079 409.207 302.741 410.545 302.741 410.545L304.411 412.215C304.411 412.215 304.749 414.388 304.583 415.057C304.411 415.727 304.749 417.734 304.749 417.734L307.757 421.749L307.088 423.922C307.088 423.922 309.764 426.93 310.096 427.599C310.433 428.268 310.599 431.11 310.599 431.11C310.599 431.11 310.433 432.615 309.433 433.615C308.426 434.622 309.095 433.449 308.426 434.622C307.757 435.788 304.583 439.637 304.583 439.637L310.096 442.48C310.096 442.48 311.606 442.308 311.268 443.984C310.937 445.654 310.937 446.488 311.434 446.826C311.937 447.158 315.117 448.662 315.117 448.662C315.117 448.662 314.276 453.18 314.78 453.511C315.283 453.849 316.621 454.518 316.621 454.518C316.621 454.518 320.802 458.195 320.298 458.698C319.795 459.196 318.623 462.873 318.623 462.873L320.66 463.684L324.005 475.723V487.761L327.345 497.123V507.823C327.345 507.823 325.344 524.711 327.345 530.229C329.352 535.742 331.407 545.797 333.87 546.277C336.263 546.744 335.641 550.06 325.178 566.321C324.941 566.688 324.751 567.096 324.633 567.517C323.68 570.821 320.381 585.192 334.243 587.407L340.947 588.686L346.909 593.926C346.909 593.926 349.414 597.438 350.421 599.445C351.422 601.453 347.413 600.949 350.421 604.964C353.429 608.973 354.933 615.492 354.933 615.492C354.933 615.492 352.926 618.003 354.933 620.514C356.94 623.019 359.451 629.538 359.451 629.538L361.956 636.058C361.956 636.058 365.971 650.103 371.987 656.125C378.009 662.141 381.52 666.156 384.528 666.156C387.536 666.156 391.551 665.653 393.559 666.156C395.56 666.654 398.574 675.684 399.575 688.729C400.575 701.768 405.094 697.753 406.094 697.256C406.094 697.256 408.102 678.692 406.094 661.141L410.5 657.404C410.5 657.404 411.838 657.629 412.726 655.622C413.62 653.615 413.17 653.171 414.29 650.938C415.403 648.712 414.734 647.598 415.847 644.697C416.96 641.801 416.297 642.47 417.854 639.794C419.418 637.117 419.417 635.335 420.75 633.997C422.088 632.659 424.095 631.32 425.434 627.756C426.772 624.191 426.547 623.741 426.997 621.289C427.441 618.838 425.878 617.281 426.997 616.161C428.116 615.042 428.11 613.041 429.668 608.807C431.231 604.573 433.013 599.22 434.351 597.213C435.69 595.211 437.028 594.092 437.472 591.422C437.916 588.745 437.028 589.189 437.472 584.061C437.916 578.933 437.952 579.383 437.602 573.586C437.247 567.789 439.094 567.345 437.839 561.992C436.578 556.645 436.667 554.886 436.667 551.991C436.667 549.095 435.998 547.757 436.667 545.969C436.986 545.122 436.85 545.684 436.767 546.034C436.85 545.773 437.016 545.223 437.33 544.186C438.668 539.728 438.425 538.81 438.283 533.457C438.141 528.11 438.887 526.771 438.295 523.207C437.697 519.636 439.059 519.204 439.118 515.858C439.183 512.518 438.171 512.518 439.118 509.842C440.072 507.165 440.297 505.158 440.297 505.158C442.079 508.504 443.642 512.963 444.53 513.851C445.419 514.739 443.417 510.955 445.424 514.745C447.432 518.535 448.841 520.53 449.285 521.643C449.735 522.757 448.397 523.426 449.285 525.433C450.179 527.441 449.954 531.455 450.624 532.124C451.293 532.788 452.631 536.802 453.3 538.366C453.969 539.923 454.638 542.824 455.526 544.157C456.421 545.495 456.865 546.833 457.315 547.502C457.759 548.171 460.654 549.51 459.541 550.404C458.428 551.292 458.203 553.299 458.203 553.299L457.534 555.082C457.534 555.082 457.315 557.983 456.865 559.316C456.421 560.654 456.646 561.773 456.421 564.444C456.196 567.12 456.421 568.233 456.196 570.016C455.976 571.804 456.196 573.805 456.421 575.369C456.646 576.932 457.315 580.272 457.534 582.279C457.759 584.286 458.647 588.745 458.647 590.083C458.647 591.422 458.931 592.754 459.796 595.43C460.654 598.107 460.879 601.228 461.774 603.01C462.662 604.792 465.113 609.92 465.338 610.589C465.563 611.259 464.894 612.597 465.338 613.491C465.782 614.379 469.128 620.401 469.128 620.401C469.128 620.401 467.346 621.07 469.128 623.072C470.91 625.079 472.474 630.207 472.474 630.207C472.474 630.207 472.249 635.335 474.7 636.898C477.152 638.456 488.965 653.84 503.461 654.059C503.461 654.059 518.619 656.516 532.215 626.417C545.811 596.325 549.494 557.646 548.825 516.184C548.825 516.184 555.51 499.799 556.511 497.792C557.517 495.784 558.518 498.123 559.856 492.776C561.195 487.423 561.195 488.43 562.195 484.415C563.202 480.401 560.525 480.401 562.195 477.392C563.871 474.384 563.871 471.376 564.54 469.031C565.209 466.692 563.534 465.023 564.54 462.678C565.541 460.339 562.859 459.67 564.7 458.669C566.548 457.662 572.564 451.309 572.564 451.309C576.91 449.639 578.586 448.638 579.918 448.3C581.256 447.969 581.926 449.307 583.933 446.962C585.94 444.623 585.94 443.954 587.61 442.953C589.286 441.947 590.618 441.615 592.294 439.939C593.97 438.264 591.625 439.276 593.964 438.27C596.303 437.269 591.956 438.27 596.303 437.269C600.655 436.262 597.641 437.938 600.655 436.262C603.663 434.592 605.333 432.922 605.333 432.922C605.333 432.922 610.686 430.246 612.356 429.577C614.026 428.908 618.71 428.239 620.379 427.907C622.055 427.569 623.056 424.597 627.071 425.586C631.079 426.569 631.079 424.934 633.756 425.586C636.432 426.231 639.109 424.597 642.117 425.586C645.125 426.569 652.148 426.9 654.155 427.238C656.163 427.569 658.833 428.239 660.841 428.57C662.848 428.908 670.54 432.585 670.54 432.585C675.555 434.924 675.555 435.593 679.57 436.931C683.579 438.27 681.909 436.6 683.579 438.27C685.255 439.939 687.594 442.616 687.594 442.616C688.932 446.631 687.594 450.616 687.594 450.616C687.594 450.616 687.369 451.285 687.037 451.954C686.7 452.623 685.924 454.518 685.924 454.518C685.924 454.518 684.361 455.631 683.466 455.963C682.578 456.3 681.24 456.969 680.796 457.082C680.346 457.189 679.902 457.858 678.451 457.97C677.006 458.083 677.225 458.414 674.886 458.195C672.547 457.97 666.975 457.858 666.413 457.639C665.856 457.414 664.968 457.526 664.411 457.082C663.855 456.632 664.299 456.969 663.073 456.075C661.847 455.187 660.171 454.405 658.727 453.961C657.276 453.511 651.366 451.397 650.922 451.397C650.478 451.397 649.359 451.397 647.464 451.285C645.569 451.172 641.779 451.06 639.666 451.172C637.546 451.285 634.313 451.397 634.313 451.397L627.74 452.676C627.74 452.676 623.725 453.014 622.553 453.345C621.386 453.677 617.206 454.346 615.701 454.85C614.197 455.353 612.693 456.188 610.348 457.023C608.009 457.858 607.506 457.858 606.505 458.361C605.499 458.864 603.995 460.203 602.657 460.7C601.324 461.203 596.972 463.714 596.303 463.88C595.64 464.046 591.459 466.384 590.452 466.888C589.452 467.391 587.279 469.399 585.94 470.399C584.602 471.4 583.098 474.076 581.76 474.58C580.422 475.083 577.248 477.588 576.744 478.091C576.241 478.595 574.903 480.596 573.902 481.099C572.901 481.603 571.225 484.107 571.225 484.107C571.225 484.107 565.209 491.799 564.706 492.303C564.203 492.806 563.534 494.138 563.534 495.145C563.534 496.152 563.036 498.988 563.036 498.988C563.036 498.988 561.698 501.499 561.195 502.334C560.691 503.169 558.69 506.514 558.352 507.349C558.021 508.184 556.013 508.687 555.344 511.192C554.675 513.703 554.509 515.373 554.338 516.379C554.172 517.38 553.674 519.05 553.674 520.222C553.674 521.395 553.171 520.388 553.337 522.899C553.503 525.404 550.998 538.946 553.171 544.802C555.344 550.653 555.676 560.683 569.721 570.383C583.767 580.076 593.632 587.934 620.883 590.948C648.133 593.956 649.975 594.459 651.982 594.288C653.99 594.122 657.471 596.212 659.976 596.046C662.487 595.881 663.825 595.377 666.999 596.212C670.179 597.047 671.712 596.798 673.548 597.302C675.39 597.799 676.556 598.806 677.563 598.302C678.563 597.799 680.737 597.799 681.24 597.302C681.743 596.798 680.405 598.137 683.579 595.963C686.759 593.79 687.428 594.459 689.933 592.618C692.443 590.776 693.112 590.948 694.617 589.61C696.121 588.271 695.451 589.272 697.459 587.437C699.466 585.595 700.301 585.263 702.308 583.422C703.643 582.194 705.147 580.968 706.821 579.745C709.331 577.903 709.331 578.069 710.664 576.902C712.002 575.73 711.836 575.896 713.34 573.557C714.844 571.218 714.513 573.053 715.182 570.383C715.851 567.706 715.513 568.21 716.348 565.196C717.189 562.188 716.686 563.194 717.521 560.18C718.356 557.172 718.024 555.668 718.356 554.999C718.693 554.33 720.529 543.464 720.529 543.464C720.529 543.464 719.362 540.622 720.529 539.118C721.701 537.614 719.694 538.946 723.039 533.93C726.385 528.915 725.716 524.071 726.717 520.726C727.717 517.38 726.882 517.546 728.724 514.206C730.56 510.86 729.891 511.026 731.063 508.522C732.235 506.011 734.574 492.972 734.74 491.296C734.906 489.626 734.74 492.137 734.74 487.121C734.74 482.106 734.817 478.423 734.817 478.423C734.817 478.423 738.4 458.864 734.817 441.473ZM529.9 389.726C529.9 393.409 528.899 394.078 528.23 395.748C527.561 397.417 525.553 410.462 525.553 410.462L522.77 425.953C522.77 425.953 522.101 428.185 521.989 429.855C521.876 431.525 521.651 430.968 521.095 432.532C520.538 434.089 519.537 435.871 518.981 437.21C518.424 438.548 517.642 442.142 517.642 442.142C517.642 442.142 517.808 443.48 517.642 444.736C517.477 445.991 517.477 446.992 517.056 448.413C516.636 449.834 516.636 450.752 515.967 452.173C515.303 453.594 516.221 454.601 515.967 457.023C515.718 459.451 515.552 460.285 515.469 460.534C515.386 460.783 516.807 463.714 512.207 463.88C507.611 464.046 508.002 454.85 507.777 453.292C507.552 451.729 505.326 449.947 503.543 445.263C501.755 440.585 497.965 433.449 497.746 432.78C497.521 432.111 496.852 428.766 496.633 428.096C496.408 427.433 496.183 423.644 494.845 419.854C493.513 416.064 495.295 415.17 494.845 413.832C494.401 412.493 493.732 409.373 493.732 408.485V400.68C493.732 400.68 491.724 392.207 490.611 389.311C489.498 386.41 489.705 383.739 489.705 383.739L487.046 364.565C487.046 364.565 483.701 359.662 482.362 358.549C481.024 357.43 481.024 356.317 479.467 354.534C477.904 352.752 475.286 338.262 475.286 338.262C475.286 338.262 475.008 334.473 475.257 333.359C475.511 332.24 473.895 325.78 473.895 325.78C473.895 325.78 474.783 311.284 475.227 305.043C475.677 298.802 470.863 289.884 470.863 289.884C470.863 289.884 470.105 285.425 469.88 284.756C469.655 284.093 470.774 280.078 470.863 279.409C470.952 278.74 472.106 273.387 472.545 272.055C472.977 270.716 472.557 267.815 472.462 267.146C472.367 266.477 472.776 262.018 472.332 261.355C471.887 260.685 472.776 256.896 472.332 255.332C471.887 253.775 471.218 250.205 471.218 249.535C471.218 248.866 470.105 247.084 470.105 247.084L468.986 244.188C468.986 244.188 470.549 241.287 471.218 240.618L473.895 241.091L476.009 240.618C476.009 240.618 478.129 239.309 478.46 239.422C478.798 239.534 480.58 239.309 481.024 239.309C481.468 239.309 482.919 240.203 483.701 240.535C484.482 240.872 485.708 239.978 485.708 239.978C485.708 239.978 488.491 240.091 490.043 240.203C491.588 240.316 491.505 241.316 491.505 241.316L494.069 242.43L495.407 242.88L496.965 242.43C496.965 242.43 500.198 245.438 501.092 245.888C501.98 246.332 501.536 246.444 501.536 246.776C501.536 247.108 502.093 247.114 502.537 247.333C502.987 247.558 503.65 247.333 503.65 247.333C503.65 247.333 505.213 248.564 506.214 250.122C506.214 250.122 507.665 253.467 508.002 254.136C508.334 254.805 508.671 254.912 508.891 255.25C509.116 255.581 510.566 256.031 511.229 256.363C511.899 256.7 511.792 256.588 512.68 257.144C513.574 257.701 516.026 258.814 516.026 258.814C516.026 258.814 518.311 261.994 518.531 262.438C518.756 262.882 519.425 264.221 519.869 265.559C520.319 266.897 520.094 266.785 520.094 268.46C520.094 270.136 520.65 270.018 521.207 273.026C521.764 276.04 521.32 277.266 521.32 279.604C521.32 281.943 521.32 283.169 521.095 285.621C520.875 288.072 521.095 288.741 521.095 290.974C521.095 293.206 521.207 293.65 521.207 295.207C521.207 296.765 523.214 300.448 523.214 301.561C523.214 302.674 523.771 315.269 523.771 316.051V320.51C523.771 322.961 523.439 324.744 523.439 325.969C523.439 327.195 522.658 335.112 521.545 341.022C520.425 346.925 521.095 361.753 521.095 361.753C522.214 361.753 526.223 363.31 526.223 363.31C526.223 363.31 527.561 368.663 528.567 373.009C529.568 377.356 529.231 376.355 529.9 380.032C530.569 383.709 529.9 386.048 529.9 389.726ZM679.819 514.508C679.653 516.515 679.653 515.681 678.818 518.02C677.977 520.364 678.315 519.861 677.646 521.868C676.977 523.876 676.645 524.545 675.638 525.711C674.638 526.884 673.631 528.72 671.126 530.893C668.615 533.072 668.615 532.568 667.111 533.907C665.607 535.245 661.427 538.585 659.254 539.923C657.081 541.261 658.081 540.93 656.08 543.103C654.072 545.276 654.238 543.938 652.065 544.938C649.892 545.945 649.554 545.104 646.884 545.773C644.207 546.442 643.372 545.945 641.365 546.111C639.358 546.277 637.35 546.78 633.839 547.615C630.327 548.45 630.327 546.946 626.816 546.442C623.305 545.945 624.643 545.442 620.966 544.269C617.288 543.103 618.461 542.434 615.95 540.93C613.445 539.42 612.439 537.916 612.439 537.916L610.266 534.576C610.266 534.576 609.093 529.892 608.927 528.72C608.762 527.553 608.762 524.876 608.927 523.704C609.093 522.538 608.927 521.199 608.927 520.027C608.927 518.854 611.101 515.011 611.77 514.011C612.439 513.004 615.784 509.83 615.784 509.83C615.784 509.83 619.627 505.65 620.131 505.312C620.634 504.98 626.484 501.972 629.83 499.296C633.17 496.619 652.397 490.935 653.066 490.769L658.419 489.934H665.276C665.276 489.934 667.615 490.1 668.781 490.769C669.954 491.438 669.788 491.272 670.457 492.107C671.126 492.942 672.63 494.612 674.3 496.454C675.976 498.295 674.969 497.958 675.472 498.964C675.976 499.965 676.142 500.634 676.142 501.972C676.142 503.311 676.645 503.642 677.48 506.485C678.315 509.327 678.149 507.989 678.984 509.996C679.819 512.003 679.985 512.507 679.819 514.508Z" fill="#ECECEC"/>
<path d="M1010.19 541.652C1009.08 539.419 1007.29 534.297 1006.62 533.628C1005.96 532.959 1002.61 530.508 1001.72 529.169C1000.83 527.831 997.711 526.049 996.592 525.38C995.479 524.711 996.373 525.824 995.479 524.711C994.887 523.968 994.07 523.374 993.028 522.928C991.464 522.259 986.561 520.696 985.223 519.583C983.885 518.469 982.103 517.575 980.764 515.568C979.432 513.561 978.313 512.228 977.644 511.109C976.975 509.996 970.733 502.641 969.62 497.958C968.507 493.28 965.605 489.265 964.717 487.927C963.823 486.588 962.485 484.362 961.597 483.024C960.702 481.685 957.138 479.678 956.244 477.671C955.355 475.663 952.904 471.429 952.904 471.429C952.904 471.429 950.002 467.196 950.002 466.527C950.002 465.857 948.445 462.512 951.116 461.843C953.792 461.174 960.928 457.609 963.154 456.046C965.386 454.488 987.231 444.013 988.569 440.668C988.569 440.668 992.358 432.644 993.922 431.081C995.479 429.518 998.156 425.728 998.825 423.057C999.494 420.381 1000.83 417.929 1000.83 417.26C1000.83 416.591 1000.61 414.14 1001.05 412.357C1001.5 410.569 1001.95 409.012 1001.95 408.117C1001.95 407.223 1001.72 399.425 1001.72 398.537C1001.72 397.648 1002.17 394.522 1002.39 392.959C1002.61 391.401 1003.06 391.176 1002.83 387.386C1002.61 383.597 1002.61 383.153 1002.61 380.701C1002.61 378.25 1002.83 376.686 1002.17 374.01C1001.5 371.339 1005.29 375.644 1000.16 368.811C995.035 361.972 988.125 351.722 985.448 349.489C982.772 347.263 976.53 341.241 974.973 340.127C973.41 339.014 964.717 333.442 961.372 332.548C958.026 331.654 956.025 331.435 952.454 331.435H940.197C940.197 331.435 939.527 330.322 937.745 330.097C935.957 329.871 932.617 330.766 930.61 330.097C928.602 329.427 930.385 331.583 923.918 330.061C917.458 328.533 903.638 329.966 903.638 329.966C903.638 329.966 886.69 326.082 884.02 326.307C881.343 326.532 875.99 328.089 874.433 328.983C872.87 329.871 867.523 334.78 866.409 335.224C865.29 335.669 860.831 339.683 860.387 340.352C859.943 341.022 857.267 344.811 857.042 345.699C856.823 346.594 856.153 350.158 854.59 351.497C853.033 352.835 847.905 359.97 847.905 359.97C847.905 359.97 845.673 365.163 846.123 368.811C846.567 372.453 845.673 377.581 845.673 377.581C845.673 377.581 843.446 373.122 840.545 371.114C837.649 369.107 831.183 368.811 831.183 368.811C831.183 368.811 818.7 363.979 817.143 363.091C815.58 362.197 810.008 357.963 809.339 357.963H804.88C801.534 357.963 799.977 357.738 797.969 357.963C795.962 358.182 789.277 359.076 789.277 359.076L782.645 361.196C782.645 361.196 742.675 381.927 736.41 408.342C736.41 408.342 731.483 420.6 734.492 424.84C737.5 429.073 740.508 431.412 740.508 431.412C740.508 431.412 741.846 432.082 744.854 434.089C747.868 436.096 745.861 432.751 747.868 436.096C749.875 439.442 750.539 441.781 750.539 441.781C750.539 441.781 750.207 444.12 749.875 447.134C749.538 450.142 748.2 456.827 747.199 458.503C746.192 460.173 745.523 463.181 745.523 463.181C745.523 463.181 746.861 475.888 745.192 480.235C743.522 484.581 743.522 488.258 743.522 489.934C743.522 491.61 743.853 498.964 743.853 500.966C743.853 502.967 744.191 506.319 743.853 508.326C743.522 510.333 742.515 518.102 742.515 518.896C742.515 519.689 741.846 526.38 741.514 527.387C741.177 528.388 739.839 535.073 739.507 536.08C739.169 537.081 740.176 558.818 738.838 561.489C737.5 564.165 735.652 569.181 736.41 570.187C737.168 571.188 736.41 576.203 736.41 576.203L738.838 579.549C738.838 579.549 738.838 580.218 739.839 582.557C740.845 584.896 740.845 588.242 742.183 590.249C743.522 592.257 743.853 592.257 745.523 595.265C747.199 598.273 746.861 598.942 749.538 601.618C752.214 604.295 749.875 601.618 752.214 604.295C754.553 606.965 755.921 606.634 758.083 608.641C760.238 610.648 761.576 611.318 762.577 612.318C763.584 613.319 767.261 614.657 767.261 614.657C767.261 614.657 771.276 612.987 772.276 611.318C773.277 609.642 771.945 609.31 775.622 607.972C779.299 606.634 781.306 605.296 782.645 603.957C783.983 602.619 784.984 602.287 785.315 599.279C785.653 596.265 781.976 595.596 785.315 590.581C788.661 585.565 787.992 585.565 790.668 583.564C793.345 581.556 794.683 581.219 795.352 579.549C795.53 579.093 795.619 578.987 795.642 578.957C795.601 578.957 795.352 578.833 795.352 575.534C795.352 570.187 798.283 568.849 795.648 565.172C793.007 561.489 792.676 562.495 790.331 556.142C787.992 549.788 789.33 552.127 786.654 546.442C783.983 540.758 782.645 538.419 782.645 538.419L781.306 533.072C780.969 527.05 779.968 524.373 780.969 522.034C781.976 519.695 783.314 516.35 783.314 516.35L787.992 517.019L791.337 521.702L796.75 525.711L802.037 530.058C802.037 530.058 805.046 533.072 805.046 534.072C805.046 535.073 808.054 542.765 809.06 543.103C810.061 543.434 814.076 547.609 815.076 547.863C816.083 548.118 818.754 551.458 818.754 551.458C818.754 551.458 822.768 558.818 824.107 560.488C825.445 562.158 826.783 564.165 826.783 565.841C826.783 567.517 828.453 574.534 828.453 575.534V578.88C828.453 578.88 829.791 581.219 831.129 582.226C832.468 583.226 835.144 586.572 836.145 587.241C837.146 587.91 840.491 591.25 840.829 592.588C841.16 593.926 842.161 597.941 843.837 599.948C845.507 601.95 847.846 605.633 849.521 606.634C851.191 607.634 856.207 610.648 856.207 610.648C856.207 610.648 858.546 609.642 861.891 606.965C865.237 604.295 859.884 607.303 871.253 601.95C878.833 598.385 883.181 596.38 884.298 595.934C885.968 595.265 892.991 592.588 892.991 592.588C892.991 592.588 901.683 586.234 902.353 585.234C903.022 584.227 904.36 584.227 906.699 581.219C909.038 578.211 908.191 576.541 910.619 573.527C913.053 570.519 914.391 565.841 915.06 562.827C915.729 559.819 913.722 560.488 915.06 556.811C916.398 553.134 913.668 550.954 915.202 547.863C916.73 544.772 914.154 544.103 915.439 542.096C916.73 540.089 915.676 537.418 915.705 535.073C915.729 532.734 914.722 529.726 914.391 528.388C914.059 527.05 912.721 525.38 912.383 523.372C912.052 521.365 913.39 507.657 913.053 506.319C912.721 504.98 910.193 503.98 910.619 501.635C911.045 499.296 911.199 495.619 910.619 494.612C910.045 493.611 909.488 481.798 909.488 481.798C909.488 481.798 915.771 486.926 916.084 487.927C916.398 488.927 919.519 490.716 919.744 491.604C919.963 492.498 920.407 494.28 921.97 495.838C923.534 497.401 923.978 498.295 924.422 499.183C924.866 500.077 926.429 502.085 926.429 503.198C926.429 504.311 926.204 507.207 926.429 508.101C926.654 508.995 926.429 512.56 926.429 512.56C926.429 512.56 928.437 516.125 929.106 516.35C929.775 516.575 933.114 517.463 935.122 518.357C937.129 519.245 938.023 518.801 939.581 520.583C941.144 522.366 943.145 523.035 944.04 525.492C944.934 527.944 948.942 535.073 949.392 535.967C949.837 536.861 950.506 538.194 950.95 539.313C951.394 540.426 954.515 545.998 954.965 546.892C955.409 547.781 956.522 550.457 957.191 552.239C957.86 554.022 959.643 558.706 959.643 559.375C959.643 560.044 960.312 564.722 959.643 566.06C958.973 567.398 959.945 570.963 959.945 570.963C959.945 570.963 967.672 581.669 969.229 587.685C969.229 587.685 978.591 592.588 979.71 594.82C980.824 597.047 984.613 601.506 984.613 601.506C984.613 601.506 989.072 599.723 989.291 599.054C989.441 598.608 990.037 597.643 991.079 596.159C992.637 593.926 992.637 593.257 994.2 592.588C995.757 591.919 996.871 591.475 998.659 590.581C1000.44 589.693 1004.45 587.241 1005.12 586.572C1005.79 585.903 1006.01 587.016 1007.35 584.12C1008.69 581.219 1008.46 581.444 1009.58 579.212C1010.7 576.985 1011.59 577.21 1011.59 574.309C1011.59 571.407 1011.36 566.954 1011.59 566.285C1011.81 565.616 1011.31 543.878 1010.19 541.652ZM812.572 430.358C811.565 432.863 811.233 435.374 809.729 437.044C808.225 438.714 807.053 439.051 805.715 440.389C804.376 441.728 803.879 442.397 802.872 442.225C801.872 442.059 804.714 443.279 798.194 442.255C791.669 441.224 790.834 440.887 789.833 440.887C788.833 440.887 789.999 440.887 787.157 440.389C784.315 439.886 784.936 439.466 783.101 439.3C781.259 439.134 778.251 438.802 777.416 438.968C776.575 439.134 774.23 439.466 774.367 438.802C774.657 437.381 773.395 436.292 773.674 435.392C773.999 434.338 773.461 434.018 773.389 432.916C773.218 430.37 773.099 426.9 773.615 426.178C774.449 425.005 774.787 422.998 776.119 420.991C777.458 418.989 778.127 417.485 778.796 416.816C779.465 416.147 780.3 414.974 781.306 414.471C782.307 413.974 783.48 413.305 785.149 412.635C786.825 411.966 788.158 411.131 790.331 411.297C792.51 411.463 796.353 411.274 796.353 411.274L802.203 413.802L806.887 415.975C806.887 415.975 808.054 417.817 808.723 418.652C809.392 419.487 809.895 421.808 810.73 423.489C811.565 425.171 812.572 426.178 812.572 427.179C812.572 428.179 813.572 427.848 812.572 430.358ZM871.312 511.778C870.862 513.341 870.365 514.845 870.14 518.635C869.915 522.425 869.139 519.861 867.801 523.426C866.463 526.996 867.801 523.426 866.238 526.996C864.68 530.561 867.073 529.389 865.29 532.29C863.508 535.186 861.501 536.968 859.718 536.749C857.936 536.524 857.492 535.855 855.484 535.63C853.477 535.411 855.484 535.63 854.371 534.297C853.252 532.959 852.364 531.396 850.8 530.058C849.243 528.719 848.124 529.169 847.236 528.5C846.342 527.831 834.528 512.228 833.634 510.89C832.746 509.552 824.61 491.882 824.61 491.882L828.287 489.04C828.287 489.04 834.972 482.017 839.656 478.677C844.334 475.332 844.447 470.873 846.123 470.476C847.792 470.085 849.131 466.189 851.138 463.181C853.145 460.173 855.147 459.835 855.147 459.835L857.823 454.82C857.823 454.82 858.161 451.143 859.493 449.804C860.831 448.466 859.162 434.426 859.493 432.419C859.831 430.412 860.831 423.389 862.17 421.381C863.508 419.38 862.17 393.965 862.17 393.965C863.952 391.62 865.515 393.965 865.515 393.965C865.515 393.965 866.854 417.485 866.854 419.042C866.854 420.6 866.184 425.509 865.515 427.96C864.846 430.412 864.402 431.306 864.402 433.088C864.402 434.871 864.177 475.219 864.402 476.782C864.621 478.34 864.177 487.927 863.952 490.378C863.733 492.83 863.064 496.175 862.839 498.627C862.62 501.078 862.839 501.303 862.62 505.762C862.395 510.221 864.846 509.327 866.629 509.771C868.411 510.221 869.305 509.771 871.756 510.221C874.208 510.665 871.756 510.221 871.312 511.778ZM949.085 414.222C947.581 414.726 944.069 417.9 943.566 418.065C943.062 418.237 941.227 417.396 938.716 418.065C936.211 418.735 935.542 417.609 934.204 418.089C932.866 418.569 933.369 420.179 929.858 418.285C926.346 416.396 923.166 415.057 922.497 414.388C921.828 413.719 922.331 414.057 920.827 412.215C919.323 410.379 917.985 409.373 917.985 408.2C917.985 407.028 918.323 403.854 917.985 402.853C917.654 401.853 915.48 401.183 915.143 400.68C914.811 400.177 913.473 397.334 913.473 397.334V394.83C913.473 394.83 914.64 390.312 915.646 388.973C916.647 387.641 917.819 386.469 918.986 384.13C920.158 381.785 921.165 378.942 922.166 377.438C923.166 375.934 924.007 373.595 925.843 372.926C927.685 372.257 929.52 371.422 930.527 371.085C931.527 370.753 934.37 371.085 935.874 371.085C937.378 371.085 945.407 375.099 945.407 375.099C945.407 375.099 947.409 378.777 948.25 379.612C949.085 380.447 952.258 380.636 953.431 382.88C954.603 385.13 954.1 382.122 956.273 386.303C958.446 390.483 958.612 391.857 958.612 392.923C958.612 393.989 959.281 395.665 959.281 395.665C959.281 395.665 959.447 395.83 959.281 398.169C959.116 400.514 958.612 400.846 958.115 402.853C957.611 404.861 958.612 404.523 957.108 406.199C955.604 407.869 955.101 409.539 953.597 410.711C952.093 411.883 950.589 413.719 949.085 414.222Z" fill="#ECECEC"/>
<path d="M1581.13 488.638C1581.8 487.175 1581.13 484.499 1581.13 484.499C1580.13 479.821 1579.8 479.483 1579.8 477.813C1579.8 476.143 1578.79 473.799 1578.46 472.46C1578.12 471.122 1579.46 471.791 1577.45 469.121C1575.44 466.444 1575.44 466.107 1574.44 464.768C1573.44 463.436 1571.77 460.422 1571.77 460.422L1566.75 451.729C1566.75 451.729 1558.56 447.045 1557.06 445.376C1555.55 443.706 1552.88 441.195 1549.86 439.188C1546.85 437.186 1547.02 436.517 1543.51 434.344C1540 432.171 1539.16 431.164 1537.16 430.329C1535.15 429.494 1526.46 426.314 1526.46 426.314C1526.46 426.314 1526.46 426.984 1524.12 425.645C1521.78 424.307 1519.27 423.141 1518.27 422.306C1517.26 421.465 1518.43 421.802 1516.09 420.802C1513.75 419.795 1510.24 418.794 1509.41 418.623C1508.57 418.457 1507.23 418.125 1505.72 418.125C1504.22 418.125 1500.88 417.788 1500.21 417.29C1499.54 416.787 1499.2 416.621 1497.87 415.78C1496.53 414.945 1495.02 414.779 1493.52 413.945C1492.02 413.11 1492.52 413.11 1491.18 412.772C1489.84 412.441 1486.67 411.606 1486.67 411.606L1469.78 411.771C1469.78 411.771 1467.94 411.434 1466.77 411.606C1465.6 411.771 1463.26 412.606 1461.42 412.772C1459.58 412.938 1457.4 412.772 1454.9 412.938C1452.39 413.11 1451.05 412.441 1449.22 413.441C1447.37 414.448 1447.37 414.11 1444.2 415.614C1441.02 417.118 1436 419.126 1435.34 419.292C1434.67 419.463 1432.33 419.463 1431.16 420.132C1429.99 420.802 1428.82 421.968 1428.15 422.306C1427.48 422.637 1421.12 424.645 1421.12 424.645C1421.12 424.645 1420.63 426.486 1419.79 427.487C1418.95 428.488 1416.78 429.157 1416.45 430.495C1416.11 431.833 1415.78 432.668 1414.44 434.172C1413.1 435.676 1409.59 438.021 1409.59 438.021C1409.59 438.021 1410.6 432.834 1410.76 431.999C1410.93 431.164 1413.77 427.819 1413.44 426.314C1413.1 424.81 1413.1 423.644 1412.6 423.141C1412.1 422.637 1402.4 411.937 1400.9 409.261C1399.39 406.59 1397.05 403.41 1395.05 401.906C1393.04 400.402 1396.72 401.74 1390.7 398.395C1384.68 395.049 1383.34 394.049 1380.5 392.379C1377.65 390.703 1377.82 391.538 1374.98 389.033C1372.14 386.522 1370.3 385.018 1369.29 384.349C1368.29 383.68 1372.64 382.845 1361.77 381.507C1350.91 380.169 1337.19 380.169 1337.19 380.169C1337.19 380.169 1326.33 376.326 1324.66 373.987C1322.98 371.642 1318.64 363.115 1312.95 363.287C1307.27 363.452 1290.88 367.633 1289.88 379.837C1288.87 392.041 1287.76 398.786 1287.76 398.786C1287.76 398.786 1284.87 403.464 1284.2 404.802C1283.53 406.14 1280.85 413.05 1280.18 413.5C1279.51 413.945 1279.07 415.283 1278.4 417.29C1277.73 419.292 1276.17 421.749 1274.61 423.75C1273.05 425.758 1272.38 428.434 1271.49 430.661C1270.6 432.893 1267.03 438.909 1266.59 440.248C1266.14 441.586 1265.02 443.593 1264.35 446.714C1263.68 449.834 1262.8 462.098 1260.79 462.542C1260.79 462.542 1257.67 462.542 1258.34 459.196C1259.01 455.857 1259.67 453.624 1259.9 452.286C1260.12 450.948 1260.79 450.059 1260.56 447.827C1260.34 445.601 1259.67 444.487 1259.45 442.255C1259.23 440.029 1258.78 437.127 1258.11 436.458C1257.44 435.789 1255.88 427.99 1254.99 426.202C1254.1 424.42 1254.99 426.871 1252.98 422.193C1250.98 417.509 1250.98 417.959 1250.09 414.614C1249.2 411.268 1249.2 411.493 1247.64 407.703C1246.07 403.914 1246.3 404.583 1244.74 400.343C1243.18 396.109 1242.73 395.665 1241.84 392.094C1240.95 388.53 1235.6 380.281 1231.14 378.943C1226.68 377.605 1219.55 374.709 1219.55 374.709C1219.55 374.709 1211.74 369.599 1210.41 368.811C1209.07 368.024 1192.35 358.881 1191.68 358.437C1191.01 357.993 1185.21 354.866 1184.54 353.978C1183.88 353.084 1171.39 343.722 1157.57 347.512C1157.57 347.512 1137.07 351.746 1132.61 360.663C1132.61 360.663 1117.22 376.716 1115.22 380.506C1113.21 384.296 1107.19 393.214 1107.19 394.996C1107.19 396.778 1104.74 405.027 1103.4 406.809C1102.06 408.592 1081.33 432.893 1079.33 434.676C1077.32 436.458 1071.75 446.27 1071.75 446.27L1069.3 450.504C1069.3 450.504 1069.52 453.399 1069.52 454.293C1069.52 455.187 1069.07 455.857 1067.96 458.308C1066.84 460.759 1065.06 465.218 1064.84 465.887C1064.61 466.557 1065.28 470.121 1064.61 469.008C1063.94 467.889 1061.72 460.979 1061.27 459.196C1060.82 457.414 1059.93 456.52 1059.71 452.73C1059.49 448.94 1058.82 448.94 1059.26 444.931C1059.71 440.917 1059.49 442.48 1059.93 439.134C1060.38 435.789 1059.93 439.578 1060.6 432.449C1061.27 425.314 1060.6 424.87 1061.94 421.749C1063.28 418.622 1064.17 418.403 1065.28 417.065C1066.4 415.727 1066.18 415.952 1067.96 412.162C1069.74 408.372 1068.63 402.35 1069.3 401.237C1069.96 400.124 1071.08 397.803 1073.09 395.061C1075.09 392.319 1079.55 388.305 1079.77 385.853C1080 383.402 1079.55 381.394 1081.56 379.393C1083.56 377.386 1084.23 377.161 1084.68 375.153C1085.12 373.152 1085.57 352.196 1082.89 342.384C1082.89 342.384 1081.11 333.916 1079.55 331.684C1077.99 329.457 1070.19 325.218 1071.08 320.759C1071.97 316.306 1077.54 311.178 1078.21 310.509C1078.88 309.84 1083.34 300.922 1082.89 291.335C1082.45 281.748 1080 280.41 1080 279.522C1080 278.634 1079.55 273.5 1079.55 273.5C1079.55 273.5 1080 265.701 1075.54 261.242C1071.08 256.784 1066.18 252.769 1060.15 253.882C1054.14 255.001 1047.9 256.671 1047.9 256.671C1047.9 256.671 1023.15 263.806 1023.37 283.199C1023.37 283.199 1020.47 297.914 1026.5 305.043C1032.51 312.179 1037.2 316.412 1037.2 316.412C1037.2 316.412 1038.31 318.42 1039.2 320.202C1040.09 321.991 1039.65 325.33 1039.65 325.33C1039.65 325.33 1022.71 335.586 1020.7 352.527C1020.7 352.527 1015.57 363.914 1016.46 368.811C1017.35 373.708 1015.13 381.288 1021.14 385.297C1027.16 389.311 1025.83 392.118 1027.16 395.061C1028.5 398.004 1030.06 430.554 1030.95 434.344C1030.95 434.344 1023.37 455.667 1022.71 464.845C1022.04 474.024 1020.03 512.14 1017.35 519.944C1014.68 527.749 1012.67 532.427 1012.67 532.427L1011.64 536.767L1013.79 547.811C1013.79 547.811 1019.59 557.842 1021.37 559.849C1023.15 561.856 1024.57 566.534 1029.76 566.984C1034.96 567.428 1044.33 569.655 1051.91 563.414C1059.49 557.172 1062.83 553.383 1063.28 551.156C1063.72 548.924 1065.51 543.352 1065.95 540.231C1066.4 537.111 1068.18 531.313 1069.07 530.419C1069.96 529.531 1072.42 527.524 1072.42 527.524L1075.76 528.193L1079.1 535.328C1079.1 535.328 1086.68 545.578 1090.92 546.916C1095.15 548.255 1112.54 562.97 1123.69 563.195C1134.83 563.414 1151.67 563.639 1153 563.804C1154.34 563.97 1155.68 566.812 1160.2 566.812C1164.71 566.812 1189.28 558.623 1193.97 553.608C1198.65 548.592 1207 544.743 1208.18 543.743C1209.35 542.736 1210.85 541.901 1213.53 539.059C1216.2 536.216 1223.22 530.2 1224.06 529.365C1224.9 528.524 1228.24 524.35 1228.24 524.35C1228.24 524.35 1225.9 534.878 1225.07 536.216C1224.23 537.555 1223.22 539.562 1221.05 542.736C1218.88 545.916 1218.55 546.419 1216.54 549.593C1214.53 552.773 1213.03 555.278 1212.19 556.947C1211.36 558.623 1210.69 561.3 1210.18 562.97C1209.68 564.639 1209.18 565.806 1208.51 567.73C1207.85 569.655 1206.84 573.504 1206.84 575.008C1206.84 576.512 1207.85 592.565 1209.85 596.408C1211.85 600.251 1212.86 602.927 1215.87 604.431C1218.88 605.935 1219.71 606.273 1222.73 606.776C1225.73 607.274 1224.9 607.611 1228.24 607.44C1231.58 607.274 1230.92 608.535 1232.76 607.487C1234.59 606.439 1234.43 606.776 1237.77 605.101C1241.11 603.431 1241.62 602.762 1243.79 601.589C1245.96 600.423 1247.97 599.919 1249.14 599.919C1250.31 599.919 1254.49 600.085 1256.16 599.084C1257.83 598.078 1261.01 596.07 1266.2 588.716C1271.38 581.362 1273.38 577.684 1274.05 574.67C1274.72 571.662 1276.06 568.151 1277.23 565.646C1278.4 563.135 1278.23 564.308 1279.07 561.3C1279.9 558.286 1281.24 556.782 1281.41 554.946C1281.57 553.104 1282.91 546.585 1282.91 546.585C1282.91 546.585 1288.26 548.924 1289.43 553.442C1290.6 557.954 1291.44 561.797 1291.94 563.301C1292.45 564.805 1290.77 563.301 1294.12 569.827C1297.46 576.346 1297.96 580.527 1297.96 580.527C1297.96 580.527 1301.14 598.913 1300.97 600.92C1300.8 602.927 1300.48 608.95 1300.97 609.784C1301.46 610.619 1301.97 614.462 1302.3 616.304C1302.64 618.146 1303.64 621.989 1304.81 625.334C1305.98 628.674 1307.32 631.854 1308.49 633.523C1309.66 635.199 1312.67 640.712 1315.18 641.381C1317.68 642.05 1327.38 644.893 1338.41 635.365C1349.45 625.832 1349.45 622.823 1349.45 620.988C1349.45 619.152 1349.95 614.297 1350.62 611.288C1351.29 608.28 1352.62 606.107 1353.8 603.093C1354.97 600.085 1358.14 597.243 1359.32 595.235C1360.48 593.228 1365.67 581.527 1365.67 576.678C1365.67 571.828 1363.5 567.482 1363.16 566.143C1362.83 564.805 1363.16 563.97 1363.16 562.632C1363.16 561.294 1362.32 560.127 1362.32 559.458C1362.32 558.789 1362.66 557.617 1361.32 557.119C1359.99 556.616 1355.8 554.774 1355.3 554.774C1354.8 554.774 1342.59 554.277 1341.09 556.112C1341.09 556.112 1339.75 551.097 1338.25 549.759C1336.74 548.421 1333.23 541.569 1332.9 540.734C1332.56 539.894 1330.89 531.201 1330.72 526.02C1330.56 520.838 1330.89 508.297 1330.89 508.297C1330.89 508.297 1348.78 505.289 1349.78 504.454C1350.79 503.613 1354.8 501.777 1356.3 501.274C1357.81 500.771 1362.49 498.432 1363.5 497.763C1364.5 497.093 1368.34 495.086 1368.34 495.086C1368.34 495.086 1372.02 490.574 1373.19 489.236C1374.36 487.897 1379.88 481.046 1380.38 480.875C1380.88 480.709 1385.23 479.205 1384.39 482.047L1383.56 484.889L1379.21 490.408C1379.21 490.408 1376.37 494.92 1376.03 495.927C1375.7 496.928 1374.87 498.266 1374.36 501.108C1373.86 503.95 1373.69 505.289 1373.69 506.627C1373.69 507.965 1373.53 510.808 1373.69 511.808C1373.86 512.809 1374.53 514.816 1374.69 515.32C1374.87 515.823 1374.2 519.163 1374.53 520.667C1374.87 522.177 1375.7 524.178 1375.53 525.351C1375.36 526.523 1375.03 529.863 1374.69 530.704C1374.36 531.538 1375.53 532.373 1374.87 535.05C1374.2 537.72 1374.69 543.405 1375.03 544.246C1375.36 545.081 1379.88 549.09 1379.88 549.09C1379.88 549.09 1394.03 560.127 1396.27 571.496C1396.27 571.496 1404.06 577.963 1406.3 579.964C1408.52 581.971 1415.43 585.092 1417.67 587.543C1419.89 590.001 1422.79 592.452 1423.91 594.904C1425.02 597.355 1426.36 600.032 1426.8 601.814C1427.25 603.597 1425.69 601.589 1426.8 605.379C1427.92 609.169 1428.81 612.958 1428.81 612.958C1428.81 612.958 1428.37 613.627 1430.82 614.966C1433.27 616.304 1433.27 616.079 1434.38 617.417C1435.5 618.755 1437.95 621.876 1438.62 622.32C1439.29 622.77 1441.52 625.666 1442.41 627.004C1443.3 628.342 1444.41 629.23 1444.64 629.9C1444.86 630.569 1448.2 635.922 1449.1 637.929C1449.99 639.936 1451.1 641.494 1450.88 643.501C1450.66 645.508 1450.71 646.622 1450.91 648.404C1451.1 650.186 1450.49 651.081 1450.91 653.757C1451.32 656.428 1451.24 658.216 1450.95 659.329C1450.66 660.442 1448.87 666.909 1448.43 668.466C1447.98 670.029 1448.43 670.254 1446.87 671.587C1445.31 672.925 1443.3 675.826 1441.74 676.939C1440.18 678.053 1436.61 679.616 1435.5 679.835C1434.38 680.06 1423.68 682.512 1423.68 682.512C1423.68 682.512 1422.12 683.625 1419.67 684.963C1417.22 686.301 1415.43 686.745 1414.76 686.745C1414.1 686.745 1414.1 687.415 1408.52 686.745C1402.95 686.076 1399.39 686.076 1398.05 685.413C1396.71 684.744 1396.27 684.963 1394.48 684.075C1392.7 683.181 1392.7 682.956 1389.57 682.287C1386.45 681.623 1382.22 676.27 1381.33 675.376C1380.44 674.488 1379.32 673.594 1377.99 671.812C1376.65 670.029 1375.31 669.135 1375.31 669.135C1375.31 669.135 1375.31 668.247 1373.97 667.128C1372.63 666.014 1370.18 662.675 1369.29 662.225C1368.4 661.781 1367.29 660.886 1365.5 660.217C1363.72 659.548 1361.93 658.66 1359.48 658.885C1357.03 659.104 1351.46 658.66 1350.79 659.329C1350.12 659.998 1349.9 660.886 1348.78 661.111C1347.67 661.336 1346.77 662.006 1345.66 662.45C1344.55 662.894 1342.54 664.457 1340.76 665.126C1338.97 665.795 1340.31 665.57 1336.52 667.797C1332.73 670.029 1329.16 672.706 1327.83 674.263C1326.49 675.826 1323.37 678.722 1322.7 679.835C1322.03 680.954 1321.14 684.075 1321.14 685.188C1321.14 686.301 1320.92 689.203 1321.58 690.535C1322.25 691.873 1322.48 693.437 1324.71 694.994C1326.93 696.557 1328.94 699.234 1330.28 700.572C1331.62 701.904 1331.39 702.798 1332.95 704.362C1334.52 705.925 1334.07 705.919 1336.74 708.151C1339.42 710.378 1340.31 712.16 1342.54 713.723C1344.77 715.281 1346.55 717.063 1349.23 717.732C1351.9 718.401 1356.81 719.74 1356.81 719.74C1356.81 719.74 1360.6 719.296 1362.16 719.74C1363.72 720.184 1363.72 719.965 1365.72 719.74C1367.73 719.521 1369.35 720.61 1370.9 719.017C1372.47 717.418 1373.53 718.182 1377.09 716.844C1380.66 715.506 1384.45 712.604 1386.23 712.604C1388.02 712.604 1393.36 711.379 1394.2 711.55C1395.04 711.716 1397.21 711.379 1400.55 711.716C1403.9 712.048 1408.58 711.047 1408.58 711.047L1412.93 711.379C1412.93 711.379 1414.6 712.385 1417.28 712.551C1419.95 712.717 1421.79 712.889 1424.13 713.054C1426.47 713.22 1428.81 713.724 1431.15 713.552C1433.49 713.386 1440.85 714.221 1441.68 714.055C1442.52 713.889 1454.06 711.882 1456.73 710.709C1459.41 709.543 1462.41 707.032 1463.59 705.866C1464.76 704.693 1480.98 692.821 1483.48 687.64C1485.99 682.458 1484.99 678.609 1485.32 677.94C1485.66 677.271 1485.49 676.27 1486.16 674.601C1486.83 672.925 1487.33 671.924 1487.5 671.089C1487.66 670.254 1488.5 666.074 1488.66 664.901C1488.84 663.729 1492.01 654.201 1490.84 650.524C1489.67 646.847 1489.67 633.802 1487.66 627.448C1485.66 621.094 1461.25 582.475 1459.41 580.805C1457.57 579.129 1455.06 578.632 1455.06 578.632C1455.06 578.632 1442.69 563.082 1441.85 562.075C1441.01 561.075 1433.99 552.21 1433.16 550.54C1432.32 548.871 1431.82 546.697 1430.82 544.524C1429.82 542.351 1428.31 540.509 1427.31 539.005C1426.31 537.501 1424.3 534.493 1424.3 534.493C1424.3 534.493 1415.43 520.448 1420.45 514.426C1425.46 508.409 1423.96 507.906 1424.63 507.574C1425.3 507.237 1428.14 504.56 1428.64 504.229C1429.15 503.891 1430.98 502.559 1431.65 502.221C1432.32 501.89 1433.66 500.552 1434.83 500.717C1436 500.883 1436.67 500.214 1437.5 500.214C1438.34 500.214 1439.34 500.214 1440.01 500.386C1440.68 500.552 1441.01 500.214 1441.85 500.048C1442.69 499.882 1447.04 498.876 1447.04 498.876H1448.71L1453.05 496.874C1453.05 496.874 1455.56 496.371 1456.06 496.205C1456.56 496.034 1460.41 496.205 1461.08 495.868C1461.75 495.536 1467.93 494.032 1467.93 494.032L1472.78 492.191C1472.78 492.191 1481.48 490.349 1482.31 494.701C1483.15 499.048 1485.99 501.386 1485.99 501.386C1485.99 501.386 1486.66 502.221 1487.5 503.228C1488.33 504.229 1488.66 503.056 1489.67 505.064C1490.67 507.071 1492.01 509.244 1492.18 509.748C1492.35 510.245 1492.84 511.086 1493.68 511.921C1494.52 512.756 1494.85 513.756 1495.52 514.929C1496.19 516.101 1496.02 516.101 1497.03 518.274C1498.03 520.448 1512.91 548.367 1546.35 538.336C1546.35 538.336 1566.41 532.314 1575.11 514.929C1575.11 514.929 1579.45 503.56 1579.45 502.559C1579.45 501.558 1578.78 503.56 1579.45 498.876C1580.12 494.198 1578.45 494.529 1579.45 492.86C1580.46 491.19 1580.46 490.1 1581.12 488.638H1581.13ZM1214.81 453.79C1215.25 457.805 1214.58 455.128 1213.25 457.805C1211.91 460.481 1212.8 459.812 1211.69 462.708C1210.58 465.609 1210.79 464.046 1209.91 466.053C1209.01 468.061 1208.57 468.73 1207.45 470.477C1206.34 472.229 1207 474.302 1206.34 477.197C1205.67 480.099 1205.45 480.318 1203.67 483.889C1201.88 487.453 1203.67 483.889 1201.88 485.671C1200.09 487.453 1200.76 487.453 1199.43 489.905C1198.09 492.356 1197.64 493.695 1194.52 498.598C1191.4 503.506 1191.63 502.612 1190.51 503.725C1189.39 504.839 1187.84 504.62 1187.17 505.064C1186.5 505.508 1183.38 507.296 1180.26 509.523C1177.14 511.755 1178.03 511.086 1175.35 512.418C1172.68 513.756 1168.44 514.651 1165.77 515.764C1163.09 516.877 1160.64 517.327 1159.08 518.215C1157.52 519.109 1155.07 518.665 1151.95 519.334C1148.83 519.998 1146.59 519.334 1141.69 519.334C1136.79 519.334 1138.35 518.665 1133.89 517.102C1129.43 515.545 1130.1 514.426 1128.98 513.537C1127.87 512.643 1126.53 510.636 1125.19 509.748C1123.86 508.853 1122.96 507.296 1121.4 504.62C1119.84 501.943 1120.51 501.499 1120.07 500.83C1119.62 500.161 1119.84 491.243 1120.07 487.151C1120.29 483.06 1120.07 474.077 1121.18 472.964C1122.3 471.85 1122.07 469.843 1122.84 467.166C1123.61 464.49 1122.3 462.039 1123.19 460.7C1124.08 459.362 1122.07 455.572 1123.19 452.452C1124.3 449.331 1131.21 437.074 1137.46 425.255C1143.7 413.441 1153.28 419.013 1153.28 419.013C1155.04 419.753 1155.29 426.374 1155.96 427.878C1156.63 429.382 1155.96 435.291 1157.96 448.443C1159.15 456.253 1161.13 457.461 1162.54 457.153C1163.55 456.934 1164.91 455.934 1164.87 454.909C1164.32 437.849 1166.31 420.121 1166.21 418.794C1166.13 417.681 1167.75 416.343 1167.75 416.343C1167.75 416.343 1170.67 413.885 1171.34 413.441C1172.01 412.997 1172.9 413.222 1174.02 412.997C1175.13 412.772 1178.92 412.103 1178.92 412.103L1180.93 412.227C1182.93 412.352 1182.04 411.659 1184.49 412.227C1186.94 412.796 1186.72 412.328 1186.72 412.328C1186.72 412.328 1192.52 412.103 1194.08 412.328C1195.64 412.553 1196.53 414.335 1197.2 414.779C1197.87 415.224 1201.66 417.012 1202.77 417.705C1203.88 418.397 1202.77 419.238 1202.77 419.907C1202.77 420.577 1207 423.472 1207.23 425.705C1207.45 427.931 1210.58 429.044 1210.79 430.608C1211.02 432.171 1212.13 433.284 1212.13 435.291C1212.13 437.299 1212.36 437.962 1212.58 442.202C1212.8 446.436 1213.03 443.984 1214.95 448.662C1216.87 453.346 1214.37 449.781 1214.81 453.79ZM1353.02 446.436C1352.19 447.436 1350.68 449.278 1349.01 449.947C1347.34 450.616 1345.33 450.616 1343.66 451.285C1341.99 451.954 1341.82 450.782 1338.98 452.452C1336.13 454.127 1334.13 452.623 1332.62 452.452C1331.12 452.286 1328.28 452.12 1327.61 451.617C1326.94 451.119 1326.94 451.451 1325.27 449.444C1323.6 447.436 1323.93 447.94 1322.76 446.601C1321.59 445.263 1319.92 443.925 1318.41 443.759C1316.91 443.593 1313.9 443.593 1313.9 443.593V440.585C1313.9 439.75 1314.57 439.916 1313.9 437.909C1313.23 435.901 1313.06 438.578 1313.06 434.729C1313.06 430.88 1312.73 430.886 1313.06 429.713C1313.4 428.547 1313.9 426.374 1313.9 426.374C1313.9 426.374 1315.74 421.69 1318.41 420.689C1321.09 419.682 1327.11 418.516 1327.78 418.344C1328.45 418.178 1330.95 417.178 1336.13 419.854C1341.32 422.525 1346.5 424.87 1348.34 426.374C1350.18 427.878 1353.86 430.886 1354.03 431.887C1354.19 432.893 1353.86 437.24 1354.03 438.412C1354.19 439.578 1353.96 442.593 1354.08 443.09C1354.19 443.593 1353.86 445.435 1353.02 446.436Z" fill="#ECECEC"/>
</g>
<defs>
<clipPath id="clip0_984_6047">
<rect width="1338.42" height="720" fill="white" transform="translate(243)"/>
</clipPath>
</defs>
</svg>
