<svg width="1825" height="720" viewBox="0 0 1825 720" fill="none" xmlns="http://www.w3.org/2000/svg">
<g clip-path="url(#clip0_716_3302)">
<path d="M622.518 28.8173L500.824 27.2524L532.95 72.0433V297.299L498.315 349.805H648.839C648.839 349.805 771.648 334.622 777.315 205.548C777.315 205.548 793.51 75.9166 676.274 37.478C658.933 31.7919 640.757 29.0497 622.518 28.8173ZM710.77 194.672C710.63 197.585 710.553 200.513 710.46 203.426C706.806 305.154 600.966 294.758 600.966 294.758V80.8899C710.367 80.8899 711.606 175.708 710.77 194.672Z" fill="#ECECEC"/>
<path d="M1201.94 28.8173L1080.25 27.2524L1112.38 72.0433V297.299L1109.57 301.544L1053.4 93.5478H956.419L981.285 130.329L935.548 293.875V234.242L890.679 306.331H838.719V216.75L884.301 251.021V172.083L838.239 203.054V135.689H891.624L928.705 196.903V93.5478H761.166L786.124 130.577V308.764L756.846 349.805H1008.61L982.864 310.902L990.419 287.972H1051.36L1058.44 313.257L1033.65 349.805H1228.27C1228.27 349.805 1351.07 334.622 1356.74 205.548C1356.74 205.548 1372.94 75.9166 1255.7 37.478C1238.36 31.7919 1220.18 29.0497 1201.94 28.8173ZM1001.68 242.128L1020.1 177.211L1039.78 242.128H1001.68ZM1290.2 194.672C1290.06 197.585 1289.98 200.513 1289.89 203.426C1286.23 305.154 1180.39 294.758 1180.39 294.758V80.8899C1289.79 80.8899 1291.03 175.708 1290.2 194.672Z" fill="#ECECEC"/>
<path d="M1315.09 654.448H1240.45V536.746L1304.22 580.716L1302.34 471.52L1239.99 516.435L1238.56 422.84L1311.78 423.305L1363.74 507.914L1361.37 362.649H1060.96L1088.83 403.939V484.767L999.09 362.649H926.816L956.574 405.349V465.044C939.032 405.225 883.774 361.549 818.329 361.549C738.763 361.549 674.261 426.094 674.261 505.714C674.261 525.281 678.148 543.935 685.223 560.947L629.547 656.648H562.708L718.341 364.23L476.81 362.649V503.823L529.714 418.115H609.079L451 716.839H697.253V583.861C722.893 623.586 767.545 649.878 818.329 649.878C877.504 649.878 928.334 614.181 950.505 563.131L950.427 564.324L956.419 569.05V605.614L933.629 645.943L1036.71 646.252L1005.86 605.614V470.436L1139.69 649.723V406.449L1146.61 397.153L1165.36 419.153L1166.46 661.389L1132.44 720H1372.72V555.183L1315.09 654.448ZM818.329 592.228C770.58 592.228 731.873 553.495 731.873 505.714C731.873 457.933 770.58 419.2 818.329 419.2C866.077 419.2 904.784 457.933 904.784 505.714C904.784 553.495 866.077 592.228 818.329 592.228Z" fill="#ECECEC"/>
<path d="M953.4 68.1393H950.056L951.744 65.6294L953.4 68.1393Z" fill="#ECECEC"/>
<path d="M997.309 36.0062V68.1391H953.4L951.743 65.6292L957.209 57.4953V10.5199L951.712 2.46342L946.371 10.2255V57.4643L951.743 65.6292L950.056 68.1391H924.571L931.771 57.4643V37.602H914.012V57.4643L921.057 68.1391H892.212L899.427 57.4643V10.5664L894.519 5.54657V28.3371L883.96 11.8368H877.844V57.3403L885.26 68.1236H854.79L862.331 57.4643V11.8368H856.091L845.315 28.4765V0H894.086V0.0154932H921.057L914.012 10.2255V25.4708H931.771V10.5664L924.571 0.0154932H995.668V28.2906L985.186 11.7438H971.329V29.4216L983.886 20.575V42.3274L971.407 33.4963V56.1938H985.264L997.309 36.0062Z" fill="#ECECEC"/>
<path d="M953.4 68.1393H950.056L951.744 65.6294L953.4 68.1393Z" fill="#ECECEC"/>
</g>
<defs>
<clipPath id="clip0_716_3302">
<rect width="921.72" height="720" fill="white" transform="translate(451)"/>
</clipPath>
</defs>
</svg>
